<svg width="126" height="126" viewBox="0 0 126 126" fill="none" xmlns="http://www.w3.org/2000/svg">
<path d="M63 123C96.1371 123 123 96.1371 123 63C123 29.8629 96.1371 3 63 3C29.8629 3 3 29.8629 3 63C3 96.1371 29.8629 123 63 123Z" stroke="#E07D2B" stroke-width="6" stroke-miterlimit="10"/>
<g clip-path="url(#clip0)">
<path d="M94.1622 56.1918H28.5894V95.7616H94.1622V56.1918Z" fill="#A98258"/>
<path d="M83.9871 77.6725L79.4648 82.1948L83.9871 86.7171L81.726 88.9782H94.1622V75.4114H81.726L83.9871 77.6725Z" fill="#F4D5BD"/>
<path d="M46.3258 35.8416H33.4644C33.27 35.8416 33.1117 35.6833 33.1117 35.4888V33.3668C33.1117 31.6121 34.5351 30.1887 36.2897 30.1887H43.5005C45.2551 30.1887 46.6785 31.6121 46.6785 33.3668V35.4888C46.6785 35.6833 46.5202 35.8416 46.3258 35.8416Z" fill="#F0C419"/>
<path d="M37.6338 33.5804H35.3727V35.8416H37.6338V33.5804Z" fill="#AA891D"/>
<path d="M41.0255 33.5804H38.7644V35.8416H41.0255V33.5804Z" fill="#AA891D"/>
<path d="M44.4173 33.5804H42.1561V35.8416H44.4173V33.5804Z" fill="#AA891D"/>
<path d="M67.8065 35.8416H54.9451C54.7507 35.8416 54.5924 35.6833 54.5924 35.4888V33.3668C54.5924 31.6121 56.0158 30.1887 57.7704 30.1887H64.9812C66.7358 30.1887 68.1592 31.6121 68.1592 33.3668V35.4888C68.1592 35.6833 68.0009 35.8416 67.8065 35.8416Z" fill="#F0C419"/>
<path d="M59.1146 33.5804H56.8535V35.8416H59.1146V33.5804Z" fill="#AA891D"/>
<path d="M62.5064 33.5804H60.2452V35.8416H62.5064V33.5804Z" fill="#AA891D"/>
<path d="M65.8981 33.5804H63.637V35.8416H65.8981V33.5804Z" fill="#AA891D"/>
<path d="M89.2872 35.8416H76.4259C76.2314 35.8416 76.0731 35.6833 76.0731 35.4888V33.3668C76.0731 31.6121 77.4965 30.1887 79.2511 30.1887H86.4619C88.2165 30.1887 89.6399 31.6121 89.6399 33.3668V35.4888C89.6399 35.6833 89.4816 35.8416 89.2872 35.8416Z" fill="#F0C419"/>
<path d="M80.5954 33.5804H78.3342V35.8416H80.5954V33.5804Z" fill="#AA891D"/>
<path d="M83.9871 33.5804H81.726V35.8416H83.9871V33.5804Z" fill="#AA891D"/>
<path d="M87.3788 33.5804H85.1177V35.8416H87.3788V33.5804Z" fill="#AA891D"/>
<path d="M91.9011 56.1918V54.1975C91.9011 52.6486 91.026 51.232 89.6399 50.5389C88.2539 49.8459 87.3788 48.4293 87.3788 46.8804V35.8416H78.3343V46.8804C78.3343 48.4293 77.4592 49.8459 76.0731 50.5389C74.6871 51.232 73.812 52.6486 73.812 54.1975V56.1918H91.9011Z" fill="#6A3006"/>
<path d="M70.4204 56.1918V54.1975C70.4204 52.6486 69.5453 51.232 68.1592 50.5389C66.7732 49.8459 65.8981 48.4293 65.8981 46.8804V35.8416H56.8536V46.8804C56.8536 48.4293 55.9785 49.8459 54.5924 50.5389C53.2064 51.232 52.3313 52.6486 52.3313 54.1975V56.1918H70.4204Z" fill="#6A3006"/>
<path d="M48.9395 56.1918V54.1975C48.9395 52.6486 48.0645 51.232 46.6784 50.5389C45.2923 49.8459 44.4173 48.4293 44.4173 46.8804V35.8416H35.3727V46.8804C35.3727 48.4293 34.4977 49.8459 33.1116 50.5389C31.7255 51.232 30.8505 52.6486 30.8505 54.1975V56.1918H48.9395Z" fill="#6A3006"/>
<path d="M39.895 91.2393H28.5894V93.5005H39.895V91.2393Z" fill="#7C5F42"/>
<path d="M37.6339 87.8476H28.5894V90.1088H37.6339V87.8476Z" fill="#7C5F42"/>
<path d="M35.3728 84.4559H28.5894V86.7171H35.3728V84.4559Z" fill="#7C5F42"/>
<path d="M33.1116 81.0642H28.5894V83.3254H33.1116V81.0642Z" fill="#7C5F42"/>
</g>
<defs>
<clipPath id="clip0">
<rect width="65.5729" height="65.5729" fill="white" transform="translate(28.5894 30.1887)"/>
</clipPath>
</defs>
</svg>
