<svg width="122" height="122" viewBox="0 0 122 122" fill="none" xmlns="http://www.w3.org/2000/svg">
<path d="M60.7162 118.432C92.592 118.432 118.432 92.592 118.432 60.7162C118.432 28.8404 92.592 3 60.7162 3C28.8404 3 3 28.8404 3 60.7162C3 92.592 28.8404 118.432 60.7162 118.432Z" stroke="#E07D2B" stroke-width="6" stroke-miterlimit="10"/>
<g clip-path="url(#clip0)">
<path d="M87.1121 34.6532H75.0152C70.6302 36.3921 69.6582 33.4436 60.4992 33.4436C51.3403 33.4436 50.3682 36.3921 45.9831 34.6532H33.8864L32.2734 65.0465C33.2815 76.992 40.6907 83.4939 46.5376 85.8629H74.4609C80.3077 83.4939 87.717 76.992 88.7251 65.0465L87.1121 34.6532Z" fill="#F5DCB4"/>
<path d="M75.0164 34.6531C88.6366 38.7299 81.2219 59.7539 89.9919 68.8416C91.2509 70.1462 93.4754 69.5667 94.0009 67.8316C94.6952 65.539 95.3887 61.912 95.2784 56.7297C95.1272 49.6229 98.0002 49.1694 98.0002 49.1694C98.0002 49.1694 94.3712 32.2338 83.484 32.2338C79.855 32.2338 75.0164 34.6531 75.0164 34.6531Z" fill="#965A50"/>
<path d="M47.7985 66.1049C45.4699 66.1049 43.5647 64.1997 43.5647 61.871V59.4517C43.5647 57.123 45.4699 55.2179 47.7985 55.2179C50.1272 55.2179 52.0324 57.123 52.0324 59.4517V61.871C52.0325 64.1998 50.1272 66.1049 47.7985 66.1049Z" fill="#4B3F4E"/>
<path d="M47.7992 55.2177C47.5922 55.2177 47.3936 55.2501 47.1943 55.2791V61.2661C47.1943 62.6022 48.2776 63.6854 49.6137 63.6854C50.9499 63.6854 52.033 62.6022 52.033 61.2661V59.4517C52.0332 57.1232 50.1278 55.2177 47.7992 55.2177Z" fill="#5D5360"/>
<path d="M47.7981 60.0564C48.8003 60.0564 49.6126 59.244 49.6126 58.2419C49.6126 57.2397 48.8003 56.4274 47.7981 56.4274C46.796 56.4274 45.9836 57.2397 45.9836 58.2419C45.9836 59.244 46.796 60.0564 47.7981 60.0564Z" fill="white"/>
<path d="M73.2014 66.1049C70.8727 66.1049 68.9675 64.1997 68.9675 61.871V59.4517C68.9675 57.123 70.8727 55.2179 73.2014 55.2179C75.53 55.2179 77.4352 57.123 77.4352 59.4517V61.871C77.4352 64.1998 75.5299 66.1049 73.2014 66.1049Z" fill="#4B3F4E"/>
<path d="M73.202 55.2177C72.995 55.2177 72.7964 55.2501 72.5972 55.2791V61.2661C72.5972 62.6022 73.6804 63.6854 75.0165 63.6854C76.3527 63.6854 77.4358 62.6022 77.4358 61.2661V59.4517C77.4358 57.1232 75.5305 55.2177 73.202 55.2177Z" fill="#5D5360"/>
<path d="M73.2012 60.0564C74.2033 60.0564 75.0157 59.244 75.0157 58.2419C75.0157 57.2397 74.2033 56.4274 73.2012 56.4274C72.1991 56.4274 71.3867 57.2397 71.3867 58.2419C71.3867 59.244 72.1991 60.0564 73.2012 60.0564Z" fill="white"/>
<path d="M89.9919 68.8419C91.2509 70.1465 93.4754 69.567 94.0009 67.8317C94.399 66.5169 94.7917 64.7468 95.038 62.5124C92.6599 61.3271 90.63 57.5452 89.3812 51.1352C87.113 39.492 83.9377 32.99 75.0164 34.6532C88.6366 38.73 81.2219 59.7541 89.9919 68.8419Z" fill="#824641"/>
<path d="M46.5376 85.8631H52.2712C52.2712 85.8631 42.203 79.1091 40.5397 67.1634C37.304 43.9246 43.4631 36.9717 48.7903 35.1975C47.9464 35.2261 47.0698 35.0841 45.9832 34.6533H33.8864L32.2734 65.0466C33.2815 76.9921 40.6907 83.4941 46.5376 85.8631Z" fill="#E7C9A5"/>
<path d="M45.9838 34.6531C32.3636 38.7299 39.7785 59.754 31.0083 68.8416C29.7493 70.1462 27.5248 69.5667 26.9993 67.8316C26.305 65.539 25.6115 61.912 25.7218 56.7297C25.873 49.6229 23 49.1694 23 49.1694C23 49.1694 26.629 32.2338 37.5162 32.2338C41.1452 32.2338 45.9838 34.6531 45.9838 34.6531Z" fill="#965A50"/>
<path d="M45.579 34.4605C44.3514 33.891 40.5229 32.2338 37.5162 32.2338C26.629 32.2338 23 49.1695 23 49.1695C23 49.1695 25.873 49.6231 25.7218 56.73C25.7198 56.8249 25.7226 56.9103 25.7211 57.0042C32.6822 30.5949 43.3788 33.5331 45.579 34.4605Z" fill="#824641"/>
<path d="M60.501 96.3467C67.85 96.3467 73.8076 92.0143 73.8076 86.6699C73.8076 81.3256 67.85 76.9932 60.501 76.9932C53.1519 76.9932 47.1943 81.3256 47.1943 86.6699C47.1943 92.0143 53.1519 96.3467 60.501 96.3467Z" fill="#BC8E78"/>
<path d="M54.4514 86.6693V92.7176C54.4514 96.0581 57.1593 98.766 60.4997 98.766C63.8401 98.766 66.548 96.0581 66.548 92.7176V86.6693H54.4514Z" fill="#FF8087"/>
<path d="M54.4514 91.3937C56.2006 91.1746 57.851 90.6424 59.29 89.8378V91.508C59.29 92.1759 59.8317 92.7176 60.4997 92.7176C61.1677 92.7176 61.7093 92.1759 61.7093 91.508V89.8224C63.1345 90.6357 64.7893 91.1737 66.548 91.3942V86.6692H54.4514V91.3937V91.3937Z" fill="#E6646E"/>
<path d="M68.3631 75.7824H52.6375C47.6268 75.7824 43.5649 78.7611 43.5649 82.4356C43.5649 86.11 47.627 89.0887 52.6375 89.0887C55.1606 89.0887 57.4395 88.3315 59.082 87.1115C59.4979 86.8027 59.9993 86.6483 60.4999 86.6483C61.0013 86.6483 61.5027 86.8025 61.9186 87.1115C63.5611 88.3315 65.8399 89.0887 68.3631 89.0887C73.3738 89.0887 77.4356 86.11 77.4356 82.4356C77.4358 78.7611 73.3738 75.7824 68.3631 75.7824Z" fill="#D4AF91"/>
<path d="M60.5012 70.9436C64.5097 70.9436 67.7591 73.1099 67.7591 75.7823C67.7591 78.3595 64.7087 79.7166 62.5072 80.72C61.2311 81.3017 59.7709 81.3017 58.4948 80.72C56.2933 79.7166 53.2429 78.3595 53.2429 75.7823C53.2432 73.1101 56.4926 70.9436 60.5012 70.9436Z" fill="#5D5360"/>
<path d="M56.8341 74.4591C56.6649 72.9367 57.7374 71.3087 57.7374 71.3087C55.1002 72.0336 53.2429 73.7624 53.2429 75.7821C53.2429 78.3592 56.2933 79.7162 58.4948 80.7198C59.7709 81.3013 61.2312 81.3013 62.5073 80.7198C62.9808 80.504 63.4935 80.2702 64.0066 80.0131C61.0302 79.4868 57.1743 77.5212 56.8341 74.4591Z" fill="#4B3F4E"/>
</g>
<defs>
<clipPath id="clip0">
<rect width="75" height="75" fill="white" transform="translate(23 28)"/>
</clipPath>
</defs>
</svg>
