<svg width="122" height="122" viewBox="0 0 122 122" fill="none" xmlns="http://www.w3.org/2000/svg">
<path d="M60.7162 118.432C92.592 118.432 118.432 92.592 118.432 60.7162C118.432 28.8404 92.592 3 60.7162 3C28.8404 3 3 28.8404 3 60.7162C3 92.592 28.8404 118.432 60.7162 118.432Z" stroke="#E07D2B" stroke-width="6" stroke-miterlimit="10"/>
<g clip-path="url(#clip0)">
<path d="M38.6263 51.8094L32.5858 46.975C30.2353 45.0955 29.3288 41.9374 30.3246 39.0977C31.3205 36.258 34.0021 34.358 37.0109 34.3588H58.4511C60.5748 34.3572 62.2969 32.6359 62.2985 30.5115V21.41H65.5357V30.5115C65.531 34.4228 62.3617 37.5921 58.4511 37.596H37.0109C35.3765 37.5953 33.9191 38.6274 33.3785 40.1702C32.8379 41.7121 33.3311 43.4279 34.6091 44.4483L40.6496 49.2812L38.6263 51.8094Z" fill="#FFD925"/>
<path d="M63.917 14.9355L68.7728 13L69.5236 18.1727L73.6286 21.41L69.5236 24.6472L68.7728 29.8207L63.917 27.8844L59.0611 29.8207L58.3103 24.6472L54.2053 21.41L58.3103 18.1727L59.0611 13L63.917 14.9355Z" fill="#FF9533"/>
<path d="M83.5705 53.2739C74.763 44.4807 61.3431 42.2519 50.167 47.7274L43.5116 42.9735L32.0659 54.4183L36.8198 61.0745C30.2948 74.4115 34.8463 90.5224 47.3858 98.4724C59.9253 106.423 76.4385 103.668 85.7179 92.077C94.9972 80.486 94.0725 63.7704 83.5705 53.2739V53.2739Z" fill="#595959"/>
<path d="M62.9964 98.1547C60.3867 98.1563 57.7936 97.7406 55.3159 96.9234L56.3323 93.8482C59.2376 94.8045 62.3151 95.123 65.354 94.7816L65.7167 97.9983C64.8134 98.101 63.9053 98.154 62.9964 98.1547Z" fill="#939393"/>
<path d="M76.1263 94.2868L74.3686 91.5673C75.6244 90.7556 76.7902 89.812 77.8468 88.7537C83.365 83.2364 85.3764 75.1172 83.0725 67.6612C80.7679 60.2052 74.5259 54.6365 66.8564 53.1949L67.4524 50.013C76.3025 51.6751 83.5056 58.0997 86.1651 66.7033C88.8254 75.3061 86.505 84.6756 80.1372 91.0425C78.9185 92.2628 77.5742 93.3495 76.1263 94.2868V94.2868Z" fill="#939393"/>
</g>
<defs>
<clipPath id="clip0">
<rect width="90" height="90" fill="white" transform="translate(16 13)"/>
</clipPath>
</defs>
</svg>
