<svg width="122" height="122" viewBox="0 0 122 122" fill="none" xmlns="http://www.w3.org/2000/svg">
<path d="M60.7162 118.432C92.592 118.432 118.432 92.592 118.432 60.7162C118.432 28.8404 92.592 3 60.7162 3C28.8404 3 3 28.8404 3 60.7162C3 92.592 28.8404 118.432 60.7162 118.432Z" stroke="#E07D2B" stroke-width="6" stroke-miterlimit="10"/>
<g clip-path="url(#clip0)">
<path d="M81.4624 26.6208H87.64V30.7392C83.2635 30.7406 79.0655 32.4717 75.9616 35.5564C75.5224 34.7025 75.2904 33.7579 75.2849 32.7984C75.2848 29.387 78.051 26.6208 81.4624 26.6208Z" fill="#595959"/>
<path d="M87.6398 32.7984C87.6481 36.2015 84.897 38.9664 81.4952 38.9761C79.1505 38.9815 77.0061 37.6568 75.9614 35.5564C79.0653 32.4731 83.2633 30.7406 87.6398 30.7392V32.7984Z" fill="#FFD33F"/>
<path d="M50.5744 74.6688L39.2295 84.8797C37.88 86.0933 37.6809 88.136 38.7697 89.5885C39.9325 91.1383 42.1317 91.4513 43.6801 90.2886C43.7186 90.2599 43.757 90.2296 43.7955 90.198L56.0656 80.16L64.3025 71.9232L75.2848 80.16L73.0884 95.5272C72.8248 97.3722 74.1084 99.0828 75.9534 99.345C76.1099 99.367 76.2691 99.3794 76.4284 99.3794H76.5121C78.1841 99.3877 79.6229 98.2002 79.9332 96.5569C81.0507 90.6278 83.5216 77.4146 83.5216 77.4146L72.5393 67.8051L60.1842 60.941L50.5744 74.6688Z" fill="#FF9533"/>
<path d="M91.5689 54.1701L89.0128 55.4495L80.776 44.4671L72.5391 38.9759L54.6927 36.2304L46.9913 43.9031L51.1235 48.6228L57.4383 43.0945L67.0479 45.8401L60.1838 60.9409L72.5389 67.8049L78.0302 52.7042L87.6399 63.6865L94.3048 60.7391L91.5689 54.1701Z" fill="#91CECE"/>
<path d="M98.7472 55.0748L98.7116 54.9882C97.9799 53.1321 95.8822 52.222 94.0263 52.9537C93.9274 52.9935 93.8286 53.036 93.7339 53.0842L91.5691 54.1701L94.305 60.739L96.9133 59.5873C98.6388 58.8226 99.4502 56.8279 98.7472 55.0748Z" fill="#FFD33F"/>
<path d="M44.4586 46.4262C43.2656 47.5931 43.245 49.504 44.4106 50.697C45.5376 51.8501 47.3717 51.9132 48.577 50.8424L51.1236 48.6226L46.9914 43.9029L44.4586 46.4262Z" fill="#FFD33F"/>
<path d="M45.0833 33.4848H27.2369V36.2304H45.0833V33.4848Z" fill="#595959"/>
<path d="M24.4912 33.4848H21.7456V36.2304H24.4912V33.4848Z" fill="#595959"/>
<path d="M35.4735 44.4671H32.7279V47.2128H35.4735V44.4671Z" fill="#595959"/>
<path d="M29.9823 44.4671H19V47.2128H29.9823V44.4671Z" fill="#595959"/>
<path d="M39.592 55.4496H25.864V58.1953H39.592V55.4496Z" fill="#595959"/>
<path d="M45.0832 66.4319H21.7456V69.1776H45.0832V66.4319Z" fill="#595959"/>
<path d="M35.4735 77.4144H24.4912V80.1601H35.4735V77.4144Z" fill="#595959"/>
<path d="M21.7456 77.4144H19V80.1601H21.7456V77.4144Z" fill="#595959"/>
<path d="M31.3553 88.3968H21.7456V91.1424H31.3553V88.3968Z" fill="#595959"/>
<path d="M44.6163 50.8398C45.753 51.8296 47.4457 51.8296 48.5824 50.8398L51.1235 48.6228L49.5407 46.8134L44.6163 50.8398Z" fill="#FFAC3E"/>
<path d="M57.4383 40.3489L49.5378 46.8134L51.1207 48.6226L57.4383 43.0943L67.048 45.84L68.4206 43.0943L57.4383 40.3489Z" fill="#83B2B7"/>
<path d="M88.4842 60.3368L79.4031 49.9584L78.0303 52.704L87.6398 63.6863L94.3048 60.739L93.2477 58.1993L88.4842 60.3368Z" fill="#83B2B7"/>
<path d="M93.2478 58.1952L94.3048 60.7349L96.9131 59.5832C98.4287 58.912 99.2661 57.2713 98.9201 55.6501L93.2478 58.1952Z" fill="#FFAC3E"/>
<path d="M66.2476 64.3096L72.5391 67.8048L78.0303 52.704L79.4032 49.9584L66.2476 64.3096Z" fill="#83B2B7"/>
<path d="M73.57 97.773C73.5164 97.6866 73.4656 97.5986 73.4203 97.508C73.4658 97.5945 73.5165 97.6864 73.57 97.773Z" fill="#EA3836"/>
<path d="M74.472 98.7436C74.3759 98.6722 74.2839 98.5953 74.1975 98.513C74.2853 98.5953 74.3759 98.6722 74.472 98.7436Z" fill="#EA3836"/>
<path d="M73.975 98.3056C73.8995 98.2247 73.8377 98.1381 73.765 98.0517C73.8324 98.1436 73.8995 98.2247 73.975 98.3056Z" fill="#EA3836"/>
<path d="M73.2723 97.158C73.2407 97.0714 73.2063 96.985 73.1816 96.8958C73.2063 96.9864 73.2407 97.0714 73.2723 97.158Z" fill="#EA3836"/>
<path d="M73.0993 96.4606C73.0896 96.3838 73.0718 96.3083 73.0663 96.23C73.0718 96.3081 73.0883 96.3838 73.0993 96.4606Z" fill="#EA3836"/>
<path d="M75.6169 99.2749C75.2874 99.1883 74.9744 99.0525 74.6862 98.8727C74.9744 99.0538 75.2876 99.1897 75.6169 99.2749Z" fill="#EA3836"/>
<path d="M73.4205 97.508C73.3642 97.3941 73.3147 97.2774 73.2722 97.158C73.3147 97.2774 73.3642 97.3941 73.4205 97.508Z" fill="#D62121"/>
<path d="M74.1961 98.513C74.1206 98.4458 74.0437 98.3756 73.975 98.3056C74.0492 98.3785 74.1206 98.4442 74.1961 98.513Z" fill="#D62121"/>
<path d="M74.6861 98.8727C74.6147 98.8302 74.5393 98.793 74.4719 98.7436C74.5393 98.793 74.6149 98.83 74.6861 98.8727Z" fill="#D62121"/>
<path d="M73.1816 96.8958C73.1446 96.753 73.1171 96.6075 73.0992 96.4606C73.1171 96.6075 73.1446 96.753 73.1816 96.8958Z" fill="#D62121"/>
<path d="M73.0664 96.23C73.05 95.9954 73.0568 95.7605 73.0884 95.5272C73.0568 95.7605 73.0486 95.9966 73.0664 96.23Z" fill="#D62121"/>
<path d="M73.7651 98.0518C73.6951 97.9639 73.6305 97.8719 73.5701 97.7772C73.6374 97.8691 73.6951 97.9611 73.7651 98.0518Z" fill="#D62121"/>
<path d="M72.5391 67.8048L66.3615 64.3727L80.7758 78.7871L75.9821 99.3297C76.1289 99.3572 76.2786 99.3736 76.4281 99.3791H76.5119C78.1839 99.3874 79.6227 98.1999 79.933 96.5566C81.0505 90.6275 83.5214 77.4143 83.5214 77.4143L72.5391 67.8048Z" fill="#E07D2B"/>
<path d="M53.3199 78.7872L38.9454 89.7793C40.1837 91.2069 42.3307 91.3922 43.7956 90.1993L56.0657 80.1601L64.3026 71.9232L61.5569 70.5504L53.3199 78.7872Z" fill="#E07D2B"/>
<path d="M86.2671 30.8065V31.4256C86.2671 34.837 83.5008 37.6033 80.0894 37.6033C78.7949 37.6018 77.5346 37.1845 76.4941 36.4143C78.4751 39.1737 82.3176 39.8037 85.0769 37.8228C86.6941 36.6614 87.6496 34.7889 87.6399 32.7984V30.7392C87.1801 30.7392 86.7229 30.7694 86.2671 30.8065Z" fill="#FFAC3E"/>
<path d="M87.6399 26.6208C87.7004 28.1364 87.213 29.6217 86.2671 30.8064C86.7229 30.7694 87.1801 30.739 87.6399 30.739V26.6208Z" fill="#202033"/>
</g>
<defs>
<clipPath id="clip0">
<rect width="80" height="80" fill="white" transform="translate(19 23)"/>
</clipPath>
</defs>
</svg>
