<svg width="200" height="130" viewBox="0 0 200 130" fill="none" xmlns="http://www.w3.org/2000/svg">
<g clip-path="url(#clip0)">
<path d="M24.027 113.1H0V126.336H24.027V113.1Z" fill="#9E6F44"/>
<path d="M112.014 113.1H87.9863V127.233H112.014V113.1Z" fill="#9E6F44"/>
<path d="M200.001 113.1H175.973V127.233H200.001V113.1Z" fill="#9E6F44"/>
<path d="M112.014 109.077H87.9863V113.453H112.014V109.077Z" fill="#A8805D"/>
<path d="M200.001 109.077H175.973V113.453H200.001V109.077Z" fill="#A8805D"/>
<path d="M24.027 109.485H0V113.454H24.027V109.485Z" fill="#A8805D"/>
<path d="M200 105.295H0V109.707H200V105.295Z" fill="#9E6F44"/>
<path d="M200 126.335H0V129.729H200V126.335Z" fill="#A8805D"/>
</g>
<g clip-path="url(#clip1)">
<path d="M92 71.1997H34V106.298H92V71.1997Z" fill="#A98258"/>
<path d="M83 90.2532L79 94.2644L83 98.2757L81 100.281H92V88.2476H81L83 90.2532Z" fill="#F4D5BD"/>
<path d="M49.688 53.1491H38.312C38.14 53.1491 38 53.0087 38 52.8362V50.9539C38 49.3975 39.259 48.135 40.811 48.135H47.189C48.741 48.135 50 49.3975 50 50.9539V52.8362C50 53.0087 49.86 53.1491 49.688 53.1491Z" fill="#F0C419"/>
<path d="M42 51.1436H40V53.1492H42V51.1436Z" fill="#AA891D"/>
<path d="M45 51.1436H43V53.1492H45V51.1436Z" fill="#AA891D"/>
<path d="M48 51.1436H46V53.1492H48V51.1436Z" fill="#AA891D"/>
<path d="M68.688 53.1491H57.312C57.14 53.1491 57 53.0087 57 52.8362V50.9539C57 49.3975 58.259 48.135 59.811 48.135H66.189C67.741 48.135 69 49.3975 69 50.9539V52.8362C69 53.0087 68.86 53.1491 68.688 53.1491Z" fill="#F0C419"/>
<path d="M61 51.1436H59V53.1492H61V51.1436Z" fill="#AA891D"/>
<path d="M64 51.1436H62V53.1492H64V51.1436Z" fill="#AA891D"/>
<path d="M67 51.1436H65V53.1492H67V51.1436Z" fill="#AA891D"/>
<path d="M87.688 53.1491H76.312C76.14 53.1491 76 53.0087 76 52.8362V50.9539C76 49.3975 77.259 48.135 78.811 48.135H85.189C86.741 48.135 88 49.3975 88 50.9539V52.8362C88 53.0087 87.86 53.1491 87.688 53.1491Z" fill="#F0C419"/>
<path d="M80 51.1436H78V53.1492H80V51.1436Z" fill="#AA891D"/>
<path d="M83 51.1436H81V53.1492H83V51.1436Z" fill="#AA891D"/>
<path d="M86 51.1436H84V53.1492H86V51.1436Z" fill="#AA891D"/>
<path d="M90 71.1998V69.4308C90 68.057 89.226 66.8004 88 66.1857C86.774 65.571 86 64.3145 86 62.9406V53.1492H78V62.9406C78 64.3145 77.226 65.571 76 66.1857C74.774 66.8004 74 68.057 74 69.4308V71.1998H90Z" fill="#6A3006"/>
<path d="M71 71.1998V69.4308C71 68.057 70.226 66.8004 69 66.1857C67.774 65.571 67 64.3145 67 62.9406V53.1492H59V62.9406C59 64.3145 58.226 65.571 57 66.1857C55.774 66.8004 55 68.057 55 69.4308V71.1998H71Z" fill="#6A3006"/>
<path d="M52 71.1998V69.4308C52 68.057 51.226 66.8004 50 66.1857C48.774 65.571 48 64.3145 48 62.9406V53.1492H40V62.9406C40 64.3145 39.226 65.571 38 66.1857C36.774 66.8004 36 68.057 36 69.4308V71.1998H52Z" fill="#6A3006"/>
<path d="M44 102.287H34V104.292H44V102.287Z" fill="#7C5F42"/>
<path d="M42 99.2783H34V101.284H42V99.2783Z" fill="#7C5F42"/>
<path d="M40 96.27H34V98.2756H40V96.27Z" fill="#7C5F42"/>
<path d="M38 93.2615H34V95.2671H38V93.2615Z" fill="#7C5F42"/>
</g>
<g clip-path="url(#clip2)">
<path d="M166 70.1968H108V105.295H166V70.1968Z" fill="#A98258"/>
<path d="M157 89.2503L153 93.2615L157 97.2727L155 99.2784H166V87.2446H155L157 89.2503Z" fill="#F4D5BD"/>
<path d="M123.688 52.1461H112.312C112.14 52.1461 112 52.0057 112 51.8333V49.951C112 48.3946 113.259 47.1321 114.811 47.1321H121.189C122.741 47.1321 124 48.3946 124 49.951V51.8333C124 52.0057 123.86 52.1461 123.688 52.1461Z" fill="#F0C419"/>
<path d="M116 50.1406H114V52.1462H116V50.1406Z" fill="#AA891D"/>
<path d="M119 50.1406H117V52.1462H119V50.1406Z" fill="#AA891D"/>
<path d="M122 50.1406H120V52.1462H122V50.1406Z" fill="#AA891D"/>
<path d="M142.688 52.1461H131.312C131.14 52.1461 131 52.0057 131 51.8333V49.951C131 48.3946 132.259 47.1321 133.811 47.1321H140.189C141.741 47.1321 143 48.3946 143 49.951V51.8333C143 52.0057 142.86 52.1461 142.688 52.1461Z" fill="#F0C419"/>
<path d="M135 50.1406H133V52.1462H135V50.1406Z" fill="#AA891D"/>
<path d="M138 50.1406H136V52.1462H138V50.1406Z" fill="#AA891D"/>
<path d="M141 50.1406H139V52.1462H141V50.1406Z" fill="#AA891D"/>
<path d="M161.688 52.1461H150.312C150.14 52.1461 150 52.0057 150 51.8333V49.951C150 48.3946 151.259 47.1321 152.811 47.1321H159.189C160.741 47.1321 162 48.3946 162 49.951V51.8333C162 52.0057 161.86 52.1461 161.688 52.1461Z" fill="#F0C419"/>
<path d="M154 50.1406H152V52.1462H154V50.1406Z" fill="#AA891D"/>
<path d="M157 50.1406H155V52.1462H157V50.1406Z" fill="#AA891D"/>
<path d="M160 50.1406H158V52.1462H160V50.1406Z" fill="#AA891D"/>
<path d="M164 70.1969V68.4279C164 67.054 163.226 65.7975 162 65.1828C160.774 64.5681 160 63.3115 160 61.9377V52.1462H152V61.9377C152 63.3115 151.226 64.5681 150 65.1828C148.774 65.7975 148 67.054 148 68.4279V70.1969H164Z" fill="#6A3006"/>
<path d="M145 70.1969V68.4279C145 67.054 144.226 65.7975 143 65.1828C141.774 64.5681 141 63.3115 141 61.9377V52.1462H133V61.9377C133 63.3115 132.226 64.5681 131 65.1828C129.774 65.7975 129 67.054 129 68.4279V70.1969H145Z" fill="#6A3006"/>
<path d="M126 70.1969V68.4279C126 67.054 125.226 65.7975 124 65.1828C122.774 64.5681 122 63.3115 122 61.9377V52.1462H114V61.9377C114 63.3115 113.226 64.5681 112 65.1828C110.774 65.7975 110 67.054 110 68.4279V70.1969H126Z" fill="#6A3006"/>
<path d="M118 101.284H108V103.29H118V101.284Z" fill="#7C5F42"/>
<path d="M116 98.2754H108V100.281H116V98.2754Z" fill="#7C5F42"/>
<path d="M114 95.2671H108V97.2727H114V95.2671Z" fill="#7C5F42"/>
<path d="M112 92.2585H108V94.2642H112V92.2585Z" fill="#7C5F42"/>
</g>
<defs>
<clipPath id="clip0">
<rect width="200" height="24.434" fill="white" transform="translate(0 105.295)"/>
</clipPath>
<clipPath id="clip1">
<rect width="58" height="58.1631" fill="white" transform="translate(34 48.135)"/>
</clipPath>
<clipPath id="clip2">
<rect width="58" height="58.1631" fill="white" transform="translate(108 47.1321)"/>
</clipPath>
</defs>
</svg>
