<svg width="122" height="122" viewBox="0 0 122 122" fill="none" xmlns="http://www.w3.org/2000/svg">
<path d="M60.7162 118.432C92.592 118.432 118.432 92.592 118.432 60.7162C118.432 28.8404 92.592 3 60.7162 3C28.8404 3 3 28.8404 3 60.7162C3 92.592 28.8404 118.432 60.7162 118.432Z" stroke="#E07D2B" stroke-width="6" stroke-miterlimit="10"/>
<path d="M60.8987 87.1787C70.8049 87.1787 78.8355 86.4532 78.8355 85.5583C78.8355 84.6633 70.8049 83.9378 60.8987 83.9378C50.9924 83.9378 42.9618 84.6633 42.9618 85.5583C42.9618 86.4532 50.9924 87.1787 60.8987 87.1787Z" fill="#EDB937"/>
<path d="M54.348 39.6756H67.4619V43.2952H54.348V39.6756Z" fill="#EEF3F7"/>
<path d="M54.348 39.6756H67.4619V43.2952L54.348 39.6756Z" fill="#D9DADA"/>
<path d="M54.6841 43.2725H67.1255C70.5473 43.2725 73.3466 46.0719 73.3466 49.4936V83.1769C73.3466 84.3714 72.3698 85.3484 71.1751 85.3484H50.6345C49.4401 85.3484 48.4629 84.3716 48.4629 83.1769V49.4934C48.4632 46.0719 51.2626 43.2725 54.6841 43.2725Z" fill="#FEFEFE"/>
<path d="M72.9939 84.3592C72.6053 84.9536 71.9342 85.3483 71.1752 85.3483H50.6345C49.8753 85.3483 49.2044 84.9536 48.8158 84.3592H72.9939Z" fill="#EEF3F7"/>
<path d="M48.4631 51.025H73.3467V83.1769H48.4631V51.025Z" fill="#EEF3F7"/>
<path d="M72.1215 51.025H73.3466V83.1769H72.1215V51.025Z" fill="#D9DADA"/>
<path d="M72.1215 51.025H73.3466V83.1769H72.1215V51.025Z" fill="#D9DADA"/>
<path d="M53.5174 33.6252H68.2927C68.8685 33.6252 69.3397 34.0961 69.3397 34.672V38.8369C69.3397 39.4128 68.8685 39.8837 68.2927 39.8837H53.5174C52.9413 39.8837 52.4703 39.4128 52.4703 38.8369V34.672C52.4703 34.0961 52.9413 33.6252 53.5174 33.6252Z" fill="#21D0C3"/>
<path d="M55.1218 57.2148H73.3465V79.887H55.1218V57.2148Z" fill="white"/>
<path d="M72.1215 57.2148H73.3466V79.887H72.1215V57.2148Z" fill="#EEF3F7"/>
<path d="M50.937 57.2148H48.4631V79.887H50.937V57.2148Z" fill="white"/>
<path d="M69.8596 54.7205L75.5119 61.1866C75.8524 61.5761 75.8121 62.1728 75.4227 62.5131L49.1068 85.5177L42.2169 77.6359L68.5329 54.6317C68.9222 54.2913 69.5193 54.3311 69.8596 54.7205Z" fill="#FEFEFE"/>
<path d="M53.3744 70.2012L57.9662 75.4541L32.5494 97.6725L27.9576 92.4198L53.3744 70.2012Z" fill="#EEF3F7"/>
<path d="M57.4594 74.8744L57.9663 75.4542L32.5494 97.6725L32.0427 97.0928L57.4594 74.8744Z" fill="#D9DADA"/>
<path d="M42.3506 75.9448L50.8 85.6108C51.0772 85.9278 51.0444 86.4139 50.7275 86.6909C50.4105 86.968 49.9245 86.9353 49.6473 86.6184L41.198 76.9525C40.9209 76.6355 40.9536 76.1494 41.2705 75.8723C41.5875 75.5955 42.0734 75.628 42.3506 75.9448Z" fill="#21D0C3"/>
<path d="M71.5414 56.645L73.8294 59.2623L76.4887 56.9377L74.2008 54.3203L71.5414 56.645Z" fill="#EEF3F7"/>
<path d="M89.1823 42.8586L91.5724 42.1178L77.1564 54.7197L76.4879 53.9552L89.1823 42.8586Z" fill="white"/>
<path d="M73.0959 55.2861L75.3839 57.9034L78.0433 55.5787C78.4249 55.2452 78.4642 54.66 78.1306 54.2784L77.0555 53.0486C76.7217 52.667 76.1367 52.6277 75.7552 52.9612L73.0959 55.2861Z" fill="#FF5B62"/>
<path d="M72.2222 55.6867L74.87 58.7158C75.0369 58.9067 75.3289 58.9263 75.5199 58.7594L75.5202 58.7591C75.7111 58.5923 75.7306 58.3002 75.5638 58.1092L72.916 55.0802C72.7491 54.8892 72.4569 54.8698 72.266 55.0366L72.2656 55.0369C72.0749 55.2038 72.0553 55.4959 72.2222 55.6867Z" fill="#ED4C54"/>
<path d="M27.011 90.8916L33.9371 98.8147C34.1568 99.0661 34.1309 99.4508 33.8798 99.6705L33.8796 99.6706C33.6282 99.8903 33.2432 99.8647 33.0237 99.6133L26.0977 91.6902C25.8779 91.4386 25.9035 91.0538 26.1549 90.8341L26.1551 90.8339C26.4062 90.6142 26.7912 90.6402 27.011 90.8916Z" fill="#21D0C3"/>
<path d="M54.7144 67.9303L60.396 74.4297L58.5112 76.0773L52.8296 69.5781L54.7144 67.9303Z" fill="#0F7986"/>
<path d="M69.4674 55.5486L74.6388 61.4642C74.779 61.6247 74.7626 61.8708 74.602 62.0111L60.396 74.4297L54.7146 67.9303L68.9205 55.5119C69.0812 55.3716 69.3273 55.388 69.4674 55.5486Z" fill="#21D0C3"/>
<path d="M74.0981 60.8459L74.6384 61.4641C74.7787 61.6247 74.7624 61.8708 74.6018 62.0111L60.3957 74.4297L59.6001 73.5195L74.0981 60.8459Z" fill="#15BDB2"/>
<path d="M68.2615 56.0878L70.4743 58.6194L69.9402 59.0863L67.7274 56.555L68.2615 56.0878ZM55.3368 67.3863L56.6315 68.8673L56.0974 69.3342L54.8027 67.8531L55.3368 67.3863ZM57.206 65.7523L59.4188 68.2839L58.8848 68.7508L56.672 66.2192L57.206 65.7523ZM59.022 64.1648L60.3166 65.6458L59.7826 66.1127L58.4879 64.6316L59.022 64.1648ZM60.891 62.5308L63.1041 65.0623L62.5699 65.5292L60.3571 62.998L60.891 62.5308ZM62.707 60.9434L64.0018 62.4245L63.4677 62.8914L62.1729 61.4103L62.707 60.9434ZM64.5763 59.3094L66.7892 61.8409L66.2551 62.3078L64.0423 59.7763L64.5763 59.3094ZM66.3921 57.7222L67.687 59.2031L67.1529 59.67L65.8581 58.1891L66.3921 57.7222Z" fill="#FEFEFE"/>
<path d="M67.4639 78.3408C69.2345 78.3408 70.6698 76.9054 70.6698 75.1348C70.6698 73.3643 69.2345 71.9289 67.4639 71.9289C65.6933 71.9289 64.2579 73.3643 64.2579 75.1348C64.2579 76.9054 65.6933 78.3408 67.4639 78.3408Z" fill="#FF5B62"/>
<path d="M66.8531 72.8858H68.0748V74.5244H69.7136V75.7461H68.0748V77.3848H66.8531V75.7461H65.2144V74.5244H66.8531V72.8858Z" fill="#FEFEFE"/>
</svg>
