<svg width="120" height="120" viewBox="0 0 120 120" fill="none" xmlns="http://www.w3.org/2000/svg">
<path d="M28.8198 61.7391C28.8198 62.7329 28.0745 63.4783 27.0807 63.4783C26.0869 63.4783 25.3416 62.7329 25.3416 61.7391V54.5342C25.3416 53.5404 26.0869 52.795 27.0807 52.795C28.0745 52.795 28.8198 53.5404 28.8198 54.5342V61.7391Z" fill="#686868"/>
<path d="M93.6647 61.7391C93.6647 62.7329 92.9193 63.4783 91.9255 63.4783C90.9317 63.4783 90.1864 62.7329 90.1864 61.7391V54.5342C90.1864 53.5404 90.9317 52.795 91.9255 52.795C92.9193 52.795 93.6647 53.5404 93.6647 54.5342V61.7391Z" fill="#686868"/>
<path d="M60.7453 47.0807H58.385C49.0683 47.0807 39.7515 47.7019 30.4347 48.8199C30.559 48.8199 27.2049 53.0435 27.2049 57.764C26.8323 62.6087 29.8136 68.0745 33.1677 70.559C37.3913 73.913 45.3416 74.1615 53.7888 74.1615C55.4037 74.1615 57.3913 65.7143 59.6273 64.0994C61.8633 65.7143 63.8509 74.1615 65.4658 74.1615C73.913 74.2857 81.8633 73.913 86.0869 70.559C89.441 67.9503 92.4223 62.6087 92.0496 57.764C92.0496 52.9193 88.6956 48.8199 88.8198 48.8199C79.3788 47.7019 70.0621 47.205 60.7453 47.0807Z" fill="#1681BF"/>
<path d="M31.6771 50.8075C30.3106 52.9193 29.4411 55.2795 29.3168 57.764V58.0124C28.9442 62.1118 31.6771 66.8323 34.41 68.9441L34.6585 69.1926C40.0001 62.7329 45.4659 56.2733 50.1864 49.441C44.0994 49.6894 37.8883 50.1863 31.6771 50.8075Z" fill="#54D4D8"/>
<path d="M60.6211 49.3168H58.3851C55.6522 49.3168 53.0435 49.441 50.3105 49.441C45.59 56.2733 40.1242 62.6087 34.7826 69.1926C37.3913 71.0559 41.7391 71.677 46.3354 71.9255C51.5528 63.7267 56.7702 56.3975 62.236 49.3168H60.6211Z" fill="#7AEAEA"/>
<path d="M62.2361 49.3168C56.7702 56.3975 51.5528 63.7267 46.3354 71.9255C47.9504 72.0497 49.6895 72.0497 51.3044 72.0497H52.9193C53.4162 71.0559 53.9131 69.9379 54.41 68.8199C55.528 66.087 56.646 63.4783 58.3851 62.3602L59.6274 61.4907L60.8696 62.3602C61.7392 62.9814 62.3603 63.8509 62.8572 64.8447C66.3355 59.7516 70.0622 54.7826 73.5404 49.6894C69.6895 49.441 65.9628 49.3168 62.2361 49.3168Z" fill="#54D4D8"/>
<path d="M73.4161 49.6894C69.9379 54.7826 66.2112 59.7516 62.7329 64.8447C63.4783 66.2112 64.0994 67.5776 64.5963 68.9441C64.9689 70.0621 65.4658 71.0559 66.0869 72.0497H69.0683C73.7888 64.7205 78.5093 57.5155 83.354 50.4348C80 50.1863 76.7702 49.9379 73.4161 49.6894Z" fill="#7AEAEA"/>
<path d="M89.6895 57.8882C89.5653 55.2795 88.6957 52.9193 87.3292 50.8075C85.9628 50.6832 84.5963 50.559 83.3541 50.4348C78.5094 57.5155 73.6646 64.7205 69.0684 72.0497C75.0311 72.0497 81.3665 71.5528 84.7205 68.9441C87.3292 66.8323 90.0621 62.1118 89.6895 57.8882Z" fill="#54D4D8"/>
<path d="M60 116.273C91.0789 116.273 116.273 91.0789 116.273 60C116.273 28.9211 91.0789 3.72672 60 3.72672C28.9211 3.72672 3.72668 28.9211 3.72668 60C3.72668 91.0789 28.9211 116.273 60 116.273Z" stroke="#E07D2B" stroke-width="6" stroke-miterlimit="10"/>
</svg>
