<svg width="121" height="120" viewBox="0 0 121 120" fill="none" xmlns="http://www.w3.org/2000/svg">
<path d="M90.5379 52.795C90.041 32.9193 79.6062 21.4907 61.8423 20.8696C61.718 20.8696 61.5938 20.8696 61.3454 20.8696H59.7305C59.6062 20.8696 59.482 20.8696 59.2336 20.8696C41.5938 21.3665 31.159 32.9193 30.6621 52.795C30.5379 57.1429 30.6621 79.2547 30.6621 80.2484C30.7864 82.236 32.4013 83.7267 34.3889 83.6025C36.3764 83.7267 37.9913 82.236 38.1156 80.2484C38.1156 80 37.9913 57.3913 38.1156 53.0435C38.364 41.3665 42.5876 27.5776 60.6 27.5776C78.6125 27.5776 82.8361 41.3665 83.0845 53.0435C83.2087 57.3913 83.0845 80 83.0845 80.2484C83.2087 82.236 84.8236 83.7267 86.8112 83.6025C88.7988 83.7267 90.4137 82.236 90.5379 80.2484C90.6621 79.2547 90.6621 57.1429 90.5379 52.795Z" fill="#E07D2B"/>
<path d="M44.4511 83.1056C44.4511 87.0808 39.6063 90.4348 33.7678 90.4348C27.8051 90.4348 23.0846 83.4783 23.0846 79.3789V70.559C23.0846 66.5839 27.9293 59.5031 33.7678 59.5031C39.7306 59.5031 44.4511 62.7329 44.4511 66.8323V83.1056Z" fill="#939393"/>
<path d="M37.9915 59.5031H30.4138V90.4348H37.9915V59.5031Z" fill="#707070"/>
<path d="M76.7491 83.1056C76.7491 87.0808 81.5939 90.4348 87.4324 90.4348C93.3951 90.4348 98.1156 83.4783 98.1156 79.3789V70.559C98.1156 66.5839 93.2709 59.5031 87.4324 59.5031C81.4696 59.5031 76.7491 62.7329 76.7491 66.8323V83.1056Z" fill="#939393"/>
<path d="M90.7864 59.5031H83.2087V90.4348H90.7864V59.5031Z" fill="#707070"/>
<path d="M60.6001 116.273C91.679 116.273 116.873 91.0789 116.873 60C116.873 28.9211 91.679 3.72672 60.6001 3.72672C29.5212 3.72672 4.32678 28.9211 4.32678 60C4.32678 91.0789 29.5212 116.273 60.6001 116.273Z" stroke="#E07D2B" stroke-width="6" stroke-miterlimit="10"/>
</svg>
