<svg width="121" height="120" viewBox="0 0 121 120" fill="none" xmlns="http://www.w3.org/2000/svg">
<g clip-path="url(#clip0)">
<path d="M95.2313 73.0435C94.2375 46.7081 78.3369 25.8385 58.8338 25.8385C39.3307 25.8385 23.43 46.7081 22.4362 73.0435L18.2126 82.3602H99.4549L95.2313 73.0435Z" fill="#FFD925"/>
<path d="M65.5419 72.0497C65.4176 45.7143 64.0512 24.5963 58.8338 24.5963C52.7468 24.5963 52.2499 45.7143 52.1257 72.0497L51.3804 81.3665H66.2872L65.5419 72.0497Z" fill="#FFE471"/>
<path d="M60.2002 116.273C91.2791 116.273 116.473 91.0789 116.473 60C116.473 28.9211 91.2791 3.72672 60.2002 3.72672C29.1213 3.72672 3.92688 28.9211 3.92688 60C3.92688 91.0789 29.1213 116.273 60.2002 116.273Z" stroke="#E07D2B" stroke-width="6" stroke-miterlimit="10"/>
</g>
<defs>
<clipPath id="clip0">
<rect width="120" height="120" fill="white" transform="translate(0.200195)"/>
</clipPath>
</defs>
</svg>
