<svg width="200" height="130" viewBox="0 0 200 130" fill="none" xmlns="http://www.w3.org/2000/svg">
<g clip-path="url(#clip0)">
<path d="M24.027 113.464H0V126.625H24.027V113.464Z" fill="#9E6F44"/>
<path d="M112.014 113.464H87.9863V127.518H112.014V113.464Z" fill="#9E6F44"/>
<path d="M200.001 113.464H175.973V127.518H200.001V113.464Z" fill="#9E6F44"/>
<path d="M112.014 109.464H87.9863V113.816H112.014V109.464Z" fill="#A8805D"/>
<path d="M200.001 109.464H175.973V113.816H200.001V109.464Z" fill="#A8805D"/>
<path d="M24.027 109.869H0V113.816H24.027V109.869Z" fill="#A8805D"/>
<path d="M200 105.703H0V110.09H200V105.703Z" fill="#9E6F44"/>
<path d="M200 126.625H0V130H200V126.625Z" fill="#A8805D"/>
</g>
<path d="M16.2109 7.51343V102.659H88.2088V7.51343H16.2109ZM64.7682 22.7558C64.7682 24.2113 64.1883 25.6073 63.1562 26.6365C62.1241 27.6658 60.7242 28.244 59.2646 28.244H45.1802C43.7205 28.244 42.3206 27.6658 41.2885 26.6365C40.2564 25.6073 39.6765 24.2113 39.6765 22.7558C39.6765 21.3002 40.2564 19.9042 41.2885 18.875C42.3206 17.8457 43.7205 17.2675 45.1802 17.2675H59.2479C59.9717 17.2664 60.6887 17.4075 61.3578 17.6827C62.027 17.958 62.6352 18.3619 63.1479 18.8715C63.6605 19.3812 64.0674 19.9865 64.3454 20.653C64.6235 21.3194 64.7671 22.0339 64.7682 22.7558V22.7558Z" fill="#E9EDF5"/>
<path d="M88.2094 7.51343H52.1021V17.2675H59.2485C60.7081 17.2675 62.108 17.8457 63.1401 18.875C64.1723 19.9042 64.7521 21.3002 64.7521 22.7558C64.7521 24.2113 64.1723 25.6073 63.1401 26.6365C62.108 27.6658 60.7081 28.244 59.2485 28.244H52.1021V102.659H88.2094V7.51343Z" fill="#DCE1EB"/>
<path d="M12 5.98315H92.4286V12.0867H12V5.98315Z" fill="#CDD2E1"/>
<path d="M52.1021 5.98315H92.4288V12.0867H52.1021V5.98315Z" fill="#BEC3D2"/>
<path d="M12 99.6077H92.4286V105.703H12V99.6077Z" fill="#CDD2E1"/>
<path d="M52.1021 99.6077H92.4288V105.703H52.1021V99.6077Z" fill="#BEC3D2"/>
<path d="M12 67.3596H92.4286V73.4549H12V67.3596Z" fill="#CDD2E1"/>
<path d="M52.1021 67.3596H92.4288V73.4549H52.1021V67.3596Z" fill="#BEC3D2"/>
<path d="M12 35.1125H92.4286V41.2077H12V35.1125Z" fill="#CDD2E1"/>
<path d="M52.1021 35.1125H92.4288V41.2077H52.1021V35.1125Z" fill="#BEC3D2"/>
<path d="M47.6825 59.9594H46.8486C46.6652 59.7182 46.4983 59.502 46.3482 59.3191C46.1962 59.1232 46.0319 58.9371 45.8563 58.7619H45.5394V59.5935C45.5306 59.629 45.5306 59.6661 45.5394 59.7016C45.5523 59.7217 45.5694 59.7388 45.5896 59.7517C45.6097 59.7646 45.6324 59.7731 45.6561 59.7764C45.7033 59.7801 45.7507 59.7801 45.7979 59.7764C45.8534 59.7733 45.9091 59.7733 45.9647 59.7764V59.9012H44.6388V59.7764C44.6883 59.7865 44.7393 59.7865 44.7889 59.7764H44.9307C44.9505 59.7713 44.9689 59.7619 44.9847 59.749C45.0005 59.7361 45.0134 59.7199 45.0224 59.7016C45.0364 59.6612 45.0364 59.6173 45.0224 59.5769V57.6643C45.0312 57.6288 45.0312 57.5917 45.0224 57.5562C45.0094 57.5361 44.9923 57.519 44.9722 57.5061C44.952 57.4932 44.9293 57.4847 44.9056 57.4814C44.8603 57.4615 44.8127 57.4475 44.7639 57.4398C44.7141 57.4328 44.6636 57.4328 44.6138 57.4398V57.315H46.0564C46.1786 57.3064 46.3012 57.3064 46.4233 57.315C46.5316 57.3333 46.6359 57.3699 46.7319 57.4231C46.8219 57.4743 46.899 57.5454 46.957 57.631C47.0136 57.7171 47.04 57.8195 47.0321 57.9221C47.0347 58.0169 47.0146 58.1109 46.9737 58.1965C46.9357 58.2782 46.8786 58.3495 46.8069 58.4044C46.7296 58.4569 46.6488 58.5041 46.5651 58.5458C46.4697 58.5972 46.3646 58.6283 46.2565 58.6372L46.6401 59.0779C46.7569 59.1943 46.8653 59.3357 47.0154 59.502L47.1739 59.6683L47.3239 59.7598C47.3735 59.7692 47.4245 59.7692 47.474 59.7598H47.6241V59.8679L47.6825 59.9594ZM46.5234 57.9553C46.5261 57.8832 46.5125 57.8114 46.4836 57.7452C46.4548 57.679 46.4113 57.6201 46.3566 57.5728C46.2238 57.4691 46.0582 57.416 45.8896 57.4231H45.5227V58.5624H45.8229C46.0008 58.5717 46.1759 58.5155 46.3149 58.4044C46.3846 58.353 46.4403 58.2849 46.4767 58.2064C46.5131 58.128 46.5292 58.0416 46.5234 57.9553Z" fill="#474747"/>
<path d="M50.4172 57.6228C50.5439 57.7553 50.6532 57.9035 50.7424 58.0636C50.828 58.2423 50.8681 58.4394 50.8592 58.6373C50.8609 58.8319 50.8211 59.0247 50.7424 59.2028C50.6679 59.3742 50.5569 59.5274 50.4172 59.6518C50.2785 59.7781 50.1133 59.8718 49.9336 59.9262C49.7498 59.9947 49.5542 60.0258 49.3582 60.0176C49.1506 60.0162 48.9447 59.9797 48.7494 59.9095C48.5713 59.8448 48.4092 59.7427 48.274 59.6102C48.1402 59.4856 48.0326 59.3359 47.9572 59.1695C47.8822 58.9964 47.8453 58.8092 47.8488 58.6207C47.8427 58.4238 47.8797 58.228 47.9572 58.0469C48.033 57.8764 48.1471 57.7256 48.2907 57.6062C48.4238 57.4724 48.5911 57.3775 48.7744 57.3318C48.9554 57.2639 49.1482 57.2329 49.3415 57.2404C49.5424 57.2404 49.7421 57.2712 49.9336 57.3318C50.1127 57.3955 50.2772 57.4944 50.4172 57.6228V57.6228ZM50.1003 59.5021C50.186 59.3848 50.2484 59.2521 50.2838 59.1113C50.3222 58.9562 50.3418 58.7971 50.3422 58.6373C50.3412 58.4694 50.3216 58.302 50.2838 58.1384C50.2483 58.0001 50.186 57.8702 50.1003 57.7559C50.0259 57.6514 49.9252 57.5682 49.8085 57.5147C49.6752 57.4532 49.53 57.422 49.3832 57.4233C49.2282 57.4128 49.0738 57.4506 48.9412 57.5314C48.8243 57.6026 48.7223 57.6958 48.641 57.8058C48.5656 57.9268 48.5094 58.0586 48.4742 58.1966C48.4398 58.3466 48.423 58.5001 48.4242 58.654C48.4216 58.8161 48.4384 58.978 48.4742 59.1362C48.5079 59.2751 48.5704 59.4054 48.6577 59.5187C48.7355 59.6275 48.8385 59.7159 48.9579 59.7765C49.0908 59.8388 49.2363 59.8701 49.3832 59.868C49.53 59.8692 49.6752 59.838 49.8085 59.7765C49.9176 59.6984 50.0157 59.6061 50.1003 59.5021Z" fill="#474747"/>
<path d="M54.1185 57.4393H54.0101L53.9017 57.4809C53.8599 57.501 53.8207 57.5261 53.785 57.5557L53.6766 57.6804C53.5644 57.8148 53.4614 57.9565 53.3681 58.1045C53.2763 58.2542 53.1429 58.4205 52.9928 58.6367C52.9533 58.6957 52.9172 58.7568 52.8844 58.8197C52.8742 58.8886 52.8742 58.9586 52.8844 59.0275V59.5431C52.8748 59.5785 52.8748 59.6158 52.8844 59.6512C52.8844 59.6512 52.9428 59.7011 53.0011 59.7261C53.0539 59.7294 53.1068 59.7294 53.1596 59.7261C53.2233 59.733 53.2876 59.733 53.3514 59.7261V59.8591H51.8921V59.7261C51.953 59.7328 52.0146 59.7328 52.0755 59.7261H52.2423C52.2865 59.7154 52.3251 59.6887 52.3507 59.6512C52.3575 59.6155 52.3575 59.5788 52.3507 59.5431V58.8945C52.3507 58.8945 52.3507 58.8446 52.3507 58.7864C52.3507 58.7282 52.2923 58.6783 52.2423 58.6035C52.1923 58.5287 52.0588 58.3041 51.9421 58.1461L51.6669 57.722C51.6301 57.6631 51.5883 57.6075 51.5419 57.5557C51.5066 57.5136 51.4604 57.482 51.4084 57.4642C51.3723 57.4372 51.3285 57.4227 51.2834 57.4227C51.2392 57.4155 51.1941 57.4155 51.1499 57.4227V57.298H52.4841V57.4227H52.1673C52.1477 57.4213 52.1283 57.4263 52.1118 57.4368C52.0953 57.4472 52.0826 57.4627 52.0755 57.4809C52.0755 57.4809 52.0755 57.4809 52.0755 57.5557C52.0895 57.5962 52.1123 57.6331 52.1422 57.6638C52.1738 57.7042 52.1992 57.749 52.2173 57.7969C52.2946 57.9027 52.3642 58.0139 52.4258 58.1295C52.4925 58.2376 52.5842 58.3872 52.701 58.5536C52.9178 58.2376 53.1012 57.9965 53.2346 57.8135C53.3112 57.7209 53.3731 57.6172 53.4181 57.5059C53.4234 57.4941 53.4261 57.4813 53.4261 57.4684C53.4261 57.4555 53.4234 57.4428 53.4181 57.431C53.3941 57.4057 53.3612 57.3908 53.3264 57.3894C53.2768 57.3804 53.2258 57.3804 53.1762 57.3894C53.1265 57.3976 53.0758 57.3976 53.0261 57.3894V57.2563H54.1185V57.4061V57.4393Z" fill="#474747"/>
<path d="M57.3878 59.9588H56.0952V59.8341C56.1866 59.8446 56.279 59.8446 56.3704 59.8341C56.4455 59.8341 56.4872 59.8341 56.4872 59.7593L56.2287 59.1689H55.1446C55.1446 59.2604 55.0695 59.3352 55.0528 59.385C55.0323 59.4477 55.0072 59.5089 54.9778 59.568C54.9598 59.611 54.9458 59.6555 54.9361 59.701C54.9379 59.726 54.9379 59.751 54.9361 59.7759C54.9361 59.8258 54.9945 59.8674 55.0862 59.884L55.4031 59.9422V60.0669H54.1772V59.9422C54.1772 59.9422 54.269 59.9422 54.3273 59.9422L54.4691 59.8923C54.5197 59.8645 54.5649 59.8279 54.6025 59.7842C54.6025 59.7842 54.6526 59.6928 54.6943 59.6346C54.861 59.3019 55.0278 58.936 55.2113 58.5119C55.3947 58.0878 55.5615 57.6804 55.7116 57.406H55.8951L56.9291 59.6928C56.9427 59.7355 56.9689 59.7731 57.0042 59.8008L57.1126 59.8923C57.1537 59.9019 57.1965 59.9019 57.2377 59.8923C57.2818 59.8995 57.3269 59.8995 57.3711 59.8923V60.042L57.3878 59.9588ZM56.1369 58.8778L55.6533 57.8467L55.1946 58.8778H56.1369Z" fill="#474747"/>
<path d="M60.1902 59.1697L60.1151 59.9596H57.6802V59.8349C57.7296 59.8457 57.7808 59.8457 57.8303 59.8349H57.9804C58.0195 59.8227 58.0524 59.7959 58.0721 59.76C58.0827 59.7191 58.0827 59.6762 58.0721 59.6353V57.7394C58.08 57.7038 58.08 57.6669 58.0721 57.6313C58.0524 57.5954 58.0195 57.5686 57.9804 57.5565C57.935 57.5293 57.8832 57.5149 57.8303 57.5148C57.7833 57.5076 57.7355 57.5076 57.6885 57.5148V57.3901H59.0144V57.5148C58.959 57.5084 58.903 57.5084 58.8476 57.5148L58.6975 57.5565C58.6475 57.5565 58.6058 57.5564 58.5891 57.6313C58.5819 57.6669 58.5819 57.7037 58.5891 57.7394V59.5272C58.5792 59.5878 58.5792 59.6495 58.5891 59.7101C58.6053 59.7515 58.631 59.7886 58.6642 59.8182C58.7109 59.8276 58.7591 59.8276 58.8059 59.8182C58.881 59.8182 58.9727 59.8182 59.0895 59.8182H59.2479C59.3027 59.831 59.3598 59.831 59.4147 59.8182C59.4644 59.826 59.515 59.826 59.5648 59.8182C59.6003 59.8081 59.6322 59.7878 59.6565 59.76C59.7372 59.6837 59.8073 59.597 59.865 59.5022C59.9231 59.4139 59.976 59.3223 60.0234 59.2279H60.1902V59.1697Z" fill="#474747"/>
<path d="M40.7264 61.7058C40.6459 61.7005 40.5651 61.7005 40.4846 61.7058C40.3927 61.7168 40.3044 61.7481 40.2261 61.7973C40.151 61.7973 40.1177 61.922 40.076 62.055C40.0656 62.2129 40.0656 62.3712 40.076 62.529V64.1921C40.0781 64.3854 40.0261 64.5754 39.9259 64.7409C39.8385 64.9053 39.7053 65.0411 39.5423 65.1317C39.3866 65.223 39.2179 65.2903 39.042 65.3313C38.8772 65.3652 38.7098 65.3847 38.5416 65.3895C38.3108 65.387 38.0812 65.3563 37.8579 65.2981C37.6754 65.2413 37.5015 65.1602 37.3409 65.0569C37.2204 64.9572 37.1163 64.8394 37.0323 64.7077C36.9589 64.5785 36.9214 64.432 36.9239 64.2836V62.1132C36.919 62.056 36.9049 61.9998 36.8822 61.9469C36.8822 61.9469 36.8072 61.8721 36.7321 61.8305L36.5487 61.7806C36.4877 61.7881 36.4262 61.7881 36.3652 61.7806V61.5977H38.1581V61.7806C38.0997 61.7806 38.0247 61.7806 37.9329 61.7806H37.7495C37.7206 61.7854 37.6937 61.798 37.6716 61.8171C37.6496 61.8362 37.6332 61.8609 37.6244 61.8887C37.6138 61.9436 37.6138 62.0001 37.6244 62.055V64.1755C37.6137 64.2861 37.6137 64.3975 37.6244 64.5081C37.64 64.6224 37.6894 64.7295 37.7661 64.8158C37.8507 64.9205 37.9594 65.0032 38.083 65.0569C38.2582 65.1248 38.4456 65.1559 38.6334 65.1484C38.8237 65.1527 39.0132 65.1217 39.1921 65.0569C39.3259 65.0045 39.4457 64.9219 39.5423 64.8158C39.6191 64.7233 39.681 64.6195 39.7257 64.5081C39.7567 64.4055 39.7736 64.2992 39.7758 64.1921V62.6122C39.7792 62.4444 39.7624 62.277 39.7257 62.1132C39.7043 62.0137 39.6517 61.9234 39.5756 61.8555C39.4816 61.8113 39.384 61.7751 39.2838 61.7474H39.0086V61.5645H40.7598V61.7474L40.7264 61.7058Z" fill="#474747"/>
<path d="M45.6895 61.7053C45.6312 61.7053 45.5394 61.7053 45.431 61.7053C45.3391 61.7163 45.2508 61.7476 45.1725 61.7967C45.1286 61.8246 45.0921 61.8626 45.066 61.9074C45.0399 61.9523 45.0249 62.0027 45.0224 62.0545C45.012 62.2123 45.012 62.3707 45.0224 62.5285V65.3308H44.7556L42.1538 62.2042V64.1666C42.1461 64.3405 42.1658 64.5145 42.2122 64.6822C42.2278 64.782 42.278 64.8732 42.354 64.94C42.4471 64.9946 42.5485 65.0339 42.6541 65.0564C42.7495 65.0827 42.8473 65.0994 42.946 65.1063V65.2892H41.1948V65.1063C41.2882 65.1003 41.3806 65.0836 41.47 65.0564C41.5549 65.0386 41.6365 65.0078 41.7118 64.9649C41.7842 64.9007 41.8364 64.817 41.862 64.7238C41.8752 64.5466 41.8752 64.3687 41.862 64.1916V62.2956C41.861 62.2066 41.8411 62.1187 41.8036 62.0379C41.7782 61.9673 41.7351 61.9043 41.6785 61.855C41.5906 61.7838 41.4881 61.7327 41.3783 61.7053C41.2851 61.6667 41.1868 61.6415 41.0864 61.6304V61.4475H42.3039L44.7222 64.3745V62.5535C44.7299 62.3796 44.7102 62.2056 44.6639 62.0379C44.6496 61.9422 44.5988 61.8558 44.5221 61.7967C44.4363 61.7439 44.3391 61.7126 44.2386 61.7053C44.145 61.6705 44.0465 61.6508 43.9467 61.6471V61.4641H45.6979V61.6637L45.6895 61.7053Z" fill="#474747"/>
<path d="M48.2569 65.3311H46.314V65.1482C46.3944 65.1549 46.4753 65.1549 46.5558 65.1482C46.6303 65.1601 46.7064 65.1601 46.7809 65.1482C46.8345 65.1288 46.883 65.0975 46.9227 65.0567C46.9337 65.0303 46.9394 65.0021 46.9394 64.9735C46.9394 64.945 46.9337 64.9167 46.9227 64.8904V62.1046C46.934 62.0526 46.934 61.9987 46.9227 61.9467C46.9227 61.9467 46.8477 61.8718 46.756 61.8302L46.5391 61.7803C46.4644 61.7713 46.3887 61.7713 46.314 61.7803V61.5974H48.2569V61.7803C48.1821 61.7732 48.1067 61.7732 48.0318 61.7803H47.815C47.7826 61.7835 47.7516 61.7951 47.7252 61.8141C47.6988 61.8331 47.678 61.8588 47.6649 61.8884C47.6572 61.9436 47.6572 61.9996 47.6649 62.0548V64.8322C47.6572 64.8873 47.6572 64.9433 47.6649 64.9984C47.6649 65.0567 47.7399 65.0733 47.815 65.1066C47.8776 65.1379 47.9454 65.1577 48.0151 65.1648C48.1068 65.1648 48.1986 65.1648 48.2569 65.1648V65.3311V65.3311Z" fill="#474747"/>
<path d="M52.6438 63.5513C52.77 63.6234 52.8783 63.7229 52.9607 63.8424C53.0406 63.9758 53.0837 64.1278 53.0857 64.2831C53.0943 64.4476 53.0505 64.6106 52.9607 64.7488C52.8688 64.875 52.7559 64.9847 52.6271 65.0731C52.4876 65.1649 52.332 65.2298 52.1685 65.2643C51.9932 65.3038 51.8144 65.3261 51.6348 65.3309H49.6001V65.1479H49.8086C49.8752 65.1521 49.942 65.1521 50.0087 65.1479C50.0575 65.1286 50.1006 65.097 50.1338 65.0564C50.1483 65.0019 50.1483 64.9447 50.1338 64.8902V62.1128C50.146 62.058 50.146 62.0012 50.1338 61.9465C50.122 61.9196 50.1048 61.8955 50.0833 61.8755C50.0617 61.8555 50.0364 61.84 50.0087 61.83C49.9445 61.8047 49.8772 61.7879 49.8086 61.7802C49.7448 61.7728 49.6805 61.7728 49.6168 61.7802V61.5972H51.5931C51.7403 61.5887 51.8878 61.5887 52.035 61.5972C52.1802 61.6181 52.3194 61.6691 52.4436 61.7469C52.5645 61.8019 52.6661 61.8917 52.7355 62.0047C52.8138 62.1168 52.8547 62.2506 52.8523 62.3872C52.8554 62.5133 52.8297 62.6384 52.7772 62.7531C52.7238 62.8626 52.6469 62.9591 52.552 63.0358C52.4533 63.1034 52.3502 63.1646 52.2435 63.2188C52.1176 63.2701 51.9861 63.3064 51.8516 63.3269V63.3269L52.2602 63.4017C52.3986 63.4188 52.5305 63.4702 52.6438 63.5513ZM51.9266 62.9776C51.9982 62.9061 52.05 62.8173 52.0767 62.7198C52.0954 62.6097 52.0954 62.4973 52.0767 62.3872C52.081 62.2973 52.067 62.2075 52.0354 62.1231C52.0039 62.0388 51.9555 61.9617 51.8933 61.8966C51.8094 61.8264 51.7124 61.7734 51.608 61.7406C51.5035 61.7078 51.3936 61.6958 51.2846 61.7053H50.8009V63.1772H51.1928C51.3362 63.1806 51.4794 63.1637 51.6181 63.1272C51.7401 63.1064 51.85 63.0413 51.9266 62.9443V62.9776ZM52.3519 64.2083C52.3518 64.1035 52.3286 64 52.2839 63.9052C52.2392 63.8104 52.1742 63.7265 52.0934 63.6594C51.883 63.4945 51.6181 63.4144 51.3512 63.435H50.8176V64.7821C50.8186 64.8342 50.833 64.8852 50.8592 64.9303C50.8855 64.9753 50.9228 65.0131 50.9677 65.0398C51.0988 65.1073 51.2456 65.1389 51.393 65.1313C51.5175 65.1411 51.6427 65.1247 51.7605 65.0831C51.8783 65.0416 51.9861 64.9759 52.0767 64.8902C52.1719 64.8051 52.2463 64.6994 52.294 64.5812C52.3417 64.4629 52.3615 64.3354 52.3519 64.2083V64.2083Z" fill="#474747"/>
<path d="M58.0966 65.3313H56.9292C56.6707 64.982 56.4539 64.6744 56.2287 64.4166C56.0036 64.1588 55.8035 63.8844 55.5616 63.5851H55.1197V64.7991C55.1111 64.8542 55.1111 64.9103 55.1197 64.9654C55.1197 65.0236 55.1947 65.0569 55.2698 65.0818C55.3308 65.0871 55.3922 65.0871 55.4532 65.0818C55.5253 65.0886 55.5979 65.0886 55.6701 65.0818V65.2647H53.8605V65.0818H54.069C54.1295 65.0944 54.1919 65.0944 54.2524 65.0818C54.2801 65.0719 54.3054 65.0564 54.327 65.0364C54.3485 65.0164 54.3657 64.9922 54.3775 64.9654C54.4061 64.9147 54.4205 64.8572 54.4192 64.7991V62.0218C54.4164 61.9642 54.4022 61.9076 54.3775 61.8555C54.3639 61.8277 54.344 61.8035 54.3194 61.7848C54.2948 61.766 54.2661 61.7532 54.2357 61.7474C54.1667 61.7367 54.0964 61.7367 54.0273 61.7474C53.961 61.7362 53.8934 61.7362 53.8271 61.7474V61.5645H55.8035C55.9773 61.5665 56.1505 61.5859 56.3205 61.6226C56.4705 61.654 56.6143 61.7103 56.7457 61.7889C56.862 61.858 56.9616 61.9517 57.0376 62.0634C57.1153 62.1908 57.153 62.3385 57.146 62.4874C57.1517 62.6191 57.126 62.7501 57.071 62.8699C57.0191 62.9829 56.9454 63.0847 56.8542 63.1693C56.7536 63.252 56.6411 63.3193 56.5206 63.3689C56.3836 63.4314 56.2413 63.4815 56.0953 63.5185C56.2954 63.7763 56.4872 63.9759 56.629 64.1422C56.7708 64.3085 56.9459 64.533 57.146 64.7658C57.2157 64.8564 57.297 64.9375 57.3879 65.0069C57.4591 65.0574 57.5344 65.1019 57.613 65.14L57.8131 65.1899C57.8796 65.1972 57.9468 65.1972 58.0133 65.1899V65.3562L58.0966 65.3313ZM56.4289 62.4791C56.4345 62.3775 56.418 62.2758 56.3806 62.1811C56.3432 62.0864 56.2857 62.0008 56.2121 61.9303C56.0366 61.7869 55.813 61.7155 55.5866 61.7307H55.0696V63.3938H55.4532C55.7089 63.4049 55.9593 63.3187 56.1537 63.1527C56.2477 63.0685 56.3213 62.9642 56.369 62.8475C56.4167 62.7308 56.4372 62.6048 56.4289 62.4791V62.4791Z" fill="#474747"/>
<path d="M62.15 64.2085L62.075 65.3311H58.5143V65.1482H58.7561C58.8227 65.153 58.8896 65.153 58.9562 65.1482C58.9862 65.1409 59.014 65.1265 59.0372 65.1062C59.0604 65.086 59.0784 65.0604 59.0896 65.0317C59.1019 64.977 59.1019 64.9202 59.0896 64.8654V62.1046C59.0974 62.0523 59.0974 61.999 59.0896 61.9467C59.0763 61.9164 59.0555 61.8899 59.0293 61.8696C59.0031 61.8492 58.9723 61.8357 58.9395 61.8302L58.7144 61.7803C58.6423 61.7721 58.5696 61.7721 58.4976 61.7803V61.5974H61.8332V62.5204H61.6163C61.5548 62.3604 61.4675 62.2116 61.3578 62.0797C61.2623 61.9498 61.1233 61.8584 60.9659 61.8219C60.9075 61.8219 60.8408 61.8219 60.7491 61.8219H59.7651V63.352H60.2488C60.3596 63.3647 60.4715 63.3647 60.5823 63.352C60.6522 63.321 60.7147 63.2757 60.7658 63.219C60.8071 63.1554 60.8434 63.0887 60.8742 63.0194C60.9074 62.943 60.9272 62.8613 60.9326 62.7782H61.1494V64.2916H60.9326C60.9245 64.1937 60.8991 64.098 60.8575 64.0089C60.8307 63.9378 60.7942 63.8706 60.7491 63.8093C60.6915 63.7406 60.612 63.6936 60.5239 63.6763C60.4186 63.6659 60.3125 63.6659 60.2071 63.6763H59.7318V64.6076C59.7318 64.7241 59.7318 64.8155 59.7318 64.8821C59.7386 64.9131 59.7518 64.9423 59.7704 64.968C59.7891 64.9938 59.8128 65.0155 59.8402 65.0317C59.9089 65.0727 59.9857 65.0982 60.0653 65.1066C60.193 65.1167 60.3212 65.1167 60.4489 65.1066H60.7074C60.8017 65.1162 60.8966 65.1162 60.9909 65.1066C61.0686 65.113 61.1467 65.113 61.2244 65.1066C61.2995 65.1066 61.3745 65.065 61.3912 65.0317C61.5015 64.9096 61.6019 64.7789 61.6914 64.6409C61.7657 64.5175 61.8325 64.3898 61.8915 64.2584H62.15V64.2085Z" fill="#474747"/>
<path d="M68.6453 61.7059C68.5899 61.6983 68.5338 61.6983 68.4785 61.7059C68.4121 61.7155 68.3491 61.7411 68.295 61.7807C68.2322 61.8118 68.1758 61.8541 68.1283 61.9055C68.0823 61.9752 68.0458 62.0507 68.0198 62.13C67.8697 62.5541 67.7029 63.0281 67.5195 63.5852C67.336 64.1424 67.1276 64.7245 66.9107 65.3482H66.6355L65.5432 62.4044L64.4174 65.3482H64.1589L63.5335 63.3774C63.3083 62.6955 63.1832 62.2381 63.1082 62.0136C63.0969 61.9604 63.0709 61.9114 63.0331 61.8722C62.9925 61.8226 62.9412 61.7828 62.883 61.7558C62.8266 61.7224 62.7644 61.6998 62.6996 61.6893H62.5161V61.5063H64.2673V61.6893C64.1398 61.6752 64.0112 61.6752 63.8837 61.6893C63.7753 61.6893 63.7169 61.7391 63.7169 61.7807V61.8556C63.7169 61.8556 63.7169 61.9055 63.7169 61.9221C63.7753 62.0884 63.8504 62.3462 63.9588 62.7537C64.0672 63.1612 64.2506 63.6684 64.4758 64.4168L65.5432 61.5646H65.8433L66.9274 64.4667C67.0775 64.026 67.2026 63.6351 67.3027 63.2942C67.4027 62.9532 67.4862 62.6622 67.5529 62.4626C67.6196 62.263 67.6279 62.1799 67.6529 62.105C67.6611 62.0527 67.6611 61.9994 67.6529 61.947C67.6529 61.8888 67.5946 61.8306 67.5028 61.7974C67.356 61.7422 67.201 61.7113 67.0441 61.7059V61.5229H68.5952V61.7558L68.6453 61.7059Z" fill="#474747"/>
<path d="M47.0151 43.3447L49.9504 44.6503V51.0698C49.9504 51.0698 49.9004 53.9637 51.9101 54.7869C51.9101 54.7869 47.0151 54.7869 47.0151 50.5044V43.3447Z" fill="#474747"/>
<path d="M57.4638 43.3447L54.5285 44.6503V51.0698C54.5285 51.0698 54.5869 53.9637 52.5688 54.7869C52.5688 54.7869 57.4638 54.7869 57.4638 50.5044V43.3447Z" fill="#474747"/>
<path d="M111.211 7.51343V102.659H183.209V7.51343H111.211ZM159.768 22.7558C159.768 24.2113 159.188 25.6073 158.156 26.6365C157.124 27.6658 155.724 28.244 154.265 28.244H140.18C138.721 28.244 137.321 27.6658 136.288 26.6365C135.256 25.6073 134.676 24.2113 134.676 22.7558C134.676 21.3002 135.256 19.9042 136.288 18.875C137.321 17.8457 138.721 17.2675 140.18 17.2675H154.248C154.972 17.2664 155.689 17.4075 156.358 17.6827C157.027 17.958 157.635 18.3619 158.148 18.8715C158.66 19.3812 159.067 19.9865 159.345 20.653C159.623 21.3194 159.767 22.0339 159.768 22.7558V22.7558Z" fill="#E9EDF5"/>
<path d="M183.209 7.51343H147.102V17.2675H154.248C155.708 17.2675 157.108 17.8457 158.14 18.875C159.172 19.9042 159.752 21.3002 159.752 22.7558C159.752 24.2113 159.172 25.6073 158.14 26.6365C157.108 27.6658 155.708 28.244 154.248 28.244H147.102V102.659H183.209V7.51343Z" fill="#DCE1EB"/>
<path d="M107 5.98315H187.429V12.0867H107V5.98315Z" fill="#CDD2E1"/>
<path d="M147.102 5.98315H187.429V12.0867H147.102V5.98315Z" fill="#BEC3D2"/>
<path d="M107 99.6077H187.429V105.703H107V99.6077Z" fill="#CDD2E1"/>
<path d="M147.102 99.6077H187.429V105.703H147.102V99.6077Z" fill="#BEC3D2"/>
<path d="M107 67.3596H187.429V73.4549H107V67.3596Z" fill="#CDD2E1"/>
<path d="M147.102 67.3596H187.429V73.4549H147.102V67.3596Z" fill="#BEC3D2"/>
<path d="M107 35.1125H187.429V41.2077H107V35.1125Z" fill="#CDD2E1"/>
<path d="M147.102 35.1125H187.429V41.2077H147.102V35.1125Z" fill="#BEC3D2"/>
<path d="M142.683 59.9594H141.849C141.665 59.7182 141.498 59.502 141.348 59.3191C141.196 59.1232 141.032 58.9371 140.856 58.7619H140.539V59.5935C140.531 59.629 140.531 59.6661 140.539 59.7016C140.552 59.7217 140.569 59.7388 140.59 59.7517C140.61 59.7646 140.632 59.7731 140.656 59.7764C140.703 59.7801 140.751 59.7801 140.798 59.7764C140.853 59.7733 140.909 59.7733 140.965 59.7764V59.9012H139.639V59.7764C139.688 59.7865 139.739 59.7865 139.789 59.7764H139.931C139.95 59.7713 139.969 59.7619 139.985 59.749C140.001 59.7361 140.013 59.7199 140.022 59.7016C140.036 59.6612 140.036 59.6173 140.022 59.5769V57.6643C140.031 57.6288 140.031 57.5917 140.022 57.5562C140.009 57.5361 139.992 57.519 139.972 57.5061C139.952 57.4932 139.929 57.4847 139.906 57.4814C139.86 57.4615 139.813 57.4475 139.764 57.4398C139.714 57.4328 139.664 57.4328 139.614 57.4398V57.315H141.056C141.179 57.3064 141.301 57.3064 141.423 57.315C141.532 57.3333 141.636 57.3699 141.732 57.4231C141.822 57.4743 141.899 57.5454 141.957 57.631C142.014 57.7171 142.04 57.8195 142.032 57.9221C142.035 58.0169 142.015 58.1109 141.974 58.1965C141.936 58.2782 141.879 58.3495 141.807 58.4044C141.73 58.4569 141.649 58.5041 141.565 58.5458C141.47 58.5972 141.365 58.6283 141.257 58.6372L141.64 59.0779C141.757 59.1943 141.865 59.3357 142.015 59.502L142.174 59.6683L142.324 59.7598C142.374 59.7692 142.424 59.7692 142.474 59.7598H142.624V59.8679L142.683 59.9594ZM141.523 57.9553C141.526 57.8832 141.512 57.8114 141.484 57.7452C141.455 57.679 141.411 57.6201 141.357 57.5728C141.224 57.4691 141.058 57.416 140.89 57.4231H140.523V58.5624H140.823C141.001 58.5717 141.176 58.5155 141.315 58.4044C141.385 58.353 141.44 58.2849 141.477 58.2064C141.513 58.128 141.529 58.0416 141.523 57.9553Z" fill="#474747"/>
<path d="M145.417 57.6228C145.544 57.7553 145.653 57.9035 145.742 58.0636C145.828 58.2423 145.868 58.4394 145.859 58.6373C145.861 58.8319 145.821 59.0247 145.742 59.2028C145.668 59.3742 145.557 59.5274 145.417 59.6518C145.279 59.7781 145.113 59.8718 144.934 59.9262C144.75 59.9947 144.554 60.0258 144.358 60.0176C144.151 60.0162 143.945 59.9797 143.749 59.9095C143.571 59.8448 143.409 59.7427 143.274 59.6102C143.14 59.4856 143.033 59.3359 142.957 59.1695C142.882 58.9964 142.845 58.8092 142.849 58.6207C142.843 58.4238 142.88 58.228 142.957 58.0469C143.033 57.8764 143.147 57.7256 143.291 57.6062C143.424 57.4724 143.591 57.3775 143.774 57.3318C143.955 57.2639 144.148 57.2329 144.341 57.2404C144.542 57.2404 144.742 57.2712 144.934 57.3318C145.113 57.3955 145.277 57.4944 145.417 57.6228V57.6228ZM145.1 59.5021C145.186 59.3848 145.248 59.2521 145.284 59.1113C145.322 58.9562 145.342 58.7971 145.342 58.6373C145.341 58.4694 145.322 58.302 145.284 58.1384C145.248 58.0001 145.186 57.8702 145.1 57.7559C145.026 57.6514 144.925 57.5682 144.808 57.5147C144.675 57.4532 144.53 57.422 144.383 57.4233C144.228 57.4128 144.074 57.4506 143.941 57.5314C143.824 57.6026 143.722 57.6958 143.641 57.8058C143.566 57.9268 143.509 58.0586 143.474 58.1966C143.44 58.3466 143.423 58.5001 143.424 58.654C143.422 58.8161 143.438 58.978 143.474 59.1362C143.508 59.2751 143.57 59.4054 143.658 59.5187C143.736 59.6275 143.838 59.7159 143.958 59.7765C144.091 59.8388 144.236 59.8701 144.383 59.868C144.53 59.8692 144.675 59.838 144.808 59.7765C144.918 59.6984 145.016 59.6061 145.1 59.5021Z" fill="#474747"/>
<path d="M149.119 57.4393H149.01L148.902 57.4809C148.86 57.501 148.821 57.5261 148.785 57.5557L148.677 57.6804C148.564 57.8148 148.461 57.9565 148.368 58.1045C148.276 58.2542 148.143 58.4205 147.993 58.6367C147.953 58.6957 147.917 58.7568 147.884 58.8197C147.874 58.8886 147.874 58.9586 147.884 59.0275V59.5431C147.875 59.5785 147.875 59.6158 147.884 59.6512C147.884 59.6512 147.943 59.7011 148.001 59.7261C148.054 59.7294 148.107 59.7294 148.16 59.7261C148.223 59.733 148.288 59.733 148.351 59.7261V59.8591H146.892V59.7261C146.953 59.7328 147.015 59.7328 147.076 59.7261H147.242C147.286 59.7154 147.325 59.6887 147.351 59.6512C147.357 59.6155 147.357 59.5788 147.351 59.5431V58.8945C147.351 58.8945 147.351 58.8446 147.351 58.7864C147.351 58.7282 147.292 58.6783 147.242 58.6035C147.192 58.5287 147.059 58.3041 146.942 58.1461L146.667 57.722C146.63 57.6631 146.588 57.6075 146.542 57.5557C146.507 57.5136 146.46 57.482 146.408 57.4642C146.372 57.4372 146.328 57.4227 146.283 57.4227C146.239 57.4155 146.194 57.4155 146.15 57.4227V57.298H147.484V57.4227H147.167C147.148 57.4213 147.128 57.4263 147.112 57.4368C147.095 57.4472 147.083 57.4627 147.076 57.4809C147.076 57.4809 147.076 57.4809 147.076 57.5557C147.09 57.5962 147.112 57.6331 147.142 57.6638C147.174 57.7042 147.199 57.749 147.217 57.7969C147.295 57.9027 147.364 58.0139 147.426 58.1295C147.492 58.2376 147.584 58.3872 147.701 58.5536C147.918 58.2376 148.101 57.9965 148.235 57.8135C148.311 57.7209 148.373 57.6172 148.418 57.5059C148.423 57.4941 148.426 57.4813 148.426 57.4684C148.426 57.4555 148.423 57.4428 148.418 57.431C148.394 57.4057 148.361 57.3908 148.326 57.3894C148.277 57.3804 148.226 57.3804 148.176 57.3894C148.127 57.3976 148.076 57.3976 148.026 57.3894V57.2563H149.119V57.4061V57.4393Z" fill="#474747"/>
<path d="M152.388 59.9588H151.095V59.8341C151.187 59.8446 151.279 59.8446 151.37 59.8341C151.445 59.8341 151.487 59.8341 151.487 59.7593L151.229 59.1689H150.145C150.145 59.2604 150.07 59.3352 150.053 59.385C150.032 59.4477 150.007 59.5089 149.978 59.568C149.96 59.611 149.946 59.6555 149.936 59.701C149.938 59.726 149.938 59.751 149.936 59.7759C149.936 59.8258 149.994 59.8674 150.086 59.884L150.403 59.9422V60.0669H149.177V59.9422C149.177 59.9422 149.269 59.9422 149.327 59.9422L149.469 59.8923C149.52 59.8645 149.565 59.8279 149.603 59.7842C149.603 59.7842 149.653 59.6928 149.694 59.6346C149.861 59.3019 150.028 58.936 150.211 58.5119C150.395 58.0878 150.562 57.6804 150.712 57.406H150.895L151.929 59.6928C151.943 59.7355 151.969 59.7731 152.004 59.8008L152.113 59.8923C152.154 59.9019 152.197 59.9019 152.238 59.8923C152.282 59.8995 152.327 59.8995 152.371 59.8923V60.042L152.388 59.9588ZM151.137 58.8778L150.653 57.8467L150.195 58.8778H151.137Z" fill="#474747"/>
<path d="M155.19 59.1697L155.115 59.9596H152.68V59.8349C152.73 59.8457 152.781 59.8457 152.83 59.8349H152.98C153.019 59.8227 153.052 59.7959 153.072 59.76C153.083 59.7191 153.083 59.6762 153.072 59.6353V57.7394C153.08 57.7038 153.08 57.6669 153.072 57.6313C153.052 57.5954 153.019 57.5686 152.98 57.5565C152.935 57.5293 152.883 57.5149 152.83 57.5148C152.783 57.5076 152.736 57.5076 152.689 57.5148V57.3901H154.014V57.5148C153.959 57.5084 153.903 57.5084 153.848 57.5148L153.697 57.5565C153.647 57.5565 153.606 57.5564 153.589 57.6313C153.582 57.6669 153.582 57.7037 153.589 57.7394V59.5272C153.579 59.5878 153.579 59.6495 153.589 59.7101C153.605 59.7515 153.631 59.7886 153.664 59.8182C153.711 59.8276 153.759 59.8276 153.806 59.8182C153.881 59.8182 153.973 59.8182 154.089 59.8182H154.248C154.303 59.831 154.36 59.831 154.415 59.8182C154.464 59.826 154.515 59.826 154.565 59.8182C154.6 59.8081 154.632 59.7878 154.656 59.76C154.737 59.6837 154.807 59.597 154.865 59.5022C154.923 59.4139 154.976 59.3223 155.023 59.2279H155.19V59.1697Z" fill="#474747"/>
<path d="M135.726 61.7058C135.646 61.7005 135.565 61.7005 135.485 61.7058C135.393 61.7168 135.304 61.7481 135.226 61.7973C135.151 61.7973 135.118 61.922 135.076 62.055C135.066 62.2129 135.066 62.3712 135.076 62.529V64.1921C135.078 64.3854 135.026 64.5754 134.926 64.7409C134.839 64.9053 134.705 65.0411 134.542 65.1317C134.387 65.223 134.218 65.2903 134.042 65.3313C133.877 65.3652 133.71 65.3847 133.542 65.3895C133.311 65.387 133.081 65.3563 132.858 65.2981C132.675 65.2413 132.501 65.1602 132.341 65.0569C132.22 64.9572 132.116 64.8394 132.032 64.7077C131.959 64.5785 131.921 64.432 131.924 64.2836V62.1132C131.919 62.056 131.905 61.9998 131.882 61.9469C131.882 61.9469 131.807 61.8721 131.732 61.8305L131.549 61.7806C131.488 61.7881 131.426 61.7881 131.365 61.7806V61.5977H133.158V61.7806C133.1 61.7806 133.025 61.7806 132.933 61.7806H132.749C132.721 61.7854 132.694 61.798 132.672 61.8171C132.65 61.8362 132.633 61.8609 132.624 61.8887C132.614 61.9436 132.614 62.0001 132.624 62.055V64.1755C132.614 64.2861 132.614 64.3975 132.624 64.5081C132.64 64.6224 132.689 64.7295 132.766 64.8158C132.851 64.9205 132.959 65.0032 133.083 65.0569C133.258 65.1248 133.446 65.1559 133.633 65.1484C133.824 65.1527 134.013 65.1217 134.192 65.0569C134.326 65.0045 134.446 64.9219 134.542 64.8158C134.619 64.7233 134.681 64.6195 134.726 64.5081C134.757 64.4055 134.774 64.2992 134.776 64.1921V62.6122C134.779 62.4444 134.762 62.277 134.726 62.1132C134.704 62.0137 134.652 61.9234 134.576 61.8555C134.482 61.8113 134.384 61.7751 134.284 61.7474H134.009V61.5645H135.76V61.7474L135.726 61.7058Z" fill="#474747"/>
<path d="M140.69 61.7053C140.631 61.7053 140.539 61.7053 140.431 61.7053C140.339 61.7163 140.251 61.7476 140.173 61.7967C140.129 61.8246 140.092 61.8626 140.066 61.9074C140.04 61.9523 140.025 62.0027 140.022 62.0545C140.012 62.2123 140.012 62.3707 140.022 62.5285V65.3308H139.756L137.154 62.2042V64.1666C137.146 64.3405 137.166 64.5145 137.212 64.6822C137.228 64.782 137.278 64.8732 137.354 64.94C137.447 64.9946 137.548 65.0339 137.654 65.0564C137.75 65.0827 137.847 65.0994 137.946 65.1063V65.2892H136.195V65.1063C136.288 65.1003 136.381 65.0836 136.47 65.0564C136.555 65.0386 136.636 65.0078 136.712 64.9649C136.784 64.9007 136.836 64.817 136.862 64.7238C136.875 64.5466 136.875 64.3687 136.862 64.1916V62.2956C136.861 62.2066 136.841 62.1187 136.804 62.0379C136.778 61.9673 136.735 61.9043 136.679 61.855C136.591 61.7838 136.488 61.7327 136.378 61.7053C136.285 61.6667 136.187 61.6415 136.086 61.6304V61.4475H137.304L139.722 64.3745V62.5535C139.73 62.3796 139.71 62.2056 139.664 62.0379C139.65 61.9422 139.599 61.8558 139.522 61.7967C139.436 61.7439 139.339 61.7126 139.239 61.7053C139.145 61.6705 139.047 61.6508 138.947 61.6471V61.4641H140.698V61.6637L140.69 61.7053Z" fill="#474747"/>
<path d="M143.257 65.3311H141.314V65.1482C141.394 65.1549 141.475 65.1549 141.556 65.1482C141.63 65.1601 141.706 65.1601 141.781 65.1482C141.835 65.1288 141.883 65.0975 141.923 65.0567C141.934 65.0303 141.939 65.0021 141.939 64.9735C141.939 64.945 141.934 64.9167 141.923 64.8904V62.1046C141.934 62.0526 141.934 61.9987 141.923 61.9467C141.923 61.9467 141.848 61.8718 141.756 61.8302L141.539 61.7803C141.464 61.7713 141.389 61.7713 141.314 61.7803V61.5974H143.257V61.7803C143.182 61.7732 143.107 61.7732 143.032 61.7803H142.815C142.783 61.7835 142.752 61.7951 142.725 61.8141C142.699 61.8331 142.678 61.8588 142.665 61.8884C142.657 61.9436 142.657 61.9996 142.665 62.0548V64.8322C142.657 64.8873 142.657 64.9433 142.665 64.9984C142.665 65.0567 142.74 65.0733 142.815 65.1066C142.878 65.1379 142.945 65.1577 143.015 65.1648C143.107 65.1648 143.199 65.1648 143.257 65.1648V65.3311V65.3311Z" fill="#474747"/>
<path d="M147.644 63.5513C147.77 63.6234 147.878 63.7229 147.961 63.8424C148.041 63.9758 148.084 64.1278 148.086 64.2831C148.094 64.4476 148.051 64.6106 147.961 64.7488C147.869 64.875 147.756 64.9847 147.627 65.0731C147.488 65.1649 147.332 65.2298 147.168 65.2643C146.993 65.3038 146.814 65.3261 146.635 65.3309H144.6V65.1479H144.809C144.875 65.1521 144.942 65.1521 145.009 65.1479C145.058 65.1286 145.101 65.097 145.134 65.0564C145.148 65.0019 145.148 64.9447 145.134 64.8902V62.1128C145.146 62.058 145.146 62.0012 145.134 61.9465C145.122 61.9196 145.105 61.8955 145.083 61.8755C145.062 61.8555 145.036 61.84 145.009 61.83C144.944 61.8047 144.877 61.7879 144.809 61.7802C144.745 61.7728 144.681 61.7728 144.617 61.7802V61.5972H146.593C146.74 61.5887 146.888 61.5887 147.035 61.5972C147.18 61.6181 147.319 61.6691 147.444 61.7469C147.564 61.8019 147.666 61.8917 147.735 62.0047C147.814 62.1168 147.855 62.2506 147.852 62.3872C147.855 62.5133 147.83 62.6384 147.777 62.7531C147.724 62.8626 147.647 62.9591 147.552 63.0358C147.453 63.1034 147.35 63.1646 147.243 63.2188C147.118 63.2701 146.986 63.3064 146.852 63.3269V63.3269L147.26 63.4017C147.399 63.4188 147.53 63.4702 147.644 63.5513ZM146.927 62.9776C146.998 62.9061 147.05 62.8173 147.077 62.7198C147.095 62.6097 147.095 62.4973 147.077 62.3872C147.081 62.2973 147.067 62.2075 147.035 62.1231C147.004 62.0388 146.956 61.9617 146.893 61.8966C146.809 61.8264 146.712 61.7734 146.608 61.7406C146.504 61.7078 146.394 61.6958 146.285 61.7053H145.801V63.1772H146.193C146.336 63.1806 146.479 63.1637 146.618 63.1272C146.74 63.1064 146.85 63.0413 146.927 62.9443V62.9776ZM147.352 64.2083C147.352 64.1035 147.329 64 147.284 63.9052C147.239 63.8104 147.174 63.7265 147.093 63.6594C146.883 63.4945 146.618 63.4144 146.351 63.435H145.818V64.7821C145.819 64.8342 145.833 64.8852 145.859 64.9303C145.885 64.9753 145.923 65.0131 145.968 65.0398C146.099 65.1073 146.246 65.1389 146.393 65.1313C146.518 65.1411 146.643 65.1247 146.761 65.0831C146.878 65.0416 146.986 64.9759 147.077 64.8902C147.172 64.8051 147.246 64.6994 147.294 64.5812C147.342 64.4629 147.361 64.3354 147.352 64.2083V64.2083Z" fill="#474747"/>
<path d="M153.097 65.3313H151.929C151.671 64.982 151.454 64.6744 151.229 64.4166C151.004 64.1588 150.803 63.8844 150.562 63.5851H150.12V64.7991C150.111 64.8542 150.111 64.9103 150.12 64.9654C150.12 65.0236 150.195 65.0569 150.27 65.0818C150.331 65.0871 150.392 65.0871 150.453 65.0818C150.525 65.0886 150.598 65.0886 150.67 65.0818V65.2647H148.86V65.0818H149.069C149.129 65.0944 149.192 65.0944 149.252 65.0818C149.28 65.0719 149.305 65.0564 149.327 65.0364C149.348 65.0164 149.366 64.9922 149.377 64.9654C149.406 64.9147 149.421 64.8572 149.419 64.7991V62.0218C149.416 61.9642 149.402 61.9076 149.377 61.8555C149.364 61.8277 149.344 61.8035 149.319 61.7848C149.295 61.766 149.266 61.7532 149.236 61.7474C149.167 61.7367 149.096 61.7367 149.027 61.7474C148.961 61.7362 148.893 61.7362 148.827 61.7474V61.5645H150.803C150.977 61.5665 151.151 61.5859 151.32 61.6226C151.471 61.654 151.614 61.7103 151.746 61.7889C151.862 61.858 151.962 61.9517 152.038 62.0634C152.115 62.1908 152.153 62.3385 152.146 62.4874C152.152 62.6191 152.126 62.7501 152.071 62.8699C152.019 62.9829 151.945 63.0847 151.854 63.1693C151.754 63.252 151.641 63.3193 151.521 63.3689C151.384 63.4314 151.241 63.4815 151.095 63.5185C151.295 63.7763 151.487 63.9759 151.629 64.1422C151.771 64.3085 151.946 64.533 152.146 64.7658C152.216 64.8564 152.297 64.9375 152.388 65.0069C152.459 65.0574 152.534 65.1019 152.613 65.14L152.813 65.1899C152.88 65.1972 152.947 65.1972 153.013 65.1899V65.3562L153.097 65.3313ZM151.429 62.4791C151.434 62.3775 151.418 62.2758 151.381 62.1811C151.343 62.0864 151.286 62.0008 151.212 61.9303C151.037 61.7869 150.813 61.7155 150.587 61.7307H150.07V63.3938H150.453C150.709 63.4049 150.959 63.3187 151.154 63.1527C151.248 63.0685 151.321 62.9642 151.369 62.8475C151.417 62.7308 151.437 62.6048 151.429 62.4791V62.4791Z" fill="#474747"/>
<path d="M157.15 64.2085L157.075 65.3311H153.514V65.1482H153.756C153.823 65.153 153.89 65.153 153.956 65.1482C153.986 65.1409 154.014 65.1265 154.037 65.1062C154.06 65.086 154.078 65.0604 154.09 65.0317C154.102 64.977 154.102 64.9202 154.09 64.8654V62.1046C154.097 62.0523 154.097 61.999 154.09 61.9467C154.076 61.9164 154.056 61.8899 154.029 61.8696C154.003 61.8492 153.972 61.8357 153.94 61.8302L153.714 61.7803C153.642 61.7721 153.57 61.7721 153.498 61.7803V61.5974H156.833V62.5204H156.616C156.555 62.3604 156.468 62.2116 156.358 62.0797C156.262 61.9498 156.123 61.8584 155.966 61.8219C155.908 61.8219 155.841 61.8219 155.749 61.8219H154.765V63.352H155.249C155.36 63.3647 155.471 63.3647 155.582 63.352C155.652 63.321 155.715 63.2757 155.766 63.219C155.807 63.1554 155.843 63.0887 155.874 63.0194C155.907 62.943 155.927 62.8613 155.933 62.7782H156.149V64.2916H155.933C155.925 64.1937 155.899 64.098 155.858 64.0089C155.831 63.9378 155.794 63.8706 155.749 63.8093C155.692 63.7406 155.612 63.6936 155.524 63.6763C155.419 63.6659 155.312 63.6659 155.207 63.6763H154.732V64.6076C154.732 64.7241 154.732 64.8155 154.732 64.8821C154.739 64.9131 154.752 64.9423 154.77 64.968C154.789 64.9938 154.813 65.0155 154.84 65.0317C154.909 65.0727 154.986 65.0982 155.065 65.1066C155.193 65.1167 155.321 65.1167 155.449 65.1066H155.707C155.802 65.1162 155.897 65.1162 155.991 65.1066C156.069 65.113 156.147 65.113 156.224 65.1066C156.299 65.1066 156.375 65.065 156.391 65.0317C156.501 64.9096 156.602 64.7789 156.691 64.6409C156.766 64.5175 156.833 64.3898 156.892 64.2584H157.15V64.2085Z" fill="#474747"/>
<path d="M163.645 61.7059C163.59 61.6983 163.534 61.6983 163.478 61.7059C163.412 61.7155 163.349 61.7411 163.295 61.7807C163.232 61.8118 163.176 61.8541 163.128 61.9055C163.082 61.9752 163.046 62.0507 163.02 62.13C162.87 62.5541 162.703 63.0281 162.519 63.5852C162.336 64.1424 162.128 64.7245 161.911 65.3482H161.636L160.543 62.4044L159.417 65.3482H159.159L158.533 63.3774C158.308 62.6955 158.183 62.2381 158.108 62.0136C158.097 61.9604 158.071 61.9114 158.033 61.8722C157.993 61.8226 157.941 61.7828 157.883 61.7558C157.827 61.7224 157.764 61.6998 157.7 61.6893H157.516V61.5063H159.267V61.6893C159.14 61.6752 159.011 61.6752 158.884 61.6893C158.775 61.6893 158.717 61.7391 158.717 61.7807V61.8556C158.717 61.8556 158.717 61.9055 158.717 61.9221C158.775 62.0884 158.85 62.3462 158.959 62.7537C159.067 63.1612 159.251 63.6684 159.476 64.4168L160.543 61.5646H160.843L161.927 64.4667C162.078 64.026 162.203 63.6351 162.303 63.2942C162.403 62.9532 162.486 62.6622 162.553 62.4626C162.62 62.263 162.628 62.1799 162.653 62.105C162.661 62.0527 162.661 61.9994 162.653 61.947C162.653 61.8888 162.595 61.8306 162.503 61.7974C162.356 61.7422 162.201 61.7113 162.044 61.7059V61.5229H163.595V61.7558L163.645 61.7059Z" fill="#474747"/>
<path d="M142.015 43.3447L144.95 44.6503V51.0698C144.95 51.0698 144.9 53.9637 146.91 54.7869C146.91 54.7869 142.015 54.7869 142.015 50.5044V43.3447Z" fill="#474747"/>
<path d="M152.464 43.3447L149.528 44.6503V51.0698C149.528 51.0698 149.587 53.9637 147.569 54.7869C147.569 54.7869 152.464 54.7869 152.464 50.5044V43.3447Z" fill="#474747"/>
<defs>
<clipPath id="clip0">
<rect width="200" height="24.2972" fill="white" transform="translate(0 105.703)"/>
</clipPath>
</defs>
</svg>
