<svg width="66" height="44" viewBox="0 0 66 44" fill="none" xmlns="http://www.w3.org/2000/svg">
<g opacity="0.8">
<g opacity="0.7">
<path opacity="0.7" d="M22.9418 32.623H21.2258C20.8528 32.1533 20.517 31.7198 20.2186 31.3585C19.9202 30.9972 19.5844 30.636 19.2114 30.2747H18.5772V31.9365C18.5772 32.0088 18.5772 32.0811 18.6145 32.1533C18.6518 32.2256 18.7264 32.2617 18.8383 32.2978C18.8756 32.2978 18.9876 32.3339 19.1368 32.3339C19.286 32.3339 19.3979 32.3701 19.4725 32.3701V32.623H16.7866V32.3701C16.8612 32.3701 16.9732 32.3701 17.0851 32.3339C17.2343 32.3339 17.3089 32.2978 17.3835 32.2978C17.4581 32.2617 17.5327 32.2256 17.57 32.1533C17.6073 32.0811 17.6446 32.0088 17.6446 31.9004V28.1432C17.6446 28.0709 17.6446 27.9987 17.6073 27.9264C17.57 27.8542 17.4954 27.8181 17.3835 27.7819C17.3089 27.7458 17.197 27.7458 17.0851 27.7097C16.9732 27.6735 16.8612 27.6735 16.7866 27.6735V27.4207H19.6964C19.9575 27.4207 20.2186 27.4568 20.4424 27.4929C20.6663 27.529 20.8901 27.6013 21.0766 27.7097C21.2631 27.8181 21.4123 27.9264 21.5242 28.1071C21.6362 28.2516 21.6735 28.4683 21.6735 28.6851C21.6735 28.9019 21.6362 29.0464 21.5616 29.227C21.4869 29.3715 21.375 29.516 21.2258 29.6244C21.0766 29.7328 20.9274 29.805 20.7409 29.9134C20.5543 30.0218 20.3305 30.0579 20.1067 30.0941C20.4051 30.4192 20.6662 30.7082 20.8901 30.9611C21.1139 31.1779 21.3377 31.4669 21.6361 31.792C21.7854 31.9365 21.8973 32.0449 21.9719 32.1172C22.0838 32.1894 22.1957 32.2617 22.2703 32.2978C22.3449 32.3339 22.4568 32.3701 22.5687 32.3701C22.6807 32.3701 22.7926 32.4062 22.8672 32.4062V32.623H22.9418V32.623ZM20.5916 28.7574C20.5916 28.4322 20.4797 28.1793 20.2559 27.9987C20.0321 27.8181 19.7337 27.7097 19.3233 27.7097H18.5772V29.9496H19.1741C19.5844 29.9496 19.9202 29.8412 20.1813 29.6244C20.4797 29.4076 20.5916 29.1186 20.5916 28.7574Z" fill="#474747"/>
<path opacity="0.7" d="M28.4631 28.0348C28.7242 28.2877 28.948 28.5767 29.1346 28.9018C29.3211 29.227 29.3584 29.6244 29.3584 30.0218C29.3584 30.4192 29.2838 30.8166 29.1346 31.1417C28.9853 31.4669 28.7615 31.7559 28.4631 32.0088C28.202 32.2617 27.8662 32.4423 27.4932 32.5507C27.1201 32.6952 26.7471 32.7313 26.3368 32.7313C25.8891 32.7313 25.4788 32.6591 25.1057 32.5146C24.7327 32.37 24.3969 32.1894 24.1358 31.9365C23.8747 31.6836 23.6509 31.3946 23.5016 31.0695C23.3524 30.7443 23.2778 30.3831 23.2778 29.9857C23.2778 29.5521 23.3524 29.1909 23.5016 28.8657C23.6509 28.5406 23.8747 28.2516 24.1731 27.9987C24.4343 27.7458 24.77 27.5651 25.143 27.4568C25.5161 27.3123 25.8891 27.2761 26.2994 27.2761C26.7098 27.2761 27.1201 27.3484 27.4932 27.4568C27.8662 27.5651 28.202 27.818 28.4631 28.0348ZM27.8289 31.7198C27.9781 31.503 28.1273 31.2501 28.202 30.9611C28.2766 30.6721 28.3139 30.3831 28.3139 30.0218C28.3139 29.6605 28.2766 29.3354 28.202 29.0463C28.1273 28.7573 27.9781 28.5044 27.8289 28.2877C27.6797 28.0709 27.4559 27.9264 27.232 27.818C26.9709 27.7096 26.7098 27.6374 26.3741 27.6374C26.001 27.6374 25.7026 27.7096 25.4788 27.8542C25.2549 27.9987 25.0311 28.1793 24.8819 28.3961C24.7327 28.6128 24.6208 28.8657 24.5462 29.1547C24.4716 29.4437 24.4342 29.7328 24.4342 30.0579C24.4342 30.4192 24.4716 30.7443 24.5462 30.9972C24.6208 31.2862 24.7327 31.5391 24.9192 31.7559C25.0684 31.9726 25.2922 32.1533 25.5161 32.2617C25.7772 32.37 26.0383 32.4423 26.3741 32.4423C26.7098 32.4423 26.9709 32.37 27.232 32.2617C27.4559 32.1172 27.6424 31.9365 27.8289 31.7198Z" fill="#474747"/>
<path opacity="0.7" d="M35.9614 27.6735C35.9241 27.6735 35.8122 27.7097 35.7376 27.7097C35.6256 27.7458 35.551 27.7819 35.5137 27.7819C35.4018 27.8542 35.3272 27.8903 35.2899 27.9264C35.2526 27.9626 35.178 28.0348 35.0661 28.1793C34.8422 28.4322 34.6184 28.7212 34.4319 29.0102C34.2454 29.2993 33.9842 29.6244 33.6858 30.0579C33.5739 30.2024 33.4993 30.3469 33.462 30.4192C33.4247 30.5276 33.4247 30.636 33.4247 30.8166V31.8282C33.4247 31.9004 33.462 32.0088 33.4993 32.0449C33.5366 32.1172 33.6112 32.1533 33.7231 32.1894C33.7977 32.2256 33.9096 32.2256 34.0589 32.2617C34.2081 32.2978 34.3573 32.2978 34.4319 32.2978V32.5507H31.4848V32.2978C31.5595 32.2978 31.7087 32.2978 31.8579 32.2617C32.0071 32.2617 32.1563 32.2256 32.1936 32.2256C32.3056 32.1894 32.3802 32.1533 32.4175 32.081C32.4548 32.0088 32.4921 31.9365 32.4921 31.8643V30.5998C32.4921 30.5637 32.4548 30.4915 32.4175 30.3831C32.3428 30.2747 32.3056 30.1663 32.1936 30.0218C32.0071 29.7328 31.8206 29.4438 31.5968 29.1186C31.3729 28.7935 31.1864 28.5045 31.0372 28.2877C30.9253 28.1432 30.8507 28.0348 30.7761 27.9626C30.7014 27.8903 30.6269 27.818 30.5149 27.7819C30.4403 27.7458 30.3657 27.7097 30.2538 27.7097C30.1419 27.6735 30.0673 27.6735 29.9927 27.6735V27.4207H32.6786V27.6735C32.3802 27.6735 32.1563 27.7097 32.0444 27.7097C31.9325 27.7097 31.8579 27.7819 31.8579 27.8181C31.8579 27.8181 31.8579 27.8542 31.8952 27.8903C31.8952 27.9264 31.9325 27.9626 31.9698 28.0348C32.0071 28.1071 32.0444 28.1793 32.119 28.2516C32.1563 28.3238 32.2309 28.3961 32.2682 28.5045C32.4174 28.7212 32.5667 28.938 32.6786 29.1548C32.8278 29.3715 33.0143 29.6605 33.2382 29.9857C33.6858 29.3715 34.0588 28.9019 34.32 28.5406C34.5811 28.1793 34.693 27.9987 34.693 27.9264C34.693 27.8542 34.6557 27.818 34.6184 27.7819C34.5811 27.7458 34.5065 27.7097 34.4319 27.7097C34.3573 27.6735 34.2454 27.6735 34.1334 27.6735C34.0215 27.6735 33.9469 27.6735 33.835 27.6374V27.3845H36.036V27.6735H35.9614V27.6735Z" fill="#474747"/>
<path opacity="0.7" d="M42.5642 32.6229H39.9529V32.3701C40.1767 32.3701 40.3632 32.3339 40.5124 32.2978C40.6617 32.2617 40.7363 32.2255 40.7363 32.1533C40.7363 32.1172 40.7363 32.1172 40.7363 32.081C40.7363 32.0449 40.7363 32.0088 40.699 32.0088L40.1767 30.8527H37.9758C37.9012 31.0334 37.8266 31.1779 37.7892 31.2862C37.7519 31.4307 37.6773 31.5391 37.64 31.6475C37.6027 31.7559 37.5654 31.8281 37.5654 31.9004C37.5654 31.9727 37.5281 32.0088 37.5281 32.0449C37.5281 32.1533 37.64 32.2255 37.8265 32.2617C38.0131 32.2978 38.2369 32.3339 38.4607 32.3701V32.6229H36.0732V32.3701C36.1479 32.3701 36.2598 32.3339 36.3717 32.3339C36.4836 32.2978 36.5955 32.2617 36.6701 32.2255C36.782 32.1533 36.8939 32.081 36.9312 32.0088C37.0058 31.9365 37.0431 31.8281 37.1178 31.7198C37.4535 31.0695 37.7892 30.3469 38.1623 29.516C38.5353 28.6851 38.8711 27.9625 39.1695 27.3484H39.5425L41.6316 31.8281C41.6689 31.9365 41.7435 32.0088 41.7808 32.0449C41.8554 32.1172 41.93 32.1533 42.0046 32.2255C42.0792 32.2617 42.1538 32.2978 42.2657 32.2978C42.3777 32.3339 42.4523 32.3339 42.5269 32.3339L42.5642 32.6229ZM40.0275 30.4914L39.0576 28.4683L38.125 30.4914H40.0275Z" fill="#474747"/>
<path opacity="0.7" d="M48.2345 31.0695L48.0853 32.623H43.1611V32.3701C43.2357 32.3701 43.3476 32.3701 43.4596 32.334C43.6088 32.334 43.6834 32.2978 43.758 32.2978C43.8326 32.2617 43.9072 32.2256 43.9445 32.1533C43.9818 32.0811 44.0191 32.0088 44.0191 31.9004V28.1793C44.0191 28.1071 44.0191 28.0348 43.9818 27.9626C43.9445 27.8903 43.8699 27.8542 43.7953 27.8181C43.7207 27.7819 43.6461 27.7458 43.4969 27.7458C43.385 27.7097 43.2731 27.7097 43.1985 27.7097V27.4568H45.8843V27.7097C45.8097 27.7097 45.6978 27.7097 45.5486 27.7458C45.3994 27.7819 45.3248 27.7819 45.2502 27.8181C45.1383 27.8542 45.0636 27.8903 45.0263 27.9626C44.989 28.0348 44.9517 28.1071 44.9517 28.1793V31.6837C44.9517 31.8282 44.9517 31.9727 44.989 32.0449C45.0263 32.1172 45.0636 32.1894 45.1382 32.2617C45.2129 32.2978 45.3248 32.334 45.4367 32.334C45.5859 32.334 45.7724 32.3701 45.9963 32.3701C46.1082 32.3701 46.2201 32.3701 46.332 32.3701C46.4439 32.3701 46.5558 32.3701 46.6677 32.334C46.7796 32.334 46.8542 32.2978 46.9662 32.2617C47.0408 32.2256 47.1154 32.1894 47.1527 32.1533C47.2646 32.0449 47.4138 31.8643 47.563 31.6475C47.7122 31.4308 47.8242 31.2501 47.8988 31.1056H48.2345V31.0695V31.0695Z" fill="#474747"/>
<path opacity="0.7" d="M8.87842 36.0551C8.76651 36.0551 8.57997 36.0913 8.39344 36.1274C8.16962 36.1635 7.98311 36.2358 7.8712 36.308C7.72198 36.3803 7.64738 36.5609 7.57277 36.8138C7.53547 37.0667 7.49816 37.3918 7.49816 37.7531V41.0407C7.49816 41.4742 7.38625 41.8355 7.19973 42.1245C7.01321 42.4496 6.75206 42.7025 6.41632 42.8832C6.08059 43.0638 5.74484 43.2083 5.4091 43.2806C5.03606 43.3528 4.70034 43.3889 4.40191 43.3889C3.87965 43.3889 3.43199 43.3167 3.02165 43.2083C2.6113 43.0999 2.27555 42.9193 1.97712 42.7386C1.71599 42.5219 1.49217 42.3051 1.34296 42.0522C1.19374 41.7993 1.11913 41.5103 1.11913 41.2213V36.7777C1.11913 36.6693 1.08182 36.5609 1.04451 36.4525C1.00721 36.3803 0.895302 36.308 0.746085 36.2358C0.634172 36.1996 0.522259 36.1635 0.373042 36.1274C0.223825 36.0913 0.0746085 36.0912 0 36.0551V35.6938H3.61851V36.0551C3.50659 36.0551 3.35737 36.0912 3.17085 36.0912C2.98433 36.1274 2.87243 36.1635 2.79782 36.1635C2.6486 36.1996 2.57399 36.2719 2.53668 36.3803C2.49938 36.4886 2.46208 36.597 2.46208 36.7054V40.86C2.46208 41.0768 2.49938 41.2574 2.53668 41.5103C2.57399 41.7632 2.68591 41.9439 2.83513 42.1245C2.98434 42.3051 3.20817 42.4858 3.4693 42.5941C3.73043 42.7025 4.10347 42.7748 4.58843 42.7748C5.03608 42.7748 5.40912 42.7025 5.70756 42.5941C6.00599 42.4858 6.26711 42.3051 6.41632 42.1245C6.56554 41.9439 6.71476 41.7271 6.78937 41.5103C6.86398 41.2936 6.90127 41.0768 6.90127 40.8962V37.8254C6.90127 37.428 6.86398 37.1028 6.78937 36.8499C6.71476 36.597 6.64015 36.4525 6.49094 36.3441C6.34172 36.2719 6.15521 36.1996 5.89408 36.1274C5.63295 36.0913 5.44643 36.0551 5.33451 36.0551V35.6938H8.87842V36.0551Z" fill="#474747"/>
<path opacity="0.7" d="M18.9132 36.0549C18.8013 36.0549 18.6148 36.091 18.391 36.1271C18.1672 36.1632 17.9806 36.2355 17.8687 36.3078C17.7195 36.38 17.6076 36.5606 17.5703 36.8135C17.533 37.0664 17.4957 37.3916 17.4957 37.7528V43.2442H16.9734L11.7135 37.1026V40.9682C11.7135 41.4017 11.7508 41.7268 11.8254 41.9797C11.9001 42.1965 11.9747 42.3771 12.1239 42.4855C12.2358 42.5577 12.4223 42.63 12.7208 42.7023C13.0192 42.7745 13.2057 42.8106 13.3176 42.8106V43.1719H9.77371V42.8106C9.88563 42.8106 10.0721 42.7745 10.3333 42.7023C10.5944 42.63 10.7436 42.5939 10.8182 42.5216C10.9674 42.4132 11.0421 42.2687 11.1167 42.052C11.154 41.8352 11.1913 41.5101 11.1913 41.0043V37.2832C11.1913 37.1387 11.154 36.958 11.0794 36.7774C11.0048 36.6329 10.9301 36.4884 10.8182 36.4161C10.669 36.3078 10.4825 36.1994 10.2214 36.1271C9.96024 36.0549 9.77373 35.9826 9.62451 35.9826V35.6213H12.0866L16.9734 41.3656V37.789C16.9734 37.3554 16.9361 37.0303 16.8615 36.7774C16.7869 36.5606 16.7123 36.38 16.5631 36.3078C16.4512 36.2355 16.2646 36.1632 16.0035 36.1271C15.7424 36.0549 15.5559 36.0187 15.4067 36.0187V35.6575H18.9506V36.0549H18.9132V36.0549Z" fill="#474747"/>
<path opacity="0.7" d="M24.0986 43.1722H20.1816V42.8109C20.2936 42.8109 20.4428 42.8109 20.6666 42.7748C20.8904 42.7748 21.0023 42.7386 21.1142 42.7025C21.2635 42.6664 21.3381 42.5941 21.4127 42.5219C21.4873 42.4496 21.4873 42.3412 21.4873 42.1967V36.7415C21.4873 36.6331 21.45 36.5248 21.4127 36.4164C21.3754 36.3441 21.2634 36.2719 21.0769 36.1996C20.965 36.1635 20.8158 36.1274 20.6293 36.0912C20.4428 36.0551 20.2936 36.019 20.1816 36.019V35.6577H24.0986V36.019C23.9867 36.019 23.8374 36.019 23.6509 36.0551C23.4644 36.0912 23.3152 36.0912 23.2033 36.1274C23.054 36.1635 22.9421 36.2357 22.9048 36.3441C22.8675 36.4525 22.8302 36.5609 22.8302 36.6693V42.1245C22.8302 42.2328 22.8675 42.3412 22.9048 42.4496C22.9794 42.558 23.054 42.5941 23.2033 42.6664C23.2779 42.7025 23.4271 42.7386 23.6136 42.7748C23.8001 42.8109 23.9867 42.8109 24.0986 42.847V43.1722Z" fill="#474747"/>
<path opacity="0.7" d="M32.9769 39.6678C33.2381 39.8123 33.4246 39.993 33.6111 40.2459C33.7603 40.4988 33.8723 40.7878 33.8723 41.1129C33.8723 41.4742 33.7976 41.7632 33.6111 42.0161C33.4246 42.269 33.2008 42.4858 32.9397 42.6664C32.6785 42.847 32.3428 42.9554 32.0071 43.0277C31.6713 43.0999 31.2983 43.1722 30.9252 43.1722H26.8218V42.8109C26.9337 42.8109 27.0456 42.7748 27.2321 42.7748C27.4186 42.7386 27.5679 42.7386 27.6425 42.7025C27.7544 42.6664 27.8663 42.5941 27.9036 42.5219C27.9409 42.4496 27.9782 42.3412 27.9782 42.1967V36.7777C27.9782 36.6693 27.9409 36.5609 27.9036 36.4525C27.8663 36.3441 27.7544 36.2719 27.6425 36.2358C27.5306 36.1996 27.3813 36.1274 27.2321 36.1274C27.0829 36.0913 26.971 36.0913 26.8591 36.0913V35.73H30.8506C31.149 35.73 31.4475 35.7661 31.7459 35.8022C32.0444 35.8384 32.3055 35.9467 32.5666 36.0913C32.7904 36.1996 33.0143 36.3803 33.1635 36.597C33.3127 36.8138 33.3873 37.0667 33.3873 37.3557C33.3873 37.6086 33.35 37.8615 33.2381 38.0782C33.1262 38.295 32.9769 38.4756 32.7904 38.6202C32.6039 38.7647 32.3801 38.873 32.1563 38.9814C31.8951 39.0898 31.634 39.1621 31.3729 39.1982V39.2343C31.634 39.2704 31.8951 39.3066 32.1936 39.3788C32.492 39.415 32.7531 39.5233 32.9769 39.6678ZM31.5221 38.5479C31.6713 38.4034 31.7832 38.2228 31.8205 38.0421C31.8951 37.8615 31.8951 37.6447 31.8951 37.3918C31.8951 36.9944 31.7832 36.6693 31.5221 36.4164C31.261 36.1635 30.8506 36.0551 30.2911 36.0551C30.1791 36.0551 29.9926 36.0551 29.8061 36.0551C29.6196 36.0551 29.4331 36.0551 29.3212 36.0551V38.9453H30.1045C30.4403 38.9453 30.7387 38.9092 30.9625 38.8369C31.1863 38.8008 31.3729 38.6924 31.5221 38.5479ZM32.3801 40.9684C32.3801 40.5349 32.1936 40.1736 31.8578 39.8846C31.5221 39.5956 31.0371 39.4511 30.3657 39.4511C30.1045 39.4511 29.8807 39.4511 29.6942 39.4511C29.5077 39.4511 29.3957 39.4511 29.2838 39.4511V42.0884C29.2838 42.3051 29.3958 42.4858 29.5823 42.5941C29.8061 42.7025 30.0672 42.7748 30.4403 42.7748C31.0371 42.7748 31.5221 42.6303 31.8205 42.3051C32.1936 42.0161 32.3801 41.5464 32.3801 40.9684Z" fill="#474747"/>
<path opacity="0.7" d="M43.9069 43.1722H41.5568C41.0345 42.4858 40.5869 41.8716 40.1392 41.3658C39.7289 40.86 39.2812 40.3181 38.7962 39.7762H37.9009V42.1606C37.9009 42.269 37.9383 42.3774 37.9756 42.4858C38.0129 42.5941 38.1248 42.6664 38.274 42.7025C38.3486 42.7386 38.4605 42.7386 38.647 42.7748C38.8336 42.8109 38.9828 42.8109 39.0947 42.8109V43.1722H35.4388V42.8109C35.5508 42.8109 35.6627 42.7748 35.8492 42.7748C36.0357 42.7748 36.1476 42.7386 36.2223 42.7025C36.3342 42.6664 36.4461 42.5941 36.4834 42.4858C36.5207 42.4135 36.558 42.269 36.558 42.1606V36.7054C36.558 36.597 36.5207 36.4886 36.4834 36.3803C36.4461 36.2719 36.3342 36.1996 36.1849 36.1635C36.073 36.1274 35.9611 36.0912 35.7746 36.0912C35.6254 36.0551 35.4762 36.0551 35.3643 36.0551V35.6938H39.3558C39.7288 35.6938 40.0646 35.73 40.4003 35.8022C40.7361 35.8745 40.9972 35.9829 41.2583 36.1274C41.5195 36.2719 41.706 36.4525 41.8552 36.6693C42.0044 36.886 42.079 37.1751 42.079 37.5002C42.079 37.7892 42.0417 38.0421 41.9298 38.2589C41.8179 38.4756 41.6687 38.6563 41.4821 38.8369C41.2956 38.9814 41.0718 39.1259 40.8107 39.2343C40.5495 39.3427 40.2884 39.4511 39.9527 39.5233C40.363 40.0291 40.7361 40.4265 41.0345 40.7516C41.3329 41.0768 41.6687 41.5103 42.079 41.98C42.2655 42.1967 42.4148 42.3412 42.564 42.4496C42.7132 42.558 42.8624 42.6303 43.0116 42.7025C43.1235 42.7386 43.2354 42.7748 43.422 42.8109C43.5712 42.847 43.7204 42.847 43.8323 42.847V43.1722H43.9069V43.1722ZM40.6988 37.5725C40.6988 37.1028 40.5495 36.7415 40.2511 36.4886C39.9527 36.2358 39.5423 36.0912 38.9828 36.0912H37.9382V39.3066H38.7216C39.2812 39.3066 39.7662 39.1621 40.1392 38.8369C40.5122 38.5479 40.6988 38.1144 40.6988 37.5725Z" fill="#474747"/>
<path opacity="0.7" d="M52.1885 40.9684L52.0393 43.1722H44.8395V42.8109C44.9515 42.8109 45.138 42.7748 45.3245 42.7748C45.511 42.7386 45.6602 42.7386 45.7349 42.7025C45.8841 42.6664 45.9587 42.5941 45.996 42.4857C46.0333 42.4135 46.0706 42.3051 46.0706 42.1606V36.7415C46.0706 36.6331 46.0333 36.5248 45.996 36.4164C45.9587 36.308 45.8468 36.2357 45.6975 36.1996C45.5856 36.1635 45.4364 36.1274 45.2499 36.0912C45.0634 36.0551 44.9142 36.019 44.8022 36.019V35.6577H51.517V37.4641H51.0693C50.9947 37.2112 50.8082 36.9222 50.5471 36.597C50.286 36.308 50.0248 36.1274 49.7637 36.0912C49.6518 36.0912 49.5026 36.0551 49.316 36.0551C49.1295 36.0551 48.943 36.0551 48.7192 36.0551H47.3389V39.0537H48.3088C48.6073 39.0537 48.8684 39.0175 48.9803 38.9814C49.1295 38.9453 49.2415 38.8369 49.3534 38.7285C49.428 38.6201 49.5026 38.4756 49.5772 38.3311C49.6518 38.1505 49.6891 38.006 49.6891 37.8615H50.1367V40.8239H49.6891C49.6891 40.6433 49.6145 40.4626 49.5399 40.282C49.4653 40.1013 49.3907 39.9568 49.316 39.8846C49.2041 39.7401 49.0549 39.6678 48.8684 39.6317C48.6819 39.5956 48.4954 39.5594 48.2342 39.5594H47.2643V41.7993C47.2643 42.0161 47.3016 42.1967 47.3016 42.3412C47.3389 42.4857 47.4135 42.558 47.5254 42.6302C47.6374 42.7025 47.7866 42.7386 47.9731 42.7748C48.1596 42.8109 48.4207 42.8109 48.7565 42.8109C48.9057 42.8109 49.0549 42.8109 49.2788 42.8109C49.5026 42.8109 49.6891 42.8109 49.8383 42.7748C49.9875 42.7748 50.1367 42.7386 50.3233 42.7025C50.4725 42.6664 50.6217 42.6302 50.659 42.558C50.8455 42.3774 51.032 42.1245 51.2559 41.7993C51.4797 41.4381 51.5916 41.1852 51.6662 41.0407H52.1885V40.9684V40.9684Z" fill="#474747"/>
<path opacity="0.7" d="M65.3196 36.0551C65.2077 36.0551 65.0958 36.0912 64.9839 36.1274C64.8347 36.1635 64.7227 36.1996 64.6108 36.2719C64.4616 36.3441 64.3497 36.4525 64.2751 36.5248C64.2005 36.6331 64.1259 36.7776 64.0513 36.9583C63.7528 37.7892 63.4171 38.7285 63.044 39.8123C62.671 40.8962 62.2607 42.0522 61.813 43.2805H61.2534L59.0525 37.5002L56.7769 43.2805H56.2547C55.8443 42.0522 55.434 40.7516 54.9863 39.4149C54.5387 38.0782 54.2775 37.175 54.1283 36.7415C54.091 36.6331 54.0537 36.5248 53.9791 36.4525C53.9045 36.3802 53.7926 36.2719 53.6807 36.2357C53.5687 36.1635 53.4568 36.1274 53.3076 36.0912C53.1584 36.0551 53.0465 36.0551 52.9346 36.019V35.6577H56.4785V36.019C56.1801 36.019 55.9189 36.0551 55.6951 36.0912C55.4713 36.1274 55.3594 36.1996 55.3594 36.2719C55.3594 36.308 55.3594 36.3441 55.3594 36.4164C55.3594 36.4886 55.3966 36.5248 55.3966 36.5609C55.5086 36.886 55.6578 37.3918 55.8816 38.1144C56.1055 38.8369 56.4785 39.9207 56.9261 41.3297L59.0898 35.73H59.6867L61.8876 41.4381C62.1861 40.571 62.4472 39.7762 62.6337 39.1259C62.8202 38.4756 63.0068 37.8976 63.156 37.4279C63.2679 37.1028 63.3052 36.886 63.3425 36.7415C63.3798 36.6331 63.3798 36.5248 63.3798 36.4164C63.3798 36.308 63.2679 36.1996 63.0814 36.1274C62.8948 36.0551 62.5964 35.9828 62.1488 35.9467V35.5854H65.2823L65.3196 36.0551Z" fill="#474747"/>
</g>
<path opacity="0.7" d="M21.5991 0L27.5305 2.56503V15.1734C27.5305 15.1734 27.4186 20.8454 31.4847 22.4711C31.4847 22.4711 21.5991 22.5072 21.5991 14.0535C21.5991 5.59971 21.5991 0 21.5991 0Z" fill="#474747"/>
<path opacity="0.7" d="M42.7132 0L36.7819 2.56503V15.1734C36.7819 15.1734 36.8938 20.8454 32.8276 22.4711C32.8276 22.4711 42.7132 22.5072 42.7132 14.0535C42.7132 5.59971 42.7132 0 42.7132 0Z" fill="#474747"/>
</g>
</svg>
