<svg width="121" height="120" viewBox="0 0 121 120" fill="none" xmlns="http://www.w3.org/2000/svg">
<g clip-path="url(#clip0)">
<path d="M70.614 66.3354C70.614 73.913 66.3904 80.1242 61.0487 80.1242C55.7071 80.1242 51.4835 73.913 51.4835 66.3354C51.4835 58.7578 55.7071 53.2919 61.0487 53.2919C66.3904 53.2919 70.614 58.7578 70.614 66.3354Z" fill="#C1C1BF"/>
<path d="M76.0798 74.2857C76.0798 67.9503 75.2102 66.8323 71.3593 64.5963C66.0177 59.0062 57.1978 58.6335 51.6077 63.9751C51.3593 64.2236 51.1108 64.3478 50.9866 64.5963C47.1357 66.7081 46.2661 67.8261 46.2661 74.1615C46.2661 74.2857 46.2661 74.4099 46.2661 74.5341C46.3903 83.2298 52.85 90.1863 61.1729 90.1863H61.4214C69.4959 90.3105 76.0798 83.1056 76.0798 74.2857Z" fill="#939393"/>
<path d="M72.4773 73.0435L72.2288 70.559C78.9369 69.9379 86.0177 60.4969 87.5083 55.6522C88.2537 53.0435 89.6201 46.4596 85.5208 41.118C81.4214 35.7764 73.2226 33.4162 61.1729 33.913C48.2537 34.4099 39.6822 37.5155 35.7071 42.9814C32.6015 47.3292 33.2226 52.2981 34.2164 55.6522C35.5829 60.4969 42.6636 69.9379 49.4959 70.559L49.2475 73.0435C41.5456 72.4224 33.5953 62.6087 31.8562 56.3975C30.7381 52.4224 30.117 46.7081 33.7195 41.6149C38.0673 35.528 47.2599 32.1739 61.0487 31.5528C73.968 31.0559 82.9121 33.7888 87.5083 39.7516C92.3531 46.087 90.8624 53.5404 89.9928 56.5217C88.2537 61.6149 80.676 72.2981 72.4773 73.0435Z" fill="#939393"/>
<path d="M61.0488 71.1801C65.4397 71.1801 68.9991 70.9021 68.9991 70.559C68.9991 70.216 65.4397 69.9379 61.0488 69.9379C56.658 69.9379 53.0985 70.216 53.0985 70.559C53.0985 70.9021 56.658 71.1801 61.0488 71.1801Z" fill="#707070"/>
<path d="M61.0488 74.9068C65.4397 74.9068 68.9991 74.6288 68.9991 74.2857C68.9991 73.9427 65.4397 73.6646 61.0488 73.6646C56.658 73.6646 53.0985 73.9427 53.0985 74.2857C53.0985 74.6288 56.658 74.9068 61.0488 74.9068Z" fill="#707070"/>
<path d="M68.9991 78.1367C68.9991 78.5093 65.3966 78.7578 61.0488 78.7578C56.701 78.7578 53.0985 78.5093 53.0985 78.1367C53.0985 77.764 56.701 77.5155 61.0488 77.5155C65.3966 77.5155 68.9991 77.764 68.9991 78.1367Z" fill="#707070"/>
<path d="M61.0488 82.4845C65.4397 82.4845 68.9991 82.2064 68.9991 81.8634C68.9991 81.5203 65.4397 81.2422 61.0488 81.2422C56.658 81.2422 53.0985 81.5203 53.0985 81.8634C53.0985 82.2064 56.658 82.4845 61.0488 82.4845Z" fill="#707070"/>
<path d="M60.8003 116.273C91.8792 116.273 117.074 91.0789 117.074 60C117.074 28.9211 91.8792 3.72672 60.8003 3.72672C29.7214 3.72672 4.52698 28.9211 4.52698 60C4.52698 91.0789 29.7214 116.273 60.8003 116.273Z" stroke="#E07D2B" stroke-width="6" stroke-miterlimit="10"/>
</g>
<defs>
<clipPath id="clip0">
<rect width="120" height="120" fill="white" transform="translate(0.800293)"/>
</clipPath>
</defs>
</svg>
