<svg width="100" height="100" viewBox="0 0 100 100" fill="none" xmlns="http://www.w3.org/2000/svg">
<path d="M90.1045 51.6491C86.6706 51.6491 83.6499 53.3969 81.876 56.0459C81.8699 56.06 81.8619 56.0729 81.8561 56.079C81.8031 56.158 81.7511 56.2379 81.7 56.3239C81.2231 56.99 80.4379 57.4238 79.5551 57.4238C78.098 57.4238 76.9183 56.2437 76.9183 54.794V23.0795H45.2108C43.7538 23.0795 42.574 21.8985 42.574 20.4417C42.574 19.5378 43.027 18.7407 43.72 18.2659C43.7941 18.2129 43.8721 18.167 43.9579 18.1208C46.6078 16.3399 48.3487 13.3201 48.3487 9.89231C48.3487 4.42555 43.9248 0.00170898 38.4602 0.00170898C32.9934 0.00170898 28.5696 4.42555 28.5696 9.89231C28.5696 13.3271 30.3156 16.3469 32.9653 18.1208C32.9794 18.1269 32.9923 18.1349 32.9984 18.1407C33.0783 18.1937 33.1563 18.2457 33.2423 18.2987C33.9084 18.7737 34.3443 19.5586 34.3443 20.4415C34.3443 21.8985 33.1643 23.0792 31.7133 23.0792H0V54.7947C0 56.2447 1.18002 57.4245 2.63682 57.4245C3.51967 57.4245 4.30478 56.9904 4.78171 56.3246C4.83281 56.2386 4.88671 56.1587 4.93967 56.0797C4.94577 56.0736 4.95163 56.0598 4.9596 56.0466C6.73255 53.3979 9.75233 51.6498 13.1881 51.6498C18.6527 51.6498 23.0787 56.0745 23.0787 61.5404C23.0787 67.005 18.653 71.4288 13.1881 71.4288C9.75818 71.4288 6.73935 69.6899 4.9596 67.038C4.91249 66.9541 4.86562 66.874 4.81359 66.802C4.33853 66.109 3.54264 65.6551 2.63776 65.6551C1.18072 65.6551 0.000937453 66.836 0.000937453 68.2928V99.9982H31.7164C33.1673 99.9982 34.3473 98.8182 34.3473 97.3604C34.3473 96.4764 33.9114 95.6925 33.2454 95.2165C33.1594 95.1645 33.0813 95.1124 33.0014 95.0595C32.9953 95.0524 32.9815 95.0466 32.9684 95.0384C30.3184 93.2654 28.5726 90.2456 28.5726 86.8108C28.5726 81.345 32.9965 76.9202 38.4632 76.9202C43.9279 76.9202 48.3517 81.345 48.3517 86.8108C48.3517 90.2395 46.6118 93.2584 43.9609 95.0384C43.8749 95.0855 43.7969 95.1324 43.7231 95.1844C43.03 95.6604 42.577 96.4563 42.577 97.3602C42.577 98.8182 43.757 99.998 45.2138 99.998H76.9232V68.2912C76.9232 66.8342 78.1032 65.6534 79.56 65.6534C80.4639 65.6534 81.261 66.1074 81.7358 66.8004C81.7888 66.8724 81.8338 66.9525 81.8809 67.0364C83.6618 69.6873 86.6816 71.4272 90.1094 71.4272C95.5762 71.4272 100 67.0034 100 61.5387C99.9951 56.0738 95.5712 51.6491 90.1045 51.6491Z" fill="#1E6B53"/>
</svg>
