<svg width="300" height="206" viewBox="0 0 300 206" fill="none" xmlns="http://www.w3.org/2000/svg">
<path d="M105.368 154.711H97.4872C95.7738 152.484 94.2319 150.428 92.8612 148.715C91.4906 147.002 89.9486 145.288 88.2353 143.575H85.3227V151.456C85.3227 151.799 85.3227 152.141 85.494 152.484C85.6653 152.827 86.008 152.998 86.522 153.169C86.6933 153.169 87.2073 153.341 87.8927 153.341C88.578 153.341 89.092 153.512 89.4346 153.512V154.711H77.0988V153.512C77.4415 153.512 77.9555 153.512 78.4695 153.341C79.1548 153.341 79.4975 153.169 79.8401 153.169C80.1828 152.998 80.5254 152.827 80.6968 152.484C80.8681 152.141 81.0394 151.799 81.0394 151.285V133.466C81.0394 133.124 81.0394 132.781 80.8681 132.438C80.6968 132.096 80.3541 131.924 79.8401 131.753C79.4975 131.582 78.9835 131.582 78.4695 131.41C77.9555 131.239 77.4415 131.239 77.0988 131.239V130.04H90.4626C91.6619 130.04 92.8612 130.211 93.8892 130.382C94.9172 130.554 95.9452 130.896 96.8018 131.41C97.6585 131.924 98.3438 132.438 98.8578 133.295C99.3718 133.98 99.5431 135.008 99.5431 136.036C99.5431 137.064 99.3718 137.75 99.0291 138.606C98.6865 139.292 98.1725 139.977 97.4872 140.491C96.8018 141.005 96.1165 141.348 95.2599 141.862C94.4032 142.376 93.3752 142.547 92.3472 142.718C93.7179 144.26 94.9172 145.631 95.9452 146.83C96.9732 147.858 98.0012 149.229 99.3718 150.771C100.057 151.456 100.571 151.97 100.914 152.313C101.428 152.655 101.942 152.998 102.284 153.169C102.627 153.341 103.141 153.512 103.655 153.512C104.169 153.512 104.683 153.683 105.026 153.683V154.711H105.368ZM94.5745 136.379C94.5745 134.837 94.0606 133.638 93.0326 132.781C92.0046 131.924 90.6339 131.41 88.7493 131.41H85.3227V142.033H88.064C89.9486 142.033 91.4906 141.519 92.6899 140.491C94.0606 139.463 94.5745 138.092 94.5745 136.379Z" fill="#474747"/>
<path d="M130.725 132.952C131.925 134.152 132.953 135.522 133.809 137.064C134.666 138.606 134.837 140.491 134.837 142.376C134.837 144.26 134.495 146.145 133.809 147.687C133.124 149.229 132.096 150.6 130.725 151.799C129.526 152.998 127.984 153.855 126.271 154.369C124.557 155.054 122.844 155.225 120.959 155.225C118.904 155.225 117.019 154.883 115.306 154.197C113.592 153.512 112.05 152.655 110.851 151.456C109.652 150.257 108.624 148.886 107.938 147.344C107.253 145.802 106.91 144.089 106.91 142.204C106.91 140.148 107.253 138.435 107.938 136.893C108.624 135.351 109.652 133.98 111.022 132.781C112.222 131.582 113.764 130.725 115.477 130.211C117.19 129.526 118.903 129.354 120.788 129.354C122.673 129.354 124.557 129.697 126.271 130.211C127.984 130.725 129.526 131.924 130.725 132.952ZM127.813 150.428C128.498 149.4 129.183 148.201 129.526 146.83C129.869 145.46 130.04 144.089 130.04 142.376C130.04 140.662 129.869 139.12 129.526 137.75C129.183 136.379 128.498 135.18 127.813 134.152C127.127 133.124 126.099 132.438 125.071 131.924C123.872 131.41 122.673 131.068 121.131 131.068C119.417 131.068 118.047 131.41 117.019 132.096C115.991 132.781 114.963 133.638 114.278 134.666C113.592 135.694 113.078 136.893 112.736 138.264C112.393 139.634 112.222 141.005 112.222 142.547C112.222 144.26 112.393 145.802 112.736 147.002C113.078 148.372 113.592 149.572 114.449 150.599C115.134 151.627 116.162 152.484 117.19 152.998C118.389 153.512 119.589 153.855 121.131 153.855C122.673 153.855 123.872 153.512 125.071 152.998C126.099 152.313 126.956 151.456 127.813 150.428Z" fill="#474747"/>
<path d="M165.163 131.239C164.991 131.239 164.477 131.411 164.135 131.411C163.621 131.582 163.278 131.753 163.107 131.753C162.593 132.096 162.25 132.267 162.079 132.439C161.908 132.61 161.565 132.953 161.051 133.638C160.023 134.837 158.995 136.208 158.138 137.579C157.282 138.949 156.082 140.491 154.712 142.547C154.198 143.232 153.855 143.918 153.684 144.26C153.512 144.774 153.512 145.288 153.512 146.145V150.942C153.512 151.285 153.684 151.799 153.855 151.97C154.026 152.313 154.369 152.484 154.883 152.656C155.226 152.827 155.74 152.827 156.425 152.998C157.11 153.17 157.796 153.17 158.138 153.17V154.369H144.603V153.17C144.946 153.17 145.631 153.17 146.316 152.998C147.002 152.998 147.687 152.827 147.858 152.827C148.372 152.656 148.715 152.484 148.886 152.142C149.058 151.799 149.229 151.456 149.229 151.114V145.117C149.229 144.946 149.058 144.603 148.886 144.089C148.544 143.575 148.372 143.061 147.858 142.376C147.002 141.005 146.145 139.635 145.117 138.093C144.089 136.551 143.232 135.18 142.547 134.152C142.033 133.467 141.69 132.953 141.348 132.61C141.005 132.267 140.663 131.925 140.149 131.753C139.806 131.582 139.463 131.411 138.949 131.411C138.435 131.239 138.093 131.239 137.75 131.239V130.04H150.086V131.239C148.715 131.239 147.687 131.411 147.173 131.411C146.659 131.411 146.316 131.753 146.316 131.925C146.316 131.925 146.316 132.096 146.488 132.267C146.488 132.439 146.659 132.61 146.83 132.953C147.002 133.295 147.173 133.638 147.516 133.981C147.687 134.323 148.03 134.666 148.201 135.18C148.886 136.208 149.572 137.236 150.086 138.264C150.771 139.292 151.628 140.663 152.656 142.204C154.712 139.292 156.425 137.065 157.624 135.351C158.824 133.638 159.338 132.781 159.338 132.439C159.338 132.096 159.166 131.925 158.995 131.753C158.824 131.582 158.481 131.411 158.138 131.411C157.796 131.239 157.282 131.239 156.768 131.239C156.254 131.239 155.911 131.239 155.397 131.068V129.869H165.505V131.239H165.163Z" fill="#474747"/>
<path d="M195.488 154.711H183.495V153.512C184.523 153.512 185.38 153.341 186.065 153.169C186.75 152.998 187.093 152.827 187.093 152.484C187.093 152.313 187.093 152.313 187.093 152.141C187.093 151.97 187.093 151.799 186.922 151.799L184.523 146.316H174.415C174.072 147.173 173.729 147.858 173.558 148.372C173.387 149.057 173.044 149.571 172.873 150.085C172.701 150.599 172.53 150.942 172.53 151.285C172.53 151.627 172.359 151.799 172.359 151.97C172.359 152.484 172.873 152.827 173.729 152.998C174.586 153.169 175.614 153.341 176.642 153.512V154.711H165.677V153.512C166.019 153.512 166.533 153.341 167.047 153.341C167.561 153.169 168.075 152.998 168.418 152.827C168.932 152.484 169.446 152.141 169.617 151.799C169.96 151.456 170.131 150.942 170.474 150.428C172.016 147.344 173.558 143.917 175.271 139.977C176.985 136.036 178.527 132.61 179.897 129.697H181.611L191.205 150.942C191.376 151.456 191.719 151.799 191.89 151.97C192.233 152.313 192.576 152.484 192.918 152.827C193.261 152.998 193.604 153.169 194.118 153.169C194.632 153.341 194.974 153.341 195.317 153.341V154.711H195.488ZM183.838 144.603L179.383 135.008L175.1 144.603H183.838Z" fill="#474747"/>
<path d="M221.531 147.344L220.845 154.711H198.23V153.512C198.572 153.512 199.086 153.512 199.6 153.341C200.286 153.341 200.628 153.169 200.971 153.169C201.314 152.998 201.656 152.827 201.828 152.484C201.999 152.142 202.17 151.799 202.17 151.285V133.638C202.17 133.295 202.17 132.952 201.999 132.61C201.828 132.267 201.485 132.096 201.142 131.924C200.8 131.753 200.457 131.582 199.772 131.582C199.258 131.41 198.744 131.411 198.401 131.411V130.211H210.737V131.411C210.394 131.411 209.88 131.41 209.195 131.582C208.509 131.753 208.167 131.753 207.824 131.924C207.31 132.096 206.967 132.267 206.796 132.61C206.625 132.952 206.454 133.295 206.454 133.638V150.257C206.454 150.942 206.454 151.628 206.625 151.97C206.796 152.313 206.967 152.655 207.31 152.998C207.653 153.169 208.167 153.341 208.681 153.341C209.366 153.341 210.223 153.512 211.251 153.512C211.765 153.512 212.279 153.512 212.793 153.512C213.307 153.512 213.821 153.512 214.335 153.341C214.849 153.341 215.191 153.169 215.705 152.998C216.048 152.827 216.391 152.656 216.562 152.484C217.076 151.97 217.761 151.114 218.447 150.086C219.132 149.058 219.646 148.201 219.989 147.516H221.531V147.344Z" fill="#474747"/>
<path d="M40.7767 170.988C40.2627 170.988 39.4061 171.159 38.5494 171.331C37.5214 171.502 36.6648 171.845 36.1508 172.187C35.4655 172.53 35.1228 173.387 34.7801 174.586C34.6088 175.785 34.4375 177.327 34.4375 179.041V194.632C34.4375 196.688 33.9235 198.401 33.0668 199.772C32.2102 201.314 31.0108 202.513 29.4689 203.37C27.9269 204.226 26.3849 204.911 24.8429 205.254C23.1296 205.597 21.5877 205.768 20.217 205.768C17.8184 205.768 15.7624 205.425 13.8778 204.911C11.9932 204.397 10.4512 203.541 9.08051 202.684C7.88119 201.656 6.85324 200.628 6.16791 199.429C5.48259 198.23 5.13992 196.859 5.13992 195.488V174.415C5.13992 173.901 4.96857 173.387 4.79724 172.873C4.62591 172.53 4.11194 172.187 3.42661 171.845C2.91262 171.673 2.39863 171.502 1.71331 171.331C1.02798 171.159 0.342661 171.159 0 170.988V169.275H16.6191V170.988C16.1051 170.988 15.4198 171.159 14.5631 171.159C13.7065 171.331 13.1925 171.502 12.8498 171.502C12.1645 171.673 11.8218 172.016 11.6505 172.53C11.4791 173.044 11.3078 173.558 11.3078 174.072V193.775C11.3078 194.803 11.4791 195.66 11.6505 196.859C11.8218 198.058 12.3358 198.915 13.0211 199.772C13.7065 200.628 14.7344 201.485 15.9337 201.999C17.133 202.513 18.8464 202.855 21.0737 202.855C23.1296 202.855 24.843 202.513 26.2136 201.999C27.5842 201.485 28.7835 200.628 29.4689 199.772C30.1542 198.915 30.8395 197.887 31.1822 196.859C31.5248 195.831 31.6962 194.803 31.6962 193.946V179.383C31.6962 177.499 31.5248 175.957 31.1822 174.757C30.8395 173.558 30.4969 172.873 29.8115 172.359C29.1262 172.016 28.2696 171.673 27.0703 171.331C25.8709 171.159 25.0143 170.988 24.5003 170.988V169.275H40.7767V170.988Z" fill="#474747"/>
<path d="M86.8646 170.988C86.3506 170.988 85.494 171.159 84.466 171.331C83.438 171.502 82.5814 171.845 82.0674 172.187C81.382 172.53 80.8681 173.387 80.6967 174.586C80.5254 175.785 80.3541 177.327 80.3541 179.041V205.083H77.9554L53.7978 175.957V194.289C53.7978 196.345 53.9691 197.887 54.3118 199.086C54.6545 200.114 54.9971 200.971 55.6825 201.485C56.1965 201.828 57.0531 202.17 58.4238 202.513C59.7944 202.856 60.651 203.027 61.165 203.027V204.74H44.8886V203.027C45.4026 203.027 46.2593 202.856 47.4586 202.513C48.6579 202.17 49.3432 201.999 49.6859 201.656C50.3712 201.142 50.7139 200.457 51.0565 199.429C51.2279 198.401 51.3992 196.859 51.3992 194.46V176.813C51.3992 176.128 51.2279 175.271 50.8852 174.415C50.5425 173.729 50.1999 173.044 49.6859 172.701C49.0006 172.187 48.1439 171.673 46.9446 171.331C45.7453 170.988 44.8886 170.645 44.2033 170.645V168.932H55.5111L77.9554 196.174V179.212C77.9554 177.156 77.7841 175.614 77.4414 174.415C77.0988 173.387 76.7561 172.53 76.0708 172.187C75.5568 171.845 74.7002 171.502 73.5008 171.331C72.3015 170.988 71.4449 170.817 70.7596 170.817V169.103H87.036V170.988H86.8646Z" fill="#474747"/>
<path d="M110.68 204.74H92.6899V203.027C93.2039 203.027 93.8892 203.027 94.9172 202.855C95.9452 202.855 96.4592 202.684 96.9732 202.513C97.6585 202.341 98.0012 201.999 98.3438 201.656C98.6865 201.313 98.6865 200.799 98.6865 200.114V174.243C98.6865 173.729 98.5152 173.215 98.3438 172.701C98.1725 172.359 97.6585 172.016 96.8019 171.673C96.2879 171.502 95.6026 171.331 94.7459 171.159C93.8893 170.988 93.2039 170.817 92.6899 170.817V169.103H110.68V170.817C110.166 170.817 109.48 170.817 108.624 170.988C107.767 171.159 107.082 171.159 106.568 171.331C105.882 171.502 105.368 171.845 105.197 172.359C105.026 172.873 104.854 173.387 104.854 173.901V199.771C104.854 200.285 105.026 200.799 105.197 201.313C105.54 201.827 105.882 201.999 106.568 202.341C106.91 202.513 107.596 202.684 108.452 202.855C109.309 203.027 110.166 203.027 110.68 203.198V204.74V204.74Z" fill="#474747"/>
<path d="M151.456 188.121C152.656 188.806 153.512 189.663 154.369 190.862C155.054 192.061 155.568 193.432 155.568 194.974C155.568 196.687 155.226 198.058 154.369 199.257C153.512 200.456 152.484 201.484 151.285 202.341C150.086 203.198 148.544 203.712 147.002 204.054C145.46 204.397 143.746 204.74 142.033 204.74H123.187V203.026C123.701 203.026 124.215 202.855 125.071 202.855C125.928 202.684 126.613 202.684 126.956 202.512C127.47 202.341 127.984 201.998 128.155 201.656C128.327 201.313 128.498 200.799 128.498 200.114V174.414C128.498 173.9 128.327 173.386 128.155 172.872C127.984 172.358 127.47 172.016 126.956 171.844C126.442 171.673 125.757 171.33 125.071 171.33C124.386 171.159 123.872 171.159 123.358 171.159V169.446H141.69C143.061 169.446 144.432 169.617 145.802 169.788C147.173 169.96 148.372 170.474 149.572 171.159C150.6 171.673 151.628 172.529 152.313 173.557C152.998 174.585 153.341 175.785 153.341 177.155C153.341 178.355 153.17 179.554 152.656 180.582C152.142 181.61 151.456 182.467 150.6 183.152C149.743 183.837 148.715 184.351 147.687 184.865C146.488 185.379 145.288 185.722 144.089 185.893V186.065C145.288 186.236 146.488 186.407 147.858 186.75C149.229 186.921 150.428 187.435 151.456 188.121ZM144.774 182.809C145.46 182.124 145.974 181.267 146.145 180.411C146.488 179.554 146.488 178.526 146.488 177.327C146.488 175.442 145.974 173.9 144.774 172.701C143.575 171.502 141.69 170.988 139.12 170.988C138.607 170.988 137.75 170.988 136.893 170.988C136.037 170.988 135.18 170.988 134.666 170.988V184.694H138.264C139.806 184.694 141.176 184.523 142.204 184.18C143.232 184.009 144.089 183.495 144.774 182.809ZM148.715 194.289C148.715 192.233 147.858 190.519 146.316 189.149C144.774 187.778 142.547 187.093 139.463 187.093C138.264 187.093 137.236 187.093 136.379 187.093C135.523 187.093 135.009 187.093 134.495 187.093V199.6C134.495 200.628 135.009 201.484 135.865 201.998C136.893 202.512 138.093 202.855 139.806 202.855C142.547 202.855 144.774 202.17 146.145 200.628C147.858 199.257 148.715 197.03 148.715 194.289Z" fill="#474747"/>
<path d="M201.656 204.74H190.862C188.464 201.485 186.408 198.572 184.352 196.174C182.467 193.775 180.411 191.205 178.184 188.635H174.072V199.943C174.072 200.457 174.243 200.971 174.415 201.485C174.586 201.999 175.1 202.342 175.785 202.513C176.128 202.684 176.642 202.684 177.499 202.855C178.355 203.027 179.041 203.027 179.555 203.027V204.74H162.764V203.027C163.278 203.027 163.792 202.855 164.649 202.855C165.505 202.855 166.019 202.684 166.362 202.513C166.876 202.342 167.39 201.999 167.561 201.485C167.733 201.142 167.904 200.457 167.904 199.943V174.072C167.904 173.558 167.733 173.044 167.561 172.53C167.39 172.016 166.876 171.673 166.191 171.502C165.677 171.331 165.163 171.159 164.306 171.159C163.621 170.988 162.935 170.988 162.421 170.988V169.275H180.754C182.467 169.275 184.009 169.446 185.551 169.789C187.093 170.131 188.292 170.645 189.492 171.331C190.691 172.016 191.548 172.873 192.233 173.901C192.918 174.929 193.261 176.299 193.261 177.841C193.261 179.212 193.09 180.411 192.576 181.439C192.062 182.467 191.376 183.324 190.52 184.18C189.663 184.866 188.635 185.551 187.436 186.065C186.236 186.579 185.037 187.093 183.495 187.436C185.38 189.834 187.093 191.719 188.464 193.261C189.834 194.803 191.376 196.859 193.261 199.086C194.118 200.114 194.803 200.8 195.488 201.314C196.174 201.828 196.859 202.17 197.544 202.513C198.058 202.684 198.572 202.855 199.429 203.027C200.114 203.198 200.8 203.198 201.314 203.198V204.74H201.656ZM186.922 178.184C186.922 175.957 186.236 174.243 184.866 173.044C183.495 171.845 181.61 171.159 179.041 171.159H174.243V186.408H177.841C180.411 186.408 182.638 185.722 184.352 184.18C186.065 182.81 186.922 180.754 186.922 178.184Z" fill="#474747"/>
<path d="M239.692 194.289L239.006 204.74H205.939V203.027C206.453 203.027 207.31 202.855 208.167 202.855C209.023 202.684 209.709 202.684 210.051 202.513C210.737 202.341 211.079 201.999 211.251 201.485C211.422 201.142 211.593 200.628 211.593 199.943V174.243C211.593 173.729 211.422 173.215 211.251 172.701C211.079 172.187 210.565 171.845 209.88 171.673C209.366 171.502 208.681 171.331 207.824 171.159C206.967 170.988 206.282 170.817 205.768 170.817V169.103H236.608V177.67H234.552C234.209 176.47 233.352 175.1 232.153 173.558C230.954 172.187 229.754 171.331 228.555 171.159C228.041 171.159 227.356 170.988 226.499 170.988C225.643 170.988 224.786 170.988 223.758 170.988H217.419V185.208H221.873C223.244 185.208 224.443 185.037 224.957 184.866C225.643 184.694 226.157 184.18 226.67 183.666C227.013 183.152 227.356 182.467 227.698 181.782C228.041 180.925 228.212 180.24 228.212 179.554H230.268V193.604H228.212C228.212 192.747 227.87 191.89 227.527 191.034C227.184 190.177 226.842 189.492 226.499 189.149C225.985 188.464 225.3 188.121 224.443 187.95C223.587 187.778 222.73 187.607 221.531 187.607H217.076V198.229C217.076 199.257 217.247 200.114 217.247 200.799C217.419 201.485 217.761 201.827 218.275 202.17C218.789 202.513 219.475 202.684 220.331 202.855C221.188 203.027 222.387 203.027 223.929 203.027C224.615 203.027 225.3 203.027 226.328 203.027C227.356 203.027 228.212 203.027 228.898 202.855C229.583 202.855 230.268 202.684 231.125 202.513C231.81 202.341 232.496 202.17 232.667 201.827C233.524 200.971 234.38 199.771 235.408 198.229C236.436 196.516 236.95 195.317 237.293 194.632H239.692V194.289Z" fill="#474747"/>
<path d="M300 170.988C299.486 170.988 298.972 171.159 298.458 171.331C297.773 171.502 297.259 171.673 296.745 172.016C296.059 172.359 295.545 172.873 295.203 173.215C294.86 173.729 294.517 174.415 294.175 175.271C292.804 179.212 291.262 183.667 289.549 188.806C287.836 193.946 285.951 199.429 283.895 205.254H281.325L271.216 177.841L260.765 205.254H258.367C256.482 199.429 254.597 193.261 252.541 186.922C250.485 180.583 249.286 176.299 248.601 174.243C248.429 173.729 248.258 173.215 247.915 172.873C247.573 172.53 247.059 172.016 246.545 171.845C246.031 171.502 245.517 171.331 244.832 171.159C244.146 170.988 243.632 170.988 243.118 170.817V169.103H259.395V170.817C258.024 170.817 256.825 170.988 255.797 171.159C254.769 171.331 254.255 171.673 254.255 172.016C254.255 172.187 254.255 172.359 254.255 172.701C254.255 173.044 254.426 173.215 254.426 173.387C254.94 174.929 255.625 177.327 256.653 180.754C257.681 184.181 259.395 189.32 261.451 196.002L271.388 169.446H274.129L284.238 196.516C285.608 192.404 286.808 188.635 287.664 185.551C288.521 182.467 289.378 179.726 290.063 177.499C290.577 175.957 290.748 174.929 290.919 174.243C291.091 173.729 291.091 173.215 291.091 172.701C291.091 172.187 290.577 171.673 289.72 171.331C288.864 170.988 287.493 170.645 285.437 170.474V168.761H299.829V170.988H300Z" fill="#474747"/>
<path d="M99.2004 0L126.442 12.1645V71.9589C126.442 71.9589 125.928 98.8578 144.603 106.568C144.603 106.568 99.2004 106.739 99.2004 66.6476C99.2004 26.5562 99.2004 0 99.2004 0Z" fill="#474747"/>
<path d="M196.174 0L168.932 12.1645V71.9589C168.932 71.9589 169.446 98.8578 150.771 106.568C150.771 106.568 196.174 106.739 196.174 66.6476C196.174 26.5562 196.174 0 196.174 0Z" fill="#474747"/>
</svg>
