<svg width="122" height="122" viewBox="0 0 122 122" fill="none" xmlns="http://www.w3.org/2000/svg">
<path d="M94.234 58.0175C96.7874 51.9539 93.7551 41.2624 87.2128 38.5497C87.2128 38.5497 84.9789 23.7099 72.373 23.7099C59.7662 23.7099 58.8095 38.5497 66.7883 42.3793C66.7883 42.3793 69.6603 50.6768 79.5535 50.6768C89.4476 50.6768 89.4467 58.0175 89.4467 58.0175L91.5478 60.1186L94.234 58.0175Z" fill="#65687F"/>
<path d="M26.5756 58.0175H94.2339V74.2937H26.5756V58.0175Z" fill="#D8EDF7"/>
<path d="M26.5756 67.592H94.2339V74.2937H26.5756V67.592Z" fill="#A8C3CF"/>
<path d="M86.8942 58.0175H94.2339V74.2937H86.8942V58.0175Z" fill="#FF5A73"/>
<path d="M86.8942 67.592H94.2339V74.2937H86.8942V67.592Z" fill="#D4243E"/>
<path d="M26.5756 58.0175H45.0866V74.2937H26.5756V58.0175Z" fill="#F2B375"/>
<path d="M26.5756 67.592H45.0866V74.2937H26.5756V67.592Z" fill="#E09544"/>
<path d="M61.2546 118.971C93.1304 118.971 118.971 93.1304 118.971 61.2547C118.971 29.3789 93.1304 3.53846 61.2546 3.53846C29.3789 3.53846 3.53845 29.3789 3.53845 61.2547C3.53845 93.1304 29.3789 118.971 61.2546 118.971Z" stroke="#E07D2B" stroke-width="6" stroke-miterlimit="10"/>
</svg>
