<svg width="200" height="130" viewBox="0 0 200 130" fill="none" xmlns="http://www.w3.org/2000/svg">
<g clip-path="url(#clip0)">
<path d="M48.0536 86.7873C47.81 85.7312 47.4832 84.696 47.0762 83.6913V67.0072C48.1422 63.6772 48.4756 60.1572 48.0536 56.6871C47.5405 51.8348 45.122 47.3824 41.3267 44.303V41.895H36.8996V44.303C33.1687 47.4126 30.8143 51.8609 30.3451 56.6871C29.9231 60.1572 30.2565 63.6772 31.3226 67.0072V83.6913C30.8567 84.6909 30.4722 85.7262 30.1727 86.7873C29.8454 91.3108 29.8454 95.8519 30.1727 100.375C30.188 102.137 30.685 103.862 31.61 105.363C32.1692 105.75 32.8275 105.969 33.5074 105.994C34.0719 105.973 34.6229 105.815 35.1134 105.536C35.6039 105.256 36.0194 104.863 36.3246 104.389C36.3479 104.788 36.5098 105.166 36.7826 105.459C37.0554 105.752 37.422 105.941 37.8195 105.994H40.2918C40.6892 105.941 41.0558 105.752 41.3286 105.459C41.6014 105.166 41.7634 104.788 41.7866 104.389C42.0918 104.863 42.5074 105.256 42.9979 105.536C43.4884 105.815 44.0393 105.973 44.6039 105.994C45.2837 105.969 45.9421 105.75 46.5012 105.363C47.4263 103.862 47.9232 102.137 47.9386 100.375C48.3041 95.8546 48.3425 91.3135 48.0536 86.7873V86.7873Z" fill="#65C7D0"/>
<path d="M37.0721 39.8879H41.1542C41.26 39.925 41.3509 39.9954 41.4131 40.0885C41.4753 40.1816 41.5055 40.2923 41.4992 40.4039V42.984H36.6696V40.4039C36.6666 40.2848 36.7051 40.1683 36.7784 40.0743C36.8518 39.9802 36.9555 39.9144 37.0721 39.8879V39.8879Z" fill="#08589D"/>
<path d="M47.0763 83.6908V67.0067C48.1424 63.6768 48.4758 60.1568 48.0538 56.6867C47.8583 53.7 46.844 50.8243 45.1215 48.3733H33.2776C31.5551 50.8243 30.5408 53.7 30.3453 56.6867C29.9233 60.1568 30.2567 63.6768 31.3227 67.0067V83.6908C30.8569 84.6905 30.4724 85.7258 30.1728 86.7868C29.8753 91.3113 29.8753 95.8504 30.1728 100.375C30.1882 102.137 30.6852 103.862 31.6102 105.363C32.1694 105.749 32.8277 105.968 33.5076 105.994C34.0721 105.972 34.623 105.815 35.1135 105.535C35.6041 105.256 36.0196 104.862 36.3248 104.388C36.348 104.787 36.51 105.166 36.7828 105.459C37.0556 105.752 37.4222 105.941 37.8197 105.994H40.2919C40.6894 105.941 41.056 105.752 41.3288 105.459C41.6016 105.166 41.7636 104.787 41.7868 104.388C42.092 104.862 42.5076 105.256 42.9981 105.535C43.4886 105.815 44.0395 105.972 44.6041 105.994C45.2839 105.968 45.9423 105.749 46.5014 105.363C47.4264 103.862 47.9234 102.137 47.9388 100.375C48.266 95.8514 48.266 91.3103 47.9388 86.7868C47.7326 85.734 47.4443 84.6988 47.0763 83.6908V83.6908Z" fill="#1A1A1A"/>
<path d="M31.3228 66.9492H47.0189L46.9039 83.6907H31.3802L31.3228 66.9492Z" fill="#08589D"/>
<g style="mix-blend-mode:screen">
<path d="M44.1439 101.292C44.1439 101.636 44.1439 102.324 44.6614 102.381C45.1789 102.439 45.2938 101.693 45.3513 101.292C45.4088 100.891 45.3513 98.5399 45.3513 97.6226C45.3513 94.9279 45.3513 89.4812 45.3513 86.7865C45.3513 85.9839 44.8339 84.4932 44.7189 83.6905C44.3164 79.5625 44.7189 71.1918 44.7189 67.0064C44.7189 66.0318 44.7189 64.1971 44.7189 63.2224C44.7189 60.9291 44.7189 56.285 44.7189 54.049C44.5638 52.6955 44.3141 51.3545 43.9715 50.0357C43.9715 49.6917 43.339 49.0037 43.109 49.061C42.8791 49.1183 42.7066 49.749 42.7641 50.0357C42.8216 50.3223 43.3965 53.0743 43.5115 54.1637C43.5115 56.3424 43.5115 60.8144 43.5115 63.0504C43.5115 64.0251 43.5115 66.0318 43.5115 67.0064C43.5115 71.1918 43.5115 79.5625 43.5115 83.6905C43.5115 84.4932 44.029 85.9839 44.1439 86.7865C44.1439 89.4812 44.1439 95.0426 44.1439 97.8519C44.2589 98.7119 44.0865 100.432 44.1439 101.292Z" fill="#494BDA"/>
</g>
<path d="M72.2012 86.7873C71.8754 85.7349 71.4915 84.7013 71.0513 83.6913V67.0072C72.077 63.6691 72.4096 60.1576 72.0287 56.6871C71.589 51.8781 69.2773 47.4324 65.5892 44.303V41.895H61.0471V44.303C57.3162 47.4126 54.9619 51.8609 54.4927 56.6871C54.0707 60.1572 54.4041 63.6772 55.4701 67.0072V83.6913C55.0291 84.6947 54.6639 85.7295 54.3777 86.7873C54.0505 91.3108 54.0505 95.8519 54.3777 100.375C54.3931 102.137 54.8901 103.862 55.8151 105.363C56.3742 105.75 57.0326 105.969 57.7124 105.994C58.277 105.973 58.8279 105.815 59.3184 105.536C59.8089 105.256 60.2245 104.863 60.5297 104.389C60.5297 104.389 60.5297 105.879 61.9671 105.994H64.3244C64.7159 105.94 65.0754 105.749 65.3386 105.455C65.6019 105.161 65.7519 104.783 65.7617 104.389C66.0669 104.863 66.4825 105.256 66.973 105.536C67.4635 105.815 68.0144 105.973 68.579 105.994C69.2606 105.979 69.9218 105.759 70.4763 105.363C71.4085 103.862 71.9244 102.141 71.9712 100.375C72.3453 95.8559 72.4221 91.3168 72.2012 86.7873V86.7873Z" fill="#65C7D0"/>
<path d="M61.2195 39.8879H65.3017C65.4389 39.8879 65.5705 39.9423 65.6675 40.0391C65.7646 40.1358 65.8191 40.2671 65.8191 40.4039V42.984H60.8171V40.4039C60.8141 40.2848 60.8525 40.1683 60.9259 40.0743C60.9993 39.9802 61.103 39.9144 61.2195 39.8879V39.8879Z" fill="#08589D"/>
<path d="M71.0515 83.6908V67.0067C72.0772 63.6687 72.4098 60.1572 72.0289 56.6867C71.8165 53.6944 70.7821 50.8182 69.0392 48.3733H57.5402C55.8177 50.8243 54.8034 53.7 54.608 56.6867C54.1859 60.1568 54.5193 63.6768 55.5854 67.0067V83.6908C55.1443 84.6942 54.7792 85.7291 54.493 86.7868C54.1658 91.3103 54.1658 95.8514 54.493 100.375C54.5083 102.137 55.0053 103.862 55.9303 105.363C56.4895 105.749 57.1478 105.968 57.8277 105.994C58.3922 105.972 58.9432 105.815 59.4337 105.535C59.9242 105.256 60.3397 104.862 60.6449 104.388C60.6449 104.388 60.6449 105.879 62.0823 105.994H64.3246C64.7161 105.939 65.0756 105.748 65.3389 105.454C65.6022 105.16 65.7521 104.782 65.762 104.388C66.0672 104.862 66.4827 105.256 66.9732 105.535C67.4637 105.815 68.0147 105.972 68.5792 105.994C69.2608 105.978 69.922 105.759 70.4765 105.363C71.4088 103.862 71.9246 102.14 71.9714 100.375C72.2689 95.8504 72.2689 91.3113 71.9714 86.7868C71.721 85.7391 71.4139 84.7055 71.0515 83.6908Z" fill="#1A1A1A"/>
<path d="M55.4126 66.9492H71.1662L71.0512 83.6907H55.5276L55.4126 66.9492Z" fill="#08589D"/>
<g style="mix-blend-mode:screen">
<path d="M68.2915 101.292C68.2915 101.636 68.2915 102.324 68.809 102.381C69.3264 102.439 69.4414 101.693 69.4989 101.292C69.5858 100.07 69.5858 98.8442 69.4989 97.6226C69.4989 94.9279 69.7864 89.4812 69.4989 86.7865C69.4989 85.9839 68.9814 84.4932 68.9239 83.6905C68.5215 79.5625 68.6365 71.1918 68.9239 67.0064C68.9239 66.0318 68.9239 64.1971 68.9239 63.2224C68.9239 60.9291 68.9239 56.285 68.9239 54.049C68.778 52.6897 68.5086 51.3464 68.119 50.0357C68.119 49.6917 67.5441 49.0037 67.3141 49.061C67.0841 49.1183 66.9116 49.749 66.9116 50.0357C66.9116 50.3223 67.6016 53.0743 67.7166 54.1637C67.7166 56.3424 67.7166 60.8144 67.7166 63.0504C67.7166 64.0251 67.7166 66.0318 67.7166 67.0064C67.7166 71.1918 67.7166 79.5625 67.7166 83.6905C67.7166 84.4932 68.234 85.9839 68.2915 86.7865C68.2915 89.4812 68.2915 95.0426 68.2915 97.8519C68.4065 98.7119 68.1765 100.432 68.2915 101.292Z" fill="#494BDA"/>
</g>
<path d="M96.8089 86.7873C96.5094 85.7262 96.1248 84.6909 95.659 83.6913V67.0072C96.7251 63.6772 97.0585 60.1572 96.6364 56.6871C96.1968 51.8781 93.8851 47.4324 90.197 44.303V41.895H85.6549V44.303C81.924 47.4126 79.5697 51.8609 79.1005 56.6871C78.6785 60.1572 79.0119 63.6772 80.0779 67.0072V83.6913C79.6121 84.6909 79.2276 85.7262 78.928 86.7873C78.6008 91.3108 78.6008 95.8519 78.928 100.375C78.9434 102.137 79.4403 103.862 80.3654 105.363C80.9245 105.75 81.5829 105.969 82.2627 105.994C82.8273 105.973 83.3782 105.815 83.8687 105.536C84.3592 105.256 84.7748 104.863 85.08 104.389C85.1032 104.788 85.2652 105.166 85.538 105.459C85.8108 105.752 86.1774 105.941 86.5748 105.994H89.0471C89.4446 105.941 89.8112 105.752 90.084 105.459C90.3568 105.166 90.5188 104.788 90.542 104.389C90.8472 104.863 91.2627 105.256 91.7532 105.536C92.2437 105.815 92.7947 105.973 93.3592 105.994C94.0391 105.969 94.6974 105.75 95.2566 105.363C96.1816 103.862 96.6786 102.137 96.6939 100.375C97.0298 95.8534 97.0682 91.3143 96.8089 86.7873V86.7873Z" fill="#65C7D0"/>
<path d="M85.8274 39.8879H89.9096C90.0468 39.8879 90.1784 39.9423 90.2755 40.0391C90.3725 40.1358 90.427 40.2671 90.427 40.4039V42.984H85.425V40.4039C85.422 40.2848 85.4604 40.1683 85.5338 40.0743C85.6072 39.9802 85.7109 39.9144 85.8274 39.8879V39.8879Z" fill="#08589D"/>
<path d="M95.659 83.6908V67.0067C96.7251 63.6768 97.0585 60.1568 96.6364 56.6867C96.441 53.7 95.4267 50.8243 93.7042 48.3733H82.0328C80.3103 50.8243 79.296 53.7 79.1005 56.6867C78.6785 60.1568 79.0119 63.6768 80.0779 67.0067V83.6908C79.6121 84.6905 79.2276 85.7258 78.928 86.7868C78.6008 91.3103 78.6008 95.8514 78.928 100.375C78.9434 102.137 79.4404 103.862 80.3654 105.363C80.9245 105.749 81.5829 105.968 82.2627 105.994C82.8273 105.972 83.3782 105.815 83.8687 105.535C84.3592 105.256 84.7748 104.862 85.08 104.388C85.1032 104.787 85.2652 105.166 85.538 105.459C85.8108 105.752 86.1774 105.941 86.5748 105.994H89.0471C89.4446 105.941 89.8112 105.752 90.084 105.459C90.3568 105.166 90.5188 104.787 90.542 104.388C90.8472 104.862 91.2627 105.256 91.7532 105.535C92.2437 105.815 92.7947 105.972 93.3592 105.994C94.0391 105.968 94.6974 105.749 95.2566 105.363C96.1816 103.862 96.6786 102.137 96.6939 100.375C96.9915 95.8504 96.9915 91.3113 96.6939 86.7868C96.4317 85.7292 96.0856 84.6939 95.659 83.6908V83.6908Z" fill="#1A1A1A"/>
<path d="M80.0781 66.9492H95.7742L95.6592 83.6907H80.1356L80.0781 66.9492Z" fill="#08589D"/>
<g style="mix-blend-mode:screen">
<path d="M93.0717 101.292C93.0717 101.636 93.0717 102.324 93.5891 102.381C94.1066 102.439 94.2216 101.693 94.2791 101.292C94.3366 100.891 94.2791 98.5399 94.2791 97.6226C94.2791 94.9279 94.2791 89.4812 94.2791 86.7865C94.2791 85.9839 93.7616 84.4932 93.6466 83.6905C93.2442 79.5625 93.6466 71.1918 93.6466 67.0064C93.6466 66.0318 93.6466 64.1971 93.6466 63.2224C93.6466 60.9291 93.6466 56.285 93.6466 54.049C93.4915 52.6955 93.2418 51.3545 92.8992 50.0357C92.8992 49.6917 92.2668 49.0037 92.0368 49.061C91.8068 49.1183 91.6343 49.749 91.6918 50.0357C91.7493 50.3223 92.3243 53.0743 92.4392 54.1637C92.4392 56.3424 92.4392 60.8144 92.4392 63.0504C92.4392 64.0251 92.4392 66.0318 92.4392 67.0064C92.4392 71.1918 92.4392 79.5625 92.4392 83.6905C92.4392 84.4932 92.9567 85.9839 93.0717 86.7865C93.0717 89.4812 93.0717 95.0426 93.0717 97.8519C93.0717 98.7119 93.0717 100.432 93.0717 101.292Z" fill="#494BDA"/>
</g>
<path d="M114.92 85.0673V76.8686C114.913 75.7678 114.637 74.6854 114.115 73.7153L110.665 67.4085V66.4912H107.618V67.4085L104.226 73.7153C103.678 74.675 103.4 75.7644 103.421 76.8686V85.2967L104.571 95.3874C104.655 95.6484 104.655 95.929 104.571 96.1901L104.168 97.3941C103.938 98.0776 103.821 98.7942 103.824 99.5154V102.841C103.807 103.393 103.968 103.935 104.283 104.389L105.318 105.994H106.928L107.848 104.905L108.998 105.994H110.09L111.24 104.905L112.218 105.994H113.828L114.863 104.389C115.153 103.924 115.312 103.389 115.322 102.841V99.5154C115.325 98.7942 115.208 98.0776 114.978 97.3941L114.518 96.1901C114.46 95.9256 114.46 95.6519 114.518 95.3874L115.38 85.2967L114.92 85.0673Z" fill="#65C7D0"/>
<path d="M107.906 64.8286H110.493C110.676 64.8286 110.851 64.9011 110.981 65.0301C111.11 65.1592 111.183 65.3341 111.183 65.5166V66.6633C111.183 66.7849 111.134 66.9016 111.048 66.9876C110.962 67.0736 110.845 67.122 110.723 67.122H107.791C107.669 67.122 107.552 67.0736 107.465 66.9876C107.379 66.9016 107.331 66.7849 107.331 66.6633V65.5166C107.328 65.3524 107.385 65.1927 107.49 65.0666C107.596 64.9404 107.743 64.856 107.906 64.8286V64.8286Z" fill="#08589D"/>
<path d="M112.16 70.1602H106.123L104.226 73.7148C103.678 74.6745 103.4 75.764 103.421 76.8682V85.3536L104.571 95.387C104.655 95.648 104.655 95.9286 104.571 96.1896L104.168 97.3936C103.938 98.0772 103.821 98.7938 103.824 99.515V102.84C103.807 103.392 103.968 103.935 104.283 104.388L105.318 105.994H106.928L107.848 104.904L108.998 105.994H110.09L111.24 104.904L112.218 105.994H113.828L114.863 104.388C115.153 103.923 115.312 103.388 115.322 102.84V99.515C115.325 98.7938 115.208 98.0772 114.978 97.3936L114.518 96.1896C114.46 95.9252 114.46 95.6514 114.518 95.387L115.38 85.3536V76.8682C115.373 75.7674 115.097 74.685 114.575 73.7148L112.16 70.1602Z" fill="#3A9B4C"/>
<path d="M114.863 76.3525H103.364V84.0353H114.863V76.3525Z" fill="#08589D"/>
<g style="mix-blend-mode:multiply">
<g style="mix-blend-mode:multiply">
<path d="M104.571 102.784V99.5164C104.562 98.771 104.699 98.0309 104.974 97.3377L105.376 96.191C105.461 95.9106 105.461 95.6115 105.376 95.331L104.571 85.2976V76.3536C104.616 75.4292 104.872 74.5271 105.319 73.7162L107.274 70.1042L108.768 67.3522C108.657 67.3381 108.554 67.2837 108.48 67.1991C108.406 67.1146 108.365 67.0059 108.366 66.8935V65.7468C108.366 65.5644 108.439 65.3894 108.568 65.2603C108.697 65.1313 108.873 65.0588 109.056 65.0588H107.964C107.781 65.0588 107.605 65.1313 107.476 65.2603C107.346 65.3894 107.274 65.5644 107.274 65.7468V66.8935C107.273 67.0059 107.313 67.1146 107.387 67.1991C107.462 67.2837 107.564 67.3381 107.676 67.3522V67.3522L106.181 70.1042L104.226 73.7162C103.779 74.5271 103.523 75.4292 103.479 76.3536C103.451 76.5244 103.451 76.6987 103.479 76.8696V85.2976L104.341 95.331C104.426 95.6115 104.426 95.9106 104.341 96.191L103.939 97.3377C103.664 98.0309 103.527 98.771 103.536 99.5164V102.784C103.538 103.334 103.698 103.871 103.996 104.332L105.089 105.995H106.181L105.089 104.332C104.77 103.877 104.59 103.339 104.571 102.784Z" fill="#65C7D0"/>
</g>
</g>
<g style="mix-blend-mode:screen">
<path d="M112.62 103.069C112.62 103.069 112.965 103.069 113.138 103.069C113.268 103.118 113.41 103.118 113.54 103.069C113.742 101.509 113.742 99.9287 113.54 98.3681C113.54 97.68 112.908 96.4187 112.85 95.788C112.85 94.068 113.54 90.628 113.655 88.908C114.058 84.7131 114.058 80.4895 113.655 76.2946C113.322 74.6728 112.801 73.0952 112.103 71.5932C112.103 71.5932 111.758 71.1919 111.585 71.1919C111.413 71.1919 111.183 71.1919 111.24 71.5932C111.24 72.8546 112.563 75.0906 112.793 76.2946C113.167 80.5099 113.167 84.75 112.793 88.9653C112.351 91.2352 112.082 93.5351 111.988 95.8454C112.164 96.6811 112.395 97.5047 112.678 98.3107C112.85 99.5147 112.505 101.865 112.62 103.069Z" fill="#494BDA"/>
</g>
<path d="M133.318 85.0673V76.8686C133.34 75.7644 133.061 74.675 132.513 73.7153L129.121 67.4085V66.4912H126.074V67.4085L122.624 73.7153C122.103 74.6854 121.826 75.7678 121.819 76.8686V85.2967L122.682 95.3874C122.739 95.6519 122.739 95.9256 122.682 96.1901L122.279 97.3941C122.003 98.0669 121.866 98.7885 121.877 99.5154V102.841C121.887 103.389 122.046 103.924 122.337 104.389L123.429 105.994H124.982L125.959 104.905L127.109 105.994H128.201L129.351 104.905L130.271 105.994H131.881L132.916 104.389C133.231 103.935 133.393 103.393 133.376 102.841V99.5154C133.378 98.7942 133.261 98.0776 133.031 97.3941L132.628 96.1901C132.573 95.9254 132.573 95.652 132.628 95.3874L133.318 85.2967V85.0673Z" fill="#65C7D0"/>
<path d="M126.305 64.8286H128.777C128.96 64.8286 129.135 64.9011 129.265 65.0301C129.394 65.1592 129.467 65.3341 129.467 65.5166V66.6633C129.467 66.7849 129.418 66.9016 129.332 66.9876C129.246 67.0736 129.129 67.122 129.007 67.122H126.075C125.953 67.122 125.836 67.0736 125.749 66.9876C125.663 66.9016 125.615 66.7849 125.615 66.6633V65.5166C125.615 65.3341 125.687 65.1592 125.817 65.0301C125.946 64.9011 126.122 64.8286 126.305 64.8286V64.8286Z" fill="#08589D"/>
<path d="M130.558 70.1602H124.521L122.567 73.7148C122.045 74.685 121.769 75.7674 121.762 76.8682V85.3536L122.624 95.387C122.682 95.6514 122.682 95.9252 122.624 96.1896L122.222 97.3936C121.945 98.0665 121.809 98.788 121.819 99.515V102.84C121.83 103.388 121.989 103.923 122.279 104.388L123.372 105.994H124.924L125.901 104.904L127.051 105.994H128.144L129.294 104.904L130.213 105.994H131.823L132.858 104.388C133.174 103.935 133.335 103.392 133.318 102.84V99.515C133.32 98.7938 133.204 98.0772 132.973 97.3936L132.571 96.1896C132.515 95.925 132.515 95.6516 132.571 95.387L133.318 85.3536V76.8682C133.339 75.764 133.061 74.6745 132.513 73.7148L130.558 70.1602Z" fill="#3A9B4C"/>
<path d="M133.261 76.3525H121.762V84.0353H133.261V76.3525Z" fill="#08589D"/>
<g style="mix-blend-mode:multiply">
<g style="mix-blend-mode:multiply">
<path d="M122.855 102.783V99.5151C122.845 98.7697 122.982 98.0296 123.257 97.3364L123.659 96.1897C123.744 95.9093 123.744 95.6102 123.659 95.3297L122.797 85.2963V76.3523C122.842 75.4279 123.097 74.5258 123.544 73.7149L125.499 70.1029L126.994 67.3509C126.882 67.3368 126.78 67.2824 126.705 67.1978C126.631 67.1133 126.591 67.0045 126.592 66.8922V65.7455C126.514 65.6113 126.485 65.4551 126.508 65.3021C126.53 65.149 126.604 65.0081 126.717 64.9021C126.83 64.7961 126.976 64.7311 127.13 64.7177C127.285 64.7043 127.439 64.7432 127.569 64.8282H126.477C126.294 64.8282 126.118 64.9007 125.989 65.0297C125.859 65.1587 125.787 65.3337 125.787 65.5162V66.6629C125.786 66.7752 125.826 66.884 125.901 66.9685C125.975 67.053 126.077 67.1075 126.189 67.1215V67.1215L124.694 69.8736L122.74 73.4856C122.292 74.2965 122.037 75.1985 121.992 76.1229C121.964 76.2938 121.964 76.4681 121.992 76.6389V85.2963L122.855 95.3297C122.939 95.6102 122.939 95.9093 122.855 96.1897L122.452 97.3364C122.177 98.0296 122.04 98.7697 122.05 99.5151V102.783C122.051 103.332 122.211 103.87 122.51 104.331L123.602 105.994H124.694L123.602 104.331C123.2 103.903 122.939 103.363 122.855 102.783Z" fill="#65C7D0"/>
</g>
</g>
<g style="mix-blend-mode:screen">
<path d="M130.961 103.069C131.128 103.131 131.312 103.131 131.479 103.069C131.479 103.069 131.881 103.069 131.881 103.069C132.053 101.507 132.053 99.9305 131.881 98.3681C131.605 97.521 131.375 96.6598 131.191 95.788C131.318 93.4804 131.586 91.1827 131.996 88.908C132.37 84.7118 132.37 80.4908 131.996 76.2946C131.636 74.68 131.116 73.1051 130.444 71.5932C130.444 71.5932 130.041 71.1919 129.869 71.1919C129.696 71.1919 129.524 71.1919 129.524 71.5932C129.524 72.8546 130.904 75.0906 131.076 76.2946C131.479 80.5086 131.479 84.7513 131.076 88.9653C130.691 91.2436 130.423 93.5399 130.271 95.8454C130.271 96.476 130.904 97.68 130.961 98.3107C131.019 98.9414 130.846 101.865 130.961 103.069Z" fill="#494BDA"/>
</g>
<path d="M151.659 85.0673V76.8686C151.652 75.7678 151.376 74.6854 150.854 73.7153L147.404 67.4085V66.4912H144.357V67.4085L140.907 73.7153C140.386 74.6854 140.11 75.7678 140.103 76.8686V85.0673L140.965 95.1581C141.021 95.4227 141.021 95.6961 140.965 95.9607L140.562 97.1647C140.313 97.8453 140.177 98.5618 140.16 99.2861V102.611C140.164 103.169 140.345 103.711 140.677 104.159L141.712 105.765H143.265L144.242 104.675L145.392 105.765H146.484L147.634 104.675L148.612 105.765H150.164L151.257 104.159C151.547 103.694 151.706 103.159 151.717 102.611V99.5154C151.727 98.7885 151.59 98.0669 151.314 97.3941L150.912 96.1901C150.828 95.929 150.828 95.6484 150.912 95.3874L151.774 85.2967L151.659 85.0673Z" fill="#65C7D0"/>
<path d="M144.646 64.8286H147.118C147.301 64.8286 147.476 64.9011 147.606 65.0301C147.735 65.1592 147.808 65.3341 147.808 65.5166V66.6633C147.808 66.7849 147.759 66.9016 147.673 66.9876C147.587 67.0736 147.47 67.122 147.348 67.122H144.416C144.294 67.122 144.177 67.0736 144.09 66.9876C144.004 66.9016 143.956 66.7849 143.956 66.6633V65.5166C143.956 65.3341 144.028 65.1592 144.158 65.0301C144.287 64.9011 144.463 64.8286 144.646 64.8286Z" fill="#08589D"/>
<path d="M148.899 70.1602H142.862L140.907 73.7148C140.386 74.685 140.11 75.7674 140.103 76.8682V85.1242L140.965 95.1576C141.021 95.4223 141.021 95.6956 140.965 95.9603L140.562 97.1643C140.313 97.8449 140.177 98.5614 140.16 99.2857V102.611C140.164 103.169 140.345 103.711 140.677 104.159L141.712 105.764H143.265L144.242 104.675L145.392 105.764H146.484L147.634 104.675L148.612 105.764H150.164L151.257 104.159C151.547 103.694 151.706 103.159 151.717 102.611V99.515C151.727 98.788 151.59 98.0665 151.314 97.3936L150.912 96.1896C150.828 95.9286 150.828 95.648 150.912 95.387L151.774 85.3536V76.8682C151.767 75.7674 151.491 74.685 150.969 73.7148L148.899 70.1602Z" fill="#3A9B4C"/>
<path d="M151.602 76.3525H140.103V84.0353H151.602V76.3525Z" fill="#08589D"/>
<g style="mix-blend-mode:multiply">
<g style="mix-blend-mode:multiply">
<path d="M141.195 102.784V99.5155C141.186 98.7701 141.322 98.03 141.597 97.3368L142 96.1901C142.085 95.9097 142.085 95.6106 142 95.3301L141.137 85.2967V76.3527C141.182 75.4283 141.438 74.5262 141.885 73.7153L143.84 70.1033L145.335 67.3513C145.244 67.3779 145.148 67.3764 145.059 67.347C144.97 67.3175 144.892 67.2616 144.836 67.1867C144.78 67.1118 144.748 67.0215 144.744 66.928C144.741 66.8344 144.766 66.742 144.817 66.6633V65.5166C144.817 65.3341 144.89 65.1592 145.019 65.0301C145.149 64.9011 145.324 64.8286 145.507 64.8286H144.817C144.634 64.8286 144.459 64.9011 144.329 65.0301C144.2 65.1592 144.127 65.3341 144.127 65.5166V66.6633C144.126 66.7756 144.167 66.8844 144.241 66.9689C144.315 67.0535 144.418 67.1079 144.53 67.122L143.035 69.874L141.08 73.486C140.633 74.2969 140.377 75.1989 140.332 76.1233C140.305 76.2942 140.305 76.4685 140.332 76.6394V85.2967L141.195 95.3301C141.28 95.6106 141.28 95.9097 141.195 96.1901L140.792 97.3368C140.517 98.03 140.381 98.7701 140.39 99.5155V102.784C140.391 103.333 140.551 103.87 140.85 104.332L141.942 105.994H143.035L141.942 104.332C141.54 103.904 141.279 103.364 141.195 102.784Z" fill="#65C7D0"/>
</g>
</g>
<g style="mix-blend-mode:screen">
<path d="M149.36 103.069C149.36 103.069 149.705 103.069 149.878 103.069C150.05 103.069 150.223 103.069 150.223 103.069C150.452 101.511 150.452 99.9268 150.223 98.3681C150.223 97.6801 149.59 96.4187 149.533 95.788C149.533 94.068 150.223 90.628 150.338 88.908C150.741 84.7131 150.741 80.4895 150.338 76.2946C150.005 74.6728 149.484 73.0952 148.785 71.5932C148.646 71.3968 148.443 71.2548 148.21 71.1919C148.21 71.1919 147.865 71.1919 148.21 71.5932C148.21 72.8546 149.533 75.0906 149.763 76.2946C150.137 80.5099 150.137 84.75 149.763 88.9653C149.331 91.2383 149.043 93.5362 148.9 95.8454C148.9 96.476 149.533 97.6801 149.648 98.3107C149.763 98.9414 149.245 101.865 149.36 103.069Z" fill="#494BDA"/>
</g>
<path d="M170.001 85.0673V76.8686C169.994 75.7678 169.718 74.6854 169.196 73.7153L165.804 67.4085V66.4912H162.699V67.4085L159.307 73.7153C158.785 74.6854 158.509 75.7678 158.502 76.8686V85.2967L159.364 95.3874C159.422 95.6519 159.422 95.9256 159.364 96.1901L158.904 97.3941C158.674 98.0776 158.557 98.7942 158.559 99.5154V102.841C158.57 103.389 158.729 103.924 159.019 104.389L160.054 105.994H161.664L162.642 104.905L163.734 105.994H164.884L165.976 104.905L166.954 105.994H168.564L169.598 104.389C169.889 103.924 170.048 103.389 170.058 102.841V99.5154C170.061 98.7942 169.944 98.0776 169.713 97.3941L169.254 96.1901C169.196 95.9256 169.196 95.6519 169.254 95.3874L170.116 85.2967L170.001 85.0673Z" fill="#65C7D0"/>
<path d="M162.986 64.8283H165.458C165.641 64.8283 165.817 64.9008 165.946 65.0298C166.075 65.1589 166.148 65.3339 166.148 65.5163V66.663C166.148 66.7846 166.1 66.9013 166.013 66.9873C165.927 67.0733 165.81 67.1217 165.688 67.1217H162.813C162.744 67.1395 162.672 67.1411 162.602 67.1261C162.532 67.1112 162.467 67.0803 162.411 67.0358C162.355 66.9913 162.31 66.9344 162.281 66.8697C162.251 66.805 162.236 66.7342 162.239 66.663V65.5163C162.238 65.4209 162.258 65.3265 162.296 65.2391C162.334 65.1516 162.39 65.0731 162.46 65.0084C162.531 64.9437 162.614 64.8943 162.704 64.8633C162.795 64.8323 162.891 64.8204 162.986 64.8283V64.8283Z" fill="#08589D"/>
<path d="M167.24 70.1602H161.491L159.536 73.7148C159.014 74.685 158.738 75.7674 158.731 76.8682V85.3536L159.593 95.387C159.651 95.6514 159.651 95.9252 159.593 96.1896L159.133 97.3936C158.903 98.0772 158.786 98.7938 158.788 99.515V102.84C158.799 103.388 158.958 103.923 159.248 104.388L160.283 105.994H161.893L162.871 104.904L163.963 105.994H165.113L166.205 104.904L167.183 105.994H168.793L169.827 104.388C170.118 103.923 170.277 103.388 170.287 102.84V99.515C170.29 98.7938 170.173 98.0772 169.942 97.3936L169.482 96.1896C169.425 95.9252 169.425 95.6514 169.482 95.387L170.345 85.3536V76.8682C170.338 75.7674 170.062 74.685 169.54 73.7148L167.24 70.1602Z" fill="#3A9B4C"/>
<path d="M170.001 76.3525H158.502V84.0353H170.001V76.3525Z" fill="#08589D"/>
<g style="mix-blend-mode:multiply">
<g style="mix-blend-mode:multiply">
<path d="M159.536 102.784V99.5164C159.527 98.771 159.664 98.0309 159.939 97.3377L160.341 96.191C160.426 95.9106 160.426 95.6115 160.341 95.331L159.479 85.2976V76.3536C159.523 75.4292 159.779 74.5271 160.226 73.7162L162.066 70.1042L163.561 67.3522C163.449 67.3381 163.347 67.2837 163.272 67.1991C163.198 67.1146 163.158 67.0059 163.159 66.8935V65.7468C163.159 65.6565 163.176 65.567 163.211 65.4836C163.246 65.4001 163.297 65.3242 163.361 65.2603C163.425 65.1965 163.501 65.1458 163.585 65.1112C163.668 65.0766 163.758 65.0588 163.849 65.0588H162.814C162.723 65.0588 162.633 65.0766 162.55 65.1112C162.466 65.1458 162.39 65.1965 162.326 65.2603C162.262 65.3242 162.211 65.4001 162.176 65.4836C162.142 65.567 162.124 65.6565 162.124 65.7468V66.8935C162.123 67.0059 162.163 67.1146 162.237 67.1991C162.312 67.2837 162.414 67.3381 162.526 67.3522V67.3522L161.031 70.1042L159.076 73.7162C158.629 74.5271 158.374 75.4292 158.329 76.3536C158.301 76.5244 158.301 76.6987 158.329 76.8696V85.2976L159.191 95.331C159.276 95.6115 159.276 95.9106 159.191 96.191L158.789 97.3377C158.514 98.0309 158.377 98.771 158.387 99.5164V102.784C158.388 103.334 158.548 103.871 158.846 104.332L159.939 105.995H160.974L159.881 104.332C159.623 103.859 159.503 103.322 159.536 102.784V102.784Z" fill="#65C7D0"/>
</g>
</g>
<g style="mix-blend-mode:screen">
<path d="M167.815 103.069C167.815 103.069 168.16 103.069 168.333 103.069C168.463 103.118 168.606 103.118 168.735 103.069C168.937 101.509 168.937 99.9287 168.735 98.3681C168.735 97.68 168.103 96.4187 168.045 95.788C168.191 93.4792 168.479 91.1815 168.908 88.908C169.282 84.7118 169.282 80.4908 168.908 76.2946C168.527 74.6788 167.987 73.1041 167.298 71.5932C167.298 71.5932 166.953 71.1919 166.781 71.1919C166.608 71.1919 166.436 71.1919 166.436 71.5932C166.436 72.8546 167.815 75.0906 167.988 76.2946C168.362 80.5099 168.362 84.75 167.988 88.9653C167.603 91.2436 167.334 93.5399 167.183 95.8454C167.183 96.476 167.815 97.68 167.873 98.3107C167.93 98.9414 167.815 101.865 167.815 103.069Z" fill="#494BDA"/>
</g>
</g>
<g clip-path="url(#clip1)">
<path d="M24.027 113.464H0V126.625H24.027V113.464Z" fill="#9E6F44"/>
<path d="M112.014 113.464H87.9863V127.518H112.014V113.464Z" fill="#9E6F44"/>
<path d="M200.001 113.464H175.973V127.518H200.001V113.464Z" fill="#9E6F44"/>
<path d="M112.014 109.464H87.9863V113.816H112.014V109.464Z" fill="#A8805D"/>
<path d="M200.001 109.464H175.973V113.816H200.001V109.464Z" fill="#A8805D"/>
<path d="M24.027 109.869H0V113.816H24.027V109.869Z" fill="#A8805D"/>
<path d="M200 105.703H0V110.09H200V105.703Z" fill="#9E6F44"/>
<path d="M200 126.625H0V130H200V126.625Z" fill="#A8805D"/>
</g>
<defs>
<clipPath id="clip0">
<rect width="140" height="66.1057" fill="white" transform="translate(30 39.8879)"/>
</clipPath>
<clipPath id="clip1">
<rect width="200" height="24.2972" fill="white" transform="translate(0 105.703)"/>
</clipPath>
</defs>
</svg>
