<svg width="338" height="200" viewBox="0 0 338 200" fill="none" xmlns="http://www.w3.org/2000/svg">
<g clip-path="url(#clip0)">
<path d="M252.456 183.228H83.9338L83.4121 182.428V16.1852H253.287V182.332L252.456 183.228Z" fill="#1E6B53"/>
<path d="M79.208 179.92L120.662 130.44L215.556 130.253L258.631 181.828L79.208 179.92Z" fill="#16503F"/>
<path d="M264.573 200H71.3632L70.7622 198.747V180.6H264.636L265.923 182.19V197.46L264.573 200Z" fill="#16503F"/>
<path d="M259.159 180.798H77.5269V197.315H259.159V180.798Z" fill="#1E6B53"/>
<path d="M121.464 39.9456L83.4121 18.0024L252.748 18.1725L215.556 39.9456H121.464Z" fill="#16503F"/>
<path d="M259.459 2.77551H77.8271V19.0769H259.459V2.77551Z" fill="#1E6B53"/>
<path d="M259.459 16.7351H77.8271V19.2725H259.459V16.7351Z" fill="#16503F"/>
<path d="M259.459 2.55713H77.8271V5.06329H259.459V2.55713Z" fill="#16503F"/>
<path d="M251.042 198.866V3.39636H266.226V198.945L264.985 200H252.95L251.042 198.866Z" fill="#16503F"/>
<path d="M85.5785 3.39917H70.394V197.981H85.5785V3.39917Z" fill="#16503F"/>
<path d="M83.2765 199.997H71.9733C69.5437 199.997 67.7207 198.089 67.7207 195.594C67.7434 191.603 67.7604 186.114 67.6895 184.577C67.579 182.077 68.7895 180.608 71.5905 180.608H82.2304C84.7819 180.608 86.7664 181.669 86.7664 184.01V194.914C86.7863 197.746 85.6494 199.997 83.2765 199.997Z" fill="#16503F"/>
<path d="M82.5023 198.772H72.6393C70.5158 198.772 68.9254 197.103 68.9367 194.925C68.9566 191.435 68.9707 186.644 68.9084 185.3C68.812 183.117 69.8694 181.827 72.3104 181.827H81.6036C83.8376 181.827 85.5727 182.754 85.5727 184.804V194.327C85.5783 196.802 84.5861 198.772 82.5023 198.772Z" fill="#1E6B53"/>
<path d="M84.3111 190.299C84.3111 191.697 83.8964 193.064 83.1195 194.227C82.3425 195.39 81.2383 196.296 79.9463 196.831C78.6543 197.366 77.2327 197.506 75.8611 197.233C74.4895 196.96 73.2297 196.287 72.2409 195.298C71.252 194.309 70.5786 193.05 70.3058 191.678C70.033 190.306 70.173 188.885 70.7081 187.593C71.2433 186.301 72.1495 185.197 73.3123 184.42C74.475 183.643 75.8421 183.228 77.2405 183.228C78.169 183.228 79.0884 183.411 79.9463 183.766C80.8041 184.122 81.5836 184.642 82.2401 185.299C82.8967 185.956 83.4175 186.735 83.7728 187.593C84.1282 188.451 84.3111 189.37 84.3111 190.299Z" fill="#16503F"/>
<path d="M83.6304 190.299C83.6304 191.562 83.2556 192.798 82.5535 193.849C81.8513 194.9 80.8533 195.719 79.6857 196.202C78.518 196.686 77.2332 196.813 75.9936 196.566C74.754 196.319 73.6154 195.711 72.7217 194.817C71.8281 193.923 71.2195 192.785 70.9729 191.545C70.7263 190.306 70.8529 189.021 71.3365 187.853C71.8202 186.686 72.6392 185.688 73.6901 184.985C74.7409 184.283 75.9764 183.908 77.2403 183.908C78.935 183.908 80.5604 184.582 81.7588 185.78C82.9572 186.978 83.6304 188.604 83.6304 190.299Z" fill="#16503F"/>
<path d="M83.276 19.4965H71.9756C69.5459 19.4965 67.723 17.5857 67.7372 15.0909C67.7599 11.0991 67.774 5.61051 67.706 4.07109C67.5926 1.57343 68.8031 0.102051 71.6042 0.102051H82.2468C84.7984 0.102051 86.7829 1.16519 86.7829 3.50409V14.4076C86.7886 17.2426 85.6546 19.4965 83.276 19.4965Z" fill="#16503F"/>
<path d="M82.5052 18.2661H72.6421C70.5215 18.2661 68.9283 16.5991 68.9396 14.4218C68.9594 10.9347 68.9736 6.14069 68.9141 4.79689C68.8149 2.61391 69.8723 1.32397 72.3161 1.32397H81.6093C83.8462 1.32397 85.5784 2.25103 85.5784 4.30076V13.8265C85.5812 16.2986 84.5889 18.2661 82.5052 18.2661Z" fill="#1E6B53"/>
<path d="M84.314 9.79507C84.3162 11.194 83.9035 12.5621 83.1279 13.7263C82.3523 14.8906 81.2489 15.7986 79.9571 16.3355C78.6653 16.8724 77.2433 17.014 75.871 16.7425C74.4987 16.471 73.2378 15.7984 72.2478 14.8101C71.2578 13.8217 70.5833 12.5618 70.3095 11.19C70.0358 9.81812 70.1752 8.39588 70.71 7.10324C71.2448 5.81061 72.151 4.70566 73.314 3.92824C74.477 3.15081 75.8445 2.73584 77.2434 2.73584C79.1169 2.73509 80.9141 3.47822 82.2399 4.80192C83.5657 6.12562 84.3117 7.92157 84.314 9.79507Z" fill="#16503F"/>
<path d="M83.6333 9.79506C83.6333 11.0589 83.2586 12.2944 82.5564 13.3452C81.8543 14.3961 80.8562 15.2151 79.6886 15.6988C78.5209 16.1825 77.2361 16.309 75.9965 16.0624C74.757 15.8159 73.6183 15.2073 72.7247 14.3136C71.831 13.4199 71.2224 12.2813 70.9758 11.0417C70.7292 9.80215 70.8558 8.51731 71.3395 7.34966C71.8231 6.18201 72.6422 5.184 73.693 4.48184C74.7439 3.77968 75.9793 3.40491 77.2432 3.40491C78.938 3.40491 80.5633 4.07815 81.7617 5.27654C82.9601 6.47493 83.6333 8.10029 83.6333 9.79506Z" fill="#16503F"/>
<path d="M264.659 199.997H253.378C250.948 199.997 249.125 198.089 249.125 195.594C249.148 191.603 249.165 186.114 249.097 184.577C248.984 182.077 250.194 180.608 252.995 180.608H263.635C266.187 180.608 268.171 181.669 268.171 184.01V194.914C268.18 197.746 267.043 199.997 264.659 199.997Z" fill="#16503F"/>
<path d="M263.896 198.772H254.033C251.912 198.772 250.319 197.103 250.33 194.925C250.35 191.435 250.364 186.644 250.302 185.3C250.206 183.117 251.26 181.827 253.704 181.827H263.017C265.254 181.827 266.986 182.754 266.986 184.804V194.327C266.986 196.802 265.98 198.772 263.896 198.772Z" fill="#1E6B53"/>
<path d="M265.705 190.299C265.705 191.697 265.29 193.064 264.513 194.227C263.736 195.39 262.632 196.296 261.34 196.831C260.048 197.366 258.626 197.506 257.255 197.233C255.883 196.96 254.623 196.287 253.634 195.298C252.646 194.309 251.972 193.05 251.699 191.678C251.427 190.306 251.567 188.885 252.102 187.593C252.637 186.301 253.543 185.197 254.706 184.42C255.869 183.643 257.236 183.228 258.634 183.228C259.563 183.228 260.482 183.411 261.34 183.766C262.198 184.122 262.977 184.642 263.634 185.299C264.29 185.956 264.811 186.735 265.166 187.593C265.522 188.451 265.705 189.37 265.705 190.299Z" fill="#16503F"/>
<path d="M265.024 190.299C265.024 191.562 264.649 192.798 263.947 193.849C263.245 194.9 262.247 195.719 261.079 196.202C259.912 196.686 258.627 196.813 257.387 196.566C256.148 196.319 255.009 195.711 254.115 194.817C253.222 193.923 252.613 192.785 252.366 191.545C252.12 190.306 252.246 189.021 252.73 187.853C253.214 186.686 254.033 185.688 255.084 184.985C256.134 184.283 257.37 183.908 258.634 183.908C260.329 183.908 261.954 184.582 263.152 185.78C264.351 186.978 265.024 188.604 265.024 190.299Z" fill="#16503F"/>
<path d="M264.346 19.4H253.052C250.625 19.4 248.799 17.4892 248.813 14.9944C248.836 11.0027 248.853 5.51405 248.782 3.97746C248.669 1.47697 249.879 0.00842285 252.683 0.00842285H263.323C265.875 0.00842285 267.859 1.07156 267.859 3.41046V14.314C267.865 17.1462 266.731 19.4 264.346 19.4Z" fill="#16503F"/>
<path d="M263.584 18.1725H253.721C251.598 18.1725 250.004 16.5027 250.016 14.3254C250.036 10.8383 250.053 6.04425 249.99 4.70045C249.891 2.51748 250.948 1.22754 253.392 1.22754H262.686C264.92 1.22754 266.655 2.15459 266.655 4.20432V13.73C266.657 16.2022 265.665 18.1725 263.584 18.1725Z" fill="#1E6B53"/>
<path d="M265.393 9.69864C265.393 11.0971 264.979 12.4644 264.203 13.6277C263.427 14.791 262.323 15.698 261.032 16.2343C259.74 16.7705 258.318 16.9118 256.946 16.6403C255.575 16.3689 254.314 15.6968 253.324 14.7091C252.334 13.7214 251.659 12.4624 251.384 11.0911C251.109 9.71989 251.247 8.29797 251.78 7.00506C252.313 5.71216 253.218 4.6063 254.379 3.82724C255.541 3.04817 256.907 2.63087 258.305 2.62807C259.235 2.62583 260.156 2.80707 261.016 3.1614C261.876 3.51572 262.658 4.03618 263.316 4.69297C263.974 5.34975 264.497 6.12996 264.853 6.98891C265.209 7.84786 265.393 8.76868 265.393 9.69864Z" fill="#16503F"/>
<path d="M264.718 9.69857C264.717 10.9618 264.341 12.1964 263.639 13.2463C262.936 14.2962 261.938 15.1144 260.771 15.5974C259.604 16.0805 258.32 16.2067 257.081 15.9602C255.842 15.7137 254.704 15.1055 253.81 14.2124C252.917 13.3194 252.308 12.1815 252.061 10.9427C251.814 9.70382 251.939 8.41953 252.422 7.25207C252.905 6.0846 253.722 5.08634 254.772 4.38341C255.821 3.68048 257.056 3.30442 258.319 3.30274C259.159 3.30162 259.992 3.46627 260.768 3.78726C261.545 4.10825 262.251 4.57927 262.845 5.17337C263.439 5.76746 263.911 6.47295 264.232 7.24945C264.553 8.02595 264.718 8.85821 264.718 9.69857Z" fill="#16503F"/>
<path d="M216.605 37.9016H120.092V131.353H216.605V37.9016Z" fill="#16503F"/>
<path d="M94.5651 163.831L92.2432 164.301V22.9155L94.5651 23.233V163.831Z" fill="#1E6B53"/>
<path d="M96.5556 161.707L94.5654 163.831V23.2332L96.5556 24.4097V161.707Z" fill="#16503F"/>
<path d="M100.128 156.953L97.9873 157.39V26.156L100.128 26.4537V156.953Z" fill="#1E6B53"/>
<path d="M101.959 154.982L100.127 156.953V26.4536L101.959 27.5451V154.982Z" fill="#16503F"/>
<path d="M104.803 151.141L102.926 151.549V28.8578L104.803 29.1328V151.141Z" fill="#1E6B53"/>
<path d="M106.413 149.298L104.803 151.141V29.1328L106.413 30.1534V149.298Z" fill="#16503F"/>
<path d="M108.842 146.015L107.147 146.401V31.1711L108.842 31.432V146.015Z" fill="#1E6B53"/>
<path d="M110.294 144.286L108.842 146.015V31.432L110.294 32.3902V144.286Z" fill="#16503F"/>
<path d="M112.165 141.868L110.748 142.231V33.1897L112.165 33.4363V141.868Z" fill="#1E6B53"/>
<path d="M113.378 140.229L112.165 141.868V33.4364L113.378 34.3408V140.229Z" fill="#16503F"/>
<path d="M114.912 138.443L113.651 138.792V34.7319L114.912 34.9672V138.443Z" fill="#1E6B53"/>
<path d="M115.992 136.881L114.912 138.443V34.9673L115.992 35.832V136.881Z" fill="#16503F"/>
<path d="M120.063 131.5L119.363 131.812V37.8873H120.063V131.5Z" fill="#1E6B53"/>
<path d="M120.662 130.085L120.063 131.5V37.8873L120.662 38.3409V130.085Z" fill="#16503F"/>
<path d="M118.683 133.411L117.838 133.734L117.895 37.0935L118.683 37.1162V133.411Z" fill="#1E6B53"/>
<path d="M119.403 131.956L118.683 133.411V37.1162L119.403 37.9185V131.956Z" fill="#16503F"/>
<path d="M117.016 135.486L115.992 135.818V36.0389L117.016 36.2657V135.486Z" fill="#1E6B53"/>
<path d="M117.894 133.986L117.016 135.486V36.2656L117.894 37.0935V133.986Z" fill="#16503F"/>
<path d="M88.8923 170.66L86.4854 171.165V19.78L88.8923 20.1202V170.66Z" fill="#1E6B53"/>
<path d="M90.9565 168.387L88.8926 170.66V20.1202L90.9565 21.3818V168.387Z" fill="#16503F"/>
<path d="M241.649 163.629L243.971 164.1V22.9552L241.649 23.2727V163.629Z" fill="#1E6B53"/>
<path d="M239.662 161.512L241.649 163.629V23.2728L239.662 24.4494V161.512Z" fill="#16503F"/>
<path d="M236.087 156.766L238.227 157.2V26.1929L236.087 26.4877V156.766Z" fill="#1E6B53"/>
<path d="M234.255 154.798L236.087 156.766V26.4877L234.255 27.5792V154.798Z" fill="#16503F"/>
<path d="M231.412 150.962L233.289 151.368V28.8861L231.412 29.1639V150.962Z" fill="#1E6B53"/>
<path d="M229.805 149.123L231.412 150.962V29.1639L229.805 30.1817V149.123Z" fill="#16503F"/>
<path d="M227.373 145.845L229.071 146.231V31.1995L227.373 31.4574V145.845Z" fill="#1E6B53"/>
<path d="M225.92 144.119L227.372 145.845V31.4575L225.92 32.4158V144.119Z" fill="#16503F"/>
<path d="M224.053 141.703L225.47 142.066V33.2124L224.053 33.459V141.703Z" fill="#1E6B53"/>
<path d="M222.839 140.07L224.052 141.703V33.459L222.839 34.3634V140.07Z" fill="#16503F"/>
<path d="M221.302 138.287L222.564 138.633V34.7546L221.302 34.9871V138.287Z" fill="#1E6B53"/>
<path d="M220.222 136.728L221.302 138.287V34.9871L220.222 35.8517V136.728Z" fill="#16503F"/>
<path d="M216.154 131.353L216.851 131.667V37.9016H216.154V131.353Z" fill="#1E6B53"/>
<path d="M215.556 129.944L216.154 131.353V37.9016L215.556 38.3552V129.944Z" fill="#16503F"/>
<path d="M217.535 133.263L218.377 133.584L218.32 37.1105L217.535 37.1332V133.263Z" fill="#1E6B53"/>
<path d="M216.812 131.809L217.535 133.263V37.1332L216.812 37.9355V131.809Z" fill="#16503F"/>
<path d="M219.199 135.333L220.222 135.668V36.0588L219.199 36.2828V135.333Z" fill="#1E6B53"/>
<path d="M218.32 133.836L219.199 135.333V36.2827L218.32 37.1105V133.836Z" fill="#16503F"/>
<path d="M247.322 170.448L249.729 170.952V19.8282L247.322 20.1684V170.448Z" fill="#1E6B53"/>
<path d="M245.258 168.18L247.322 170.448V20.1683L245.258 21.4243V168.18Z" fill="#16503F"/>
<path d="M214.008 42.6133H122.689V48.6717H214.008V42.6133Z" fill="#16503F"/>
<path d="M214.008 42.6133H122.689V43.6594H214.008V42.6133Z" fill="#1E6B53"/>
<path d="M214.008 47.6257H122.689V48.6719H214.008V47.6257Z" fill="#1E6B53"/>
<path d="M122.689 48.6717V42.6133L123.749 43.6594V47.6256L122.689 48.6717Z" fill="#1E6B53"/>
<path d="M214.008 48.6717V42.6133L212.95 43.6594V47.6256L214.008 48.6717Z" fill="#1E6B53"/>
<path d="M214.008 53.9137H122.689V59.9722H214.008V53.9137Z" fill="#16503F"/>
<path d="M214.008 53.9137H122.689V54.9627H214.008V53.9137Z" fill="#1E6B53"/>
<path d="M214.008 58.9261H122.689V59.9723H214.008V58.9261Z" fill="#1E6B53"/>
<path d="M122.689 59.9722V53.9137L123.749 54.9627V58.926L122.689 59.9722Z" fill="#1E6B53"/>
<path d="M214.008 59.9722V53.9137L212.95 54.9627V58.926L214.008 59.9722Z" fill="#1E6B53"/>
<path d="M214.008 65.217H122.689V71.2755H214.008V65.217Z" fill="#16503F"/>
<path d="M214.008 65.217H122.689V66.2632H214.008V65.217Z" fill="#1E6B53"/>
<path d="M214.008 70.2294H122.689V71.2755H214.008V70.2294Z" fill="#1E6B53"/>
<path d="M122.689 71.2755V65.217L123.749 66.2632V70.2294L122.689 71.2755Z" fill="#1E6B53"/>
<path d="M214.008 71.2755V65.217L212.95 66.2632V70.2294L214.008 71.2755Z" fill="#1E6B53"/>
<path d="M214.011 76.5175H122.689V82.5759H214.011V76.5175Z" fill="#16503F"/>
<path d="M214.011 76.5175H122.689V77.5636H214.011V76.5175Z" fill="#1E6B53"/>
<path d="M214.011 81.5298H122.689V82.5759H214.011V81.5298Z" fill="#1E6B53"/>
<path d="M122.689 82.5759V76.5175L123.749 77.5664V81.5298L122.689 82.5759Z" fill="#1E6B53"/>
<path d="M214.011 82.5759V76.5175L212.95 77.5664V81.5298L214.011 82.5759Z" fill="#1E6B53"/>
<path d="M214.011 87.8179H122.689V93.8763H214.011V87.8179Z" fill="#16503F"/>
<path d="M214.011 87.8179H122.689V88.8668H214.011V87.8179Z" fill="#1E6B53"/>
<path d="M214.011 92.8302H122.689V93.8763H214.011V92.8302Z" fill="#1E6B53"/>
<path d="M122.689 93.8763V87.8179L123.749 88.8668V92.8302L122.689 93.8763Z" fill="#1E6B53"/>
<path d="M214.011 93.8763V87.8179L212.95 88.8668V92.8302L214.011 93.8763Z" fill="#1E6B53"/>
<path d="M214.008 99.1211H122.689V105.18H214.008V99.1211Z" fill="#16503F"/>
<path d="M214.008 99.1211H122.689V100.17H214.008V99.1211Z" fill="#1E6B53"/>
<path d="M214.008 104.133H122.689V105.18H214.008V104.133Z" fill="#1E6B53"/>
<path d="M122.689 105.18V99.1211L123.749 100.17V104.133L122.689 105.18Z" fill="#1E6B53"/>
<path d="M214.011 105.18V99.1211L212.95 100.17V104.133L214.011 105.18Z" fill="#1E6B53"/>
<path d="M214.011 110.422H122.689V116.48H214.011V110.422Z" fill="#16503F"/>
<path d="M214.011 110.422H122.689V111.47H214.011V110.422Z" fill="#1E6B53"/>
<path d="M214.011 115.434H122.689V116.48H214.011V115.434Z" fill="#1E6B53"/>
<path d="M122.689 116.48V110.422L123.749 111.47V115.434L122.689 116.48Z" fill="#1E6B53"/>
<path d="M214.011 116.48V110.422L212.95 111.47V115.434L214.011 116.48Z" fill="#1E6B53"/>
<path d="M214.011 121.725H122.689V127.783H214.011V121.725Z" fill="#16503F"/>
<path d="M214.011 121.725H122.689V122.774H214.011V121.725Z" fill="#1E6B53"/>
<path d="M214.011 126.737H122.689V127.783H214.011V126.737Z" fill="#1E6B53"/>
<path d="M122.689 127.783V121.725L123.749 122.771V126.737L122.689 127.783Z" fill="#1E6B53"/>
<path d="M214.011 127.783V121.725L212.95 122.771V126.737L214.011 127.783Z" fill="#1E6B53"/>
<path d="M337.003 180.798H252.749V19.4767L337.003 19.4824V180.798Z" fill="#16503F"/>
<path d="M327.06 174.95H262.694V180.801H327.06V174.95Z" fill="#1E6B53"/>
<path d="M327.06 174.008H262.694V174.907H327.06V174.008Z" fill="#1E6B53"/>
<path d="M327.06 19.4795H262.694V25.331H327.06V19.4795Z" fill="#1E6B53"/>
<path d="M263.36 180.798V19.4257H252.749V180.685L263.36 180.798Z" fill="#1E6B53"/>
<path d="M337.003 180.855V19.4823H326.391V180.742L337.003 180.855Z" fill="#1E6B53"/>
<path d="M320.988 28.1716H268.48V38.8455H320.988V28.1716Z" fill="#1E6B53"/>
<path d="M320.988 46.0409H268.48V56.7148H320.988V46.0409Z" fill="#1E6B53"/>
<path d="M320.988 76.8605H268.48V87.5372H320.988V76.8605Z" fill="#1E6B53"/>
<path d="M320.988 94.7297H268.48V105.404H320.988V94.7297Z" fill="#1E6B53"/>
<path d="M320.988 112.602H268.48V123.276H320.988V112.602Z" fill="#1E6B53"/>
<path d="M320.988 141.525H268.48V152.199H320.988V141.525Z" fill="#1E6B53"/>
<path d="M320.988 159.397H268.48V170.071H320.988V159.397Z" fill="#1E6B53"/>
<path d="M84.3935 40.8414C83.6012 40.8941 82.8562 41.2373 82.3013 41.8053L84.3935 40.8414Z" fill="url(#paint0_radial)"/>
<path d="M0 180.696H84.2571V19.3746L0 19.3831V180.696Z" fill="#16503F"/>
<path d="M74.3118 173.989H9.94531V179.84H74.3118V173.989Z" fill="#1E6B53"/>
<path d="M9.94531 180.702V179.84H74.3118V180.702" fill="#1E6B53"/>
<path d="M74.3118 173.909H9.94531V174.808H74.3118V173.909Z" fill="#1E6B53"/>
<path d="M74.3118 19.3802H9.94531V25.2318H74.3118V19.3802Z" fill="#1E6B53"/>
<path d="M73.6455 180.696V19.3264H84.257V180.586L73.6455 180.696Z" fill="#1E6B53"/>
<path d="M0 180.756V19.3831H10.6115V180.642L0 180.756Z" fill="#1E6B53"/>
<path d="M68.5257 28.0696H16.0181V38.7435H68.5257V28.0696Z" fill="#1E6B53"/>
<path d="M68.5257 45.9417H16.0181V56.6156H68.5257V45.9417Z" fill="#1E6B53"/>
<path d="M68.5257 76.7612H16.0181V87.4351H68.5257V76.7612Z" fill="#1E6B53"/>
<path d="M68.5257 94.6304H16.0181V105.304H68.5257V94.6304Z" fill="#1E6B53"/>
<path d="M68.5257 112.5H16.0181V123.173H68.5257V112.5Z" fill="#1E6B53"/>
<path d="M68.5257 141.426H16.0181V152.099H68.5257V141.426Z" fill="#1E6B53"/>
<path d="M68.5257 159.295H16.0181V169.969H68.5257V159.295Z" fill="#1E6B53"/>
</g>
<defs>
<radialGradient id="paint0_radial" cx="0" cy="0" r="1" gradientUnits="userSpaceOnUse" gradientTransform="translate(869.554 197.285) scale(11.7166 5.39791)">
<stop stop-color="#4A8DC6"/>
<stop offset="0.07" stop-color="#3F86C3"/>
<stop offset="0.23" stop-color="#2C7ABD"/>
<stop offset="0.4" stop-color="#2173B9"/>
<stop offset="0.58" stop-color="#1D71B8"/>
<stop offset="0.68" stop-color="#1B68A9"/>
<stop offset="0.88" stop-color="#175A92"/>
<stop offset="1" stop-color="#16558A"/>
</radialGradient>
<clipPath id="clip0">
<rect width="337.003" height="200" fill="white"/>
</clipPath>
</defs>
</svg>
