<svg width="509" height="100" viewBox="0 0 509 100" fill="none" xmlns="http://www.w3.org/2000/svg">
<style>
#truck{
  animation: truckLeaving 6s infinite;
    transition-timing-function: ease;
}
@keyframes truckLeaving {
  0% {
    transform: translate(70px, 0px);
  }
  85% {
    opacity: 1;
  }
  100% {
    transform: translate(600px, 0 );
    opacity: 0;
  }
}
</style>
<g id="truckLeaving">
<path id="ROAD" d="M0 97H509V100H0V97Z" fill="#DBDCDD"/>
<g id="truck">
<path id="Vector" d="M300.008 44.8338H295.606V70.6286H302.06V50.2167L300.008 44.8338Z" fill="#1E6B53"/>
<path id="Vector_2" d="M121.471 77.2399H172.652V80.2385H121.471V77.2399Z" fill="#1E6B53"/>
<path id="Vector_3" d="M121.471 83.8512H172.652V86.8497H121.471V83.8512Z" fill="#1E6B53"/>
<path id="Vector_4" d="M168.474 74.9638H170.19V87.6806H168.474V74.9638Z" fill="#16503F"/>
<path id="Vector_5" d="M123.672 74.9638H125.388V87.6806H123.672V74.9638Z" fill="#16503F"/>
<path id="Vector_6" d="M42.9456 73.9884H110.13V89.1618H42.9456V73.9884Z" fill="#16503F"/>
<path id="Vector_7" d="M26.9794 73.9884H48.5039V80.0939H26.9794V73.9884Z" fill="#16503F"/>
<path id="Vector_8" d="M97.5591 73.9884H119.083V80.0939H97.5591V73.9884Z" fill="#16503F"/>
<path id="Vector_9" d="M26.9794 69.2918H196.079V75.3973H26.9794V69.2918Z" fill="#1E6B53"/>
<path id="Vector_10" d="M195.93 84.5736H198.019V90.354H195.93V84.5736Z" fill="#C4760E"/>
<path id="Vector_11" d="M195.109 90.2457V88.6922H198.616V90.2457L201.041 91.2573V92.4494H192.61V91.2573L195.109 90.2457Z" fill="#EF940F"/>
<path id="Vector_12" d="M195.146 80.961H198.802V86.7413H195.146V80.961Z" fill="#B2B1B1"/>
<path id="Vector_13" d="M198.392 85.9826L195.52 85.2239V84.3207L198.392 85.0794V85.9826Z" fill="#E51A1A"/>
<path id="Vector_14" d="M198.392 84.2847L195.52 83.4899V82.5867L198.392 83.3815V84.2847Z" fill="#E51A1A"/>
<path id="Vector_15" d="M198.392 82.5867L195.52 81.7919V80.8887L198.392 81.6835V82.5867Z" fill="#E51A1A"/>
<path id="Vector_16" d="M194.363 70.195H199.586V82.0447H194.363V70.195Z" fill="#EF940F"/>
<path id="Vector_17" d="M194.326 70.195H196.9V82.0447H194.326V70.195Z" fill="#FCAB49"/>
<path id="Vector_18" d="M232.227 80.8887H276.73V89.1257H232.227V80.8887Z" fill="#63330B"/>
<path id="Vector_19" d="M244.835 71.9292H261.66V76.1922H244.835V71.9292Z" fill="#141D1E"/>
<path id="Vector_20" d="M252.856 69.6531H253.826H268.449C268.225 70.5202 267.33 72.6878 263.45 72.6878H253.789H252.819H243.157C239.277 72.6878 238.382 70.5202 238.158 69.6531H252.856Z" fill="#63330B"/>
<path id="Vector_21" d="M223.684 81.6835H295.532V73.9162H228.161L223.684 77.1315V81.6835Z" fill="#BF6717"/>
<path id="Vector_22" d="M359.023 85.9827L341.602 88.6922L324.517 85.9827V68.1359H358.949L359.023 85.9827Z" fill="#63330B"/>
<path id="Vector_23" d="M307.842 60.1156H364.358V64.8482H307.842V60.1156Z" fill="#BF6717"/>
<path id="Vector_24" d="M307.32 61.091H364.321C364.321 61.091 366.186 61.091 366.186 59.104V47.9407C366.186 47.9407 366.186 47.182 365.515 46.7124C365.515 46.7124 365.515 29.8771 364.731 22.3265H365.477C365.477 22.3265 365.85 20.7008 364.022 19.6893C364.022 19.6893 362.344 11.8135 351.637 11.8135C340.931 11.8135 319.22 11.8135 319.22 11.8135C319.22 11.8135 316.497 8.41758 307.357 8.48984V61.091H307.32Z" fill="#F98D21"/>
<path id="Vector_25" d="M307.395 63.5115V75H267.927V88.2586H327.539V79.1907L333.396 71.5318H351.041L356.002 79.4075V88.4031H362.083C362.083 88.4031 365.962 87.8974 365.962 82.5867C365.962 77.276 365.962 65.932 365.962 65.932C365.962 65.932 366.186 63.5115 363.91 63.5115H307.395V63.5115Z" fill="#F98D21"/>
<path id="Vector_26" d="M359.881 44.4364C359.881 44.4364 359.881 25.289 359.881 23.88C359.881 22.4711 361.112 22.3266 361.112 22.3266H364.694C365.477 29.8771 365.477 46.7124 365.477 46.7124C360.702 46.5679 359.881 44.4364 359.881 44.4364Z" fill="#FFBC80"/>
<g id="Group">
<path id="Vector_27" d="M330.038 58.3454C330.374 58.3454 330.635 58.0925 330.635 57.7673V27.8541C330.635 27.5289 330.374 27.276 330.038 27.276C329.703 27.276 329.442 27.5289 329.442 27.8541V57.7673C329.442 58.0925 329.703 58.3454 330.038 58.3454Z" fill="#DD7619"/>
</g>
<g id="Group_2">
<path id="Vector_28" d="M323.062 58.3454C323.398 58.3454 323.659 58.0925 323.659 57.7673V27.8541C323.659 27.5289 323.398 27.276 323.062 27.276C322.727 27.276 322.465 27.5289 322.465 27.8541V57.7673C322.465 58.0925 322.727 58.3454 323.062 58.3454Z" fill="#DD7619"/>
</g>
<g id="Group_3">
<path id="Vector_29" d="M355.927 79.0824H365.925V79.6604H355.927V79.0824Z" fill="#DD7619"/>
</g>
<path id="Vector_30" d="M316.124 72.4349H325.338V78.2514H316.124V72.4349Z" fill="#BF6717"/>
<path id="Vector_31" d="M316.124 80.7441H325.338V86.5606H316.124V80.7441Z" fill="#BF6717"/>
<path id="Vector_32" d="M257.295 84.7904H314.669V88.2586H257.295V84.7904Z" fill="#DD7619"/>
<g id="Group_4">
<path id="Vector_33" d="M350.966 64.1618H351.563V71.4234H350.966V64.1618Z" fill="#DD7619"/>
</g>
<g id="Group_5">
<path id="Vector_34" d="M333.023 64.1618H350.519V65.4263H333.023V64.1618Z" fill="#DD7619"/>
</g>
<g id="Group_6">
<path id="Vector_35" d="M331.978 64.1618H332.575V71.4234H331.978V64.1618Z" fill="#DD7619"/>
</g>
<path id="Vector_36" d="M319.481 11.8497V19.4725H362.903V20.0505H319.481V56.2138H318.884V11.8497H319.481Z" fill="#DD7619"/>
<path id="Vector_37" d="M297.957 70.6286H20.1902L13.9604 75.2528H4.00019V0H298.255L297.957 70.6286Z" fill="#16503F"/>
<g id="Group_7">
<path id="Vector_38" d="M334.403 96.0982C328.845 92.0881 327.726 84.5014 331.829 79.1185C335.97 73.7355 343.804 72.6517 349.362 76.6257C354.92 80.6358 356.039 88.2225 351.936 93.6055C347.795 98.9884 339.961 100.108 334.403 96.0982Z" fill="#141D1E"/>
<path id="Vector_39" d="M337.649 91.8713C334.515 89.5953 333.881 85.3323 336.194 82.2976C338.544 79.263 342.946 78.6488 346.079 80.8887C349.213 83.1647 349.847 87.4277 347.534 90.4624C345.221 93.4971 340.782 94.1473 337.649 91.8713Z" fill="#3C5151"/>
<path id="Vector_40" d="M337.984 91.4741C335.075 89.3787 334.478 85.4047 336.641 82.5868C338.805 79.7689 342.909 79.1908 345.818 81.2862C348.728 83.3816 349.325 87.3556 347.161 90.1735C344.96 92.9914 340.857 93.5694 337.984 91.4741Z" fill="#2A3C3D"/>
<path id="Vector_41" d="M338.693 90.5346C336.305 88.8367 335.82 85.5491 337.611 83.2731C339.364 80.961 342.759 80.4913 345.109 82.2254C347.496 83.9234 347.981 87.2109 346.191 89.4869C344.4 91.7991 341.043 92.2687 338.693 90.5346Z" fill="#476363"/>
<path id="Vector_42" d="M339.066 90.0289C336.977 88.5115 336.529 85.6575 338.096 83.6344C339.663 81.6112 342.61 81.1777 344.699 82.695C346.788 84.2124 347.236 87.0664 345.669 89.0896C344.102 91.1488 341.155 91.5462 339.066 90.0289Z" fill="#607C7B"/>
<path id="Vector_43" d="M339.887 88.945C338.432 87.8974 338.096 85.8742 339.215 84.4291C340.297 83.0202 342.386 82.695 343.878 83.7789C345.333 84.8265 345.669 86.8497 344.55 88.2948C343.468 89.7398 341.379 90.0289 339.887 88.945Z" fill="#2A3C3D"/>
<path id="Vector_44" d="M340.931 87.6445C340.223 87.1387 340.073 86.1633 340.596 85.4407C341.118 84.7543 342.125 84.6098 342.871 85.1156C343.58 85.6214 343.729 86.5968 343.207 87.3193C342.647 88.0058 341.64 88.1503 340.931 87.6445Z" fill="#141D1E"/>
<path id="Vector_45" d="M343.803 89.9205C343.617 89.776 343.58 89.5231 343.729 89.3786C343.878 89.1979 344.139 89.1618 344.288 89.3063C344.475 89.4508 344.512 89.7037 344.363 89.8482C344.251 90.0289 343.99 90.065 343.803 89.9205Z" fill="#141D1E"/>
<path id="Vector_46" d="M341.379 90.5347C341.192 90.3902 341.155 90.1373 341.304 89.9928C341.453 89.8122 341.714 89.7761 341.864 89.9206C342.05 90.0651 342.087 90.318 341.938 90.4625C341.789 90.6431 341.528 90.6792 341.379 90.5347Z" fill="#141D1E"/>
<path id="Vector_47" d="M339.066 89.6676C338.88 89.5231 338.842 89.2702 338.992 89.1257C339.141 88.9451 339.402 88.9089 339.551 89.0534C339.738 89.198 339.775 89.4508 339.626 89.5953C339.514 89.776 339.253 89.8121 339.066 89.6676Z" fill="#141D1E"/>
<path id="Vector_48" d="M337.76 87.4639C337.574 87.3194 337.537 87.0665 337.686 86.922C337.835 86.7413 338.096 86.7052 338.245 86.8497C338.432 86.9942 338.469 87.2471 338.32 87.3916C338.208 87.5361 337.947 87.5723 337.76 87.4639Z" fill="#141D1E"/>
<path id="Vector_49" d="M337.947 85.0794C337.76 84.9349 337.723 84.682 337.872 84.5375C338.022 84.3569 338.283 84.3207 338.432 84.4653C338.618 84.6098 338.656 84.8627 338.507 85.0072C338.395 85.1878 338.134 85.2239 337.947 85.0794Z" fill="#141D1E"/>
<path id="Vector_50" d="M339.551 83.3092C339.364 83.1647 339.327 82.9118 339.476 82.7673C339.626 82.5867 339.887 82.5505 340.036 82.695C340.222 82.8396 340.26 83.0925 340.111 83.237C339.999 83.4176 339.738 83.4537 339.551 83.3092Z" fill="#141D1E"/>
<path id="Vector_51" d="M341.864 82.7673C341.677 82.6228 341.64 82.3699 341.789 82.2254C341.939 82.0448 342.2 82.0086 342.349 82.1531C342.535 82.2976 342.573 82.5505 342.424 82.695C342.312 82.8757 342.051 82.9118 341.864 82.7673Z" fill="#141D1E"/>
<path id="Vector_52" d="M344.102 83.4898C343.916 83.3453 343.878 83.0924 344.028 82.9479C344.177 82.7673 344.438 82.7312 344.587 82.8757C344.774 83.0202 344.811 83.2731 344.662 83.4176C344.55 83.5982 344.289 83.6344 344.102 83.4898Z" fill="#141D1E"/>
<path id="Vector_53" d="M345.482 85.4046C345.296 85.2601 345.258 85.0072 345.408 84.8627C345.557 84.6821 345.818 84.646 345.967 84.7905C346.154 84.935 346.191 85.1879 346.042 85.3324C345.892 85.513 345.669 85.5491 345.482 85.4046Z" fill="#141D1E"/>
<path id="Vector_54" d="M345.445 87.8974C345.259 87.7529 345.221 87.5 345.37 87.3555C345.52 87.1749 345.781 87.1387 345.93 87.2832C346.117 87.4277 346.154 87.6806 346.005 87.8251C345.893 87.9696 345.632 88.0058 345.445 87.8974Z" fill="#141D1E"/>
<path id="Vector_55" d="M345.781 90.7514C345.632 90.6431 345.632 90.4263 345.743 90.2818L346.34 89.6315C346.452 89.487 346.676 89.487 346.825 89.5954C346.975 89.7038 346.975 89.9205 346.863 90.065L346.266 90.7153C346.117 90.8598 345.93 90.8598 345.781 90.7514Z" fill="#141D1E"/>
<path id="Vector_56" d="M342.237 92.2327C342.2 92.0521 342.312 91.8714 342.461 91.8353L343.319 91.6186C343.505 91.5824 343.692 91.6908 343.729 91.8353C343.766 92.0159 343.655 92.1966 343.468 92.2327L342.61 92.4494C342.461 92.5217 342.312 92.4133 342.237 92.2327Z" fill="#141D1E"/>
<path id="Vector_57" d="M338.805 91.3295C338.88 91.185 339.104 91.1127 339.253 91.185L340.073 91.5824C340.223 91.6546 340.297 91.8714 340.223 92.0159C340.148 92.1604 339.924 92.2327 339.775 92.1604L338.954 91.763C338.768 91.6908 338.693 91.474 338.805 91.3295Z" fill="#141D1E"/>
<path id="Vector_58" d="M336.417 88.6199C336.567 88.5477 336.79 88.5838 336.865 88.7644L337.275 89.5231C337.35 89.6676 337.275 89.8844 337.126 89.9566C336.977 90.0289 336.753 89.9566 336.679 89.8121L336.268 89.0534C336.194 88.9089 336.268 88.7283 336.417 88.6199Z" fill="#141D1E"/>
<path id="Vector_59" d="M336.044 85.1878C336.231 85.2239 336.343 85.3684 336.343 85.549L336.231 86.4161C336.194 86.5967 336.044 86.7051 335.858 86.7051C335.671 86.669 335.559 86.5245 335.559 86.3438L335.671 85.4768C335.671 85.2962 335.858 85.1878 336.044 85.1878Z" fill="#141D1E"/>
<path id="Vector_60" d="M337.648 82.1893C337.798 82.2977 337.835 82.5144 337.723 82.6589L337.163 83.3453C337.052 83.4898 336.828 83.526 336.679 83.4176C336.529 83.3092 336.492 83.0925 336.604 82.948L337.163 82.2615C337.275 82.117 337.499 82.0809 337.648 82.1893Z" fill="#141D1E"/>
<path id="Vector_61" d="M347.721 85.1156C347.534 85.1156 347.385 85.2601 347.385 85.4408L347.422 86.3078C347.422 86.4885 347.571 86.633 347.758 86.633C347.945 86.633 348.094 86.4885 348.094 86.3078L348.056 85.4408C348.056 85.224 347.907 85.0795 347.721 85.1156Z" fill="#141D1E"/>
<path id="Vector_62" d="M345.855 82.1532C345.706 82.2615 345.706 82.4783 345.818 82.6228L346.415 83.2731C346.527 83.4176 346.751 83.4176 346.9 83.3092C347.049 83.2009 347.049 82.9841 346.9 82.8396L346.303 82.1893C346.191 82.0448 345.967 82.0448 345.855 82.1532Z" fill="#141D1E"/>
<path id="Vector_63" d="M342.498 80.7443C342.461 80.9249 342.573 81.1056 342.759 81.1056L343.654 81.2501C343.841 81.2862 344.028 81.1778 344.028 80.9972C344.065 80.8165 343.953 80.6359 343.766 80.6359L342.871 80.4914C342.722 80.4191 342.535 80.5636 342.498 80.7443Z" fill="#141D1E"/>
<path id="Vector_64" d="M338.992 81.3584C339.066 81.539 339.253 81.6112 339.439 81.539L340.26 81.1777C340.447 81.1055 340.521 80.9248 340.447 80.7442C340.372 80.5636 340.185 80.4913 339.999 80.5636L339.178 80.9248C338.992 80.9971 338.917 81.1777 338.992 81.3584Z" fill="#141D1E"/>
</g>
<g id="Group_8">
<path id="Vector_65" d="M233.682 96.0982C228.123 92.0881 227.004 84.5014 231.108 79.1185C235.249 73.7355 243.082 72.6517 248.641 76.6257C254.199 80.6358 255.318 88.2225 251.215 93.6055C247.074 98.9884 239.24 100.108 233.682 96.0982Z" fill="#141D1E"/>
<path id="Vector_66" d="M236.964 91.8713C233.831 89.5953 233.197 85.3323 235.51 82.2976C237.86 79.263 242.262 78.6488 245.395 80.8887C248.529 83.1647 249.163 87.4277 246.85 90.4624C244.5 93.4971 240.098 94.1473 236.964 91.8713Z" fill="#3C5151"/>
<path id="Vector_67" d="M237.263 91.4741C234.354 89.3787 233.757 85.4047 235.92 82.5868C238.084 79.7689 242.187 79.1908 245.097 81.2862C248.007 83.3816 248.604 87.3556 246.44 90.1735C244.276 92.9914 240.173 93.5694 237.263 91.4741Z" fill="#2A3C3D"/>
<path id="Vector_68" d="M237.972 90.5346C235.585 88.8367 235.1 85.5491 236.89 83.2731C238.643 80.961 242.038 80.4913 244.388 82.2254C246.776 83.9234 247.261 87.2109 245.47 89.4869C243.717 91.7991 240.359 92.2687 237.972 90.5346Z" fill="#476363"/>
<path id="Vector_69" d="M238.345 90.0289C236.256 88.5115 235.808 85.6575 237.375 83.6344C238.942 81.6112 241.889 81.1777 243.978 82.695C246.067 84.2124 246.514 87.0664 244.948 89.0896C243.418 91.1488 240.434 91.5462 238.345 90.0289Z" fill="#607C7B"/>
<path id="Vector_70" d="M239.203 88.945C237.748 87.8974 237.412 85.8742 238.532 84.4291C239.613 83.0202 241.702 82.695 243.195 83.7789C244.649 84.8265 244.985 86.8497 243.866 88.2948C242.747 89.7398 240.658 90.0289 239.203 88.945Z" fill="#2A3C3D"/>
<path id="Vector_71" d="M240.21 87.6445C239.501 87.1387 239.352 86.1633 239.875 85.4407C240.397 84.7543 241.404 84.6098 242.15 85.1156C242.859 85.6214 243.008 86.5968 242.486 87.3193C241.926 88.0058 240.919 88.1503 240.21 87.6445Z" fill="#141D1E"/>
<path id="Vector_72" d="M243.12 89.9205C242.933 89.776 242.896 89.5231 243.045 89.3786C243.194 89.1979 243.456 89.1618 243.605 89.3063C243.791 89.4508 243.829 89.7037 243.679 89.8482C243.568 90.0289 243.306 90.065 243.12 89.9205Z" fill="#141D1E"/>
<path id="Vector_73" d="M240.657 90.5347C240.471 90.3902 240.434 90.1373 240.583 89.9928C240.732 89.8122 240.993 89.7761 241.142 89.9206C241.329 90.0651 241.366 90.318 241.217 90.4625C241.105 90.6431 240.844 90.6792 240.657 90.5347Z" fill="#141D1E"/>
<path id="Vector_74" d="M238.382 89.6676C238.196 89.5231 238.158 89.2702 238.307 89.1257C238.457 88.9451 238.718 88.9089 238.867 89.0534C239.054 89.198 239.091 89.4508 238.942 89.5953C238.792 89.776 238.569 89.8121 238.382 89.6676Z" fill="#141D1E"/>
<path id="Vector_75" d="M237.039 87.4639C236.853 87.3194 236.815 87.0665 236.965 86.922C237.114 86.7413 237.375 86.7052 237.524 86.8497C237.711 86.9942 237.748 87.2471 237.599 87.3916C237.487 87.5361 237.226 87.5723 237.039 87.4639Z" fill="#141D1E"/>
<path id="Vector_76" d="M237.263 85.0794C237.076 84.9349 237.039 84.682 237.188 84.5375C237.338 84.3569 237.599 84.3207 237.748 84.4653C237.934 84.6098 237.972 84.8627 237.822 85.0072C237.673 85.1878 237.449 85.2239 237.263 85.0794Z" fill="#141D1E"/>
<path id="Vector_77" d="M238.83 83.3092C238.643 83.1647 238.606 82.9118 238.755 82.7673C238.904 82.5867 239.166 82.5505 239.315 82.695C239.501 82.8396 239.539 83.0925 239.389 83.237C239.277 83.4176 239.016 83.4537 238.83 83.3092Z" fill="#141D1E"/>
<path id="Vector_78" d="M241.143 82.7673C240.956 82.6228 240.919 82.3699 241.068 82.2254C241.217 82.0448 241.479 82.0086 241.628 82.1531C241.814 82.2976 241.852 82.5505 241.702 82.695C241.59 82.8757 241.329 82.9118 241.143 82.7673Z" fill="#141D1E"/>
<path id="Vector_79" d="M243.381 83.4898C243.195 83.3453 243.157 83.0924 243.306 82.9479C243.456 82.7673 243.717 82.7312 243.866 82.8757C244.053 83.0202 244.09 83.2731 243.941 83.4176C243.829 83.5982 243.568 83.6344 243.381 83.4898Z" fill="#141D1E"/>
<path id="Vector_80" d="M244.761 85.4046C244.575 85.2601 244.538 85.0072 244.687 84.8627C244.836 84.6821 245.097 84.646 245.246 84.7905C245.433 84.935 245.47 85.1879 245.321 85.3324C245.209 85.513 244.948 85.5491 244.761 85.4046Z" fill="#141D1E"/>
<path id="Vector_81" d="M244.761 87.8974C244.575 87.7529 244.538 87.5 244.687 87.3555C244.836 87.1749 245.097 87.1387 245.246 87.2832C245.433 87.4277 245.47 87.6806 245.321 87.8251C245.209 87.9696 244.948 88.0058 244.761 87.8974Z" fill="#141D1E"/>
<path id="Vector_82" d="M245.06 90.7514C244.91 90.6431 244.91 90.4263 245.022 90.2818L245.619 89.6315C245.731 89.487 245.955 89.487 246.104 89.5954C246.253 89.7038 246.253 89.9205 246.141 90.065L245.545 90.7153C245.433 90.8598 245.209 90.8598 245.06 90.7514Z" fill="#141D1E"/>
<path id="Vector_83" d="M241.553 92.2327C241.516 92.0521 241.627 91.8714 241.777 91.8353L242.635 91.6186C242.821 91.5824 243.008 91.6908 243.045 91.8353C243.082 92.0159 242.97 92.1966 242.821 92.2327L241.963 92.4494C241.777 92.5217 241.59 92.4133 241.553 92.2327Z" fill="#141D1E"/>
<path id="Vector_84" d="M238.084 91.3295C238.159 91.185 238.382 91.1127 238.532 91.185L239.352 91.5824C239.501 91.6546 239.576 91.8714 239.501 92.0159C239.427 92.1604 239.203 92.2327 239.054 92.1604L238.233 91.763C238.084 91.6908 238.009 91.474 238.084 91.3295Z" fill="#141D1E"/>
<path id="Vector_85" d="M235.733 88.6199C235.883 88.5477 236.106 88.5838 236.181 88.7644L236.591 89.5231C236.666 89.6676 236.591 89.8844 236.442 89.9566C236.293 90.0289 236.069 89.9566 235.994 89.8121L235.584 89.0534C235.472 88.9089 235.547 88.7283 235.733 88.6199Z" fill="#141D1E"/>
<path id="Vector_86" d="M235.323 85.1878C235.51 85.2239 235.622 85.3684 235.622 85.549L235.51 86.4161C235.472 86.5967 235.323 86.7051 235.137 86.7051C234.95 86.669 234.838 86.5245 234.838 86.3438L234.95 85.4768C234.987 85.2962 235.137 85.1878 235.323 85.1878Z" fill="#141D1E"/>
<path id="Vector_87" d="M236.927 82.1893C237.076 82.2977 237.114 82.5144 237.002 82.6589L236.442 83.3453C236.33 83.4898 236.107 83.526 235.957 83.4176C235.808 83.3092 235.771 83.0925 235.883 82.948L236.442 82.2615C236.591 82.117 236.778 82.0809 236.927 82.1893Z" fill="#141D1E"/>
<path id="Vector_88" d="M247.037 85.1156C246.85 85.1156 246.701 85.2601 246.701 85.4408L246.738 86.3078C246.738 86.4885 246.887 86.633 247.074 86.633C247.26 86.633 247.41 86.4885 247.41 86.3078L247.372 85.4408C247.372 85.224 247.223 85.0795 247.037 85.1156Z" fill="#141D1E"/>
<path id="Vector_89" d="M245.134 82.1532C244.985 82.2615 244.985 82.4783 245.097 82.6228L245.694 83.2731C245.806 83.4176 246.029 83.4176 246.179 83.3092C246.328 83.2009 246.328 82.9841 246.179 82.8396L245.582 82.1893C245.47 82.0448 245.283 82.0448 245.134 82.1532Z" fill="#141D1E"/>
<path id="Vector_90" d="M241.814 80.7443C241.777 80.9249 241.889 81.1056 242.075 81.1056L242.97 81.2501C243.157 81.2862 243.343 81.1778 243.343 80.9972C243.381 80.8165 243.269 80.6359 243.082 80.6359L242.187 80.4914C242.001 80.4191 241.814 80.5636 241.814 80.7443Z" fill="#141D1E"/>
<path id="Vector_91" d="M238.27 81.3584C238.345 81.539 238.532 81.6112 238.718 81.539L239.539 81.1777C239.725 81.1055 239.8 80.9248 239.725 80.7442C239.651 80.5636 239.464 80.4913 239.278 80.5636L238.457 80.9248C238.27 80.9971 238.196 81.1777 238.27 81.3584Z" fill="#141D1E"/>
</g>
<path id="Vector_92" d="M252.371 84.6459C251.886 81.7919 250.357 79.2991 247.969 77.565C245.545 75.7948 242.56 75.0722 239.539 75.5057C236.554 75.9393 233.868 77.4566 232.078 79.8049C230.996 81.2138 230.25 82.8757 229.989 84.6459H227.601C227.9 82.406 228.795 80.2745 230.213 78.4682C232.414 75.6141 235.584 73.7716 239.203 73.2659C242.821 72.7601 246.44 73.6271 249.35 75.7586C252.334 77.9263 254.237 81.0693 254.759 84.6459H252.371V84.6459Z" fill="#474747"/>
<g id="Group_9">
<path id="Vector_93" d="M261.66 96.0982C256.102 92.0881 254.982 84.5014 259.086 79.1185C263.227 73.7355 271.06 72.6517 276.619 76.6257C282.177 80.6358 283.296 88.2225 279.193 93.6055C275.052 98.9884 267.218 100.108 261.66 96.0982Z" fill="#141D1E"/>
<path id="Vector_94" d="M264.905 91.8713C261.772 89.5953 261.138 85.3323 263.45 82.2976C265.801 79.263 270.203 78.6488 273.336 80.8887C276.47 83.1647 277.104 87.4277 274.791 90.4624C272.478 93.4971 268.039 94.1473 264.905 91.8713Z" fill="#3C5151"/>
<path id="Vector_95" d="M265.241 91.4741C262.332 89.3787 261.735 85.4047 263.898 82.5868C266.062 79.7689 270.165 79.1908 273.075 81.2862C275.985 83.3816 276.582 87.3556 274.418 90.1735C272.217 92.9914 268.114 93.5694 265.241 91.4741Z" fill="#2A3C3D"/>
<path id="Vector_96" d="M265.95 90.5346C263.562 88.8367 263.077 85.5491 264.868 83.2731C266.621 80.961 270.016 80.4913 272.366 82.2254C274.753 83.9234 275.238 87.2109 273.448 89.4869C271.657 91.7991 268.3 92.2687 265.95 90.5346Z" fill="#476363"/>
<path id="Vector_97" d="M266.323 90.0289C264.234 88.5115 263.786 85.6575 265.353 83.6344C266.92 81.6112 269.867 81.1777 271.956 82.695C274.045 84.2124 274.492 87.0664 272.926 89.0896C271.359 91.1488 268.412 91.5462 266.323 90.0289Z" fill="#607C7B"/>
<path id="Vector_98" d="M267.143 88.945C265.689 87.8974 265.353 85.8742 266.472 84.4291C267.554 83.0202 269.643 82.695 271.135 83.7789C272.59 84.8265 272.926 86.8497 271.807 88.2948C270.725 89.7398 268.636 90.0289 267.143 88.945Z" fill="#2A3C3D"/>
<path id="Vector_99" d="M268.188 87.6445C267.479 87.1387 267.33 86.1633 267.853 85.4407C268.375 84.7543 269.382 84.6098 270.128 85.1156C270.837 85.6214 270.986 86.5968 270.464 87.3193C269.904 88.0058 268.897 88.1503 268.188 87.6445Z" fill="#141D1E"/>
<path id="Vector_100" d="M271.06 89.9205C270.874 89.776 270.836 89.5231 270.986 89.3786C271.135 89.1979 271.396 89.1618 271.545 89.3063C271.732 89.4508 271.769 89.7037 271.62 89.8482C271.508 90.0289 271.247 90.065 271.06 89.9205Z" fill="#141D1E"/>
<path id="Vector_101" d="M268.598 90.5347C268.412 90.3902 268.375 90.1373 268.524 89.9928C268.673 89.8122 268.934 89.7761 269.083 89.9206C269.27 90.0651 269.307 90.318 269.158 90.4625C269.046 90.6431 268.785 90.6792 268.598 90.5347Z" fill="#141D1E"/>
<path id="Vector_102" d="M266.323 89.6676C266.136 89.5231 266.099 89.2702 266.248 89.1257C266.398 88.9451 266.659 88.9089 266.808 89.0534C266.994 89.198 267.032 89.4508 266.883 89.5953C266.771 89.776 266.509 89.8121 266.323 89.6676Z" fill="#141D1E"/>
<path id="Vector_103" d="M265.017 87.4639C264.831 87.3194 264.793 87.0665 264.943 86.922C265.092 86.7413 265.353 86.7052 265.502 86.8497C265.689 86.9942 265.726 87.2471 265.577 87.3916C265.428 87.5361 265.204 87.5723 265.017 87.4639Z" fill="#141D1E"/>
<path id="Vector_104" d="M265.204 85.0794C265.017 84.9349 264.98 84.682 265.129 84.5375C265.278 84.3569 265.54 84.3207 265.689 84.4653C265.875 84.6098 265.913 84.8627 265.763 85.0072C265.651 85.1878 265.39 85.2239 265.204 85.0794Z" fill="#141D1E"/>
<path id="Vector_105" d="M266.808 83.3092C266.621 83.1647 266.584 82.9118 266.733 82.7673C266.882 82.5867 267.144 82.5505 267.293 82.695C267.479 82.8396 267.517 83.0925 267.367 83.237C267.255 83.4176 266.994 83.4537 266.808 83.3092Z" fill="#141D1E"/>
<path id="Vector_106" d="M269.121 82.7673C268.934 82.6228 268.897 82.3699 269.046 82.2254C269.195 82.0448 269.457 82.0086 269.606 82.1531C269.792 82.2976 269.83 82.5505 269.68 82.695C269.568 82.8757 269.307 82.9118 269.121 82.7673Z" fill="#141D1E"/>
<path id="Vector_107" d="M271.359 83.4898C271.173 83.3453 271.135 83.0924 271.285 82.9479C271.434 82.7673 271.695 82.7312 271.844 82.8757C272.031 83.0202 272.068 83.2731 271.919 83.4176C271.807 83.5982 271.546 83.6344 271.359 83.4898Z" fill="#141D1E"/>
<path id="Vector_108" d="M272.739 85.4046C272.552 85.2601 272.515 85.0072 272.664 84.8627C272.814 84.6821 273.075 84.646 273.224 84.7905C273.41 84.935 273.448 85.1879 273.299 85.3324C273.149 85.513 272.888 85.5491 272.739 85.4046Z" fill="#141D1E"/>
<path id="Vector_109" d="M272.702 87.8974C272.515 87.7529 272.478 87.5 272.627 87.3555C272.776 87.1749 273.038 87.1387 273.187 87.2832C273.373 87.4277 273.411 87.6806 273.261 87.8251C273.15 87.9696 272.888 88.0058 272.702 87.8974Z" fill="#141D1E"/>
<path id="Vector_110" d="M273.038 90.7514C272.888 90.6431 272.888 90.4263 273 90.2818L273.597 89.6315C273.709 89.487 273.933 89.487 274.082 89.5954C274.231 89.7038 274.231 89.9205 274.119 90.065L273.523 90.7153C273.373 90.8598 273.187 90.8598 273.038 90.7514Z" fill="#141D1E"/>
<path id="Vector_111" d="M269.494 92.2327C269.456 92.0521 269.568 91.8714 269.718 91.8353L270.576 91.6186C270.762 91.5824 270.949 91.6908 270.986 91.8353C271.023 92.0159 270.911 92.1966 270.762 92.2327L269.904 92.4494C269.718 92.5217 269.531 92.4133 269.494 92.2327Z" fill="#141D1E"/>
<path id="Vector_112" d="M266.062 91.3295C266.137 91.185 266.36 91.1127 266.51 91.185L267.33 91.5824C267.48 91.6546 267.554 91.8714 267.48 92.0159C267.405 92.1604 267.181 92.2327 267.032 92.1604L266.211 91.763C266.025 91.6908 265.95 91.474 266.062 91.3295Z" fill="#141D1E"/>
<path id="Vector_113" d="M263.674 88.6199C263.823 88.5477 264.047 88.5838 264.122 88.7644L264.532 89.5231C264.607 89.6676 264.532 89.8844 264.383 89.9566C264.234 90.0289 264.01 89.9566 263.935 89.8121L263.525 89.0534C263.45 88.9089 263.525 88.7283 263.674 88.6199Z" fill="#141D1E"/>
<path id="Vector_114" d="M263.264 85.1878C263.451 85.2239 263.562 85.3684 263.562 85.549L263.451 86.4161C263.413 86.5967 263.264 86.7051 263.078 86.7051C262.891 86.669 262.779 86.5245 262.779 86.3438L262.891 85.4768C262.928 85.2962 263.115 85.1878 263.264 85.1878Z" fill="#141D1E"/>
<path id="Vector_115" d="M264.905 82.1893C265.054 82.2977 265.092 82.5144 264.98 82.6589L264.42 83.3453C264.308 83.4898 264.085 83.526 263.935 83.4176C263.786 83.3092 263.749 83.0925 263.861 82.948L264.42 82.2615C264.532 82.117 264.756 82.0809 264.905 82.1893Z" fill="#141D1E"/>
<path id="Vector_116" d="M274.978 85.1156C274.791 85.1156 274.642 85.2601 274.642 85.4408L274.679 86.3078C274.679 86.4885 274.828 86.633 275.015 86.633C275.201 86.633 275.351 86.4885 275.351 86.3078L275.313 85.4408C275.313 85.224 275.164 85.0795 274.978 85.1156Z" fill="#141D1E"/>
<path id="Vector_117" d="M273.112 82.1532C272.963 82.2615 272.963 82.4783 273.075 82.6228L273.672 83.2731C273.784 83.4176 274.007 83.4176 274.157 83.3092C274.306 83.2009 274.306 82.9841 274.157 82.8396L273.56 82.1893C273.448 82.0448 273.224 82.0448 273.112 82.1532Z" fill="#141D1E"/>
<path id="Vector_118" d="M269.755 80.7443C269.718 80.9249 269.829 81.1056 270.016 81.1056L270.911 81.2501C271.098 81.2862 271.284 81.1778 271.284 80.9972C271.322 80.8165 271.21 80.6359 271.023 80.6359L270.128 80.4914C269.979 80.4191 269.792 80.5636 269.755 80.7443Z" fill="#141D1E"/>
<path id="Vector_119" d="M266.248 81.3584C266.323 81.539 266.51 81.6112 266.696 81.539L267.517 81.1777C267.703 81.1055 267.778 80.9248 267.703 80.7442C267.629 80.5636 267.442 80.4913 267.256 80.5636L266.435 80.9248C266.248 80.9971 266.174 81.1777 266.248 81.3584Z" fill="#141D1E"/>
</g>
<path id="Vector_120" d="M280.349 84.6459C279.864 81.7919 278.335 79.2991 275.947 77.565C273.523 75.7948 270.538 75.0722 267.517 75.5057C264.532 75.9393 261.846 77.4566 260.056 79.8049C258.974 81.2138 258.228 82.8757 257.967 84.6459H255.579C255.878 82.406 256.773 80.2745 258.191 78.4682C260.392 75.6141 263.562 73.7716 267.181 73.2659C270.799 72.7601 274.418 73.6271 277.328 75.7586C280.312 77.9263 282.215 81.0693 282.737 84.6459H280.349V84.6459Z" fill="#474747"/>
<g id="Group_10">
<path id="Vector_121" d="M41.1549 96.0982C35.5966 92.0881 34.4775 84.5014 38.5809 79.1185C42.7217 73.7355 50.5556 72.6517 56.1139 76.6257C61.6722 80.6358 62.7914 88.2225 58.6879 93.6055C54.5472 98.9884 46.676 100.108 41.1549 96.0982Z" fill="#141D1E"/>
<path id="Vector_122" d="M44.4005 91.8713C41.2669 89.5953 40.6327 85.3323 42.9456 82.2976C45.2958 79.263 49.6977 78.6488 52.8312 80.8887C55.9648 83.1647 56.5989 87.4277 54.2861 90.4624C51.9732 93.4971 47.534 94.1473 44.4005 91.8713Z" fill="#3C5151"/>
<path id="Vector_123" d="M44.6988 91.4741C41.7891 89.3787 41.1922 85.4047 43.3558 82.5868C45.5195 79.7689 49.6229 79.1908 52.5327 81.2862C55.4424 83.3816 56.0392 87.3556 53.8756 90.1735C51.712 92.9914 47.6085 93.5694 44.6988 91.4741Z" fill="#2A3C3D"/>
<path id="Vector_124" d="M45.4076 90.5346C43.0201 88.8367 42.5352 85.5491 44.3258 83.2731C46.0791 80.961 49.4737 80.4913 51.8239 82.2254C54.2113 83.9234 54.6963 87.2109 52.9057 89.4869C51.1524 91.7991 47.795 92.2687 45.4076 90.5346Z" fill="#476363"/>
<path id="Vector_125" d="M45.8179 90.0289C43.7288 88.5115 43.2812 85.6575 44.8479 83.6344C46.4147 81.6112 49.3618 81.1777 51.4508 82.695C53.5399 84.2124 53.9875 87.0664 52.4207 89.0896C50.854 91.1488 47.9069 91.5462 45.8179 90.0289Z" fill="#607C7B"/>
<path id="Vector_126" d="M46.6386 88.945C45.1838 87.8974 44.848 85.8742 45.9671 84.4291C47.049 83.0202 49.138 82.695 50.6301 83.7789C52.085 84.8265 52.4208 86.8497 51.3016 88.2948C50.1825 89.7398 48.1308 90.0289 46.6386 88.945Z" fill="#2A3C3D"/>
<path id="Vector_127" d="M47.6457 87.6445C46.9369 87.1387 46.7877 86.1633 47.31 85.4407C47.8323 84.7543 48.8395 84.6098 49.5856 85.1156C50.2944 85.6214 50.4436 86.5968 49.9213 87.3193C49.3991 88.0058 48.3918 88.1503 47.6457 87.6445Z" fill="#141D1E"/>
<path id="Vector_128" d="M50.5554 89.9205C50.3689 89.776 50.3316 89.5231 50.4808 89.3786C50.63 89.1979 50.8911 89.1618 51.0403 89.3063C51.2269 89.4508 51.2642 89.7037 51.115 89.8482C51.003 90.0289 50.7419 90.065 50.5554 89.9205Z" fill="#141D1E"/>
<path id="Vector_129" d="M48.0935 90.5347C47.907 90.3902 47.8697 90.1373 48.0189 89.9928C48.1681 89.8122 48.4292 89.7761 48.5784 89.9206C48.765 90.0651 48.8023 90.318 48.653 90.4625C48.5411 90.6431 48.28 90.6792 48.0935 90.5347Z" fill="#141D1E"/>
<path id="Vector_130" d="M45.8181 89.6676C45.6316 89.5231 45.5943 89.2702 45.7435 89.1257C45.8927 88.9451 46.1538 88.9089 46.303 89.0534C46.4896 89.198 46.5269 89.4508 46.3777 89.5953C46.2657 89.776 46.0046 89.8121 45.8181 89.6676Z" fill="#141D1E"/>
<path id="Vector_131" d="M44.4753 87.4639C44.2887 87.3194 44.2515 87.0665 44.4007 86.922C44.5499 86.7413 44.811 86.7052 44.9603 86.8497C45.1468 86.9942 45.1841 87.2471 45.0349 87.3916C44.9229 87.5361 44.6618 87.5723 44.4753 87.4639Z" fill="#141D1E"/>
<path id="Vector_132" d="M44.6989 85.0794C44.5124 84.9349 44.4751 84.682 44.6243 84.5375C44.7735 84.3569 45.0347 84.3207 45.1839 84.4653C45.3704 84.6098 45.4077 84.8627 45.2585 85.0072C45.1466 85.1878 44.8855 85.2239 44.6989 85.0794Z" fill="#141D1E"/>
<path id="Vector_133" d="M46.3029 83.3092C46.1164 83.1647 46.079 82.9118 46.2283 82.7673C46.3775 82.5867 46.6387 82.5505 46.7879 82.695C46.9744 82.8396 47.0117 83.0925 46.8625 83.237C46.7133 83.4176 46.4894 83.4537 46.3029 83.3092Z" fill="#141D1E"/>
<path id="Vector_134" d="M48.6159 82.7673C48.4294 82.6228 48.3921 82.3699 48.5413 82.2254C48.6905 82.0448 48.9517 82.0086 49.1009 82.1531C49.2874 82.2976 49.3247 82.5505 49.1755 82.695C49.0263 82.8757 48.8025 82.9118 48.6159 82.7673Z" fill="#141D1E"/>
<path id="Vector_135" d="M50.8542 83.4898C50.6677 83.3453 50.6304 83.0924 50.7796 82.9479C50.9288 82.7673 51.19 82.7312 51.3392 82.8757C51.5257 83.0202 51.563 83.2731 51.4138 83.4176C51.2646 83.5982 51.0035 83.6344 50.8542 83.4898Z" fill="#141D1E"/>
<path id="Vector_136" d="M52.1969 85.4046C52.0104 85.2601 51.9731 85.0072 52.1223 84.8627C52.2716 84.6821 52.5327 84.646 52.6819 84.7905C52.8685 84.935 52.9058 85.1879 52.7566 85.3324C52.6446 85.513 52.3835 85.5491 52.1969 85.4046Z" fill="#141D1E"/>
<path id="Vector_137" d="M52.1969 87.8974C52.0104 87.7529 51.9731 87.5 52.1223 87.3555C52.2716 87.1749 52.5327 87.1387 52.6819 87.2832C52.8685 87.4277 52.9058 87.6806 52.7566 87.8251C52.6446 87.9696 52.3835 88.0058 52.1969 87.8974Z" fill="#141D1E"/>
<path id="Vector_138" d="M52.5328 90.7514C52.3835 90.6431 52.3835 90.4263 52.4954 90.2818L53.0923 89.6315C53.2042 89.487 53.4281 89.487 53.5773 89.5954C53.7265 89.7038 53.7265 89.9205 53.6146 90.065L53.0177 90.7153C52.8685 90.8598 52.682 90.8598 52.5328 90.7514Z" fill="#141D1E"/>
<path id="Vector_139" d="M48.9887 92.2327C48.9514 92.0521 49.0633 91.8714 49.2498 91.8353L50.1078 91.6186C50.2943 91.5824 50.4809 91.6908 50.5182 91.8353C50.5555 92.0159 50.4436 92.1966 50.2943 92.2327L49.4364 92.4494C49.2125 92.5217 49.026 92.4133 48.9887 92.2327Z" fill="#141D1E"/>
<path id="Vector_140" d="M45.5195 91.3295C45.5941 91.185 45.8179 91.1127 45.9671 91.185L46.7878 91.5824C46.937 91.6546 47.0116 91.8714 46.937 92.0159C46.8624 92.1604 46.6386 92.2327 46.4894 92.1604L45.6687 91.763C45.5195 91.6908 45.4449 91.474 45.5195 91.3295Z" fill="#141D1E"/>
<path id="Vector_141" d="M43.1694 88.6199C43.3186 88.5477 43.5424 88.5838 43.617 88.7644L44.0274 89.5231C44.102 89.6676 44.0274 89.8844 43.8781 89.9566C43.7289 90.0289 43.5051 89.9566 43.4305 89.8121L43.0202 89.0534C42.9456 88.9089 42.9828 88.7283 43.1694 88.6199Z" fill="#141D1E"/>
<path id="Vector_142" d="M42.7592 85.1878C42.9457 85.2239 43.0576 85.3684 43.0576 85.549L42.9457 86.4161C42.9084 86.5967 42.7592 86.7051 42.5727 86.7051C42.3862 86.669 42.2743 86.5245 42.2743 86.3438L42.3862 85.4768C42.4235 85.2962 42.5727 85.1878 42.7592 85.1878Z" fill="#141D1E"/>
<path id="Vector_143" d="M44.4004 82.1893C44.5496 82.2977 44.5869 82.5144 44.475 82.6589L43.9154 83.3453C43.8035 83.4898 43.5796 83.526 43.4304 83.4176C43.2812 83.3092 43.2439 83.0925 43.3558 82.948L43.9154 82.2615C44.0273 82.117 44.2511 82.0809 44.4004 82.1893Z" fill="#141D1E"/>
<path id="Vector_144" d="M54.4727 85.1156C54.2861 85.1156 54.1369 85.2601 54.1369 85.4408L54.1742 86.3078C54.1742 86.4885 54.3234 86.633 54.51 86.633C54.6965 86.633 54.8457 86.4885 54.8457 86.3078L54.8084 85.4408C54.8084 85.224 54.6592 85.0795 54.4727 85.1156Z" fill="#141D1E"/>
<path id="Vector_145" d="M52.5702 82.1532C52.421 82.2615 52.421 82.4783 52.5329 82.6228L53.1297 83.2731C53.2416 83.4176 53.4654 83.4176 53.6147 83.3092C53.7639 83.2009 53.7639 82.9841 53.6147 82.8396L53.0178 82.1893C52.9432 82.0448 52.7194 82.0448 52.5702 82.1532Z" fill="#141D1E"/>
<path id="Vector_146" d="M49.25 80.7443C49.2127 80.9249 49.3246 81.1056 49.5111 81.1056L50.4064 81.2501C50.593 81.2862 50.7795 81.1778 50.7795 80.9972C50.8168 80.8165 50.7049 80.6359 50.5183 80.6359L49.6231 80.4914C49.4738 80.4191 49.2873 80.5636 49.25 80.7443Z" fill="#141D1E"/>
<path id="Vector_147" d="M45.7436 81.3584C45.8182 81.539 46.0047 81.6112 46.1912 81.539L47.0119 81.1777C47.1985 81.1055 47.2731 80.9248 47.1985 80.7442C47.1239 80.5636 46.9373 80.4913 46.7508 80.5636L45.9301 80.9248C45.7436 80.9971 45.669 81.1777 45.7436 81.3584Z" fill="#141D1E"/>
</g>
<path id="Vector_148" d="M59.8445 84.6459C59.3595 81.7919 57.83 79.2991 55.4426 77.565C53.0178 75.7948 50.0335 75.0722 47.0118 75.5057C44.0275 75.9393 41.3416 77.4566 39.551 79.8049C38.4692 81.2138 37.7231 82.8757 37.4619 84.6459H35.0745C35.3729 82.406 36.2682 80.2745 37.6858 78.4682C39.8867 75.6141 43.0576 73.7716 46.6761 73.2659C50.2946 72.7601 53.9131 73.6271 56.8228 75.7586C59.8072 77.9263 61.7097 81.0693 62.2319 84.6459H59.8445V84.6459Z" fill="#474747"/>
<g id="Group_11">
<path id="Vector_149" d="M69.2449 96.0982C63.6865 92.0881 62.5674 84.5014 66.6709 79.1185C70.8116 73.7355 78.6455 72.6517 84.2038 76.6257C89.7621 80.6358 90.8812 88.2225 86.7778 93.6055C82.6743 98.9884 74.8032 100.108 69.2449 96.0982Z" fill="#141D1E"/>
<path id="Vector_150" d="M72.5274 91.8713C69.3939 89.5953 68.7597 85.3323 71.0726 82.2976C73.4228 79.263 77.8246 78.6488 80.9582 80.8887C84.0917 83.1647 84.7259 87.4277 82.413 90.4624C80.1002 93.4971 75.661 94.1473 72.5274 91.8713Z" fill="#3C5151"/>
<path id="Vector_151" d="M72.8262 91.4741C69.9165 89.3787 69.3196 85.4047 71.4833 82.5868C73.6469 79.7689 77.7504 79.1908 80.6601 81.2862C83.5698 83.3816 84.1667 87.3556 82.003 90.1735C79.8394 92.9914 75.7359 93.5694 72.8262 91.4741Z" fill="#2A3C3D"/>
<path id="Vector_152" d="M73.535 90.5346C71.1475 88.8367 70.6626 85.5491 72.4532 83.2731C74.2065 80.961 77.6012 80.4913 79.9513 82.2254C82.3388 83.9234 82.8237 87.2109 81.0331 89.4869C79.2798 91.7991 75.9225 92.2687 73.535 90.5346Z" fill="#476363"/>
<path id="Vector_153" d="M73.9453 90.0289C71.8563 88.5115 71.4087 85.6575 72.9754 83.6344C74.5422 81.6112 77.4892 81.1777 79.5783 82.695C81.6673 84.2124 82.115 87.0664 80.5482 89.0896C78.9814 91.1488 76.0344 91.5462 73.9453 90.0289Z" fill="#607C7B"/>
<path id="Vector_154" d="M74.766 88.945C73.3112 87.8974 72.9754 85.8742 74.0946 84.4291C75.1764 83.0202 77.2654 82.695 78.7576 83.7789C80.2125 84.8265 80.5482 86.8497 79.4291 88.2948C78.3099 89.7398 76.2209 90.0289 74.766 88.945Z" fill="#2A3C3D"/>
<path id="Vector_155" d="M75.7732 87.6445C75.0644 87.1387 74.9152 86.1633 75.4375 85.4407C75.9597 84.7543 76.967 84.6098 77.713 85.1156C78.4218 85.6214 78.571 86.5968 78.0488 87.3193C77.5265 88.0058 76.482 88.1503 75.7732 87.6445Z" fill="#141D1E"/>
<path id="Vector_156" d="M78.6829 89.9205C78.4964 89.776 78.4591 89.5231 78.6083 89.3786C78.7575 89.1979 79.0186 89.1618 79.1678 89.3063C79.3543 89.4508 79.3916 89.7037 79.2424 89.8482C79.1305 90.0289 78.8694 90.065 78.6829 89.9205Z" fill="#141D1E"/>
<path id="Vector_157" d="M76.2209 90.5347C76.0344 90.3902 75.9971 90.1373 76.1463 89.9928C76.2955 89.8122 76.5567 89.7761 76.7059 89.9206C76.8924 90.0651 76.9297 90.318 76.7805 90.4625C76.6686 90.6431 76.4074 90.6792 76.2209 90.5347Z" fill="#141D1E"/>
<path id="Vector_158" d="M73.945 89.6676C73.7585 89.5231 73.7212 89.2702 73.8705 89.1257C74.0197 88.9451 74.2808 88.9089 74.43 89.0534C74.6165 89.198 74.6538 89.4508 74.5046 89.5953C74.3927 89.776 74.1316 89.8121 73.945 89.6676Z" fill="#141D1E"/>
<path id="Vector_159" d="M72.6023 87.4639C72.4158 87.3194 72.3785 87.0665 72.5277 86.922C72.6769 86.7413 72.938 86.7052 73.0872 86.8497C73.2737 86.9942 73.311 87.2471 73.1618 87.3916C73.0499 87.5361 72.7888 87.5723 72.6023 87.4639Z" fill="#141D1E"/>
<path id="Vector_160" d="M72.8259 85.0794C72.6394 84.9349 72.6021 84.682 72.7513 84.5375C72.9005 84.3569 73.1617 84.3207 73.3109 84.4653C73.4974 84.6098 73.5347 84.8627 73.3855 85.0072C73.2735 85.1878 73.0124 85.2239 72.8259 85.0794Z" fill="#141D1E"/>
<path id="Vector_161" d="M74.3928 83.3092C74.2063 83.1647 74.169 82.9118 74.3182 82.7673C74.4674 82.5867 74.7285 82.5505 74.8778 82.695C75.0643 82.8396 75.1016 83.0925 74.9524 83.237C74.8405 83.4176 74.5793 83.4537 74.3928 83.3092Z" fill="#141D1E"/>
<path id="Vector_162" d="M76.7058 82.7673C76.5193 82.6228 76.482 82.3699 76.6312 82.2254C76.7804 82.0448 77.0415 82.0086 77.1907 82.1531C77.3773 82.2976 77.4146 82.5505 77.2654 82.695C77.1534 82.8757 76.8923 82.9118 76.7058 82.7673Z" fill="#141D1E"/>
<path id="Vector_163" d="M78.9441 83.4898C78.7575 83.3453 78.7202 83.0924 78.8694 82.9479C79.0187 82.7673 79.2798 82.7312 79.429 82.8757C79.6155 83.0202 79.6528 83.2731 79.5036 83.4176C79.3917 83.5982 79.1306 83.6344 78.9441 83.4898Z" fill="#141D1E"/>
<path id="Vector_164" d="M80.3245 85.4046C80.1379 85.2601 80.1006 85.0072 80.2498 84.8627C80.3991 84.6821 80.6602 84.646 80.8094 84.7905C80.9959 84.935 81.0332 85.1879 80.884 85.3324C80.7721 85.513 80.511 85.5491 80.3245 85.4046Z" fill="#141D1E"/>
<path id="Vector_165" d="M80.3245 87.8974C80.1379 87.7529 80.1006 87.5 80.2498 87.3555C80.3991 87.1749 80.6602 87.1387 80.8094 87.2832C80.9959 87.4277 81.0332 87.6806 80.884 87.8251C80.7721 87.9696 80.511 88.0058 80.3245 87.8974Z" fill="#141D1E"/>
<path id="Vector_166" d="M80.6597 90.7514C80.5105 90.6431 80.5105 90.4263 80.6224 90.2818L81.2192 89.6315C81.3312 89.487 81.555 89.487 81.7042 89.5954C81.8534 89.7038 81.8534 89.9205 81.7415 90.065L81.1447 90.7153C80.9954 90.8598 80.7716 90.8598 80.6597 90.7514Z" fill="#141D1E"/>
<path id="Vector_167" d="M77.1159 92.2327C77.0786 92.0521 77.1906 91.8714 77.3398 91.8353L78.1978 91.6186C78.3843 91.5824 78.5708 91.6908 78.6081 91.8353C78.6454 92.0159 78.5335 92.1966 78.347 92.2327L77.489 92.4494C77.3398 92.5217 77.1532 92.4133 77.1159 92.2327Z" fill="#141D1E"/>
<path id="Vector_168" d="M73.6469 91.3295C73.7215 91.185 73.9454 91.1127 74.0946 91.185L74.9153 91.5824C75.0645 91.6546 75.1391 91.8714 75.0645 92.0159C74.9899 92.1604 74.7661 92.2327 74.6168 92.1604L73.7961 91.763C73.6469 91.6908 73.5723 91.474 73.6469 91.3295Z" fill="#141D1E"/>
<path id="Vector_169" d="M71.2968 88.6199C71.446 88.5477 71.6699 88.5838 71.7445 88.7644L72.1548 89.5231C72.2294 89.6676 72.1548 89.8844 72.0056 89.9566C71.8564 90.0289 71.6326 89.9566 71.558 89.8121L71.1476 89.0534C71.073 88.9089 71.1103 88.7283 71.2968 88.6199Z" fill="#141D1E"/>
<path id="Vector_170" d="M70.8861 85.1878C71.0727 85.2239 71.1846 85.3684 71.1846 85.549L71.0727 86.4161C71.0354 86.5967 70.8861 86.7051 70.6996 86.7051C70.5131 86.669 70.4012 86.5245 70.4012 86.3438L70.5131 85.4768C70.5504 85.2962 70.6996 85.1878 70.8861 85.1878Z" fill="#141D1E"/>
<path id="Vector_171" d="M72.5273 82.1893C72.6765 82.2977 72.7138 82.5144 72.6019 82.6589L72.0424 83.3453C71.9304 83.4898 71.7066 83.526 71.5574 83.4176C71.4082 83.3092 71.3709 83.0925 71.4828 82.948L72.0424 82.2615C72.1543 82.117 72.3781 82.0809 72.5273 82.1893Z" fill="#141D1E"/>
<path id="Vector_172" d="M82.5996 85.1156C82.4131 85.1156 82.2639 85.2601 82.2639 85.4408L82.3012 86.3078C82.3012 86.4885 82.4505 86.633 82.637 86.633C82.8235 86.633 82.9727 86.4885 82.9727 86.3078L82.9354 85.4408C82.9354 85.224 82.7862 85.0795 82.5996 85.1156Z" fill="#141D1E"/>
<path id="Vector_173" d="M80.6971 82.1532C80.5479 82.2615 80.5479 82.4783 80.6598 82.6228L81.2567 83.2731C81.3686 83.4176 81.5924 83.4176 81.7416 83.3092C81.8908 83.2009 81.8908 82.9841 81.7416 82.8396L81.1448 82.1893C81.0701 82.0448 80.8463 82.0448 80.6971 82.1532Z" fill="#141D1E"/>
<path id="Vector_174" d="M77.377 80.7443C77.3397 80.9249 77.4516 81.1056 77.6381 81.1056L78.5334 81.2501C78.7199 81.2862 78.9064 81.1778 78.9064 80.9972C78.9437 80.8165 78.8318 80.6359 78.6453 80.6359L77.75 80.4914C77.5635 80.4191 77.4143 80.5636 77.377 80.7443Z" fill="#141D1E"/>
<path id="Vector_175" d="M73.8706 81.3584C73.9452 81.539 74.1317 81.6112 74.3182 81.539L75.1389 81.1777C75.3254 81.1055 75.4 80.9248 75.3254 80.7442C75.2508 80.5636 75.0643 80.4913 74.8778 80.5636L74.0571 80.9248C73.8706 80.9971 73.796 81.1777 73.8706 81.3584Z" fill="#141D1E"/>
</g>
<path id="Vector_176" d="M87.9343 84.6459C87.4493 81.7919 85.9199 79.2991 83.5324 77.565C81.1076 75.7948 78.1233 75.0722 75.1017 75.5057C72.1173 75.9393 69.4314 77.4566 67.6408 79.8049C66.559 81.2138 65.8129 82.8757 65.5518 84.6459H63.1643C63.4627 82.406 64.358 80.2745 65.7756 78.4682C67.9766 75.6141 71.1474 73.7716 74.7659 73.2659C78.3844 72.7601 82.0029 73.6271 84.9127 75.7586C87.897 77.9263 89.7995 81.0693 90.3218 84.6459H87.9343V84.6459Z" fill="#474747"/>
<g id="Group_12">
<path id="Vector_177" d="M97.3723 96.0982C91.814 92.0881 90.6948 84.5014 94.7983 79.1185C98.939 73.7355 106.773 72.6517 112.331 76.6257C117.89 80.6358 119.009 88.2225 114.905 93.6055C110.764 98.9884 102.931 100.108 97.3723 96.0982Z" fill="#141D1E"/>
<path id="Vector_178" d="M100.655 91.8713C97.5214 89.5953 96.8872 85.3323 99.2 82.2976C101.55 79.263 105.952 78.6488 109.086 80.8887C112.219 83.1647 112.853 87.4277 110.54 90.4624C108.19 93.4971 103.788 94.1473 100.655 91.8713Z" fill="#3C5151"/>
<path id="Vector_179" d="M100.954 91.4741C98.0439 89.3787 97.447 85.4047 99.6107 82.5868C101.774 79.7689 105.878 79.1908 108.788 81.2862C111.697 83.3816 112.294 87.3556 110.13 90.1735C107.967 92.9914 103.863 93.5694 100.954 91.4741Z" fill="#2A3C3D"/>
<path id="Vector_180" d="M101.662 90.5346C99.275 88.8367 98.79 85.5491 100.581 83.2731C102.334 80.961 105.729 80.4913 108.079 82.2254C110.466 83.9234 110.951 87.2109 109.161 89.4869C107.407 91.7991 104.05 92.2687 101.662 90.5346Z" fill="#476363"/>
<path id="Vector_181" d="M102.035 90.0289C99.9462 88.5115 99.4985 85.6575 101.065 83.6344C102.632 81.6112 105.579 81.1777 107.668 82.695C109.757 84.2124 110.205 87.0664 108.638 89.0896C107.109 91.1488 104.124 91.5462 102.035 90.0289Z" fill="#607C7B"/>
<path id="Vector_182" d="M102.894 88.945C101.439 87.8974 101.103 85.8742 102.222 84.4291C103.304 83.0202 105.393 82.695 106.885 83.7789C108.34 84.8265 108.676 86.8497 107.557 88.2948C106.437 89.7398 104.348 90.0289 102.894 88.945Z" fill="#2A3C3D"/>
<path id="Vector_183" d="M103.901 87.6445C103.192 87.1387 103.043 86.1633 103.565 85.4407C104.087 84.7543 105.094 84.6098 105.84 85.1156C106.549 85.6214 106.698 86.5968 106.176 87.3193C105.617 88.0058 104.609 88.1503 103.901 87.6445Z" fill="#141D1E"/>
<path id="Vector_184" d="M106.81 89.9205C106.624 89.776 106.586 89.5231 106.736 89.3786C106.885 89.1979 107.146 89.1618 107.295 89.3063C107.482 89.4508 107.519 89.7037 107.37 89.8482C107.258 90.0289 106.997 90.065 106.81 89.9205Z" fill="#141D1E"/>
<path id="Vector_185" d="M104.348 90.5347C104.161 90.3902 104.124 90.1373 104.273 89.9928C104.423 89.8122 104.684 89.7761 104.833 89.9206C105.019 90.0651 105.057 90.318 104.907 90.4625C104.796 90.6431 104.534 90.6792 104.348 90.5347Z" fill="#141D1E"/>
<path id="Vector_186" d="M102.073 89.6676C101.886 89.5231 101.849 89.2702 101.998 89.1257C102.147 88.9451 102.408 88.9089 102.557 89.0534C102.744 89.198 102.781 89.4508 102.632 89.5953C102.483 89.776 102.259 89.8121 102.073 89.6676Z" fill="#141D1E"/>
<path id="Vector_187" d="M100.73 87.4639C100.543 87.3194 100.506 87.0665 100.655 86.922C100.804 86.7413 101.065 86.7052 101.215 86.8497C101.401 86.9942 101.438 87.2471 101.289 87.3916C101.177 87.5361 100.916 87.5723 100.73 87.4639Z" fill="#141D1E"/>
<path id="Vector_188" d="M100.953 85.0794C100.767 84.9349 100.73 84.682 100.879 84.5375C101.028 84.3569 101.289 84.3207 101.438 84.4653C101.625 84.6098 101.662 84.8627 101.513 85.0072C101.364 85.1878 101.14 85.2239 100.953 85.0794Z" fill="#141D1E"/>
<path id="Vector_189" d="M102.52 83.3092C102.334 83.1647 102.296 82.9118 102.446 82.7673C102.595 82.5867 102.856 82.5505 103.005 82.695C103.192 82.8396 103.229 83.0925 103.08 83.237C102.968 83.4176 102.707 83.4537 102.52 83.3092Z" fill="#141D1E"/>
<path id="Vector_190" d="M104.833 82.7673C104.647 82.6228 104.609 82.3699 104.759 82.2254C104.908 82.0448 105.169 82.0086 105.318 82.1531C105.505 82.2976 105.542 82.5505 105.393 82.695C105.281 82.8757 105.02 82.9118 104.833 82.7673Z" fill="#141D1E"/>
<path id="Vector_191" d="M107.072 83.4898C106.885 83.3453 106.848 83.0924 106.997 82.9479C107.146 82.7673 107.407 82.7312 107.556 82.8757C107.743 83.0202 107.78 83.2731 107.631 83.4176C107.519 83.5982 107.258 83.6344 107.072 83.4898Z" fill="#141D1E"/>
<path id="Vector_192" d="M108.451 85.4046C108.265 85.2601 108.228 85.0072 108.377 84.8627C108.526 84.6821 108.787 84.646 108.936 84.7905C109.123 84.935 109.16 85.1879 109.011 85.3324C108.899 85.513 108.638 85.5491 108.451 85.4046Z" fill="#141D1E"/>
<path id="Vector_193" d="M108.451 87.8974C108.265 87.7529 108.228 87.5 108.377 87.3555C108.526 87.1749 108.787 87.1387 108.936 87.2832C109.123 87.4277 109.16 87.6806 109.011 87.8251C108.899 87.9696 108.638 88.0058 108.451 87.8974Z" fill="#141D1E"/>
<path id="Vector_194" d="M108.75 90.7514C108.601 90.6431 108.601 90.4263 108.713 90.2818L109.31 89.6315C109.422 89.487 109.645 89.487 109.795 89.5954C109.944 89.7038 109.944 89.9205 109.832 90.065L109.235 90.7153C109.123 90.8598 108.899 90.8598 108.75 90.7514Z" fill="#141D1E"/>
<path id="Vector_195" d="M105.244 92.2327C105.206 92.0521 105.318 91.8714 105.505 91.8353L106.363 91.6186C106.549 91.5824 106.736 91.6908 106.773 91.8353C106.81 92.0159 106.698 92.1966 106.549 92.2327L105.691 92.4494C105.467 92.5217 105.281 92.4133 105.244 92.2327Z" fill="#141D1E"/>
<path id="Vector_196" d="M101.774 91.3295C101.849 91.185 102.073 91.1127 102.222 91.185L103.043 91.5824C103.192 91.6546 103.267 91.8714 103.192 92.0159C103.117 92.1604 102.893 92.2327 102.744 92.1604L101.924 91.763C101.774 91.6908 101.7 91.474 101.774 91.3295Z" fill="#141D1E"/>
<path id="Vector_197" d="M99.4238 88.6199C99.573 88.5477 99.7968 88.5838 99.8714 88.7644L100.282 89.5231C100.356 89.6676 100.282 89.8844 100.133 89.9566C99.9833 90.0289 99.7595 89.9566 99.6849 89.8121L99.2745 89.0534C99.1626 88.9089 99.2372 88.7283 99.4238 88.6199Z" fill="#141D1E"/>
<path id="Vector_198" d="M99.0136 85.1878C99.2001 85.2239 99.312 85.3684 99.312 85.549L99.2001 86.4161C99.1628 86.5967 99.0136 86.7051 98.8271 86.7051C98.6405 86.669 98.5286 86.5245 98.5286 86.3438L98.6405 85.4768C98.6778 85.2962 98.8271 85.1878 99.0136 85.1878Z" fill="#141D1E"/>
<path id="Vector_199" d="M100.618 82.1893C100.767 82.2977 100.804 82.5144 100.692 82.6589L100.133 83.3453C100.021 83.4898 99.797 83.526 99.6478 83.4176C99.4986 83.3092 99.4613 83.0925 99.5732 82.948L100.133 82.2615C100.282 82.117 100.468 82.0809 100.618 82.1893Z" fill="#141D1E"/>
<path id="Vector_200" d="M110.727 85.1156C110.541 85.1156 110.391 85.2601 110.391 85.4408L110.429 86.3078C110.429 86.4885 110.578 86.633 110.764 86.633C110.951 86.633 111.1 86.4885 111.1 86.3078L111.063 85.4408C111.063 85.224 110.914 85.0795 110.727 85.1156Z" fill="#141D1E"/>
<path id="Vector_201" d="M108.825 82.1532C108.675 82.2615 108.675 82.4783 108.787 82.6228L109.384 83.2731C109.496 83.4176 109.72 83.4176 109.869 83.3092C110.018 83.2009 110.018 82.9841 109.869 82.8396L109.272 82.1893C109.16 82.0448 108.974 82.0448 108.825 82.1532Z" fill="#141D1E"/>
<path id="Vector_202" d="M105.504 80.7443C105.467 80.9249 105.579 81.1056 105.766 81.1056L106.661 81.2501C106.847 81.2862 107.034 81.1778 107.034 80.9972C107.071 80.8165 106.959 80.6359 106.773 80.6359L105.877 80.4914C105.691 80.4191 105.504 80.5636 105.504 80.7443Z" fill="#141D1E"/>
<path id="Vector_203" d="M101.961 81.3584C102.035 81.539 102.222 81.6112 102.409 81.539L103.229 81.1777C103.416 81.1055 103.49 80.9248 103.416 80.7442C103.341 80.5636 103.155 80.4913 102.968 80.5636L102.147 80.9248C101.961 80.9971 101.886 81.1777 101.961 81.3584Z" fill="#141D1E"/>
</g>
<path id="Vector_204" d="M116.062 84.6459C115.577 81.7919 114.047 79.2991 111.66 77.565C109.235 75.7948 106.251 75.0722 103.229 75.5057C100.245 75.9393 97.5589 77.4566 95.7683 79.8049C94.6864 81.2138 93.9404 82.8757 93.6792 84.6459H91.2918C91.5902 82.406 92.4855 80.2745 93.9031 78.4682C96.104 75.6141 99.2749 73.7716 102.893 73.2659C106.512 72.7601 110.13 73.6271 113.04 75.7586C116.024 77.9263 117.927 81.0693 118.449 84.6459H116.062V84.6459Z" fill="#474747"/>
<path id="Vector_205" d="M366.186 58.9957V59.1041C366.186 61.091 364.321 61.091 364.321 61.091H307.32V58.9957H366.186Z" fill="#DD7619"/>
<path id="Vector_206" d="M354.398 42.2326C356.002 42.2326 357.308 40.9681 357.308 39.4147V25.0361C357.308 23.4826 356.002 22.2182 354.398 22.2182H337.051C335.447 22.2182 334.142 23.4826 334.142 25.0361V39.4147C334.142 40.9681 335.447 42.2326 337.051 42.2326H354.398Z" fill="#DD7619"/>
<path id="Vector_207" d="M334.477 37.5361C334.627 37.5361 334.776 37.6806 334.776 37.8251V57.7312L356.45 57.6951V42.3772C356.673 42.2688 356.86 42.1243 357.046 41.9798V57.948C357.046 58.0925 356.897 58.237 356.748 58.237L334.477 58.2731C334.403 58.2731 334.328 58.237 334.254 58.2009C334.216 58.1647 334.179 58.0925 334.179 57.9841V37.789C334.179 37.6445 334.291 37.5361 334.477 37.5361Z" fill="#DD7619"/>
<path id="Vector_208" d="M334.701 38.8367C334.701 40.3901 336.007 41.6546 337.611 41.6546H353.801C355.405 41.6546 356.711 40.3901 356.711 38.8367V25.578C356.711 24.0245 355.405 22.7601 353.801 22.7601H337.611C336.007 22.7601 334.701 24.0245 334.701 25.578V38.8367V38.8367Z" fill="#FFCDA4"/>
<path id="Vector_209" d="M331.978 70.9176H351.563L356.972 79.8049L356.898 89.1618H355.219V80.3468L350.407 72.9768H333.06L328.323 80.3468V89.1618H326.644L326.569 79.8049L331.978 70.9176Z" fill="#DD7619"/>
<path id="Vector_210" d="M340.633 44.1474C340.633 44.6171 340.222 45.0145 339.738 45.0145H337.574C337.089 45.0145 336.679 44.6171 336.679 44.1474V43.9668C336.679 43.4971 337.089 43.0997 337.574 43.0997H339.738C340.222 43.0997 340.633 43.4971 340.633 43.9668V44.1474Z" fill="#BF6717"/>
<path id="Vector_211" d="M337.723 43.3164H339.588C339.998 43.3164 340.334 43.6416 340.334 44.039V44.1474H336.939V44.039C336.977 43.6416 337.312 43.3164 337.723 43.3164Z" fill="#DD7619"/>
<path id="Vector_212" d="M360.553 21.3512C359.695 20.5564 358.576 20.6286 358.539 20.6286H348.355C348.28 20.4841 348.094 20.3757 347.907 20.3757C347.609 20.3757 347.385 20.5925 347.385 20.8815C347.385 21.1705 347.609 21.3873 347.907 21.3873C348.056 21.3873 348.206 21.315 348.28 21.2066H358.576C358.576 21.2066 359.509 21.1705 360.18 21.7847C360.665 22.2543 360.926 22.9408 360.926 23.8439L360.367 40.8598C360.367 40.8959 360.255 42.1243 357.83 42.1243H357.233C357.159 41.9798 356.972 41.8714 356.786 41.8714C356.487 41.8714 356.263 42.0881 356.263 42.3772C356.263 42.6662 356.487 42.8829 356.786 42.8829C356.935 42.8829 357.084 42.8107 357.159 42.7023H357.793C360.814 42.7023 360.926 41.0043 360.926 40.9321L361.486 23.9162C361.486 22.7601 361.187 21.9292 360.553 21.3512Z" fill="#BF6717"/>
<path id="Vector_213" d="M357.568 22.3266L358.24 31.2138C358.24 31.2138 358.576 32.2615 359.471 32.0448C360.366 31.828 362.343 30.4913 362.306 28.8294L361.97 24.9638C361.97 24.9638 361.224 22.0375 357.568 22.3266Z" fill="#63330B"/>
<path id="Vector_214" d="M357.606 35.4769L358.128 40.2457C358.128 40.2457 361.672 39.7038 361.859 38.8729C362.045 38.0419 361.672 36.4885 361.672 36.4885C361.672 36.4885 360.292 35.0434 357.606 35.4769Z" fill="#63330B"/>
<path id="Vector_215" d="M358.278 22.5794C358.278 22.5794 361.076 23.0491 361.784 25.1445L361.934 27.7456L361.374 25.1083C361.374 25.1083 360.367 23.4465 358.352 23.1936L358.278 22.5794Z" fill="#BF6717"/>
<path id="Vector_216" d="M268.86 2.27607H294.338V67.1243H268.86V2.27607Z" fill="#1E6B53"/>
<path id="Vector_217" d="M236.33 2.27607H261.809V67.1243H236.33V2.27607Z" fill="#1E6B53"/>
<path id="Vector_218" d="M203.801 2.27607H229.28V67.1243H203.801V2.27607Z" fill="#1E6B53"/>
<path id="Vector_219" d="M171.272 2.27607H196.75V67.1243H171.272V2.27607Z" fill="#1E6B53"/>
<path id="Vector_220" d="M138.742 2.27607H164.221V67.1243H138.742V2.27607Z" fill="#1E6B53"/>
<path id="Vector_221" d="M106.176 2.27607H131.655V67.1243H106.176V2.27607Z" fill="#1E6B53"/>
<path id="Vector_222" d="M73.6467 2.27607H99.1255V67.1243H73.6467V2.27607Z" fill="#1E6B53"/>
<path id="Vector_223" d="M41.1174 2.27607H66.5962V67.1243H41.1174V2.27607Z" fill="#1E6B53"/>
<path id="Vector_224" d="M8.58817 2.27607H34.0669V67.1243H8.58817V2.27607Z" fill="#1E6B53"/>
<path id="Vector_225" d="M346.639 33.6705C352.421 36.7775 345.818 30.4913 349.138 30.961C351.115 31.25 354.398 33.4538 356.748 35.1879V38.8367C356.748 40.3902 355.442 41.6546 353.838 41.6546H337.648C336.044 41.6546 334.739 40.3902 334.739 38.8367V28.0708C339.178 29.3353 342.871 31.6474 346.639 33.6705Z" fill="#FFBC80"/>
<g id="Group_13">
<path id="Vector_226" d="M307.022 75.8309H307.619V87.6806H307.022V75.8309Z" fill="#DD7619"/>
</g>
<g id="logo" opacity="0.8">
<g id="Group_14" opacity="0.7">
<path id="Vector_227" opacity="0.7" d="M141.353 43.8223H139.637C139.264 43.3526 138.929 42.9191 138.63 42.5578C138.332 42.1966 137.996 41.8353 137.623 41.474H136.989V43.1359C136.989 43.2081 136.989 43.2804 137.026 43.3526C137.063 43.4249 137.138 43.461 137.25 43.4971C137.287 43.4971 137.399 43.5333 137.548 43.5333C137.698 43.5333 137.81 43.5694 137.884 43.5694V43.8223H135.198V43.5694C135.273 43.5694 135.385 43.5694 135.497 43.5333C135.646 43.5333 135.721 43.4971 135.795 43.4971C135.87 43.461 135.944 43.4249 135.982 43.3526C136.019 43.2804 136.056 43.2081 136.056 43.0997V39.3425C136.056 39.2703 136.056 39.198 136.019 39.1258C135.982 39.0535 135.907 39.0174 135.795 38.9813C135.721 38.9451 135.609 38.9451 135.497 38.909C135.385 38.8729 135.273 38.8729 135.198 38.8729V38.62H138.108C138.369 38.62 138.63 38.6561 138.854 38.6922C139.078 38.7284 139.302 38.8006 139.488 38.909C139.675 39.0174 139.824 39.1258 139.936 39.3064C140.048 39.4509 140.085 39.6677 140.085 39.8844C140.085 40.1012 140.048 40.2457 139.973 40.4263C139.899 40.5709 139.787 40.7154 139.637 40.8237C139.488 40.9321 139.339 41.0044 139.152 41.1128C138.966 41.2211 138.742 41.2573 138.518 41.2934C138.817 41.6185 139.078 41.9076 139.302 42.1604C139.526 42.3772 139.749 42.6662 140.048 42.9914C140.197 43.1359 140.309 43.2443 140.384 43.3165C140.495 43.3888 140.607 43.461 140.682 43.4971C140.757 43.5333 140.868 43.5694 140.98 43.5694C141.092 43.5694 141.204 43.6055 141.279 43.6055V43.8223H141.353V43.8223ZM139.003 39.9567C139.003 39.6315 138.891 39.3787 138.668 39.198C138.444 39.0174 138.145 38.909 137.735 38.909H136.989V41.1489H137.586C137.996 41.1489 138.332 41.0405 138.593 40.8237C138.891 40.607 139.003 40.318 139.003 39.9567Z" fill="white"/>
<path id="Vector_228" opacity="0.7" d="M146.875 39.2342C147.136 39.4871 147.36 39.7761 147.546 40.1012C147.733 40.4264 147.77 40.8238 147.77 41.2212C147.77 41.6186 147.695 42.016 147.546 42.3411C147.397 42.6662 147.173 42.9553 146.875 43.2081C146.614 43.461 146.278 43.6417 145.905 43.7501C145.532 43.8946 145.159 43.9307 144.748 43.9307C144.301 43.9307 143.89 43.8584 143.517 43.7139C143.144 43.5694 142.809 43.3888 142.547 43.1359C142.286 42.883 142.062 42.594 141.913 42.2688C141.764 41.9437 141.689 41.5824 141.689 41.185C141.689 40.7515 141.764 40.3902 141.913 40.0651C142.062 39.7399 142.286 39.4509 142.585 39.198C142.846 38.9451 143.182 38.7645 143.555 38.6561C143.928 38.5116 144.301 38.4755 144.711 38.4755C145.121 38.4755 145.532 38.5477 145.905 38.6561C146.278 38.7645 146.614 39.0174 146.875 39.2342ZM146.241 42.9191C146.39 42.7024 146.539 42.4495 146.614 42.1605C146.688 41.8714 146.725 41.5824 146.725 41.2212C146.725 40.8599 146.688 40.5347 146.614 40.2457C146.539 39.9567 146.39 39.7038 146.241 39.487C146.091 39.2703 145.867 39.1258 145.644 39.0174C145.383 38.909 145.121 38.8368 144.786 38.8368C144.413 38.8368 144.114 38.909 143.89 39.0535C143.667 39.198 143.443 39.3787 143.294 39.5954C143.144 39.8122 143.032 40.0651 142.958 40.3541C142.883 40.6431 142.846 40.9321 142.846 41.2573C142.846 41.6186 142.883 41.9437 142.958 42.1966C143.032 42.4856 143.144 42.7385 143.331 42.9553C143.48 43.172 143.704 43.3527 143.928 43.461C144.189 43.5694 144.45 43.6417 144.786 43.6417C145.121 43.6417 145.383 43.5694 145.644 43.461C145.867 43.3165 146.054 43.1359 146.241 42.9191Z" fill="white"/>
<path id="Vector_229" opacity="0.7" d="M154.373 38.8729C154.336 38.8729 154.224 38.9091 154.149 38.9091C154.037 38.9452 153.963 38.9813 153.925 38.9813C153.813 39.0536 153.739 39.0897 153.702 39.1258C153.664 39.162 153.59 39.2342 153.478 39.3787C153.254 39.6316 153.03 39.9206 152.844 40.2096C152.657 40.4987 152.396 40.8238 152.097 41.2573C151.986 41.4018 151.911 41.5464 151.874 41.6186C151.836 41.727 151.836 41.8354 151.836 42.016V43.0276C151.836 43.0998 151.874 43.2082 151.911 43.2443C151.948 43.3166 152.023 43.3527 152.135 43.3888C152.209 43.425 152.321 43.425 152.47 43.4611C152.62 43.4972 152.769 43.4972 152.844 43.4972V43.7501H149.896V43.4972C149.971 43.4972 150.12 43.4972 150.27 43.4611C150.419 43.4611 150.568 43.425 150.605 43.425C150.717 43.3888 150.792 43.3527 150.829 43.2805C150.866 43.2082 150.904 43.1359 150.904 43.0637V41.7992C150.904 41.7631 150.866 41.6909 150.829 41.5825C150.754 41.4741 150.717 41.3657 150.605 41.2212C150.419 40.9322 150.232 40.6432 150.008 40.318C149.785 39.9929 149.598 39.7039 149.449 39.4871C149.337 39.3426 149.262 39.2342 149.188 39.162C149.113 39.0897 149.038 39.0175 148.927 38.9813C148.852 38.9452 148.777 38.9091 148.665 38.9091C148.554 38.8729 148.479 38.8729 148.404 38.8729V38.6201H151.09V38.8729C150.792 38.8729 150.568 38.9091 150.456 38.9091C150.344 38.9091 150.27 38.9813 150.27 39.0175C150.27 39.0175 150.27 39.0536 150.307 39.0897C150.307 39.1258 150.344 39.162 150.381 39.2342C150.419 39.3065 150.456 39.3787 150.531 39.451C150.568 39.5232 150.643 39.5955 150.68 39.7039C150.829 39.9206 150.978 40.1374 151.09 40.3542C151.239 40.5709 151.426 40.8599 151.65 41.1851C152.097 40.5709 152.47 40.1013 152.732 39.74C152.993 39.3787 153.105 39.1981 153.105 39.1258C153.105 39.0536 153.067 39.0175 153.03 38.9813C152.993 38.9452 152.918 38.9091 152.844 38.9091C152.769 38.8729 152.657 38.8729 152.545 38.8729C152.433 38.8729 152.359 38.8729 152.247 38.8368V38.5839H154.448V38.8729H154.373V38.8729Z" fill="white"/>
<path id="Vector_230" opacity="0.7" d="M160.976 43.8223H158.365V43.5694C158.588 43.5694 158.775 43.5333 158.924 43.4972C159.073 43.461 159.148 43.4249 159.148 43.3527C159.148 43.3165 159.148 43.3165 159.148 43.2804C159.148 43.2443 159.148 43.2081 159.111 43.2081L158.588 42.0521H156.387C156.313 42.2327 156.238 42.3772 156.201 42.4856C156.164 42.6301 156.089 42.7385 156.052 42.8469C156.014 42.9553 155.977 43.0275 155.977 43.0998C155.977 43.172 155.94 43.2081 155.94 43.2443C155.94 43.3527 156.052 43.4249 156.238 43.461C156.425 43.4972 156.649 43.5333 156.872 43.5694V43.8223H154.485V43.5694C154.559 43.5694 154.671 43.5333 154.783 43.5333C154.895 43.4972 155.007 43.461 155.082 43.4249C155.194 43.3527 155.306 43.2804 155.343 43.2081C155.417 43.1359 155.455 43.0275 155.529 42.9191C155.865 42.2688 156.201 41.5463 156.574 40.7154C156.947 39.8845 157.283 39.1619 157.581 38.5478H157.954L160.043 43.0275C160.08 43.1359 160.155 43.2081 160.192 43.2443C160.267 43.3165 160.342 43.3527 160.416 43.4249C160.491 43.461 160.565 43.4972 160.677 43.4972C160.789 43.5333 160.864 43.5333 160.938 43.5333L160.976 43.8223ZM158.439 41.6908L157.469 39.6677L156.537 41.6908H158.439Z" fill="white"/>
<path id="Vector_231" opacity="0.7" d="M166.646 42.2689L166.497 43.8223H161.573V43.5694C161.647 43.5694 161.759 43.5695 161.871 43.5333C162.02 43.5333 162.095 43.4972 162.17 43.4972C162.244 43.4611 162.319 43.4249 162.356 43.3527C162.393 43.2804 162.431 43.2082 162.431 43.0998V39.3787C162.431 39.3065 162.431 39.2342 162.393 39.1619C162.356 39.0897 162.282 39.0536 162.207 39.0174C162.132 38.9813 162.058 38.9452 161.909 38.9452C161.797 38.909 161.685 38.9091 161.61 38.9091V38.6562H164.296V38.9091C164.221 38.9091 164.109 38.909 163.96 38.9452C163.811 38.9813 163.736 38.9813 163.662 39.0174C163.55 39.0536 163.475 39.0897 163.438 39.1619C163.401 39.2342 163.363 39.3065 163.363 39.3787V42.883C163.363 43.0275 163.363 43.1721 163.401 43.2443C163.438 43.3166 163.475 43.3888 163.55 43.4611C163.624 43.4972 163.736 43.5333 163.848 43.5333C163.998 43.5333 164.184 43.5694 164.408 43.5694C164.52 43.5694 164.632 43.5694 164.744 43.5694C164.856 43.5694 164.967 43.5695 165.079 43.5333C165.191 43.5333 165.266 43.4972 165.378 43.4611C165.452 43.4249 165.527 43.3888 165.564 43.3527C165.676 43.2443 165.825 43.0637 165.975 42.8469C166.124 42.6301 166.236 42.4495 166.31 42.305H166.646V42.2689V42.2689Z" fill="white"/>
<path id="Vector_232" opacity="0.7" d="M127.29 47.2544C127.178 47.2544 126.992 47.2906 126.805 47.3267C126.581 47.3628 126.395 47.4351 126.283 47.5073C126.134 47.5796 126.059 47.7602 125.984 48.0131C125.947 48.266 125.91 48.5912 125.91 48.9524V52.24C125.91 52.6735 125.798 53.0348 125.611 53.3238C125.425 53.649 125.164 53.9018 124.828 54.0825C124.492 54.2631 124.156 54.4076 123.821 54.4799C123.448 54.5521 123.112 54.5883 122.814 54.5883C122.291 54.5883 121.844 54.516 121.433 54.4076C121.023 54.2992 120.687 54.1186 120.389 53.938C120.128 53.7212 119.904 53.5044 119.755 53.2516C119.605 52.9987 119.531 52.7097 119.531 52.4206V47.977C119.531 47.8686 119.493 47.7602 119.456 47.6518C119.419 47.5796 119.307 47.5073 119.158 47.4351C119.046 47.399 118.934 47.3628 118.785 47.3267C118.635 47.2906 118.486 47.2906 118.412 47.2544V46.8932H122.03V47.2544C121.918 47.2544 121.769 47.2906 121.582 47.2906C121.396 47.3267 121.284 47.3628 121.209 47.3628C121.06 47.399 120.986 47.4712 120.948 47.5796C120.911 47.688 120.874 47.7964 120.874 47.9047V52.0594C120.874 52.2761 120.911 52.4568 120.948 52.7097C120.986 52.9625 121.098 53.1432 121.247 53.3238C121.396 53.5044 121.62 53.6851 121.881 53.7935C122.142 53.9018 122.515 53.9741 123 53.9741C123.448 53.9741 123.821 53.9018 124.119 53.7935C124.418 53.6851 124.679 53.5044 124.828 53.3238C124.977 53.1432 125.126 52.9264 125.201 52.7097C125.276 52.4929 125.313 52.2761 125.313 52.0955V49.0247C125.313 48.6273 125.276 48.3021 125.201 48.0492C125.126 47.7964 125.052 47.6518 124.903 47.5435C124.753 47.4712 124.567 47.399 124.306 47.3267C124.045 47.2906 123.858 47.2544 123.746 47.2544V46.8932H127.29V47.2544Z" fill="white"/>
<path id="Vector_233" opacity="0.7" d="M137.325 47.2543C137.213 47.2543 137.026 47.2905 136.803 47.3266C136.579 47.3627 136.392 47.435 136.28 47.5072C136.131 47.5795 136.019 47.7601 135.982 48.013C135.945 48.2659 135.907 48.5911 135.907 48.9523V54.4437H135.385L130.125 48.302V52.1676C130.125 52.6012 130.162 52.9263 130.237 53.1792C130.312 53.396 130.386 53.5766 130.535 53.685C130.647 53.7572 130.834 53.8295 131.132 53.9017C131.431 53.974 131.617 54.0101 131.729 54.0101V54.3714H128.185V54.0101C128.297 54.0101 128.484 53.974 128.745 53.9017C129.006 53.8295 129.155 53.7934 129.23 53.7211C129.379 53.6127 129.454 53.4682 129.528 53.2515C129.566 53.0347 129.603 52.7096 129.603 52.2038V48.4827C129.603 48.3382 129.566 48.1575 129.491 47.9769C129.416 47.8324 129.342 47.6879 129.23 47.6156C129.081 47.5072 128.894 47.3989 128.633 47.3266C128.372 47.2544 128.185 47.1821 128.036 47.1821V46.8208H130.498L135.385 52.565V48.9885C135.385 48.5549 135.348 48.2298 135.273 47.9769C135.199 47.7601 135.124 47.5795 134.975 47.5072C134.863 47.435 134.676 47.3627 134.415 47.3266C134.154 47.2544 133.968 47.2182 133.818 47.2182V46.857H137.362V47.2543H137.325V47.2543Z" fill="white"/>
<path id="Vector_234" opacity="0.7" d="M142.51 54.3714H138.593V54.0102C138.705 54.0102 138.854 54.0102 139.078 53.974C139.302 53.974 139.414 53.9379 139.526 53.9018C139.675 53.8657 139.75 53.7934 139.824 53.7211C139.899 53.6489 139.899 53.5405 139.899 53.396V47.9408C139.899 47.8324 139.862 47.724 139.824 47.6157C139.787 47.5434 139.675 47.4712 139.489 47.3989C139.377 47.3628 139.227 47.3266 139.041 47.2905C138.854 47.2544 138.705 47.2183 138.593 47.2183V46.857H142.51V47.2183C142.398 47.2183 142.249 47.2183 142.063 47.2544C141.876 47.2905 141.727 47.2905 141.615 47.3267C141.466 47.3628 141.354 47.435 141.316 47.5434C141.279 47.6518 141.242 47.7602 141.242 47.8686V53.3237C141.242 53.4321 141.279 53.5405 141.316 53.6489C141.391 53.7573 141.466 53.7934 141.615 53.8657C141.689 53.9018 141.839 53.9379 142.025 53.974C142.212 54.0102 142.398 54.0102 142.51 54.0463V54.3714Z" fill="white"/>
<path id="Vector_235" opacity="0.7" d="M151.389 50.8671C151.65 51.0116 151.836 51.1922 152.023 51.4451C152.172 51.698 152.284 51.987 152.284 52.3122C152.284 52.6734 152.209 52.9625 152.023 53.2153C151.836 53.4682 151.612 53.685 151.351 53.8656C151.09 54.0463 150.754 54.1547 150.419 54.2269C150.083 54.2992 149.71 54.3714 149.337 54.3714H145.233V54.0101C145.345 54.0101 145.457 53.974 145.644 53.974C145.83 53.9379 145.979 53.9379 146.054 53.9018C146.166 53.8656 146.278 53.7934 146.315 53.7211C146.353 53.6489 146.39 53.5405 146.39 53.396V47.9769C146.39 47.8685 146.353 47.7602 146.315 47.6518C146.278 47.5434 146.166 47.4711 146.054 47.435C145.942 47.3989 145.793 47.3266 145.644 47.3266C145.495 47.2905 145.383 47.2905 145.271 47.2905V46.9292H149.262C149.561 46.9292 149.859 46.9654 150.158 47.0015C150.456 47.0376 150.717 47.146 150.978 47.2905C151.202 47.3989 151.426 47.5795 151.575 47.7963C151.724 48.013 151.799 48.2659 151.799 48.555C151.799 48.8078 151.762 49.0607 151.65 49.2775C151.538 49.4943 151.389 49.6749 151.202 49.8194C151.016 49.9639 150.792 50.0723 150.568 50.1807C150.307 50.2891 150.046 50.3613 149.784 50.3974V50.4336C150.046 50.4697 150.307 50.5058 150.605 50.5781C150.904 50.6142 151.165 50.7226 151.389 50.8671ZM149.934 49.7471C150.083 49.6026 150.195 49.422 150.232 49.2414C150.307 49.0607 150.307 48.844 150.307 48.5911C150.307 48.1937 150.195 47.8685 149.934 47.6156C149.673 47.3628 149.262 47.2544 148.703 47.2544C148.591 47.2544 148.404 47.2544 148.218 47.2544C148.031 47.2544 147.845 47.2544 147.733 47.2544V50.1445H148.516C148.852 50.1445 149.15 50.1084 149.374 50.0362C149.598 50 149.784 49.8917 149.934 49.7471ZM150.792 52.1677C150.792 51.7341 150.605 51.3729 150.269 51.0838C149.934 50.7948 149.449 50.6503 148.777 50.6503C148.516 50.6503 148.292 50.6503 148.106 50.6503C147.919 50.6503 147.807 50.6503 147.695 50.6503V53.2876C147.695 53.5044 147.807 53.685 147.994 53.7934C148.218 53.9018 148.479 53.974 148.852 53.974C149.449 53.974 149.934 53.8295 150.232 53.5044C150.605 53.2153 150.792 52.7457 150.792 52.1677Z" fill="white"/>
<path id="Vector_236" opacity="0.7" d="M162.319 54.3715H159.968C159.446 53.6851 158.998 53.0709 158.551 52.5651C158.14 52.0594 157.693 51.5174 157.208 50.9755H156.313V53.3599C156.313 53.4683 156.35 53.5767 156.387 53.6851C156.424 53.7935 156.536 53.8657 156.686 53.9018C156.76 53.938 156.872 53.938 157.059 53.9741C157.245 54.0102 157.394 54.0102 157.506 54.0102V54.3715H153.85V54.0102C153.962 54.0102 154.074 53.9741 154.261 53.9741C154.447 53.9741 154.559 53.938 154.634 53.9018C154.746 53.8657 154.858 53.7935 154.895 53.6851C154.932 53.6128 154.97 53.4683 154.97 53.3599V47.9047C154.97 47.7964 154.932 47.688 154.895 47.5796C154.858 47.4712 154.746 47.399 154.597 47.3628C154.485 47.3267 154.373 47.2906 154.186 47.2906C154.037 47.2544 153.888 47.2544 153.776 47.2544V46.8932H157.767C158.14 46.8932 158.476 46.9293 158.812 47.0016C159.148 47.0738 159.409 47.1822 159.67 47.3267C159.931 47.4712 160.118 47.6518 160.267 47.8686C160.416 48.0854 160.491 48.3744 160.491 48.6995C160.491 48.9885 160.453 49.2414 160.341 49.4582C160.23 49.675 160.08 49.8556 159.894 50.0362C159.707 50.1807 159.483 50.3253 159.222 50.4336C158.961 50.542 158.7 50.6504 158.364 50.7227C158.775 51.2284 159.148 51.6258 159.446 51.951C159.745 52.2761 160.08 52.7096 160.491 53.1793C160.677 53.3961 160.826 53.5406 160.976 53.649C161.125 53.7573 161.274 53.8296 161.423 53.9018C161.535 53.938 161.647 53.9741 161.834 54.0102C161.983 54.0464 162.132 54.0463 162.244 54.0463V54.3715H162.319V54.3715ZM159.11 48.7718C159.11 48.3021 158.961 47.9409 158.663 47.688C158.364 47.4351 157.954 47.2906 157.394 47.2906H156.35V50.5059H157.133C157.693 50.5059 158.178 50.3614 158.551 50.0362C158.924 49.7472 159.11 49.3137 159.11 48.7718Z" fill="white"/>
<path id="Vector_237" opacity="0.7" d="M170.6 52.1677L170.451 54.3714H163.251V54.0102C163.363 54.0102 163.55 53.974 163.736 53.974C163.923 53.9379 164.072 53.9379 164.146 53.9018C164.296 53.8657 164.37 53.7934 164.408 53.685C164.445 53.6128 164.482 53.5044 164.482 53.3599V47.9408C164.482 47.8324 164.445 47.724 164.408 47.6157C164.37 47.5073 164.258 47.435 164.109 47.3989C163.997 47.3628 163.848 47.3266 163.662 47.2905C163.475 47.2544 163.326 47.2183 163.214 47.2183V46.857H169.929V48.6634H169.481C169.406 48.4105 169.22 48.1214 168.959 47.7963C168.698 47.5073 168.436 47.3266 168.175 47.2905C168.063 47.2905 167.914 47.2544 167.728 47.2544C167.541 47.2544 167.355 47.2544 167.131 47.2544H165.751V50.2529H166.72C167.019 50.2529 167.28 50.2168 167.392 50.1807C167.541 50.1446 167.653 50.0362 167.765 49.9278C167.84 49.8194 167.914 49.6749 167.989 49.5304C168.063 49.3498 168.101 49.2053 168.101 49.0607H168.548V52.0232H168.101C168.101 51.8425 168.026 51.6619 167.952 51.4813C167.877 51.3006 167.802 51.1561 167.728 51.0839C167.616 50.9394 167.467 50.8671 167.28 50.831C167.093 50.7949 166.907 50.7587 166.646 50.7587H165.676V52.9986C165.676 53.2154 165.713 53.396 165.713 53.5405C165.751 53.685 165.825 53.7573 165.937 53.8295C166.049 53.9018 166.198 53.9379 166.385 53.974C166.571 54.0102 166.832 54.0102 167.168 54.0102C167.317 54.0102 167.467 54.0102 167.69 54.0102C167.914 54.0102 168.101 54.0102 168.25 53.974C168.399 53.974 168.548 53.9379 168.735 53.9018C168.884 53.8657 169.033 53.8295 169.071 53.7573C169.257 53.5766 169.444 53.3237 169.667 52.9986C169.891 52.6373 170.003 52.3844 170.078 52.2399H170.6V52.1677V52.1677Z" fill="white"/>
<path id="Vector_238" opacity="0.7" d="M183.731 47.2544C183.619 47.2544 183.507 47.2905 183.395 47.3267C183.246 47.3628 183.134 47.3989 183.022 47.4712C182.873 47.5434 182.761 47.6518 182.687 47.7241C182.612 47.8325 182.537 47.977 182.463 48.1576C182.164 48.9885 181.829 49.9278 181.456 51.0117C181.083 52.0955 180.672 53.2515 180.225 54.4799H179.665L177.464 48.6995L175.189 54.4799H174.666C174.256 53.2515 173.846 51.951 173.398 50.6143C172.95 49.2775 172.689 48.3744 172.54 47.9408C172.503 47.8325 172.465 47.7241 172.391 47.6518C172.316 47.5796 172.204 47.4712 172.092 47.4351C171.98 47.3628 171.868 47.3267 171.719 47.2905C171.57 47.2544 171.458 47.2544 171.346 47.2183V46.857H174.89V47.2183C174.592 47.2183 174.331 47.2544 174.107 47.2905C173.883 47.3267 173.771 47.3989 173.771 47.4712C173.771 47.5073 173.771 47.5434 173.771 47.6157C173.771 47.6879 173.808 47.7241 173.808 47.7602C173.92 48.0853 174.069 48.5911 174.293 49.3137C174.517 50.0362 174.89 51.12 175.338 52.529L177.501 46.9293H178.098L180.299 52.6374C180.598 51.7703 180.859 50.9755 181.045 50.3252C181.232 49.6749 181.418 49.0969 181.568 48.6273C181.68 48.3021 181.717 48.0853 181.754 47.9408C181.791 47.8325 181.791 47.7241 181.791 47.6157C181.791 47.5073 181.68 47.3989 181.493 47.3267C181.306 47.2544 181.008 47.1822 180.56 47.146V46.7848H183.694L183.731 47.2544Z" fill="white"/>
</g>
<path id="Vector_239" opacity="0.7" d="M140.011 11.1995L145.942 13.7645V26.3729C145.942 26.3729 145.83 32.0448 149.896 33.6705C149.896 33.6705 140.011 33.7067 140.011 25.2529C140.011 16.7992 140.011 11.1995 140.011 11.1995Z" fill="white"/>
<path id="Vector_240" opacity="0.7" d="M161.125 11.1995L155.194 13.7645V26.3729C155.194 26.3729 155.305 32.0448 151.239 33.6705C151.239 33.6705 161.125 33.7067 161.125 25.2529C161.125 16.7992 161.125 11.1995 161.125 11.1995Z" fill="white"/>
</g>
</g>
</g>
</svg>
