<svg width="600" height="100" viewBox="0 0 600 100" fill="none" xmlns="http://www.w3.org/2000/svg">
<style>
#truck{
  animation: truckArrive 6s infinite;
    transition-timing-function: ease;
}
@keyframes truckArrive {
  0% {
    transform: translate(-300px, 0px);
  }
  85% {
    opacity: 1;
  }
  100% {
    transform: translate(100px, 0 );
    opacity: 0;
  }
}
</style>
<g id="truckArriving">
<path id="ROAD" d="M0 97H600V100H0V97Z" fill="#DBDCDD"/>
<g id="truck">
<path id="Vector" d="M297.008 44.8338H292.606V70.6286H299.06V50.2167L297.008 44.8338Z" fill="#1E6B53"/>
<path id="Vector_2" d="M118.471 77.2399H169.652V80.2385H118.471V77.2399Z" fill="#1E6B53"/>
<path id="Vector_3" d="M118.471 83.8512H169.652V86.8497H118.471V83.8512Z" fill="#1E6B53"/>
<path id="Vector_4" d="M165.474 74.9638H167.19V87.6806H165.474V74.9638Z" fill="#16503F"/>
<path id="Vector_5" d="M120.672 74.9638H122.388V87.6806H120.672V74.9638Z" fill="#16503F"/>
<path id="Vector_6" d="M39.9456 73.9884H107.13V89.1618H39.9456V73.9884Z" fill="#16503F"/>
<path id="Vector_7" d="M23.9794 73.9884H45.5039V80.0939H23.9794V73.9884Z" fill="#16503F"/>
<path id="Vector_8" d="M94.5591 73.9884H116.083V80.0939H94.5591V73.9884Z" fill="#16503F"/>
<path id="Vector_9" d="M23.9794 69.2918H193.079V75.3973H23.9794V69.2918Z" fill="#1E6B53"/>
<path id="Vector_10" d="M192.93 84.5736H195.019V90.354H192.93V84.5736Z" fill="#C4760E"/>
<path id="Vector_11" d="M192.109 90.2457V88.6922H195.616V90.2457L198.041 91.2573V92.4494H189.61V91.2573L192.109 90.2457Z" fill="#EF940F"/>
<path id="Vector_12" d="M192.146 80.961H195.802V86.7413H192.146V80.961Z" fill="#B2B1B1"/>
<path id="Vector_13" d="M195.392 85.9826L192.52 85.2239V84.3207L195.392 85.0794V85.9826Z" fill="#E51A1A"/>
<path id="Vector_14" d="M195.392 84.2847L192.52 83.4899V82.5867L195.392 83.3815V84.2847Z" fill="#E51A1A"/>
<path id="Vector_15" d="M195.392 82.5867L192.52 81.7919V80.8887L195.392 81.6835V82.5867Z" fill="#E51A1A"/>
<path id="Vector_16" d="M191.363 70.195H196.586V82.0447H191.363V70.195Z" fill="#EF940F"/>
<path id="Vector_17" d="M191.326 70.195H193.9V82.0447H191.326V70.195Z" fill="#FCAB49"/>
<path id="Vector_18" d="M229.227 80.8887H273.73V89.1257H229.227V80.8887Z" fill="#63330B"/>
<path id="Vector_19" d="M241.835 71.9292H258.66V76.1922H241.835V71.9292Z" fill="#141D1E"/>
<path id="Vector_20" d="M249.856 69.6531H250.826H265.449C265.225 70.5202 264.33 72.6878 260.45 72.6878H250.789H249.819H240.157C236.277 72.6878 235.382 70.5202 235.158 69.6531H249.856Z" fill="#63330B"/>
<path id="Vector_21" d="M220.684 81.6835H292.532V73.9162H225.161L220.684 77.1315V81.6835Z" fill="#BF6717"/>
<path id="Vector_22" d="M356.023 85.9827L338.602 88.6922L321.517 85.9827V68.1359H355.949L356.023 85.9827Z" fill="#63330B"/>
<path id="Vector_23" d="M304.842 60.1156H361.358V64.8482H304.842V60.1156Z" fill="#BF6717"/>
<path id="Vector_24" d="M304.32 61.091H361.321C361.321 61.091 363.186 61.091 363.186 59.104V47.9407C363.186 47.9407 363.186 47.182 362.515 46.7124C362.515 46.7124 362.515 29.8771 361.731 22.3265H362.477C362.477 22.3265 362.85 20.7008 361.022 19.6893C361.022 19.6893 359.344 11.8135 348.637 11.8135C337.931 11.8135 316.22 11.8135 316.22 11.8135C316.22 11.8135 313.497 8.41758 304.357 8.48984V61.091H304.32Z" fill="#F98D21"/>
<path id="Vector_25" d="M304.395 63.5115V75H264.927V88.2586H324.539V79.1907L330.396 71.5318H348.041L353.002 79.4075V88.4031H359.083C359.083 88.4031 362.962 87.8974 362.962 82.5867C362.962 77.276 362.962 65.932 362.962 65.932C362.962 65.932 363.186 63.5115 360.91 63.5115H304.395V63.5115Z" fill="#F98D21"/>
<path id="Vector_26" d="M356.881 44.4364C356.881 44.4364 356.881 25.289 356.881 23.88C356.881 22.4711 358.112 22.3266 358.112 22.3266H361.694C362.477 29.8771 362.477 46.7124 362.477 46.7124C357.702 46.5679 356.881 44.4364 356.881 44.4364Z" fill="#FFBC80"/>
<g id="Group">
<path id="Vector_27" d="M327.038 58.3454C327.374 58.3454 327.635 58.0925 327.635 57.7673V27.8541C327.635 27.5289 327.374 27.276 327.038 27.276C326.703 27.276 326.442 27.5289 326.442 27.8541V57.7673C326.442 58.0925 326.703 58.3454 327.038 58.3454Z" fill="#DD7619"/>
</g>
<g id="Group_2">
<path id="Vector_28" d="M320.062 58.3454C320.398 58.3454 320.659 58.0925 320.659 57.7673V27.8541C320.659 27.5289 320.398 27.276 320.062 27.276C319.727 27.276 319.465 27.5289 319.465 27.8541V57.7673C319.465 58.0925 319.727 58.3454 320.062 58.3454Z" fill="#DD7619"/>
</g>
<g id="Group_3">
<path id="Vector_29" d="M352.927 79.0824H362.925V79.6604H352.927V79.0824Z" fill="#DD7619"/>
</g>
<path id="Vector_30" d="M313.124 72.4349H322.338V78.2514H313.124V72.4349Z" fill="#BF6717"/>
<path id="Vector_31" d="M313.124 80.7441H322.338V86.5606H313.124V80.7441Z" fill="#BF6717"/>
<path id="Vector_32" d="M254.295 84.7904H311.669V88.2586H254.295V84.7904Z" fill="#DD7619"/>
<g id="Group_4">
<path id="Vector_33" d="M347.966 64.1618H348.563V71.4234H347.966V64.1618Z" fill="#DD7619"/>
</g>
<g id="Group_5">
<path id="Vector_34" d="M330.023 64.1618H347.519V65.4263H330.023V64.1618Z" fill="#DD7619"/>
</g>
<g id="Group_6">
<path id="Vector_35" d="M328.978 64.1618H329.575V71.4234H328.978V64.1618Z" fill="#DD7619"/>
</g>
<path id="Vector_36" d="M316.481 11.8497V19.4725H359.903V20.0505H316.481V56.2138H315.884V11.8497H316.481Z" fill="#DD7619"/>
<path id="Vector_37" d="M294.957 70.6286H17.1902L10.9604 75.2528H1.00019V0H295.255L294.957 70.6286Z" fill="#16503F"/>
<g id="Group_7">
<path id="Vector_38" d="M331.403 96.0982C325.845 92.0881 324.726 84.5014 328.829 79.1185C332.97 73.7355 340.804 72.6517 346.362 76.6257C351.92 80.6358 353.039 88.2225 348.936 93.6055C344.795 98.9884 336.961 100.108 331.403 96.0982Z" fill="#141D1E"/>
<path id="Vector_39" d="M334.649 91.8713C331.515 89.5953 330.881 85.3323 333.194 82.2976C335.544 79.263 339.946 78.6488 343.079 80.8887C346.213 83.1647 346.847 87.4277 344.534 90.4624C342.221 93.4971 337.782 94.1473 334.649 91.8713Z" fill="#3C5151"/>
<path id="Vector_40" d="M334.984 91.4741C332.075 89.3787 331.478 85.4047 333.641 82.5868C335.805 79.7689 339.909 79.1908 342.818 81.2862C345.728 83.3816 346.325 87.3556 344.161 90.1735C341.96 92.9914 337.857 93.5694 334.984 91.4741Z" fill="#2A3C3D"/>
<path id="Vector_41" d="M335.693 90.5346C333.305 88.8367 332.82 85.5491 334.611 83.2731C336.364 80.961 339.759 80.4913 342.109 82.2254C344.496 83.9234 344.981 87.2109 343.191 89.4869C341.4 91.7991 338.043 92.2687 335.693 90.5346Z" fill="#476363"/>
<path id="Vector_42" d="M336.066 90.0289C333.977 88.5115 333.529 85.6575 335.096 83.6344C336.663 81.6112 339.61 81.1777 341.699 82.695C343.788 84.2124 344.236 87.0664 342.669 89.0896C341.102 91.1488 338.155 91.5462 336.066 90.0289Z" fill="#607C7B"/>
<path id="Vector_43" d="M336.887 88.945C335.432 87.8974 335.096 85.8742 336.215 84.4291C337.297 83.0202 339.386 82.695 340.878 83.7789C342.333 84.8265 342.669 86.8497 341.55 88.2948C340.468 89.7398 338.379 90.0289 336.887 88.945Z" fill="#2A3C3D"/>
<path id="Vector_44" d="M337.931 87.6445C337.223 87.1387 337.073 86.1633 337.596 85.4407C338.118 84.7543 339.125 84.6098 339.871 85.1156C340.58 85.6214 340.729 86.5968 340.207 87.3193C339.647 88.0058 338.64 88.1503 337.931 87.6445Z" fill="#141D1E"/>
<path id="Vector_45" d="M340.803 89.9205C340.617 89.776 340.58 89.5231 340.729 89.3786C340.878 89.1979 341.139 89.1618 341.288 89.3063C341.475 89.4508 341.512 89.7037 341.363 89.8482C341.251 90.0289 340.99 90.065 340.803 89.9205Z" fill="#141D1E"/>
<path id="Vector_46" d="M338.379 90.5347C338.192 90.3902 338.155 90.1373 338.304 89.9928C338.453 89.8122 338.714 89.7761 338.864 89.9206C339.05 90.0651 339.087 90.318 338.938 90.4625C338.789 90.6431 338.528 90.6792 338.379 90.5347Z" fill="#141D1E"/>
<path id="Vector_47" d="M336.066 89.6676C335.88 89.5231 335.842 89.2702 335.992 89.1257C336.141 88.9451 336.402 88.9089 336.551 89.0534C336.738 89.198 336.775 89.4508 336.626 89.5953C336.514 89.776 336.253 89.8121 336.066 89.6676Z" fill="#141D1E"/>
<path id="Vector_48" d="M334.76 87.4639C334.574 87.3194 334.537 87.0665 334.686 86.922C334.835 86.7413 335.096 86.7052 335.245 86.8497C335.432 86.9942 335.469 87.2471 335.32 87.3916C335.208 87.5361 334.947 87.5723 334.76 87.4639Z" fill="#141D1E"/>
<path id="Vector_49" d="M334.947 85.0794C334.76 84.9349 334.723 84.682 334.872 84.5375C335.022 84.3569 335.283 84.3207 335.432 84.4653C335.618 84.6098 335.656 84.8627 335.507 85.0072C335.395 85.1878 335.134 85.2239 334.947 85.0794Z" fill="#141D1E"/>
<path id="Vector_50" d="M336.551 83.3092C336.364 83.1647 336.327 82.9118 336.476 82.7673C336.626 82.5867 336.887 82.5505 337.036 82.695C337.222 82.8396 337.26 83.0925 337.111 83.237C336.999 83.4176 336.738 83.4537 336.551 83.3092Z" fill="#141D1E"/>
<path id="Vector_51" d="M338.864 82.7673C338.677 82.6228 338.64 82.3699 338.789 82.2254C338.939 82.0448 339.2 82.0086 339.349 82.1531C339.535 82.2976 339.573 82.5505 339.424 82.695C339.312 82.8757 339.051 82.9118 338.864 82.7673Z" fill="#141D1E"/>
<path id="Vector_52" d="M341.102 83.4898C340.916 83.3453 340.878 83.0924 341.028 82.9479C341.177 82.7673 341.438 82.7312 341.587 82.8757C341.774 83.0202 341.811 83.2731 341.662 83.4176C341.55 83.5982 341.289 83.6344 341.102 83.4898Z" fill="#141D1E"/>
<path id="Vector_53" d="M342.482 85.4046C342.296 85.2601 342.258 85.0072 342.408 84.8627C342.557 84.6821 342.818 84.646 342.967 84.7905C343.154 84.935 343.191 85.1879 343.042 85.3324C342.892 85.513 342.669 85.5491 342.482 85.4046Z" fill="#141D1E"/>
<path id="Vector_54" d="M342.445 87.8974C342.259 87.7529 342.221 87.5 342.37 87.3555C342.52 87.1749 342.781 87.1387 342.93 87.2832C343.117 87.4277 343.154 87.6806 343.005 87.8251C342.893 87.9696 342.632 88.0058 342.445 87.8974Z" fill="#141D1E"/>
<path id="Vector_55" d="M342.781 90.7514C342.632 90.6431 342.632 90.4263 342.743 90.2818L343.34 89.6315C343.452 89.487 343.676 89.487 343.825 89.5954C343.975 89.7038 343.975 89.9205 343.863 90.065L343.266 90.7153C343.117 90.8598 342.93 90.8598 342.781 90.7514Z" fill="#141D1E"/>
<path id="Vector_56" d="M339.237 92.2327C339.2 92.0521 339.312 91.8714 339.461 91.8353L340.319 91.6186C340.505 91.5824 340.692 91.6908 340.729 91.8353C340.766 92.0159 340.655 92.1966 340.468 92.2327L339.61 92.4494C339.461 92.5217 339.312 92.4133 339.237 92.2327Z" fill="#141D1E"/>
<path id="Vector_57" d="M335.805 91.3295C335.88 91.185 336.104 91.1127 336.253 91.185L337.073 91.5824C337.223 91.6546 337.297 91.8714 337.223 92.0159C337.148 92.1604 336.924 92.2327 336.775 92.1604L335.954 91.763C335.768 91.6908 335.693 91.474 335.805 91.3295Z" fill="#141D1E"/>
<path id="Vector_58" d="M333.417 88.6199C333.567 88.5477 333.79 88.5838 333.865 88.7644L334.275 89.5231C334.35 89.6676 334.275 89.8844 334.126 89.9566C333.977 90.0289 333.753 89.9566 333.679 89.8121L333.268 89.0534C333.194 88.9089 333.268 88.7283 333.417 88.6199Z" fill="#141D1E"/>
<path id="Vector_59" d="M333.044 85.1878C333.231 85.2239 333.343 85.3684 333.343 85.549L333.231 86.4161C333.194 86.5967 333.044 86.7051 332.858 86.7051C332.671 86.669 332.559 86.5245 332.559 86.3438L332.671 85.4768C332.671 85.2962 332.858 85.1878 333.044 85.1878Z" fill="#141D1E"/>
<path id="Vector_60" d="M334.648 82.1893C334.798 82.2977 334.835 82.5144 334.723 82.6589L334.163 83.3453C334.052 83.4898 333.828 83.526 333.679 83.4176C333.529 83.3092 333.492 83.0925 333.604 82.948L334.163 82.2615C334.275 82.117 334.499 82.0809 334.648 82.1893Z" fill="#141D1E"/>
<path id="Vector_61" d="M344.721 85.1156C344.534 85.1156 344.385 85.2601 344.385 85.4408L344.422 86.3078C344.422 86.4885 344.571 86.633 344.758 86.633C344.945 86.633 345.094 86.4885 345.094 86.3078L345.056 85.4408C345.056 85.224 344.907 85.0795 344.721 85.1156Z" fill="#141D1E"/>
<path id="Vector_62" d="M342.855 82.1532C342.706 82.2615 342.706 82.4783 342.818 82.6228L343.415 83.2731C343.527 83.4176 343.751 83.4176 343.9 83.3092C344.049 83.2009 344.049 82.9841 343.9 82.8396L343.303 82.1893C343.191 82.0448 342.967 82.0448 342.855 82.1532Z" fill="#141D1E"/>
<path id="Vector_63" d="M339.498 80.7443C339.461 80.9249 339.573 81.1056 339.759 81.1056L340.654 81.2501C340.841 81.2862 341.028 81.1778 341.028 80.9972C341.065 80.8165 340.953 80.6359 340.766 80.6359L339.871 80.4914C339.722 80.4191 339.535 80.5636 339.498 80.7443Z" fill="#141D1E"/>
<path id="Vector_64" d="M335.992 81.3584C336.066 81.539 336.253 81.6112 336.439 81.539L337.26 81.1777C337.447 81.1055 337.521 80.9248 337.447 80.7442C337.372 80.5636 337.185 80.4913 336.999 80.5636L336.178 80.9248C335.992 80.9971 335.917 81.1777 335.992 81.3584Z" fill="#141D1E"/>
</g>
<g id="Group_8">
<path id="Vector_65" d="M230.682 96.0982C225.123 92.0881 224.004 84.5014 228.108 79.1185C232.249 73.7355 240.082 72.6517 245.641 76.6257C251.199 80.6358 252.318 88.2225 248.215 93.6055C244.074 98.9884 236.24 100.108 230.682 96.0982Z" fill="#141D1E"/>
<path id="Vector_66" d="M233.964 91.8713C230.831 89.5953 230.197 85.3323 232.51 82.2976C234.86 79.263 239.262 78.6488 242.395 80.8887C245.529 83.1647 246.163 87.4277 243.85 90.4624C241.5 93.4971 237.098 94.1473 233.964 91.8713Z" fill="#3C5151"/>
<path id="Vector_67" d="M234.263 91.4741C231.354 89.3787 230.757 85.4047 232.92 82.5868C235.084 79.7689 239.187 79.1908 242.097 81.2862C245.007 83.3816 245.604 87.3556 243.44 90.1735C241.276 92.9914 237.173 93.5694 234.263 91.4741Z" fill="#2A3C3D"/>
<path id="Vector_68" d="M234.972 90.5346C232.585 88.8367 232.1 85.5491 233.89 83.2731C235.643 80.961 239.038 80.4913 241.388 82.2254C243.776 83.9234 244.261 87.2109 242.47 89.4869C240.717 91.7991 237.359 92.2687 234.972 90.5346Z" fill="#476363"/>
<path id="Vector_69" d="M235.345 90.0289C233.256 88.5115 232.808 85.6575 234.375 83.6344C235.942 81.6112 238.889 81.1777 240.978 82.695C243.067 84.2124 243.514 87.0664 241.948 89.0896C240.418 91.1488 237.434 91.5462 235.345 90.0289Z" fill="#607C7B"/>
<path id="Vector_70" d="M236.203 88.945C234.748 87.8974 234.412 85.8742 235.532 84.4291C236.613 83.0202 238.702 82.695 240.195 83.7789C241.649 84.8265 241.985 86.8497 240.866 88.2948C239.747 89.7398 237.658 90.0289 236.203 88.945Z" fill="#2A3C3D"/>
<path id="Vector_71" d="M237.21 87.6445C236.501 87.1387 236.352 86.1633 236.875 85.4407C237.397 84.7543 238.404 84.6098 239.15 85.1156C239.859 85.6214 240.008 86.5968 239.486 87.3193C238.926 88.0058 237.919 88.1503 237.21 87.6445Z" fill="#141D1E"/>
<path id="Vector_72" d="M240.12 89.9205C239.933 89.776 239.896 89.5231 240.045 89.3786C240.194 89.1979 240.456 89.1618 240.605 89.3063C240.791 89.4508 240.829 89.7037 240.679 89.8482C240.568 90.0289 240.306 90.065 240.12 89.9205Z" fill="#141D1E"/>
<path id="Vector_73" d="M237.657 90.5347C237.471 90.3902 237.434 90.1373 237.583 89.9928C237.732 89.8122 237.993 89.7761 238.142 89.9206C238.329 90.0651 238.366 90.318 238.217 90.4625C238.105 90.6431 237.844 90.6792 237.657 90.5347Z" fill="#141D1E"/>
<path id="Vector_74" d="M235.382 89.6676C235.196 89.5231 235.158 89.2702 235.307 89.1257C235.457 88.9451 235.718 88.9089 235.867 89.0534C236.054 89.198 236.091 89.4508 235.942 89.5953C235.792 89.776 235.569 89.8121 235.382 89.6676Z" fill="#141D1E"/>
<path id="Vector_75" d="M234.039 87.4639C233.853 87.3194 233.815 87.0665 233.965 86.922C234.114 86.7413 234.375 86.7052 234.524 86.8497C234.711 86.9942 234.748 87.2471 234.599 87.3916C234.487 87.5361 234.226 87.5723 234.039 87.4639Z" fill="#141D1E"/>
<path id="Vector_76" d="M234.263 85.0794C234.076 84.9349 234.039 84.682 234.188 84.5375C234.338 84.3569 234.599 84.3207 234.748 84.4653C234.934 84.6098 234.972 84.8627 234.822 85.0072C234.673 85.1878 234.449 85.2239 234.263 85.0794Z" fill="#141D1E"/>
<path id="Vector_77" d="M235.83 83.3092C235.643 83.1647 235.606 82.9118 235.755 82.7673C235.904 82.5867 236.166 82.5505 236.315 82.695C236.501 82.8396 236.539 83.0925 236.389 83.237C236.277 83.4176 236.016 83.4537 235.83 83.3092Z" fill="#141D1E"/>
<path id="Vector_78" d="M238.143 82.7673C237.956 82.6228 237.919 82.3699 238.068 82.2254C238.217 82.0448 238.479 82.0086 238.628 82.1531C238.814 82.2976 238.852 82.5505 238.702 82.695C238.59 82.8757 238.329 82.9118 238.143 82.7673Z" fill="#141D1E"/>
<path id="Vector_79" d="M240.381 83.4898C240.195 83.3453 240.157 83.0924 240.306 82.9479C240.456 82.7673 240.717 82.7312 240.866 82.8757C241.053 83.0202 241.09 83.2731 240.941 83.4176C240.829 83.5982 240.568 83.6344 240.381 83.4898Z" fill="#141D1E"/>
<path id="Vector_80" d="M241.761 85.4046C241.575 85.2601 241.538 85.0072 241.687 84.8627C241.836 84.6821 242.097 84.646 242.246 84.7905C242.433 84.935 242.47 85.1879 242.321 85.3324C242.209 85.513 241.948 85.5491 241.761 85.4046Z" fill="#141D1E"/>
<path id="Vector_81" d="M241.761 87.8974C241.575 87.7529 241.538 87.5 241.687 87.3555C241.836 87.1749 242.097 87.1387 242.246 87.2832C242.433 87.4277 242.47 87.6806 242.321 87.8251C242.209 87.9696 241.948 88.0058 241.761 87.8974Z" fill="#141D1E"/>
<path id="Vector_82" d="M242.06 90.7514C241.91 90.6431 241.91 90.4263 242.022 90.2818L242.619 89.6315C242.731 89.487 242.955 89.487 243.104 89.5954C243.253 89.7038 243.253 89.9205 243.141 90.065L242.545 90.7153C242.433 90.8598 242.209 90.8598 242.06 90.7514Z" fill="#141D1E"/>
<path id="Vector_83" d="M238.553 92.2327C238.516 92.0521 238.627 91.8714 238.777 91.8353L239.635 91.6186C239.821 91.5824 240.008 91.6908 240.045 91.8353C240.082 92.0159 239.97 92.1966 239.821 92.2327L238.963 92.4494C238.777 92.5217 238.59 92.4133 238.553 92.2327Z" fill="#141D1E"/>
<path id="Vector_84" d="M235.084 91.3295C235.159 91.185 235.382 91.1127 235.532 91.185L236.352 91.5824C236.501 91.6546 236.576 91.8714 236.501 92.0159C236.427 92.1604 236.203 92.2327 236.054 92.1604L235.233 91.763C235.084 91.6908 235.009 91.474 235.084 91.3295Z" fill="#141D1E"/>
<path id="Vector_85" d="M232.733 88.6199C232.883 88.5477 233.106 88.5838 233.181 88.7644L233.591 89.5231C233.666 89.6676 233.591 89.8844 233.442 89.9566C233.293 90.0289 233.069 89.9566 232.994 89.8121L232.584 89.0534C232.472 88.9089 232.547 88.7283 232.733 88.6199Z" fill="#141D1E"/>
<path id="Vector_86" d="M232.323 85.1878C232.51 85.2239 232.622 85.3684 232.622 85.549L232.51 86.4161C232.472 86.5967 232.323 86.7051 232.137 86.7051C231.95 86.669 231.838 86.5245 231.838 86.3438L231.95 85.4768C231.987 85.2962 232.137 85.1878 232.323 85.1878Z" fill="#141D1E"/>
<path id="Vector_87" d="M233.927 82.1893C234.076 82.2977 234.114 82.5144 234.002 82.6589L233.442 83.3453C233.33 83.4898 233.107 83.526 232.957 83.4176C232.808 83.3092 232.771 83.0925 232.883 82.948L233.442 82.2615C233.591 82.117 233.778 82.0809 233.927 82.1893Z" fill="#141D1E"/>
<path id="Vector_88" d="M244.037 85.1156C243.85 85.1156 243.701 85.2601 243.701 85.4408L243.738 86.3078C243.738 86.4885 243.887 86.633 244.074 86.633C244.26 86.633 244.41 86.4885 244.41 86.3078L244.372 85.4408C244.372 85.224 244.223 85.0795 244.037 85.1156Z" fill="#141D1E"/>
<path id="Vector_89" d="M242.134 82.1532C241.985 82.2615 241.985 82.4783 242.097 82.6228L242.694 83.2731C242.806 83.4176 243.029 83.4176 243.179 83.3092C243.328 83.2009 243.328 82.9841 243.179 82.8396L242.582 82.1893C242.47 82.0448 242.283 82.0448 242.134 82.1532Z" fill="#141D1E"/>
<path id="Vector_90" d="M238.814 80.7443C238.777 80.9249 238.889 81.1056 239.075 81.1056L239.97 81.2501C240.157 81.2862 240.343 81.1778 240.343 80.9972C240.381 80.8165 240.269 80.6359 240.082 80.6359L239.187 80.4914C239.001 80.4191 238.814 80.5636 238.814 80.7443Z" fill="#141D1E"/>
<path id="Vector_91" d="M235.27 81.3584C235.345 81.539 235.532 81.6112 235.718 81.539L236.539 81.1777C236.725 81.1055 236.8 80.9248 236.725 80.7442C236.651 80.5636 236.464 80.4913 236.278 80.5636L235.457 80.9248C235.27 80.9971 235.196 81.1777 235.27 81.3584Z" fill="#141D1E"/>
</g>
<path id="Vector_92" d="M249.371 84.6459C248.886 81.7919 247.357 79.2991 244.969 77.565C242.545 75.7948 239.56 75.0722 236.539 75.5057C233.554 75.9393 230.868 77.4566 229.078 79.8049C227.996 81.2138 227.25 82.8757 226.989 84.6459H224.601C224.9 82.406 225.795 80.2745 227.213 78.4682C229.414 75.6141 232.584 73.7716 236.203 73.2659C239.821 72.7601 243.44 73.6271 246.35 75.7586C249.334 77.9263 251.237 81.0693 251.759 84.6459H249.371V84.6459Z" fill="#474747"/>
<g id="Group_9">
<path id="Vector_93" d="M258.66 96.0982C253.102 92.0881 251.982 84.5014 256.086 79.1185C260.227 73.7355 268.06 72.6517 273.619 76.6257C279.177 80.6358 280.296 88.2225 276.193 93.6055C272.052 98.9884 264.218 100.108 258.66 96.0982Z" fill="#141D1E"/>
<path id="Vector_94" d="M261.905 91.8713C258.772 89.5953 258.138 85.3323 260.45 82.2976C262.801 79.263 267.203 78.6488 270.336 80.8887C273.47 83.1647 274.104 87.4277 271.791 90.4624C269.478 93.4971 265.039 94.1473 261.905 91.8713Z" fill="#3C5151"/>
<path id="Vector_95" d="M262.241 91.4741C259.332 89.3787 258.735 85.4047 260.898 82.5868C263.062 79.7689 267.165 79.1908 270.075 81.2862C272.985 83.3816 273.582 87.3556 271.418 90.1735C269.217 92.9914 265.114 93.5694 262.241 91.4741Z" fill="#2A3C3D"/>
<path id="Vector_96" d="M262.95 90.5346C260.562 88.8367 260.077 85.5491 261.868 83.2731C263.621 80.961 267.016 80.4913 269.366 82.2254C271.753 83.9234 272.238 87.2109 270.448 89.4869C268.657 91.7991 265.3 92.2687 262.95 90.5346Z" fill="#476363"/>
<path id="Vector_97" d="M263.323 90.0289C261.234 88.5115 260.786 85.6575 262.353 83.6344C263.92 81.6112 266.867 81.1777 268.956 82.695C271.045 84.2124 271.492 87.0664 269.926 89.0896C268.359 91.1488 265.412 91.5462 263.323 90.0289Z" fill="#607C7B"/>
<path id="Vector_98" d="M264.143 88.945C262.689 87.8974 262.353 85.8742 263.472 84.4291C264.554 83.0202 266.643 82.695 268.135 83.7789C269.59 84.8265 269.926 86.8497 268.807 88.2948C267.725 89.7398 265.636 90.0289 264.143 88.945Z" fill="#2A3C3D"/>
<path id="Vector_99" d="M265.188 87.6445C264.479 87.1387 264.33 86.1633 264.853 85.4407C265.375 84.7543 266.382 84.6098 267.128 85.1156C267.837 85.6214 267.986 86.5968 267.464 87.3193C266.904 88.0058 265.897 88.1503 265.188 87.6445Z" fill="#141D1E"/>
<path id="Vector_100" d="M268.06 89.9205C267.874 89.776 267.836 89.5231 267.986 89.3786C268.135 89.1979 268.396 89.1618 268.545 89.3063C268.732 89.4508 268.769 89.7037 268.62 89.8482C268.508 90.0289 268.247 90.065 268.06 89.9205Z" fill="#141D1E"/>
<path id="Vector_101" d="M265.598 90.5347C265.412 90.3902 265.375 90.1373 265.524 89.9928C265.673 89.8122 265.934 89.7761 266.083 89.9206C266.27 90.0651 266.307 90.318 266.158 90.4625C266.046 90.6431 265.785 90.6792 265.598 90.5347Z" fill="#141D1E"/>
<path id="Vector_102" d="M263.323 89.6676C263.136 89.5231 263.099 89.2702 263.248 89.1257C263.398 88.9451 263.659 88.9089 263.808 89.0534C263.994 89.198 264.032 89.4508 263.883 89.5953C263.771 89.776 263.509 89.8121 263.323 89.6676Z" fill="#141D1E"/>
<path id="Vector_103" d="M262.017 87.4639C261.831 87.3194 261.793 87.0665 261.943 86.922C262.092 86.7413 262.353 86.7052 262.502 86.8497C262.689 86.9942 262.726 87.2471 262.577 87.3916C262.428 87.5361 262.204 87.5723 262.017 87.4639Z" fill="#141D1E"/>
<path id="Vector_104" d="M262.204 85.0794C262.017 84.9349 261.98 84.682 262.129 84.5375C262.278 84.3569 262.54 84.3207 262.689 84.4653C262.875 84.6098 262.913 84.8627 262.763 85.0072C262.651 85.1878 262.39 85.2239 262.204 85.0794Z" fill="#141D1E"/>
<path id="Vector_105" d="M263.808 83.3092C263.621 83.1647 263.584 82.9118 263.733 82.7673C263.882 82.5867 264.144 82.5505 264.293 82.695C264.479 82.8396 264.517 83.0925 264.367 83.237C264.255 83.4176 263.994 83.4537 263.808 83.3092Z" fill="#141D1E"/>
<path id="Vector_106" d="M266.121 82.7673C265.934 82.6228 265.897 82.3699 266.046 82.2254C266.195 82.0448 266.457 82.0086 266.606 82.1531C266.792 82.2976 266.83 82.5505 266.68 82.695C266.568 82.8757 266.307 82.9118 266.121 82.7673Z" fill="#141D1E"/>
<path id="Vector_107" d="M268.359 83.4898C268.173 83.3453 268.135 83.0924 268.285 82.9479C268.434 82.7673 268.695 82.7312 268.844 82.8757C269.031 83.0202 269.068 83.2731 268.919 83.4176C268.807 83.5982 268.546 83.6344 268.359 83.4898Z" fill="#141D1E"/>
<path id="Vector_108" d="M269.739 85.4046C269.552 85.2601 269.515 85.0072 269.664 84.8627C269.814 84.6821 270.075 84.646 270.224 84.7905C270.41 84.935 270.448 85.1879 270.299 85.3324C270.149 85.513 269.888 85.5491 269.739 85.4046Z" fill="#141D1E"/>
<path id="Vector_109" d="M269.702 87.8974C269.515 87.7529 269.478 87.5 269.627 87.3555C269.776 87.1749 270.038 87.1387 270.187 87.2832C270.373 87.4277 270.411 87.6806 270.261 87.8251C270.15 87.9696 269.888 88.0058 269.702 87.8974Z" fill="#141D1E"/>
<path id="Vector_110" d="M270.038 90.7514C269.888 90.6431 269.888 90.4263 270 90.2818L270.597 89.6315C270.709 89.487 270.933 89.487 271.082 89.5954C271.231 89.7038 271.231 89.9205 271.119 90.065L270.523 90.7153C270.373 90.8598 270.187 90.8598 270.038 90.7514Z" fill="#141D1E"/>
<path id="Vector_111" d="M266.494 92.2327C266.456 92.0521 266.568 91.8714 266.718 91.8353L267.576 91.6186C267.762 91.5824 267.949 91.6908 267.986 91.8353C268.023 92.0159 267.911 92.1966 267.762 92.2327L266.904 92.4494C266.718 92.5217 266.531 92.4133 266.494 92.2327Z" fill="#141D1E"/>
<path id="Vector_112" d="M263.062 91.3295C263.137 91.185 263.36 91.1127 263.51 91.185L264.33 91.5824C264.48 91.6546 264.554 91.8714 264.48 92.0159C264.405 92.1604 264.181 92.2327 264.032 92.1604L263.211 91.763C263.025 91.6908 262.95 91.474 263.062 91.3295Z" fill="#141D1E"/>
<path id="Vector_113" d="M260.674 88.6199C260.823 88.5477 261.047 88.5838 261.122 88.7644L261.532 89.5231C261.607 89.6676 261.532 89.8844 261.383 89.9566C261.234 90.0289 261.01 89.9566 260.935 89.8121L260.525 89.0534C260.45 88.9089 260.525 88.7283 260.674 88.6199Z" fill="#141D1E"/>
<path id="Vector_114" d="M260.264 85.1878C260.451 85.2239 260.562 85.3684 260.562 85.549L260.451 86.4161C260.413 86.5967 260.264 86.7051 260.078 86.7051C259.891 86.669 259.779 86.5245 259.779 86.3438L259.891 85.4768C259.928 85.2962 260.115 85.1878 260.264 85.1878Z" fill="#141D1E"/>
<path id="Vector_115" d="M261.905 82.1893C262.054 82.2977 262.092 82.5144 261.98 82.6589L261.42 83.3453C261.308 83.4898 261.085 83.526 260.935 83.4176C260.786 83.3092 260.749 83.0925 260.861 82.948L261.42 82.2615C261.532 82.117 261.756 82.0809 261.905 82.1893Z" fill="#141D1E"/>
<path id="Vector_116" d="M271.978 85.1156C271.791 85.1156 271.642 85.2601 271.642 85.4408L271.679 86.3078C271.679 86.4885 271.828 86.633 272.015 86.633C272.201 86.633 272.351 86.4885 272.351 86.3078L272.313 85.4408C272.313 85.224 272.164 85.0795 271.978 85.1156Z" fill="#141D1E"/>
<path id="Vector_117" d="M270.112 82.1532C269.963 82.2615 269.963 82.4783 270.075 82.6228L270.672 83.2731C270.784 83.4176 271.007 83.4176 271.157 83.3092C271.306 83.2009 271.306 82.9841 271.157 82.8396L270.56 82.1893C270.448 82.0448 270.224 82.0448 270.112 82.1532Z" fill="#141D1E"/>
<path id="Vector_118" d="M266.755 80.7443C266.718 80.9249 266.829 81.1056 267.016 81.1056L267.911 81.2501C268.098 81.2862 268.284 81.1778 268.284 80.9972C268.322 80.8165 268.21 80.6359 268.023 80.6359L267.128 80.4914C266.979 80.4191 266.792 80.5636 266.755 80.7443Z" fill="#141D1E"/>
<path id="Vector_119" d="M263.248 81.3584C263.323 81.539 263.51 81.6112 263.696 81.539L264.517 81.1777C264.703 81.1055 264.778 80.9248 264.703 80.7442C264.629 80.5636 264.442 80.4913 264.256 80.5636L263.435 80.9248C263.248 80.9971 263.174 81.1777 263.248 81.3584Z" fill="#141D1E"/>
</g>
<path id="Vector_120" d="M277.349 84.6459C276.864 81.7919 275.335 79.2991 272.947 77.565C270.523 75.7948 267.538 75.0722 264.517 75.5057C261.532 75.9393 258.846 77.4566 257.056 79.8049C255.974 81.2138 255.228 82.8757 254.967 84.6459H252.579C252.878 82.406 253.773 80.2745 255.191 78.4682C257.392 75.6141 260.562 73.7716 264.181 73.2659C267.799 72.7601 271.418 73.6271 274.328 75.7586C277.312 77.9263 279.215 81.0693 279.737 84.6459H277.349V84.6459Z" fill="#474747"/>
<g id="Group_10">
<path id="Vector_121" d="M38.1549 96.0982C32.5966 92.0881 31.4775 84.5014 35.5809 79.1185C39.7217 73.7355 47.5556 72.6517 53.1139 76.6257C58.6722 80.6358 59.7914 88.2225 55.6879 93.6055C51.5472 98.9884 43.676 100.108 38.1549 96.0982Z" fill="#141D1E"/>
<path id="Vector_122" d="M41.4005 91.8713C38.2669 89.5953 37.6327 85.3323 39.9456 82.2976C42.2958 79.263 46.6977 78.6488 49.8312 80.8887C52.9648 83.1647 53.5989 87.4277 51.2861 90.4624C48.9732 93.4971 44.534 94.1473 41.4005 91.8713Z" fill="#3C5151"/>
<path id="Vector_123" d="M41.6988 91.4741C38.7891 89.3787 38.1922 85.4047 40.3558 82.5868C42.5195 79.7689 46.6229 79.1908 49.5327 81.2862C52.4424 83.3816 53.0392 87.3556 50.8756 90.1735C48.712 92.9914 44.6085 93.5694 41.6988 91.4741Z" fill="#2A3C3D"/>
<path id="Vector_124" d="M42.4076 90.5346C40.0201 88.8367 39.5352 85.5491 41.3258 83.2731C43.0791 80.961 46.4737 80.4913 48.8239 82.2254C51.2113 83.9234 51.6963 87.2109 49.9057 89.4869C48.1524 91.7991 44.795 92.2687 42.4076 90.5346Z" fill="#476363"/>
<path id="Vector_125" d="M42.8179 90.0289C40.7288 88.5115 40.2812 85.6575 41.8479 83.6344C43.4147 81.6112 46.3618 81.1777 48.4508 82.695C50.5399 84.2124 50.9875 87.0664 49.4207 89.0896C47.854 91.1488 44.9069 91.5462 42.8179 90.0289Z" fill="#607C7B"/>
<path id="Vector_126" d="M43.6386 88.945C42.1838 87.8974 41.848 85.8742 42.9671 84.4291C44.049 83.0202 46.138 82.695 47.6301 83.7789C49.085 84.8265 49.4208 86.8497 48.3016 88.2948C47.1825 89.7398 45.1308 90.0289 43.6386 88.945Z" fill="#2A3C3D"/>
<path id="Vector_127" d="M44.6457 87.6445C43.9369 87.1387 43.7877 86.1633 44.31 85.4407C44.8323 84.7543 45.8395 84.6098 46.5856 85.1156C47.2944 85.6214 47.4436 86.5968 46.9213 87.3193C46.3991 88.0058 45.3918 88.1503 44.6457 87.6445Z" fill="#141D1E"/>
<path id="Vector_128" d="M47.5554 89.9205C47.3689 89.776 47.3316 89.5231 47.4808 89.3786C47.63 89.1979 47.8911 89.1618 48.0403 89.3063C48.2269 89.4508 48.2642 89.7037 48.115 89.8482C48.003 90.0289 47.7419 90.065 47.5554 89.9205Z" fill="#141D1E"/>
<path id="Vector_129" d="M45.0935 90.5347C44.907 90.3902 44.8697 90.1373 45.0189 89.9928C45.1681 89.8122 45.4292 89.7761 45.5784 89.9206C45.765 90.0651 45.8023 90.318 45.653 90.4625C45.5411 90.6431 45.28 90.6792 45.0935 90.5347Z" fill="#141D1E"/>
<path id="Vector_130" d="M42.8181 89.6676C42.6316 89.5231 42.5943 89.2702 42.7435 89.1257C42.8927 88.9451 43.1538 88.9089 43.303 89.0534C43.4896 89.198 43.5269 89.4508 43.3777 89.5953C43.2657 89.776 43.0046 89.8121 42.8181 89.6676Z" fill="#141D1E"/>
<path id="Vector_131" d="M41.4753 87.4639C41.2887 87.3194 41.2515 87.0665 41.4007 86.922C41.5499 86.7413 41.811 86.7052 41.9603 86.8497C42.1468 86.9942 42.1841 87.2471 42.0349 87.3916C41.9229 87.5361 41.6618 87.5723 41.4753 87.4639Z" fill="#141D1E"/>
<path id="Vector_132" d="M41.6989 85.0794C41.5124 84.9349 41.4751 84.682 41.6243 84.5375C41.7735 84.3569 42.0347 84.3207 42.1839 84.4653C42.3704 84.6098 42.4077 84.8627 42.2585 85.0072C42.1466 85.1878 41.8855 85.2239 41.6989 85.0794Z" fill="#141D1E"/>
<path id="Vector_133" d="M43.3029 83.3092C43.1164 83.1647 43.079 82.9118 43.2283 82.7673C43.3775 82.5867 43.6387 82.5505 43.7879 82.695C43.9744 82.8396 44.0117 83.0925 43.8625 83.237C43.7133 83.4176 43.4894 83.4537 43.3029 83.3092Z" fill="#141D1E"/>
<path id="Vector_134" d="M45.6159 82.7673C45.4294 82.6228 45.3921 82.3699 45.5413 82.2254C45.6905 82.0448 45.9517 82.0086 46.1009 82.1531C46.2874 82.2976 46.3247 82.5505 46.1755 82.695C46.0263 82.8757 45.8025 82.9118 45.6159 82.7673Z" fill="#141D1E"/>
<path id="Vector_135" d="M47.8542 83.4898C47.6677 83.3453 47.6304 83.0924 47.7796 82.9479C47.9288 82.7673 48.19 82.7312 48.3392 82.8757C48.5257 83.0202 48.563 83.2731 48.4138 83.4176C48.2646 83.5982 48.0035 83.6344 47.8542 83.4898Z" fill="#141D1E"/>
<path id="Vector_136" d="M49.1969 85.4046C49.0104 85.2601 48.9731 85.0072 49.1223 84.8627C49.2716 84.6821 49.5327 84.646 49.6819 84.7905C49.8685 84.935 49.9058 85.1879 49.7566 85.3324C49.6446 85.513 49.3835 85.5491 49.1969 85.4046Z" fill="#141D1E"/>
<path id="Vector_137" d="M49.1969 87.8974C49.0104 87.7529 48.9731 87.5 49.1223 87.3555C49.2716 87.1749 49.5327 87.1387 49.6819 87.2832C49.8685 87.4277 49.9058 87.6806 49.7566 87.8251C49.6446 87.9696 49.3835 88.0058 49.1969 87.8974Z" fill="#141D1E"/>
<path id="Vector_138" d="M49.5328 90.7514C49.3835 90.6431 49.3835 90.4263 49.4954 90.2818L50.0923 89.6315C50.2042 89.487 50.4281 89.487 50.5773 89.5954C50.7265 89.7038 50.7265 89.9205 50.6146 90.065L50.0177 90.7153C49.8685 90.8598 49.682 90.8598 49.5328 90.7514Z" fill="#141D1E"/>
<path id="Vector_139" d="M45.9887 92.2327C45.9514 92.0521 46.0633 91.8714 46.2498 91.8353L47.1078 91.6186C47.2943 91.5824 47.4809 91.6908 47.5182 91.8353C47.5555 92.0159 47.4436 92.1966 47.2943 92.2327L46.4364 92.4494C46.2125 92.5217 46.026 92.4133 45.9887 92.2327Z" fill="#141D1E"/>
<path id="Vector_140" d="M42.5195 91.3295C42.5941 91.185 42.8179 91.1127 42.9671 91.185L43.7878 91.5824C43.937 91.6546 44.0116 91.8714 43.937 92.0159C43.8624 92.1604 43.6386 92.2327 43.4894 92.1604L42.6687 91.763C42.5195 91.6908 42.4449 91.474 42.5195 91.3295Z" fill="#141D1E"/>
<path id="Vector_141" d="M40.1694 88.6199C40.3186 88.5477 40.5424 88.5838 40.617 88.7644L41.0274 89.5231C41.102 89.6676 41.0274 89.8844 40.8781 89.9566C40.7289 90.0289 40.5051 89.9566 40.4305 89.8121L40.0202 89.0534C39.9456 88.9089 39.9828 88.7283 40.1694 88.6199Z" fill="#141D1E"/>
<path id="Vector_142" d="M39.7592 85.1878C39.9457 85.2239 40.0576 85.3684 40.0576 85.549L39.9457 86.4161C39.9084 86.5967 39.7592 86.7051 39.5727 86.7051C39.3862 86.669 39.2743 86.5245 39.2743 86.3438L39.3862 85.4768C39.4235 85.2962 39.5727 85.1878 39.7592 85.1878Z" fill="#141D1E"/>
<path id="Vector_143" d="M41.4004 82.1893C41.5496 82.2977 41.5869 82.5144 41.475 82.6589L40.9154 83.3453C40.8035 83.4898 40.5796 83.526 40.4304 83.4176C40.2812 83.3092 40.2439 83.0925 40.3558 82.948L40.9154 82.2615C41.0273 82.117 41.2511 82.0809 41.4004 82.1893Z" fill="#141D1E"/>
<path id="Vector_144" d="M51.4727 85.1156C51.2861 85.1156 51.1369 85.2601 51.1369 85.4408L51.1742 86.3078C51.1742 86.4885 51.3234 86.633 51.51 86.633C51.6965 86.633 51.8457 86.4885 51.8457 86.3078L51.8084 85.4408C51.8084 85.224 51.6592 85.0795 51.4727 85.1156Z" fill="#141D1E"/>
<path id="Vector_145" d="M49.5702 82.1532C49.421 82.2615 49.421 82.4783 49.5329 82.6228L50.1297 83.2731C50.2416 83.4176 50.4654 83.4176 50.6147 83.3092C50.7639 83.2009 50.7639 82.9841 50.6147 82.8396L50.0178 82.1893C49.9432 82.0448 49.7194 82.0448 49.5702 82.1532Z" fill="#141D1E"/>
<path id="Vector_146" d="M46.25 80.7443C46.2127 80.9249 46.3246 81.1056 46.5111 81.1056L47.4064 81.2501C47.593 81.2862 47.7795 81.1778 47.7795 80.9972C47.8168 80.8165 47.7049 80.6359 47.5183 80.6359L46.6231 80.4914C46.4738 80.4191 46.2873 80.5636 46.25 80.7443Z" fill="#141D1E"/>
<path id="Vector_147" d="M42.7436 81.3584C42.8182 81.539 43.0047 81.6112 43.1912 81.539L44.0119 81.1777C44.1985 81.1055 44.2731 80.9248 44.1985 80.7442C44.1239 80.5636 43.9373 80.4913 43.7508 80.5636L42.9301 80.9248C42.7436 80.9971 42.669 81.1777 42.7436 81.3584Z" fill="#141D1E"/>
</g>
<path id="Vector_148" d="M56.8445 84.6459C56.3595 81.7919 54.83 79.2991 52.4426 77.565C50.0178 75.7948 47.0335 75.0722 44.0118 75.5057C41.0275 75.9393 38.3416 77.4566 36.551 79.8049C35.4692 81.2138 34.7231 82.8757 34.4619 84.6459H32.0745C32.3729 82.406 33.2682 80.2745 34.6858 78.4682C36.8867 75.6141 40.0576 73.7716 43.6761 73.2659C47.2946 72.7601 50.9131 73.6271 53.8228 75.7586C56.8072 77.9263 58.7097 81.0693 59.2319 84.6459H56.8445V84.6459Z" fill="#474747"/>
<g id="Group_11">
<path id="Vector_149" d="M66.2449 96.0982C60.6865 92.0881 59.5674 84.5014 63.6709 79.1185C67.8116 73.7355 75.6455 72.6517 81.2038 76.6257C86.7621 80.6358 87.8812 88.2225 83.7778 93.6055C79.6743 98.9884 71.8032 100.108 66.2449 96.0982Z" fill="#141D1E"/>
<path id="Vector_150" d="M69.5274 91.8713C66.3939 89.5953 65.7597 85.3323 68.0726 82.2976C70.4228 79.263 74.8246 78.6488 77.9582 80.8887C81.0917 83.1647 81.7259 87.4277 79.413 90.4624C77.1002 93.4971 72.661 94.1473 69.5274 91.8713Z" fill="#3C5151"/>
<path id="Vector_151" d="M69.8262 91.4741C66.9165 89.3787 66.3196 85.4047 68.4833 82.5868C70.6469 79.7689 74.7504 79.1908 77.6601 81.2862C80.5698 83.3816 81.1667 87.3556 79.003 90.1735C76.8394 92.9914 72.7359 93.5694 69.8262 91.4741Z" fill="#2A3C3D"/>
<path id="Vector_152" d="M70.535 90.5346C68.1475 88.8367 67.6626 85.5491 69.4532 83.2731C71.2065 80.961 74.6012 80.4913 76.9513 82.2254C79.3388 83.9234 79.8237 87.2109 78.0331 89.4869C76.2798 91.7991 72.9225 92.2687 70.535 90.5346Z" fill="#476363"/>
<path id="Vector_153" d="M70.9453 90.0289C68.8563 88.5115 68.4087 85.6575 69.9754 83.6344C71.5422 81.6112 74.4892 81.1777 76.5783 82.695C78.6673 84.2124 79.115 87.0664 77.5482 89.0896C75.9814 91.1488 73.0344 91.5462 70.9453 90.0289Z" fill="#607C7B"/>
<path id="Vector_154" d="M71.766 88.945C70.3112 87.8974 69.9754 85.8742 71.0946 84.4291C72.1764 83.0202 74.2654 82.695 75.7576 83.7789C77.2125 84.8265 77.5482 86.8497 76.4291 88.2948C75.3099 89.7398 73.2209 90.0289 71.766 88.945Z" fill="#2A3C3D"/>
<path id="Vector_155" d="M72.7732 87.6445C72.0644 87.1387 71.9152 86.1633 72.4375 85.4407C72.9597 84.7543 73.967 84.6098 74.713 85.1156C75.4218 85.6214 75.571 86.5968 75.0488 87.3193C74.5265 88.0058 73.482 88.1503 72.7732 87.6445Z" fill="#141D1E"/>
<path id="Vector_156" d="M75.6829 89.9205C75.4964 89.776 75.4591 89.5231 75.6083 89.3786C75.7575 89.1979 76.0186 89.1618 76.1678 89.3063C76.3543 89.4508 76.3916 89.7037 76.2424 89.8482C76.1305 90.0289 75.8694 90.065 75.6829 89.9205Z" fill="#141D1E"/>
<path id="Vector_157" d="M73.2209 90.5347C73.0344 90.3902 72.9971 90.1373 73.1463 89.9928C73.2955 89.8122 73.5567 89.7761 73.7059 89.9206C73.8924 90.0651 73.9297 90.318 73.7805 90.4625C73.6686 90.6431 73.4074 90.6792 73.2209 90.5347Z" fill="#141D1E"/>
<path id="Vector_158" d="M70.945 89.6676C70.7585 89.5231 70.7212 89.2702 70.8705 89.1257C71.0197 88.9451 71.2808 88.9089 71.43 89.0534C71.6165 89.198 71.6538 89.4508 71.5046 89.5953C71.3927 89.776 71.1316 89.8121 70.945 89.6676Z" fill="#141D1E"/>
<path id="Vector_159" d="M69.6023 87.4639C69.4158 87.3194 69.3785 87.0665 69.5277 86.922C69.6769 86.7413 69.938 86.7052 70.0872 86.8497C70.2737 86.9942 70.311 87.2471 70.1618 87.3916C70.0499 87.5361 69.7888 87.5723 69.6023 87.4639Z" fill="#141D1E"/>
<path id="Vector_160" d="M69.8259 85.0794C69.6394 84.9349 69.6021 84.682 69.7513 84.5375C69.9005 84.3569 70.1617 84.3207 70.3109 84.4653C70.4974 84.6098 70.5347 84.8627 70.3855 85.0072C70.2735 85.1878 70.0124 85.2239 69.8259 85.0794Z" fill="#141D1E"/>
<path id="Vector_161" d="M71.3928 83.3092C71.2063 83.1647 71.169 82.9118 71.3182 82.7673C71.4674 82.5867 71.7285 82.5505 71.8778 82.695C72.0643 82.8396 72.1016 83.0925 71.9524 83.237C71.8405 83.4176 71.5793 83.4537 71.3928 83.3092Z" fill="#141D1E"/>
<path id="Vector_162" d="M73.7058 82.7673C73.5193 82.6228 73.482 82.3699 73.6312 82.2254C73.7804 82.0448 74.0415 82.0086 74.1907 82.1531C74.3773 82.2976 74.4146 82.5505 74.2654 82.695C74.1534 82.8757 73.8923 82.9118 73.7058 82.7673Z" fill="#141D1E"/>
<path id="Vector_163" d="M75.9441 83.4898C75.7575 83.3453 75.7202 83.0924 75.8694 82.9479C76.0187 82.7673 76.2798 82.7312 76.429 82.8757C76.6155 83.0202 76.6528 83.2731 76.5036 83.4176C76.3917 83.5982 76.1306 83.6344 75.9441 83.4898Z" fill="#141D1E"/>
<path id="Vector_164" d="M77.3245 85.4046C77.1379 85.2601 77.1006 85.0072 77.2498 84.8627C77.3991 84.6821 77.6602 84.646 77.8094 84.7905C77.9959 84.935 78.0332 85.1879 77.884 85.3324C77.7721 85.513 77.511 85.5491 77.3245 85.4046Z" fill="#141D1E"/>
<path id="Vector_165" d="M77.3245 87.8974C77.1379 87.7529 77.1006 87.5 77.2498 87.3555C77.3991 87.1749 77.6602 87.1387 77.8094 87.2832C77.9959 87.4277 78.0332 87.6806 77.884 87.8251C77.7721 87.9696 77.511 88.0058 77.3245 87.8974Z" fill="#141D1E"/>
<path id="Vector_166" d="M77.6597 90.7514C77.5105 90.6431 77.5105 90.4263 77.6224 90.2818L78.2192 89.6315C78.3312 89.487 78.555 89.487 78.7042 89.5954C78.8534 89.7038 78.8534 89.9205 78.7415 90.065L78.1447 90.7153C77.9954 90.8598 77.7716 90.8598 77.6597 90.7514Z" fill="#141D1E"/>
<path id="Vector_167" d="M74.1159 92.2327C74.0786 92.0521 74.1906 91.8714 74.3398 91.8353L75.1978 91.6186C75.3843 91.5824 75.5708 91.6908 75.6081 91.8353C75.6454 92.0159 75.5335 92.1966 75.347 92.2327L74.489 92.4494C74.3398 92.5217 74.1532 92.4133 74.1159 92.2327Z" fill="#141D1E"/>
<path id="Vector_168" d="M70.6469 91.3295C70.7215 91.185 70.9454 91.1127 71.0946 91.185L71.9153 91.5824C72.0645 91.6546 72.1391 91.8714 72.0645 92.0159C71.9899 92.1604 71.7661 92.2327 71.6168 92.1604L70.7961 91.763C70.6469 91.6908 70.5723 91.474 70.6469 91.3295Z" fill="#141D1E"/>
<path id="Vector_169" d="M68.2968 88.6199C68.446 88.5477 68.6699 88.5838 68.7445 88.7644L69.1548 89.5231C69.2294 89.6676 69.1548 89.8844 69.0056 89.9566C68.8564 90.0289 68.6326 89.9566 68.558 89.8121L68.1476 89.0534C68.073 88.9089 68.1103 88.7283 68.2968 88.6199Z" fill="#141D1E"/>
<path id="Vector_170" d="M67.8861 85.1878C68.0727 85.2239 68.1846 85.3684 68.1846 85.549L68.0727 86.4161C68.0354 86.5967 67.8861 86.7051 67.6996 86.7051C67.5131 86.669 67.4012 86.5245 67.4012 86.3438L67.5131 85.4768C67.5504 85.2962 67.6996 85.1878 67.8861 85.1878Z" fill="#141D1E"/>
<path id="Vector_171" d="M69.5273 82.1893C69.6765 82.2977 69.7138 82.5144 69.6019 82.6589L69.0424 83.3453C68.9304 83.4898 68.7066 83.526 68.5574 83.4176C68.4082 83.3092 68.3709 83.0925 68.4828 82.948L69.0424 82.2615C69.1543 82.117 69.3781 82.0809 69.5273 82.1893Z" fill="#141D1E"/>
<path id="Vector_172" d="M79.5996 85.1156C79.4131 85.1156 79.2639 85.2601 79.2639 85.4408L79.3012 86.3078C79.3012 86.4885 79.4505 86.633 79.637 86.633C79.8235 86.633 79.9727 86.4885 79.9727 86.3078L79.9354 85.4408C79.9354 85.224 79.7862 85.0795 79.5996 85.1156Z" fill="#141D1E"/>
<path id="Vector_173" d="M77.6971 82.1532C77.5479 82.2615 77.5479 82.4783 77.6598 82.6228L78.2567 83.2731C78.3686 83.4176 78.5924 83.4176 78.7416 83.3092C78.8908 83.2009 78.8908 82.9841 78.7416 82.8396L78.1448 82.1893C78.0701 82.0448 77.8463 82.0448 77.6971 82.1532Z" fill="#141D1E"/>
<path id="Vector_174" d="M74.377 80.7443C74.3397 80.9249 74.4516 81.1056 74.6381 81.1056L75.5334 81.2501C75.7199 81.2862 75.9064 81.1778 75.9064 80.9972C75.9437 80.8165 75.8318 80.6359 75.6453 80.6359L74.75 80.4914C74.5635 80.4191 74.4143 80.5636 74.377 80.7443Z" fill="#141D1E"/>
<path id="Vector_175" d="M70.8706 81.3584C70.9452 81.539 71.1317 81.6112 71.3182 81.539L72.1389 81.1777C72.3254 81.1055 72.4 80.9248 72.3254 80.7442C72.2508 80.5636 72.0643 80.4913 71.8778 80.5636L71.0571 80.9248C70.8706 80.9971 70.796 81.1777 70.8706 81.3584Z" fill="#141D1E"/>
</g>
<path id="Vector_176" d="M84.9343 84.6459C84.4493 81.7919 82.9199 79.2991 80.5324 77.565C78.1076 75.7948 75.1233 75.0722 72.1017 75.5057C69.1173 75.9393 66.4314 77.4566 64.6408 79.8049C63.559 81.2138 62.8129 82.8757 62.5518 84.6459H60.1643C60.4627 82.406 61.358 80.2745 62.7756 78.4682C64.9766 75.6141 68.1474 73.7716 71.7659 73.2659C75.3844 72.7601 79.0029 73.6271 81.9127 75.7586C84.897 77.9263 86.7995 81.0693 87.3218 84.6459H84.9343V84.6459Z" fill="#474747"/>
<g id="Group_12">
<path id="Vector_177" d="M94.3723 96.0982C88.814 92.0881 87.6948 84.5014 91.7983 79.1185C95.939 73.7355 103.773 72.6517 109.331 76.6257C114.89 80.6358 116.009 88.2225 111.905 93.6055C107.764 98.9884 99.9306 100.108 94.3723 96.0982Z" fill="#141D1E"/>
<path id="Vector_178" d="M97.6549 91.8713C94.5214 89.5953 93.8872 85.3323 96.2 82.2976C98.5502 79.263 102.952 78.6488 106.086 80.8887C109.219 83.1647 109.853 87.4277 107.54 90.4624C105.19 93.4971 100.788 94.1473 97.6549 91.8713Z" fill="#3C5151"/>
<path id="Vector_179" d="M97.9536 91.4741C95.0439 89.3787 94.447 85.4047 96.6107 82.5868C98.7743 79.7689 102.878 79.1908 105.788 81.2862C108.697 83.3816 109.294 87.3556 107.13 90.1735C104.967 92.9914 100.863 93.5694 97.9536 91.4741Z" fill="#2A3C3D"/>
<path id="Vector_180" d="M98.6625 90.5346C96.275 88.8367 95.79 85.5491 97.5806 83.2731C99.3339 80.961 102.729 80.4913 105.079 82.2254C107.466 83.9234 107.951 87.2109 106.161 89.4869C104.407 91.7991 101.05 92.2687 98.6625 90.5346Z" fill="#476363"/>
<path id="Vector_181" d="M99.0352 90.0289C96.9462 88.5115 96.4985 85.6575 98.0653 83.6344C99.6321 81.6112 102.579 81.1777 104.668 82.695C106.757 84.2124 107.205 87.0664 105.638 89.0896C104.109 91.1488 101.124 91.5462 99.0352 90.0289Z" fill="#607C7B"/>
<path id="Vector_182" d="M99.8935 88.945C98.4387 87.8974 98.1029 85.8742 99.2221 84.4291C100.304 83.0202 102.393 82.695 103.885 83.7789C105.34 84.8265 105.676 86.8497 104.557 88.2948C103.437 89.7398 101.348 90.0289 99.8935 88.945Z" fill="#2A3C3D"/>
<path id="Vector_183" d="M100.901 87.6445C100.192 87.1387 100.043 86.1633 100.565 85.4407C101.087 84.7543 102.094 84.6098 102.84 85.1156C103.549 85.6214 103.698 86.5968 103.176 87.3193C102.617 88.0058 101.609 88.1503 100.901 87.6445Z" fill="#141D1E"/>
<path id="Vector_184" d="M103.81 89.9205C103.624 89.776 103.586 89.5231 103.736 89.3786C103.885 89.1979 104.146 89.1618 104.295 89.3063C104.482 89.4508 104.519 89.7037 104.37 89.8482C104.258 90.0289 103.997 90.065 103.81 89.9205Z" fill="#141D1E"/>
<path id="Vector_185" d="M101.348 90.5347C101.161 90.3902 101.124 90.1373 101.273 89.9928C101.423 89.8122 101.684 89.7761 101.833 89.9206C102.019 90.0651 102.057 90.318 101.907 90.4625C101.796 90.6431 101.534 90.6792 101.348 90.5347Z" fill="#141D1E"/>
<path id="Vector_186" d="M99.0725 89.6676C98.886 89.5231 98.8487 89.2702 98.9979 89.1257C99.1471 88.9451 99.4082 88.9089 99.5574 89.0534C99.744 89.198 99.7813 89.4508 99.6321 89.5953C99.4828 89.776 99.259 89.8121 99.0725 89.6676Z" fill="#141D1E"/>
<path id="Vector_187" d="M97.7297 87.4639C97.5432 87.3194 97.5059 87.0665 97.6551 86.922C97.8043 86.7413 98.0654 86.7052 98.2147 86.8497C98.4012 86.9942 98.4385 87.2471 98.2893 87.3916C98.1774 87.5361 97.9162 87.5723 97.7297 87.4639Z" fill="#141D1E"/>
<path id="Vector_188" d="M97.9534 85.0794C97.7669 84.9349 97.7296 84.682 97.8788 84.5375C98.028 84.3569 98.2891 84.3207 98.4383 84.4653C98.6248 84.6098 98.6621 84.8627 98.5129 85.0072C98.3637 85.1878 98.1399 85.2239 97.9534 85.0794Z" fill="#141D1E"/>
<path id="Vector_189" d="M99.5203 83.3092C99.3337 83.1647 99.2964 82.9118 99.4456 82.7673C99.5949 82.5867 99.856 82.5505 100.005 82.695C100.192 82.8396 100.229 83.0925 100.08 83.237C99.9679 83.4176 99.7068 83.4537 99.5203 83.3092Z" fill="#141D1E"/>
<path id="Vector_190" d="M101.833 82.7673C101.647 82.6228 101.609 82.3699 101.759 82.2254C101.908 82.0448 102.169 82.0086 102.318 82.1531C102.505 82.2976 102.542 82.5505 102.393 82.695C102.281 82.8757 102.02 82.9118 101.833 82.7673Z" fill="#141D1E"/>
<path id="Vector_191" d="M104.072 83.4898C103.885 83.3453 103.848 83.0924 103.997 82.9479C104.146 82.7673 104.407 82.7312 104.556 82.8757C104.743 83.0202 104.78 83.2731 104.631 83.4176C104.519 83.5982 104.258 83.6344 104.072 83.4898Z" fill="#141D1E"/>
<path id="Vector_192" d="M105.451 85.4046C105.265 85.2601 105.228 85.0072 105.377 84.8627C105.526 84.6821 105.787 84.646 105.936 84.7905C106.123 84.935 106.16 85.1879 106.011 85.3324C105.899 85.513 105.638 85.5491 105.451 85.4046Z" fill="#141D1E"/>
<path id="Vector_193" d="M105.451 87.8974C105.265 87.7529 105.228 87.5 105.377 87.3555C105.526 87.1749 105.787 87.1387 105.936 87.2832C106.123 87.4277 106.16 87.6806 106.011 87.8251C105.899 87.9696 105.638 88.0058 105.451 87.8974Z" fill="#141D1E"/>
<path id="Vector_194" d="M105.75 90.7514C105.601 90.6431 105.601 90.4263 105.713 90.2818L106.31 89.6315C106.422 89.487 106.645 89.487 106.795 89.5954C106.944 89.7038 106.944 89.9205 106.832 90.065L106.235 90.7153C106.123 90.8598 105.899 90.8598 105.75 90.7514Z" fill="#141D1E"/>
<path id="Vector_195" d="M102.244 92.2327C102.206 92.0521 102.318 91.8714 102.505 91.8353L103.363 91.6186C103.549 91.5824 103.736 91.6908 103.773 91.8353C103.81 92.0159 103.698 92.1966 103.549 92.2327L102.691 92.4494C102.467 92.5217 102.281 92.4133 102.244 92.2327Z" fill="#141D1E"/>
<path id="Vector_196" d="M98.7744 91.3295C98.849 91.185 99.0728 91.1127 99.222 91.185L100.043 91.5824C100.192 91.6546 100.267 91.8714 100.192 92.0159C100.117 92.1604 99.8935 92.2327 99.7443 92.1604L98.9236 91.763C98.7744 91.6908 98.6998 91.474 98.7744 91.3295Z" fill="#141D1E"/>
<path id="Vector_197" d="M96.4238 88.6199C96.573 88.5477 96.7968 88.5838 96.8714 88.7644L97.2818 89.5231C97.3564 89.6676 97.2818 89.8844 97.1325 89.9566C96.9833 90.0289 96.7595 89.9566 96.6849 89.8121L96.2745 89.0534C96.1626 88.9089 96.2372 88.7283 96.4238 88.6199Z" fill="#141D1E"/>
<path id="Vector_198" d="M96.0136 85.1878C96.2001 85.2239 96.312 85.3684 96.312 85.549L96.2001 86.4161C96.1628 86.5967 96.0136 86.7051 95.8271 86.7051C95.6405 86.669 95.5286 86.5245 95.5286 86.3438L95.6405 85.4768C95.6778 85.2962 95.8271 85.1878 96.0136 85.1878Z" fill="#141D1E"/>
<path id="Vector_199" d="M97.6176 82.1893C97.7669 82.2977 97.8042 82.5144 97.6923 82.6589L97.1327 83.3453C97.0208 83.4898 96.797 83.526 96.6478 83.4176C96.4986 83.3092 96.4613 83.0925 96.5732 82.948L97.1327 82.2615C97.2819 82.117 97.4684 82.0809 97.6176 82.1893Z" fill="#141D1E"/>
<path id="Vector_200" d="M107.727 85.1156C107.541 85.1156 107.391 85.2601 107.391 85.4408L107.429 86.3078C107.429 86.4885 107.578 86.633 107.764 86.633C107.951 86.633 108.1 86.4885 108.1 86.3078L108.063 85.4408C108.063 85.224 107.914 85.0795 107.727 85.1156Z" fill="#141D1E"/>
<path id="Vector_201" d="M105.825 82.1532C105.675 82.2615 105.675 82.4783 105.787 82.6228L106.384 83.2731C106.496 83.4176 106.72 83.4176 106.869 83.3092C107.018 83.2009 107.018 82.9841 106.869 82.8396L106.272 82.1893C106.16 82.0448 105.974 82.0448 105.825 82.1532Z" fill="#141D1E"/>
<path id="Vector_202" d="M102.504 80.7443C102.467 80.9249 102.579 81.1056 102.766 81.1056L103.661 81.2501C103.847 81.2862 104.034 81.1778 104.034 80.9972C104.071 80.8165 103.959 80.6359 103.773 80.6359L102.877 80.4914C102.691 80.4191 102.504 80.5636 102.504 80.7443Z" fill="#141D1E"/>
<path id="Vector_203" d="M98.9608 81.3584C99.0355 81.539 99.222 81.6112 99.4085 81.539L100.229 81.1777C100.416 81.1055 100.49 80.9248 100.416 80.7442C100.341 80.5636 100.155 80.4913 99.9681 80.5636L99.1474 80.9248C98.9608 80.9971 98.8862 81.1777 98.9608 81.3584Z" fill="#141D1E"/>
</g>
<path id="Vector_204" d="M113.062 84.6459C112.577 81.7919 111.047 79.2991 108.66 77.565C106.235 75.7948 103.251 75.0722 100.229 75.5057C97.2448 75.9393 94.5589 77.4566 92.7683 79.8049C91.6864 81.2138 90.9404 82.8757 90.6792 84.6459H88.2918C88.5902 82.406 89.4855 80.2745 90.9031 78.4682C93.104 75.6141 96.2749 73.7716 99.8934 73.2659C103.512 72.7601 107.13 73.6271 110.04 75.7586C113.024 77.9263 114.927 81.0693 115.449 84.6459H113.062V84.6459Z" fill="#474747"/>
<path id="Vector_205" d="M363.186 58.9957V59.1041C363.186 61.091 361.321 61.091 361.321 61.091H304.32V58.9957H363.186Z" fill="#DD7619"/>
<path id="Vector_206" d="M351.398 42.2326C353.002 42.2326 354.308 40.9681 354.308 39.4147V25.0361C354.308 23.4826 353.002 22.2182 351.398 22.2182H334.051C332.447 22.2182 331.142 23.4826 331.142 25.0361V39.4147C331.142 40.9681 332.447 42.2326 334.051 42.2326H351.398Z" fill="#DD7619"/>
<path id="Vector_207" d="M331.477 37.5361C331.627 37.5361 331.776 37.6806 331.776 37.8251V57.7312L353.45 57.6951V42.3772C353.673 42.2688 353.86 42.1243 354.046 41.9798V57.948C354.046 58.0925 353.897 58.237 353.748 58.237L331.477 58.2731C331.403 58.2731 331.328 58.237 331.254 58.2009C331.216 58.1647 331.179 58.0925 331.179 57.9841V37.789C331.179 37.6445 331.291 37.5361 331.477 37.5361Z" fill="#DD7619"/>
<path id="Vector_208" d="M331.701 38.8367C331.701 40.3901 333.007 41.6546 334.611 41.6546H350.801C352.405 41.6546 353.711 40.3901 353.711 38.8367V25.578C353.711 24.0245 352.405 22.7601 350.801 22.7601H334.611C333.007 22.7601 331.701 24.0245 331.701 25.578V38.8367V38.8367Z" fill="#FFCDA4"/>
<path id="Vector_209" d="M328.978 70.9176H348.563L353.972 79.8049L353.898 89.1618H352.219V80.3468L347.407 72.9768H330.06L325.323 80.3468V89.1618H323.644L323.569 79.8049L328.978 70.9176Z" fill="#DD7619"/>
<path id="Vector_210" d="M337.633 44.1474C337.633 44.6171 337.222 45.0145 336.738 45.0145H334.574C334.089 45.0145 333.679 44.6171 333.679 44.1474V43.9668C333.679 43.4971 334.089 43.0997 334.574 43.0997H336.738C337.222 43.0997 337.633 43.4971 337.633 43.9668V44.1474Z" fill="#BF6717"/>
<path id="Vector_211" d="M334.723 43.3164H336.588C336.998 43.3164 337.334 43.6416 337.334 44.039V44.1474H333.939V44.039C333.977 43.6416 334.312 43.3164 334.723 43.3164Z" fill="#DD7619"/>
<path id="Vector_212" d="M357.553 21.3512C356.695 20.5564 355.576 20.6286 355.539 20.6286H345.355C345.28 20.4841 345.094 20.3757 344.907 20.3757C344.609 20.3757 344.385 20.5925 344.385 20.8815C344.385 21.1705 344.609 21.3873 344.907 21.3873C345.056 21.3873 345.206 21.315 345.28 21.2066H355.576C355.576 21.2066 356.509 21.1705 357.18 21.7847C357.665 22.2543 357.926 22.9408 357.926 23.8439L357.367 40.8598C357.367 40.8959 357.255 42.1243 354.83 42.1243H354.233C354.159 41.9798 353.972 41.8714 353.786 41.8714C353.487 41.8714 353.263 42.0881 353.263 42.3772C353.263 42.6662 353.487 42.8829 353.786 42.8829C353.935 42.8829 354.084 42.8107 354.159 42.7023H354.793C357.814 42.7023 357.926 41.0043 357.926 40.9321L358.486 23.9162C358.486 22.7601 358.187 21.9292 357.553 21.3512Z" fill="#BF6717"/>
<path id="Vector_213" d="M354.568 22.3266L355.24 31.2138C355.24 31.2138 355.576 32.2615 356.471 32.0448C357.366 31.828 359.343 30.4913 359.306 28.8294L358.97 24.9638C358.97 24.9638 358.224 22.0375 354.568 22.3266Z" fill="#63330B"/>
<path id="Vector_214" d="M354.606 35.4769L355.128 40.2457C355.128 40.2457 358.672 39.7038 358.859 38.8729C359.045 38.0419 358.672 36.4885 358.672 36.4885C358.672 36.4885 357.292 35.0434 354.606 35.4769Z" fill="#63330B"/>
<path id="Vector_215" d="M355.278 22.5794C355.278 22.5794 358.076 23.0491 358.784 25.1445L358.934 27.7456L358.374 25.1083C358.374 25.1083 357.367 23.4465 355.352 23.1936L355.278 22.5794Z" fill="#BF6717"/>
<path id="Vector_216" d="M265.86 2.27607H291.338V67.1243H265.86V2.27607Z" fill="#1E6B53"/>
<path id="Vector_217" d="M233.33 2.27607H258.809V67.1243H233.33V2.27607Z" fill="#1E6B53"/>
<path id="Vector_218" d="M200.801 2.27607H226.28V67.1243H200.801V2.27607Z" fill="#1E6B53"/>
<path id="Vector_219" d="M168.272 2.27607H193.75V67.1243H168.272V2.27607Z" fill="#1E6B53"/>
<path id="Vector_220" d="M135.742 2.27607H161.221V67.1243H135.742V2.27607Z" fill="#1E6B53"/>
<path id="Vector_221" d="M103.176 2.27607H128.655V67.1243H103.176V2.27607Z" fill="#1E6B53"/>
<path id="Vector_222" d="M70.6467 2.27607H96.1255V67.1243H70.6467V2.27607Z" fill="#1E6B53"/>
<path id="Vector_223" d="M38.1174 2.27607H63.5962V67.1243H38.1174V2.27607Z" fill="#1E6B53"/>
<path id="Vector_224" d="M5.58817 2.27607H31.0669V67.1243H5.58817V2.27607Z" fill="#1E6B53"/>
<path id="Vector_225" d="M343.639 33.6705C349.421 36.7775 342.818 30.4913 346.138 30.961C348.115 31.25 351.398 33.4538 353.748 35.1879V38.8367C353.748 40.3902 352.442 41.6546 350.838 41.6546H334.648C333.044 41.6546 331.739 40.3902 331.739 38.8367V28.0708C336.178 29.3353 339.871 31.6474 343.639 33.6705Z" fill="#FFBC80"/>
<g id="Group_13">
<path id="Vector_226" d="M304.022 75.8309H304.619V87.6806H304.022V75.8309Z" fill="#DD7619"/>
</g>
<g id="logo" opacity="0.8">
<g id="Group_14" opacity="0.7">
<path id="Vector_227" opacity="0.7" d="M138.353 43.8223H136.637C136.264 43.3526 135.928 42.9191 135.63 42.5578C135.331 42.1966 134.996 41.8353 134.623 41.474H133.988V43.1359C133.988 43.2081 133.988 43.2804 134.026 43.3526C134.063 43.4249 134.138 43.461 134.249 43.4971C134.287 43.4971 134.399 43.5333 134.548 43.5333C134.697 43.5333 134.809 43.5694 134.884 43.5694V43.8223H132.198V43.5694C132.272 43.5694 132.384 43.5694 132.496 43.5333C132.645 43.5333 132.72 43.4971 132.795 43.4971C132.869 43.461 132.944 43.4249 132.981 43.3526C133.018 43.2804 133.056 43.2081 133.056 43.0997V39.3425C133.056 39.2703 133.056 39.198 133.018 39.1258C132.981 39.0535 132.907 39.0174 132.795 38.9813C132.72 38.9451 132.608 38.9451 132.496 38.909C132.384 38.8729 132.272 38.8729 132.198 38.8729V38.62H135.107C135.369 38.62 135.63 38.6561 135.854 38.6922C136.077 38.7284 136.301 38.8006 136.488 38.909C136.674 39.0174 136.823 39.1258 136.935 39.3064C137.047 39.4509 137.085 39.6677 137.085 39.8844C137.085 40.1012 137.047 40.2457 136.973 40.4263C136.898 40.5709 136.786 40.7154 136.637 40.8237C136.488 40.9321 136.339 41.0044 136.152 41.1128C135.965 41.2211 135.742 41.2573 135.518 41.2934C135.816 41.6185 136.077 41.9076 136.301 42.1604C136.525 42.3772 136.749 42.6662 137.047 42.9914C137.196 43.1359 137.308 43.2443 137.383 43.3165C137.495 43.3888 137.607 43.461 137.681 43.4971C137.756 43.5333 137.868 43.5694 137.98 43.5694C138.092 43.5694 138.204 43.6055 138.278 43.6055V43.8223H138.353V43.8223ZM136.003 39.9567C136.003 39.6315 135.891 39.3787 135.667 39.198C135.443 39.0174 135.145 38.909 134.734 38.909H133.988V41.1489H134.585C134.996 41.1489 135.331 41.0405 135.592 40.8237C135.891 40.607 136.003 40.318 136.003 39.9567Z" fill="white"/>
<path id="Vector_228" opacity="0.7" d="M143.874 39.2342C144.135 39.4871 144.359 39.7761 144.546 40.1012C144.732 40.4264 144.77 40.8238 144.77 41.2212C144.77 41.6186 144.695 42.016 144.546 42.3411C144.396 42.6662 144.173 42.9553 143.874 43.2081C143.613 43.461 143.277 43.6417 142.904 43.7501C142.531 43.8946 142.158 43.9307 141.748 43.9307C141.3 43.9307 140.89 43.8584 140.517 43.7139C140.144 43.5694 139.808 43.3888 139.547 43.1359C139.286 42.883 139.062 42.594 138.913 42.2688C138.764 41.9437 138.689 41.5824 138.689 41.185C138.689 40.7515 138.764 40.3902 138.913 40.0651C139.062 39.7399 139.286 39.4509 139.584 39.198C139.845 38.9451 140.181 38.7645 140.554 38.6561C140.927 38.5116 141.3 38.4755 141.711 38.4755C142.121 38.4755 142.531 38.5477 142.904 38.6561C143.277 38.7645 143.613 39.0174 143.874 39.2342ZM143.24 42.9191C143.389 42.7024 143.538 42.4495 143.613 42.1605C143.688 41.8714 143.725 41.5824 143.725 41.2212C143.725 40.8599 143.688 40.5347 143.613 40.2457C143.538 39.9567 143.389 39.7038 143.24 39.487C143.091 39.2703 142.867 39.1258 142.643 39.0174C142.382 38.909 142.121 38.8368 141.785 38.8368C141.412 38.8368 141.114 38.909 140.89 39.0535C140.666 39.198 140.442 39.3787 140.293 39.5954C140.144 39.8122 140.032 40.0651 139.957 40.3541C139.883 40.6431 139.845 40.9321 139.845 41.2573C139.845 41.6186 139.883 41.9437 139.957 42.1966C140.032 42.4856 140.144 42.7385 140.33 42.9553C140.48 43.172 140.703 43.3527 140.927 43.461C141.188 43.5694 141.449 43.6417 141.785 43.6417C142.121 43.6417 142.382 43.5694 142.643 43.461C142.867 43.3165 143.054 43.1359 143.24 42.9191Z" fill="white"/>
<path id="Vector_229" opacity="0.7" d="M151.372 38.8729C151.335 38.8729 151.223 38.9091 151.149 38.9091C151.037 38.9452 150.962 38.9813 150.925 38.9813C150.813 39.0536 150.738 39.0897 150.701 39.1258C150.664 39.162 150.589 39.2342 150.477 39.3787C150.253 39.6316 150.03 39.9206 149.843 40.2096C149.657 40.4987 149.395 40.8238 149.097 41.2573C148.985 41.4018 148.91 41.5464 148.873 41.6186C148.836 41.727 148.836 41.8354 148.836 42.016V43.0276C148.836 43.0998 148.873 43.2082 148.91 43.2443C148.948 43.3166 149.022 43.3527 149.134 43.3888C149.209 43.425 149.321 43.425 149.47 43.4611C149.619 43.4972 149.768 43.4972 149.843 43.4972V43.7501H146.896V43.4972C146.971 43.4972 147.12 43.4972 147.269 43.4611C147.418 43.4611 147.567 43.425 147.605 43.425C147.717 43.3888 147.791 43.3527 147.829 43.2805C147.866 43.2082 147.903 43.1359 147.903 43.0637V41.7992C147.903 41.7631 147.866 41.6909 147.829 41.5825C147.754 41.4741 147.717 41.3657 147.605 41.2212C147.418 40.9322 147.232 40.6432 147.008 40.318C146.784 39.9929 146.598 39.7039 146.448 39.4871C146.336 39.3426 146.262 39.2342 146.187 39.162C146.113 39.0897 146.038 39.0175 145.926 38.9813C145.851 38.9452 145.777 38.9091 145.665 38.9091C145.553 38.8729 145.478 38.8729 145.404 38.8729V38.6201H148.09V38.8729C147.791 38.8729 147.567 38.9091 147.456 38.9091C147.344 38.9091 147.269 38.9813 147.269 39.0175C147.269 39.0175 147.269 39.0536 147.306 39.0897C147.306 39.1258 147.344 39.162 147.381 39.2342C147.418 39.3065 147.456 39.3787 147.53 39.451C147.567 39.5232 147.642 39.5955 147.679 39.7039C147.829 39.9206 147.978 40.1374 148.09 40.3542C148.239 40.5709 148.425 40.8599 148.649 41.1851C149.097 40.5709 149.47 40.1013 149.731 39.74C149.992 39.3787 150.104 39.1981 150.104 39.1258C150.104 39.0536 150.067 39.0175 150.03 38.9813C149.992 38.9452 149.918 38.9091 149.843 38.9091C149.768 38.8729 149.656 38.8729 149.545 38.8729C149.433 38.8729 149.358 38.8729 149.246 38.8368V38.5839H151.447V38.8729H151.372V38.8729Z" fill="white"/>
<path id="Vector_230" opacity="0.7" d="M157.975 43.8223H155.364V43.5694C155.588 43.5694 155.774 43.5333 155.924 43.4972C156.073 43.461 156.147 43.4249 156.147 43.3527C156.147 43.3165 156.147 43.3165 156.147 43.2804C156.147 43.2443 156.147 43.2081 156.11 43.2081L155.588 42.0521H153.387C153.312 42.2327 153.238 42.3772 153.2 42.4856C153.163 42.6301 153.088 42.7385 153.051 42.8469C153.014 42.9553 152.977 43.0275 152.977 43.0998C152.977 43.172 152.939 43.2081 152.939 43.2443C152.939 43.3527 153.051 43.4249 153.238 43.461C153.424 43.4972 153.648 43.5333 153.872 43.5694V43.8223H151.484V43.5694C151.559 43.5694 151.671 43.5333 151.783 43.5333C151.895 43.4972 152.007 43.461 152.081 43.4249C152.193 43.3527 152.305 43.2804 152.342 43.2081C152.417 43.1359 152.454 43.0275 152.529 42.9191C152.865 42.2688 153.2 41.5463 153.573 40.7154C153.946 39.8845 154.282 39.1619 154.581 38.5478H154.954L157.043 43.0275C157.08 43.1359 157.155 43.2081 157.192 43.2443C157.267 43.3165 157.341 43.3527 157.416 43.4249C157.49 43.461 157.565 43.4972 157.677 43.4972C157.789 43.5333 157.863 43.5333 157.938 43.5333L157.975 43.8223ZM155.439 41.6908L154.469 39.6677L153.536 41.6908H155.439Z" fill="white"/>
<path id="Vector_231" opacity="0.7" d="M163.646 42.2689L163.496 43.8223H158.572V43.5694C158.647 43.5694 158.759 43.5695 158.871 43.5333C159.02 43.5333 159.095 43.4972 159.169 43.4972C159.244 43.4611 159.318 43.4249 159.356 43.3527C159.393 43.2804 159.43 43.2082 159.43 43.0998V39.3787C159.43 39.3065 159.43 39.2342 159.393 39.1619C159.356 39.0897 159.281 39.0536 159.206 39.0174C159.132 38.9813 159.057 38.9452 158.908 38.9452C158.796 38.909 158.684 38.9091 158.61 38.9091V38.6562H161.295V38.9091C161.221 38.9091 161.109 38.909 160.96 38.9452C160.811 38.9813 160.736 38.9813 160.661 39.0174C160.549 39.0536 160.475 39.0897 160.437 39.1619C160.4 39.2342 160.363 39.3065 160.363 39.3787V42.883C160.363 43.0275 160.363 43.1721 160.4 43.2443C160.437 43.3166 160.475 43.3888 160.549 43.4611C160.624 43.4972 160.736 43.5333 160.848 43.5333C160.997 43.5333 161.184 43.5694 161.407 43.5694C161.519 43.5694 161.631 43.5694 161.743 43.5694C161.855 43.5694 161.967 43.5695 162.079 43.5333C162.191 43.5333 162.265 43.4972 162.377 43.4611C162.452 43.4249 162.527 43.3888 162.564 43.3527C162.676 43.2443 162.825 43.0637 162.974 42.8469C163.123 42.6301 163.235 42.4495 163.31 42.305H163.646V42.2689V42.2689Z" fill="white"/>
<path id="Vector_232" opacity="0.7" d="M124.29 47.2544C124.178 47.2544 123.991 47.2906 123.805 47.3267C123.581 47.3628 123.394 47.4351 123.282 47.5073C123.133 47.5796 123.059 47.7602 122.984 48.0131C122.947 48.266 122.909 48.5912 122.909 48.9524V52.24C122.909 52.6735 122.797 53.0348 122.611 53.3238C122.424 53.649 122.163 53.9018 121.827 54.0825C121.492 54.2631 121.156 54.4076 120.82 54.4799C120.447 54.5521 120.111 54.5883 119.813 54.5883C119.291 54.5883 118.843 54.516 118.433 54.4076C118.022 54.2992 117.687 54.1186 117.388 53.938C117.127 53.7212 116.903 53.5044 116.754 53.2516C116.605 52.9987 116.53 52.7097 116.53 52.4206V47.977C116.53 47.8686 116.493 47.7602 116.456 47.6518C116.418 47.5796 116.306 47.5073 116.157 47.4351C116.045 47.399 115.933 47.3628 115.784 47.3267C115.635 47.2906 115.486 47.2906 115.411 47.2544V46.8932H119.03V47.2544C118.918 47.2544 118.769 47.2906 118.582 47.2906C118.395 47.3267 118.284 47.3628 118.209 47.3628C118.06 47.399 117.985 47.4712 117.948 47.5796C117.911 47.688 117.873 47.7964 117.873 47.9047V52.0594C117.873 52.2761 117.911 52.4568 117.948 52.7097C117.985 52.9625 118.097 53.1432 118.246 53.3238C118.395 53.5044 118.619 53.6851 118.88 53.7935C119.142 53.9018 119.515 53.9741 120 53.9741C120.447 53.9741 120.82 53.9018 121.119 53.7935C121.417 53.6851 121.678 53.5044 121.827 53.3238C121.977 53.1432 122.126 52.9264 122.2 52.7097C122.275 52.4929 122.312 52.2761 122.312 52.0955V49.0247C122.312 48.6273 122.275 48.3021 122.2 48.0492C122.126 47.7964 122.051 47.6518 121.902 47.5435C121.753 47.4712 121.566 47.399 121.305 47.3267C121.044 47.2906 120.858 47.2544 120.746 47.2544V46.8932H124.29V47.2544Z" fill="white"/>
<path id="Vector_233" opacity="0.7" d="M134.324 47.2543C134.212 47.2543 134.026 47.2905 133.802 47.3266C133.578 47.3627 133.392 47.435 133.28 47.5072C133.131 47.5795 133.019 47.7601 132.981 48.013C132.944 48.2659 132.907 48.5911 132.907 48.9523V54.4437H132.385L127.125 48.302V52.1676C127.125 52.6012 127.162 52.9263 127.237 53.1792C127.311 53.396 127.386 53.5766 127.535 53.685C127.647 53.7572 127.833 53.8295 128.132 53.9017C128.43 53.974 128.617 54.0101 128.729 54.0101V54.3714H125.185V54.0101C125.297 54.0101 125.483 53.974 125.744 53.9017C126.006 53.8295 126.155 53.7934 126.229 53.7211C126.379 53.6127 126.453 53.4682 126.528 53.2515C126.565 53.0347 126.602 52.7096 126.602 52.2038V48.4827C126.602 48.3382 126.565 48.1575 126.49 47.9769C126.416 47.8324 126.341 47.6879 126.229 47.6156C126.08 47.5072 125.894 47.3989 125.633 47.3266C125.371 47.2544 125.185 47.1821 125.036 47.1821V46.8208H127.498L132.385 52.565V48.9885C132.385 48.5549 132.347 48.2298 132.273 47.9769C132.198 47.7601 132.123 47.5795 131.974 47.5072C131.862 47.435 131.676 47.3627 131.415 47.3266C131.154 47.2544 130.967 47.2182 130.818 47.2182V46.857H134.362V47.2543H134.324V47.2543Z" fill="white"/>
<path id="Vector_234" opacity="0.7" d="M139.51 54.3714H135.593V54.0102C135.705 54.0102 135.854 54.0102 136.078 53.974C136.302 53.974 136.413 53.9379 136.525 53.9018C136.675 53.8657 136.749 53.7934 136.824 53.7211C136.898 53.6489 136.898 53.5405 136.898 53.396V47.9408C136.898 47.8324 136.861 47.724 136.824 47.6157C136.787 47.5434 136.675 47.4712 136.488 47.3989C136.376 47.3628 136.227 47.3266 136.04 47.2905C135.854 47.2544 135.705 47.2183 135.593 47.2183V46.857H139.51V47.2183C139.398 47.2183 139.249 47.2183 139.062 47.2544C138.876 47.2905 138.726 47.2905 138.614 47.3267C138.465 47.3628 138.353 47.435 138.316 47.5434C138.279 47.6518 138.241 47.7602 138.241 47.8686V53.3237C138.241 53.4321 138.279 53.5405 138.316 53.6489C138.391 53.7573 138.465 53.7934 138.614 53.8657C138.689 53.9018 138.838 53.9379 139.025 53.974C139.211 54.0102 139.398 54.0102 139.51 54.0463V54.3714Z" fill="white"/>
<path id="Vector_235" opacity="0.7" d="M148.388 50.8671C148.649 51.0116 148.836 51.1922 149.022 51.4451C149.171 51.698 149.283 51.987 149.283 52.3122C149.283 52.6734 149.209 52.9625 149.022 53.2153C148.836 53.4682 148.612 53.685 148.351 53.8656C148.09 54.0463 147.754 54.1547 147.418 54.2269C147.082 54.2992 146.709 54.3714 146.336 54.3714H142.233V54.0101C142.345 54.0101 142.457 53.974 142.643 53.974C142.83 53.9379 142.979 53.9379 143.054 53.9018C143.166 53.8656 143.277 53.7934 143.315 53.7211C143.352 53.6489 143.389 53.5405 143.389 53.396V47.9769C143.389 47.8685 143.352 47.7602 143.315 47.6518C143.277 47.5434 143.166 47.4711 143.054 47.435C142.942 47.3989 142.792 47.3266 142.643 47.3266C142.494 47.2905 142.382 47.2905 142.27 47.2905V46.9292H146.262C146.56 46.9292 146.859 46.9654 147.157 47.0015C147.455 47.0376 147.717 47.146 147.978 47.2905C148.202 47.3989 148.425 47.5795 148.575 47.7963C148.724 48.013 148.798 48.2659 148.798 48.555C148.798 48.8078 148.761 49.0607 148.649 49.2775C148.537 49.4943 148.388 49.6749 148.202 49.8194C148.015 49.9639 147.791 50.0723 147.567 50.1807C147.306 50.2891 147.045 50.3613 146.784 50.3974V50.4336C147.045 50.4697 147.306 50.5058 147.605 50.5781C147.903 50.6142 148.164 50.7226 148.388 50.8671ZM146.933 49.7471C147.082 49.6026 147.194 49.422 147.232 49.2414C147.306 49.0607 147.306 48.844 147.306 48.5911C147.306 48.1937 147.194 47.8685 146.933 47.6156C146.672 47.3628 146.262 47.2544 145.702 47.2544C145.59 47.2544 145.404 47.2544 145.217 47.2544C145.031 47.2544 144.844 47.2544 144.732 47.2544V50.1445H145.516C145.851 50.1445 146.15 50.1084 146.374 50.0362C146.597 50 146.784 49.8917 146.933 49.7471ZM147.791 52.1677C147.791 51.7341 147.605 51.3729 147.269 51.0838C146.933 50.7948 146.448 50.6503 145.777 50.6503C145.516 50.6503 145.292 50.6503 145.105 50.6503C144.919 50.6503 144.807 50.6503 144.695 50.6503V53.2876C144.695 53.5044 144.807 53.685 144.993 53.7934C145.217 53.9018 145.478 53.974 145.851 53.974C146.448 53.974 146.933 53.8295 147.232 53.5044C147.605 53.2153 147.791 52.7457 147.791 52.1677Z" fill="white"/>
<path id="Vector_236" opacity="0.7" d="M159.318 54.3715H156.968C156.446 53.6851 155.998 53.0709 155.55 52.5651C155.14 52.0594 154.692 51.5174 154.207 50.9755H153.312V53.3599C153.312 53.4683 153.349 53.5767 153.387 53.6851C153.424 53.7935 153.536 53.8657 153.685 53.9018C153.76 53.938 153.872 53.938 154.058 53.9741C154.245 54.0102 154.394 54.0102 154.506 54.0102V54.3715H150.85V54.0102C150.962 54.0102 151.074 53.9741 151.26 53.9741C151.447 53.9741 151.559 53.938 151.633 53.9018C151.745 53.8657 151.857 53.7935 151.895 53.6851C151.932 53.6128 151.969 53.4683 151.969 53.3599V47.9047C151.969 47.7964 151.932 47.688 151.895 47.5796C151.857 47.4712 151.745 47.399 151.596 47.3628C151.484 47.3267 151.372 47.2906 151.186 47.2906C151.037 47.2544 150.887 47.2544 150.775 47.2544V46.8932H154.767C155.14 46.8932 155.476 46.9293 155.811 47.0016C156.147 47.0738 156.408 47.1822 156.669 47.3267C156.931 47.4712 157.117 47.6518 157.266 47.8686C157.416 48.0854 157.49 48.3744 157.49 48.6995C157.49 48.9885 157.453 49.2414 157.341 49.4582C157.229 49.675 157.08 49.8556 156.893 50.0362C156.707 50.1807 156.483 50.3253 156.222 50.4336C155.961 50.542 155.7 50.6504 155.364 50.7227C155.774 51.2284 156.147 51.6258 156.446 51.951C156.744 52.2761 157.08 52.7096 157.49 53.1793C157.677 53.3961 157.826 53.5406 157.975 53.649C158.124 53.7573 158.274 53.8296 158.423 53.9018C158.535 53.938 158.647 53.9741 158.833 54.0102C158.982 54.0464 159.132 54.0463 159.243 54.0463V54.3715H159.318V54.3715ZM156.11 48.7718C156.11 48.3021 155.961 47.9409 155.662 47.688C155.364 47.4351 154.953 47.2906 154.394 47.2906H153.349V50.5059H154.133C154.692 50.5059 155.177 50.3614 155.55 50.0362C155.923 49.7472 156.11 49.3137 156.11 48.7718Z" fill="white"/>
<path id="Vector_237" opacity="0.7" d="M167.6 52.1677L167.45 54.3714H160.251V54.0102C160.363 54.0102 160.549 53.974 160.736 53.974C160.922 53.9379 161.071 53.9379 161.146 53.9018C161.295 53.8657 161.37 53.7934 161.407 53.685C161.444 53.6128 161.482 53.5044 161.482 53.3599V47.9408C161.482 47.8324 161.444 47.724 161.407 47.6157C161.37 47.5073 161.258 47.435 161.109 47.3989C160.997 47.3628 160.848 47.3266 160.661 47.2905C160.475 47.2544 160.325 47.2183 160.213 47.2183V46.857H166.928V48.6634H166.48C166.406 48.4105 166.219 48.1214 165.958 47.7963C165.697 47.5073 165.436 47.3266 165.175 47.2905C165.063 47.2905 164.914 47.2544 164.727 47.2544C164.541 47.2544 164.354 47.2544 164.13 47.2544H162.75V50.2529H163.72C164.018 50.2529 164.28 50.2168 164.391 50.1807C164.541 50.1446 164.653 50.0362 164.764 49.9278C164.839 49.8194 164.914 49.6749 164.988 49.5304C165.063 49.3498 165.1 49.2053 165.1 49.0607H165.548V52.0232H165.1C165.1 51.8425 165.026 51.6619 164.951 51.4813C164.876 51.3006 164.802 51.1561 164.727 51.0839C164.615 50.9394 164.466 50.8671 164.28 50.831C164.093 50.7949 163.907 50.7587 163.645 50.7587H162.675V52.9986C162.675 53.2154 162.713 53.396 162.713 53.5405C162.75 53.685 162.825 53.7573 162.937 53.8295C163.048 53.9018 163.198 53.9379 163.384 53.974C163.571 54.0102 163.832 54.0102 164.168 54.0102C164.317 54.0102 164.466 54.0102 164.69 54.0102C164.914 54.0102 165.1 54.0102 165.249 53.974C165.399 53.974 165.548 53.9379 165.734 53.9018C165.884 53.8657 166.033 53.8295 166.07 53.7573C166.257 53.5766 166.443 53.3237 166.667 52.9986C166.891 52.6373 167.003 52.3844 167.077 52.2399H167.6V52.1677V52.1677Z" fill="white"/>
<path id="Vector_238" opacity="0.7" d="M180.731 47.2544C180.619 47.2544 180.507 47.2905 180.395 47.3267C180.246 47.3628 180.134 47.3989 180.022 47.4712C179.873 47.5434 179.761 47.6518 179.686 47.7241C179.612 47.8325 179.537 47.977 179.462 48.1576C179.164 48.9885 178.828 49.9278 178.455 51.0117C178.082 52.0955 177.672 53.2515 177.224 54.4799H176.665L174.464 48.6995L172.188 54.4799H171.666C171.255 53.2515 170.845 51.951 170.397 50.6143C169.95 49.2775 169.689 48.3744 169.539 47.9408C169.502 47.8325 169.465 47.7241 169.39 47.6518C169.316 47.5796 169.204 47.4712 169.092 47.4351C168.98 47.3628 168.868 47.3267 168.719 47.2905C168.57 47.2544 168.458 47.2544 168.346 47.2183V46.857H171.89V47.2183C171.591 47.2183 171.33 47.2544 171.106 47.2905C170.882 47.3267 170.77 47.3989 170.77 47.4712C170.77 47.5073 170.77 47.5434 170.77 47.6157C170.77 47.6879 170.808 47.7241 170.808 47.7602C170.92 48.0853 171.069 48.5911 171.293 49.3137C171.517 50.0362 171.89 51.12 172.337 52.529L174.501 46.9293H175.098L177.299 52.6374C177.597 51.7703 177.858 50.9755 178.045 50.3252C178.231 49.6749 178.418 49.0969 178.567 48.6273C178.679 48.3021 178.716 48.0853 178.754 47.9408C178.791 47.8325 178.791 47.7241 178.791 47.6157C178.791 47.5073 178.679 47.3989 178.492 47.3267C178.306 47.2544 178.008 47.1822 177.56 47.146V46.7848H180.693L180.731 47.2544Z" fill="white"/>
</g>
<path id="Vector_239" opacity="0.7" d="M137.01 11.1995L142.942 13.7645V26.3729C142.942 26.3729 142.83 32.0448 146.896 33.6705C146.896 33.6705 137.01 33.7067 137.01 25.2529C137.01 16.7992 137.01 11.1995 137.01 11.1995Z" fill="white"/>
<path id="Vector_240" opacity="0.7" d="M158.124 11.1995L152.193 13.7645V26.3729C152.193 26.3729 152.305 32.0448 148.239 33.6705C148.239 33.6705 158.124 33.7067 158.124 25.2529C158.124 16.7992 158.124 11.1995 158.124 11.1995Z" fill="white"/>
</g>
</g>
</g>
</svg>
