<svg width="120" height="120" viewBox="0 0 120 120" fill="none" xmlns="http://www.w3.org/2000/svg">
<g clip-path="url(#clip0)">
<path d="M37.3917 95.4037C37.3917 95.4037 48.8203 97.8882 52.4228 96.7702C56.0253 95.6522 58.7582 89.0683 58.7582 89.0683H64.0998C64.0998 89.0683 66.7085 95.7764 70.4352 96.7702C74.1619 97.764 85.4663 95.4037 85.4663 95.4037L87.0812 68.8199H35.6526L37.3917 95.4037Z" fill="#FF9533"/>
<path d="M88.5719 45.4658C86.957 42.7329 85.7148 39.7515 85.0937 36.646C83.7272 31.1801 85.5906 24.0994 86.3359 21.118L80.0005 20.4969V60.8696H87.5781L88.5719 45.4658Z" fill="#FF9533"/>
<path d="M68.5719 19.5031C68.075 21.9876 66.3358 24.0994 63.9756 25.2174V60.8696H71.0563V19.8758L68.5719 19.5031Z" fill="#FF9533"/>
<path d="M36.5222 21.118C37.2675 24.0994 39.1309 31.0559 37.7644 36.646C37.0191 39.7516 35.901 42.7329 34.2861 45.4658L35.2799 60.8696H42.2364V20.6211L36.5222 21.118Z" fill="#FF9533"/>
<path d="M53.1682 19.6273L51.0564 19.8758V60.8696H58.7583V25.5901C55.9011 24.8447 53.7893 22.4845 53.1682 19.6273Z" fill="#FF9533"/>
<path d="M80.0005 60.8696V20.6211L71.1806 19.7516V60.8696H51.0564V19.8758L42.2366 20.6211V60.8696H35.28L35.6527 70.0621H87.0813L87.5782 60.8696H80.0005Z" fill="#EFEFEF"/>
<path d="M61.4912 25.7143H60.249C59.7521 25.7143 59.2552 25.7143 58.7583 25.5901V89.0683H64.0999V25.2174C63.2304 25.5901 62.3608 25.7143 61.4912 25.7143Z" fill="#595959"/>
<path d="M116.274 60C116.274 91.0559 91.0565 116.273 60.0006 116.273C28.9447 116.273 3.72729 91.1801 3.72729 60C3.72729 28.9441 28.9447 3.72672 60.0006 3.72672C91.0565 3.72672 116.274 28.9441 116.274 60Z" stroke="#E07D2B" stroke-width="6" stroke-miterlimit="10"/>
</g>
<defs>
<clipPath id="clip0">
<rect width="120" height="120" fill="white" transform="translate(0.000488281)"/>
</clipPath>
</defs>
</svg>
