<svg width="623" height="300" viewBox="0 0 623 300" fill="none" xmlns="http://www.w3.org/2000/svg">
<style>
#left {
  animation: up 6s infinite;
}
@keyframes up {
  0% {
    transform: translate(0, 0px);

  }
  75% {
    opacity: 1;
    transform: translate(0, -90px);
  }
  100% {
    transform: translate(0, -90px);
    opacity: 0;
  }
}
#right {
  animation: down 6s infinite;
}
@keyframes down {
  0% {
    transform: translate(0, -90px);

  }
  100% {
    transform: translate(0, 0px);
    opacity: 1;
  }
}
</style>
<g id="warehouse">
<path id="Vector" d="M311.179 17.7631L0 147.368V300H311.179H622.359V147.368L311.179 17.7631Z" fill="#F2DBBD"/>
<g id="doors">
<path id="Vector_2" d="M244.07 183.546H90.7866V299.984H244.07V183.546Z" fill="#ABABAB"/>
<g id="left">
<path id="Vector_3" d="M244.086 294.609V291.429V289.95V286.769V285.29V282.11V280.679V277.498V275.908V272.727V271.232V268.052V266.557V263.377V261.882V258.701V257.206V254.026V252.531V249.351V247.856V244.675V243.18V240V238.505V235.325V233.83V230.649V229.17V225.99V224.511V221.33V219.836V216.655V215.478V212.298V210.708V207.527V206.032V202.852V201.357V198.177V196.682V183.451H236.04V187.363H98.8333V183.451H90.7866V299.889H98.8333V295.993H236.024V299.889H244.07V295.993L244.086 294.609ZM236.024 289.95H98.8333V286.769H236.024V289.95ZM236.024 285.29H98.8333V282.11H236.024V285.29ZM236.024 280.631H98.8333V277.45H236.024V280.631ZM236.024 275.971H98.8333V272.791H236.024V275.971ZM236.024 271.312H98.8333V268.131H236.024V271.312ZM236.024 266.653H98.8333V263.472H236.024V266.653ZM236.024 261.993H98.8333V258.813H236.024V261.993ZM236.024 257.334H98.8333V254.153H236.024V257.334ZM236.024 252.674H98.8333V249.494H236.024V252.674ZM236.024 248.015H98.8333V244.834H236.024V248.015ZM236.024 243.355H98.8333V240.175H236.024V243.355ZM236.024 238.696H98.8333V235.516H236.024V238.696ZM236.024 234.037H98.8333V230.856H236.024V234.037ZM236.024 229.393H98.8333V226.213H236.024V229.393ZM236.024 224.734H98.8333V221.553H236.024V224.734ZM236.024 220.074H98.8333V216.894H236.024V220.074ZM236.024 215.415H98.8333V212.234H236.024V215.415ZM236.024 210.755H98.8333V207.575H236.024V210.755ZM236.024 206.096H98.8333V202.915H236.024V206.096ZM236.024 201.437H98.8333V198.256H236.024V201.437ZM236.024 196.777H98.8333V193.597H236.024V196.777ZM236.024 188.953V192.134H98.8333V188.953H236.024ZM98.8333 294.609V291.429H236.024V294.609H98.8333Z" fill="#DCDDE0"/>
</g>
<path id="Vector_4" d="M531.571 183.546H378.288V299.984H531.571V183.546Z" fill="#ABABAB"/>
<g id="right">
<path id="Vector_5" d="M531.571 299.984V183.546H523.509V187.458H386.334V183.546H378.288V299.984H386.334V296.088H523.509V299.984H531.571ZM386.334 188.953H523.509V192.134H386.334V188.953ZM386.334 193.613H523.509V196.793H386.334V193.613ZM386.334 198.272H523.509V201.452H386.334V198.272ZM386.334 202.931H523.509V206.112H386.334V202.931ZM386.334 207.591H523.509V210.771H386.334V207.591ZM386.334 212.25H523.509V215.431H386.334V212.25ZM386.334 216.91H523.509V220.09H386.334V216.91ZM386.334 221.569H523.509V224.75H386.334V221.569ZM386.334 226.213H523.509V229.393H386.334V226.213ZM386.334 230.872H523.509V234.052H386.334V230.872ZM386.334 235.531H523.509V238.712H386.334V235.531ZM386.334 240.191H523.509V243.371H386.334V240.191ZM386.334 244.85H523.509V248.031H386.334V244.85ZM386.334 249.51H523.509V252.69H386.334V249.51ZM386.334 254.169H523.509V257.35H386.334V254.169ZM386.334 258.829H523.509V262.009H386.334V258.829ZM386.334 263.488H523.509V266.668H386.334V263.488ZM386.334 268.147H523.509V271.328H386.334V268.147ZM386.334 272.807H523.509V275.987H386.334V272.807ZM386.334 277.466H523.509V280.647H386.334V277.466ZM386.334 282.126H523.509V285.306H386.334V282.126ZM386.334 286.769H523.509V289.95H386.334V286.769ZM386.334 294.609V291.429H523.509V294.609H386.334Z" fill="#DCDDE0"/>
</g>
<g id="Group">
<path id="Vector_6" d="M252.292 183.546H82.5654L72.6899 176.979H262.168L252.292 183.546Z" fill="#ABABAB"/>
<path id="Vector_7" d="M262.168 170.888H72.6899V176.979H262.168V170.888Z" fill="#1E6B53"/>
<path id="Vector_8" d="M539.793 183.546H370.066L360.19 176.979H549.668L539.793 183.546Z" fill="#ABABAB"/>
<path id="Vector_9" d="M549.668 170.888H360.19V176.979H549.668V170.888Z" fill="#1E6B53"/>
</g>
</g>
<path id="Vector_10" d="M0 147.368H622.359L311.179 17.7631L0 147.368Z" fill="#ABABAB"/>
<path id="Vector_11" d="M622.359 129.605L311.179 0L0 129.605V147.368H622.359V129.605ZM42.6504 129.605L311.179 17.7631L579.708 129.605H42.6504Z" fill="#1E6B53"/>
<path id="Vector_12" opacity="0.3" d="M69.4941 128.937L315.124 26.6366L560.753 128.937H578.134L311.18 17.7631L44.2251 128.937H69.4941Z" fill="#4A5C5C"/>
<path id="Vector_13" opacity="0.3" d="M404.256 74.1214H222.825V110.188H404.256V74.1214Z" fill="#282828"/>
<path id="Vector_14" d="M401.903 71.7678H220.472V107.835H401.903V71.7678Z" fill="#FDFDFD"/>
<path id="Vector_15" d="M247.283 81.7387L250.114 90.5486L250.846 87.7339L252.961 81.4842H257.175V82.1203L251.418 98.2136H248.985L246.329 90.2624L243.689 98.2136H241.336L235.516 82.1203V81.4842H239.809L241.924 87.7339L242.672 90.5486L245.439 81.7387H247.283Z" fill="#9BA7B2"/>
<path id="Vector_16" d="M268.561 95.9714H262.025L261.055 98.0546H256.904V97.4344L264.363 81.2616H266.191L273.666 97.4344V98.0546H269.531L268.561 95.9714ZM265.269 88.0201L263.472 92.3297H267.209L265.269 88.0201Z" fill="#9BA7B2"/>
<path id="Vector_17" d="M289.854 97.4344V98.0546H285.083L282.237 93.1725H280.042V98.0546H275.796V81.4842H283.064C284.322 81.4654 285.552 81.849 286.577 82.5791C287.601 83.3092 288.365 84.3476 288.758 85.5427C289.15 86.7378 289.15 88.0271 288.758 89.2223C288.366 90.4175 287.602 91.4562 286.578 92.1866L289.854 97.4344ZM283.096 85.269H280.074V89.3719H283.096C285.401 89.3719 285.513 85.3008 283.096 85.269Z" fill="#9BA7B2"/>
<path id="Vector_18" d="M302.751 85.269H296.629V87.6067H302.258V91.4392H296.629V94.3493H302.99V98.1182H292.415V81.4842H302.751V85.269Z" fill="#9BA7B2"/>
<path id="Vector_19" d="M320.419 98.0546H316.094V91.4392H310.973V98.0864H306.647V81.4842H310.973V87.4954H316.094V81.4842H320.419V98.0546Z" fill="#9BA7B2"/>
<path id="Vector_20" d="M323.647 89.8489C323.647 78.3992 340.647 78.3992 340.647 89.8489C340.647 101.299 323.647 101.267 323.647 89.8489ZM336.369 89.8489C336.404 89.2812 336.323 88.7123 336.13 88.1772C335.936 87.6422 335.636 87.1524 335.246 86.7379C334.857 86.3235 334.386 85.9932 333.864 85.7674C333.342 85.5417 332.779 85.4252 332.21 85.4252C331.642 85.4252 331.079 85.5417 330.557 85.7674C330.035 85.9932 329.564 86.3235 329.175 86.7379C328.785 87.1524 328.485 87.6422 328.291 88.1772C328.098 88.7123 328.017 89.2812 328.052 89.8489C327.979 90.4349 328.032 91.0297 328.206 91.5939C328.381 92.158 328.673 92.6787 329.064 93.1212C329.455 93.5638 329.936 93.9182 330.474 94.1609C331.012 94.4037 331.596 94.5292 332.187 94.5292C332.777 94.5292 333.361 94.4037 333.899 94.1609C334.438 93.9182 334.918 93.5638 335.309 93.1212C335.7 92.6787 335.993 92.158 336.167 91.5939C336.342 91.0297 336.394 90.4349 336.321 89.8489H336.369Z" fill="#9BA7B2"/>
<path id="Vector_21" d="M352.78 92.4728V81.4842H356.867V92.5364C356.867 96.1781 353.687 98.2931 350.268 98.2931C346.849 98.2931 343.684 96.1781 343.684 92.5364V81.4842H347.755V92.4728C347.755 93.8086 349.059 94.4766 350.284 94.4766C351.508 94.4766 352.78 93.8086 352.78 92.4728Z" fill="#9BA7B2"/>
<path id="Vector_22" d="M369.065 93.1089C369.065 91.9481 367.697 91.7572 366.043 91.6618C362.449 91.4074 360.08 90.167 360.032 86.573C359.889 79.4169 372.754 79.4169 372.675 86.573H368.651C368.651 84.3785 364.198 84.5534 364.055 86.573C363.96 87.8293 365.184 88.1633 366.679 88.2587C369.971 88.6085 373.183 89.0379 373.183 93.1725C373.183 100.138 359.698 100.329 359.793 93.0294H363.88C363.88 95.0967 369.065 95.049 369.065 93.1089Z" fill="#9BA7B2"/>
<path id="Vector_23" d="M386.653 85.269H380.515V87.6067H386.144V91.4392H380.515V94.3493H386.876V98.1182H376.38V81.4842H386.732L386.653 85.269Z" fill="#9BA7B2"/>
<path id="Vector_24" opacity="0.3" d="M611.179 185.709H553.66V218.277H611.179V185.709Z" fill="#282828"/>
<path id="Vector_25" d="M609.86 183.976H552.34V216.544H609.86V183.976Z" fill="#FDFDFD"/>
<path id="Vector_26" d="M606.775 188.905H555.441V211.598H606.775V188.905Z" fill="#92DADE"/>
<path id="Vector_27" d="M605.184 191.386H557.032V209.149H605.184V191.386Z" fill="#B7E7E9"/>
<g id="Group_2" opacity="0.3">
<path id="Vector_28" opacity="0.3" d="M600.541 191.386L591.62 209.149H600.398L605.184 199.592V191.386H600.541Z" fill="#FDFDFD"/>
<path id="Vector_29" opacity="0.3" d="M590.57 191.386L581.648 209.149H588.041L596.963 191.386H590.57Z" fill="#FDFDFD"/>
<path id="Vector_30" opacity="0.3" d="M571.328 191.386L562.407 209.149H574.747L583.668 191.386H571.328Z" fill="#FDFDFD"/>
<path id="Vector_31" opacity="0.3" d="M560.165 191.386L557.032 197.636V209.149H557.652L566.557 191.386H560.165Z" fill="#FDFDFD"/>
</g>
<path id="Vector_32" opacity="0.3" d="M611.179 233.385H553.66V265.953H611.179V233.385Z" fill="#282828"/>
<path id="Vector_33" d="M609.86 231.651H552.34V264.219H609.86V231.651Z" fill="#FDFDFD"/>
<path id="Vector_34" d="M606.775 236.597H555.441V259.29H606.775V236.597Z" fill="#92DADE"/>
<path id="Vector_35" d="M605.184 239.062H557.032V256.825H605.184V239.062Z" fill="#B7E7E9"/>
<g id="Group_3" opacity="0.3">
<path id="Vector_36" opacity="0.3" d="M600.541 239.062L591.62 256.825H600.398L605.184 247.283V239.062H600.541Z" fill="#FDFDFD"/>
<path id="Vector_37" opacity="0.3" d="M590.57 239.062L581.648 256.825H588.041L596.963 239.062H590.57Z" fill="#FDFDFD"/>
<path id="Vector_38" opacity="0.3" d="M571.328 239.062L562.407 256.825H574.747L583.668 239.062H571.328Z" fill="#FDFDFD"/>
<path id="Vector_39" opacity="0.3" d="M560.165 239.062L557.032 245.311V256.825H557.652L566.557 239.062H560.165Z" fill="#FDFDFD"/>
</g>
<path id="Vector_40" opacity="0.3" d="M70.0026 185.709H12.4834V218.277H70.0026V185.709Z" fill="#282828"/>
<path id="Vector_41" d="M68.6828 183.976H11.1636V216.544H68.6828V183.976Z" fill="#FDFDFD"/>
<path id="Vector_42" d="M65.5978 188.905H14.2646V211.598H65.5978V188.905Z" fill="#92DADE"/>
<path id="Vector_43" d="M64.0076 191.386H15.855V209.149H64.0076V191.386Z" fill="#B7E7E9"/>
<g id="Group_4" opacity="0.3">
<path id="Vector_44" opacity="0.3" d="M59.3642 191.386L50.4429 209.149H59.221L64.0077 199.592V191.386H59.3642Z" fill="#FDFDFD"/>
<path id="Vector_45" opacity="0.3" d="M49.393 191.386L40.4717 209.149H46.8645L55.7858 191.386H49.393Z" fill="#FDFDFD"/>
<path id="Vector_46" opacity="0.3" d="M30.1513 191.386L21.23 209.149H33.5703L42.4916 191.386H30.1513Z" fill="#FDFDFD"/>
<path id="Vector_47" opacity="0.3" d="M18.9878 191.386L15.855 197.636V209.149H16.4752L25.3806 191.386H18.9878Z" fill="#FDFDFD"/>
</g>
<path id="Vector_48" opacity="0.3" d="M70.0026 233.385H12.4834V265.953H70.0026V233.385Z" fill="#282828"/>
<path id="Vector_49" d="M68.6828 231.651H11.1636V264.219H68.6828V231.651Z" fill="#FDFDFD"/>
<path id="Vector_50" d="M65.5978 236.597H14.2646V259.29H65.5978V236.597Z" fill="#92DADE"/>
<path id="Vector_51" d="M64.0076 239.062H15.855V256.825H64.0076V239.062Z" fill="#B7E7E9"/>
<g id="Group_5" opacity="0.3">
<path id="Vector_52" opacity="0.3" d="M59.3642 239.062L50.4429 256.825H59.221L64.0077 247.283V239.062H59.3642Z" fill="#FDFDFD"/>
<path id="Vector_53" opacity="0.3" d="M49.393 239.062L40.4717 256.825H46.8645L55.7858 239.062H49.393Z" fill="#FDFDFD"/>
<path id="Vector_54" opacity="0.3" d="M30.1513 239.062L21.23 256.825H33.5703L42.4916 239.062H30.1513Z" fill="#FDFDFD"/>
<path id="Vector_55" opacity="0.3" d="M18.9878 239.062L15.855 245.311V256.825H16.4752L25.3806 239.062H18.9878Z" fill="#FDFDFD"/>
</g>
<path id="Vector_56" opacity="0.3" d="M340.599 185.709H283.08V218.277H340.599V185.709Z" fill="#282828"/>
<path id="Vector_57" d="M339.279 183.976H281.76V216.544H339.279V183.976Z" fill="#FDFDFD"/>
<path id="Vector_58" d="M336.194 188.905H284.861V211.598H336.194V188.905Z" fill="#92DADE"/>
<path id="Vector_59" d="M334.588 191.386H286.436V209.149H334.588V191.386Z" fill="#B7E7E9"/>
<g id="Group_6" opacity="0.3">
<path id="Vector_60" opacity="0.3" d="M329.96 191.386L321.039 209.149H329.801L334.604 199.592V191.386H329.96Z" fill="#FDFDFD"/>
<path id="Vector_61" opacity="0.3" d="M319.989 191.386L311.068 209.149H317.461L326.382 191.386H319.989Z" fill="#FDFDFD"/>
<path id="Vector_62" opacity="0.3" d="M300.747 191.386L291.826 209.149H304.151L313.072 191.386H300.747Z" fill="#FDFDFD"/>
<path id="Vector_63" opacity="0.3" d="M289.584 191.386L286.451 197.636V209.149H287.055L295.977 191.386H289.584Z" fill="#FDFDFD"/>
</g>
<path id="Vector_64" opacity="0.3" d="M340.599 233.385H283.08V265.953H340.599V233.385Z" fill="#282828"/>
<path id="Vector_65" d="M339.279 231.651H281.76V264.219H339.279V231.651Z" fill="#FDFDFD"/>
<path id="Vector_66" d="M336.194 236.597H284.861V259.29H336.194V236.597Z" fill="#92DADE"/>
<path id="Vector_67" d="M334.588 239.062H286.436V256.825H334.588V239.062Z" fill="#B7E7E9"/>
<g id="Group_7" opacity="0.3">
<path id="Vector_68" opacity="0.3" d="M329.96 239.062L321.039 256.825H329.801L334.604 247.283V239.062H329.96Z" fill="#FDFDFD"/>
<path id="Vector_69" opacity="0.3" d="M319.989 239.062L311.068 256.825H317.461L326.382 239.062H319.989Z" fill="#FDFDFD"/>
<path id="Vector_70" opacity="0.3" d="M300.747 239.062L291.826 256.825H304.151L313.072 239.062H300.747Z" fill="#FDFDFD"/>
<path id="Vector_71" opacity="0.3" d="M289.584 239.062L286.451 245.311V256.825H287.055L295.977 239.062H289.584Z" fill="#FDFDFD"/>
</g>
<rect id="Rectangle" x="68" y="148" width="484" height="23" fill="#F2DBBD"/>
</g>
</svg>
