<svg width="96" height="300" viewBox="0 0 96 300" fill="none" xmlns="http://www.w3.org/2000/svg">
<g clip-path="url(#clip0)">
<path d="M91.8933 114.418L88.6755 141.507V162.609H77.9746V112.996L91.8933 114.418Z" fill="#FCDD9F"/>
<path d="M2.17017 114.418L5.46276 141.507V162.609H16.1637V112.996L2.17017 114.418Z" fill="#FCDD9F"/>
<path d="M19.0073 156.772H2.91846L6.36071 184.61V190.821C6.36071 190.821 12.4969 195.311 14.218 194.936C15.7147 194.637 17.2113 189.698 17.2113 189.698L15.116 188.651V183.337L19.0073 156.772Z" fill="#FFD925"/>
<path d="M47.3684 52.5318H45.8718C40.9329 52.5318 36.892 56.9469 36.892 62.4096V70.3417C36.892 71.1649 36.9668 71.988 37.1913 72.7363C37.8648 76.2534 40.5587 79.097 44.001 79.995C44.5996 80.1447 45.2731 80.2195 45.8718 80.2195H47.3684C48.416 80.2195 49.5385 79.995 50.5113 79.6209C53.4298 78.3487 55.4502 75.7296 56.1237 72.6615C56.2734 71.9132 56.3482 71.1649 56.3482 70.3417V62.3347C56.3482 56.9469 52.3821 52.5318 47.3684 52.5318Z" fill="#E2C188"/>
<path d="M28.6605 117.261V86.0564C28.6605 81.1175 22.674 75.2058 17.7351 75.2058C17.7351 75.2058 5.31305 75.2058 2.91844 86.0564L-0.0748291 117.261H28.6605Z" fill="#595959"/>
<path d="M66.675 117.261V86.0564C66.675 81.1175 72.6616 75.2058 77.6005 75.2058C77.6005 75.2058 90.0225 75.2058 92.3423 86.0564L93.2403 95.7096L95.3356 117.186L66.675 117.261Z" fill="#595959"/>
<path d="M50.212 262.135L76.4779 260.264L76.3283 151.983H18.1093V165.378V260.414L44.3752 261.911L45.0486 182.589H48.4161L50.212 262.135Z" fill="#E07D2B"/>
<path d="M32.028 45.797C33.1504 49.6134 32.5518 53.2053 30.681 53.7291C28.8102 54.2529 26.4156 51.6338 25.2931 47.7426C24.1706 43.8513 24.7693 40.4091 26.6401 39.8104C28.5109 39.2118 30.9055 41.9805 32.028 45.797Z" fill="#E8C68B"/>
<path d="M61.2123 45.797C60.0898 49.6134 60.6885 53.2053 62.5593 53.7291C64.4301 54.2529 66.8247 51.6338 67.9472 47.7426C69.0696 43.8513 68.471 40.3343 66.6002 39.8104C64.7294 39.2866 62.3348 41.9805 61.2123 45.797Z" fill="#E8C68B"/>
<path d="M63.6069 43.0282C63.6069 56.1986 55.8992 70.5662 46.3956 70.5662C36.892 70.5662 29.1843 56.1986 29.1843 43.0282C29.1843 29.8578 36.892 22.9733 46.3956 22.9733C55.8992 22.9733 63.6069 29.8578 63.6069 43.0282Z" fill="#FCDD9F"/>
<path d="M75.0562 156.772H91.145L87.7027 184.61V190.821C87.7027 190.821 81.5665 195.236 79.8454 194.936C78.3487 194.637 76.7773 189.698 76.7773 189.698L78.8726 188.651V183.337L75.0562 156.772Z" fill="#FFD925"/>
<path d="M20.878 282.115C20.878 282.115 16.4629 289.374 15.4153 292.218C14.3677 295.061 14.2928 300.224 25.2931 300C36.2933 299.775 37.341 294.388 37.341 294.388C37.341 294.388 41.0825 284.66 41.5315 281.142C41.6812 279.571 41.5315 274.931 41.5315 274.931L20.878 282.115Z" fill="#DBB625"/>
<path d="M24.0958 264.38V276.353L16.0139 290.571C16.0139 290.571 14.8915 296.333 25.8917 296.034C36.892 295.735 38.6131 287.279 38.6131 287.279L41.0825 280.768L42.5792 260.04L24.0958 264.38Z" fill="#FFD925"/>
<path d="M47.2188 258.394C47.2188 262.659 44.3752 268.047 40.4839 269.319C34.1981 271.414 27.4632 271.414 21.1774 269.319C17.3609 268.047 14.4425 262.659 14.4425 258.394C14.4425 254.053 17.2861 252.482 21.1774 253.754C27.4632 255.849 34.1981 255.849 40.4839 253.754C44.3003 252.557 47.2188 254.128 47.2188 258.394Z" fill="#FF9533"/>
<path d="M75.7296 281.966C75.7296 281.966 80.2195 289.224 81.342 291.993C82.4645 294.762 82.6141 299.925 71.6139 299.85C60.6136 299.776 59.4912 294.388 59.4912 294.388C59.4912 294.388 55.5999 284.734 55.1509 281.217C54.9264 279.646 55.0761 275.006 55.0761 275.006L75.7296 281.966Z" fill="#DBB625"/>
<path d="M72.2874 264.305L72.437 276.278L80.7433 290.347C80.7433 290.347 82.0155 296.034 71.0152 295.959C60.015 295.884 58.219 287.428 58.219 287.428L55.5999 280.993L53.804 260.339L72.2874 264.305Z" fill="#FFD925"/>
<path d="M47.518 257.945C47.5929 262.21 50.5113 267.523 54.4026 268.72C60.6884 270.741 67.4981 270.591 73.7091 268.421C77.5255 267.074 80.2943 261.686 80.2943 257.421C80.2195 253.081 78.0493 251.584 74.2329 252.931C67.7226 255.101 60.7632 255.251 54.1781 253.23C50.2868 252.033 47.4432 253.604 47.518 257.945Z" fill="#FF9533"/>
<path d="M52.3073 56.9469C52.3073 61.5116 49.763 65.2532 46.5452 65.2532C43.3275 65.2532 40.7832 61.5116 40.7832 56.9469C40.7832 52.3821 43.3275 49.0895 46.5452 49.0895C49.763 49.0895 52.3073 52.3821 52.3073 56.9469Z" fill="#C1C1BF"/>
<path d="M55.5999 61.7361C55.5999 57.8449 55.076 57.2462 52.7562 55.8992C51.11 54.2529 48.9398 53.355 46.6201 53.2053C44.3003 53.2801 42.1302 54.2529 40.4839 55.8992C38.1641 57.1714 37.6403 57.8449 37.6403 61.7361C37.6403 61.8109 37.6403 61.8858 37.6403 61.9606C37.7151 67.1988 41.6063 71.3894 46.6201 71.3894H46.7697C51.7086 71.3894 55.6747 67.0491 55.5999 61.7361Z" fill="#939393"/>
<path d="M29.7081 50.7358C29.7081 50.7358 30.232 51.4842 31.0551 52.457C32.0279 53.7291 33.1504 54.8516 34.2729 55.9741C34.5722 56.2734 34.8715 56.5727 35.2457 56.7972C35.545 57.0965 35.8443 57.321 36.2185 57.5455C36.5178 57.77 36.8171 57.9945 37.1165 58.1442C37.4158 58.2938 37.6403 58.4435 37.9396 58.5932C38.1641 58.7428 38.3886 58.8177 38.6131 58.8925C38.7628 58.9673 38.9873 58.9673 39.1369 59.0422L39.5859 59.117L39.3614 61.3619L38.6131 61.1374C38.3886 61.0626 38.0893 60.9878 37.8648 60.8381L37.4906 60.6136C37.341 60.5388 37.1913 60.4639 37.0416 60.3143C36.7423 60.0898 36.3681 59.8653 36.1436 59.6408C35.8443 59.3415 35.545 59.117 35.2457 58.7428C34.9463 58.4435 34.647 58.1442 34.3477 57.77C34.0484 57.3959 33.749 57.0965 33.5245 56.7224C32.0279 54.8516 30.7558 52.8311 29.7081 50.7358Z" fill="#939393"/>
<path d="M63.2328 50.7358C62.1851 52.8311 60.913 54.8516 59.4912 56.7224C59.1918 57.0965 58.9673 57.4707 58.668 57.77C58.3687 58.0693 58.0694 58.4435 57.77 58.7428C57.4707 59.0421 57.1714 59.3415 56.8721 59.6408C56.5727 59.8653 56.2734 60.1646 55.9741 60.3143C55.8244 60.3891 55.6748 60.5388 55.5251 60.6136L55.0761 60.8381C54.8516 60.9878 54.5523 61.0626 54.3278 61.1374L53.5795 61.3619L53.4298 59.117H53.804C53.9536 59.117 54.1781 59.0422 54.3278 58.9673C54.5523 58.8925 54.8516 58.8177 55.0761 58.668C55.3754 58.5183 55.6748 58.3687 55.8992 58.219C56.1986 57.9945 56.4979 57.77 56.7972 57.5455C57.0966 57.321 57.4707 57.0965 57.77 56.7972C58.0694 56.5727 58.3687 56.1985 58.7429 55.9741C59.8653 54.8516 60.9878 53.7291 61.9606 52.457C62.7089 51.4842 63.2328 50.7358 63.2328 50.7358Z" fill="#939393"/>
<path d="M25.0686 43.552C25.0686 44.2255 24.5447 44.7493 23.8713 44.7493C23.1978 44.7493 22.674 44.2255 22.674 43.552V38.5383C22.674 37.8648 23.1978 37.341 23.8713 37.341C24.5447 37.341 25.0686 37.8648 25.0686 38.5383V43.552Z" fill="#686868"/>
<path d="M70.1173 43.552C70.1173 44.2255 69.5934 44.7493 68.92 44.7493C68.2465 44.7493 67.7227 44.2255 67.7227 43.552V38.5383C67.7227 37.8648 68.2465 37.341 68.92 37.341C69.5934 37.341 70.1173 37.8648 70.1173 38.5383V43.552Z" fill="#686868"/>
<path d="M47.2187 33.3749H45.5724C39.0621 33.3749 32.5517 33.8239 26.1162 34.5722C26.191 34.5722 23.8713 37.4906 23.8713 40.8581C23.5719 44.2255 25.6672 47.9671 27.987 49.763C30.9054 52.0828 36.443 52.3073 42.2798 52.2325C43.4023 52.2325 44.7493 46.3208 46.3208 45.2731C47.8922 46.3956 49.2392 52.2325 50.3617 52.2325C56.2734 52.3073 61.7361 52.0828 64.6545 49.763C66.9743 47.9671 69.0696 44.1507 68.7702 40.8581C68.7702 37.4906 66.4505 34.647 66.5253 34.5722C60.1646 33.8239 53.7291 33.4497 47.2187 33.3749Z" fill="#1681BF"/>
<path d="M27.0142 35.994C26.0413 37.4158 25.4427 39.1369 25.3679 40.8581V41.0077C25.1434 43.8513 27.0142 47.1439 28.8849 48.6406L29.1094 48.7902C32.7762 44.3003 36.6674 39.8104 39.8852 35.096C35.6198 35.1709 31.2796 35.4702 27.0142 35.994Z" fill="#54D4D8"/>
<path d="M47.2187 34.8715H45.6473C43.7765 34.8715 41.9057 34.9464 40.0349 35.0212C36.7423 39.8104 32.9259 44.2255 29.1843 48.7154C31.0551 49.9875 34.0484 50.5113 37.2661 50.661C40.8581 44.9738 44.5248 39.8104 48.3412 34.9464L47.2187 34.8715Z" fill="#7AEAEA"/>
<path d="M48.2664 34.8715C44.4499 39.8104 40.858 44.899 37.1913 50.5862C38.3138 50.661 39.5111 50.661 40.7084 50.661H41.8308C42.205 49.9875 42.5792 49.2392 42.8037 48.4909C43.6268 46.5453 44.3751 44.7493 45.4976 43.9262L46.3956 43.4023L47.2187 44.001C47.8174 44.45 48.2664 45.0486 48.6405 45.7221C51.11 42.205 53.6542 38.7628 56.0489 35.1709C53.5046 35.0212 50.8855 34.9464 48.2664 34.8715Z" fill="#54D4D8"/>
<path d="M56.0488 35.1709C53.6542 38.688 51.1099 42.1302 48.6405 45.7221C49.0895 46.6201 49.5385 47.5929 49.9126 48.5657C50.212 49.314 50.5113 50.0624 50.8855 50.7359H52.9059C56.1237 45.6473 59.4911 40.6336 62.8585 35.6947C60.6884 35.4702 58.3686 35.3205 56.0488 35.1709Z" fill="#7AEAEA"/>
<path d="M67.4233 40.8581C67.3485 39.0621 66.7499 37.4158 65.777 35.9192C64.8791 35.8444 63.9062 35.7695 63.0083 35.6199C59.6408 40.5587 56.2734 45.5725 53.0557 50.661C57.2462 50.661 61.6613 50.2869 63.9063 48.4909C65.777 47.1439 67.6478 43.7765 67.4233 40.8581Z" fill="#54D4D8"/>
<path d="M51.4094 59.4911C51.4094 59.7156 49.2393 59.9401 46.6202 59.9401C44.001 59.9401 41.8309 59.7905 41.8309 59.4911C41.8309 59.1918 44.001 59.117 46.6202 59.117C49.2393 59.117 51.4094 59.2667 51.4094 59.4911Z" fill="#707070"/>
<path d="M51.4094 61.7361C51.4094 61.9606 49.2393 62.1103 46.6202 62.1103C44.001 62.1103 41.8309 61.9606 41.8309 61.7361C41.8309 61.5116 44.001 61.3619 46.6202 61.3619C49.2393 61.3619 51.4094 61.5116 51.4094 61.7361Z" fill="#707070"/>
<path d="M51.4094 63.981C51.4094 64.2055 49.2393 64.3552 46.6202 64.3552C44.001 64.3552 41.8309 64.2055 41.8309 63.981C41.8309 63.7566 44.001 63.5321 46.6202 63.5321C49.2393 63.5321 51.4094 63.7566 51.4094 63.981Z" fill="#707070"/>
<path d="M51.4094 63.3076C51.4094 63.532 49.2393 63.6817 46.6202 63.6817C44.001 63.6817 41.8309 63.532 41.8309 63.3076C41.8309 63.0831 44.001 62.9334 46.6202 62.9334C49.2393 62.9334 51.4094 63.0831 51.4094 63.3076Z" fill="#707070"/>
<path d="M68.022 29.1843C67.4233 13.32 57.8448 0.748322 46.0963 0.748322C34.3477 0.748322 24.7693 13.32 24.1706 29.1843L21.6263 34.7967H70.5662L68.022 29.1843Z" fill="#FFD925"/>
<path d="M50.1373 28.5857C49.9876 12.7214 49.2393 0 46.0963 0C42.4296 0 42.2051 12.7214 42.0554 28.5857L41.6064 34.1981H50.5862L50.1373 28.5857Z" fill="#FFE471"/>
<path d="M34.6471 123.098H23.8713V127.962H34.6471V123.098Z" fill="white"/>
<path d="M70.0424 123.098H59.2666V126.016H70.0424V123.098Z" fill="white"/>
<path d="M17.8847 165.378C17.8847 165.378 31.8782 168.371 36.3681 167.099C40.858 165.827 44.0758 157.595 44.0758 157.595H50.5861C50.5861 157.595 53.8039 165.827 58.2938 167.099C62.7837 168.371 76.7772 165.378 76.7772 165.378L78.7977 132.826H15.9391L17.8847 165.378Z" fill="#FF9533"/>
<path d="M80.444 104.24C80.444 104.24 78.1242 100.798 76.1786 93.5395C74.4574 86.8047 76.7024 78.1991 77.6752 74.6071L69.9675 73.9337V123.173H79.3215L80.444 104.24Z" fill="#FF9533"/>
<path d="M56.1237 72.5867C55.5251 75.6548 53.4298 78.2739 50.5114 79.546V123.098H59.1918V72.886L56.1237 72.5867Z" fill="#FF9533"/>
<path d="M16.8371 74.6071C17.8099 78.1991 20.0549 86.8047 18.3338 93.5395C16.463 100.798 14.0684 104.24 14.0684 104.24L15.1908 123.098H23.7965V73.9337L16.8371 74.6071Z" fill="#FF9533"/>
<path d="M37.2661 72.7363L34.647 72.9608V123.098H44.0758V79.995C40.5587 79.0222 37.9396 76.2534 37.2661 72.7363Z" fill="#FF9533"/>
<path d="M69.9675 123.098V73.8588L59.2666 72.886V123.098H34.647V72.9608L23.8713 73.9337V123.098H15.2656L15.8643 134.323H78.7228L79.3215 123.098H69.9675Z" fill="#EFEFEF"/>
<path d="M47.3684 80.2195H45.8718C45.2731 80.2195 44.5996 80.1447 44.001 79.995V157.67H50.5113V79.546C49.5385 79.995 48.4909 80.1447 47.3684 80.2195Z" fill="#595959"/>
</g>
<defs>
<clipPath id="clip0">
<rect width="95.3355" height="300" fill="white"/>
</clipPath>
</defs>
</svg>
