<?xml version="1.0" encoding="UTF-8" standalone="no"?>
<!DOCTYPE svg PUBLIC "-//W3C//DTD SVG 1.1//EN"
 "http://www.w3.org/Graphics/SVG/1.1/DTD/svg11.dtd">
<!-- Generated by graphviz version 2.40.1 (20161225.0304)
 -->
<!-- Title: dependencies Pages: 1 -->
<svg width="2286pt" height="284pt"
 viewBox="0.00 0.00 2286.00 284.00" xmlns="http://www.w3.org/2000/svg" xmlns:xlink="http://www.w3.org/1999/xlink">
<g id="graph0" class="graph" transform="scale(1 1) rotate(0) translate(4 280)">
<title>dependencies</title>
<polygon fill="#ffffff" stroke="transparent" points="-4,4 -4,-280 2282,-280 2282,4 -4,4"/>
<text text-anchor="start" x="1118.0091" y="-42.4" font-family="sans-serif" font-weight="bold" font-size="14.00" fill="#000000">Legend</text>
<polygon fill="#ffffb3" stroke="transparent" points="905,-10 905,-30 925,-30 925,-10 905,-10"/>
<text text-anchor="start" x="928.629" y="-15.4" font-family="sans-serif" font-size="14.00" fill="#000000"> &#160;Declarations</text>
<polygon fill="#8dd3c7" stroke="transparent" points="1018,-10 1018,-30 1038,-30 1038,-10 1018,-10"/>
<text text-anchor="start" x="1041.7251" y="-15.4" font-family="sans-serif" font-size="14.00" fill="#000000"> &#160;Module</text>
<polygon fill="#80b1d3" stroke="transparent" points="1104,-10 1104,-30 1124,-30 1124,-10 1104,-10"/>
<text text-anchor="start" x="1127.7812" y="-15.4" font-family="sans-serif" font-size="14.00" fill="#000000"> &#160;Bootstrap</text>
<polygon fill="#fdb462" stroke="transparent" points="1201,-10 1201,-30 1221,-30 1221,-10 1201,-10"/>
<text text-anchor="start" x="1224.6732" y="-15.4" font-family="sans-serif" font-size="14.00" fill="#000000"> &#160;Providers</text>
<polygon fill="#fb8072" stroke="transparent" points="1297,-10 1297,-30 1317,-30 1317,-10 1297,-10"/>
<text text-anchor="start" x="1320.7258" y="-15.4" font-family="sans-serif" font-size="14.00" fill="#000000"> &#160;Exports</text>
<g id="clust1" class="cluster">
<title>cluster_AppModule</title>
<polygon fill="none" stroke="#000000" stroke-dasharray="1,5" points="8,-70 8,-268 2270,-268 2270,-70 8,-70"/>
</g>
<g id="clust2" class="cluster">
<title>cluster_AppModule_declarations</title>
<polygon fill="none" stroke="#000000" points="322,-78 322,-130 2262,-130 2262,-78 322,-78"/>
</g>
<g id="clust16" class="cluster">
<title>cluster_AppModule_imports</title>
<polygon fill="none" stroke="#000000" points="170,-78 170,-130 314,-130 314,-78 170,-78"/>
</g>
<g id="clust18" class="cluster">
<title>cluster_AppModule_bootstrap</title>
<polygon fill="none" stroke="#000000" points="1108,-208 1108,-260 1232,-260 1232,-208 1108,-208"/>
</g>
<g id="clust19" class="cluster">
<title>cluster_AppModule_providers</title>
<polygon fill="none" stroke="#000000" points="16,-78 16,-130 162,-130 162,-78 16,-78"/>
</g>
<!-- AdminComponent -->
<g id="node1" class="node">
<title>AdminComponent</title>
<polygon fill="#ffffb3" stroke="#000000" points="2254.2204,-122 2133.7796,-122 2133.7796,-86 2254.2204,-86 2254.2204,-122"/>
<text text-anchor="middle" x="2194" y="-99.8" font-family="Times,serif" font-size="14.00" fill="#000000">AdminComponent</text>
</g>
<!-- AppModule -->
<g id="node14" class="node">
<title>AppModule</title>
<polygon fill="#8dd3c7" stroke="#000000" points="1211.6571,-187 1208.6571,-191 1187.6571,-191 1184.6571,-187 1128.3429,-187 1128.3429,-151 1211.6571,-151 1211.6571,-187"/>
<text text-anchor="middle" x="1170" y="-164.8" font-family="Times,serif" font-size="14.00" fill="#000000">AppModule</text>
</g>
<!-- AdminComponent&#45;&gt;AppModule -->
<g id="edge1" class="edge">
<title>AdminComponent&#45;&gt;AppModule</title>
<path fill="none" stroke="#000000" d="M2194,-122.3228C2194,-145.6602 2194,-183 2194,-183 2194,-183 1221.7301,-183 1221.7301,-183"/>
<polygon fill="#000000" stroke="#000000" points="1221.7302,-179.5001 1211.7301,-183 1221.7301,-186.5001 1221.7302,-179.5001"/>
</g>
<!-- AdminLoginComponent -->
<g id="node2" class="node">
<title>AdminLoginComponent</title>
<polygon fill="#ffffb3" stroke="#000000" points="2115.6638,-122 1962.3362,-122 1962.3362,-86 2115.6638,-86 2115.6638,-122"/>
<text text-anchor="middle" x="2039" y="-99.8" font-family="Times,serif" font-size="14.00" fill="#000000">AdminLoginComponent</text>
</g>
<!-- AdminLoginComponent&#45;&gt;AppModule -->
<g id="edge2" class="edge">
<title>AdminLoginComponent&#45;&gt;AppModule</title>
<path fill="none" stroke="#000000" d="M2039,-122.2921C2039,-144.2057 2039,-178 2039,-178 2039,-178 1221.9137,-178 1221.9137,-178"/>
<polygon fill="#000000" stroke="#000000" points="1221.9137,-174.5001 1211.9137,-178 1221.9136,-181.5001 1221.9137,-174.5001"/>
</g>
<!-- AppComponent -->
<g id="node3" class="node">
<title>AppComponent</title>
<polygon fill="#ffffb3" stroke="#000000" points="1943.9399,-122 1838.0601,-122 1838.0601,-86 1943.9399,-86 1943.9399,-122"/>
<text text-anchor="middle" x="1891" y="-99.8" font-family="Times,serif" font-size="14.00" fill="#000000">AppComponent</text>
</g>
<!-- AppComponent&#45;&gt;AppModule -->
<g id="edge3" class="edge">
<title>AppComponent&#45;&gt;AppModule</title>
<path fill="none" stroke="#000000" d="M1891,-122.0267C1891,-142.7672 1891,-174 1891,-174 1891,-174 1221.8804,-174 1221.8804,-174"/>
<polygon fill="#000000" stroke="#000000" points="1221.8805,-170.5001 1211.8804,-174 1221.8804,-177.5001 1221.8805,-170.5001"/>
</g>
<!-- DragDropComponent -->
<g id="node4" class="node">
<title>DragDropComponent</title>
<polygon fill="#ffffb3" stroke="#000000" points="1820.0814,-122 1681.9186,-122 1681.9186,-86 1820.0814,-86 1820.0814,-122"/>
<text text-anchor="middle" x="1751" y="-99.8" font-family="Times,serif" font-size="14.00" fill="#000000">DragDropComponent</text>
</g>
<!-- DragDropComponent&#45;&gt;AppModule -->
<g id="edge4" class="edge">
<title>DragDropComponent&#45;&gt;AppModule</title>
<path fill="none" stroke="#000000" d="M1751,-122.1061C1751,-141.3391 1751,-169 1751,-169 1751,-169 1221.7841,-169 1221.7841,-169"/>
<polygon fill="#000000" stroke="#000000" points="1221.7841,-165.5001 1211.7841,-169 1221.7841,-172.5001 1221.7841,-165.5001"/>
</g>
<!-- DriverComponent -->
<g id="node5" class="node">
<title>DriverComponent</title>
<polygon fill="#ffffb3" stroke="#000000" points="1663.8655,-122 1546.1345,-122 1546.1345,-86 1663.8655,-86 1663.8655,-122"/>
<text text-anchor="middle" x="1605" y="-99.8" font-family="Times,serif" font-size="14.00" fill="#000000">DriverComponent</text>
</g>
<!-- DriverComponent&#45;&gt;AppModule -->
<g id="edge5" class="edge">
<title>DriverComponent&#45;&gt;AppModule</title>
<path fill="none" stroke="#000000" d="M1605,-122.302C1605,-140.2699 1605,-165 1605,-165 1605,-165 1221.7096,-165 1221.7096,-165"/>
<polygon fill="#000000" stroke="#000000" points="1221.7097,-161.5001 1211.7096,-165 1221.7096,-168.5001 1221.7097,-161.5001"/>
</g>
<!-- DriverListComponent -->
<g id="node6" class="node">
<title>DriverListComponent</title>
<polygon fill="#ffffb3" stroke="#000000" points="1527.6443,-122 1388.3557,-122 1388.3557,-86 1527.6443,-86 1527.6443,-122"/>
<text text-anchor="middle" x="1458" y="-99.8" font-family="Times,serif" font-size="14.00" fill="#000000">DriverListComponent</text>
</g>
<!-- DriverListComponent&#45;&gt;AppModule -->
<g id="edge6" class="edge">
<title>DriverListComponent&#45;&gt;AppModule</title>
<path fill="none" stroke="#000000" d="M1458,-122.027C1458,-138.3976 1458,-160 1458,-160 1458,-160 1221.8777,-160 1221.8777,-160"/>
<polygon fill="#000000" stroke="#000000" points="1221.8777,-156.5001 1211.8777,-160 1221.8776,-163.5001 1221.8777,-156.5001"/>
</g>
<!-- FlagsComponent -->
<g id="node7" class="node">
<title>FlagsComponent</title>
<polygon fill="#ffffb3" stroke="#000000" points="1369.6653,-122 1258.3347,-122 1258.3347,-86 1369.6653,-86 1369.6653,-122"/>
<text text-anchor="middle" x="1314" y="-99.8" font-family="Times,serif" font-size="14.00" fill="#000000">FlagsComponent</text>
</g>
<!-- FlagsComponent&#45;&gt;AppModule -->
<g id="edge7" class="edge">
<title>FlagsComponent&#45;&gt;AppModule</title>
<path fill="none" stroke="#000000" d="M1314,-122.1871C1314,-137.1824 1314,-156 1314,-156 1314,-156 1222.0379,-156 1222.0379,-156"/>
<polygon fill="#000000" stroke="#000000" points="1222.0379,-152.5001 1212.0379,-156 1222.0378,-159.5001 1222.0379,-152.5001"/>
</g>
<!-- MainFormComponent -->
<g id="node8" class="node">
<title>MainFormComponent</title>
<polygon fill="#ffffb3" stroke="#000000" points="1240.7162,-122 1099.2838,-122 1099.2838,-86 1240.7162,-86 1240.7162,-122"/>
<text text-anchor="middle" x="1170" y="-99.8" font-family="Times,serif" font-size="14.00" fill="#000000">MainFormComponent</text>
</g>
<!-- MainFormComponent&#45;&gt;AppModule -->
<g id="edge8" class="edge">
<title>MainFormComponent&#45;&gt;AppModule</title>
<path fill="none" stroke="#000000" d="M1170,-122.1061C1170,-122.1061 1170,-140.991 1170,-140.991"/>
<polygon fill="#000000" stroke="#000000" points="1166.5001,-140.9909 1170,-150.991 1173.5001,-140.991 1166.5001,-140.9909"/>
</g>
<!-- PrintLayoutComponent -->
<g id="node9" class="node">
<title>PrintLayoutComponent</title>
<polygon fill="#ffffb3" stroke="#000000" points="1081.2148,-122 932.7852,-122 932.7852,-86 1081.2148,-86 1081.2148,-122"/>
<text text-anchor="middle" x="1007" y="-99.8" font-family="Times,serif" font-size="14.00" fill="#000000">PrintLayoutComponent</text>
</g>
<!-- PrintLayoutComponent&#45;&gt;AppModule -->
<g id="edge9" class="edge">
<title>PrintLayoutComponent&#45;&gt;AppModule</title>
<path fill="none" stroke="#000000" d="M1007,-122.1871C1007,-137.1824 1007,-156 1007,-156 1007,-156 1118.0234,-156 1118.0234,-156"/>
<polygon fill="#000000" stroke="#000000" points="1118.0235,-159.5001 1128.0234,-156 1118.0234,-152.5001 1118.0235,-159.5001"/>
</g>
<!-- QuizComponent -->
<g id="node10" class="node">
<title>QuizComponent</title>
<polygon fill="#ffffb3" stroke="#000000" points="915.0452,-122 806.9548,-122 806.9548,-86 915.0452,-86 915.0452,-122"/>
<text text-anchor="middle" x="861" y="-99.8" font-family="Times,serif" font-size="14.00" fill="#000000">QuizComponent</text>
</g>
<!-- QuizComponent&#45;&gt;AppModule -->
<g id="edge10" class="edge">
<title>QuizComponent&#45;&gt;AppModule</title>
<path fill="none" stroke="#000000" d="M861,-122.027C861,-138.3976 861,-160 861,-160 861,-160 1118.3269,-160 1118.3269,-160"/>
<polygon fill="#000000" stroke="#000000" points="1118.3269,-163.5001 1128.3269,-160 1118.3269,-156.5001 1118.3269,-163.5001"/>
</g>
<!-- QuizIntroComponent -->
<g id="node11" class="node">
<title>QuizIntroComponent</title>
<polygon fill="#ffffb3" stroke="#000000" points="788.7562,-122 653.2438,-122 653.2438,-86 788.7562,-86 788.7562,-122"/>
<text text-anchor="middle" x="721" y="-99.8" font-family="Times,serif" font-size="14.00" fill="#000000">QuizIntroComponent</text>
</g>
<!-- QuizIntroComponent&#45;&gt;AppModule -->
<g id="edge11" class="edge">
<title>QuizIntroComponent&#45;&gt;AppModule</title>
<path fill="none" stroke="#000000" d="M721,-122.302C721,-140.2699 721,-165 721,-165 721,-165 1118.1624,-165 1118.1624,-165"/>
<polygon fill="#000000" stroke="#000000" points="1118.1624,-168.5001 1128.1624,-165 1118.1623,-161.5001 1118.1624,-168.5001"/>
</g>
<!-- ResultComponent -->
<g id="node12" class="node">
<title>ResultComponent</title>
<polygon fill="#ffffb3" stroke="#000000" points="635.6095,-122 518.3905,-122 518.3905,-86 635.6095,-86 635.6095,-122"/>
<text text-anchor="middle" x="577" y="-99.8" font-family="Times,serif" font-size="14.00" fill="#000000">ResultComponent</text>
</g>
<!-- ResultComponent&#45;&gt;AppModule -->
<g id="edge12" class="edge">
<title>ResultComponent&#45;&gt;AppModule</title>
<path fill="none" stroke="#000000" d="M577,-122.1061C577,-141.3391 577,-169 577,-169 577,-169 1118.3014,-169 1118.3014,-169"/>
<polygon fill="#000000" stroke="#000000" points="1118.3014,-172.5001 1128.3014,-169 1118.3014,-165.5001 1118.3014,-172.5001"/>
</g>
<!-- SecondaryFormComponent -->
<g id="node13" class="node">
<title>SecondaryFormComponent</title>
<polygon fill="#ffffb3" stroke="#000000" points="500.2534,-122 329.7466,-122 329.7466,-86 500.2534,-86 500.2534,-122"/>
<text text-anchor="middle" x="415" y="-99.8" font-family="Times,serif" font-size="14.00" fill="#000000">SecondaryFormComponent</text>
</g>
<!-- SecondaryFormComponent&#45;&gt;AppModule -->
<g id="edge13" class="edge">
<title>SecondaryFormComponent&#45;&gt;AppModule</title>
<path fill="none" stroke="#000000" d="M415,-122.0267C415,-142.7672 415,-174 415,-174 415,-174 1118.3325,-174 1118.3325,-174"/>
<polygon fill="#000000" stroke="#000000" points="1118.3325,-177.5001 1128.3325,-174 1118.3325,-170.5001 1118.3325,-177.5001"/>
</g>
<!-- AppComponent  -->
<g id="node16" class="node">
<title>AppComponent </title>
<polygon fill="#80b1d3" stroke="#000000" points="1224.439,-252 1115.561,-252 1115.561,-216 1224.439,-216 1224.439,-252"/>
<text text-anchor="middle" x="1170" y="-229.8" font-family="Times,serif" font-size="14.00" fill="#000000">AppComponent </text>
</g>
<!-- AppModule&#45;&gt;AppComponent  -->
<g id="edge15" class="edge">
<title>AppModule&#45;&gt;AppComponent </title>
<path fill="none" stroke="#000000" stroke-dasharray="1,5" d="M1170,-187.1061C1170,-187.1061 1170,-205.991 1170,-205.991"/>
<polygon fill="#000000" stroke="#000000" points="1166.5001,-205.9909 1170,-215.991 1173.5001,-205.991 1166.5001,-205.9909"/>
</g>
<!-- AppRoutingModule -->
<g id="node15" class="node">
<title>AppRoutingModule</title>
<polygon fill="#8dd3c7" stroke="#000000" points="306.2744,-122 303.2744,-126 282.2744,-126 279.2744,-122 177.7256,-122 177.7256,-86 306.2744,-86 306.2744,-122"/>
<text text-anchor="middle" x="242" y="-99.8" font-family="Times,serif" font-size="14.00" fill="#000000">AppRoutingModule</text>
</g>
<!-- AppRoutingModule&#45;&gt;AppModule -->
<g id="edge14" class="edge">
<title>AppRoutingModule&#45;&gt;AppModule</title>
<path fill="none" stroke="#000000" d="M242,-122.2921C242,-144.2057 242,-178 242,-178 242,-178 1118.3229,-178 1118.3229,-178"/>
<polygon fill="#000000" stroke="#000000" points="1118.323,-181.5001 1128.3229,-178 1118.3229,-174.5001 1118.323,-181.5001"/>
</g>
<!-- DriverService -->
<g id="node17" class="node">
<title>DriverService</title>
<ellipse fill="#fdb462" stroke="#000000" cx="89" cy="-104" rx="65.3839" ry="18"/>
<text text-anchor="middle" x="89" y="-99.8" font-family="Times,serif" font-size="14.00" fill="#000000">DriverService</text>
</g>
<!-- DriverService&#45;&gt;AppModule -->
<g id="edge16" class="edge">
<title>DriverService&#45;&gt;AppModule</title>
<path fill="none" stroke="#000000" d="M89,-122.3228C89,-145.6602 89,-183 89,-183 89,-183 1118.2859,-183 1118.2859,-183"/>
<polygon fill="#000000" stroke="#000000" points="1118.2859,-186.5001 1128.2859,-183 1118.2859,-179.5001 1118.2859,-186.5001"/>
</g>
</g>
</svg>
