<svg width="200" height="200" viewBox="0 0 200 200" fill="none" xmlns="http://www.w3.org/2000/svg">
<g id="printer">
<path id="Vector" d="M100 0C155.234 0 200 44.7656 200 100C200 155.234 155.234 200 100 200C44.7656 200 0 155.234 0 100C0 44.7656 44.7656 0 100 0Z" fill="#FFCDA4"/>
<path id="Vector_2" d="M12.3438 110.508H187.656V161.328C187.656 164.727 184.883 167.5 181.484 167.5H18.5156C15.1172 167.5 12.3438 164.727 12.3438 161.328C12.3438 161.289 12.3438 110.508 12.3438 110.508Z" fill="#25AE88"/>
<path id="Vector_3" d="M12.3438 110.508H187.656L173.164 84.2188H26.8359L12.3438 110.508Z" fill="#31DDA8"/>
<g id="Group">
<path id="Vector_4" d="M39.9609 129.844H160.039C162.461 129.844 164.492 131.836 164.492 134.297V140.625C164.492 143.047 162.5 145.078 160.039 145.078H39.9609C37.5391 145.078 35.5078 143.086 35.5078 140.625V134.297C35.5469 131.836 37.5391 129.844 39.9609 129.844Z" fill="#0E7886"/>
<path id="Vector_5" d="M39.375 90.7812H160.625L164.453 101.719H35.5469L39.375 90.7812Z" fill="#0E7886"/>
</g>
<path id="Vector_6" d="M47.3828 32.6562H152.656V101.719H47.3828V32.6562Z" fill="white"/>
<path id="Vector_7" d="M41.875 175.391H158.086V174.375H41.875V175.391Z" fill="#DFE1E3"/>
<path id="Vector_8" d="M41.875 174.336H158.086L152.617 129.844H47.3828L41.875 174.336Z" fill="white"/>
<g id="Group_2">
<path id="Vector_9" d="M58.1641 84.4531H140.195V86.1328H58.1641V84.4531ZM58.1641 89.2578H140.195V90.9375H58.1641V89.2578ZM58.1641 94.0234H112.773V95.7031H58.1641V94.0234Z" fill="#C8CACC"/>
<path id="Vector_10" d="M58.1641 75.8984H125.391V77.5781H58.1641V75.8984ZM58.1641 47.1875H140.195V48.8672H58.1641V47.1875ZM58.1641 51.9531H140.195V53.6328H58.1641V51.9531ZM58.1641 56.7578H140.195V58.4375H58.1641V56.7578ZM58.1641 61.5234H125.391V63.2031H58.1641V61.5234ZM58.1641 66.3281H140.391V68.0078H58.1641V66.3281ZM58.1641 71.1328H140.391V72.8125H58.1641V71.1328Z" fill="#C8CACC"/>
</g>
<path id="Vector_11" d="M168.281 117.344C170.234 117.344 171.836 118.945 171.836 120.898C171.836 122.852 170.234 124.453 168.281 124.453C166.328 124.453 164.727 122.852 164.727 120.898C164.727 118.945 166.328 117.344 168.281 117.344Z" fill="white"/>
<path id="Vector_12" d="M178.945 117.344C180.898 117.344 182.5 118.945 182.5 120.898C182.5 122.852 180.898 124.453 178.945 124.453C176.992 124.453 175.391 122.852 175.391 120.898C175.391 118.945 176.992 117.344 178.945 117.344Z" fill="#FBB429"/>
</g>
</svg>
