<svg width="338" height="200" viewBox="0 0 338 200" fill="none" xmlns="http://www.w3.org/2000/svg">
<g clip-path="url(#clip0)">
<path d="M252.456 183.228H83.9338L83.4121 182.428V16.1852H253.287V182.332L252.456 183.228Z" fill="#1E6B53"/>
<path d="M79.208 179.92L120.662 130.44L215.556 130.253L258.631 181.828L79.208 179.92Z" fill="#16503F"/>
<path d="M264.573 200H71.3632L70.7622 198.747V180.6H264.636L265.923 182.19V197.46L264.573 200Z" fill="#16503F"/>
<path d="M259.159 180.798H77.5269V197.315H259.159V180.798Z" fill="#1E6B53"/>
<path d="M121.464 39.9456L83.4121 18.0024L252.748 18.1725L215.556 39.9456H121.464Z" fill="#16503F"/>
<path d="M259.459 2.77551H77.8271V19.0769H259.459V2.77551Z" fill="#1E6B53"/>
<path d="M259.459 16.7351H77.8271V19.2725H259.459V16.7351Z" fill="#16503F"/>
<path d="M259.459 2.55713H77.8271V5.0633H259.459V2.55713Z" fill="#16503F"/>
<path d="M251.042 198.866V3.39636H266.226V198.945L264.985 200H252.95L251.042 198.866Z" fill="#16503F"/>
<path d="M85.5785 3.39917H70.394V197.981H85.5785V3.39917Z" fill="#16503F"/>
<path d="M83.276 199.997H71.9728C69.5432 199.997 67.7202 198.089 67.7202 195.594C67.7429 191.603 67.7599 186.114 67.689 184.577C67.5785 182.077 68.789 180.608 71.5901 180.608H82.2299C84.7814 180.608 86.766 181.669 86.766 184.01V194.914C86.7858 197.746 85.649 199.997 83.276 199.997Z" fill="#16503F"/>
<path d="M82.5023 198.772H72.6393C70.5158 198.772 68.9254 197.103 68.9367 194.925C68.9566 191.435 68.9707 186.644 68.9084 185.3C68.812 183.117 69.8694 181.827 72.3104 181.827H81.6036C83.8376 181.827 85.5727 182.754 85.5727 184.804V194.327C85.5783 196.802 84.5861 198.772 82.5023 198.772Z" fill="#1E6B53"/>
<path d="M84.311 190.299C84.311 191.697 83.8964 193.064 83.1194 194.227C82.3425 195.39 81.2382 196.296 79.9463 196.831C78.6543 197.366 77.2326 197.506 75.8611 197.233C74.4895 196.96 73.2297 196.287 72.2408 195.298C71.252 194.309 70.5786 193.05 70.3058 191.678C70.033 190.306 70.173 188.885 70.7081 187.593C71.2433 186.301 72.1495 185.197 73.3123 184.42C74.475 183.643 75.8421 183.228 77.2405 183.228C78.169 183.228 79.0884 183.411 79.9463 183.766C80.8041 184.122 81.5836 184.642 82.2401 185.299C82.8967 185.956 83.4175 186.735 83.7728 187.593C84.1282 188.451 84.311 189.37 84.311 190.299Z" fill="#16503F"/>
<path d="M83.6304 190.299C83.6304 191.562 83.2556 192.798 82.5535 193.849C81.8513 194.9 80.8533 195.719 79.6857 196.202C78.518 196.686 77.2332 196.813 75.9936 196.566C74.754 196.319 73.6154 195.711 72.7217 194.817C71.8281 193.923 71.2195 192.785 70.9729 191.545C70.7263 190.306 70.8529 189.021 71.3365 187.853C71.8202 186.686 72.6392 185.688 73.6901 184.985C74.7409 184.283 75.9764 183.908 77.2403 183.908C78.935 183.908 80.5604 184.582 81.7588 185.78C82.9572 186.978 83.6304 188.604 83.6304 190.299Z" fill="#16503F"/>
<path d="M83.276 19.4965H71.9756C69.5459 19.4965 67.723 17.5857 67.7372 15.0909C67.7599 11.0991 67.774 5.61051 67.706 4.07109C67.5926 1.57343 68.8031 0.102051 71.6042 0.102051H82.2468C84.7984 0.102051 86.7829 1.16519 86.7829 3.50409V14.4076C86.7886 17.2426 85.6546 19.4965 83.276 19.4965Z" fill="#16503F"/>
<path d="M82.5052 18.2661H72.6421C70.5215 18.2661 68.9283 16.5991 68.9396 14.4218C68.9594 10.9347 68.9736 6.14069 68.9141 4.79689C68.8149 2.61391 69.8723 1.32397 72.3161 1.32397H81.6093C83.8462 1.32397 85.5784 2.25103 85.5784 4.30076V13.8265C85.5812 16.2986 84.5889 18.2661 82.5052 18.2661Z" fill="#1E6B53"/>
<path d="M84.314 9.79506C84.3162 11.194 83.9035 12.5621 83.1279 13.7263C82.3523 14.8906 81.2489 15.7986 79.9571 16.3355C78.6653 16.8724 77.2433 17.014 75.871 16.7425C74.4987 16.471 73.2378 15.7984 72.2478 14.8101C71.2578 13.8217 70.5833 12.5618 70.3095 11.19C70.0358 9.81812 70.1752 8.39588 70.71 7.10324C71.2448 5.8106 72.151 4.70566 73.314 3.92824C74.477 3.15081 75.8445 2.73584 77.2434 2.73584C79.1169 2.73509 80.9141 3.47822 82.2399 4.80192C83.5657 6.12562 84.3117 7.92157 84.314 9.79506Z" fill="#16503F"/>
<path d="M83.6334 9.79506C83.6334 11.0589 83.2586 12.2944 82.5564 13.3452C81.8543 14.3961 80.8563 15.2151 79.6886 15.6988C78.521 16.1825 77.2361 16.309 75.9965 16.0624C74.757 15.8159 73.6183 15.2073 72.7247 14.3136C71.831 13.4199 71.2224 12.2813 70.9758 11.0417C70.7292 9.80215 70.8558 8.5173 71.3395 7.34966C71.8231 6.18201 72.6422 5.184 73.693 4.48184C74.7439 3.77968 75.9793 3.40491 77.2432 3.40491C78.938 3.40491 80.5633 4.07815 81.7617 5.27654C82.9601 6.47493 83.6334 8.10029 83.6334 9.79506Z" fill="#16503F"/>
<path d="M264.659 199.997H253.378C250.948 199.997 249.125 198.089 249.125 195.594C249.148 191.603 249.165 186.114 249.097 184.577C248.984 182.077 250.194 180.608 252.995 180.608H263.635C266.187 180.608 268.171 181.669 268.171 184.01V194.914C268.18 197.746 267.043 199.997 264.659 199.997Z" fill="#16503F"/>
<path d="M263.896 198.772H254.033C251.912 198.772 250.319 197.103 250.33 194.925C250.35 191.435 250.364 186.644 250.302 185.3C250.206 183.117 251.26 181.827 253.704 181.827H263.017C265.254 181.827 266.986 182.754 266.986 184.804V194.327C266.986 196.802 265.98 198.772 263.896 198.772Z" fill="#1E6B53"/>
<path d="M265.705 190.299C265.705 191.697 265.29 193.064 264.513 194.227C263.736 195.39 262.632 196.296 261.34 196.831C260.048 197.366 258.626 197.506 257.255 197.233C255.883 196.96 254.623 196.287 253.634 195.298C252.646 194.309 251.972 193.05 251.699 191.678C251.427 190.306 251.567 188.885 252.102 187.593C252.637 186.301 253.543 185.197 254.706 184.42C255.869 183.643 257.236 183.228 258.634 183.228C259.563 183.228 260.482 183.411 261.34 183.766C262.198 184.122 262.977 184.642 263.634 185.299C264.29 185.956 264.811 186.735 265.166 187.593C265.522 188.451 265.705 189.37 265.705 190.299Z" fill="#16503F"/>
<path d="M265.024 190.299C265.024 191.562 264.649 192.798 263.947 193.849C263.245 194.9 262.247 195.719 261.079 196.202C259.912 196.686 258.627 196.813 257.387 196.566C256.148 196.319 255.009 195.711 254.115 194.817C253.222 193.923 252.613 192.785 252.366 191.545C252.12 190.306 252.246 189.021 252.73 187.853C253.214 186.686 254.033 185.688 255.084 184.985C256.134 184.283 257.37 183.908 258.634 183.908C260.329 183.908 261.954 184.582 263.152 185.78C264.351 186.978 265.024 188.604 265.024 190.299Z" fill="#16503F"/>
<path d="M264.346 19.4001H253.052C250.625 19.4001 248.799 17.4893 248.813 14.9945C248.836 11.0028 248.853 5.51417 248.782 3.97759C248.669 1.47709 249.879 0.00854492 252.683 0.00854492H263.323C265.875 0.00854492 267.859 1.07168 267.859 3.41058V14.3141C267.865 17.1463 266.731 19.4001 264.346 19.4001Z" fill="#16503F"/>
<path d="M263.584 18.1725H253.721C251.598 18.1725 250.004 16.5027 250.016 14.3254C250.036 10.8383 250.053 6.04425 249.99 4.70045C249.891 2.51748 250.948 1.22754 253.392 1.22754H262.686C264.92 1.22754 266.655 2.15459 266.655 4.20432V13.73C266.657 16.2022 265.665 18.1725 263.584 18.1725Z" fill="#1E6B53"/>
<path d="M265.393 9.69864C265.393 11.0971 264.979 12.4644 264.203 13.6277C263.427 14.791 262.323 15.698 261.032 16.2343C259.74 16.7705 258.318 16.9118 256.946 16.6403C255.575 16.3689 254.314 15.6968 253.324 14.7091C252.334 13.7214 251.659 12.4624 251.384 11.0911C251.109 9.71989 251.247 8.29797 251.78 7.00506C252.313 5.71216 253.218 4.6063 254.379 3.82724C255.541 3.04817 256.907 2.63087 258.305 2.62807C259.235 2.62583 260.157 2.80707 261.016 3.1614C261.876 3.51572 262.658 4.03618 263.316 4.69297C263.974 5.34975 264.497 6.12996 264.853 6.98891C265.209 7.84786 265.393 8.76868 265.393 9.69864Z" fill="#16503F"/>
<path d="M264.718 9.69857C264.717 10.9618 264.341 12.1964 263.639 13.2463C262.936 14.2962 261.938 15.1144 260.771 15.5974C259.604 16.0805 258.32 16.2067 257.081 15.9602C255.842 15.7137 254.704 15.1055 253.81 14.2124C252.917 13.3194 252.308 12.1815 252.061 10.9427C251.814 9.70382 251.939 8.41953 252.422 7.25207C252.905 6.0846 253.722 5.08634 254.772 4.38341C255.821 3.68048 257.056 3.30442 258.319 3.30274C259.16 3.30162 259.992 3.46627 260.768 3.78726C261.545 4.10825 262.251 4.57927 262.845 5.17337C263.44 5.76746 263.911 6.47295 264.232 7.24945C264.554 8.02595 264.719 8.85821 264.718 9.69857Z" fill="#16503F"/>
<path d="M216.605 37.9015H120.092V131.353H216.605V37.9015Z" fill="#16503F"/>
<path d="M94.5651 163.831L92.2432 164.301V22.9155L94.5651 23.233V163.831Z" fill="#1E6B53"/>
<path d="M96.5556 161.707L94.5654 163.831V23.233L96.5556 24.4096V161.707Z" fill="#16503F"/>
<path d="M100.128 156.953L97.9873 157.389V26.156L100.128 26.4537V156.953Z" fill="#1E6B53"/>
<path d="M101.959 154.982L100.127 156.953V26.4536L101.959 27.5451V154.982Z" fill="#16503F"/>
<path d="M104.803 151.141L102.926 151.549V28.8578L104.803 29.1328V151.141Z" fill="#1E6B53"/>
<path d="M106.413 149.298L104.803 151.141V29.1328L106.413 30.1534V149.298Z" fill="#16503F"/>
<path d="M108.842 146.015L107.147 146.401V31.1711L108.842 31.432V146.015Z" fill="#1E6B53"/>
<path d="M110.294 144.286L108.842 146.015V31.432L110.294 32.3902V144.286Z" fill="#16503F"/>
<path d="M112.165 141.868L110.748 142.231V33.1897L112.165 33.4363V141.868Z" fill="#1E6B53"/>
<path d="M113.378 140.229L112.165 141.868V33.4364L113.378 34.3408V140.229Z" fill="#16503F"/>
<path d="M114.912 138.443L113.651 138.792V34.7319L114.912 34.9672V138.443Z" fill="#1E6B53"/>
<path d="M115.992 136.881L114.912 138.443V34.9673L115.992 35.832V136.881Z" fill="#16503F"/>
<path d="M120.064 131.5L119.363 131.812V37.8873H120.064V131.5Z" fill="#1E6B53"/>
<path d="M120.662 130.085L120.063 131.5V37.8873L120.662 38.3409V130.085Z" fill="#16503F"/>
<path d="M118.683 133.411L117.838 133.734L117.895 37.0935L118.683 37.1162V133.411Z" fill="#1E6B53"/>
<path d="M119.403 131.956L118.683 133.411V37.1162L119.403 37.9185V131.956Z" fill="#16503F"/>
<path d="M117.016 135.486L115.992 135.818V36.0389L117.016 36.2657V135.486Z" fill="#1E6B53"/>
<path d="M117.894 133.986L117.016 135.486V36.2656L117.894 37.0935V133.986Z" fill="#16503F"/>
<path d="M88.8923 170.66L86.4854 171.165V19.78L88.8923 20.1202V170.66Z" fill="#1E6B53"/>
<path d="M90.956 168.387L88.8921 170.66V20.1202L90.956 21.3818V168.387Z" fill="#16503F"/>
<path d="M241.649 163.629L243.971 164.1V22.9552L241.649 23.2727V163.629Z" fill="#1E6B53"/>
<path d="M239.662 161.512L241.649 163.629V23.2727L239.662 24.4492V161.512Z" fill="#16503F"/>
<path d="M236.087 156.766L238.227 157.2V26.1929L236.087 26.4877V156.766Z" fill="#1E6B53"/>
<path d="M234.256 154.798L236.087 156.766V26.4877L234.256 27.5792V154.798Z" fill="#16503F"/>
<path d="M231.412 150.962L233.289 151.368V28.8861L231.412 29.1639V150.962Z" fill="#1E6B53"/>
<path d="M229.805 149.123L231.412 150.962V29.1639L229.805 30.1817V149.123Z" fill="#16503F"/>
<path d="M227.372 145.845L229.07 146.231V31.1995L227.372 31.4574V145.845Z" fill="#1E6B53"/>
<path d="M225.921 144.119L227.372 145.845V31.4575L225.921 32.4158V144.119Z" fill="#16503F"/>
<path d="M224.052 141.703L225.47 142.066V33.2124L224.052 33.459V141.703Z" fill="#1E6B53"/>
<path d="M222.839 140.07L224.052 141.703V33.459L222.839 34.3634V140.07Z" fill="#16503F"/>
<path d="M221.302 138.287L222.564 138.633V34.7546L221.302 34.9871V138.287Z" fill="#1E6B53"/>
<path d="M220.222 136.728L221.302 138.287V34.9871L220.222 35.8517V136.728Z" fill="#16503F"/>
<path d="M216.154 131.353L216.852 131.667V37.9015H216.154V131.353Z" fill="#1E6B53"/>
<path d="M215.556 129.944L216.154 131.353V37.9015L215.556 38.3551V129.944Z" fill="#16503F"/>
<path d="M217.535 133.263L218.377 133.584L218.32 37.1105L217.535 37.1332V133.263Z" fill="#1E6B53"/>
<path d="M216.812 131.809L217.535 133.263V37.1332L216.812 37.9355V131.809Z" fill="#16503F"/>
<path d="M219.199 135.333L220.222 135.667V36.0587L219.199 36.2827V135.333Z" fill="#1E6B53"/>
<path d="M218.32 133.836L219.199 135.333V36.2827L218.32 37.1105V133.836Z" fill="#16503F"/>
<path d="M247.322 170.448L249.729 170.952V19.8282L247.322 20.1684V170.448Z" fill="#1E6B53"/>
<path d="M245.258 168.18L247.322 170.448V20.1685L245.258 21.4244V168.18Z" fill="#16503F"/>
<path d="M214.008 42.6133H122.689V48.6717H214.008V42.6133Z" fill="#16503F"/>
<path d="M214.008 42.6133H122.689V43.6594H214.008V42.6133Z" fill="#1E6B53"/>
<path d="M214.008 47.6257H122.689V48.6719H214.008V47.6257Z" fill="#1E6B53"/>
<path d="M122.689 48.6717V42.6133L123.749 43.6594V47.6256L122.689 48.6717Z" fill="#1E6B53"/>
<path d="M214.008 48.6717V42.6133L212.95 43.6594V47.6256L214.008 48.6717Z" fill="#1E6B53"/>
<path d="M214.008 53.9137H122.689V59.9722H214.008V53.9137Z" fill="#16503F"/>
<path d="M214.008 53.9137H122.689V54.9627H214.008V53.9137Z" fill="#1E6B53"/>
<path d="M214.008 58.9261H122.689V59.9723H214.008V58.9261Z" fill="#1E6B53"/>
<path d="M122.689 59.9722V53.9137L123.749 54.9627V58.926L122.689 59.9722Z" fill="#1E6B53"/>
<path d="M214.008 59.9722V53.9137L212.95 54.9627V58.926L214.008 59.9722Z" fill="#1E6B53"/>
<path d="M214.008 65.217H122.689V71.2755H214.008V65.217Z" fill="#16503F"/>
<path d="M214.008 65.217H122.689V66.2632H214.008V65.217Z" fill="#1E6B53"/>
<path d="M214.008 70.2294H122.689V71.2755H214.008V70.2294Z" fill="#1E6B53"/>
<path d="M122.689 71.2755V65.217L123.749 66.2632V70.2294L122.689 71.2755Z" fill="#1E6B53"/>
<path d="M214.008 71.2755V65.217L212.95 66.2632V70.2294L214.008 71.2755Z" fill="#1E6B53"/>
<path d="M214.011 76.5175H122.689V82.5759H214.011V76.5175Z" fill="#16503F"/>
<path d="M214.011 76.5175H122.689V77.5636H214.011V76.5175Z" fill="#1E6B53"/>
<path d="M214.011 81.5298H122.689V82.5759H214.011V81.5298Z" fill="#1E6B53"/>
<path d="M122.689 82.5759V76.5175L123.749 77.5664V81.5298L122.689 82.5759Z" fill="#1E6B53"/>
<path d="M214.011 82.5759V76.5175L212.95 77.5664V81.5298L214.011 82.5759Z" fill="#1E6B53"/>
<path d="M214.011 87.8179H122.689V93.8763H214.011V87.8179Z" fill="#16503F"/>
<path d="M214.011 87.8179H122.689V88.8668H214.011V87.8179Z" fill="#1E6B53"/>
<path d="M214.011 92.8302H122.689V93.8763H214.011V92.8302Z" fill="#1E6B53"/>
<path d="M122.689 93.8763V87.8179L123.749 88.8668V92.8302L122.689 93.8763Z" fill="#1E6B53"/>
<path d="M214.011 93.8763V87.8179L212.95 88.8668V92.8302L214.011 93.8763Z" fill="#1E6B53"/>
<path d="M214.008 99.1211H122.689V105.18H214.008V99.1211Z" fill="#16503F"/>
<path d="M214.008 99.1211H122.689V100.17H214.008V99.1211Z" fill="#1E6B53"/>
<path d="M214.008 104.133H122.689V105.18H214.008V104.133Z" fill="#1E6B53"/>
<path d="M122.689 105.18V99.1211L123.749 100.17V104.133L122.689 105.18Z" fill="#1E6B53"/>
<path d="M214.011 105.18V99.1211L212.95 100.17V104.133L214.011 105.18Z" fill="#1E6B53"/>
<path d="M214.011 110.422H122.689V116.48H214.011V110.422Z" fill="#16503F"/>
<path d="M214.011 110.422H122.689V111.47H214.011V110.422Z" fill="#1E6B53"/>
<path d="M214.011 115.434H122.689V116.48H214.011V115.434Z" fill="#1E6B53"/>
<path d="M122.689 116.48V110.422L123.749 111.47V115.434L122.689 116.48Z" fill="#1E6B53"/>
<path d="M214.011 116.48V110.422L212.95 111.47V115.434L214.011 116.48Z" fill="#1E6B53"/>
<path d="M214.011 121.725H122.689V127.783H214.011V121.725Z" fill="#16503F"/>
<path d="M214.011 121.725H122.689V122.774H214.011V121.725Z" fill="#1E6B53"/>
<path d="M214.011 126.737H122.689V127.783H214.011V126.737Z" fill="#1E6B53"/>
<path d="M122.689 127.783V121.725L123.749 122.771V126.737L122.689 127.783Z" fill="#1E6B53"/>
<path d="M214.011 127.783V121.725L212.95 122.771V126.737L214.011 127.783Z" fill="#1E6B53"/>
<path d="M337.003 180.798H252.749V19.4767L337.003 19.4824V180.798Z" fill="#16503F"/>
<path d="M327.06 174.95H262.694V180.801H327.06V174.95Z" fill="#1E6B53"/>
<path d="M327.06 174.008H262.694V174.907H327.06V174.008Z" fill="#1E6B53"/>
<path d="M327.06 19.4795H262.694V25.331H327.06V19.4795Z" fill="#1E6B53"/>
<path d="M263.36 180.798V19.4257H252.749V180.685L263.36 180.798Z" fill="#1E6B53"/>
<path d="M337.003 180.855V19.4823H326.391V180.742L337.003 180.855Z" fill="#1E6B53"/>
<path d="M320.988 28.1716H268.48V38.8455H320.988V28.1716Z" fill="#1E6B53"/>
<path d="M320.988 46.0409H268.48V56.7148H320.988V46.0409Z" fill="#1E6B53"/>
<path d="M320.988 76.8605H268.48V87.5372H320.988V76.8605Z" fill="#1E6B53"/>
<path d="M320.988 94.7297H268.48V105.404H320.988V94.7297Z" fill="#1E6B53"/>
<path d="M320.988 112.602H268.48V123.276H320.988V112.602Z" fill="#1E6B53"/>
<path d="M320.988 141.525H268.48V152.199H320.988V141.525Z" fill="#1E6B53"/>
<path d="M320.988 159.397H268.48V170.071H320.988V159.397Z" fill="#1E6B53"/>
<path d="M84.393 40.8414C83.6007 40.8941 82.8557 41.2373 82.3008 41.8053L84.393 40.8414Z" fill="url(#paint0_radial)"/>
<path d="M0 180.696H84.2571V19.3746L0 19.3831V180.696Z" fill="#16503F"/>
<path d="M74.3118 173.989H9.94531V179.84H74.3118V173.989Z" fill="#1E6B53"/>
<path d="M9.94531 180.702V179.84H74.3118V180.702" fill="#1E6B53"/>
<path d="M74.3118 173.909H9.94531V174.808H74.3118V173.909Z" fill="#1E6B53"/>
<path d="M74.3118 19.3802H9.94531V25.2317H74.3118V19.3802Z" fill="#1E6B53"/>
<path d="M73.6455 180.696V19.3264H84.257V180.586L73.6455 180.696Z" fill="#1E6B53"/>
<path d="M0 180.756V19.3831H10.6115V180.642L0 180.756Z" fill="#1E6B53"/>
<path d="M68.5257 28.0696H16.0181V38.7435H68.5257V28.0696Z" fill="#1E6B53"/>
<path d="M68.5257 45.9417H16.0181V56.6155H68.5257V45.9417Z" fill="#1E6B53"/>
<path d="M68.5257 76.7612H16.0181V87.4351H68.5257V76.7612Z" fill="#1E6B53"/>
<path d="M68.5257 94.6304H16.0181V105.304H68.5257V94.6304Z" fill="#1E6B53"/>
<path d="M68.5257 112.5H16.0181V123.174H68.5257V112.5Z" fill="#1E6B53"/>
<path d="M68.5257 141.426H16.0181V152.099H68.5257V141.426Z" fill="#1E6B53"/>
<path d="M68.5257 159.295H16.0181V169.969H68.5257V159.295Z" fill="#1E6B53"/>
<path d="M212.95 134.139H196.507V144.062H212.95V134.139Z" fill="#A98258"/>
<path d="M210.399 139.526L209.265 140.66L210.399 141.794L209.832 142.361H212.95V138.959H209.832L210.399 139.526Z" fill="#F4D5BD"/>
<path d="M200.955 129.036H197.729C197.706 129.036 197.683 129.027 197.667 129.011C197.65 128.994 197.641 128.972 197.641 128.949V128.416C197.641 128.204 197.725 128.002 197.874 127.852C198.024 127.703 198.226 127.619 198.438 127.619H200.247C200.458 127.619 200.66 127.703 200.81 127.852C200.959 128.002 201.043 128.204 201.043 128.416V128.949C201.043 128.972 201.034 128.994 201.017 129.011C201.001 129.027 200.979 129.036 200.955 129.036Z" fill="#F0C419"/>
<path d="M198.775 128.469H198.208V129.036H198.775V128.469Z" fill="#AA891D"/>
<path d="M199.626 128.469H199.059V129.036H199.626V128.469Z" fill="#AA891D"/>
<path d="M200.476 128.469H199.909V129.036H200.476V128.469Z" fill="#AA891D"/>
<path d="M206.342 129.036H203.116C203.092 129.036 203.07 129.027 203.054 129.011C203.037 128.994 203.028 128.972 203.028 128.949V128.416C203.028 128.204 203.112 128.002 203.261 127.852C203.411 127.703 203.613 127.619 203.824 127.619H205.633C205.844 127.619 206.047 127.703 206.196 127.852C206.346 128.002 206.43 128.204 206.43 128.416V128.949C206.43 128.972 206.421 128.994 206.404 129.011C206.388 129.027 206.365 129.036 206.342 129.036Z" fill="#F0C419"/>
<path d="M204.162 128.469H203.595V129.036H204.162V128.469Z" fill="#AA891D"/>
<path d="M205.012 128.469H204.445V129.036H205.012V128.469Z" fill="#AA891D"/>
<path d="M205.863 128.469H205.296V129.036H205.863V128.469Z" fill="#AA891D"/>
<path d="M211.728 129.036H208.502C208.479 129.036 208.456 129.027 208.44 129.011C208.423 128.994 208.414 128.972 208.414 128.949V128.416C208.414 128.204 208.498 128.002 208.647 127.852C208.797 127.703 208.999 127.619 209.211 127.619H211.019C211.231 127.619 211.433 127.703 211.583 127.852C211.732 128.002 211.816 128.204 211.816 128.416V128.949C211.816 128.972 211.807 128.994 211.79 129.011C211.774 129.027 211.752 129.036 211.728 129.036Z" fill="#F0C419"/>
<path d="M209.548 128.469H208.981V129.036H209.548V128.469Z" fill="#AA891D"/>
<path d="M210.399 128.469H209.832V129.036H210.399V128.469Z" fill="#AA891D"/>
<path d="M211.249 128.469H210.682V129.036H211.249V128.469Z" fill="#AA891D"/>
<path d="M212.383 134.139V133.64C212.384 133.45 212.331 133.263 212.231 133.1C212.13 132.938 211.987 132.807 211.816 132.722C211.646 132.636 211.503 132.505 211.403 132.343C211.302 132.181 211.249 131.994 211.249 131.803V129.036H208.981V131.803C208.982 131.994 208.929 132.181 208.829 132.343C208.728 132.506 208.585 132.637 208.414 132.722C208.244 132.808 208.101 132.939 208.001 133.101C207.9 133.263 207.847 133.45 207.847 133.64V134.139H212.383Z" fill="#6A3006"/>
<path d="M206.997 134.139V133.64C206.997 133.45 206.945 133.263 206.844 133.1C206.744 132.938 206.601 132.807 206.43 132.722C206.26 132.636 206.116 132.505 206.016 132.343C205.916 132.181 205.863 131.994 205.863 131.803V129.036H203.595V131.803C203.595 131.994 203.543 132.181 203.442 132.343C203.342 132.506 203.199 132.637 203.028 132.722C202.858 132.808 202.714 132.939 202.614 133.101C202.514 133.263 202.461 133.45 202.461 133.64V134.139H206.997Z" fill="#6A3006"/>
<path d="M201.61 134.139V133.64C201.611 133.45 201.558 133.263 201.458 133.1C201.357 132.938 201.214 132.807 201.043 132.722C200.873 132.636 200.73 132.505 200.63 132.343C200.529 132.181 200.476 131.994 200.476 131.803V129.036H198.208V131.803C198.209 131.994 198.156 132.181 198.056 132.343C197.955 132.506 197.812 132.637 197.641 132.722C197.471 132.808 197.328 132.939 197.228 133.101C197.128 133.263 197.074 133.45 197.074 133.64V134.139H201.61Z" fill="#6A3006"/>
<path d="M199.342 142.928H196.507V143.495H199.342V142.928Z" fill="#7C5F42"/>
<path d="M198.775 142.078H196.507V142.644H198.775V142.078Z" fill="#7C5F42"/>
<path d="M198.208 141.227H196.507V141.794H198.208V141.227Z" fill="#7C5F42"/>
<path d="M197.641 140.376H196.507V140.943H197.641V140.376Z" fill="#7C5F42"/>
<path d="M206.43 145.162H189.987V155.085H206.43V145.162Z" fill="#A98258"/>
<path d="M203.878 150.549L202.744 151.683L203.878 152.817L203.311 153.384H206.43V149.982H203.311L203.878 150.549Z" fill="#F4D5BD"/>
<path d="M194.435 140.059H191.209C191.197 140.059 191.185 140.057 191.174 140.052C191.163 140.047 191.154 140.041 191.145 140.032C191.137 140.024 191.131 140.014 191.127 140.003C191.122 139.992 191.12 139.98 191.121 139.968V139.438C191.121 139.227 191.205 139.024 191.354 138.875C191.503 138.725 191.706 138.641 191.917 138.641H193.726C193.937 138.641 194.14 138.725 194.289 138.875C194.439 139.024 194.523 139.227 194.523 139.438V139.968C194.523 139.98 194.521 139.992 194.517 140.003C194.513 140.014 194.506 140.024 194.498 140.032C194.49 140.041 194.48 140.047 194.469 140.052C194.458 140.057 194.447 140.059 194.435 140.059Z" fill="#F0C419"/>
<path d="M192.254 139.492H191.688V140.059H192.254V139.492Z" fill="#AA891D"/>
<path d="M193.105 139.492H192.538V140.059H193.105V139.492Z" fill="#AA891D"/>
<path d="M193.956 139.492H193.389V140.059H193.956V139.492Z" fill="#AA891D"/>
<path d="M199.822 140.059H196.595C196.583 140.059 196.572 140.057 196.561 140.052C196.55 140.047 196.54 140.041 196.532 140.032C196.524 140.024 196.517 140.014 196.513 140.003C196.509 139.992 196.507 139.98 196.507 139.968V139.438C196.507 139.227 196.591 139.024 196.741 138.875C196.89 138.725 197.093 138.641 197.304 138.641H199.113C199.324 138.641 199.527 138.725 199.676 138.875C199.825 139.024 199.909 139.227 199.909 139.438V139.968C199.91 139.98 199.908 139.992 199.904 140.003C199.899 140.014 199.893 140.024 199.885 140.032C199.876 140.041 199.867 140.047 199.856 140.052C199.845 140.057 199.833 140.059 199.822 140.059Z" fill="#F0C419"/>
<path d="M197.641 139.492H197.074V140.059H197.641V139.492Z" fill="#AA891D"/>
<path d="M198.492 139.492H197.925V140.059H198.492V139.492Z" fill="#AA891D"/>
<path d="M199.342 139.492H198.775V140.059H199.342V139.492Z" fill="#AA891D"/>
<path d="M205.208 140.059H201.981C201.97 140.059 201.958 140.057 201.947 140.052C201.936 140.047 201.927 140.041 201.918 140.032C201.91 140.024 201.904 140.014 201.899 140.003C201.895 139.992 201.893 139.98 201.894 139.968V139.438C201.894 139.227 201.978 139.024 202.127 138.875C202.276 138.725 202.479 138.641 202.69 138.641H204.499C204.71 138.641 204.913 138.725 205.062 138.875C205.212 139.024 205.296 139.227 205.296 139.438V139.968C205.296 139.98 205.294 139.992 205.29 140.003C205.286 140.014 205.279 140.024 205.271 140.032C205.263 140.041 205.253 140.047 205.242 140.052C205.231 140.057 205.22 140.059 205.208 140.059Z" fill="#F0C419"/>
<path d="M203.028 139.492H202.461V140.059H203.028V139.492Z" fill="#AA891D"/>
<path d="M203.879 139.492H203.312V140.059H203.879V139.492Z" fill="#AA891D"/>
<path d="M204.729 139.492H204.162V140.059H204.729V139.492Z" fill="#AA891D"/>
<path d="M205.863 145.162V144.66C205.863 144.47 205.81 144.283 205.71 144.121C205.61 143.96 205.466 143.829 205.296 143.744C205.126 143.659 204.983 143.527 204.882 143.365C204.782 143.203 204.729 143.016 204.729 142.826V140.059H202.461V142.826C202.461 143.017 202.408 143.204 202.308 143.366C202.208 143.528 202.064 143.659 201.894 143.744C201.724 143.83 201.581 143.96 201.48 144.122C201.38 144.284 201.327 144.47 201.327 144.66V145.162H205.863Z" fill="#6A3006"/>
<path d="M200.476 145.162V144.66C200.477 144.47 200.424 144.283 200.324 144.121C200.223 143.96 200.08 143.829 199.909 143.744C199.739 143.659 199.596 143.527 199.496 143.365C199.396 143.203 199.343 143.016 199.342 142.826V140.059H197.074V142.826C197.075 143.017 197.022 143.204 196.921 143.366C196.821 143.528 196.678 143.659 196.507 143.744C196.337 143.83 196.194 143.96 196.094 144.122C195.994 144.284 195.941 144.47 195.94 144.66V145.162H200.476Z" fill="#6A3006"/>
<path d="M195.09 145.162V144.66C195.09 144.47 195.037 144.283 194.937 144.121C194.837 143.96 194.693 143.829 194.523 143.744C194.353 143.659 194.21 143.527 194.11 143.365C194.009 143.203 193.956 143.016 193.956 142.826V140.059H191.688V142.826C191.688 143.017 191.635 143.204 191.535 143.366C191.435 143.528 191.291 143.659 191.121 143.744C190.951 143.83 190.808 143.96 190.707 144.122C190.607 144.284 190.554 144.47 190.554 144.66V145.162H195.09Z" fill="#6A3006"/>
<path d="M192.822 153.951H189.987V154.518H192.822V153.951Z" fill="#7C5F42"/>
<path d="M192.255 153.1H189.987V153.667H192.255V153.1Z" fill="#7C5F42"/>
<path d="M191.688 152.25H189.987V152.817H191.688V152.25Z" fill="#7C5F42"/>
<path d="M191.121 151.399H189.987V151.966H191.121V151.399Z" fill="#7C5F42"/>
<path d="M123.911 114.646V142.832H145.173V114.646H123.911ZM138.25 119.162C138.25 119.594 138.079 120.007 137.774 120.313C137.468 120.618 137.055 120.789 136.623 120.789H132.47C132.25 120.798 132.032 120.763 131.826 120.686C131.621 120.608 131.434 120.49 131.275 120.338C131.117 120.186 130.991 120.004 130.905 119.802C130.819 119.6 130.774 119.383 130.774 119.163C130.774 118.944 130.819 118.727 130.905 118.525C130.991 118.323 131.117 118.141 131.275 117.989C131.434 117.837 131.621 117.719 131.826 117.641C132.032 117.564 132.25 117.528 132.47 117.537H136.623C136.836 117.537 137.048 117.579 137.245 117.66C137.443 117.742 137.622 117.861 137.773 118.012C137.925 118.163 138.044 118.342 138.126 118.54C138.208 118.737 138.25 118.948 138.25 119.162Z" fill="#E9EDF5"/>
<path d="M145.182 114.646H134.514V117.537H136.623C136.842 117.528 137.061 117.564 137.266 117.641C137.471 117.719 137.659 117.837 137.817 117.989C137.976 118.141 138.102 118.323 138.188 118.525C138.274 118.727 138.318 118.944 138.318 119.163C138.318 119.383 138.274 119.6 138.188 119.802C138.102 120.004 137.976 120.186 137.817 120.338C137.659 120.49 137.471 120.608 137.266 120.686C137.061 120.763 136.842 120.798 136.623 120.789H134.514V142.832H145.182V114.646Z" fill="#DCE1EB"/>
<path d="M122.666 114.195H146.426V116.001H122.666V114.195Z" fill="#CDD2E1"/>
<path d="M134.514 114.195H146.421V116.001H134.514V114.195Z" fill="#BEC3D2"/>
<path d="M122.666 141.936H146.426V143.745H122.666V141.936Z" fill="#CDD2E1"/>
<path d="M134.514 141.936H146.421V143.745H134.514V141.936Z" fill="#BEC3D2"/>
<path d="M122.666 132.373H146.426V134.182H122.666V132.373Z" fill="#CDD2E1"/>
<path d="M134.514 132.373H146.421V134.182H134.514V132.373Z" fill="#BEC3D2"/>
<path d="M122.666 122.822H146.426V124.642H122.666V122.822Z" fill="#CDD2E1"/>
<path d="M134.514 122.822H146.421V124.642H134.514V122.822Z" fill="#BEC3D2"/>
<path d="M133.209 130.185H132.957L132.81 129.992C132.764 129.935 132.714 129.881 132.662 129.83H132.572V130.08C132.57 130.091 132.57 130.102 132.572 130.114C132.58 130.124 132.592 130.131 132.606 130.133H132.648H132.699V130.173H132.322V130.133C132.337 130.136 132.352 130.136 132.367 130.133H132.41C132.421 130.129 132.431 130.122 132.438 130.114C132.442 130.101 132.442 130.087 132.438 130.074V129.507C132.44 129.497 132.44 129.486 132.438 129.476C132.435 129.47 132.43 129.465 132.424 129.461C132.418 129.457 132.411 129.454 132.404 129.453H132.362C132.347 129.451 132.331 129.451 132.316 129.453V129.416H132.742C132.778 129.413 132.815 129.413 132.852 129.416C132.885 129.419 132.916 129.43 132.943 129.447C132.97 129.461 132.992 129.482 133.008 129.507C133.025 129.533 133.033 129.564 133.031 129.595C133.031 129.623 133.025 129.651 133.014 129.677C133.004 129.701 132.987 129.722 132.966 129.737C132.943 129.753 132.92 129.767 132.895 129.779C132.866 129.794 132.834 129.804 132.801 129.807L132.917 129.938L133.025 130.063L133.076 130.114C133.089 130.124 133.104 130.132 133.119 130.139C133.133 130.142 133.147 130.142 133.161 130.139H133.207V130.173L133.209 130.185ZM132.864 129.601C132.865 129.579 132.861 129.557 132.853 129.537C132.845 129.517 132.832 129.499 132.815 129.484C132.776 129.455 132.728 129.44 132.679 129.442H132.572V129.779H132.657C132.71 129.782 132.763 129.765 132.804 129.731C132.824 129.716 132.84 129.696 132.851 129.673C132.861 129.651 132.866 129.626 132.864 129.601Z" fill="#474747"/>
<path d="M134.023 129.49C134.062 129.529 134.096 129.574 134.122 129.623C134.146 129.676 134.157 129.733 134.154 129.79C134.154 129.849 134.143 129.906 134.122 129.961C134.098 130.01 134.064 130.054 134.023 130.091C133.983 130.129 133.934 130.157 133.881 130.173C133.827 130.192 133.769 130.201 133.711 130.199C133.65 130.2 133.59 130.19 133.533 130.168C133.48 130.148 133.432 130.118 133.391 130.08C133.353 130.042 133.321 129.998 133.297 129.949C133.276 129.897 133.266 129.841 133.266 129.785C133.265 129.728 133.276 129.671 133.297 129.618C133.321 129.567 133.355 129.521 133.397 129.484C133.436 129.446 133.485 129.419 133.538 129.405C133.592 129.384 133.65 129.374 133.708 129.377C133.767 129.377 133.825 129.387 133.881 129.405C133.934 129.423 133.982 129.452 134.023 129.49ZM133.93 130.057C133.955 130.022 133.974 129.982 133.986 129.941C133.991 129.894 133.991 129.846 133.986 129.799C133.991 129.75 133.991 129.701 133.986 129.652C133.974 129.611 133.955 129.572 133.93 129.538C133.908 129.507 133.879 129.483 133.845 129.467C133.805 129.449 133.761 129.439 133.717 129.439C133.671 129.437 133.626 129.449 133.587 129.473C133.552 129.493 133.523 129.522 133.501 129.555C133.478 129.59 133.46 129.628 133.45 129.669C133.439 129.713 133.433 129.759 133.433 129.805C133.432 129.852 133.438 129.9 133.45 129.946C133.46 129.988 133.479 130.026 133.504 130.06C133.526 130.093 133.557 130.119 133.592 130.136C133.631 130.155 133.674 130.164 133.717 130.165C133.761 130.165 133.805 130.155 133.845 130.136C133.874 130.111 133.9 130.082 133.921 130.048L133.93 130.057Z" fill="#474747"/>
<path d="M135.112 129.436H135.078H135.044L135.013 129.459C135 129.47 134.989 129.482 134.979 129.496C134.946 129.535 134.915 129.577 134.888 129.62C134.859 129.666 134.823 129.714 134.777 129.779L134.746 129.833C134.743 129.853 134.743 129.873 134.746 129.893V130.046C134.743 130.057 134.743 130.069 134.746 130.08C134.749 130.086 134.754 130.091 134.759 130.095C134.764 130.098 134.771 130.101 134.777 130.102H134.828C134.846 130.105 134.864 130.105 134.882 130.102V130.142H134.451V130.102C134.469 130.105 134.487 130.105 134.505 130.102H134.553C134.56 130.102 134.567 130.1 134.573 130.097C134.579 130.093 134.584 130.088 134.587 130.083C134.59 130.071 134.59 130.06 134.587 130.049V129.859C134.588 129.847 134.588 129.836 134.587 129.825C134.587 129.81 134.57 129.793 134.553 129.771L134.468 129.635C134.434 129.586 134.406 129.541 134.386 129.51C134.375 129.492 134.361 129.476 134.346 129.462C134.337 129.449 134.324 129.439 134.309 129.433C134.296 129.43 134.283 129.43 134.27 129.433C134.258 129.431 134.245 129.431 134.233 129.433V129.396H134.624V129.433H134.533C134.516 129.433 134.505 129.433 134.505 129.45C134.505 129.45 134.505 129.45 134.505 129.47C134.511 129.483 134.518 129.494 134.528 129.504C134.528 129.504 134.528 129.527 134.548 129.541C134.571 129.572 134.59 129.605 134.607 129.64L134.689 129.765C134.755 129.674 134.811 129.603 134.848 129.547C134.87 129.519 134.889 129.489 134.902 129.456C134.904 129.452 134.904 129.449 134.904 129.445C134.904 129.441 134.904 129.437 134.902 129.433C134.894 129.43 134.885 129.43 134.876 129.433C134.862 129.43 134.846 129.43 134.831 129.433C134.817 129.436 134.803 129.436 134.789 129.433V129.396H135.109V129.439L135.112 129.436Z" fill="#474747"/>
<path d="M136.076 130.185H135.693V130.145C135.72 130.148 135.748 130.148 135.775 130.145C135.798 130.145 135.809 130.145 135.809 130.125L135.732 129.949H135.409C135.402 129.971 135.393 129.993 135.384 130.014C135.377 130.034 135.37 130.053 135.361 130.071C135.359 130.083 135.359 130.096 135.361 130.108C135.361 130.108 135.361 130.125 135.361 130.131C135.361 130.136 135.378 130.156 135.406 130.162L135.497 130.179V130.219H135.148V130.179H135.194L135.236 130.162C135.252 130.155 135.266 130.145 135.276 130.131C135.276 130.131 135.276 130.102 135.302 130.088C135.35 129.989 135.401 129.878 135.455 129.754C135.508 129.629 135.56 129.521 135.602 129.428H135.656L135.962 130.102C135.967 130.115 135.975 130.127 135.985 130.136C135.994 130.146 136.004 130.155 136.016 130.162C136.029 130.165 136.043 130.165 136.056 130.162C136.068 130.164 136.08 130.164 136.093 130.162V130.207L136.076 130.185ZM135.704 129.861L135.562 129.555L135.426 129.861H135.704Z" fill="#474747"/>
<path d="M136.904 129.949L136.881 130.185H136.164V130.145C136.178 130.147 136.192 130.147 136.206 130.145C136.221 130.146 136.235 130.146 136.249 130.145C136.26 130.141 136.27 130.134 136.277 130.125C136.281 130.112 136.281 130.098 136.277 130.085V129.518C136.279 129.507 136.277 129.495 136.27 129.485C136.264 129.475 136.255 129.468 136.243 129.464C136.229 129.46 136.215 129.46 136.201 129.464C136.187 129.462 136.172 129.462 136.158 129.464V129.428H136.575V129.464C136.559 129.462 136.543 129.462 136.527 129.464H136.481C136.469 129.468 136.457 129.476 136.45 129.487C136.447 129.497 136.447 129.508 136.45 129.518V130.048C136.447 130.066 136.447 130.085 136.45 130.102C136.455 130.114 136.463 130.125 136.473 130.134C136.487 130.137 136.501 130.137 136.515 130.134H136.598H136.646C136.678 130.132 136.709 130.126 136.739 130.117L136.765 130.102C136.787 130.078 136.808 130.053 136.827 130.026C136.847 129.992 136.864 129.966 136.875 129.944H136.924L136.904 129.949Z" fill="#474747"/>
<path d="M131.154 130.7H131.083C131.056 130.704 131.03 130.714 131.007 130.729C130.984 130.729 130.973 130.766 130.961 130.805C130.958 130.853 130.958 130.9 130.961 130.947V131.446C130.963 131.503 130.947 131.56 130.916 131.608C130.89 131.657 130.851 131.697 130.803 131.724C130.756 131.749 130.706 131.769 130.655 131.783C130.607 131.794 130.557 131.8 130.508 131.8C130.44 131.801 130.372 131.791 130.306 131.772C130.252 131.757 130.2 131.733 130.153 131.701C130.116 131.672 130.085 131.637 130.06 131.596C130.039 131.558 130.029 131.515 130.029 131.472V130.803C130.031 130.786 130.031 130.768 130.029 130.752C130.016 130.738 130 130.727 129.983 130.72L129.929 130.703C129.91 130.703 129.887 130.703 129.875 130.703V130.649H130.406V130.703H130.338H130.284C130.275 130.705 130.267 130.71 130.261 130.715C130.254 130.721 130.25 130.729 130.247 130.737C130.244 130.753 130.244 130.77 130.247 130.786V131.412C130.244 131.445 130.244 131.478 130.247 131.511C130.252 131.545 130.266 131.577 130.289 131.602C130.313 131.634 130.346 131.658 130.383 131.673C130.435 131.694 130.491 131.703 130.547 131.701C130.603 131.702 130.657 131.693 130.709 131.673C130.75 131.66 130.787 131.635 130.814 131.602C130.836 131.575 130.854 131.544 130.868 131.511C130.878 131.481 130.884 131.45 130.885 131.418V130.953C130.886 130.904 130.88 130.855 130.868 130.808C130.863 130.779 130.848 130.752 130.825 130.732C130.797 130.718 130.768 130.707 130.737 130.698H130.655V130.644H131.174V130.698L131.154 130.7Z" fill="#474747"/>
<path d="M132.62 130.701H132.543C132.516 130.705 132.49 130.714 132.467 130.729C132.454 130.737 132.443 130.749 132.436 130.762C132.428 130.775 132.424 130.79 132.424 130.805C132.42 130.853 132.42 130.9 132.424 130.947V131.775H132.348L131.579 130.848V131.446C131.578 131.498 131.584 131.549 131.596 131.599C131.602 131.629 131.617 131.656 131.639 131.676C131.667 131.69 131.696 131.7 131.727 131.707L131.812 131.724V131.778H131.296V131.73C131.324 131.727 131.351 131.722 131.378 131.713C131.403 131.708 131.427 131.698 131.449 131.684C131.47 131.666 131.485 131.641 131.491 131.613C131.496 131.562 131.496 131.509 131.491 131.458V130.891C131.491 130.864 131.485 130.838 131.474 130.814C131.466 130.793 131.453 130.774 131.437 130.757C131.41 130.739 131.381 130.725 131.35 130.715C131.321 130.704 131.292 130.696 131.262 130.692V130.638H131.622L132.336 131.506V130.967C132.338 130.915 132.332 130.864 132.319 130.814C132.314 130.786 132.299 130.761 132.277 130.743C132.252 130.728 132.224 130.718 132.194 130.715C132.166 130.705 132.136 130.699 132.107 130.698V130.644H132.625V130.703L132.62 130.701Z" fill="#474747"/>
<path d="M133.377 131.775H132.81V131.73C132.833 131.732 132.857 131.732 132.88 131.73C132.902 131.734 132.924 131.734 132.946 131.73C132.963 131.725 132.979 131.715 132.991 131.701C132.991 131.701 132.991 131.676 132.991 131.653V130.831C132.994 130.814 132.994 130.797 132.991 130.78C132.977 130.765 132.959 130.755 132.94 130.749L132.875 130.732C132.853 130.73 132.831 130.73 132.81 130.732V130.678H133.377V130.732C133.355 130.729 133.333 130.729 133.311 130.732H133.246C133.237 130.733 133.228 130.737 133.22 130.743C133.213 130.749 133.207 130.757 133.204 130.766C133.201 130.782 133.201 130.798 133.204 130.814V131.636C133.201 131.653 133.201 131.67 133.204 131.687C133.204 131.701 133.223 131.707 133.246 131.718L133.306 131.735C133.334 131.735 133.36 131.735 133.377 131.735V131.784V131.775Z" fill="#474747"/>
<path d="M134.675 131.248C134.714 131.269 134.747 131.3 134.769 131.338C134.792 131.376 134.805 131.419 134.806 131.463C134.808 131.513 134.794 131.561 134.766 131.602C134.74 131.64 134.707 131.672 134.67 131.698C134.629 131.726 134.583 131.745 134.534 131.752C134.482 131.766 134.429 131.773 134.375 131.775H133.774V131.73H133.836C133.856 131.731 133.876 131.731 133.896 131.73C133.911 131.725 133.924 131.715 133.933 131.701C133.937 131.686 133.937 131.669 133.933 131.653V130.837C133.935 130.82 133.935 130.802 133.933 130.786C133.929 130.778 133.924 130.771 133.918 130.766C133.911 130.761 133.904 130.757 133.896 130.754C133.877 130.746 133.857 130.74 133.836 130.737C133.817 130.735 133.798 130.735 133.78 130.737V130.683H134.364C134.407 130.681 134.451 130.681 134.494 130.683C134.537 130.689 134.579 130.704 134.616 130.726C134.65 130.744 134.679 130.771 134.701 130.803C134.724 130.836 134.735 130.876 134.735 130.916C134.736 130.954 134.729 130.992 134.712 131.027C134.696 131.058 134.674 131.086 134.647 131.109C134.618 131.13 134.586 131.148 134.554 131.163C134.518 131.179 134.479 131.191 134.44 131.197C134.48 131.202 134.52 131.209 134.559 131.219C134.6 131.22 134.639 131.229 134.675 131.248ZM134.463 131.078C134.483 131.056 134.498 131.03 134.505 131.001C134.512 130.968 134.512 130.935 134.505 130.902C134.507 130.847 134.488 130.795 134.452 130.754C134.4 130.714 134.335 130.695 134.27 130.7H134.128V131.137H134.245C134.287 131.138 134.329 131.132 134.369 131.12C134.404 131.117 134.437 131.102 134.463 131.078ZM134.59 131.446C134.59 131.415 134.584 131.384 134.57 131.355C134.557 131.327 134.538 131.302 134.514 131.282C134.452 131.234 134.374 131.21 134.296 131.216H134.137V131.613C134.136 131.629 134.14 131.645 134.148 131.658C134.156 131.672 134.168 131.683 134.182 131.69C134.221 131.71 134.264 131.72 134.307 131.718C134.344 131.721 134.38 131.717 134.415 131.704C134.45 131.692 134.482 131.673 134.508 131.647C134.536 131.622 134.558 131.591 134.573 131.556C134.587 131.521 134.593 131.484 134.59 131.446Z" fill="#474747"/>
<path d="M136.272 131.775H135.928C135.852 131.673 135.787 131.579 135.722 131.492C135.656 131.404 135.597 131.333 135.526 131.251H135.396V131.611C135.393 131.628 135.393 131.645 135.396 131.662C135.4 131.67 135.407 131.677 135.415 131.683C135.422 131.688 135.431 131.691 135.441 131.693C135.459 131.695 135.477 131.695 135.495 131.693C135.516 131.695 135.538 131.695 135.56 131.693V131.747H135.027V131.73H135.087C135.104 131.734 135.123 131.734 135.14 131.73C135.157 131.73 135.174 131.713 135.177 131.699C135.18 131.682 135.18 131.664 135.177 131.647V130.825C135.18 130.809 135.18 130.793 135.177 130.777C135.177 130.76 135.157 130.749 135.135 130.743C135.115 130.739 135.095 130.739 135.075 130.743C135.055 130.741 135.035 130.741 135.016 130.743V130.689H135.6C135.65 130.689 135.701 130.695 135.75 130.706C135.795 130.715 135.838 130.732 135.877 130.754C135.912 130.774 135.942 130.803 135.963 130.837C135.986 130.874 135.998 130.917 135.997 130.961C135.998 131.001 135.991 131.041 135.974 131.078C135.957 131.11 135.935 131.138 135.909 131.163C135.88 131.188 135.848 131.208 135.812 131.222C135.771 131.242 135.729 131.257 135.685 131.268C135.744 131.344 135.801 131.404 135.843 131.452L135.997 131.639C136.018 131.665 136.042 131.688 136.067 131.71L136.133 131.747L136.192 131.764C136.212 131.766 136.232 131.766 136.252 131.764V131.812L136.272 131.775ZM135.804 130.925C135.805 130.894 135.8 130.864 135.789 130.835C135.778 130.807 135.761 130.781 135.739 130.76C135.685 130.719 135.619 130.697 135.551 130.701H135.398V131.185H135.515C135.552 131.188 135.59 131.183 135.625 131.171C135.661 131.159 135.693 131.139 135.722 131.114C135.748 131.092 135.77 131.064 135.784 131.032C135.798 131 135.805 130.965 135.804 130.93V130.925Z" fill="#474747"/>
<path d="M137.482 131.446L137.459 131.778H136.408V131.73H136.478C136.498 131.731 136.518 131.731 136.538 131.73C136.547 131.728 136.555 131.725 136.562 131.719C136.569 131.714 136.574 131.707 136.578 131.698C136.582 131.682 136.582 131.664 136.578 131.647V130.831C136.58 130.814 136.58 130.797 136.578 130.78C136.573 130.772 136.566 130.764 136.559 130.759C136.551 130.754 136.542 130.75 136.532 130.749L136.467 130.732C136.445 130.73 136.424 130.73 136.402 130.732V130.678H137.383V130.961H137.318C137.3 130.913 137.274 130.869 137.241 130.831C137.213 130.793 137.173 130.766 137.128 130.754H137.062H136.779V131.163H136.921C136.954 131.167 136.987 131.167 137.02 131.163C137.04 131.154 137.058 131.142 137.074 131.126C137.086 131.106 137.097 131.085 137.105 131.063C137.116 131.041 137.121 131.017 137.122 130.993H137.187V131.44H137.122C137.12 131.412 137.112 131.384 137.099 131.358C137.093 131.336 137.082 131.316 137.068 131.299C137.052 131.279 137.028 131.265 137.003 131.262C136.972 131.258 136.94 131.258 136.909 131.262H136.768V131.599C136.768 131.633 136.768 131.659 136.768 131.681C136.77 131.691 136.774 131.699 136.78 131.706C136.786 131.714 136.793 131.72 136.802 131.724C136.821 131.736 136.844 131.744 136.867 131.747C136.905 131.75 136.942 131.75 136.98 131.747H137.057C137.084 131.75 137.112 131.75 137.139 131.747C137.163 131.749 137.186 131.749 137.21 131.747C137.233 131.747 137.252 131.747 137.258 131.724C137.291 131.689 137.32 131.651 137.346 131.611C137.377 131.557 137.394 131.517 137.405 131.497H137.482V131.446Z" fill="#474747"/>
<path d="M139.41 130.701C139.393 130.698 139.376 130.698 139.359 130.701C139.34 130.705 139.321 130.713 139.305 130.723C139.287 130.733 139.271 130.746 139.257 130.76C139.244 130.781 139.232 130.803 139.223 130.825C139.18 130.953 139.132 131.095 139.075 131.256C139.019 131.418 138.962 131.594 138.897 131.781H138.814L138.494 130.908L138.159 131.781H138.086C138.023 131.594 137.964 131.398 137.899 131.197C137.833 130.995 137.797 130.859 137.774 130.794C137.77 130.777 137.762 130.762 137.751 130.749C137.739 130.736 137.724 130.726 137.709 130.718C137.692 130.707 137.674 130.699 137.655 130.695H137.598V130.641H138.117V130.695C138.079 130.692 138.041 130.692 138.004 130.695C137.97 130.695 137.953 130.712 137.953 130.723V130.743C137.953 130.743 137.953 130.76 137.953 130.766C137.97 130.814 137.992 130.89 138.023 131.001C138.055 131.112 138.111 131.285 138.177 131.486L138.494 130.635H138.579L138.902 131.486C138.945 131.355 138.984 131.234 139.01 131.137C139.036 131.041 139.067 130.95 139.087 130.879C139.106 130.808 139.109 130.797 139.115 130.777C139.118 130.76 139.118 130.743 139.115 130.726C139.115 130.712 139.098 130.695 139.07 130.684C139.026 130.667 138.98 130.658 138.933 130.655V130.601H139.41V130.672V130.701Z" fill="#474747"/>
<path d="M133.011 125.26L133.879 125.649V127.551C133.879 127.551 133.862 128.401 134.446 128.651C134.446 128.651 133 128.651 133 127.381L133.011 125.26Z" fill="#474747"/>
<path d="M136.099 125.26L135.231 125.649V127.551C135.231 127.551 135.248 128.401 134.664 128.651C134.664 128.651 136.11 128.651 136.11 127.381L136.099 125.26Z" fill="#474747"/>
<path d="M135.393 123.341V153.795H158.373V123.341H135.393ZM150.886 128.223C150.885 128.688 150.7 129.135 150.37 129.464C150.041 129.793 149.594 129.978 149.128 129.978H144.638C144.184 129.959 143.755 129.766 143.441 129.439C143.126 129.112 142.95 128.675 142.95 128.221C142.95 127.767 143.126 127.331 143.441 127.004C143.755 126.676 144.184 126.483 144.638 126.465H149.128C149.594 126.465 150.042 126.65 150.371 126.98C150.701 127.309 150.886 127.757 150.886 128.223Z" fill="#E9EDF5"/>
<path d="M158.373 123.341H146.849V126.459H149.117C149.353 126.45 149.589 126.488 149.811 126.572C150.032 126.656 150.234 126.784 150.405 126.948C150.576 127.112 150.712 127.309 150.804 127.527C150.897 127.745 150.945 127.979 150.945 128.216C150.945 128.452 150.897 128.687 150.804 128.905C150.712 129.122 150.576 129.319 150.405 129.483C150.234 129.647 150.032 129.775 149.811 129.859C149.589 129.943 149.353 129.981 149.117 129.972H146.849V153.786H158.373V123.341Z" fill="#DCE1EB"/>
<path d="M134.049 122.853H159.72V124.806H134.049V122.853Z" fill="#CDD2E1"/>
<path d="M146.849 122.853H159.72V124.806H146.849V122.853Z" fill="#BEC3D2"/>
<path d="M134.049 152.819H159.72V154.773H134.049V152.819Z" fill="#CDD2E1"/>
<path d="M146.849 152.819H159.72V154.773H146.849V152.819Z" fill="#BEC3D2"/>
<path d="M134.049 142.503H159.72V144.456H134.049V142.503Z" fill="#CDD2E1"/>
<path d="M146.849 142.503H159.72V144.456H146.849V142.503Z" fill="#BEC3D2"/>
<path d="M134.049 132.175H159.72V134.128H134.049V132.175Z" fill="#CDD2E1"/>
<path d="M146.849 132.175H159.72V134.128H146.849V132.175Z" fill="#BEC3D2"/>
<path d="M145.437 140.13H145.153L144.995 139.923C144.947 139.866 144.893 139.807 144.836 139.747H144.734V140.031C144.731 140.042 144.731 140.053 144.734 140.065C144.734 140.065 144.754 140.082 144.771 140.087H144.816H144.87V140.13H144.448V140.087C144.463 140.09 144.478 140.09 144.493 140.087H144.541C144.553 140.083 144.563 140.075 144.569 140.065C144.573 140.051 144.573 140.036 144.569 140.022V139.41C144.572 139.399 144.572 139.387 144.569 139.376C144.566 139.37 144.561 139.365 144.555 139.361C144.549 139.357 144.542 139.354 144.535 139.353C144.535 139.353 144.504 139.353 144.487 139.339C144.472 139.336 144.457 139.336 144.442 139.339V139.299H144.901C144.94 139.296 144.979 139.296 145.017 139.299C145.052 139.304 145.086 139.316 145.117 139.333C145.145 139.349 145.17 139.371 145.188 139.398C145.207 139.427 145.216 139.461 145.213 139.495C145.214 139.525 145.207 139.555 145.193 139.583C145.181 139.608 145.163 139.63 145.142 139.648L145.066 139.693C145.034 139.71 144.999 139.72 144.964 139.724L145.088 139.863C145.125 139.9 145.159 139.948 145.207 139.999L145.258 140.053L145.307 140.082C145.322 140.085 145.339 140.085 145.355 140.082C145.372 140.082 145.389 140.082 145.4 140.082V140.116L145.437 140.13ZM145.08 139.5C145.081 139.477 145.078 139.454 145.069 139.432C145.06 139.411 145.046 139.391 145.029 139.376C144.987 139.343 144.935 139.326 144.881 139.328H144.762V139.693H144.859C144.916 139.695 144.972 139.677 145.017 139.642C145.038 139.625 145.055 139.604 145.066 139.579C145.077 139.554 145.082 139.527 145.08 139.5Z" fill="#474747"/>
<path d="M146.31 139.384C146.351 139.426 146.387 139.474 146.415 139.526C146.443 139.582 146.456 139.645 146.452 139.707C146.453 139.771 146.441 139.834 146.415 139.892C146.391 139.946 146.355 139.994 146.31 140.033C146.267 140.074 146.214 140.105 146.157 140.121C146.098 140.142 146.035 140.152 145.973 140.15C145.907 140.15 145.842 140.139 145.78 140.116C145.724 140.094 145.672 140.063 145.627 140.022C145.586 139.981 145.552 139.933 145.528 139.88C145.502 139.824 145.49 139.763 145.491 139.702C145.489 139.639 145.502 139.577 145.528 139.52C145.551 139.466 145.587 139.417 145.633 139.378C145.676 139.337 145.728 139.307 145.786 139.291C145.844 139.27 145.905 139.26 145.967 139.262C146.031 139.263 146.095 139.272 146.157 139.291C146.214 139.311 146.266 139.343 146.31 139.384ZM146.211 139.985C146.237 139.947 146.256 139.905 146.268 139.86C146.281 139.81 146.287 139.759 146.288 139.707C146.287 139.654 146.28 139.601 146.268 139.549C146.256 139.505 146.237 139.464 146.211 139.427C146.186 139.393 146.153 139.366 146.115 139.35C146.073 139.329 146.026 139.318 145.978 139.319C145.929 139.316 145.881 139.329 145.84 139.356C145.802 139.378 145.769 139.408 145.743 139.444C145.719 139.482 145.702 139.524 145.692 139.568C145.679 139.617 145.673 139.666 145.672 139.716C145.672 139.768 145.679 139.819 145.692 139.869C145.702 139.913 145.721 139.955 145.749 139.991C145.773 140.026 145.806 140.055 145.845 140.073C145.887 140.094 145.933 140.104 145.98 140.104C146.027 140.104 146.073 140.094 146.115 140.073C146.153 140.049 146.186 140.018 146.214 139.982L146.211 139.985Z" fill="#474747"/>
<path d="M147.492 139.322H147.458C147.447 139.329 147.435 139.334 147.421 139.336L147.387 139.359L147.353 139.398C147.317 139.442 147.283 139.487 147.251 139.534C147.223 139.583 147.18 139.637 147.135 139.707C147.12 139.725 147.108 139.744 147.098 139.764C147.095 139.786 147.095 139.808 147.098 139.829V139.994C147.095 140.006 147.095 140.019 147.098 140.031C147.098 140.031 147.118 140.048 147.135 140.053C147.152 140.054 147.169 140.054 147.186 140.053C147.206 140.055 147.226 140.055 147.246 140.053V140.096H146.781V140.053C146.801 140.056 146.82 140.056 146.84 140.053H146.894C146.901 140.052 146.908 140.049 146.914 140.046C146.919 140.042 146.924 140.037 146.928 140.031C146.931 140.018 146.931 140.006 146.928 139.994V139.79C146.929 139.777 146.929 139.765 146.928 139.753C146.928 139.736 146.911 139.719 146.894 139.693C146.877 139.668 146.835 139.6 146.798 139.549L146.71 139.413C146.698 139.393 146.685 139.375 146.67 139.359C146.658 139.347 146.643 139.337 146.628 139.33C146.616 139.322 146.602 139.317 146.588 139.316C146.574 139.314 146.559 139.314 146.545 139.316V139.276H146.971V139.316H146.869C146.862 139.316 146.856 139.318 146.851 139.321C146.846 139.325 146.842 139.33 146.84 139.336C146.84 139.336 146.84 139.336 146.84 139.359C146.846 139.372 146.854 139.384 146.863 139.396C146.873 139.408 146.881 139.421 146.888 139.435C146.911 139.472 146.934 139.506 146.954 139.543C146.974 139.58 147.005 139.625 147.042 139.676L147.212 139.441C147.237 139.412 147.258 139.378 147.271 139.342C147.273 139.338 147.274 139.334 147.274 139.33C147.274 139.326 147.273 139.323 147.271 139.319C147.263 139.311 147.252 139.306 147.24 139.305C147.225 139.302 147.21 139.302 147.195 139.305C147.179 139.308 147.162 139.308 147.146 139.305V139.265H147.495V139.31L147.492 139.322Z" fill="#474747"/>
<path d="M148.536 140.13H148.125V140.087C148.154 140.091 148.184 140.091 148.213 140.087C148.235 140.087 148.247 140.087 148.247 140.065L148.165 139.875H147.819C147.819 139.906 147.793 139.929 147.787 139.946C147.782 139.963 147.77 139.988 147.765 140.005C147.763 140.018 147.763 140.032 147.765 140.045C147.765 140.059 147.765 140.065 147.765 140.07C147.765 140.076 147.782 140.099 147.81 140.104L147.912 140.121V140.164H147.535V140.121H147.581L147.629 140.104C147.644 140.096 147.658 140.084 147.668 140.07C147.681 140.056 147.692 140.04 147.7 140.022C147.753 139.917 147.804 139.798 147.864 139.662C147.924 139.526 147.975 139.41 148.023 139.311H148.082L148.411 140.039C148.415 140.053 148.423 140.066 148.434 140.076L148.471 140.104C148.485 140.108 148.499 140.108 148.513 140.104C148.526 140.107 148.54 140.107 148.553 140.104V140.153L148.536 140.13ZM148.136 139.781L147.983 139.452L147.836 139.781H148.136Z" fill="#474747"/>
<path d="M149.432 139.878L149.409 140.13H148.629V140.087C148.645 140.09 148.662 140.09 148.678 140.087H148.726C148.737 140.083 148.747 140.075 148.754 140.065C148.758 140.051 148.758 140.036 148.754 140.022V139.415C148.757 139.404 148.757 139.393 148.754 139.381C148.747 139.371 148.737 139.363 148.726 139.359C148.71 139.355 148.693 139.355 148.678 139.359C148.662 139.355 148.645 139.355 148.629 139.359V139.319H149.049V139.359C149.031 139.356 149.013 139.356 148.995 139.359H148.95C148.93 139.359 148.919 139.359 148.913 139.381C148.91 139.393 148.91 139.404 148.913 139.415V139.982C148.91 140.002 148.91 140.022 148.913 140.042C148.918 140.055 148.926 140.066 148.936 140.076C148.951 140.079 148.968 140.079 148.984 140.076H149.072H149.126C149.143 140.079 149.162 140.079 149.179 140.076C149.194 140.079 149.21 140.079 149.225 140.076L149.256 140.059C149.279 140.033 149.301 140.005 149.321 139.977C149.344 139.94 149.361 139.912 149.372 139.889H149.426L149.432 139.878Z" fill="#474747"/>
<path d="M143.217 140.688C143.192 140.686 143.166 140.686 143.141 140.688C143.112 140.693 143.084 140.702 143.058 140.717C143.036 140.717 143.024 140.756 143.01 140.799C143.007 140.85 143.007 140.901 143.01 140.952V141.488C143.012 141.55 142.996 141.61 142.965 141.664C142.936 141.716 142.893 141.76 142.84 141.788C142.79 141.817 142.737 141.839 142.681 141.854C142.629 141.864 142.576 141.87 142.523 141.871C142.449 141.871 142.376 141.861 142.304 141.842C142.246 141.825 142.19 141.8 142.14 141.766C142.1 141.734 142.065 141.695 142.038 141.652C142.015 141.611 142.004 141.564 142.004 141.516V140.802C142.006 140.784 142.006 140.766 142.004 140.748C141.992 140.732 141.975 140.72 141.956 140.714L141.896 140.697H141.839V140.64H142.406V140.697H142.335C142.316 140.699 142.296 140.699 142.276 140.697C142.267 140.698 142.258 140.702 142.251 140.708C142.244 140.714 142.239 140.722 142.236 140.731C142.234 140.749 142.234 140.767 142.236 140.785V141.462C142.234 141.497 142.234 141.532 142.236 141.567C142.241 141.605 142.258 141.64 142.284 141.666C142.31 141.701 142.344 141.727 142.384 141.743C142.439 141.766 142.499 141.777 142.559 141.774C142.62 141.776 142.681 141.765 142.738 141.743C142.781 141.728 142.819 141.702 142.849 141.666C142.874 141.637 142.895 141.604 142.908 141.567C142.919 141.535 142.925 141.502 142.925 141.468V140.966C142.926 140.913 142.921 140.859 142.908 140.807C142.902 140.775 142.885 140.746 142.86 140.725C142.83 140.711 142.799 140.7 142.766 140.691H142.679V140.635H143.246V140.691L143.217 140.688Z" fill="#474747"/>
<path d="M144.796 140.688C144.769 140.686 144.741 140.686 144.714 140.688C144.685 140.692 144.657 140.702 144.632 140.717C144.617 140.725 144.605 140.737 144.597 140.751C144.588 140.766 144.584 140.782 144.584 140.799C144.58 140.85 144.58 140.901 144.584 140.952V141.848H144.501L143.662 140.861V141.491C143.66 141.546 143.666 141.601 143.679 141.655C143.686 141.687 143.703 141.716 143.727 141.737C143.756 141.755 143.788 141.768 143.821 141.774C143.852 141.783 143.883 141.788 143.914 141.791V141.851H143.347V141.791C143.377 141.789 143.407 141.783 143.435 141.774C143.463 141.77 143.489 141.759 143.512 141.743C143.536 141.724 143.553 141.697 143.56 141.666C143.565 141.61 143.565 141.553 143.56 141.496V140.89C143.559 140.861 143.554 140.834 143.543 140.807C143.534 140.785 143.519 140.764 143.501 140.748C143.472 140.727 143.441 140.712 143.407 140.702C143.377 140.69 143.346 140.681 143.313 140.677V140.617H143.702L144.473 141.556V140.972C144.475 140.916 144.469 140.861 144.456 140.807C144.451 140.777 144.433 140.749 144.408 140.731C144.381 140.715 144.351 140.706 144.32 140.702C144.29 140.691 144.258 140.684 144.226 140.683V140.626H144.793V140.688H144.796Z" fill="#474747"/>
<path d="M145.621 141.851H145.003V141.791C145.029 141.793 145.054 141.793 145.08 141.791C145.103 141.795 145.127 141.795 145.151 141.791C145.169 141.786 145.185 141.775 145.196 141.76C145.196 141.76 145.196 141.732 145.196 141.709V140.802C145.199 140.784 145.199 140.766 145.196 140.748C145.196 140.748 145.174 140.725 145.142 140.714L145.074 140.694H145.003V140.637H145.621V140.694C145.598 140.692 145.574 140.692 145.551 140.694C145.527 140.691 145.503 140.691 145.48 140.694C145.47 140.696 145.46 140.699 145.452 140.705C145.443 140.711 145.436 140.719 145.432 140.728C145.429 140.746 145.429 140.764 145.432 140.782V141.669C145.429 141.687 145.429 141.705 145.432 141.723C145.445 141.739 145.461 141.751 145.48 141.76L145.545 141.777C145.573 141.777 145.604 141.777 145.621 141.777V141.831V141.851Z" fill="#474747"/>
<path d="M147.022 141.278C147.062 141.301 147.097 141.333 147.124 141.372C147.148 141.415 147.162 141.463 147.163 141.513C147.166 141.565 147.152 141.617 147.124 141.661C147.094 141.702 147.057 141.738 147.016 141.768C146.971 141.797 146.921 141.816 146.869 141.825C146.813 141.841 146.756 141.85 146.699 141.851H146.049V141.791H146.115C146.136 141.793 146.158 141.793 146.18 141.791C146.197 141.785 146.212 141.775 146.222 141.76C146.226 141.743 146.226 141.726 146.222 141.709V140.802C146.225 140.784 146.225 140.766 146.222 140.748C146.218 140.739 146.212 140.732 146.205 140.726C146.197 140.72 146.189 140.716 146.18 140.714C146.159 140.704 146.137 140.699 146.115 140.697C146.095 140.693 146.075 140.693 146.055 140.697V140.64H146.687C146.734 140.637 146.782 140.637 146.829 140.64C146.874 140.647 146.917 140.662 146.957 140.685C146.995 140.706 147.028 140.735 147.053 140.771C147.076 140.807 147.088 140.849 147.087 140.892C147.088 140.933 147.08 140.974 147.064 141.011C147.047 141.045 147.023 141.075 146.993 141.099C146.961 141.121 146.927 141.141 146.891 141.159C146.852 141.175 146.811 141.187 146.769 141.193C146.813 141.198 146.857 141.207 146.9 141.218C146.945 141.228 146.987 141.249 147.022 141.278ZM146.781 141.085C146.804 141.062 146.82 141.034 146.829 141.003C146.835 140.967 146.835 140.931 146.829 140.895C146.831 140.866 146.826 140.837 146.816 140.81C146.806 140.782 146.79 140.757 146.769 140.736C146.715 140.692 146.646 140.671 146.577 140.677H146.424V141.15H146.545C146.592 141.152 146.638 141.146 146.682 141.131C146.719 141.127 146.754 141.111 146.781 141.085ZM146.917 141.479C146.917 141.446 146.91 141.412 146.896 141.382C146.882 141.351 146.861 141.325 146.835 141.303C146.768 141.251 146.684 141.226 146.599 141.233H146.429V141.661C146.429 141.677 146.432 141.694 146.44 141.708C146.448 141.723 146.46 141.735 146.475 141.743C146.517 141.764 146.563 141.775 146.611 141.774C146.65 141.777 146.69 141.772 146.728 141.759C146.766 141.746 146.8 141.725 146.829 141.698C146.859 141.672 146.883 141.64 146.9 141.605C146.918 141.569 146.927 141.53 146.928 141.491L146.917 141.479Z" fill="#474747"/>
<path d="M148.748 141.851H148.377C148.295 141.737 148.224 141.638 148.153 141.567C148.082 141.496 148.017 141.397 147.94 141.306H147.799V141.695C147.796 141.713 147.796 141.731 147.799 141.749C147.803 141.758 147.809 141.766 147.817 141.773C147.825 141.779 147.834 141.783 147.844 141.785C147.864 141.787 147.884 141.787 147.903 141.785C147.927 141.788 147.951 141.788 147.974 141.785V141.845H147.407V141.785H147.473C147.492 141.79 147.513 141.79 147.532 141.785C147.541 141.783 147.549 141.778 147.556 141.771C147.563 141.765 147.568 141.757 147.572 141.749C147.581 141.732 147.586 141.714 147.586 141.695V140.802C147.585 140.783 147.58 140.765 147.572 140.748C147.568 140.739 147.561 140.731 147.553 140.725C147.545 140.719 147.536 140.715 147.526 140.714C147.505 140.71 147.483 140.71 147.461 140.714C147.44 140.711 147.418 140.711 147.396 140.714V140.657H148.025C148.082 140.657 148.138 140.663 148.193 140.674C148.24 140.684 148.285 140.702 148.326 140.728C148.365 140.749 148.398 140.779 148.422 140.816C148.446 140.856 148.458 140.902 148.456 140.949C148.458 140.992 148.451 141.035 148.434 141.074C148.416 141.109 148.392 141.141 148.363 141.167C148.33 141.195 148.294 141.217 148.255 141.233C148.212 141.253 148.168 141.269 148.122 141.281C148.187 141.363 148.244 141.428 148.292 141.479C148.34 141.53 148.391 141.604 148.456 141.681C148.479 141.709 148.505 141.735 148.533 141.757C148.555 141.773 148.579 141.788 148.604 141.8L148.669 141.817C148.691 141.819 148.712 141.819 148.734 141.817V141.871L148.748 141.851ZM148.241 140.938C148.243 140.905 148.238 140.871 148.226 140.84C148.213 140.81 148.194 140.782 148.17 140.759C148.115 140.713 148.044 140.69 147.972 140.694H147.807V141.218H147.929C148.011 141.222 148.091 141.195 148.153 141.142C148.183 141.117 148.206 141.086 148.221 141.05C148.237 141.015 148.243 140.976 148.241 140.938Z" fill="#474747"/>
<path d="M150.055 141.491L150.033 141.851H148.899V141.791H148.975C148.997 141.793 149.019 141.793 149.04 141.791C149.05 141.789 149.058 141.785 149.065 141.778C149.072 141.772 149.077 141.763 149.08 141.754C149.084 141.737 149.084 141.718 149.08 141.7V140.802C149.083 140.784 149.083 140.766 149.08 140.748C149.076 140.739 149.07 140.731 149.062 140.725C149.054 140.719 149.045 140.715 149.035 140.714L148.964 140.694H148.893V140.637H149.953V140.921H149.882C149.863 140.87 149.836 140.823 149.8 140.782C149.769 140.741 149.725 140.711 149.676 140.697H149.605H149.293V141.187H149.446C149.481 141.192 149.516 141.192 149.551 141.187C149.574 141.179 149.595 141.164 149.61 141.145C149.624 141.124 149.637 141.102 149.647 141.08C149.658 141.055 149.664 141.029 149.664 141.003H149.735V141.488H149.664C149.662 141.456 149.654 141.426 149.642 141.397C149.632 141.375 149.62 141.354 149.605 141.335C149.597 141.323 149.586 141.313 149.574 141.306C149.562 141.298 149.548 141.294 149.534 141.292C149.501 141.289 149.468 141.289 149.435 141.292H149.281V141.658C149.281 141.692 149.281 141.723 149.281 141.746C149.287 141.765 149.299 141.783 149.315 141.794C149.338 141.805 149.362 141.813 149.386 141.817C149.428 141.82 149.47 141.82 149.511 141.817H149.593C149.623 141.82 149.652 141.82 149.681 141.817C149.707 141.819 149.732 141.819 149.758 141.817C149.783 141.817 149.806 141.817 149.812 141.791C149.846 141.753 149.878 141.713 149.905 141.669C149.929 141.629 149.951 141.587 149.97 141.545H150.053L150.055 141.491Z" fill="#474747"/>
<path d="M152.128 140.688C152.111 140.685 152.093 140.685 152.077 140.688C152.055 140.692 152.035 140.7 152.017 140.711C151.997 140.722 151.979 140.735 151.963 140.751C151.95 140.774 151.939 140.797 151.929 140.822C151.881 140.958 151.827 141.105 151.77 141.287C151.714 141.468 151.646 141.652 151.575 141.854H151.487L151.138 140.91L150.781 141.854H150.699C150.634 141.652 150.568 141.44 150.498 141.224C150.427 141.009 150.384 140.859 150.361 140.788C150.357 140.77 150.35 140.754 150.339 140.739C150.325 140.725 150.309 140.713 150.291 140.705C150.272 140.694 150.252 140.686 150.231 140.68H150.174V140.623H150.741V140.68C150.7 140.677 150.658 140.677 150.617 140.68C150.583 140.68 150.566 140.7 150.566 140.711V140.734C150.566 140.734 150.566 140.751 150.566 140.756C150.583 140.81 150.605 140.893 150.642 141.012C150.679 141.131 150.736 141.295 150.807 141.536L151.147 140.623H151.243L151.6 141.567C151.649 141.426 151.688 141.284 151.719 141.19C151.751 141.097 151.779 140.989 151.802 140.907C151.813 140.87 151.823 140.833 151.83 140.796C151.833 140.778 151.833 140.76 151.83 140.742C151.83 140.725 151.813 140.708 151.785 140.697C151.738 140.678 151.688 140.668 151.637 140.666V140.606H152.13V140.683L152.128 140.688Z" fill="#474747"/>
<path d="M145.228 134.811L146.163 135.231V137.286C146.163 137.286 146.146 138.21 146.787 138.474C146.787 138.474 145.228 138.474 145.228 137.102V134.811Z" fill="#474747"/>
<path d="M148.558 134.811L147.623 135.231V137.286C147.623 137.286 147.64 138.21 146.999 138.474C146.999 138.474 148.558 138.474 148.558 137.102V134.811Z" fill="#474747"/>
<path d="M110.427 134.661V167.1H134.905V134.661H110.427ZM126.936 139.858C126.936 140.354 126.738 140.83 126.388 141.181C126.037 141.532 125.561 141.729 125.064 141.729H120.276C119.78 141.729 119.304 141.532 118.953 141.181C118.602 140.83 118.405 140.354 118.405 139.858C118.405 139.361 118.602 138.886 118.953 138.535C119.304 138.184 119.78 137.987 120.276 137.987H125.059C125.305 137.986 125.549 138.034 125.776 138.128C126.004 138.222 126.21 138.36 126.385 138.533C126.559 138.707 126.697 138.914 126.792 139.141C126.886 139.368 126.935 139.612 126.936 139.858Z" fill="#E9EDF5"/>
<path d="M134.905 134.661H122.629V137.987H125.059C125.555 137.987 126.031 138.184 126.382 138.535C126.733 138.886 126.93 139.361 126.93 139.858C126.93 140.354 126.733 140.83 126.382 141.181C126.031 141.532 125.555 141.729 125.059 141.729H122.629V167.1H134.905V134.661Z" fill="#DCE1EB"/>
<path d="M108.996 134.139H136.339V136.22H108.996V134.139Z" fill="#CDD2E1"/>
<path d="M122.629 134.139H136.34V136.22H122.629V134.139Z" fill="#BEC3D2"/>
<path d="M108.996 166.059H136.339V168.137H108.996V166.059Z" fill="#CDD2E1"/>
<path d="M122.629 166.059H136.34V168.137H122.629V166.059Z" fill="#BEC3D2"/>
<path d="M108.996 155.065H136.339V157.143H108.996V155.065Z" fill="#CDD2E1"/>
<path d="M122.629 155.065H136.34V157.143H122.629V155.065Z" fill="#BEC3D2"/>
<path d="M108.996 144.071H136.339V146.149H108.996V144.071Z" fill="#CDD2E1"/>
<path d="M122.629 144.071H136.34V146.149H122.629V144.071Z" fill="#BEC3D2"/>
<path d="M121.127 152.542H120.843C120.781 152.459 120.724 152.386 120.673 152.323C120.621 152.256 120.566 152.193 120.506 152.133H120.398V152.417C120.395 152.429 120.395 152.442 120.398 152.454C120.403 152.461 120.408 152.466 120.415 152.471C120.422 152.475 120.43 152.478 120.438 152.479C120.454 152.48 120.47 152.48 120.486 152.479C120.505 152.478 120.524 152.478 120.543 152.479V152.522H120.092V152.479C120.109 152.483 120.126 152.483 120.143 152.479H120.191C120.198 152.477 120.204 152.474 120.21 152.47C120.215 152.465 120.219 152.46 120.222 152.454C120.227 152.44 120.227 152.425 120.222 152.411V151.759C120.225 151.747 120.225 151.734 120.222 151.722C120.218 151.715 120.212 151.71 120.205 151.705C120.199 151.701 120.191 151.698 120.183 151.697C120.167 151.69 120.151 151.685 120.135 151.683C120.118 151.68 120.1 151.68 120.083 151.683V151.64H120.574C120.615 151.637 120.657 151.637 120.699 151.64C120.736 151.646 120.771 151.659 120.804 151.677C120.834 151.694 120.86 151.719 120.88 151.748C120.899 151.777 120.908 151.812 120.906 151.847C120.907 151.879 120.9 151.911 120.886 151.941C120.873 151.968 120.853 151.993 120.829 152.011C120.803 152.029 120.775 152.045 120.747 152.06C120.714 152.077 120.679 152.088 120.642 152.091L120.772 152.241C120.812 152.281 120.849 152.329 120.9 152.386L120.954 152.442L121.005 152.474C121.022 152.477 121.039 152.477 121.056 152.474H121.107V152.51L121.127 152.542ZM120.733 151.858C120.734 151.834 120.729 151.809 120.719 151.787C120.709 151.764 120.695 151.744 120.676 151.728C120.631 151.693 120.575 151.674 120.517 151.677H120.393V152.065H120.495C120.555 152.068 120.615 152.049 120.662 152.011C120.686 151.994 120.704 151.971 120.717 151.944C120.729 151.917 120.735 151.888 120.733 151.858Z" fill="#474747"/>
<path d="M122.057 151.745C122.1 151.79 122.137 151.841 122.167 151.895C122.196 151.956 122.21 152.023 122.207 152.091C122.207 152.157 122.194 152.223 122.167 152.284C122.142 152.342 122.104 152.394 122.057 152.437C122.009 152.48 121.953 152.512 121.892 152.53C121.83 152.554 121.763 152.564 121.696 152.562C121.626 152.561 121.556 152.549 121.49 152.525C121.429 152.503 121.374 152.468 121.328 152.423C121.282 152.38 121.246 152.329 121.22 152.272C121.195 152.213 121.182 152.15 121.183 152.085C121.181 152.018 121.194 151.951 121.22 151.89C121.246 151.831 121.285 151.78 121.334 151.739C121.379 151.694 121.436 151.661 121.498 151.646C121.56 151.623 121.625 151.612 121.691 151.615C121.759 151.615 121.827 151.625 121.892 151.646C121.953 151.668 122.009 151.701 122.057 151.745ZM121.949 152.386C121.978 152.346 121.999 152.301 122.011 152.252C122.024 152.2 122.031 152.145 122.031 152.091C122.031 152.034 122.024 151.977 122.011 151.921C121.999 151.874 121.978 151.829 121.949 151.79C121.923 151.755 121.889 151.726 121.85 151.708C121.804 151.687 121.755 151.677 121.705 151.677C121.652 151.673 121.6 151.686 121.555 151.714C121.515 151.738 121.48 151.77 121.453 151.807C121.427 151.849 121.408 151.894 121.396 151.941C121.384 151.992 121.379 152.044 121.379 152.097C121.378 152.152 121.384 152.207 121.396 152.261C121.407 152.308 121.429 152.353 121.458 152.391C121.485 152.428 121.52 152.459 121.56 152.479C121.606 152.501 121.655 152.511 121.705 152.51C121.755 152.511 121.804 152.5 121.85 152.479C121.887 152.453 121.92 152.421 121.949 152.386Z" fill="#474747"/>
<path d="M123.315 151.682H123.278L123.241 151.697C123.227 151.704 123.214 151.712 123.202 151.722L123.165 151.765C123.127 151.811 123.092 151.859 123.06 151.909C123.029 151.96 122.983 152.017 122.932 152.091C122.919 152.111 122.906 152.132 122.895 152.153C122.892 152.177 122.892 152.2 122.895 152.224V152.4C122.892 152.412 122.892 152.425 122.895 152.437C122.895 152.437 122.915 152.454 122.935 152.462C122.953 152.463 122.971 152.463 122.989 152.462C123.011 152.464 123.032 152.464 123.054 152.462V152.507H122.558V152.462C122.579 152.464 122.6 152.464 122.62 152.462H122.677C122.692 152.458 122.705 152.449 122.714 152.437C122.716 152.424 122.716 152.412 122.714 152.4V152.179C122.714 152.179 122.714 152.162 122.714 152.142C122.714 152.122 122.694 152.105 122.677 152.079C122.66 152.054 122.615 151.977 122.575 151.923L122.481 151.779C122.469 151.759 122.455 151.74 122.439 151.722C122.427 151.708 122.411 151.697 122.394 151.691C122.381 151.682 122.366 151.677 122.351 151.677C122.336 151.674 122.321 151.674 122.306 151.677V151.634H122.759V151.677H122.652C122.645 151.676 122.638 151.678 122.633 151.682C122.627 151.685 122.623 151.69 122.62 151.697C122.62 151.697 122.62 151.697 122.62 151.722C122.625 151.736 122.633 151.749 122.643 151.759C122.654 151.773 122.662 151.788 122.669 151.804C122.695 151.84 122.719 151.878 122.739 151.918C122.762 151.955 122.793 152.006 122.833 152.062C122.907 151.955 122.969 151.872 123.014 151.81C123.04 151.779 123.061 151.743 123.077 151.705C123.079 151.701 123.08 151.697 123.08 151.692C123.08 151.688 123.079 151.684 123.077 151.68C123.069 151.671 123.057 151.666 123.046 151.665C123.029 151.662 123.011 151.662 122.995 151.665C122.978 151.668 122.96 151.668 122.944 151.665V151.62H123.315V151.671V151.682Z" fill="#474747"/>
<path d="M124.426 152.542H123.987V152.499C124.018 152.503 124.05 152.503 124.081 152.499C124.106 152.499 124.12 152.499 124.12 152.474L124.032 152.272H123.664C123.664 152.303 123.638 152.329 123.633 152.346C123.626 152.367 123.617 152.388 123.607 152.408C123.601 152.423 123.596 152.438 123.593 152.454C123.594 152.462 123.594 152.471 123.593 152.479C123.593 152.496 123.613 152.51 123.644 152.516L123.752 152.536V152.578H123.335V152.536C123.335 152.536 123.366 152.536 123.386 152.536L123.434 152.519C123.451 152.509 123.467 152.497 123.48 152.482C123.48 152.482 123.497 152.451 123.511 152.431C123.567 152.318 123.624 152.193 123.687 152.048C123.749 151.904 123.806 151.765 123.857 151.671H123.919L124.271 152.451C124.275 152.465 124.284 152.478 124.296 152.488L124.333 152.519C124.347 152.522 124.361 152.522 124.375 152.519C124.39 152.521 124.406 152.521 124.421 152.519V152.57L124.426 152.542ZM124.001 152.173L123.837 151.822L123.681 152.173H124.001Z" fill="#474747"/>
<path d="M125.379 152.272L125.354 152.542H124.526V152.499C124.543 152.503 124.56 152.503 124.577 152.499H124.628C124.641 152.495 124.652 152.486 124.659 152.474C124.663 152.46 124.663 152.445 124.659 152.431V151.785C124.662 151.773 124.662 151.76 124.659 151.748C124.652 151.736 124.641 151.727 124.628 151.722C124.613 151.713 124.595 151.708 124.577 151.708C124.561 151.706 124.545 151.706 124.529 151.708V151.666H124.979V151.708C124.961 151.706 124.942 151.706 124.923 151.708L124.872 151.722C124.855 151.722 124.841 151.722 124.835 151.748C124.832 151.76 124.832 151.773 124.835 151.785V152.394C124.832 152.415 124.832 152.436 124.835 152.457C124.84 152.471 124.849 152.483 124.86 152.493C124.876 152.497 124.893 152.497 124.909 152.493C124.934 152.493 124.965 152.493 125.005 152.493H125.059C125.078 152.498 125.097 152.498 125.116 152.493C125.132 152.496 125.15 152.496 125.167 152.493C125.179 152.49 125.19 152.483 125.198 152.474C125.225 152.448 125.249 152.418 125.269 152.386C125.288 152.356 125.306 152.324 125.323 152.292H125.379V152.272Z" fill="#474747"/>
<path d="M118.762 153.137C118.735 153.135 118.707 153.135 118.68 153.137C118.649 153.141 118.619 153.151 118.592 153.168C118.566 153.168 118.555 153.211 118.541 153.256C118.537 153.31 118.537 153.364 118.541 153.418V153.985C118.542 154.051 118.524 154.115 118.49 154.172C118.46 154.228 118.415 154.274 118.359 154.305C118.306 154.336 118.249 154.359 118.189 154.373C118.133 154.385 118.076 154.391 118.019 154.393C117.941 154.392 117.863 154.382 117.787 154.362C117.725 154.342 117.666 154.315 117.611 154.28C117.57 154.246 117.535 154.205 117.506 154.16C117.481 154.116 117.468 154.067 117.469 154.016V153.276C117.468 153.256 117.463 153.237 117.455 153.219C117.455 153.219 117.43 153.194 117.404 153.18L117.342 153.163C117.321 153.165 117.3 153.165 117.279 153.163V153.1H117.889V153.163C117.869 153.163 117.843 153.163 117.812 153.163H117.75C117.74 153.164 117.731 153.168 117.723 153.175C117.716 153.182 117.71 153.19 117.707 153.199C117.704 153.218 117.704 153.237 117.707 153.256V153.979C117.704 154.017 117.704 154.055 117.707 154.092C117.713 154.131 117.729 154.168 117.756 154.197C117.784 154.233 117.821 154.261 117.863 154.28C117.923 154.303 117.987 154.313 118.05 154.311C118.115 154.312 118.18 154.302 118.24 154.28C118.286 154.262 118.327 154.234 118.359 154.197C118.386 154.166 118.407 154.13 118.422 154.092C118.432 154.057 118.438 154.021 118.439 153.985V153.446C118.44 153.389 118.434 153.332 118.422 153.276C118.414 153.242 118.397 153.211 118.371 153.188C118.339 153.173 118.306 153.161 118.272 153.151H118.178V153.089H118.773V153.151L118.762 153.137Z" fill="#474747"/>
<path d="M120.449 153.137C120.429 153.137 120.398 153.137 120.361 153.137C120.33 153.141 120.3 153.151 120.273 153.168C120.259 153.178 120.246 153.191 120.237 153.206C120.228 153.221 120.223 153.238 120.222 153.256C120.219 153.31 120.219 153.364 120.222 153.418V154.373H120.132L119.247 153.307V153.976C119.245 154.035 119.251 154.095 119.267 154.152C119.272 154.186 119.289 154.217 119.315 154.24C119.347 154.258 119.381 154.272 119.417 154.279C119.45 154.288 119.483 154.294 119.517 154.296V154.359H118.921V154.296C118.953 154.294 118.984 154.289 119.015 154.279C119.044 154.273 119.071 154.263 119.097 154.248C119.122 154.226 119.139 154.198 119.148 154.166C119.152 154.106 119.152 154.045 119.148 153.985V153.338C119.148 153.308 119.141 153.278 119.128 153.25C119.119 153.226 119.105 153.205 119.086 153.188C119.056 153.164 119.021 153.146 118.984 153.137C118.952 153.124 118.918 153.115 118.884 153.111V153.049H119.298L120.12 154.047V153.426C120.123 153.367 120.116 153.308 120.101 153.25C120.096 153.218 120.078 153.188 120.052 153.168C120.023 153.15 119.99 153.139 119.956 153.137C119.924 153.125 119.891 153.118 119.857 153.117V153.055H120.452V153.123L120.449 153.137Z" fill="#474747"/>
<path d="M121.322 154.373H120.662V154.311C120.689 154.313 120.716 154.313 120.744 154.311C120.769 154.315 120.795 154.315 120.82 154.311C120.839 154.304 120.855 154.293 120.869 154.279C120.872 154.27 120.874 154.261 120.874 154.251C120.874 154.241 120.872 154.232 120.869 154.223V153.273C120.872 153.255 120.872 153.237 120.869 153.219C120.869 153.219 120.843 153.194 120.812 153.179L120.738 153.162C120.713 153.159 120.687 153.159 120.662 153.162V153.1H121.322V153.162C121.297 153.16 121.271 153.16 121.246 153.162H121.172C121.161 153.164 121.15 153.168 121.141 153.174C121.132 153.18 121.125 153.189 121.121 153.199C121.118 153.218 121.118 153.237 121.121 153.256V154.203C121.118 154.222 121.118 154.241 121.121 154.26C121.121 154.279 121.146 154.285 121.172 154.296C121.193 154.307 121.216 154.314 121.24 154.316C121.271 154.316 121.302 154.316 121.322 154.316V154.373Z" fill="#474747"/>
<path d="M122.814 153.766C122.857 153.791 122.893 153.825 122.921 153.866C122.948 153.911 122.963 153.963 122.964 154.016C122.967 154.072 122.952 154.127 122.921 154.175C122.89 154.218 122.852 154.255 122.808 154.285C122.76 154.316 122.708 154.339 122.652 154.35C122.592 154.364 122.532 154.371 122.471 154.373H121.779V154.311H121.85C121.872 154.312 121.895 154.312 121.918 154.311C121.934 154.304 121.949 154.293 121.96 154.279C121.965 154.261 121.965 154.241 121.96 154.223V153.276C121.964 153.257 121.964 153.238 121.96 153.219C121.956 153.21 121.95 153.202 121.943 153.195C121.936 153.188 121.927 153.183 121.918 153.179C121.896 153.171 121.873 153.165 121.85 153.162C121.828 153.16 121.806 153.16 121.784 153.162V153.1H122.456C122.506 153.097 122.557 153.097 122.607 153.1C122.656 153.107 122.703 153.125 122.746 153.151C122.787 153.17 122.821 153.2 122.845 153.239C122.871 153.277 122.885 153.323 122.884 153.369C122.886 153.412 122.877 153.455 122.859 153.494C122.841 153.532 122.815 153.564 122.782 153.591C122.749 153.614 122.714 153.634 122.677 153.653C122.635 153.67 122.59 153.683 122.544 153.69L122.683 153.715C122.73 153.721 122.775 153.739 122.814 153.766ZM122.57 153.571C122.594 153.546 122.612 153.516 122.621 153.483C122.627 153.445 122.627 153.407 122.621 153.369C122.622 153.339 122.617 153.308 122.607 153.279C122.596 153.251 122.58 153.224 122.558 153.202C122.53 153.178 122.497 153.16 122.461 153.149C122.426 153.138 122.389 153.134 122.351 153.137H122.187V153.639H122.32C122.369 153.64 122.418 153.634 122.465 153.622C122.506 153.615 122.544 153.592 122.57 153.559V153.571ZM122.714 153.99C122.714 153.955 122.706 153.919 122.691 153.887C122.676 153.855 122.654 153.826 122.626 153.803C122.555 153.747 122.465 153.72 122.374 153.727H122.193V154.186C122.193 154.204 122.198 154.221 122.207 154.236C122.216 154.252 122.228 154.265 122.244 154.274C122.288 154.297 122.338 154.308 122.388 154.305C122.431 154.308 122.473 154.303 122.513 154.289C122.553 154.274 122.59 154.252 122.621 154.223C122.653 154.194 122.678 154.158 122.695 154.117C122.711 154.077 122.718 154.034 122.714 153.99Z" fill="#474747"/>
<path d="M124.667 154.373H124.27C124.183 154.254 124.109 154.149 124.032 154.061C123.956 153.973 123.888 153.88 123.806 153.778H123.655V154.192C123.652 154.21 123.652 154.23 123.655 154.248C123.655 154.268 123.681 154.28 123.706 154.288C123.727 154.29 123.748 154.29 123.769 154.288C123.793 154.29 123.818 154.29 123.842 154.288V154.35H123.227V154.288H123.298C123.319 154.292 123.34 154.292 123.36 154.288C123.37 154.285 123.378 154.279 123.386 154.273C123.393 154.266 123.399 154.258 123.403 154.248C123.413 154.231 123.418 154.211 123.417 154.192V153.245C123.416 153.225 123.411 153.206 123.403 153.188C123.398 153.179 123.392 153.17 123.383 153.164C123.375 153.158 123.365 153.153 123.355 153.151C123.331 153.148 123.307 153.148 123.284 153.151C123.261 153.147 123.238 153.147 123.216 153.151V153.089H123.888C123.947 153.09 124.006 153.096 124.063 153.109C124.115 153.119 124.163 153.139 124.208 153.165C124.248 153.189 124.281 153.221 124.307 153.259C124.334 153.302 124.347 153.353 124.344 153.404C124.346 153.448 124.337 153.493 124.319 153.534C124.301 153.572 124.276 153.607 124.245 153.636C124.211 153.664 124.173 153.687 124.132 153.704C124.085 153.725 124.037 153.742 123.987 153.755C124.055 153.843 124.12 153.911 124.168 153.968C124.217 154.024 124.276 154.101 124.344 154.18C124.368 154.211 124.395 154.239 124.426 154.263C124.451 154.28 124.476 154.295 124.503 154.308L124.571 154.325C124.594 154.327 124.616 154.327 124.639 154.325V154.382L124.667 154.373ZM124.1 153.401C124.102 153.366 124.097 153.331 124.084 153.299C124.071 153.267 124.052 153.238 124.027 153.214C123.967 153.165 123.891 153.14 123.814 153.146H123.638V153.713H123.769C123.856 153.716 123.941 153.687 124.007 153.63C124.039 153.602 124.064 153.566 124.08 153.526C124.096 153.487 124.103 153.444 124.1 153.401Z" fill="#474747"/>
<path d="M126.045 153.99L126.02 154.373H124.809V154.311H124.892C124.914 154.312 124.937 154.312 124.96 154.311C124.97 154.308 124.979 154.303 124.987 154.296C124.995 154.289 125.001 154.281 125.005 154.271C125.009 154.252 125.009 154.233 125.005 154.214V153.273C125.008 153.255 125.008 153.237 125.005 153.219C125 153.209 124.993 153.2 124.985 153.193C124.976 153.186 124.965 153.181 124.954 153.179L124.877 153.162C124.853 153.16 124.828 153.16 124.804 153.162V153.1H125.938V153.415H125.864C125.843 153.36 125.813 153.309 125.776 153.265C125.744 153.22 125.696 153.189 125.643 153.177C125.623 153.177 125.6 153.177 125.569 153.177H125.235V153.698H125.399C125.437 153.703 125.475 153.703 125.512 153.698C125.536 153.688 125.557 153.672 125.575 153.653C125.589 153.631 125.601 153.609 125.612 153.585C125.623 153.559 125.63 153.531 125.632 153.503H125.705V154.019H125.632C125.629 153.985 125.62 153.953 125.606 153.922C125.597 153.898 125.585 153.875 125.569 153.854C125.55 153.831 125.523 153.815 125.493 153.809C125.457 153.805 125.421 153.805 125.385 153.809H125.223V154.126C125.223 154.166 125.223 154.197 125.223 154.22C125.226 154.231 125.23 154.24 125.236 154.249C125.243 154.258 125.251 154.265 125.26 154.271C125.284 154.285 125.31 154.294 125.337 154.296C125.38 154.3 125.424 154.3 125.467 154.296H125.555C125.587 154.3 125.619 154.3 125.651 154.296C125.678 154.299 125.704 154.299 125.731 154.296C125.756 154.296 125.782 154.282 125.787 154.271C125.825 154.229 125.859 154.185 125.89 154.138C125.915 154.096 125.938 154.052 125.958 154.007H126.045V153.99Z" fill="#474747"/>
<path d="M128.254 153.137C128.235 153.134 128.216 153.134 128.197 153.137C128.174 153.14 128.153 153.149 128.135 153.163C128.113 153.173 128.094 153.188 128.078 153.205C128.062 153.229 128.05 153.255 128.041 153.282C127.99 153.426 127.933 153.588 127.871 153.778C127.809 153.968 127.738 154.166 127.664 154.379H127.57L127.199 153.375L126.816 154.379H126.728L126.516 153.707C126.439 153.474 126.397 153.318 126.371 153.242C126.367 153.224 126.359 153.207 126.346 153.194C126.332 153.177 126.314 153.163 126.295 153.154C126.275 153.143 126.254 153.135 126.232 153.131H126.17V153.069H126.765V153.131C126.722 153.127 126.678 153.127 126.635 153.131C126.598 153.131 126.578 153.148 126.578 153.163V153.188C126.578 153.188 126.578 153.205 126.578 153.211C126.598 153.267 126.624 153.355 126.66 153.494C126.697 153.633 126.76 153.806 126.836 154.061L127.199 153.089H127.301L127.67 154.078C127.721 153.928 127.763 153.795 127.797 153.678C127.831 153.562 127.86 153.463 127.882 153.395C127.905 153.327 127.908 153.299 127.916 153.273C127.919 153.255 127.919 153.237 127.916 153.219C127.916 153.199 127.896 153.18 127.865 153.168C127.815 153.149 127.763 153.139 127.709 153.137V153.075H128.237V153.154L128.254 153.137Z" fill="#474747"/>
<path d="M120.9 146.877L121.898 147.322V149.511C121.898 149.511 121.881 150.498 122.564 150.778C122.564 150.778 120.9 150.778 120.9 149.318V146.877Z" fill="#474747"/>
<path d="M124.452 146.877L123.454 147.322V149.511C123.454 149.511 123.474 150.498 122.788 150.778C122.788 150.778 124.452 150.778 124.452 149.318V146.877Z" fill="#474747"/>
</g>
<defs>
<radialGradient id="paint0_radial" cx="0" cy="0" r="1" gradientUnits="userSpaceOnUse" gradientTransform="translate(869.551 197.284) scale(11.7166 5.39789)">
<stop stop-color="#4A8DC6"/>
<stop offset="0.07" stop-color="#3F86C3"/>
<stop offset="0.23" stop-color="#2C7ABD"/>
<stop offset="0.4" stop-color="#2173B9"/>
<stop offset="0.58" stop-color="#1D71B8"/>
<stop offset="0.68" stop-color="#1B68A9"/>
<stop offset="0.88" stop-color="#175A92"/>
<stop offset="1" stop-color="#16558A"/>
</radialGradient>
<clipPath id="clip0">
<rect width="337.003" height="200" fill="white"/>
</clipPath>
</defs>
</svg>
