<svg width="121" height="120" viewBox="0 0 121 120" fill="none" xmlns="http://www.w3.org/2000/svg">
<path d="M59.7793 72.5466H38.5371L26.1147 75.2795C22.6364 75.2795 19.9035 72.5466 19.7793 69.0683C19.7793 69.8137 19.7793 70.6832 19.7793 71.4286C19.7793 74.9068 22.6364 77.764 25.9905 77.764H38.4128C38.4128 77.764 45.3694 74.2857 47.6054 75.0311C48.4749 75.2795 49.2203 77.3913 50.0899 77.764C51.5805 78.6336 59.6551 77.764 59.6551 77.764C62.5122 77.764 62.5122 71.8013 62.5122 67.7019C62.5122 71.3044 62.0153 75.2795 59.7793 72.5466Z" fill="#DBB625"/>
<path d="M62.6364 67.7019C62.6364 65.8385 60.7731 63.9751 60.7731 62.7329L62.6364 65.2174C62.6364 65.8385 62.6364 66.7081 62.6364 67.7019Z" fill="#FFD925"/>
<path d="M26.1146 75.2795L38.6612 75.6522C38.6612 75.6522 45.4935 71.9255 47.8538 72.4224C48.8475 72.6708 49.7171 74.7826 50.5867 75.1553C52.0774 75.9006 59.7792 75.1553 59.7792 75.1553C62.0152 75.1553 62.5121 71.1801 62.6364 67.5776C62.6364 66.5838 62.6364 65.7143 62.6364 65.0932L60.773 62.6087V27.8261H36.7979V62.1118L30.0898 65.2174C21.7668 66.5838 20.1519 67.4534 19.9034 69.1925C19.9034 72.5466 22.6364 75.2795 26.1146 75.2795Z" fill="#FFD925"/>
<path d="M60.7731 33.1677H36.798V37.764H60.7731V33.1677Z" fill="#E07D2B"/>
<path d="M88.7234 86.5838H67.6054L55.0588 89.3168C51.5805 89.3168 48.8476 86.5839 48.7234 83.1056C48.7234 83.8509 48.7234 84.7205 48.7234 85.4658C48.7234 88.9441 51.4563 91.8012 54.9346 91.8012H67.3569C67.3569 91.8012 74.3134 88.323 76.5495 89.0683C77.419 89.3168 78.1644 91.4286 79.0339 91.8012C80.5246 92.6708 88.4749 91.8012 88.4749 91.8012C91.3321 91.8012 91.3321 85.8385 91.3321 81.7391C91.5805 85.3416 91.0836 89.3168 88.7234 86.5838Z" fill="#DBB625"/>
<path d="M91.5804 81.7392C91.5804 79.8758 89.717 78.0124 89.717 76.7702L91.5804 79.2547C91.5804 79.8758 91.5804 80.7454 91.5804 81.7392Z" fill="#FFD925"/>
<path d="M55.0588 89.3168L67.6054 89.6894C67.6054 89.6894 74.4377 85.9627 76.798 86.4596C77.7918 86.7081 78.6613 88.8199 79.5309 89.1926C81.0216 89.9379 88.7234 89.1926 88.7234 89.1926C90.9595 89.1926 91.4564 85.2174 91.5806 81.6149C91.5806 80.6211 91.5806 79.7516 91.5806 79.1304L89.7172 76.646V41.8634H65.7421V76.0248L59.034 79.1304C50.711 80.4969 49.0961 81.3665 48.8477 83.1056C48.8477 86.5839 51.7048 89.3168 55.0588 89.3168Z" fill="#FFD925"/>
<path d="M89.7172 47.205H65.7421V51.8013H89.7172V47.205Z" fill="#E07D2B"/>
<path d="M60.4004 116.273C91.4792 116.273 116.674 91.0789 116.674 60C116.674 28.9211 91.4792 3.72672 60.4004 3.72672C29.3215 3.72672 4.12708 28.9211 4.12708 60C4.12708 91.0789 29.3215 116.273 60.4004 116.273Z" stroke="#E07D2B" stroke-width="6" stroke-miterlimit="10"/>
</svg>
