<svg width="493" height="100" viewBox="0 0 493 100" fill="none" xmlns="http://www.w3.org/2000/svg">
<g id="truck">
<path id="road" d="M492 97H0V100H492V97Z" fill="#DBDCDD"/>
<g id="trailer">
<g id="Group 3">
<path id="Vector" d="M301.823 70.1951H296.6V82.0448H301.823V70.1951Z" fill="#EF940F"/>
<path id="Vector_2" d="M300.256 84.5736H298.167V90.354H300.256V84.5736Z" fill="#C4760E"/>
<path id="Vector_3" d="M301.077 90.2457V88.6923H297.57V90.2457L295.146 91.2573V92.4495H303.576V91.2573L301.077 90.2457Z" fill="#EF940F"/>
<path id="Vector_4" d="M301.04 80.9609H297.384V86.7413H301.04V80.9609Z" fill="#B2B1B1"/>
<path id="Vector_5" d="M297.794 85.9827L300.666 85.224V84.3208L297.794 85.0795V85.9827Z" fill="#E51A1A"/>
<path id="Vector_6" d="M297.794 84.2846L300.666 83.4899V82.5867L297.794 83.3815V84.2846Z" fill="#E51A1A"/>
<path id="Vector_7" d="M297.794 82.5866L300.666 81.7918V80.8887L297.794 81.6835V82.5866Z" fill="#E51A1A"/>
<path id="Vector_8" d="M301.86 70.1951H299.286V82.0448H301.86V70.1951Z" fill="#FCAB49"/>
</g>
<g id="Group 2">
<path id="Vector_9" d="M196.178 44.8337H200.58V70.6285H194.126V50.2167L196.178 44.8337Z" fill="#1E6B53"/>
<path id="Vector_10" d="M198.229 70.6286H475.996L482.226 75.2528H492.186V0H197.931L198.229 70.6286Z" fill="#16503F"/>
<path id="Vector_11" d="M227.326 2.27612H201.848V67.1244H227.326V2.27612Z" fill="#1E6B53"/>
<path id="Vector_12" d="M259.856 2.27612H234.377V67.1244H259.856V2.27612Z" fill="#1E6B53"/>
<path id="Vector_13" d="M292.385 2.27612H266.906V67.1244H292.385V2.27612Z" fill="#1E6B53"/>
<path id="Vector_14" d="M324.914 2.27612H299.436V67.1244H324.914V2.27612Z" fill="#1E6B53"/>
<path id="Vector_15" d="M357.444 2.27612H331.965V67.1244H357.444V2.27612Z" fill="#1E6B53"/>
<path id="Vector_16" d="M390.01 2.27612H364.531V67.1244H390.01V2.27612Z" fill="#1E6B53"/>
<path id="Vector_17" d="M422.539 2.27612H397.061V67.1244H422.539V2.27612Z" fill="#1E6B53"/>
<path id="Vector_18" d="M455.069 2.27612H429.59V67.1244H455.069V2.27612Z" fill="#1E6B53"/>
<path id="Vector_19" d="M487.598 2.27612H462.119V67.1244H487.598V2.27612Z" fill="#1E6B53"/>
<g id="logo" opacity="0.8">
<g id="Group" opacity="0.7">
<path id="Vector_20" opacity="0.7" d="M335.396 43.8223H333.68C333.307 43.3526 332.972 42.9191 332.673 42.5578C332.375 42.1966 332.039 41.8353 331.666 41.474H331.032V43.1359C331.032 43.2081 331.032 43.2804 331.069 43.3526C331.106 43.4249 331.181 43.461 331.293 43.4972C331.33 43.4972 331.442 43.5333 331.591 43.5333C331.741 43.5333 331.852 43.5694 331.927 43.5694V43.8223H329.241V43.5694C329.316 43.5694 329.428 43.5694 329.54 43.5333C329.689 43.5333 329.763 43.4972 329.838 43.4972C329.913 43.461 329.987 43.4249 330.025 43.3526C330.062 43.2804 330.099 43.2081 330.099 43.0998V39.3425C330.099 39.2703 330.099 39.198 330.062 39.1258C330.025 39.0535 329.95 39.0174 329.838 38.9813C329.763 38.9451 329.652 38.9451 329.54 38.909C329.428 38.8729 329.316 38.8729 329.241 38.8729V38.62H332.151C332.412 38.62 332.673 38.6561 332.897 38.6922C333.121 38.7284 333.345 38.8006 333.531 38.909C333.718 39.0174 333.867 39.1258 333.979 39.3064C334.091 39.4509 334.128 39.6677 334.128 39.8844C334.128 40.1012 334.091 40.2457 334.016 40.4263C333.942 40.5709 333.83 40.7154 333.68 40.8238C333.531 40.9321 333.382 41.0044 333.195 41.1128C333.009 41.2211 332.785 41.2573 332.561 41.2934C332.86 41.6185 333.121 41.9076 333.345 42.1605C333.568 42.3772 333.792 42.6662 334.091 42.9914C334.24 43.1359 334.352 43.2443 334.426 43.3165C334.538 43.3888 334.65 43.461 334.725 43.4972C334.8 43.5333 334.911 43.5694 335.023 43.5694C335.135 43.5694 335.247 43.6055 335.322 43.6055V43.8223H335.396ZM333.046 39.9567C333.046 39.6316 332.934 39.3787 332.711 39.198C332.487 39.0174 332.188 38.909 331.778 38.909H331.032V41.1489H331.629C332.039 41.1489 332.375 41.0405 332.636 40.8238C332.934 40.607 333.046 40.318 333.046 39.9567Z" fill="white"/>
<path id="Vector_21" opacity="0.7" d="M340.918 39.2341C341.179 39.487 341.403 39.776 341.589 40.1012C341.776 40.4263 341.813 40.8237 341.813 41.2211C341.813 41.6185 341.738 42.0159 341.589 42.3411C341.44 42.6662 341.216 42.9552 340.918 43.2081C340.657 43.461 340.321 43.6416 339.948 43.75C339.575 43.8945 339.202 43.9307 338.791 43.9307C338.344 43.9307 337.933 43.8584 337.56 43.7139C337.187 43.5694 336.852 43.3888 336.59 43.1359C336.329 42.883 336.105 42.594 335.956 42.2688C335.807 41.9437 335.732 41.5824 335.732 41.185C335.732 40.7515 335.807 40.3902 335.956 40.0651C336.105 39.7399 336.329 39.4509 336.628 39.198C336.889 38.9451 337.225 38.7645 337.598 38.6561C337.971 38.5116 338.344 38.4755 338.754 38.4755C339.164 38.4755 339.575 38.5477 339.948 38.6561C340.321 38.7645 340.657 39.0174 340.918 39.2341ZM340.284 42.9191C340.433 42.7023 340.582 42.4494 340.657 42.1604C340.731 41.8714 340.768 41.5824 340.768 41.2211C340.768 40.8599 340.731 40.5347 340.657 40.2457C340.582 39.9567 340.433 39.7038 340.284 39.487C340.134 39.2703 339.91 39.1258 339.687 39.0174C339.426 38.909 339.164 38.8367 338.829 38.8367C338.456 38.8367 338.157 38.909 337.933 39.0535C337.71 39.198 337.486 39.3786 337.336 39.5954C337.187 39.8122 337.075 40.0651 337.001 40.3541C336.926 40.6431 336.889 40.9321 336.889 41.2573C336.889 41.6185 336.926 41.9437 337.001 42.1966C337.075 42.4856 337.187 42.7385 337.374 42.9552C337.523 43.172 337.747 43.3526 337.971 43.461C338.232 43.5694 338.493 43.6416 338.829 43.6416C339.164 43.6416 339.426 43.5694 339.687 43.461C339.91 43.3165 340.097 43.1359 340.284 42.9191Z" fill="white"/>
<path id="Vector_22" opacity="0.7" d="M348.416 38.8729C348.379 38.8729 348.267 38.909 348.192 38.909C348.08 38.9451 348.006 38.9813 347.968 38.9813C347.856 39.0535 347.782 39.0896 347.744 39.1258C347.707 39.1619 347.633 39.2342 347.521 39.3787C347.297 39.6316 347.073 39.9206 346.886 40.2096C346.7 40.4986 346.439 40.8237 346.14 41.2573C346.028 41.4018 345.954 41.5463 345.917 41.6185C345.879 41.7269 345.879 41.8353 345.879 42.0159V43.0275C345.879 43.0998 345.917 43.2081 345.954 43.2443C345.991 43.3165 346.066 43.3526 346.178 43.3888C346.252 43.4249 346.364 43.4249 346.513 43.461C346.663 43.4971 346.812 43.4971 346.886 43.4971V43.75H343.939V43.4971C344.014 43.4971 344.163 43.4971 344.312 43.461C344.462 43.461 344.611 43.4249 344.648 43.4249C344.76 43.3888 344.835 43.3526 344.872 43.2804C344.909 43.2081 344.947 43.1359 344.947 43.0636V41.7992C344.947 41.7631 344.909 41.6908 344.872 41.5824C344.797 41.474 344.76 41.3657 344.648 41.2211C344.462 40.9321 344.275 40.6431 344.051 40.318C343.828 39.9928 343.641 39.7038 343.492 39.487C343.38 39.3425 343.305 39.2342 343.231 39.1619C343.156 39.0896 343.081 39.0174 342.97 38.9813C342.895 38.9451 342.82 38.909 342.708 38.909C342.596 38.8729 342.522 38.8729 342.447 38.8729V38.62H345.133V38.8729C344.835 38.8729 344.611 38.909 344.499 38.909C344.387 38.909 344.312 38.9813 344.312 39.0174C344.312 39.0174 344.312 39.0535 344.35 39.0896C344.35 39.1258 344.387 39.1619 344.424 39.2342C344.462 39.3064 344.499 39.3787 344.574 39.4509C344.611 39.5232 344.686 39.5954 344.723 39.7038C344.872 39.9206 345.021 40.1373 345.133 40.3541C345.282 40.5709 345.469 40.8599 345.693 41.185C346.14 40.5709 346.513 40.1012 346.775 39.7399C347.036 39.3787 347.148 39.198 347.148 39.1258C347.148 39.0535 347.11 39.0174 347.073 38.9813C347.036 38.9451 346.961 38.909 346.886 38.909C346.812 38.8729 346.7 38.8729 346.588 38.8729C346.476 38.8729 346.402 38.8729 346.29 38.8368V38.5839H348.491V38.8729H348.416Z" fill="white"/>
<path id="Vector_23" opacity="0.7" d="M355.019 43.8223H352.407V43.5694C352.631 43.5694 352.818 43.5333 352.967 43.4971C353.116 43.461 353.191 43.4249 353.191 43.3526C353.191 43.3165 353.191 43.3165 353.191 43.2804C353.191 43.2442 353.191 43.2081 353.154 43.2081L352.631 42.0521H350.43C350.356 42.2327 350.281 42.3772 350.244 42.4856C350.207 42.6301 350.132 42.7385 350.095 42.8469C350.057 42.9552 350.02 43.0275 350.02 43.0997C350.02 43.172 349.983 43.2081 349.983 43.2443C349.983 43.3526 350.095 43.4249 350.281 43.461C350.468 43.4971 350.691 43.5333 350.915 43.5694V43.8223H348.528V43.5694C348.602 43.5694 348.714 43.5333 348.826 43.5333C348.938 43.4971 349.05 43.461 349.125 43.4249C349.237 43.3526 349.349 43.2804 349.386 43.2081C349.46 43.1359 349.498 43.0275 349.572 42.9191C349.908 42.2688 350.244 41.5463 350.617 40.7154C350.99 39.8844 351.326 39.1619 351.624 38.5477H351.997L354.086 43.0275C354.123 43.1359 354.198 43.2081 354.235 43.2443C354.31 43.3165 354.385 43.3526 354.459 43.4249C354.534 43.461 354.608 43.4971 354.72 43.4971C354.832 43.5333 354.907 43.5333 354.981 43.5333L355.019 43.8223ZM352.482 41.6908L351.512 39.6677L350.58 41.6908H352.482Z" fill="white"/>
<path id="Vector_24" opacity="0.7" d="M360.689 42.2688L360.54 43.8223H355.616V43.5694C355.69 43.5694 355.802 43.5694 355.914 43.5333C356.063 43.5333 356.138 43.4972 356.213 43.4972C356.287 43.461 356.362 43.4249 356.399 43.3527C356.436 43.2804 356.474 43.2081 356.474 43.0998V39.3787C356.474 39.3064 356.474 39.2342 356.436 39.1619C356.399 39.0897 356.325 39.0535 356.25 39.0174C356.175 38.9813 356.101 38.9451 355.951 38.9451C355.84 38.909 355.728 38.909 355.653 38.909V38.6561H358.339V38.909C358.264 38.909 358.152 38.909 358.003 38.9451C357.854 38.9813 357.779 38.9813 357.705 39.0174C357.593 39.0535 357.518 39.0897 357.481 39.1619C357.444 39.2342 357.406 39.3064 357.406 39.3787V42.883C357.406 43.0275 357.406 43.172 357.444 43.2443C357.481 43.3165 357.518 43.3888 357.593 43.461C357.667 43.4972 357.779 43.5333 357.891 43.5333C358.041 43.5333 358.227 43.5694 358.451 43.5694C358.563 43.5694 358.675 43.5694 358.787 43.5694C358.898 43.5694 359.01 43.5694 359.122 43.5333C359.234 43.5333 359.309 43.4972 359.421 43.461C359.495 43.4249 359.57 43.3888 359.607 43.3527C359.719 43.2443 359.868 43.0636 360.018 42.8469C360.167 42.6301 360.279 42.4495 360.353 42.305H360.689V42.2688Z" fill="white"/>
<path id="Vector_25" opacity="0.7" d="M321.333 47.2545C321.221 47.2545 321.035 47.2906 320.848 47.3267C320.624 47.3628 320.438 47.4351 320.326 47.5074C320.177 47.5796 320.102 47.7602 320.027 48.0131C319.99 48.266 319.953 48.5912 319.953 48.9524V52.24C319.953 52.6735 319.841 53.0348 319.654 53.3238C319.468 53.649 319.207 53.9019 318.871 54.0825C318.535 54.2631 318.199 54.4076 317.864 54.4799C317.491 54.5522 317.155 54.5883 316.856 54.5883C316.334 54.5883 315.887 54.516 315.476 54.4076C315.066 54.2993 314.73 54.1186 314.432 53.938C314.171 53.7212 313.947 53.5045 313.798 53.2516C313.648 52.9987 313.574 52.7097 313.574 52.4206V47.977C313.574 47.8686 313.536 47.7602 313.499 47.6519C313.462 47.5796 313.35 47.5074 313.201 47.4351C313.089 47.399 312.977 47.3628 312.828 47.3267C312.678 47.2906 312.529 47.2906 312.455 47.2545V46.8932H316.073V47.2545C315.961 47.2545 315.812 47.2906 315.625 47.2906C315.439 47.3267 315.327 47.3628 315.252 47.3628C315.103 47.399 315.029 47.4712 314.991 47.5796C314.954 47.688 314.917 47.7964 314.917 47.9048V52.0594C314.917 52.2761 314.954 52.4568 314.991 52.7097C315.029 52.9626 315.14 53.1432 315.29 53.3238C315.439 53.5045 315.663 53.6851 315.924 53.7935C316.185 53.9019 316.558 53.9741 317.043 53.9741C317.491 53.9741 317.864 53.9019 318.162 53.7935C318.461 53.6851 318.722 53.5045 318.871 53.3238C319.02 53.1432 319.169 52.9264 319.244 52.7097C319.319 52.4929 319.356 52.2761 319.356 52.0955V49.0247C319.356 48.6273 319.319 48.3022 319.244 48.0493C319.169 47.7964 319.095 47.6519 318.946 47.5435C318.796 47.4712 318.61 47.399 318.349 47.3267C318.088 47.2906 317.901 47.2545 317.789 47.2545V46.8932H321.333V47.2545Z" fill="white"/>
<path id="Vector_26" opacity="0.7" d="M331.368 47.2543C331.256 47.2543 331.069 47.2905 330.846 47.3266C330.622 47.3627 330.435 47.435 330.323 47.5072C330.174 47.5795 330.062 47.7601 330.025 48.013C329.988 48.2659 329.95 48.591 329.95 48.9523V54.4436H329.428L324.168 48.302V52.1676C324.168 52.6011 324.205 52.9263 324.28 53.1792C324.355 53.3959 324.429 53.5766 324.578 53.685C324.69 53.7572 324.877 53.8295 325.175 53.9017C325.474 53.974 325.66 54.0101 325.772 54.0101V54.3714H322.228V54.0101C322.34 54.0101 322.527 53.974 322.788 53.9017C323.049 53.8295 323.198 53.7933 323.273 53.7211C323.422 53.6127 323.497 53.4682 323.571 53.2514C323.609 53.0347 323.646 52.7095 323.646 52.2037V48.4827C323.646 48.3381 323.609 48.1575 323.534 47.9769C323.459 47.8324 323.385 47.6879 323.273 47.6156C323.124 47.5072 322.937 47.3988 322.676 47.3266C322.415 47.2543 322.228 47.1821 322.079 47.1821V46.8208H324.541L329.428 52.565V48.9884C329.428 48.5549 329.391 48.2298 329.316 47.9769C329.241 47.7601 329.167 47.5795 329.018 47.5072C328.906 47.435 328.719 47.3627 328.458 47.3266C328.197 47.2543 328.01 47.2182 327.861 47.2182V46.8569H331.405V47.2543H331.368Z" fill="white"/>
<path id="Vector_27" opacity="0.7" d="M336.553 54.3714H332.636V54.0101C332.748 54.0101 332.897 54.0101 333.121 53.974C333.345 53.974 333.457 53.9378 333.569 53.9017C333.718 53.8656 333.793 53.7933 333.867 53.7211C333.942 53.6488 333.942 53.5404 333.942 53.3959V47.9407C333.942 47.8324 333.905 47.724 333.867 47.6156C333.83 47.5433 333.718 47.4711 333.532 47.3988C333.42 47.3627 333.27 47.3266 333.084 47.2905C332.897 47.2543 332.748 47.2182 332.636 47.2182V46.8569H336.553V47.2182C336.441 47.2182 336.292 47.2182 336.106 47.2543C335.919 47.2905 335.77 47.2905 335.658 47.3266C335.509 47.3627 335.397 47.435 335.359 47.5433C335.322 47.6517 335.285 47.7601 335.285 47.8685V53.3237C335.285 53.4321 335.322 53.5404 335.359 53.6488C335.434 53.7572 335.509 53.7933 335.658 53.8656C335.732 53.9017 335.882 53.9378 336.068 53.974C336.255 54.0101 336.441 54.0101 336.553 54.0462V54.3714Z" fill="white"/>
<path id="Vector_28" opacity="0.7" d="M345.432 50.8671C345.693 51.0116 345.879 51.1922 346.066 51.4451C346.215 51.698 346.327 51.987 346.327 52.3121C346.327 52.6734 346.252 52.9624 346.066 53.2153C345.879 53.4682 345.655 53.685 345.394 53.8656C345.133 54.0462 344.797 54.1546 344.462 54.2269C344.126 54.2991 343.753 54.3714 343.38 54.3714H339.276V54.0101C339.388 54.0101 339.5 53.974 339.687 53.974C339.873 53.9379 340.022 53.9379 340.097 53.9017C340.209 53.8656 340.321 53.7934 340.358 53.7211C340.395 53.6488 340.433 53.5405 340.433 53.396V47.9769C340.433 47.8685 340.395 47.7601 340.358 47.6517C340.321 47.5434 340.209 47.4711 340.097 47.435C339.985 47.3988 339.836 47.3266 339.687 47.3266C339.537 47.2905 339.426 47.2905 339.314 47.2905V46.9292H343.305C343.604 46.9292 343.902 46.9653 344.201 47.0015C344.499 47.0376 344.76 47.146 345.021 47.2905C345.245 47.3989 345.469 47.5795 345.618 47.7962C345.767 48.013 345.842 48.2659 345.842 48.5549C345.842 48.8078 345.805 49.0607 345.693 49.2775C345.581 49.4942 345.432 49.6749 345.245 49.8194C345.058 49.9639 344.835 50.0723 344.611 50.1806C344.35 50.289 344.089 50.3613 343.827 50.3974V50.4335C344.089 50.4697 344.35 50.5058 344.648 50.578C344.947 50.6142 345.208 50.7225 345.432 50.8671ZM343.977 49.7471C344.126 49.6026 344.238 49.422 344.275 49.2413C344.35 49.0607 344.35 48.8439 344.35 48.591C344.35 48.1937 344.238 47.8685 343.977 47.6156C343.716 47.3627 343.305 47.2543 342.746 47.2543C342.634 47.2543 342.447 47.2543 342.261 47.2543C342.074 47.2543 341.888 47.2543 341.776 47.2543V50.1445H342.559C342.895 50.1445 343.193 50.1084 343.417 50.0361C343.641 50 343.827 49.8916 343.977 49.7471ZM344.835 52.1676C344.835 51.7341 344.648 51.3728 344.312 51.0838C343.977 50.7948 343.492 50.6503 342.82 50.6503C342.559 50.6503 342.335 50.6503 342.149 50.6503C341.962 50.6503 341.85 50.6503 341.738 50.6503V53.2876C341.738 53.5043 341.85 53.685 342.037 53.7934C342.261 53.9017 342.522 53.974 342.895 53.974C343.492 53.974 343.977 53.8295 344.275 53.5043C344.648 53.2153 344.835 52.7457 344.835 52.1676Z" fill="white"/>
<path id="Vector_29" opacity="0.7" d="M356.362 54.3715H354.011C353.489 53.6851 353.041 53.0709 352.594 52.5652C352.183 52.0594 351.736 51.5175 351.251 50.9756H350.356V53.3599C350.356 53.4683 350.393 53.5767 350.43 53.6851C350.467 53.7935 350.579 53.8657 350.729 53.9019C350.803 53.938 350.915 53.938 351.102 53.9741C351.288 54.0102 351.437 54.0102 351.549 54.0102V54.3715H347.893V54.0102C348.005 54.0102 348.117 53.9741 348.304 53.9741C348.49 53.9741 348.602 53.938 348.677 53.9019C348.789 53.8657 348.901 53.7935 348.938 53.6851C348.975 53.6128 349.013 53.4683 349.013 53.3599V47.9047C349.013 47.7964 348.975 47.688 348.938 47.5796C348.901 47.4712 348.789 47.399 348.64 47.3628C348.528 47.3267 348.416 47.2906 348.229 47.2906C348.08 47.2545 347.931 47.2545 347.819 47.2545V46.8932H351.81C352.183 46.8932 352.519 46.9293 352.855 47.0016C353.191 47.0738 353.452 47.1822 353.713 47.3267C353.974 47.4712 354.161 47.6519 354.31 47.8686C354.459 48.0854 354.534 48.3744 354.534 48.6995C354.534 48.9886 354.496 49.2415 354.384 49.4582C354.272 49.675 354.123 49.8556 353.937 50.0363C353.75 50.1808 353.526 50.3253 353.265 50.4336C353.004 50.542 352.743 50.6504 352.407 50.7227C352.818 51.2284 353.191 51.6258 353.489 51.951C353.788 52.2761 354.123 52.7097 354.534 53.1793C354.72 53.3961 354.869 53.5406 355.019 53.649C355.168 53.7573 355.317 53.8296 355.466 53.9019C355.578 53.938 355.69 53.9741 355.877 54.0102C356.026 54.0464 356.175 54.0464 356.287 54.0464V54.3715H356.362ZM353.153 48.7718C353.153 48.3022 353.004 47.9409 352.706 47.688C352.407 47.4351 351.997 47.2906 351.437 47.2906H350.393V50.5059H351.176C351.736 50.5059 352.221 50.3614 352.594 50.0363C352.967 49.7472 353.153 49.3137 353.153 48.7718Z" fill="white"/>
<path id="Vector_30" opacity="0.7" d="M364.643 52.1676L364.494 54.3714H357.294V54.0101C357.406 54.0101 357.593 53.974 357.779 53.974C357.966 53.9378 358.115 53.9378 358.189 53.9017C358.339 53.8656 358.413 53.7933 358.451 53.685C358.488 53.6127 358.525 53.5043 358.525 53.3598V47.9407C358.525 47.8324 358.488 47.724 358.451 47.6156C358.413 47.5072 358.301 47.435 358.152 47.3988C358.04 47.3627 357.891 47.3266 357.704 47.2905C357.518 47.2543 357.369 47.2182 357.257 47.2182V46.8569H363.972V48.6633H363.524C363.449 48.4104 363.263 48.1214 363.002 47.7962C362.741 47.5072 362.479 47.3266 362.218 47.2905C362.106 47.2905 361.957 47.2543 361.771 47.2543C361.584 47.2543 361.398 47.2543 361.174 47.2543H359.794V50.2529H360.763C361.062 50.2529 361.323 50.2168 361.435 50.1806C361.584 50.1445 361.696 50.0361 361.808 49.9277C361.883 49.8194 361.957 49.6748 362.032 49.5303C362.106 49.3497 362.144 49.2052 362.144 49.0607H362.591V52.0231H362.144C362.144 51.8425 362.069 51.6618 361.994 51.4812C361.92 51.3006 361.845 51.1561 361.771 51.0838C361.659 50.9393 361.51 50.867 361.323 50.8309C361.136 50.7948 360.95 50.7587 360.689 50.7587H359.719V52.9985C359.719 53.2153 359.756 53.3959 359.756 53.5404C359.794 53.685 359.868 53.7572 359.98 53.8295C360.092 53.9017 360.241 53.9378 360.428 53.974C360.614 54.0101 360.875 54.0101 361.211 54.0101C361.36 54.0101 361.51 54.0101 361.733 54.0101C361.957 54.0101 362.144 54.0101 362.293 53.974C362.442 53.974 362.591 53.9378 362.778 53.9017C362.927 53.8656 363.076 53.8295 363.114 53.7572C363.3 53.5766 363.487 53.3237 363.71 52.9985C363.934 52.6373 364.046 52.3844 364.121 52.2399H364.643V52.1676Z" fill="white"/>
<path id="Vector_31" opacity="0.7" d="M377.774 47.2544C377.662 47.2544 377.55 47.2906 377.438 47.3267C377.289 47.3628 377.177 47.399 377.065 47.4712C376.916 47.5435 376.804 47.6518 376.73 47.7241C376.655 47.8325 376.58 47.977 376.506 48.1576C376.207 48.9885 375.872 49.9279 375.499 51.0117C375.126 52.0955 374.715 53.2516 374.268 54.4799H373.708L371.507 48.6995L369.232 54.4799H368.709C368.299 53.2516 367.889 51.951 367.441 50.6143C366.993 49.2776 366.732 48.3744 366.583 47.9409C366.546 47.8325 366.508 47.7241 366.434 47.6518C366.359 47.5796 366.247 47.4712 366.135 47.4351C366.023 47.3628 365.911 47.3267 365.762 47.2906C365.613 47.2544 365.501 47.2544 365.389 47.2183V46.857H368.933V47.2183C368.635 47.2183 368.374 47.2544 368.15 47.2906C367.926 47.3267 367.814 47.399 367.814 47.4712C367.814 47.5073 367.814 47.5435 367.814 47.6157C367.814 47.688 367.851 47.7241 367.851 47.7602C367.963 48.0854 368.112 48.5912 368.336 49.3137C368.56 50.0362 368.933 51.1201 369.381 52.529L371.544 46.9293H372.141L374.342 52.6374C374.641 51.7703 374.902 50.9755 375.088 50.3253C375.275 49.675 375.461 49.0969 375.611 48.6273C375.722 48.3021 375.76 48.0854 375.797 47.9409C375.834 47.8325 375.834 47.7241 375.834 47.6157C375.834 47.5073 375.722 47.399 375.536 47.3267C375.349 47.2544 375.051 47.1822 374.603 47.1461V46.7848H377.737L377.774 47.2544Z" fill="white"/>
</g>
<path id="Vector_32" opacity="0.7" d="M334.054 11.1995L339.985 13.7645V26.3729C339.985 26.3729 339.873 32.0448 343.939 33.6705C343.939 33.6705 334.054 33.7067 334.054 25.2529C334.054 16.7992 334.054 11.1995 334.054 11.1995Z" fill="white"/>
<path id="Vector_33" opacity="0.7" d="M355.168 11.1995L349.236 13.7645V26.3729C349.236 26.3729 349.348 32.0448 345.282 33.6705C345.282 33.6705 355.168 33.7067 355.168 25.2529C355.168 16.7992 355.168 11.1995 355.168 11.1995Z" fill="white"/>
</g>
</g>
<g id="Group 3_2">
<path id="Vector_34" d="M374.715 77.2399H323.534V80.2384H374.715V77.2399Z" fill="#1E6B53"/>
<path id="Vector_35" d="M374.715 83.8512H323.534V86.8497H374.715V83.8512Z" fill="#1E6B53"/>
<path id="Vector_36" d="M327.712 74.9639H325.996V87.6806H327.712V74.9639Z" fill="#16503F"/>
<path id="Vector_37" d="M372.514 74.9639H370.798V87.6806H372.514V74.9639Z" fill="#16503F"/>
<path id="Vector_38" d="M453.24 73.9884H386.056V89.1618H453.24V73.9884Z" fill="#16503F"/>
<path id="Vector_39" d="M469.207 69.2919H300.107V75.3973H469.207V69.2919Z" fill="#1E6B53"/>
<g id="Group 3_3">
<g id="Group_2">
<path id="Vector_40" d="M455.031 96.0982C460.589 92.0881 461.709 84.5014 457.605 79.1185C453.464 73.7355 445.63 72.6517 440.072 76.6257C434.514 80.6358 433.395 88.2225 437.498 93.6055C441.639 98.9884 449.51 100.108 455.031 96.0982Z" fill="#141D1E"/>
<path id="Vector_41" d="M451.786 91.8714C454.919 89.5953 455.553 85.3323 453.24 82.2977C450.89 79.263 446.488 78.6488 443.355 80.8887C440.221 83.1647 439.587 87.4277 441.9 90.4624C444.213 93.4971 448.652 94.1474 451.786 91.8714Z" fill="#3C5151"/>
<path id="Vector_42" d="M451.487 91.474C454.397 89.3786 454.994 85.4046 452.83 82.5867C450.667 79.7688 446.563 79.1908 443.653 81.2861C440.744 83.3815 440.147 87.3555 442.31 90.1734C444.474 92.9913 448.578 93.5694 451.487 91.474Z" fill="#2A3C3D"/>
<path id="Vector_43" d="M450.778 90.5346C453.166 88.8366 453.651 85.5491 451.86 83.2731C450.107 80.9609 446.712 80.4913 444.362 82.2254C441.975 83.9234 441.49 87.2109 443.28 89.4869C445.034 91.7991 448.391 92.2687 450.778 90.5346Z" fill="#476363"/>
<path id="Vector_44" d="M450.368 90.0289C452.457 88.5115 452.905 85.6575 451.338 83.6344C449.771 81.6113 446.824 81.1777 444.735 82.6951C442.646 84.2124 442.199 87.0665 443.765 89.0896C445.332 91.1488 448.279 91.5462 450.368 90.0289Z" fill="#607C7B"/>
<path id="Vector_45" d="M449.547 88.945C451.002 87.8973 451.338 85.8742 450.219 84.4291C449.137 83.0201 447.048 82.695 445.556 83.7788C444.101 84.8265 443.765 86.8496 444.884 88.2947C446.004 89.7398 448.055 90.0288 449.547 88.945Z" fill="#2A3C3D"/>
<path id="Vector_46" d="M448.54 87.6445C449.249 87.1387 449.398 86.1633 448.876 85.4407C448.354 84.7543 447.347 84.6098 446.6 85.1156C445.892 85.6214 445.742 86.5968 446.265 87.3193C446.787 88.0058 447.794 88.1503 448.54 87.6445Z" fill="#141D1E"/>
<path id="Vector_47" d="M445.631 89.9205C445.817 89.776 445.854 89.5231 445.705 89.3786C445.556 89.198 445.295 89.1618 445.146 89.3063C444.959 89.4508 444.922 89.7037 445.071 89.8482C445.183 90.0289 445.444 90.065 445.631 89.9205Z" fill="#141D1E"/>
<path id="Vector_48" d="M448.093 90.5347C448.279 90.3902 448.316 90.1374 448.167 89.9928C448.018 89.8122 447.757 89.7761 447.608 89.9206C447.421 90.0651 447.384 90.318 447.533 90.4625C447.645 90.6431 447.906 90.6793 448.093 90.5347Z" fill="#141D1E"/>
<path id="Vector_49" d="M450.368 89.6675C450.554 89.523 450.592 89.2702 450.443 89.1256C450.293 88.945 450.032 88.9089 449.883 89.0534C449.696 89.1979 449.659 89.4508 449.808 89.5953C449.92 89.7759 450.181 89.812 450.368 89.6675Z" fill="#141D1E"/>
<path id="Vector_50" d="M451.711 87.4638C451.897 87.3193 451.935 87.0664 451.785 86.9219C451.636 86.7413 451.375 86.7052 451.226 86.8497C451.039 86.9942 451.002 87.2471 451.151 87.3916C451.263 87.5361 451.524 87.5722 451.711 87.4638Z" fill="#141D1E"/>
<path id="Vector_51" d="M451.487 85.0794C451.674 84.9349 451.711 84.682 451.562 84.5375C451.412 84.3569 451.151 84.3208 451.002 84.4653C450.816 84.6098 450.778 84.8627 450.928 85.0072C451.039 85.1878 451.301 85.224 451.487 85.0794Z" fill="#141D1E"/>
<path id="Vector_52" d="M449.883 83.3092C450.07 83.1647 450.107 82.9118 449.958 82.7673C449.809 82.5866 449.547 82.5505 449.398 82.695C449.212 82.8395 449.174 83.0924 449.324 83.2369C449.473 83.4176 449.697 83.4537 449.883 83.3092Z" fill="#141D1E"/>
<path id="Vector_53" d="M447.57 82.7673C447.757 82.6228 447.794 82.3699 447.645 82.2254C447.495 82.0448 447.234 82.0086 447.085 82.1531C446.899 82.2976 446.861 82.5505 447.011 82.695C447.16 82.8757 447.384 82.9118 447.57 82.7673Z" fill="#141D1E"/>
<path id="Vector_54" d="M445.332 83.4898C445.518 83.3453 445.556 83.0924 445.406 82.9479C445.257 82.7673 444.996 82.7312 444.847 82.8757C444.66 83.0202 444.623 83.2731 444.772 83.4176C444.921 83.5982 445.183 83.6343 445.332 83.4898Z" fill="#141D1E"/>
<path id="Vector_55" d="M443.989 85.4046C444.176 85.2601 444.213 85.0072 444.064 84.8627C443.914 84.6821 443.653 84.646 443.504 84.7905C443.318 84.935 443.28 85.1879 443.429 85.3324C443.541 85.513 443.803 85.5491 443.989 85.4046Z" fill="#141D1E"/>
<path id="Vector_56" d="M443.989 87.8974C444.176 87.7529 444.213 87.5 444.064 87.3555C443.914 87.1749 443.653 87.1388 443.504 87.2833C443.318 87.4278 443.28 87.6807 443.429 87.8252C443.541 87.9697 443.803 88.0058 443.989 87.8974Z" fill="#141D1E"/>
<path id="Vector_57" d="M443.653 90.7514C443.802 90.643 443.803 90.4262 443.691 90.2817L443.094 89.6315C442.982 89.4869 442.758 89.4869 442.609 89.5953C442.46 89.7037 442.46 89.9205 442.571 90.065L443.168 90.7153C443.318 90.8598 443.504 90.8598 443.653 90.7514Z" fill="#141D1E"/>
<path id="Vector_58" d="M447.197 92.2327C447.235 92.0521 447.123 91.8714 446.936 91.8353L446.078 91.6186C445.892 91.5824 445.705 91.6908 445.668 91.8353C445.631 92.016 445.742 92.1966 445.892 92.2327L446.75 92.4495C446.973 92.5217 447.16 92.4133 447.197 92.2327Z" fill="#141D1E"/>
<path id="Vector_59" d="M450.667 91.3295C450.592 91.185 450.368 91.1127 450.219 91.185L449.398 91.5824C449.249 91.6546 449.174 91.8714 449.249 92.0159C449.324 92.1604 449.547 92.2327 449.697 92.1604L450.517 91.763C450.667 91.6907 450.741 91.474 450.667 91.3295Z" fill="#141D1E"/>
<path id="Vector_60" d="M453.017 88.6199C452.867 88.5476 452.644 88.5837 452.569 88.7644L452.159 89.523C452.084 89.6675 452.159 89.8843 452.308 89.9566C452.457 90.0288 452.681 89.9566 452.756 89.812L453.166 89.0534C453.24 88.9089 453.203 88.7282 453.017 88.6199Z" fill="#141D1E"/>
<path id="Vector_61" d="M453.427 85.1877C453.24 85.2239 453.128 85.3684 453.128 85.549L453.24 86.4161C453.278 86.5967 453.427 86.7051 453.613 86.7051C453.8 86.669 453.912 86.5245 453.912 86.3438L453.8 85.4768C453.763 85.2961 453.613 85.1877 453.427 85.1877Z" fill="#141D1E"/>
<path id="Vector_62" d="M451.786 82.1892C451.636 82.2976 451.599 82.5144 451.711 82.6589L452.271 83.3453C452.383 83.4898 452.606 83.5259 452.756 83.4175C452.905 83.3092 452.942 83.0924 452.83 82.9479L452.271 82.2615C452.159 82.117 451.935 82.0809 451.786 82.1892Z" fill="#141D1E"/>
<path id="Vector_63" d="M441.713 85.1156C441.9 85.1156 442.049 85.2601 442.049 85.4408L442.012 86.3078C442.012 86.4885 441.863 86.633 441.676 86.633C441.49 86.633 441.34 86.4885 441.34 86.3078L441.378 85.4408C441.378 85.224 441.527 85.0795 441.713 85.1156Z" fill="#141D1E"/>
<path id="Vector_64" d="M443.616 82.1532C443.765 82.2616 443.765 82.4783 443.653 82.6228L443.056 83.2731C442.944 83.4176 442.721 83.4176 442.571 83.3093C442.422 83.2009 442.422 82.9841 442.571 82.8396L443.168 82.1893C443.243 82.0448 443.467 82.0448 443.616 82.1532Z" fill="#141D1E"/>
<path id="Vector_65" d="M446.936 80.7443C446.973 80.9249 446.861 81.1056 446.675 81.1056L445.78 81.2501C445.593 81.2862 445.407 81.1778 445.407 80.9972C445.369 80.8166 445.481 80.6359 445.668 80.6359L446.563 80.4914C446.712 80.4192 446.899 80.5637 446.936 80.7443Z" fill="#141D1E"/>
<path id="Vector_66" d="M450.442 81.3584C450.368 81.539 450.181 81.6113 449.995 81.539L449.174 81.1777C448.988 81.1055 448.913 80.9249 448.988 80.7442C449.062 80.5636 449.249 80.4913 449.435 80.5636L450.256 80.9249C450.442 80.9971 450.517 81.1777 450.442 81.3584Z" fill="#141D1E"/>
</g>
<path id="Vector_67" d="M436.342 84.6459C436.827 81.7918 438.356 79.299 440.743 77.5649C443.168 75.7947 446.153 75.0722 449.174 75.5057C452.159 75.9392 454.844 77.4566 456.635 79.8048C457.717 81.2138 458.463 82.8756 458.724 84.6459H461.112C460.813 82.406 459.918 80.2745 458.5 78.4681C456.299 75.6141 453.128 73.7716 449.51 73.2658C445.891 72.76 442.273 73.6271 439.363 75.7586C436.379 77.9262 434.476 81.0693 433.954 84.6459H436.342Z" fill="#474747"/>
<g id="Group_3">
<path id="Vector_68" d="M426.941 96.0982C432.499 92.0881 433.619 84.5014 429.515 79.1185C425.374 73.7355 417.541 72.6517 411.982 76.6257C406.424 80.6358 405.305 88.2225 409.408 93.6055C413.512 98.9884 421.383 100.108 426.941 96.0982Z" fill="#141D1E"/>
<path id="Vector_69" d="M423.659 91.8714C426.792 89.5953 427.426 85.3323 425.113 82.2977C422.763 79.263 418.361 78.6488 415.228 80.8887C412.094 83.1647 411.46 87.4277 413.773 90.4624C416.086 93.4971 420.525 94.1474 423.659 91.8714Z" fill="#3C5151"/>
<path id="Vector_70" d="M423.36 91.474C426.27 89.3786 426.866 85.4046 424.703 82.5867C422.539 79.7688 418.436 79.1908 415.526 81.2861C412.616 83.3815 412.019 87.3555 414.183 90.1734C416.347 92.9913 420.45 93.5694 423.36 91.474Z" fill="#2A3C3D"/>
<path id="Vector_71" d="M422.651 90.5346C425.039 88.8366 425.523 85.5491 423.733 83.2731C421.98 80.9609 418.585 80.4913 416.235 82.2254C413.847 83.9234 413.362 87.2109 415.153 89.4869C416.906 91.7991 420.264 92.2687 422.651 90.5346Z" fill="#476363"/>
<path id="Vector_72" d="M422.241 90.0289C424.33 88.5115 424.777 85.6575 423.211 83.6344C421.644 81.6113 418.697 81.1777 416.608 82.6951C414.519 84.2124 414.071 87.0665 415.638 89.0896C417.205 91.1488 420.152 91.5462 422.241 90.0289Z" fill="#607C7B"/>
<path id="Vector_73" d="M421.42 88.945C422.875 87.8973 423.211 85.8742 422.091 84.4291C421.01 83.0201 418.921 82.695 417.428 83.7788C415.974 84.8265 415.638 86.8496 416.757 88.2947C417.876 89.7398 419.965 90.0288 421.42 88.945Z" fill="#2A3C3D"/>
<path id="Vector_74" d="M420.413 87.6445C421.122 87.1387 421.271 86.1633 420.749 85.4407C420.226 84.7543 419.219 84.6098 418.473 85.1156C417.764 85.6214 417.615 86.5968 418.137 87.3193C418.66 88.0058 419.704 88.1503 420.413 87.6445Z" fill="#141D1E"/>
<path id="Vector_75" d="M417.503 89.9205C417.69 89.776 417.727 89.5231 417.578 89.3786C417.429 89.198 417.167 89.1618 417.018 89.3063C416.832 89.4508 416.794 89.7037 416.944 89.8482C417.056 90.0289 417.317 90.065 417.503 89.9205Z" fill="#141D1E"/>
<path id="Vector_76" d="M419.965 90.5347C420.152 90.3902 420.189 90.1374 420.04 89.9928C419.891 89.8122 419.629 89.7761 419.48 89.9206C419.294 90.0651 419.256 90.318 419.406 90.4625C419.517 90.6431 419.779 90.6793 419.965 90.5347Z" fill="#141D1E"/>
<path id="Vector_77" d="M422.241 89.6675C422.428 89.523 422.465 89.2702 422.316 89.1256C422.166 88.945 421.905 88.9089 421.756 89.0534C421.57 89.1979 421.532 89.4508 421.681 89.5953C421.793 89.7759 422.054 89.812 422.241 89.6675Z" fill="#141D1E"/>
<path id="Vector_78" d="M423.584 87.4638C423.77 87.3193 423.808 87.0664 423.658 86.9219C423.509 86.7413 423.248 86.7052 423.099 86.8497C422.912 86.9942 422.875 87.2471 423.024 87.3916C423.136 87.5361 423.397 87.5722 423.584 87.4638Z" fill="#141D1E"/>
<path id="Vector_79" d="M423.36 85.0794C423.547 84.9349 423.584 84.682 423.435 84.5375C423.286 84.3569 423.024 84.3208 422.875 84.4653C422.689 84.6098 422.651 84.8627 422.801 85.0072C422.912 85.1878 423.174 85.224 423.36 85.0794Z" fill="#141D1E"/>
<path id="Vector_80" d="M421.793 83.3092C421.98 83.1647 422.017 82.9118 421.868 82.7673C421.719 82.5866 421.457 82.5505 421.308 82.695C421.122 82.8395 421.084 83.0924 421.234 83.2369C421.346 83.4176 421.607 83.4537 421.793 83.3092Z" fill="#141D1E"/>
<path id="Vector_81" d="M419.48 82.7673C419.667 82.6228 419.704 82.3699 419.555 82.2254C419.406 82.0448 419.145 82.0086 418.995 82.1531C418.809 82.2976 418.771 82.5505 418.921 82.695C419.033 82.8757 419.294 82.9118 419.48 82.7673Z" fill="#141D1E"/>
<path id="Vector_82" d="M417.242 83.4898C417.428 83.3453 417.466 83.0924 417.317 82.9479C417.167 82.7673 416.906 82.7312 416.757 82.8757C416.57 83.0202 416.533 83.2731 416.682 83.4176C416.794 83.5982 417.055 83.6343 417.242 83.4898Z" fill="#141D1E"/>
<path id="Vector_83" d="M415.862 85.4046C416.048 85.2601 416.085 85.0072 415.936 84.8627C415.787 84.6821 415.526 84.646 415.377 84.7905C415.19 84.935 415.153 85.1879 415.302 85.3324C415.414 85.513 415.675 85.5491 415.862 85.4046Z" fill="#141D1E"/>
<path id="Vector_84" d="M415.862 87.8974C416.048 87.7529 416.085 87.5 415.936 87.3555C415.787 87.1749 415.526 87.1388 415.377 87.2833C415.19 87.4278 415.153 87.6807 415.302 87.8252C415.414 87.9697 415.675 88.0058 415.862 87.8974Z" fill="#141D1E"/>
<path id="Vector_85" d="M415.526 90.7514C415.676 90.643 415.676 90.4262 415.564 90.2817L414.967 89.6315C414.855 89.4869 414.631 89.4869 414.482 89.5953C414.333 89.7037 414.333 89.9205 414.445 90.065L415.041 90.7153C415.191 90.8598 415.414 90.8598 415.526 90.7514Z" fill="#141D1E"/>
<path id="Vector_86" d="M419.07 92.2327C419.107 92.0521 418.995 91.8714 418.846 91.8353L417.988 91.6186C417.802 91.5824 417.615 91.6908 417.578 91.8353C417.541 92.016 417.653 92.1966 417.839 92.2327L418.697 92.4495C418.846 92.5217 419.033 92.4133 419.07 92.2327Z" fill="#141D1E"/>
<path id="Vector_87" d="M422.539 91.3295C422.465 91.185 422.241 91.1127 422.091 91.185L421.271 91.5824C421.122 91.6546 421.047 91.8714 421.122 92.0159C421.196 92.1604 421.42 92.2327 421.569 92.1604L422.39 91.763C422.539 91.6907 422.614 91.474 422.539 91.3295Z" fill="#141D1E"/>
<path id="Vector_88" d="M424.889 88.6199C424.74 88.5476 424.516 88.5837 424.442 88.7644L424.031 89.523C423.957 89.6675 424.031 89.8843 424.18 89.9566C424.33 90.0288 424.553 89.9566 424.628 89.812L425.038 89.0534C425.113 88.9089 425.076 88.7282 424.889 88.6199Z" fill="#141D1E"/>
<path id="Vector_89" d="M425.3 85.1877C425.113 85.2239 425.001 85.3684 425.001 85.549L425.113 86.4161C425.151 86.5967 425.3 86.7051 425.486 86.7051C425.673 86.669 425.785 86.5245 425.785 86.3438L425.673 85.4768C425.636 85.2961 425.486 85.1877 425.3 85.1877Z" fill="#141D1E"/>
<path id="Vector_90" d="M423.659 82.1892C423.51 82.2976 423.472 82.5144 423.584 82.6589L424.144 83.3453C424.256 83.4898 424.479 83.5259 424.629 83.4175C424.778 83.3092 424.815 83.0924 424.703 82.9479L424.144 82.2615C424.032 82.117 423.808 82.0809 423.659 82.1892Z" fill="#141D1E"/>
<path id="Vector_91" d="M413.586 85.1156C413.773 85.1156 413.922 85.2601 413.922 85.4408L413.885 86.3078C413.885 86.4885 413.736 86.633 413.549 86.633C413.363 86.633 413.213 86.4885 413.213 86.3078L413.251 85.4408C413.251 85.224 413.4 85.0795 413.586 85.1156Z" fill="#141D1E"/>
<path id="Vector_92" d="M415.489 82.1532C415.638 82.2616 415.638 82.4783 415.526 82.6228L414.929 83.2731C414.817 83.4176 414.594 83.4176 414.444 83.3093C414.295 83.2009 414.295 82.9841 414.444 82.8396L415.041 82.1893C415.116 82.0448 415.34 82.0448 415.489 82.1532Z" fill="#141D1E"/>
<path id="Vector_93" d="M418.809 80.7443C418.846 80.9249 418.734 81.1056 418.548 81.1056L417.653 81.2501C417.466 81.2862 417.28 81.1778 417.28 80.9972C417.242 80.8166 417.354 80.6359 417.541 80.6359L418.436 80.4914C418.623 80.4192 418.772 80.5637 418.809 80.7443Z" fill="#141D1E"/>
<path id="Vector_94" d="M422.315 81.3584C422.241 81.539 422.054 81.6113 421.868 81.539L421.047 81.1777C420.861 81.1055 420.786 80.9249 420.861 80.7442C420.935 80.5636 421.122 80.4913 421.308 80.5636L422.129 80.9249C422.315 80.9971 422.39 81.1777 422.315 81.3584Z" fill="#141D1E"/>
</g>
<path id="Vector_95" d="M408.252 84.6459C408.737 81.7918 410.266 79.299 412.654 77.5649C415.078 75.7947 418.063 75.0722 421.084 75.5057C424.069 75.9392 426.755 77.4566 428.545 79.8048C429.627 81.2138 430.373 82.8756 430.634 84.6459H433.022C432.723 82.406 431.828 80.2745 430.41 78.4681C428.209 75.6141 425.039 73.7716 421.42 73.2658C417.802 72.76 414.183 73.6271 411.273 75.7586C408.289 77.9262 406.387 81.0693 405.864 84.6459H408.252Z" fill="#474747"/>
<g id="Group_4">
<path id="Vector_96" d="M398.814 96.0982C404.372 92.0881 405.491 84.5014 401.388 79.1185C397.247 73.7355 389.413 72.6517 383.855 76.6257C378.297 80.6358 377.177 88.2225 381.281 93.6055C385.422 98.9884 393.255 100.108 398.814 96.0982Z" fill="#141D1E"/>
<path id="Vector_97" d="M395.531 91.8714C398.665 89.5953 399.299 85.3323 396.986 82.2977C394.636 79.263 390.234 78.6488 387.1 80.8887C383.967 83.1647 383.333 87.4277 385.646 90.4624C387.996 93.4971 392.398 94.1474 395.531 91.8714Z" fill="#3C5151"/>
<path id="Vector_98" d="M395.232 91.474C398.142 89.3786 398.739 85.4046 396.575 82.5867C394.412 79.7688 390.308 79.1908 387.399 81.2861C384.489 83.3815 383.892 87.3555 386.056 90.1734C388.219 92.9913 392.323 93.5694 395.232 91.474Z" fill="#2A3C3D"/>
<path id="Vector_99" d="M394.524 90.5346C396.911 88.8366 397.396 85.5491 395.605 83.2731C393.852 80.9609 390.457 80.4913 388.107 82.2254C385.72 83.9234 385.235 87.2109 387.025 89.4869C388.779 91.7991 392.136 92.2687 394.524 90.5346Z" fill="#476363"/>
<path id="Vector_100" d="M394.151 90.0289C396.24 88.5115 396.688 85.6575 395.121 83.6344C393.554 81.6113 390.607 81.1777 388.518 82.6951C386.429 84.2124 385.981 87.0665 387.548 89.0896C389.077 91.1488 392.062 91.5462 394.151 90.0289Z" fill="#607C7B"/>
<path id="Vector_101" d="M393.293 88.945C394.747 87.8973 395.083 85.8742 393.964 84.4291C392.882 83.0201 390.793 82.695 389.301 83.7788C387.846 84.8265 387.51 86.8496 388.63 88.2947C389.749 89.7398 391.838 90.0288 393.293 88.945Z" fill="#2A3C3D"/>
<path id="Vector_102" d="M392.285 87.6445C392.994 87.1387 393.143 86.1633 392.621 85.4407C392.099 84.7543 391.092 84.6098 390.346 85.1156C389.637 85.6214 389.488 86.5968 390.01 87.3193C390.569 88.0058 391.577 88.1503 392.285 87.6445Z" fill="#141D1E"/>
<path id="Vector_103" d="M389.376 89.9205C389.562 89.776 389.6 89.5231 389.45 89.3786C389.301 89.198 389.04 89.1618 388.891 89.3063C388.704 89.4508 388.667 89.7037 388.816 89.8482C388.928 90.0289 389.189 90.065 389.376 89.9205Z" fill="#141D1E"/>
<path id="Vector_104" d="M391.838 90.5347C392.025 90.3902 392.062 90.1374 391.913 89.9928C391.764 89.8122 391.502 89.7761 391.353 89.9206C391.167 90.0651 391.129 90.318 391.279 90.4625C391.391 90.6431 391.652 90.6793 391.838 90.5347Z" fill="#141D1E"/>
<path id="Vector_105" d="M394.114 89.6675C394.3 89.523 394.337 89.2702 394.188 89.1256C394.039 88.945 393.778 88.9089 393.629 89.0534C393.442 89.1979 393.405 89.4508 393.554 89.5953C393.703 89.7759 393.927 89.812 394.114 89.6675Z" fill="#141D1E"/>
<path id="Vector_106" d="M395.456 87.4638C395.643 87.3193 395.68 87.0664 395.531 86.9219C395.382 86.7413 395.121 86.7052 394.971 86.8497C394.785 86.9942 394.748 87.2471 394.897 87.3916C395.009 87.5361 395.27 87.5722 395.456 87.4638Z" fill="#141D1E"/>
<path id="Vector_107" d="M395.233 85.0794C395.419 84.9349 395.456 84.682 395.307 84.5375C395.158 84.3569 394.897 84.3208 394.748 84.4653C394.561 84.6098 394.524 84.8627 394.673 85.0072C394.822 85.1878 395.046 85.224 395.233 85.0794Z" fill="#141D1E"/>
<path id="Vector_108" d="M393.666 83.3092C393.852 83.1647 393.89 82.9118 393.74 82.7673C393.591 82.5866 393.33 82.5505 393.181 82.695C392.994 82.8395 392.957 83.0924 393.106 83.2369C393.218 83.4176 393.479 83.4537 393.666 83.3092Z" fill="#141D1E"/>
<path id="Vector_109" d="M391.353 82.7673C391.539 82.6228 391.577 82.3699 391.427 82.2254C391.278 82.0448 391.017 82.0086 390.868 82.1531C390.681 82.2976 390.644 82.5505 390.793 82.695C390.905 82.8757 391.166 82.9118 391.353 82.7673Z" fill="#141D1E"/>
<path id="Vector_110" d="M389.115 83.4898C389.301 83.3453 389.338 83.0924 389.189 82.9479C389.04 82.7673 388.779 82.7312 388.63 82.8757C388.443 83.0202 388.406 83.2731 388.555 83.4176C388.667 83.5982 388.928 83.6343 389.115 83.4898Z" fill="#141D1E"/>
<path id="Vector_111" d="M387.735 85.4046C387.921 85.2601 387.958 85.0072 387.809 84.8627C387.66 84.6821 387.399 84.646 387.25 84.7905C387.063 84.935 387.026 85.1879 387.175 85.3324C387.287 85.513 387.548 85.5491 387.735 85.4046Z" fill="#141D1E"/>
<path id="Vector_112" d="M387.735 87.8974C387.921 87.7529 387.958 87.5 387.809 87.3555C387.66 87.1749 387.399 87.1388 387.25 87.2833C387.063 87.4278 387.026 87.6807 387.175 87.8252C387.287 87.9697 387.548 88.0058 387.735 87.8974Z" fill="#141D1E"/>
<path id="Vector_113" d="M387.436 90.7514C387.585 90.643 387.585 90.4262 387.473 90.2817L386.876 89.6315C386.765 89.4869 386.541 89.4869 386.391 89.5953C386.242 89.7037 386.242 89.9205 386.354 90.065L386.951 90.7153C387.063 90.8598 387.287 90.8598 387.436 90.7514Z" fill="#141D1E"/>
<path id="Vector_114" d="M390.942 92.2327C390.98 92.0521 390.868 91.8714 390.681 91.8353L389.823 91.6186C389.637 91.5824 389.45 91.6908 389.413 91.8353C389.376 92.016 389.488 92.1966 389.637 92.2327L390.495 92.4495C390.719 92.5217 390.905 92.4133 390.942 92.2327Z" fill="#141D1E"/>
<path id="Vector_115" d="M394.412 91.3295C394.337 91.185 394.113 91.1127 393.964 91.185L393.143 91.5824C392.994 91.6546 392.92 91.8714 392.994 92.0159C393.069 92.1604 393.293 92.2327 393.442 92.1604L394.262 91.763C394.412 91.6907 394.486 91.474 394.412 91.3295Z" fill="#141D1E"/>
<path id="Vector_116" d="M396.762 88.6199C396.613 88.5476 396.389 88.5837 396.315 88.7644L395.904 89.523C395.83 89.6675 395.904 89.8843 396.053 89.9566C396.203 90.0288 396.427 89.9566 396.501 89.812L396.912 89.0534C397.023 88.9089 396.949 88.7282 396.762 88.6199Z" fill="#141D1E"/>
<path id="Vector_117" d="M397.172 85.1877C396.986 85.2239 396.874 85.3684 396.874 85.549L396.986 86.4161C397.023 86.5967 397.172 86.7051 397.359 86.7051C397.546 86.669 397.657 86.5245 397.657 86.3438L397.546 85.4768C397.508 85.2961 397.359 85.1877 397.172 85.1877Z" fill="#141D1E"/>
<path id="Vector_118" d="M395.568 82.1892C395.419 82.2976 395.382 82.5144 395.494 82.6589L396.053 83.3453C396.165 83.4898 396.389 83.5259 396.538 83.4175C396.687 83.3092 396.725 83.0924 396.613 82.9479L396.053 82.2615C395.904 82.117 395.718 82.0809 395.568 82.1892Z" fill="#141D1E"/>
<path id="Vector_119" d="M385.459 85.1156C385.646 85.1156 385.795 85.2601 385.795 85.4408L385.757 86.3078C385.757 86.4885 385.608 86.633 385.422 86.633C385.235 86.633 385.086 86.4885 385.086 86.3078L385.123 85.4408C385.123 85.224 385.272 85.0795 385.459 85.1156Z" fill="#141D1E"/>
<path id="Vector_120" d="M387.361 82.1532C387.511 82.2616 387.511 82.4783 387.399 82.6228L386.802 83.2731C386.69 83.4176 386.466 83.4176 386.317 83.3093C386.168 83.2009 386.168 82.9841 386.317 82.8396L386.914 82.1893C387.026 82.0448 387.212 82.0448 387.361 82.1532Z" fill="#141D1E"/>
<path id="Vector_121" d="M390.682 80.7443C390.719 80.9249 390.607 81.1056 390.42 81.1056L389.525 81.2501C389.339 81.2862 389.152 81.1778 389.152 80.9972C389.115 80.8166 389.227 80.6359 389.413 80.6359L390.309 80.4914C390.495 80.4192 390.682 80.5637 390.682 80.7443Z" fill="#141D1E"/>
<path id="Vector_122" d="M394.225 81.3584C394.151 81.539 393.964 81.6113 393.778 81.539L392.957 81.1777C392.77 81.1055 392.696 80.9249 392.77 80.7442C392.845 80.5636 393.031 80.4913 393.218 80.5636L394.039 80.9249C394.225 80.9971 394.3 81.1777 394.225 81.3584Z" fill="#141D1E"/>
</g>
<path id="Vector_123" d="M380.124 84.6459C380.609 81.7918 382.139 79.299 384.526 77.5649C386.951 75.7947 389.935 75.0722 392.957 75.5057C395.941 75.9392 398.627 77.4566 400.418 79.8048C401.5 81.2138 402.246 82.8756 402.507 84.6459H404.894C404.596 82.406 403.701 80.2745 402.283 78.4681C400.082 75.6141 396.911 73.7716 393.293 73.2658C389.674 72.76 386.056 73.6271 383.146 75.7586C380.162 77.9262 378.259 81.0693 377.737 84.6459H380.124Z" fill="#474747"/>
</g>
<path id="Vector_124" d="M469.207 73.9884H447.682V80.0939H469.207V73.9884Z" fill="#16503F"/>
<path id="Vector_125" d="M398.627 73.9884H377.103V80.0939H398.627V73.9884Z" fill="#16503F"/>
</g>
</g>
<g id="car">
<g id="Group 3_4">
<path id="Vector_126" d="M133.959 80.8887H89.4556V89.1256H133.959V80.8887Z" fill="#63330B"/>
<path id="Vector_127" d="M121.351 71.9292H104.526V76.1922H121.351V71.9292Z" fill="#141D1E"/>
<path id="Vector_128" d="M113.33 69.6531H112.36H97.7368C97.9606 70.5201 98.8559 72.6878 102.736 72.6878H112.397H113.367H123.029C126.909 72.6878 127.804 70.5201 128.028 69.6531H113.33Z" fill="#63330B"/>
<path id="Vector_129" d="M142.502 81.6835H70.6538V73.9161H138.025L142.502 77.1314V81.6835Z" fill="#BF6717"/>
<path id="Vector_130" d="M7.1626 85.9827L24.5836 88.6922L41.6689 85.9827V68.1359H7.23721L7.1626 85.9827Z" fill="#63330B"/>
<path id="Vector_131" d="M58.3439 60.1156H1.82812V64.8483H58.3439V60.1156Z" fill="#BF6717"/>
<path id="Vector_132" d="M58.866 61.0909H1.86521C1.86521 61.0909 0 61.0909 0 59.1039V47.9406C0 47.9406 -2.38419e-07 47.182 0.671475 46.7123C0.671475 46.7123 0.671475 29.8771 1.45486 22.3265H0.708779C0.708779 22.3265 0.335737 20.7008 2.16364 19.6892C2.16364 19.6892 3.84233 11.8135 14.5486 11.8135C25.2549 11.8135 46.9659 11.8135 46.9659 11.8135C46.9659 11.8135 49.6891 8.41753 58.8287 8.48978V61.0909H58.866Z" fill="#F98D21"/>
<path id="Vector_133" d="M58.7914 63.5115V74.9999H98.2591V88.2586H38.6471V79.1907L32.7904 71.5317H15.1455L10.184 79.4074V88.4031H4.10345C4.10345 88.4031 0.223822 87.8973 0.223822 82.5866C0.223822 77.2759 0.223822 65.932 0.223822 65.932C0.223822 65.932 -3.36766e-06 63.5115 2.27555 63.5115H58.7914Z" fill="#F98D21"/>
<path id="Vector_134" d="M6.30461 44.4364C6.30461 44.4364 6.30461 25.289 6.30461 23.88C6.30461 22.471 5.07357 22.3265 5.07357 22.3265H1.49237C0.708985 29.8771 0.708984 46.7124 0.708984 46.7124C5.48392 46.5679 6.30461 44.4364 6.30461 44.4364Z" fill="#FFBC80"/>
</g>
<g id="Group_5">
<path id="Vector_135" d="M36.1476 58.3453C35.8119 58.3453 35.5508 58.0925 35.5508 57.7673V27.854C35.5508 27.5289 35.8119 27.276 36.1476 27.276C36.4834 27.276 36.7445 27.5289 36.7445 27.854V57.7673C36.7445 58.0925 36.4834 58.3453 36.1476 58.3453Z" fill="#DD7619"/>
</g>
<g id="Group_6">
<path id="Vector_136" d="M43.1237 58.3453C42.788 58.3453 42.5269 58.0925 42.5269 57.7673V27.854C42.5269 27.5289 42.788 27.276 43.1237 27.276C43.4595 27.276 43.7206 27.5289 43.7206 27.854V57.7673C43.7206 58.0925 43.4595 58.3453 43.1237 58.3453Z" fill="#DD7619"/>
</g>
<g id="Group_7">
<path id="Vector_137" d="M10.2587 79.0824H0.26123V79.6604H10.2587V79.0824Z" fill="#DD7619"/>
</g>
<g id="Group 3_5">
<path id="Vector_138" d="M50.0623 72.4349H40.8481V78.2514H50.0623V72.4349Z" fill="#BF6717"/>
<path id="Vector_139" d="M50.0623 80.7441H40.8481V86.5606H50.0623V80.7441Z" fill="#BF6717"/>
<path id="Vector_140" d="M108.891 84.7904H51.5171V88.2586H108.891V84.7904Z" fill="#DD7619"/>
</g>
<g id="Group_8">
<path id="Vector_141" d="M15.2199 64.1619H14.623V71.4234H15.2199V64.1619Z" fill="#DD7619"/>
</g>
<g id="Group_9">
<path id="Vector_142" d="M33.1631 64.1619H15.6675V65.4263H33.1631V64.1619Z" fill="#DD7619"/>
</g>
<g id="Group_10">
<path id="Vector_143" d="M34.2077 64.1619H33.6108V71.4234H34.2077V64.1619Z" fill="#DD7619"/>
</g>
<path id="Vector_144" d="M46.7047 11.8496V19.4724H3.28271V20.0505H46.7047V56.2137H47.3016V11.8496H46.7047Z" fill="#DD7619"/>
<g id="wheel">
<path id="Vector_145" d="M31.783 96.0982C37.3413 92.0881 38.4605 84.5014 34.357 79.1185C30.2162 73.7355 22.3824 72.6517 16.8241 76.6257C11.2657 80.6358 10.1466 88.2225 14.2501 93.6055C18.3908 98.9884 26.2247 100.108 31.783 96.0982Z" fill="#141D1E"/>
<path id="Vector_146" d="M28.5375 91.8714C31.6711 89.5953 32.3052 85.3323 29.9924 82.2977C27.6422 79.263 23.2403 78.6488 20.1068 80.8887C16.9732 83.1647 16.3391 87.4277 18.6519 90.4624C20.9648 93.4971 25.404 94.1474 28.5375 91.8714Z" fill="#3C5151"/>
<path id="Vector_147" d="M28.2016 91.474C31.1113 89.3786 31.7082 85.4046 29.5446 82.5867C27.3809 79.7688 23.2775 79.1908 20.3677 81.2861C17.458 83.3815 16.8612 87.3555 19.0248 90.1734C21.2257 92.9913 25.3292 93.5694 28.2016 91.474Z" fill="#2A3C3D"/>
<path id="Vector_148" d="M27.4933 90.5346C29.8808 88.8366 30.3657 85.5491 28.5751 83.2731C26.8219 80.9609 23.4272 80.4913 21.077 82.2254C18.6895 83.9234 18.2046 87.2109 19.9952 89.4869C21.7858 91.7991 25.1432 92.2687 27.4933 90.5346Z" fill="#476363"/>
<path id="Vector_149" d="M27.1201 90.0289C29.2091 88.5115 29.6568 85.6575 28.09 83.6344C26.5232 81.6113 23.5762 81.1777 21.4872 82.6951C19.3981 84.2124 18.9505 87.0665 20.5172 89.0896C22.084 91.1488 25.0311 91.5462 27.1201 90.0289Z" fill="#607C7B"/>
<path id="Vector_150" d="M26.2994 88.945C27.7542 87.8973 28.09 85.8742 26.9709 84.4291C25.889 83.0201 23.8 82.695 22.3078 83.7788C20.853 84.8265 20.5172 86.8496 21.6364 88.2947C22.7182 89.7398 24.8072 90.0288 26.2994 88.945Z" fill="#2A3C3D"/>
<path id="Vector_151" d="M25.2546 87.6445C25.9634 87.1387 26.1126 86.1633 25.5903 85.4407C25.0681 84.7543 24.0609 84.6098 23.3148 85.1156C22.606 85.6214 22.4568 86.5968 22.9791 87.3193C23.5386 88.0058 24.5458 88.1503 25.2546 87.6445Z" fill="#141D1E"/>
<path id="Vector_152" d="M22.3826 89.9205C22.5691 89.776 22.6064 89.5231 22.4572 89.3786C22.308 89.198 22.0469 89.1618 21.8976 89.3063C21.7111 89.4508 21.6738 89.7037 21.823 89.8482C21.9349 90.0289 22.1961 90.065 22.3826 89.9205Z" fill="#141D1E"/>
<path id="Vector_153" d="M24.8074 90.5347C24.9939 90.3902 25.0312 90.1374 24.882 89.9928C24.7328 89.8122 24.4717 89.7761 24.3224 89.9206C24.1359 90.0651 24.0986 90.318 24.2478 90.4625C24.3971 90.6431 24.6582 90.6793 24.8074 90.5347Z" fill="#141D1E"/>
<path id="Vector_154" d="M27.1199 89.6675C27.3064 89.523 27.3437 89.2702 27.1945 89.1256C27.0453 88.945 26.7842 88.9089 26.6349 89.0534C26.4484 89.1979 26.4111 89.4508 26.5603 89.5953C26.6722 89.7759 26.9334 89.812 27.1199 89.6675Z" fill="#141D1E"/>
<path id="Vector_155" d="M28.4256 87.4638C28.6121 87.3193 28.6494 87.0664 28.5002 86.9219C28.351 86.7413 28.0898 86.7052 27.9406 86.8497C27.7541 86.9942 27.7168 87.2471 27.866 87.3916C27.9779 87.5361 28.239 87.5722 28.4256 87.4638Z" fill="#141D1E"/>
<path id="Vector_156" d="M28.239 85.0794C28.4256 84.9349 28.4629 84.682 28.3136 84.5375C28.1644 84.3569 27.9033 84.3208 27.7541 84.4653C27.5676 84.6098 27.5303 84.8627 27.6795 85.0072C27.7914 85.1878 28.0525 85.224 28.239 85.0794Z" fill="#141D1E"/>
<path id="Vector_157" d="M26.635 83.3092C26.8216 83.1647 26.8589 82.9118 26.7096 82.7673C26.5604 82.5866 26.2993 82.5505 26.1501 82.695C25.9636 82.8395 25.9263 83.0924 26.0755 83.2369C26.1874 83.4176 26.4485 83.4537 26.635 83.3092Z" fill="#141D1E"/>
<path id="Vector_158" d="M24.322 82.7673C24.5086 82.6228 24.5459 82.3699 24.3967 82.2254C24.2474 82.0448 23.9863 82.0086 23.8371 82.1531C23.6506 82.2976 23.6133 82.5505 23.7625 82.695C23.8744 82.8757 24.1355 82.9118 24.322 82.7673Z" fill="#141D1E"/>
<path id="Vector_159" d="M22.0838 83.4898C22.2703 83.3453 22.3076 83.0924 22.1584 82.9479C22.0092 82.7673 21.748 82.7312 21.5988 82.8757C21.4123 83.0202 21.375 83.2731 21.5242 83.4176C21.6361 83.5982 21.8972 83.6343 22.0838 83.4898Z" fill="#141D1E"/>
<path id="Vector_160" d="M20.7039 85.4046C20.8904 85.2601 20.9277 85.0072 20.7785 84.8627C20.6293 84.6821 20.3681 84.646 20.2189 84.7905C20.0324 84.935 19.9951 85.1879 20.1443 85.3324C20.2935 85.513 20.5174 85.5491 20.7039 85.4046Z" fill="#141D1E"/>
<path id="Vector_161" d="M20.741 87.8974C20.9275 87.7529 20.9648 87.5 20.8156 87.3555C20.6664 87.1749 20.4053 87.1388 20.256 87.2833C20.0695 87.4278 20.0322 87.6807 20.1814 87.8252C20.2933 87.9697 20.5545 88.0058 20.741 87.8974Z" fill="#141D1E"/>
<path id="Vector_162" d="M20.4052 90.7514C20.5545 90.643 20.5545 90.4262 20.4425 90.2817L19.8457 89.6315C19.7338 89.4869 19.5099 89.4869 19.3607 89.5953C19.2115 89.7037 19.2115 89.9205 19.3234 90.065L19.9203 90.7153C20.0695 90.8598 20.256 90.8598 20.4052 90.7514Z" fill="#141D1E"/>
<path id="Vector_163" d="M23.949 92.2327C23.9863 92.0521 23.8744 91.8714 23.7252 91.8353L22.8672 91.6186C22.6807 91.5824 22.4942 91.6908 22.4569 91.8353C22.4196 92.016 22.5315 92.1966 22.718 92.2327L23.576 92.4495C23.7252 92.5217 23.8744 92.4133 23.949 92.2327Z" fill="#141D1E"/>
<path id="Vector_164" d="M27.3809 91.3295C27.3063 91.185 27.0825 91.1127 26.9333 91.185L26.1126 91.5824C25.9634 91.6546 25.8887 91.8714 25.9634 92.0159C26.038 92.1604 26.2618 92.2327 26.411 92.1604L27.2317 91.763C27.4182 91.6907 27.4928 91.474 27.3809 91.3295Z" fill="#141D1E"/>
<path id="Vector_165" d="M29.7686 88.6199C29.6194 88.5476 29.3956 88.5837 29.321 88.7644L28.9106 89.523C28.836 89.6675 28.9106 89.8843 29.0598 89.9566C29.2091 90.0288 29.4329 89.9566 29.5075 89.812L29.9178 89.0534C29.9924 88.9089 29.9178 88.7282 29.7686 88.6199Z" fill="#141D1E"/>
<path id="Vector_166" d="M30.1417 85.1877C29.9552 85.2239 29.8433 85.3684 29.8433 85.549L29.9552 86.4161C29.9925 86.5967 30.1417 86.7051 30.3282 86.7051C30.5147 86.669 30.6266 86.5245 30.6266 86.3438L30.5147 85.4768C30.5147 85.2961 30.3282 85.1877 30.1417 85.1877Z" fill="#141D1E"/>
<path id="Vector_167" d="M28.5376 82.1892C28.3884 82.2976 28.3511 82.5144 28.463 82.6589L29.0226 83.3453C29.1345 83.4898 29.3583 83.5259 29.5075 83.4175C29.6567 83.3092 29.6941 83.0924 29.5821 82.9479L29.0226 82.2615C28.9107 82.117 28.6868 82.0809 28.5376 82.1892Z" fill="#141D1E"/>
<path id="Vector_168" d="M18.4653 85.1156C18.6518 85.1156 18.8011 85.2601 18.8011 85.4408L18.7638 86.3078C18.7638 86.4885 18.6145 86.633 18.428 86.633C18.2415 86.633 18.0923 86.4885 18.0923 86.3078L18.1296 85.4408C18.1296 85.224 18.2788 85.0795 18.4653 85.1156Z" fill="#141D1E"/>
<path id="Vector_169" d="M20.3307 82.1532C20.48 82.2616 20.48 82.4783 20.368 82.6228L19.7712 83.2731C19.6593 83.4176 19.4354 83.4176 19.2862 83.3093C19.137 83.2009 19.137 82.9841 19.2862 82.8396L19.8831 82.1893C19.995 82.0448 20.2188 82.0448 20.3307 82.1532Z" fill="#141D1E"/>
<path id="Vector_170" d="M23.688 80.7443C23.7253 80.9249 23.6134 81.1056 23.4269 81.1056L22.5316 81.2501C22.345 81.2862 22.1585 81.1778 22.1585 80.9972C22.1212 80.8166 22.2331 80.6359 22.4196 80.6359L23.3149 80.4914C23.4642 80.4192 23.6507 80.5637 23.688 80.7443Z" fill="#141D1E"/>
<path id="Vector_171" d="M27.1944 81.3584C27.1198 81.539 26.9333 81.6113 26.7467 81.539L25.926 81.1777C25.7395 81.1055 25.6649 80.9249 25.7395 80.7442C25.8141 80.5636 26.0007 80.4913 26.1872 80.5636L27.0079 80.9249C27.1944 80.9971 27.269 81.1777 27.1944 81.3584Z" fill="#141D1E"/>
</g>
<g id="wheel_2">
<path id="Vector_172" d="M132.504 96.0982C138.063 92.0881 139.182 84.5014 135.078 79.1185C130.937 73.7355 123.104 72.6517 117.545 76.6257C111.987 80.6358 110.868 88.2225 114.971 93.6055C119.112 98.9884 126.946 100.108 132.504 96.0982Z" fill="#141D1E"/>
<path id="Vector_173" d="M129.222 91.8714C132.355 89.5953 132.989 85.3323 130.676 82.2977C128.326 79.263 123.924 78.6488 120.791 80.8887C117.657 83.1647 117.023 87.4277 119.336 90.4624C121.686 93.4971 126.088 94.1474 129.222 91.8714Z" fill="#3C5151"/>
<path id="Vector_174" d="M128.923 91.474C131.833 89.3786 132.429 85.4046 130.266 82.5867C128.102 79.7688 123.999 79.1908 121.089 81.2861C118.179 83.3815 117.582 87.3555 119.746 90.1734C121.91 92.9913 126.013 93.5694 128.923 91.474Z" fill="#2A3C3D"/>
<path id="Vector_175" d="M128.214 90.5346C130.601 88.8366 131.086 85.5491 129.296 83.2731C127.543 80.9609 124.148 80.4913 121.798 82.2254C119.41 83.9234 118.925 87.2109 120.716 89.4869C122.469 91.7991 125.827 92.2687 128.214 90.5346Z" fill="#476363"/>
<path id="Vector_176" d="M127.841 90.0289C129.93 88.5115 130.378 85.6575 128.811 83.6344C127.244 81.6113 124.297 81.1777 122.208 82.6951C120.119 84.2124 119.672 87.0665 121.238 89.0896C122.768 91.1488 125.752 91.5462 127.841 90.0289Z" fill="#607C7B"/>
<path id="Vector_177" d="M126.983 88.945C128.438 87.8973 128.774 85.8742 127.654 84.4291C126.573 83.0201 124.484 82.695 122.991 83.7788C121.537 84.8265 121.201 86.8496 122.32 88.2947C123.439 89.7398 125.528 90.0288 126.983 88.945Z" fill="#2A3C3D"/>
<path id="Vector_178" d="M125.976 87.6445C126.685 87.1387 126.834 86.1633 126.312 85.4407C125.789 84.7543 124.782 84.6098 124.036 85.1156C123.327 85.6214 123.178 86.5968 123.7 87.3193C124.26 88.0058 125.267 88.1503 125.976 87.6445Z" fill="#141D1E"/>
<path id="Vector_179" d="M123.066 89.9205C123.253 89.776 123.29 89.5231 123.141 89.3786C122.992 89.198 122.73 89.1618 122.581 89.3063C122.395 89.4508 122.357 89.7037 122.507 89.8482C122.619 90.0289 122.88 90.065 123.066 89.9205Z" fill="#141D1E"/>
<path id="Vector_180" d="M125.529 90.5347C125.715 90.3902 125.752 90.1374 125.603 89.9928C125.454 89.8122 125.193 89.7761 125.044 89.9206C124.857 90.0651 124.82 90.318 124.969 90.4625C125.081 90.6431 125.342 90.6793 125.529 90.5347Z" fill="#141D1E"/>
<path id="Vector_181" d="M127.804 89.6675C127.991 89.523 128.028 89.2702 127.879 89.1256C127.729 88.945 127.468 88.9089 127.319 89.0534C127.133 89.1979 127.095 89.4508 127.244 89.5953C127.394 89.7759 127.617 89.812 127.804 89.6675Z" fill="#141D1E"/>
<path id="Vector_182" d="M129.147 87.4638C129.333 87.3193 129.371 87.0664 129.221 86.9219C129.072 86.7413 128.811 86.7052 128.662 86.8497C128.475 86.9942 128.438 87.2471 128.587 87.3916C128.699 87.5361 128.96 87.5722 129.147 87.4638Z" fill="#141D1E"/>
<path id="Vector_183" d="M128.923 85.0794C129.11 84.9349 129.147 84.682 128.998 84.5375C128.849 84.3569 128.587 84.3208 128.438 84.4653C128.252 84.6098 128.214 84.8627 128.364 85.0072C128.513 85.1878 128.737 85.224 128.923 85.0794Z" fill="#141D1E"/>
<path id="Vector_184" d="M127.356 83.3092C127.543 83.1647 127.58 82.9118 127.431 82.7673C127.282 82.5866 127.02 82.5505 126.871 82.695C126.685 82.8395 126.647 83.0924 126.797 83.2369C126.909 83.4176 127.17 83.4537 127.356 83.3092Z" fill="#141D1E"/>
<path id="Vector_185" d="M125.043 82.7673C125.23 82.6228 125.267 82.3699 125.118 82.2254C124.969 82.0448 124.708 82.0086 124.558 82.1531C124.372 82.2976 124.334 82.5505 124.484 82.695C124.596 82.8757 124.857 82.9118 125.043 82.7673Z" fill="#141D1E"/>
<path id="Vector_186" d="M122.805 83.4898C122.991 83.3453 123.029 83.0924 122.88 82.9479C122.73 82.7673 122.469 82.7312 122.32 82.8757C122.133 83.0202 122.096 83.2731 122.245 83.4176C122.357 83.5982 122.618 83.6343 122.805 83.4898Z" fill="#141D1E"/>
<path id="Vector_187" d="M121.425 85.4046C121.611 85.2601 121.648 85.0072 121.499 84.8627C121.35 84.6821 121.089 84.646 120.94 84.7905C120.753 84.935 120.716 85.1879 120.865 85.3324C120.977 85.513 121.238 85.5491 121.425 85.4046Z" fill="#141D1E"/>
<path id="Vector_188" d="M121.425 87.8974C121.611 87.7529 121.648 87.5 121.499 87.3555C121.35 87.1749 121.089 87.1388 120.94 87.2833C120.753 87.4278 120.716 87.6807 120.865 87.8252C120.977 87.9697 121.238 88.0058 121.425 87.8974Z" fill="#141D1E"/>
<path id="Vector_189" d="M121.126 90.7514C121.276 90.643 121.276 90.4262 121.164 90.2817L120.567 89.6315C120.455 89.4869 120.231 89.4869 120.082 89.5953C119.933 89.7037 119.933 89.9205 120.045 90.065L120.641 90.7153C120.753 90.8598 120.977 90.8598 121.126 90.7514Z" fill="#141D1E"/>
<path id="Vector_190" d="M124.633 92.2327C124.67 92.0521 124.559 91.8714 124.409 91.8353L123.551 91.6186C123.365 91.5824 123.178 91.6908 123.141 91.8353C123.104 92.016 123.216 92.1966 123.365 92.2327L124.223 92.4495C124.409 92.5217 124.596 92.4133 124.633 92.2327Z" fill="#141D1E"/>
<path id="Vector_191" d="M128.102 91.3295C128.027 91.185 127.804 91.1127 127.654 91.185L126.834 91.5824C126.685 91.6546 126.61 91.8714 126.685 92.0159C126.759 92.1604 126.983 92.2327 127.132 92.1604L127.953 91.763C128.102 91.6907 128.177 91.474 128.102 91.3295Z" fill="#141D1E"/>
<path id="Vector_192" d="M130.453 88.6199C130.303 88.5476 130.08 88.5837 130.005 88.7644L129.595 89.523C129.52 89.6675 129.595 89.8843 129.744 89.9566C129.893 90.0288 130.117 89.9566 130.192 89.812L130.602 89.0534C130.714 88.9089 130.639 88.7282 130.453 88.6199Z" fill="#141D1E"/>
<path id="Vector_193" d="M130.863 85.1877C130.676 85.2239 130.564 85.3684 130.564 85.549L130.676 86.4161C130.714 86.5967 130.863 86.7051 131.049 86.7051C131.236 86.669 131.348 86.5245 131.348 86.3438L131.236 85.4768C131.199 85.2961 131.049 85.1877 130.863 85.1877Z" fill="#141D1E"/>
<path id="Vector_194" d="M129.259 82.1892C129.11 82.2976 129.072 82.5144 129.184 82.6589L129.744 83.3453C129.856 83.4898 130.08 83.5259 130.229 83.4175C130.378 83.3092 130.415 83.0924 130.303 82.9479L129.744 82.2615C129.595 82.117 129.408 82.0809 129.259 82.1892Z" fill="#141D1E"/>
<path id="Vector_195" d="M119.149 85.1156C119.336 85.1156 119.485 85.2601 119.485 85.4408L119.448 86.3078C119.448 86.4885 119.299 86.633 119.112 86.633C118.926 86.633 118.776 86.4885 118.776 86.3078L118.814 85.4408C118.814 85.224 118.963 85.0795 119.149 85.1156Z" fill="#141D1E"/>
<path id="Vector_196" d="M121.052 82.1532C121.201 82.2616 121.201 82.4783 121.089 82.6228L120.492 83.2731C120.38 83.4176 120.157 83.4176 120.007 83.3093C119.858 83.2009 119.858 82.9841 120.007 82.8396L120.604 82.1893C120.716 82.0448 120.903 82.0448 121.052 82.1532Z" fill="#141D1E"/>
<path id="Vector_197" d="M124.372 80.7443C124.409 80.9249 124.297 81.1056 124.111 81.1056L123.216 81.2501C123.029 81.2862 122.843 81.1778 122.843 80.9972C122.805 80.8166 122.917 80.6359 123.104 80.6359L123.999 80.4914C124.186 80.4192 124.372 80.5637 124.372 80.7443Z" fill="#141D1E"/>
<path id="Vector_198" d="M127.916 81.3584C127.841 81.539 127.654 81.6113 127.468 81.539L126.647 81.1777C126.461 81.1055 126.386 80.9249 126.461 80.7442C126.535 80.5636 126.722 80.4913 126.908 80.5636L127.729 80.9249C127.916 80.9971 127.99 81.1777 127.916 81.3584Z" fill="#141D1E"/>
</g>
<path id="Vector_199" d="M113.815 84.6459C114.3 81.7918 115.829 79.299 118.217 77.5649C120.641 75.7947 123.626 75.0722 126.647 75.5057C129.632 75.9392 132.318 77.4566 134.108 79.8048C135.19 81.2138 135.936 82.8756 136.197 84.6459H138.585C138.286 82.406 137.391 80.2745 135.973 78.4681C133.772 75.6141 130.602 73.7716 126.983 73.2658C123.365 72.76 119.746 73.6271 116.836 75.7586C113.852 77.9262 111.95 81.0693 111.427 84.6459H113.815Z" fill="#474747"/>
<g id="wheel_3">
<path id="Vector_200" d="M104.526 96.0982C110.085 92.0881 111.204 84.5014 107.1 79.1185C102.959 73.7355 95.1255 72.6517 89.5672 76.6257C84.0089 80.6358 82.8898 88.2225 86.9932 93.6055C91.134 98.9884 98.9679 100.108 104.526 96.0982Z" fill="#141D1E"/>
<path id="Vector_201" d="M101.281 91.8714C104.414 89.5953 105.048 85.3323 102.736 82.2977C100.385 79.263 95.9835 78.6488 92.8499 80.8887C89.7164 83.1647 89.0822 87.4277 91.3951 90.4624C93.7079 93.4971 98.1471 94.1474 101.281 91.8714Z" fill="#3C5151"/>
<path id="Vector_202" d="M100.945 91.474C103.855 89.3786 104.451 85.4046 102.288 82.5867C100.124 79.7688 96.0206 79.1908 93.1109 81.2861C90.2012 83.3815 89.6043 87.3555 91.768 90.1734C93.9689 92.9913 98.0724 93.5694 100.945 91.474Z" fill="#2A3C3D"/>
<path id="Vector_203" d="M100.236 90.5346C102.624 88.8366 103.109 85.5491 101.318 83.2731C99.565 80.9609 96.1703 80.4913 93.8202 82.2254C91.4327 83.9234 90.9478 87.2109 92.7384 89.4869C94.529 91.7991 97.8863 92.2687 100.236 90.5346Z" fill="#476363"/>
<path id="Vector_204" d="M99.8633 90.0289C101.952 88.5115 102.4 85.6575 100.833 83.6344C99.2664 81.6113 96.3194 81.1777 94.2303 82.6951C92.1413 84.2124 91.6936 87.0665 93.2604 89.0896C94.8272 91.1488 97.7742 91.5462 99.8633 90.0289Z" fill="#607C7B"/>
<path id="Vector_205" d="M99.0426 88.945C100.497 87.8973 100.833 85.8742 99.714 84.4291C98.6322 83.0201 96.5432 82.695 95.051 83.7788C93.5961 84.8265 93.2604 86.8496 94.3795 88.2947C95.4614 89.7398 97.5504 90.0288 99.0426 88.945Z" fill="#2A3C3D"/>
<path id="Vector_206" d="M97.9978 87.6445C98.7065 87.1387 98.8558 86.1633 98.3335 85.4407C97.8112 84.7543 96.804 84.6098 96.058 85.1156C95.3492 85.6214 95.2 86.5968 95.7222 87.3193C96.2818 88.0058 97.289 88.1503 97.9978 87.6445Z" fill="#141D1E"/>
<path id="Vector_207" d="M95.1258 89.9205C95.3123 89.776 95.3496 89.5231 95.2004 89.3786C95.0512 89.198 94.79 89.1618 94.6408 89.3063C94.4543 89.4508 94.417 89.7037 94.5662 89.8482C94.6781 90.0289 94.9392 90.065 95.1258 89.9205Z" fill="#141D1E"/>
<path id="Vector_208" d="M97.5877 90.5347C97.7742 90.3902 97.8115 90.1374 97.6623 89.9928C97.5131 89.8122 97.2519 89.7761 97.1027 89.9206C96.9162 90.0651 96.8789 90.318 97.0281 90.4625C97.14 90.6431 97.4012 90.6793 97.5877 90.5347Z" fill="#141D1E"/>
<path id="Vector_209" d="M99.8631 89.6675C100.05 89.523 100.087 89.2702 99.9377 89.1256C99.7885 88.945 99.5273 88.9089 99.3781 89.0534C99.1916 89.1979 99.1543 89.4508 99.3035 89.5953C99.4154 89.7759 99.6766 89.812 99.8631 89.6675Z" fill="#141D1E"/>
<path id="Vector_210" d="M101.169 87.4638C101.355 87.3193 101.393 87.0664 101.243 86.9219C101.094 86.7413 100.833 86.7052 100.684 86.8497C100.497 86.9942 100.46 87.2471 100.609 87.3916C100.758 87.5361 100.982 87.5722 101.169 87.4638Z" fill="#141D1E"/>
<path id="Vector_211" d="M100.982 85.0794C101.169 84.9349 101.206 84.682 101.057 84.5375C100.908 84.3569 100.646 84.3208 100.497 84.4653C100.311 84.6098 100.273 84.8627 100.423 85.0072C100.535 85.1878 100.796 85.224 100.982 85.0794Z" fill="#141D1E"/>
<path id="Vector_212" d="M99.3782 83.3092C99.5647 83.1647 99.602 82.9118 99.4528 82.7673C99.3036 82.5866 99.0425 82.5505 98.8932 82.695C98.7067 82.8395 98.6694 83.0924 98.8186 83.2369C98.9305 83.4176 99.1917 83.4537 99.3782 83.3092Z" fill="#141D1E"/>
<path id="Vector_213" d="M97.0652 82.7673C97.2517 82.6228 97.289 82.3699 97.1398 82.2254C96.9906 82.0448 96.7295 82.0086 96.5803 82.1531C96.3937 82.2976 96.3564 82.5505 96.5056 82.695C96.6176 82.8757 96.8787 82.9118 97.0652 82.7673Z" fill="#141D1E"/>
<path id="Vector_214" d="M94.8269 83.4898C95.0134 83.3453 95.0507 83.0924 94.9015 82.9479C94.7523 82.7673 94.4912 82.7312 94.342 82.8757C94.1554 83.0202 94.1182 83.2731 94.2674 83.4176C94.3793 83.5982 94.6404 83.6343 94.8269 83.4898Z" fill="#141D1E"/>
<path id="Vector_215" d="M93.447 85.4046C93.6336 85.2601 93.6709 85.0072 93.5217 84.8627C93.3724 84.6821 93.1113 84.646 92.9621 84.7905C92.7756 84.935 92.7383 85.1879 92.8875 85.3324C93.0367 85.513 93.2978 85.5491 93.447 85.4046Z" fill="#141D1E"/>
<path id="Vector_216" d="M93.4842 87.8974C93.6707 87.7529 93.708 87.5 93.5588 87.3555C93.4095 87.1749 93.1484 87.1388 92.9992 87.2833C92.8127 87.4278 92.7754 87.6807 92.9246 87.8252C93.0365 87.9697 93.2976 88.0058 93.4842 87.8974Z" fill="#141D1E"/>
<path id="Vector_217" d="M93.1484 90.7514C93.2976 90.643 93.2976 90.4262 93.1857 90.2817L92.5888 89.6315C92.4769 89.4869 92.2531 89.4869 92.1039 89.5953C91.9547 89.7037 91.9547 89.9205 92.0666 90.065L92.6634 90.7153C92.8127 90.8598 92.9992 90.8598 93.1484 90.7514Z" fill="#141D1E"/>
<path id="Vector_218" d="M96.6923 92.2327C96.7296 92.0521 96.6177 91.8714 96.4684 91.8353L95.6104 91.6186C95.4239 91.5824 95.2374 91.6908 95.2001 91.8353C95.1628 92.016 95.2747 92.1966 95.4239 92.2327L96.2819 92.4495C96.4684 92.5217 96.655 92.4133 96.6923 92.2327Z" fill="#141D1E"/>
<path id="Vector_219" d="M100.124 91.3295C100.049 91.185 99.8256 91.1127 99.6764 91.185L98.8557 91.5824C98.7065 91.6546 98.6319 91.8714 98.7065 92.0159C98.7811 92.1604 99.0049 92.2327 99.1542 92.1604L99.9749 91.763C100.161 91.6907 100.236 91.474 100.124 91.3295Z" fill="#141D1E"/>
<path id="Vector_220" d="M102.512 88.6199C102.363 88.5476 102.139 88.5837 102.064 88.7644L101.654 89.523C101.579 89.6675 101.654 89.8843 101.803 89.9566C101.952 90.0288 102.176 89.9566 102.251 89.812L102.661 89.0534C102.736 88.9089 102.661 88.7282 102.512 88.6199Z" fill="#141D1E"/>
<path id="Vector_221" d="M102.922 85.1877C102.735 85.2239 102.624 85.3684 102.624 85.549L102.735 86.4161C102.773 86.5967 102.922 86.7051 103.108 86.7051C103.295 86.669 103.407 86.5245 103.407 86.3438L103.295 85.4768C103.258 85.2961 103.071 85.1877 102.922 85.1877Z" fill="#141D1E"/>
<path id="Vector_222" d="M101.281 82.1892C101.132 82.2976 101.094 82.5144 101.206 82.6589L101.766 83.3453C101.878 83.4898 102.101 83.5259 102.251 83.4175C102.4 83.3092 102.437 83.0924 102.325 82.9479L101.766 82.2615C101.654 82.117 101.43 82.0809 101.281 82.1892Z" fill="#141D1E"/>
<path id="Vector_223" d="M91.2085 85.1156C91.395 85.1156 91.5442 85.2601 91.5442 85.4408L91.5069 86.3078C91.5069 86.4885 91.3577 86.633 91.1712 86.633C90.9847 86.633 90.8354 86.4885 90.8354 86.3078L90.8728 85.4408C90.8728 85.224 91.022 85.0795 91.2085 85.1156Z" fill="#141D1E"/>
<path id="Vector_224" d="M93.0739 82.1532C93.2231 82.2616 93.2231 82.4783 93.1112 82.6228L92.5143 83.2731C92.4024 83.4176 92.1786 83.4176 92.0294 83.3093C91.8802 83.2009 91.8802 82.9841 92.0294 82.8396L92.6262 82.1893C92.7382 82.0448 92.962 82.0448 93.0739 82.1532Z" fill="#141D1E"/>
<path id="Vector_225" d="M96.4312 80.7443C96.4685 80.9249 96.3565 81.1056 96.17 81.1056L95.2747 81.2501C95.0882 81.2862 94.9017 81.1778 94.9017 80.9972C94.8644 80.8166 94.9763 80.6359 95.1628 80.6359L96.0581 80.4914C96.2073 80.4192 96.3939 80.5637 96.4312 80.7443Z" fill="#141D1E"/>
<path id="Vector_226" d="M99.9376 81.3584C99.8629 81.539 99.6764 81.6113 99.4899 81.539L98.6692 81.1777C98.4827 81.1055 98.4081 80.9249 98.4827 80.7442C98.5573 80.5636 98.7438 80.4913 98.9303 80.5636L99.751 80.9249C99.9376 80.9971 100.012 81.1777 99.9376 81.3584Z" fill="#141D1E"/>
</g>
<path id="Vector_227" d="M85.8367 84.6459C86.3216 81.7918 87.8511 79.299 90.2386 77.5649C92.6633 75.7947 95.6477 75.0722 98.6693 75.5057C101.654 75.9392 104.34 77.4566 106.13 79.8048C107.212 81.2138 107.958 82.8756 108.219 84.6459H110.607C110.308 82.406 109.413 80.2745 107.995 78.4681C105.794 75.6141 102.624 73.7716 99.005 73.2658C95.3865 72.76 91.768 73.6271 88.8583 75.7586C85.874 77.9262 83.9715 81.0693 83.4492 84.6459H85.8367Z" fill="#474747"/>
<g id="Group 2_2">
<path id="Vector_228" d="M0 58.9957V59.1041C0 61.0911 1.86521 61.0911 1.86521 61.0911H58.866V58.9957H0Z" fill="#DD7619"/>
<path id="Vector_229" d="M11.7881 42.2326C10.1841 42.2326 8.87842 40.9681 8.87842 39.4147V25.0361C8.87842 23.4826 10.1841 22.2181 11.7881 22.2181H29.1346C30.7387 22.2181 32.0443 23.4826 32.0443 25.0361V39.4147C32.0443 40.9681 30.7387 42.2326 29.1346 42.2326H11.7881Z" fill="#DD7619"/>
<path id="Vector_230" d="M31.7087 37.5361C31.5594 37.5361 31.4102 37.6806 31.4102 37.8252V57.7312L9.73651 57.6951V42.3772C9.51269 42.2688 9.32617 42.1243 9.13965 41.9798V57.948C9.13965 58.0925 9.28886 58.237 9.43808 58.237L31.7087 58.2731C31.7833 58.2731 31.8579 58.237 31.9325 58.2009C31.9698 58.1647 32.0071 58.0925 32.0071 57.9841V37.789C32.0071 37.6445 31.8952 37.5361 31.7087 37.5361Z" fill="#DD7619"/>
<path id="Vector_231" d="M31.4845 38.8367C31.4845 40.3902 30.1789 41.6546 28.5748 41.6546H12.3848C10.7807 41.6546 9.4751 40.3902 9.4751 38.8367V25.578C9.4751 24.0246 10.7807 22.7601 12.3848 22.7601H28.5748C30.1789 22.7601 31.4845 24.0246 31.4845 25.578V38.8367Z" fill="#FFCDA4"/>
<path id="Vector_232" d="M34.2077 70.9176H14.623L9.21387 79.8049L9.28848 89.1618H10.9672V80.3468L15.7794 72.9769H33.1258L37.8635 80.3468V89.1618H39.5421L39.6168 79.8049L34.2077 70.9176Z" fill="#DD7619"/>
<path id="Vector_233" d="M25.5532 44.1474C25.5532 44.6171 25.9636 45.0145 26.4485 45.0145H28.6122C29.0971 45.0145 29.5075 44.6171 29.5075 44.1474V43.9668C29.5075 43.4971 29.0971 43.0997 28.6122 43.0997H26.4485C25.9636 43.0997 25.5532 43.4971 25.5532 43.9668V44.1474Z" fill="#BF6717"/>
<path id="Vector_234" d="M28.4633 43.3164H26.5981C26.1878 43.3164 25.8521 43.6416 25.8521 44.039V44.1473H29.2467V44.039C29.2094 43.6416 28.8737 43.3164 28.4633 43.3164Z" fill="#DD7619"/>
<path id="Vector_235" d="M5.6328 21.3512C6.49079 20.5564 7.60992 20.6286 7.64722 20.6286H17.8313C17.9059 20.4841 18.0924 20.3757 18.2789 20.3757C18.5773 20.3757 18.8012 20.5925 18.8012 20.8815C18.8012 21.1705 18.5773 21.3873 18.2789 21.3873C18.1297 21.3873 17.9805 21.315 17.9059 21.2067H7.60992C7.60992 21.2067 6.67732 21.1705 6.00584 21.7847C5.52089 22.2543 5.25976 22.9408 5.25976 23.8439L5.81932 40.8598C5.81932 40.896 5.93123 42.1243 8.356 42.1243H8.95287C9.02748 41.9798 9.214 41.8714 9.40052 41.8714C9.69895 41.8714 9.92278 42.0882 9.92278 42.3772C9.92278 42.6662 9.69895 42.883 9.40052 42.883C9.2513 42.883 9.10209 42.8107 9.02748 42.7023H8.39331C5.37167 42.7023 5.25976 41.0043 5.25976 40.9321L4.7002 23.9162C4.7002 22.7601 4.99863 21.9292 5.6328 21.3512Z" fill="#BF6717"/>
<path id="Vector_236" d="M8.61754 22.3266L7.94607 31.2139C7.94607 31.2139 7.61033 32.2616 6.71503 32.0448C5.81973 31.828 3.84261 30.4913 3.87992 28.8295L4.21565 24.9639C4.21565 24.9639 4.96174 22.0376 8.61754 22.3266Z" fill="#63330B"/>
<path id="Vector_237" d="M8.5798 35.4769L8.05754 40.2457C8.05754 40.2457 4.51365 39.7038 4.32713 38.8728C4.14061 38.0419 4.51365 36.4884 4.51365 36.4884C4.51365 36.4884 5.8939 35.0434 8.5798 35.4769Z" fill="#63330B"/>
<path id="Vector_238" d="M7.90825 22.5795C7.90825 22.5795 5.11044 23.0491 4.40166 25.1445L4.25244 27.7456L4.812 25.1084C4.812 25.1084 5.81922 23.4465 7.83364 23.1936L7.90825 22.5795Z" fill="#BF6717"/>
<path id="Vector_239" d="M19.5474 33.6705C13.7653 36.7774 20.3681 30.4913 17.048 30.961C15.0709 31.25 11.7881 33.4537 9.43799 35.1878V38.8367C9.43799 40.3902 10.7436 41.6546 12.3477 41.6546H28.5377C30.1418 41.6546 31.4474 40.3902 31.4474 38.8367V28.0708C27.0082 29.3353 23.3151 31.6474 19.5474 33.6705Z" fill="#FFBC80"/>
<g id="Group_11">
<path id="Vector_240" d="M59.1643 75.8308H58.5674V87.6805H59.1643V75.8308Z" fill="#DD7619"/>
</g>
</g>
</g>
</g>
</svg>
