<svg width="355" height="70" viewBox="0 0 355 70" fill="none" xmlns="http://www.w3.org/2000/svg">
<g id="truckLeaving">
<path id="ROAD" d="M0.196991 67.8854H355V69.9765H0.196991V67.8854Z" fill="#DBDCDD"/>
<g id="truck">
<path id="Vector" d="M209.321 31.5224H206.252V49.5029H210.751V35.2746L209.321 31.5224Z" fill="#1E6B53"/>
<path id="Vector_2" d="M84.869 54.1114H120.545V56.2016H84.869V54.1114Z" fill="#1E6B53"/>
<path id="Vector_3" d="M84.869 58.7198H120.545V60.81H84.869V58.7198Z" fill="#1E6B53"/>
<path id="Vector_4" d="M117.633 52.5248H118.83V61.3892H117.633V52.5248Z" fill="#16503F"/>
<path id="Vector_5" d="M86.4035 52.5248H87.5996V61.3892H86.4035V52.5248Z" fill="#16503F"/>
<path id="Vector_6" d="M30.1326 51.8449H76.9644V62.4217H30.1326V51.8449Z" fill="#16503F"/>
<path id="Vector_7" d="M19.0035 51.8449H34.0073V56.1008H19.0035V51.8449Z" fill="#16503F"/>
<path id="Vector_8" d="M68.2013 51.8449H83.2051V56.1008H68.2013V51.8449Z" fill="#16503F"/>
<path id="Vector_9" d="M19.0035 48.5711H136.876V52.827H19.0035V48.5711Z" fill="#1E6B53"/>
<path id="Vector_10" d="M136.771 59.2234H138.228V63.2527H136.771V59.2234Z" fill="#C4760E"/>
<path id="Vector_11" d="M136.199 63.1772V62.0943H138.644V63.1772L140.334 63.8823V64.7133H134.457V63.8823L136.199 63.1772Z" fill="#EF940F"/>
<path id="Vector_12" d="M136.226 56.7052H138.774V60.7344H136.226V56.7052Z" fill="#B2B1B1"/>
<path id="Vector_13" d="M138.488 60.2056L136.486 59.6767V59.0472L138.488 59.576V60.2056Z" fill="#E51A1A"/>
<path id="Vector_14" d="M138.488 59.022L136.486 58.468V57.8384L138.488 58.3925V59.022Z" fill="#E51A1A"/>
<path id="Vector_15" d="M138.488 57.8384L136.486 57.2844V56.6548L138.488 57.2089V57.8384Z" fill="#E51A1A"/>
<path id="Vector_16" d="M135.679 49.2007H139.32V57.4606H135.679V49.2007Z" fill="#EF940F"/>
<path id="Vector_17" d="M135.654 49.2007H137.448V57.4606H135.654V49.2007Z" fill="#FCAB49"/>
<path id="Vector_18" d="M162.072 56.6548H193.094V62.3965H162.072V56.6548Z" fill="#63330B"/>
<path id="Vector_19" d="M170.862 50.4095H182.589V53.3811H170.862V50.4095Z" fill="#141D1E"/>
<path id="Vector_20" d="M176.453 48.8229H177.129H187.322C187.166 49.4273 186.542 50.9383 183.838 50.9383H177.103H176.427H169.692C166.988 50.9383 166.364 49.4273 166.208 48.8229H176.453Z" fill="#63330B"/>
<path id="Vector_21" d="M156.119 57.2089H206.201V51.7946H159.239L156.119 54.0358V57.2089Z" fill="#BF6717"/>
<path id="Vector_22" d="M250.458 60.2056L238.314 62.0943L226.405 60.2056V47.7654H250.406L250.458 60.2056Z" fill="#63330B"/>
<path id="Vector_23" d="M214.781 42.1747H254.176V45.4737H214.781V42.1747Z" fill="#BF6717"/>
<path id="Vector_24" d="M214.417 42.8546H254.15C254.15 42.8546 255.45 42.8546 255.45 41.4696V33.6881C255.45 33.6881 255.45 33.1593 254.982 32.8319C254.982 32.8319 254.982 21.0967 254.436 15.8335H254.956C254.956 15.8335 255.216 14.7003 253.942 13.9952C253.942 13.9952 252.772 8.50536 245.309 8.50536C237.846 8.50536 222.712 8.50536 222.712 8.50536C222.712 8.50536 220.814 6.13818 214.443 6.18854V42.8546H214.417Z" fill="#F98D21"/>
<path id="Vector_25" d="M214.469 44.5419V52.55H186.958V61.7921H228.511V55.4712L232.593 50.1325H244.893L248.351 55.6223V61.8928H252.59C252.59 61.8928 255.294 61.5403 255.294 57.8384C255.294 54.1365 255.294 46.2291 255.294 46.2291C255.294 46.2291 255.45 44.5419 253.864 44.5419H214.469Z" fill="#F98D21"/>
<path id="Vector_26" d="M251.056 31.2454C251.056 31.2454 251.056 17.8985 251.056 16.9164C251.056 15.9343 251.914 15.8336 251.914 15.8336H254.41C254.956 21.0968 254.956 32.8319 254.956 32.8319C251.628 32.7312 251.056 31.2454 251.056 31.2454Z" fill="#FFBC80"/>
<g id="Group">
<path id="Vector_27" d="M230.253 40.9408C230.487 40.9408 230.669 40.7645 230.669 40.5379V19.6866C230.669 19.4599 230.487 19.2836 230.253 19.2836C230.019 19.2836 229.837 19.4599 229.837 19.6866V40.5379C229.837 40.7645 230.019 40.9408 230.253 40.9408Z" fill="#DD7619"/>
</g>
<g id="Group_2">
<path id="Vector_28" d="M225.391 40.9408C225.625 40.9408 225.807 40.7645 225.807 40.5379V19.6866C225.807 19.4599 225.625 19.2836 225.391 19.2836C225.157 19.2836 224.975 19.4599 224.975 19.6866V40.5379C224.975 40.7645 225.157 40.9408 225.391 40.9408Z" fill="#DD7619"/>
</g>
<g id="Group_3">
<path id="Vector_29" d="M248.299 55.3957H255.268V55.7986H248.299V55.3957Z" fill="#DD7619"/>
</g>
<path id="Vector_30" d="M220.554 50.762H226.977V54.8165H220.554V50.762Z" fill="#BF6717"/>
<path id="Vector_31" d="M220.554 56.5541H226.977V60.6085H220.554V56.5541Z" fill="#BF6717"/>
<path id="Vector_32" d="M179.547 59.3746H219.54V61.7921H179.547V59.3746Z" fill="#DD7619"/>
<g id="Group_4">
<path id="Vector_33" d="M244.841 44.9952H245.257V50.0569H244.841V44.9952Z" fill="#DD7619"/>
</g>
<g id="Group_5">
<path id="Vector_34" d="M232.334 44.9952H244.529V45.8766H232.334V44.9952Z" fill="#DD7619"/>
</g>
<g id="Group_6">
<path id="Vector_35" d="M231.605 44.9952H232.021V50.0569H231.605V44.9952Z" fill="#DD7619"/>
</g>
<path id="Vector_36" d="M222.894 8.53054V13.8441H253.162V14.247H222.894V39.455H222.478V8.53054H222.894Z" fill="#DD7619"/>
<path id="Vector_37" d="M207.891 49.5029H14.2708L9.92828 52.7263H2.9854V0.27063H208.099L207.891 49.5029Z" fill="#16503F"/>
<g id="Group_7">
<path id="Vector_38" d="M233.296 67.2568C229.421 64.4615 228.641 59.1731 231.501 55.4209C234.388 51.6686 239.848 50.9132 243.723 53.6833C247.597 56.4786 248.377 61.7669 245.517 65.5192C242.631 69.2714 237.17 70.0521 233.296 67.2568Z" fill="#141D1E"/>
<path id="Vector_39" d="M235.558 64.3104C233.374 62.7239 232.932 59.7523 234.544 57.6369C236.182 55.5216 239.251 55.0935 241.435 56.6548C243.619 58.2413 244.061 61.2129 242.449 63.3282C240.837 65.4436 237.743 65.8969 235.558 64.3104Z" fill="#3C5151"/>
<path id="Vector_40" d="M235.793 64.0334C233.764 62.5728 233.348 59.8027 234.856 57.8385C236.365 55.8742 239.225 55.4713 241.253 56.9319C243.282 58.3925 243.698 61.1626 242.189 63.1269C240.655 65.0911 237.795 65.494 235.793 64.0334Z" fill="#2A3C3D"/>
<path id="Vector_41" d="M236.286 63.3786C234.622 62.195 234.284 59.9034 235.532 58.3169C236.754 56.7052 239.121 56.3778 240.759 57.5866C242.423 58.7702 242.761 61.0618 241.513 62.6483C240.265 64.26 237.924 64.5874 236.286 63.3786Z" fill="#476363"/>
<path id="Vector_42" d="M236.546 63.026C235.09 61.9684 234.778 59.9789 235.87 58.5687C236.962 57.1585 239.016 56.8563 240.472 57.9139C241.929 58.9716 242.241 60.9611 241.148 62.3713C240.056 63.8067 238.002 64.0837 236.546 63.026Z" fill="#607C7B"/>
<path id="Vector_43" d="M237.118 62.2706C236.104 61.5403 235.87 60.13 236.65 59.1227C237.404 58.1406 238.86 57.914 239.901 58.6694C240.915 59.3997 241.149 60.81 240.369 61.8173C239.615 62.8246 238.158 63.0261 237.118 62.2706Z" fill="#2A3C3D"/>
<path id="Vector_44" d="M237.847 61.364C237.352 61.0115 237.248 60.3315 237.612 59.8279C237.977 59.3494 238.679 59.2487 239.199 59.6012C239.693 59.9538 239.797 60.6337 239.433 61.1374C239.043 61.6158 238.341 61.7166 237.847 61.364Z" fill="#141D1E"/>
<path id="Vector_45" d="M239.849 62.9505C239.718 62.8498 239.692 62.6735 239.796 62.5728C239.901 62.4468 240.083 62.4217 240.187 62.5224C240.317 62.6231 240.343 62.7994 240.239 62.9001C240.161 63.026 239.979 63.0512 239.849 62.9505Z" fill="#141D1E"/>
<path id="Vector_46" d="M238.158 63.3787C238.028 63.278 238.002 63.1017 238.106 63.0009C238.21 62.875 238.392 62.8498 238.496 62.9506C238.626 63.0513 238.652 63.2276 238.548 63.3283C238.444 63.4542 238.262 63.4794 238.158 63.3787Z" fill="#141D1E"/>
<path id="Vector_47" d="M236.546 62.7742C236.416 62.6735 236.39 62.4972 236.494 62.3965C236.598 62.2706 236.78 62.2454 236.884 62.3461C237.014 62.4469 237.04 62.6231 236.936 62.7239C236.858 62.8498 236.676 62.8749 236.546 62.7742Z" fill="#141D1E"/>
<path id="Vector_48" d="M235.636 61.2381C235.506 61.1374 235.48 60.9611 235.584 60.8604C235.688 60.7345 235.87 60.7093 235.974 60.81C236.104 60.9107 236.13 61.087 236.026 61.1877C235.948 61.2885 235.766 61.3137 235.636 61.2381Z" fill="#141D1E"/>
<path id="Vector_49" d="M235.766 59.576C235.636 59.4753 235.61 59.299 235.714 59.1983C235.818 59.0723 236.001 59.0472 236.105 59.1479C236.235 59.2486 236.261 59.4249 236.157 59.5256C236.079 59.6516 235.896 59.6767 235.766 59.576Z" fill="#141D1E"/>
<path id="Vector_50" d="M236.884 58.3421C236.754 58.2413 236.728 58.0651 236.832 57.9643C236.936 57.8384 237.118 57.8132 237.222 57.914C237.352 58.0147 237.378 58.191 237.274 58.2917C237.196 58.4176 237.014 58.4428 236.884 58.3421Z" fill="#141D1E"/>
<path id="Vector_51" d="M238.496 57.9643C238.366 57.8636 238.34 57.6873 238.444 57.5866C238.548 57.4607 238.73 57.4355 238.834 57.5362C238.965 57.6369 238.991 57.8132 238.887 57.9139C238.808 58.0399 238.626 58.065 238.496 57.9643Z" fill="#141D1E"/>
<path id="Vector_52" d="M240.057 58.468C239.927 58.3672 239.901 58.191 240.005 58.0902C240.109 57.9643 240.291 57.9391 240.395 58.0399C240.525 58.1406 240.551 58.3169 240.447 58.4176C240.369 58.5435 240.187 58.5687 240.057 58.468Z" fill="#141D1E"/>
<path id="Vector_53" d="M241.018 59.8027C240.888 59.702 240.862 59.5257 240.966 59.425C241.07 59.299 241.252 59.2739 241.356 59.3746C241.486 59.4753 241.512 59.6516 241.408 59.7523C241.304 59.8782 241.148 59.9034 241.018 59.8027Z" fill="#141D1E"/>
<path id="Vector_54" d="M240.993 61.5403C240.863 61.4396 240.837 61.2633 240.941 61.1626C241.045 61.0366 241.227 61.0115 241.331 61.1122C241.461 61.2129 241.487 61.3892 241.383 61.4899C241.305 61.5907 241.123 61.6158 240.993 61.5403Z" fill="#141D1E"/>
<path id="Vector_55" d="M241.226 63.5297C241.122 63.4542 241.122 63.3031 241.2 63.2024L241.616 62.7491C241.694 62.6483 241.851 62.6483 241.955 62.7239C242.059 62.7994 242.059 62.9505 241.981 63.0513L241.564 63.5046C241.46 63.6053 241.33 63.6053 241.226 63.5297Z" fill="#141D1E"/>
<path id="Vector_56" d="M238.757 64.5623C238.731 64.4363 238.809 64.3104 238.913 64.2852L239.511 64.1342C239.641 64.109 239.771 64.1845 239.797 64.2852C239.823 64.4112 239.745 64.5371 239.615 64.5623L239.017 64.7133C238.913 64.7637 238.809 64.6882 238.757 64.5623Z" fill="#141D1E"/>
<path id="Vector_57" d="M236.364 63.9327C236.416 63.8319 236.572 63.7816 236.676 63.8319L237.248 64.109C237.352 64.1593 237.404 64.3104 237.352 64.4111C237.3 64.5119 237.144 64.5623 237.04 64.5119L236.468 64.2349C236.338 64.1845 236.286 64.0334 236.364 63.9327Z" fill="#141D1E"/>
<path id="Vector_58" d="M234.7 62.0439C234.804 61.9936 234.96 62.0188 235.012 62.1447L235.298 62.6735C235.35 62.7742 235.298 62.9253 235.194 62.9757C235.09 63.0261 234.934 62.9757 234.882 62.875L234.596 62.3461C234.544 62.2454 234.596 62.1195 234.7 62.0439Z" fill="#141D1E"/>
<path id="Vector_59" d="M234.44 59.6515C234.57 59.6767 234.648 59.7774 234.648 59.9034L234.57 60.5077C234.544 60.6337 234.44 60.7092 234.31 60.7092C234.18 60.684 234.102 60.5833 234.102 60.4574L234.18 59.853C234.18 59.7271 234.31 59.6515 234.44 59.6515Z" fill="#141D1E"/>
<path id="Vector_60" d="M235.558 57.5614C235.662 57.637 235.688 57.788 235.61 57.8888L235.22 58.3672C235.142 58.468 234.986 58.4932 234.882 58.4176C234.778 58.3421 234.752 58.191 234.83 58.0902L235.22 57.6118C235.298 57.511 235.454 57.4859 235.558 57.5614Z" fill="#141D1E"/>
<path id="Vector_61" d="M242.579 59.6012C242.449 59.6012 242.345 59.702 242.345 59.8279L242.371 60.4323C242.371 60.5582 242.475 60.6589 242.605 60.6589C242.735 60.6589 242.839 60.5582 242.839 60.4323L242.813 59.8279C242.813 59.6768 242.709 59.5761 242.579 59.6012Z" fill="#141D1E"/>
<path id="Vector_62" d="M241.279 57.5362C241.175 57.6118 241.175 57.7629 241.253 57.8636L241.669 58.3169C241.747 58.4176 241.903 58.4176 242.007 58.3421C242.111 58.2665 242.111 58.1154 242.007 58.0147L241.591 57.5614C241.513 57.4607 241.357 57.4607 241.279 57.5362Z" fill="#141D1E"/>
<path id="Vector_63" d="M238.938 56.5542C238.912 56.6801 238.99 56.806 239.12 56.806L239.744 56.9067C239.874 56.9319 240.004 56.8563 240.004 56.7304C240.03 56.6045 239.952 56.4786 239.822 56.4786L239.198 56.3779C239.094 56.3275 238.964 56.4282 238.938 56.5542Z" fill="#141D1E"/>
<path id="Vector_64" d="M236.495 56.9822C236.547 57.1081 236.677 57.1585 236.807 57.1081L237.379 56.8563C237.509 56.8059 237.561 56.68 237.509 56.5541C237.457 56.4282 237.327 56.3778 237.197 56.4282L236.625 56.68C236.495 56.7304 236.443 56.8563 236.495 56.9822Z" fill="#141D1E"/>
</g>
<g id="Group_8">
<path id="Vector_65" d="M163.087 67.2568C159.213 64.4615 158.432 59.1731 161.293 55.4209C164.179 51.6686 169.64 50.9132 173.514 53.6833C177.389 56.4786 178.169 61.7669 175.309 65.5192C172.422 69.2714 166.962 70.0521 163.087 67.2568Z" fill="#141D1E"/>
<path id="Vector_66" d="M165.375 64.3104C163.191 62.7239 162.749 59.7523 164.361 57.6369C165.999 55.5216 169.068 55.0935 171.252 56.6548C173.436 58.2413 173.878 61.2129 172.266 63.3282C170.628 65.4436 167.56 65.8969 165.375 64.3104Z" fill="#3C5151"/>
<path id="Vector_67" d="M165.584 64.0334C163.555 62.5728 163.139 59.8027 164.648 57.8385C166.156 55.8742 169.016 55.4713 171.044 56.9319C173.073 58.3925 173.489 61.1626 171.98 63.1269C170.472 65.0911 167.612 65.494 165.584 64.0334Z" fill="#2A3C3D"/>
<path id="Vector_68" d="M166.078 63.3786C164.413 62.195 164.075 59.9034 165.324 58.3169C166.546 56.7052 168.912 56.3778 170.55 57.5866C172.214 58.7702 172.552 61.0618 171.304 62.6483C170.082 64.26 167.742 64.5874 166.078 63.3786Z" fill="#476363"/>
<path id="Vector_69" d="M166.337 63.026C164.881 61.9684 164.569 59.9789 165.661 58.5687C166.753 57.1585 168.808 56.8563 170.264 57.9139C171.72 58.9716 172.032 60.9611 170.94 62.3713C169.874 63.8067 167.794 64.0837 166.337 63.026Z" fill="#607C7B"/>
<path id="Vector_70" d="M166.936 62.2706C165.922 61.5403 165.687 60.13 166.468 59.1227C167.222 58.1406 168.678 57.914 169.718 58.6694C170.732 59.3997 170.966 60.81 170.186 61.8173C169.406 62.8246 167.95 63.0261 166.936 62.2706Z" fill="#2A3C3D"/>
<path id="Vector_71" d="M167.638 61.364C167.144 61.0115 167.04 60.3315 167.404 59.8279C167.768 59.3494 168.47 59.2487 168.99 59.6012C169.484 59.9538 169.588 60.6337 169.224 61.1374C168.834 61.6158 168.132 61.7166 167.638 61.364Z" fill="#141D1E"/>
<path id="Vector_72" d="M169.666 62.9505C169.536 62.8498 169.51 62.6735 169.614 62.5728C169.718 62.4468 169.9 62.4217 170.004 62.5224C170.134 62.6231 170.16 62.7994 170.056 62.9001C169.978 63.026 169.796 63.0512 169.666 62.9505Z" fill="#141D1E"/>
<path id="Vector_73" d="M167.95 63.3787C167.82 63.278 167.794 63.1017 167.898 63.0009C168.002 62.875 168.184 62.8498 168.288 62.9506C168.418 63.0513 168.444 63.2276 168.34 63.3283C168.262 63.4542 168.08 63.4794 167.95 63.3787Z" fill="#141D1E"/>
<path id="Vector_74" d="M166.364 62.7742C166.234 62.6735 166.208 62.4972 166.312 62.3965C166.416 62.2706 166.598 62.2454 166.702 62.3461C166.832 62.4469 166.858 62.6231 166.754 62.7239C166.65 62.8498 166.494 62.8749 166.364 62.7742Z" fill="#141D1E"/>
<path id="Vector_75" d="M165.428 61.2381C165.298 61.1374 165.272 60.9611 165.376 60.8604C165.48 60.7345 165.662 60.7093 165.766 60.81C165.896 60.9107 165.922 61.087 165.818 61.1877C165.74 61.2885 165.558 61.3137 165.428 61.2381Z" fill="#141D1E"/>
<path id="Vector_76" d="M165.583 59.576C165.453 59.4753 165.427 59.299 165.531 59.1983C165.635 59.0723 165.817 59.0472 165.921 59.1479C166.051 59.2486 166.077 59.4249 165.973 59.5256C165.869 59.6516 165.713 59.6767 165.583 59.576Z" fill="#141D1E"/>
<path id="Vector_77" d="M166.676 58.3421C166.546 58.2413 166.52 58.0651 166.624 57.9643C166.728 57.8384 166.91 57.8132 167.014 57.914C167.144 58.0147 167.17 58.191 167.066 58.2917C166.988 58.4176 166.806 58.4428 166.676 58.3421Z" fill="#141D1E"/>
<path id="Vector_78" d="M168.288 57.9643C168.158 57.8636 168.132 57.6873 168.236 57.5866C168.34 57.4607 168.522 57.4355 168.626 57.5362C168.756 57.6369 168.782 57.8132 168.678 57.9139C168.6 58.0399 168.418 58.065 168.288 57.9643Z" fill="#141D1E"/>
<path id="Vector_79" d="M169.849 58.468C169.719 58.3672 169.693 58.191 169.797 58.0902C169.901 57.9643 170.083 57.9391 170.187 58.0399C170.317 58.1406 170.343 58.3169 170.239 58.4176C170.161 58.5435 169.979 58.5687 169.849 58.468Z" fill="#141D1E"/>
<path id="Vector_80" d="M170.81 59.8027C170.68 59.702 170.654 59.5257 170.758 59.425C170.862 59.299 171.044 59.2739 171.148 59.3746C171.278 59.4753 171.304 59.6516 171.2 59.7523C171.122 59.8782 170.94 59.9034 170.81 59.8027Z" fill="#141D1E"/>
<path id="Vector_81" d="M170.81 61.5403C170.68 61.4396 170.654 61.2633 170.758 61.1626C170.862 61.0366 171.044 61.0115 171.148 61.1122C171.278 61.2129 171.304 61.3892 171.2 61.4899C171.122 61.5907 170.94 61.6158 170.81 61.5403Z" fill="#141D1E"/>
<path id="Vector_82" d="M171.018 63.5297C170.914 63.4542 170.914 63.3031 170.992 63.2024L171.408 62.7491C171.486 62.6483 171.642 62.6483 171.746 62.7239C171.85 62.7994 171.85 62.9505 171.772 63.0513L171.356 63.5046C171.278 63.6053 171.122 63.6053 171.018 63.5297Z" fill="#141D1E"/>
<path id="Vector_83" d="M168.573 64.5623C168.547 64.4363 168.625 64.3104 168.73 64.2852L169.328 64.1342C169.458 64.109 169.588 64.1845 169.614 64.2852C169.64 64.4112 169.562 64.5371 169.458 64.5623L168.86 64.7133C168.73 64.7637 168.599 64.6882 168.573 64.5623Z" fill="#141D1E"/>
<path id="Vector_84" d="M166.156 63.9327C166.208 63.8319 166.364 63.7816 166.468 63.8319L167.04 64.109C167.144 64.1593 167.196 64.3104 167.144 64.4111C167.092 64.5119 166.936 64.5623 166.832 64.5119L166.26 64.2349C166.156 64.1845 166.104 64.0334 166.156 63.9327Z" fill="#141D1E"/>
<path id="Vector_85" d="M164.517 62.0439C164.621 61.9936 164.777 62.0188 164.829 62.1447L165.115 62.6735C165.167 62.7742 165.115 62.9253 165.011 62.9757C164.907 63.0261 164.751 62.9757 164.699 62.875L164.413 62.3461C164.335 62.2454 164.387 62.1195 164.517 62.0439Z" fill="#141D1E"/>
<path id="Vector_86" d="M164.231 59.6515C164.361 59.6767 164.439 59.7774 164.439 59.9034L164.361 60.5077C164.335 60.6337 164.231 60.7092 164.101 60.7092C163.971 60.684 163.893 60.5833 163.893 60.4574L163.971 59.853C163.997 59.7271 164.101 59.6515 164.231 59.6515Z" fill="#141D1E"/>
<path id="Vector_87" d="M165.349 57.5614C165.453 57.637 165.479 57.788 165.401 57.8888L165.011 58.3672C164.933 58.468 164.777 58.4932 164.673 58.4176C164.569 58.3421 164.543 58.191 164.621 58.0902L165.011 57.6118C165.115 57.511 165.245 57.4859 165.349 57.5614Z" fill="#141D1E"/>
<path id="Vector_88" d="M172.396 59.6012C172.266 59.6012 172.162 59.702 172.162 59.8279L172.188 60.4323C172.188 60.5582 172.292 60.6589 172.422 60.6589C172.552 60.6589 172.656 60.5582 172.656 60.4323L172.63 59.8279C172.63 59.6768 172.526 59.5761 172.396 59.6012Z" fill="#141D1E"/>
<path id="Vector_89" d="M171.07 57.5362C170.966 57.6118 170.966 57.7629 171.044 57.8636L171.46 58.3169C171.538 58.4176 171.694 58.4176 171.798 58.3421C171.902 58.2665 171.902 58.1154 171.798 58.0147L171.382 57.5614C171.304 57.4607 171.174 57.4607 171.07 57.5362Z" fill="#141D1E"/>
<path id="Vector_90" d="M168.756 56.5542C168.73 56.6801 168.808 56.806 168.938 56.806L169.562 56.9067C169.692 56.9319 169.822 56.8563 169.822 56.7304C169.848 56.6045 169.77 56.4786 169.64 56.4786L169.016 56.3779C168.886 56.3275 168.756 56.4282 168.756 56.5542Z" fill="#141D1E"/>
<path id="Vector_91" d="M166.286 56.9822C166.338 57.1081 166.468 57.1585 166.598 57.1081L167.17 56.8563C167.3 56.8059 167.352 56.68 167.3 56.5541C167.248 56.4282 167.118 56.3778 166.988 56.4282L166.416 56.68C166.286 56.7304 166.234 56.8563 166.286 56.9822Z" fill="#141D1E"/>
</g>
<path id="Vector_92" d="M176.115 59.2738C175.777 57.2844 174.71 55.5468 173.046 54.338C171.356 53.104 169.276 52.6004 167.17 52.9026C165.089 53.2048 163.217 54.2625 161.969 55.8993C161.215 56.8815 160.695 58.0399 160.513 59.2738H158.848C159.057 57.7125 159.681 56.2267 160.669 54.9676C162.203 52.9781 164.413 51.6938 166.935 51.3412C169.458 50.9887 171.98 51.5931 174.008 53.0789C176.089 54.5898 177.415 56.7807 177.779 59.2738H176.115Z" fill="#474747"/>
<g id="Group_9">
<path id="Vector_93" d="M182.589 67.2568C178.715 64.4615 177.934 59.1731 180.795 55.4209C183.681 51.6686 189.142 50.9132 193.016 53.6833C196.891 56.4786 197.671 61.7669 194.811 65.5192C191.924 69.2714 186.463 70.0521 182.589 67.2568Z" fill="#141D1E"/>
<path id="Vector_94" d="M184.851 64.3104C182.667 62.7239 182.225 59.7523 183.837 57.6369C185.475 55.5216 188.544 55.0935 190.728 56.6548C192.912 58.2413 193.354 61.2129 191.742 63.3282C190.13 65.4436 187.036 65.8969 184.851 64.3104Z" fill="#3C5151"/>
<path id="Vector_95" d="M185.086 64.0334C183.057 62.5728 182.641 59.8027 184.149 57.8385C185.658 55.8742 188.518 55.4713 190.546 56.9319C192.574 58.3925 192.991 61.1626 191.482 63.1269C189.948 65.0911 187.088 65.494 185.086 64.0334Z" fill="#2A3C3D"/>
<path id="Vector_96" d="M185.579 63.3786C183.915 62.195 183.577 59.9034 184.825 58.3169C186.047 56.7052 188.414 56.3778 190.052 57.5866C191.716 58.7702 192.054 61.0618 190.806 62.6483C189.558 64.26 187.217 64.5874 185.579 63.3786Z" fill="#476363"/>
<path id="Vector_97" d="M185.839 63.026C184.383 61.9684 184.071 59.9789 185.163 58.5687C186.255 57.1585 188.31 56.8563 189.766 57.9139C191.222 58.9716 191.534 60.9611 190.442 62.3713C189.35 63.8067 187.296 64.0837 185.839 63.026Z" fill="#607C7B"/>
<path id="Vector_98" d="M186.411 62.2706C185.397 61.5403 185.163 60.13 185.943 59.1227C186.697 58.1406 188.153 57.914 189.194 58.6694C190.208 59.3997 190.442 60.81 189.662 61.8173C188.908 62.8246 187.451 63.0261 186.411 62.2706Z" fill="#2A3C3D"/>
<path id="Vector_99" d="M187.14 61.364C186.646 61.0115 186.542 60.3315 186.906 59.8279C187.27 59.3494 187.972 59.2487 188.492 59.6012C188.986 59.9538 189.09 60.6337 188.726 61.1374C188.336 61.6158 187.634 61.7166 187.14 61.364Z" fill="#141D1E"/>
<path id="Vector_100" d="M189.142 62.9505C189.012 62.8498 188.986 62.6735 189.09 62.5728C189.194 62.4468 189.376 62.4217 189.48 62.5224C189.61 62.6231 189.636 62.7994 189.532 62.9001C189.454 63.026 189.272 63.0512 189.142 62.9505Z" fill="#141D1E"/>
<path id="Vector_101" d="M187.426 63.3787C187.296 63.278 187.27 63.1017 187.374 63.0009C187.478 62.875 187.66 62.8498 187.764 62.9506C187.894 63.0513 187.92 63.2276 187.816 63.3283C187.738 63.4542 187.556 63.4794 187.426 63.3787Z" fill="#141D1E"/>
<path id="Vector_102" d="M185.84 62.7742C185.71 62.6735 185.684 62.4972 185.788 62.3965C185.892 62.2706 186.074 62.2454 186.178 62.3461C186.308 62.4469 186.334 62.6231 186.23 62.7239C186.152 62.8498 185.97 62.8749 185.84 62.7742Z" fill="#141D1E"/>
<path id="Vector_103" d="M184.93 61.2381C184.8 61.1374 184.774 60.9611 184.878 60.8604C184.982 60.7345 185.164 60.7093 185.268 60.81C185.398 60.9107 185.424 61.087 185.32 61.1877C185.216 61.2885 185.06 61.3137 184.93 61.2381Z" fill="#141D1E"/>
<path id="Vector_104" d="M185.059 59.576C184.929 59.4753 184.903 59.299 185.007 59.1983C185.111 59.0723 185.293 59.0472 185.397 59.1479C185.528 59.2486 185.554 59.4249 185.449 59.5256C185.371 59.6516 185.189 59.6767 185.059 59.576Z" fill="#141D1E"/>
<path id="Vector_105" d="M186.178 58.3421C186.048 58.2413 186.022 58.0651 186.126 57.9643C186.23 57.8384 186.412 57.8132 186.516 57.914C186.646 58.0147 186.672 58.191 186.568 58.2917C186.49 58.4176 186.308 58.4428 186.178 58.3421Z" fill="#141D1E"/>
<path id="Vector_106" d="M187.79 57.9643C187.66 57.8636 187.634 57.6873 187.738 57.5866C187.842 57.4607 188.024 57.4355 188.128 57.5362C188.258 57.6369 188.284 57.8132 188.18 57.9139C188.102 58.0399 187.92 58.065 187.79 57.9643Z" fill="#141D1E"/>
<path id="Vector_107" d="M189.35 58.468C189.22 58.3672 189.194 58.191 189.298 58.0902C189.402 57.9643 189.584 57.9391 189.688 58.0399C189.818 58.1406 189.844 58.3169 189.74 58.4176C189.662 58.5435 189.48 58.5687 189.35 58.468Z" fill="#141D1E"/>
<path id="Vector_108" d="M190.312 59.8027C190.182 59.702 190.156 59.5257 190.26 59.425C190.364 59.299 190.546 59.2739 190.65 59.3746C190.78 59.4753 190.806 59.6516 190.702 59.7523C190.598 59.8782 190.416 59.9034 190.312 59.8027Z" fill="#141D1E"/>
<path id="Vector_109" d="M190.286 61.5403C190.156 61.4396 190.13 61.2633 190.234 61.1626C190.338 61.0366 190.52 61.0115 190.624 61.1122C190.754 61.2129 190.78 61.3892 190.676 61.4899C190.598 61.5907 190.416 61.6158 190.286 61.5403Z" fill="#141D1E"/>
<path id="Vector_110" d="M190.52 63.5297C190.416 63.4542 190.416 63.3031 190.494 63.2024L190.91 62.7491C190.988 62.6483 191.144 62.6483 191.248 62.7239C191.352 62.7994 191.352 62.9505 191.274 63.0513L190.858 63.5046C190.754 63.6053 190.624 63.6053 190.52 63.5297Z" fill="#141D1E"/>
<path id="Vector_111" d="M188.05 64.5623C188.024 64.4363 188.102 64.3104 188.206 64.2852L188.804 64.1342C188.934 64.109 189.064 64.1845 189.09 64.2852C189.116 64.4112 189.038 64.5371 188.934 64.5623L188.336 64.7133C188.206 64.7637 188.076 64.6882 188.05 64.5623Z" fill="#141D1E"/>
<path id="Vector_112" d="M185.658 63.9327C185.71 63.8319 185.866 63.7816 185.97 63.8319L186.542 64.109C186.646 64.1593 186.698 64.3104 186.646 64.4111C186.594 64.5119 186.438 64.5623 186.334 64.5119L185.762 64.2349C185.632 64.1845 185.58 64.0334 185.658 63.9327Z" fill="#141D1E"/>
<path id="Vector_113" d="M183.993 62.0439C184.097 61.9936 184.253 62.0188 184.305 62.1447L184.591 62.6735C184.643 62.7742 184.591 62.9253 184.487 62.9757C184.383 63.0261 184.227 62.9757 184.175 62.875L183.889 62.3461C183.837 62.2454 183.889 62.1195 183.993 62.0439Z" fill="#141D1E"/>
<path id="Vector_114" d="M183.707 59.6515C183.837 59.6767 183.915 59.7774 183.915 59.9034L183.837 60.5077C183.811 60.6337 183.707 60.7092 183.577 60.7092C183.447 60.684 183.369 60.5833 183.369 60.4574L183.447 59.853C183.473 59.7271 183.603 59.6515 183.707 59.6515Z" fill="#141D1E"/>
<path id="Vector_115" d="M184.851 57.5614C184.955 57.637 184.981 57.788 184.903 57.8888L184.513 58.3672C184.435 58.468 184.279 58.4932 184.175 58.4176C184.071 58.3421 184.045 58.191 184.123 58.0902L184.513 57.6118C184.591 57.511 184.747 57.4859 184.851 57.5614Z" fill="#141D1E"/>
<path id="Vector_116" d="M191.872 59.6012C191.742 59.6012 191.638 59.702 191.638 59.8279L191.664 60.4323C191.664 60.5582 191.768 60.6589 191.898 60.6589C192.028 60.6589 192.132 60.5582 192.132 60.4323L192.106 59.8279C192.106 59.6768 192.002 59.5761 191.872 59.6012Z" fill="#141D1E"/>
<path id="Vector_117" d="M190.572 57.5362C190.468 57.6118 190.468 57.7629 190.546 57.8636L190.962 58.3169C191.04 58.4176 191.196 58.4176 191.3 58.3421C191.404 58.2665 191.404 58.1154 191.3 58.0147L190.884 57.5614C190.806 57.4607 190.65 57.4607 190.572 57.5362Z" fill="#141D1E"/>
<path id="Vector_118" d="M188.232 56.5542C188.206 56.6801 188.284 56.806 188.414 56.806L189.038 56.9067C189.168 56.9319 189.298 56.8563 189.298 56.7304C189.324 56.6045 189.246 56.4786 189.116 56.4786L188.492 56.3779C188.388 56.3275 188.258 56.4282 188.232 56.5542Z" fill="#141D1E"/>
<path id="Vector_119" d="M185.788 56.9822C185.84 57.1081 185.97 57.1585 186.1 57.1081L186.672 56.8563C186.802 56.8059 186.854 56.68 186.802 56.5541C186.75 56.4282 186.62 56.3778 186.49 56.4282L185.918 56.68C185.788 56.7304 185.736 56.8563 185.788 56.9822Z" fill="#141D1E"/>
</g>
<path id="Vector_120" d="M195.617 59.2738C195.279 57.2844 194.213 55.5468 192.549 54.338C190.858 53.104 188.778 52.6004 186.672 52.9026C184.592 53.2048 182.719 54.2625 181.471 55.8993C180.717 56.8815 180.197 58.0399 180.015 59.2738H178.351C178.559 57.7125 179.183 56.2267 180.171 54.9676C181.705 52.9781 183.916 51.6938 186.438 51.3412C188.96 50.9887 191.483 51.5931 193.511 53.0789C195.591 54.5898 196.917 56.7807 197.281 59.2738H195.617Z" fill="#474747"/>
<g id="Group_10">
<path id="Vector_121" d="M28.8844 67.2568C25.0099 64.4615 24.2298 59.1731 27.0902 55.4209C29.9765 51.6686 35.4372 50.9132 39.3117 53.6833C43.1862 56.4786 43.9663 61.7669 41.1059 65.5192C38.2196 69.2714 32.7329 70.0521 28.8844 67.2568Z" fill="#141D1E"/>
<path id="Vector_122" d="M31.1463 64.3104C28.962 62.7239 28.52 59.7523 30.1322 57.6369C31.7704 55.5216 34.8388 55.0935 37.023 56.6548C39.2073 58.2413 39.6494 61.2129 38.0372 63.3282C36.425 65.4436 33.3306 65.8969 31.1463 64.3104Z" fill="#3C5151"/>
<path id="Vector_123" d="M31.3542 64.0334C29.3259 62.5728 28.9098 59.8027 30.418 57.8385C31.9262 55.8742 34.7866 55.4713 36.8148 56.9319C38.8431 58.3925 39.2591 61.1626 37.7509 63.1269C36.2427 65.0911 33.3824 65.494 31.3542 64.0334Z" fill="#2A3C3D"/>
<path id="Vector_124" d="M31.8482 63.3786C30.184 62.195 29.846 59.9034 31.0941 58.3169C32.3163 56.7052 34.6826 56.3778 36.3208 57.5866C37.985 58.7702 38.323 61.0618 37.0749 62.6483C35.8527 64.26 33.5124 64.5874 31.8482 63.3786Z" fill="#476363"/>
<path id="Vector_125" d="M32.1343 63.026C30.6781 61.9684 30.366 59.9789 31.4582 58.5687C32.5503 57.1585 34.6046 56.8563 36.0608 57.9139C37.517 58.9716 37.829 60.9611 36.7369 62.3713C35.6447 63.8067 33.5905 64.0837 32.1343 63.026Z" fill="#607C7B"/>
<path id="Vector_126" d="M32.7067 62.2706C31.6925 61.5403 31.4585 60.13 32.2386 59.1227C32.9927 58.1406 34.4489 57.914 35.489 58.6694C36.5031 59.3997 36.7371 60.81 35.957 61.8173C35.177 62.8246 33.7468 63.0261 32.7067 62.2706Z" fill="#2A3C3D"/>
<path id="Vector_127" d="M33.4085 61.364C32.9144 61.0115 32.8104 60.3315 33.1745 59.8279C33.5385 59.3494 34.2406 59.2487 34.7607 59.6012C35.2548 59.9538 35.3588 60.6337 34.9947 61.1374C34.6307 61.6158 33.9286 61.7166 33.4085 61.364Z" fill="#141D1E"/>
<path id="Vector_128" d="M35.4369 62.9505C35.3069 62.8498 35.2809 62.6735 35.3849 62.5728C35.4889 62.4468 35.6709 62.4217 35.7749 62.5224C35.9049 62.6231 35.9309 62.7994 35.8269 62.9001C35.7489 63.026 35.5669 63.0512 35.4369 62.9505Z" fill="#141D1E"/>
<path id="Vector_129" d="M33.7206 63.3787C33.5906 63.278 33.5646 63.1017 33.6686 63.0009C33.7726 62.875 33.9546 62.8498 34.0586 62.9506C34.1886 63.0513 34.2146 63.2276 34.1106 63.3283C34.0326 63.4542 33.8506 63.4794 33.7206 63.3787Z" fill="#141D1E"/>
<path id="Vector_130" d="M32.1346 62.7742C32.0046 62.6735 31.9786 62.4972 32.0826 62.3965C32.1866 62.2706 32.3687 62.2454 32.4727 62.3461C32.6027 62.4469 32.6287 62.6231 32.5247 62.7239C32.4467 62.8498 32.2647 62.8749 32.1346 62.7742Z" fill="#141D1E"/>
<path id="Vector_131" d="M31.1986 61.2381C31.0685 61.1374 31.0426 60.9611 31.1466 60.8604C31.2506 60.7345 31.4326 60.7093 31.5366 60.81C31.6667 60.9107 31.6927 61.087 31.5886 61.1877C31.5106 61.2885 31.3286 61.3137 31.1986 61.2381Z" fill="#141D1E"/>
<path id="Vector_132" d="M31.3544 59.576C31.2243 59.4753 31.1983 59.299 31.3024 59.1983C31.4064 59.0723 31.5884 59.0472 31.6924 59.1479C31.8224 59.2486 31.8484 59.4249 31.7444 59.5256C31.6664 59.6516 31.4844 59.6767 31.3544 59.576Z" fill="#141D1E"/>
<path id="Vector_133" d="M32.473 58.3421C32.343 58.2413 32.3169 58.0651 32.421 57.9643C32.525 57.8384 32.707 57.8132 32.811 57.914C32.9411 58.0147 32.9671 58.191 32.8631 58.2917C32.759 58.4176 32.603 58.4428 32.473 58.3421Z" fill="#141D1E"/>
<path id="Vector_134" d="M34.0848 57.9643C33.9548 57.8636 33.9288 57.6873 34.0328 57.5866C34.1368 57.4607 34.3189 57.4355 34.4229 57.5362C34.5529 57.6369 34.5789 57.8132 34.4749 57.9139C34.3709 58.0399 34.2148 58.065 34.0848 57.9643Z" fill="#141D1E"/>
<path id="Vector_135" d="M35.6449 58.468C35.5149 58.3672 35.4889 58.191 35.5929 58.0902C35.6969 57.9643 35.8789 57.9391 35.9829 58.0399C36.1129 58.1406 36.139 58.3169 36.0349 58.4176C35.9309 58.5435 35.7489 58.5687 35.6449 58.468Z" fill="#141D1E"/>
<path id="Vector_136" d="M36.5809 59.8027C36.4509 59.702 36.4249 59.5257 36.5289 59.425C36.6329 59.299 36.8149 59.2739 36.919 59.3746C37.049 59.4753 37.075 59.6516 36.971 59.7523C36.893 59.8782 36.7109 59.9034 36.5809 59.8027Z" fill="#141D1E"/>
<path id="Vector_137" d="M36.5809 61.5403C36.4509 61.4396 36.4249 61.2633 36.5289 61.1626C36.6329 61.0366 36.8149 61.0115 36.919 61.1122C37.049 61.2129 37.075 61.3892 36.971 61.4899C36.893 61.5907 36.7109 61.6158 36.5809 61.5403Z" fill="#141D1E"/>
<path id="Vector_138" d="M36.8153 63.5297C36.7113 63.4542 36.7113 63.3031 36.7893 63.2024L37.2054 62.7491C37.2834 62.6483 37.4394 62.6483 37.5434 62.7239C37.6474 62.7994 37.6474 62.9505 37.5694 63.0513L37.1534 63.5046C37.0493 63.6053 36.9193 63.6053 36.8153 63.5297Z" fill="#141D1E"/>
<path id="Vector_139" d="M34.3449 64.5623C34.3189 64.4363 34.3969 64.3104 34.5269 64.2852L35.1249 64.1342C35.255 64.109 35.385 64.1845 35.411 64.2852C35.437 64.4112 35.359 64.5371 35.255 64.5623L34.6569 64.7133C34.5009 64.7637 34.3709 64.6882 34.3449 64.5623Z" fill="#141D1E"/>
<path id="Vector_140" d="M31.9265 63.9327C31.9785 63.8319 32.1345 63.7816 32.2386 63.8319L32.8106 64.109C32.9147 64.1593 32.9667 64.3104 32.9147 64.4111C32.8627 64.5119 32.7066 64.5623 32.6026 64.5119L32.0305 64.2349C31.9265 64.1845 31.8745 64.0334 31.9265 63.9327Z" fill="#141D1E"/>
<path id="Vector_141" d="M30.2883 62.0439C30.3923 61.9936 30.5483 62.0188 30.6003 62.1447L30.8863 62.6735C30.9383 62.7742 30.8863 62.9253 30.7823 62.9757C30.6783 63.0261 30.5223 62.9757 30.4703 62.875L30.1843 62.3461C30.1322 62.2454 30.1582 62.1195 30.2883 62.0439Z" fill="#141D1E"/>
<path id="Vector_142" d="M30.0024 59.6515C30.1324 59.6767 30.2104 59.7774 30.2104 59.9034L30.1324 60.5077C30.1064 60.6337 30.0024 60.7092 29.8724 60.7092C29.7424 60.684 29.6644 60.5833 29.6644 60.4574L29.7424 59.853C29.7684 59.7271 29.8724 59.6515 30.0024 59.6515Z" fill="#141D1E"/>
<path id="Vector_143" d="M31.1463 57.5614C31.2503 57.637 31.2763 57.788 31.1983 57.8888L30.8082 58.3672C30.7302 58.468 30.5742 58.4932 30.4702 58.4176C30.3662 58.3421 30.3401 58.191 30.4182 58.0902L30.8082 57.6118C30.8862 57.511 31.0423 57.4859 31.1463 57.5614Z" fill="#141D1E"/>
<path id="Vector_144" d="M38.1672 59.6012C38.0372 59.6012 37.9332 59.702 37.9332 59.8279L37.9592 60.4323C37.9592 60.5582 38.0632 60.6589 38.1932 60.6589C38.3232 60.6589 38.4272 60.5582 38.4272 60.4323L38.4012 59.8279C38.4012 59.6768 38.2972 59.5761 38.1672 59.6012Z" fill="#141D1E"/>
<path id="Vector_145" d="M36.8409 57.5362C36.7369 57.6118 36.7369 57.7629 36.8149 57.8636L37.2309 58.3169C37.3089 58.4176 37.465 58.4176 37.569 58.3421C37.673 58.2665 37.673 58.1154 37.569 58.0147L37.1529 57.5614C37.1009 57.4607 36.9449 57.4607 36.8409 57.5362Z" fill="#141D1E"/>
<path id="Vector_146" d="M34.527 56.5542C34.501 56.6801 34.579 56.806 34.709 56.806L35.3331 56.9067C35.4631 56.9319 35.5932 56.8563 35.5932 56.7304C35.6192 56.6045 35.5412 56.4786 35.4111 56.4786L34.7871 56.3779C34.6831 56.3275 34.553 56.4282 34.527 56.5542Z" fill="#141D1E"/>
<path id="Vector_147" d="M32.0826 56.9822C32.1346 57.1081 32.2647 57.1585 32.3947 57.1081L32.9668 56.8563C33.0968 56.8059 33.1488 56.68 33.0968 56.5541C33.0448 56.4282 32.9147 56.3778 32.7847 56.4282L32.2127 56.68C32.0826 56.7304 32.0306 56.8563 32.0826 56.9822Z" fill="#141D1E"/>
</g>
<path id="Vector_148" d="M41.912 59.2738C41.5739 57.2844 40.5078 55.5468 38.8436 54.338C37.1534 53.104 35.0731 52.6004 32.9669 52.9026C30.8866 53.2048 29.0144 54.2625 27.7662 55.8993C27.0121 56.8815 26.4921 58.0399 26.31 59.2738H24.6458C24.8539 57.7125 25.4779 56.2267 26.4661 54.9676C28.0002 52.9781 30.2105 51.6938 32.7328 51.3412C35.2551 50.9887 37.7775 51.5931 39.8057 53.0789C41.886 54.5898 43.2121 56.7807 43.5762 59.2738H41.912Z" fill="#474747"/>
<g id="Group_11">
<path id="Vector_149" d="M48.465 67.2568C44.5906 64.4615 43.8105 59.1731 46.6708 55.4209C49.5572 51.6686 55.0178 50.9132 58.8923 53.6833C62.7668 56.4786 63.5469 61.7669 60.6865 65.5192C57.8262 69.2714 52.3395 70.0521 48.465 67.2568Z" fill="#141D1E"/>
<path id="Vector_150" d="M50.7528 64.3104C48.5685 62.7239 48.1265 59.7523 49.7386 57.6369C51.3768 55.5216 54.4452 55.0935 56.6295 56.6548C58.8138 58.2413 59.2558 61.2129 57.6436 63.3282C56.0314 65.4436 52.937 65.8969 50.7528 64.3104Z" fill="#3C5151"/>
<path id="Vector_151" d="M50.9615 64.0334C48.9333 62.5728 48.5173 59.8027 50.0254 57.8385C51.5336 55.8742 54.394 55.4713 56.4222 56.9319C58.4505 58.3925 58.8665 61.1626 57.3583 63.1269C55.8502 65.0911 52.9898 65.494 50.9615 64.0334Z" fill="#2A3C3D"/>
<path id="Vector_152" d="M51.4556 63.3786C49.7914 62.195 49.4534 59.9034 50.7015 58.3169C51.9237 56.7052 54.29 56.3778 55.9282 57.5866C57.5924 58.7702 57.9304 61.0618 56.6823 62.6483C55.4601 64.26 53.1198 64.5874 51.4556 63.3786Z" fill="#476363"/>
<path id="Vector_153" d="M51.7417 63.026C50.2855 61.9684 49.9735 59.9789 51.0657 58.5687C52.1578 57.1585 54.212 56.8563 55.6682 57.9139C57.1244 58.9716 57.4364 60.9611 56.3443 62.3713C55.2522 63.8067 53.1979 64.0837 51.7417 63.026Z" fill="#607C7B"/>
<path id="Vector_154" d="M52.3136 62.2706C51.2994 61.5403 51.0654 60.13 51.8455 59.1227C52.5996 58.1406 54.0558 57.914 55.0959 58.6694C56.11 59.3997 56.3441 60.81 55.564 61.8173C54.7839 62.8246 53.3277 63.0261 52.3136 62.2706Z" fill="#2A3C3D"/>
<path id="Vector_155" d="M53.0155 61.364C52.5214 61.0115 52.4174 60.3315 52.7814 59.8279C53.1455 59.3494 53.8476 59.2487 54.3676 59.6012C54.8617 59.9538 54.9657 60.6337 54.6017 61.1374C54.2376 61.6158 53.5095 61.7166 53.0155 61.364Z" fill="#141D1E"/>
<path id="Vector_156" d="M55.0438 62.9505C54.9138 62.8498 54.8878 62.6735 54.9918 62.5728C55.0958 62.4468 55.2779 62.4217 55.3819 62.5224C55.5119 62.6231 55.5379 62.7994 55.4339 62.9001C55.3559 63.026 55.1739 63.0512 55.0438 62.9505Z" fill="#141D1E"/>
<path id="Vector_157" d="M53.328 63.3787C53.198 63.278 53.172 63.1017 53.276 63.0009C53.38 62.875 53.562 62.8498 53.666 62.9506C53.7961 63.0513 53.8221 63.2276 53.718 63.3283C53.64 63.4542 53.458 63.4794 53.328 63.3787Z" fill="#141D1E"/>
<path id="Vector_158" d="M51.7411 62.7742C51.6111 62.6735 51.5851 62.4972 51.6891 62.3965C51.7931 62.2706 51.9751 62.2454 52.0791 62.3461C52.2091 62.4469 52.2351 62.6231 52.1311 62.7239C52.0531 62.8498 51.8711 62.8749 51.7411 62.7742Z" fill="#141D1E"/>
<path id="Vector_159" d="M50.8051 61.2381C50.675 61.1374 50.649 60.9611 50.7531 60.8604C50.8571 60.7345 51.0391 60.7093 51.1431 60.81C51.2731 60.9107 51.2991 61.087 51.1951 61.1877C51.1171 61.2885 50.9351 61.3137 50.8051 61.2381Z" fill="#141D1E"/>
<path id="Vector_160" d="M50.9608 59.576C50.8308 59.4753 50.8048 59.299 50.9088 59.1983C51.0128 59.0723 51.1949 59.0472 51.2989 59.1479C51.4289 59.2486 51.4549 59.4249 51.3509 59.5256C51.2728 59.6516 51.0908 59.6767 50.9608 59.576Z" fill="#141D1E"/>
<path id="Vector_161" d="M52.0531 58.3421C51.9231 58.2413 51.8971 58.0651 52.0011 57.9643C52.1051 57.8384 52.2871 57.8132 52.3911 57.914C52.5212 58.0147 52.5472 58.191 52.4431 58.2917C52.3651 58.4176 52.1831 58.4428 52.0531 58.3421Z" fill="#141D1E"/>
<path id="Vector_162" d="M53.6659 57.9643C53.5359 57.8636 53.5099 57.6873 53.6139 57.5866C53.7179 57.4607 53.8999 57.4355 54.0039 57.5362C54.1339 57.6369 54.1599 57.8132 54.0559 57.9139C53.9779 58.0399 53.7959 58.065 53.6659 57.9643Z" fill="#141D1E"/>
<path id="Vector_163" d="M55.2259 58.468C55.0959 58.3672 55.0699 58.191 55.1739 58.0902C55.2779 57.9643 55.46 57.9391 55.564 58.0399C55.694 58.1406 55.72 58.3169 55.616 58.4176C55.538 58.5435 55.356 58.5687 55.2259 58.468Z" fill="#141D1E"/>
<path id="Vector_164" d="M56.1879 59.8027C56.0579 59.702 56.0319 59.5257 56.1359 59.425C56.2399 59.299 56.4219 59.2739 56.5259 59.3746C56.6559 59.4753 56.6819 59.6516 56.5779 59.7523C56.4999 59.8782 56.3179 59.9034 56.1879 59.8027Z" fill="#141D1E"/>
<path id="Vector_165" d="M56.1879 61.5403C56.0579 61.4396 56.0319 61.2633 56.1359 61.1626C56.2399 61.0366 56.4219 61.0115 56.5259 61.1122C56.6559 61.2129 56.6819 61.3892 56.5779 61.4899C56.4999 61.5907 56.3179 61.6158 56.1879 61.5403Z" fill="#141D1E"/>
<path id="Vector_166" d="M56.4217 63.5297C56.3177 63.4542 56.3177 63.3031 56.3957 63.2024L56.8118 62.7491C56.8898 62.6483 57.0458 62.6483 57.1498 62.7239C57.2539 62.7994 57.2538 62.9505 57.1758 63.0513L56.7598 63.5046C56.6558 63.6053 56.4997 63.6053 56.4217 63.5297Z" fill="#141D1E"/>
<path id="Vector_167" d="M53.9515 64.5623C53.9255 64.4363 54.0035 64.3104 54.1075 64.2852L54.7056 64.1342C54.8356 64.109 54.9656 64.1845 54.9916 64.2852C55.0176 64.4112 54.9396 64.5371 54.8096 64.5623L54.2115 64.7133C54.1075 64.7637 53.9775 64.6882 53.9515 64.5623Z" fill="#141D1E"/>
<path id="Vector_168" d="M51.5335 63.9327C51.5855 63.8319 51.7415 63.7816 51.8455 63.8319L52.4176 64.109C52.5216 64.1593 52.5736 64.3104 52.5216 64.4111C52.4696 64.5119 52.3136 64.5623 52.2096 64.5119L51.6375 64.2349C51.5335 64.1845 51.4815 64.0334 51.5335 63.9327Z" fill="#141D1E"/>
<path id="Vector_169" d="M49.8952 62.0439C49.9992 61.9936 50.1552 62.0188 50.2072 62.1447L50.4933 62.6735C50.5453 62.7742 50.4933 62.9253 50.3893 62.9757C50.2853 63.0261 50.1292 62.9757 50.0772 62.875L49.7912 62.3461C49.7392 62.2454 49.7652 62.1195 49.8952 62.0439Z" fill="#141D1E"/>
<path id="Vector_170" d="M49.6089 59.6515C49.7389 59.6767 49.8169 59.7774 49.8169 59.9034L49.7389 60.5077C49.7129 60.6337 49.6089 60.7092 49.4789 60.7092C49.3488 60.684 49.2708 60.5833 49.2708 60.4574L49.3488 59.853C49.3749 59.7271 49.4789 59.6515 49.6089 59.6515Z" fill="#141D1E"/>
<path id="Vector_171" d="M50.7527 57.5614C50.8567 57.637 50.8828 57.788 50.8047 57.8888L50.4147 58.3672C50.3367 58.468 50.1807 58.4932 50.0767 58.4176C49.9726 58.3421 49.9466 58.191 50.0246 58.0902L50.4147 57.6118C50.4927 57.511 50.6487 57.4859 50.7527 57.5614Z" fill="#141D1E"/>
<path id="Vector_172" d="M57.7737 59.6012C57.6437 59.6012 57.5397 59.702 57.5397 59.8279L57.5657 60.4323C57.5657 60.5582 57.6697 60.6589 57.7997 60.6589C57.9297 60.6589 58.0337 60.5582 58.0337 60.4323L58.0077 59.8279C58.0077 59.6768 57.9037 59.5761 57.7737 59.6012Z" fill="#141D1E"/>
<path id="Vector_173" d="M56.4478 57.5362C56.3438 57.6118 56.3438 57.7629 56.4218 57.8636L56.8379 58.3169C56.9159 58.4176 57.0719 58.4176 57.1759 58.3421C57.2799 58.2665 57.2799 58.1154 57.1759 58.0147L56.7599 57.5614C56.7078 57.4607 56.5518 57.4607 56.4478 57.5362Z" fill="#141D1E"/>
<path id="Vector_174" d="M54.1335 56.5542C54.1075 56.6801 54.1855 56.806 54.3155 56.806L54.9396 56.9067C55.0696 56.9319 55.1996 56.8563 55.1996 56.7304C55.2256 56.6045 55.1476 56.4786 55.0176 56.4786L54.3935 56.3779C54.2635 56.3275 54.1595 56.4282 54.1335 56.5542Z" fill="#141D1E"/>
<path id="Vector_175" d="M51.6891 56.9822C51.7411 57.1081 51.8711 57.1585 52.0011 57.1081L52.5732 56.8563C52.7032 56.8059 52.7552 56.68 52.7032 56.5541C52.6512 56.4282 52.5212 56.3778 52.3912 56.4282L51.8191 56.68C51.6891 56.7304 51.6371 56.8563 51.6891 56.9822Z" fill="#141D1E"/>
</g>
<path id="Vector_176" d="M61.4925 59.2738C61.1545 57.2844 60.0884 55.5468 58.4241 54.338C56.7339 53.104 54.6537 52.6004 52.5474 52.9026C50.4672 53.2048 48.5949 54.2625 47.3468 55.8993C46.5927 56.8815 46.0726 58.0399 45.8906 59.2738H44.2264C44.4344 57.7125 45.0585 56.2267 46.0466 54.9676C47.5808 52.9781 49.7911 51.6938 52.3134 51.3412C54.8357 50.9887 57.358 51.5931 59.3863 53.0789C61.4665 54.5898 62.7927 56.7807 63.1567 59.2738H61.4925Z" fill="#474747"/>
<g id="Group_12">
<path id="Vector_177" d="M68.071 67.2568C64.1965 64.4615 63.4164 59.1731 66.2768 55.4209C69.1631 51.6686 74.6238 50.9132 78.4982 53.6833C82.3727 56.4786 83.1528 61.7669 80.2925 65.5192C77.4061 69.2714 71.9455 70.0521 68.071 67.2568Z" fill="#141D1E"/>
<path id="Vector_178" d="M70.3592 64.3104C68.175 62.7239 67.7329 59.7523 69.3451 57.6369C70.9833 55.5216 74.0517 55.0935 76.2359 56.6548C78.4202 58.2413 78.8622 61.2129 77.2501 63.3282C75.6119 65.4436 72.5435 65.8969 70.3592 64.3104Z" fill="#3C5151"/>
<path id="Vector_179" d="M70.568 64.0334C68.5397 62.5728 68.1237 59.8027 69.6319 57.8385C71.1401 55.8742 74.0004 55.4713 76.0287 56.9319C78.0569 58.3925 78.473 61.1626 76.9648 63.1269C75.4566 65.0911 72.5962 65.494 70.568 64.0334Z" fill="#2A3C3D"/>
<path id="Vector_180" d="M71.0621 63.3786C69.3979 62.195 69.0599 59.9034 70.308 58.3169C71.5301 56.7052 73.8964 56.3778 75.5346 57.5866C77.1988 58.7702 77.5369 61.0618 76.2887 62.6483C75.0666 64.26 72.7263 64.5874 71.0621 63.3786Z" fill="#476363"/>
<path id="Vector_181" d="M71.3218 63.026C69.8656 61.9684 69.5536 59.9789 70.6457 58.5687C71.7379 57.1585 73.7921 56.8563 75.2483 57.9139C76.7045 58.9716 77.0165 60.9611 75.9244 62.3713C74.8582 63.8067 72.778 64.0837 71.3218 63.026Z" fill="#607C7B"/>
<path id="Vector_182" d="M71.92 62.2706C70.9059 61.5403 70.6719 60.13 71.452 59.1227C72.2061 58.1406 73.6623 57.914 74.7024 58.6694C75.7165 59.3997 75.9505 60.81 75.1704 61.8173C74.3903 62.8246 72.9342 63.0261 71.92 62.2706Z" fill="#2A3C3D"/>
<path id="Vector_183" d="M72.6219 61.364C72.1279 61.0115 72.0238 60.3315 72.3879 59.8279C72.7519 59.3494 73.454 59.2487 73.9741 59.6012C74.4681 59.9538 74.5722 60.6337 74.2081 61.1374C73.8181 61.6158 73.116 61.7166 72.6219 61.364Z" fill="#141D1E"/>
<path id="Vector_184" d="M74.6503 62.9505C74.5202 62.8498 74.4942 62.6735 74.5982 62.5728C74.7023 62.4468 74.8843 62.4217 74.9883 62.5224C75.1183 62.6231 75.1443 62.7994 75.0403 62.9001C74.9623 63.026 74.7803 63.0512 74.6503 62.9505Z" fill="#141D1E"/>
<path id="Vector_185" d="M72.934 63.3787C72.804 63.278 72.778 63.1017 72.882 63.0009C72.986 62.875 73.168 62.8498 73.272 62.9506C73.402 63.0513 73.428 63.2276 73.324 63.3283C73.246 63.4542 73.064 63.4794 72.934 63.3787Z" fill="#141D1E"/>
<path id="Vector_186" d="M71.3476 62.7742C71.2176 62.6735 71.1915 62.4972 71.2956 62.3965C71.3996 62.2706 71.5816 62.2454 71.6856 62.3461C71.8156 62.4469 71.8416 62.6231 71.7376 62.7239C71.6336 62.8498 71.4776 62.8749 71.3476 62.7742Z" fill="#141D1E"/>
<path id="Vector_187" d="M70.4115 61.2381C70.2815 61.1374 70.2555 60.9611 70.3595 60.8604C70.4635 60.7345 70.6455 60.7093 70.7495 60.81C70.8795 60.9107 70.9056 61.087 70.8015 61.1877C70.7235 61.2885 70.5415 61.3137 70.4115 61.2381Z" fill="#141D1E"/>
<path id="Vector_188" d="M70.5678 59.576C70.4378 59.4753 70.4118 59.299 70.5158 59.1983C70.6198 59.0723 70.8018 59.0472 70.9058 59.1479C71.0358 59.2486 71.0618 59.4249 70.9578 59.5256C70.8538 59.6516 70.6978 59.6767 70.5678 59.576Z" fill="#141D1E"/>
<path id="Vector_189" d="M71.6596 58.3421C71.5295 58.2413 71.5035 58.0651 71.6075 57.9643C71.7116 57.8384 71.8936 57.8132 71.9976 57.914C72.1276 58.0147 72.1536 58.191 72.0496 58.2917C71.9716 58.4176 71.7896 58.4428 71.6596 58.3421Z" fill="#141D1E"/>
<path id="Vector_190" d="M73.2723 57.9643C73.1423 57.8636 73.1163 57.6873 73.2203 57.5866C73.3243 57.4607 73.5064 57.4355 73.6104 57.5362C73.7404 57.6369 73.7664 57.8132 73.6624 57.9139C73.5844 58.0399 73.4023 58.065 73.2723 57.9643Z" fill="#141D1E"/>
<path id="Vector_191" d="M74.8324 58.468C74.7024 58.3672 74.6764 58.191 74.7804 58.0902C74.8844 57.9643 75.0664 57.9391 75.1704 58.0399C75.3004 58.1406 75.3265 58.3169 75.2224 58.4176C75.1444 58.5435 74.9624 58.5687 74.8324 58.468Z" fill="#141D1E"/>
<path id="Vector_192" d="M75.7943 59.8027C75.6643 59.702 75.6383 59.5257 75.7423 59.425C75.8463 59.299 76.0283 59.2739 76.1324 59.3746C76.2624 59.4753 76.2884 59.6516 76.1844 59.7523C76.1063 59.8782 75.9243 59.9034 75.7943 59.8027Z" fill="#141D1E"/>
<path id="Vector_193" d="M75.7943 61.5403C75.6643 61.4396 75.6383 61.2633 75.7423 61.1626C75.8463 61.0366 76.0283 61.0115 76.1324 61.1122C76.2624 61.2129 76.2884 61.3892 76.1844 61.4899C76.1063 61.5907 75.9243 61.6158 75.7943 61.5403Z" fill="#141D1E"/>
<path id="Vector_194" d="M76.0023 63.5297C75.8983 63.4542 75.8983 63.3031 75.9763 63.2024L76.3924 62.7491C76.4704 62.6483 76.6264 62.6483 76.7304 62.7239C76.8344 62.7994 76.8344 62.9505 76.7564 63.0513L76.3404 63.5046C76.2624 63.6053 76.1063 63.6053 76.0023 63.5297Z" fill="#141D1E"/>
<path id="Vector_195" d="M73.5582 64.5623C73.5322 64.4363 73.6102 64.3104 73.7403 64.2852L74.3383 64.1342C74.4683 64.109 74.5984 64.1845 74.6244 64.2852C74.6504 64.4112 74.5724 64.5371 74.4683 64.5623L73.8703 64.7133C73.7143 64.7637 73.5842 64.6882 73.5582 64.5623Z" fill="#141D1E"/>
<path id="Vector_196" d="M71.1399 63.9327C71.1919 63.8319 71.348 63.7816 71.452 63.8319L72.024 64.109C72.128 64.1593 72.18 64.3104 72.128 64.4111C72.076 64.5119 71.92 64.5623 71.816 64.5119L71.2439 64.2349C71.1399 64.1845 71.0879 64.0334 71.1399 63.9327Z" fill="#141D1E"/>
<path id="Vector_197" d="M69.5011 62.0439C69.6052 61.9936 69.7612 62.0188 69.8132 62.1447L70.0992 62.6735C70.1512 62.7742 70.0992 62.9253 69.9952 62.9757C69.8912 63.0261 69.7352 62.9757 69.6832 62.875L69.3971 62.3461C69.3191 62.2454 69.3711 62.1195 69.5011 62.0439Z" fill="#141D1E"/>
<path id="Vector_198" d="M69.2158 59.6515C69.3458 59.6767 69.4238 59.7774 69.4238 59.9034L69.3458 60.5077C69.3198 60.6337 69.2158 60.7092 69.0858 60.7092C68.9558 60.684 68.8778 60.5833 68.8778 60.4574L68.9558 59.853C68.9818 59.7271 69.0858 59.6515 69.2158 59.6515Z" fill="#141D1E"/>
<path id="Vector_199" d="M70.3338 57.5614C70.4378 57.637 70.4638 57.788 70.3858 57.8888L69.9958 58.3672C69.9178 58.468 69.7618 58.4932 69.6577 58.4176C69.5537 58.3421 69.5277 58.191 69.6057 58.0902L69.9958 57.6118C70.0998 57.511 70.2298 57.4859 70.3338 57.5614Z" fill="#141D1E"/>
<path id="Vector_200" d="M77.3801 59.6012C77.2501 59.6012 77.1461 59.702 77.1461 59.8279L77.1721 60.4323C77.1721 60.5582 77.2761 60.6589 77.4061 60.6589C77.5361 60.6589 77.6401 60.5582 77.6401 60.4323L77.6141 59.8279C77.6141 59.6768 77.5101 59.5761 77.3801 59.6012Z" fill="#141D1E"/>
<path id="Vector_201" d="M76.0543 57.5362C75.9503 57.6118 75.9503 57.7629 76.0283 57.8636L76.4443 58.3169C76.5223 58.4176 76.6783 58.4176 76.7823 58.3421C76.8864 58.2665 76.8864 58.1154 76.7823 58.0147L76.3663 57.5614C76.2883 57.4607 76.1583 57.4607 76.0543 57.5362Z" fill="#141D1E"/>
<path id="Vector_202" d="M73.7399 56.5542C73.7139 56.6801 73.7919 56.806 73.922 56.806L74.546 56.9067C74.676 56.9319 74.8061 56.8563 74.8061 56.7304C74.8321 56.6045 74.754 56.4786 74.624 56.4786L74 56.3779C73.8699 56.3275 73.7399 56.4282 73.7399 56.5542Z" fill="#141D1E"/>
<path id="Vector_203" d="M71.2701 56.9822C71.3221 57.1081 71.4521 57.1585 71.5822 57.1081L72.1542 56.8563C72.2843 56.8059 72.3363 56.68 72.2843 56.5541C72.2323 56.4282 72.1023 56.3778 71.9722 56.4282L71.4001 56.68C71.2701 56.7304 71.2181 56.8563 71.2701 56.9822Z" fill="#141D1E"/>
</g>
<path id="Vector_204" d="M81.099 59.2738C80.7609 57.2844 79.6948 55.5468 78.0306 54.338C76.3404 53.104 74.2601 52.6004 72.1539 52.9026C70.0736 53.2048 68.2014 54.2625 66.9532 55.8993C66.1991 56.8815 65.6791 58.0399 65.497 59.2738H63.8328C64.0409 57.7125 64.6649 56.2267 65.6531 54.9676C67.1873 52.9781 69.3975 51.6938 71.9198 51.3412C74.4422 50.9887 76.9645 51.5931 78.9927 53.0789C81.073 54.5898 82.3991 56.7807 82.7632 59.2738H81.099Z" fill="#474747"/>
<path id="Vector_205" d="M255.45 41.3941V41.4696C255.45 42.8547 254.15 42.8547 254.15 42.8547H214.417V41.3941H255.45Z" fill="#DD7619"/>
<path id="Vector_206" d="M247.233 29.7092C248.352 29.7092 249.262 28.8278 249.262 27.745V17.7223C249.262 16.6394 248.352 15.758 247.233 15.758H235.142C234.024 15.758 233.114 16.6394 233.114 17.7223V27.745C233.114 28.8278 234.024 29.7092 235.142 29.7092H247.233Z" fill="#DD7619"/>
<path id="Vector_207" d="M233.348 26.4355C233.452 26.4355 233.556 26.5362 233.556 26.637V40.5127L248.664 40.4875V29.81C248.82 29.7345 248.95 29.6337 249.08 29.533V40.6638C249.08 40.7645 248.976 40.8652 248.872 40.8652L233.348 40.8904C233.296 40.8904 233.244 40.8652 233.192 40.8401C233.166 40.8149 233.14 40.7645 233.14 40.689V26.6118C233.14 26.5111 233.218 26.4355 233.348 26.4355Z" fill="#DD7619"/>
<path id="Vector_208" d="M233.504 27.3421C233.504 28.4249 234.414 29.3063 235.532 29.3063H246.817C247.936 29.3063 248.846 28.4249 248.846 27.3421V18.1C248.846 17.0171 247.936 16.1357 246.817 16.1357H235.532C234.414 16.1357 233.504 17.0171 233.504 18.1V27.3421Z" fill="#FFCDA4"/>
<path id="Vector_209" d="M231.605 49.7044H245.257L249.027 55.8993L248.975 62.4216H247.805V56.2771L244.451 51.1398H232.359L229.057 56.2771V62.4216H227.887L227.835 55.8993L231.605 49.7044Z" fill="#DD7619"/>
<path id="Vector_210" d="M237.638 31.044C237.638 31.3714 237.352 31.6484 237.014 31.6484H235.506C235.168 31.6484 234.882 31.3714 234.882 31.044V30.9181C234.882 30.5907 235.168 30.3137 235.506 30.3137H237.014C237.352 30.3137 237.638 30.5907 237.638 30.9181V31.044Z" fill="#BF6717"/>
<path id="Vector_211" d="M235.61 30.4647H236.91C237.196 30.4647 237.43 30.6914 237.43 30.9684V31.0439H235.064V30.9684C235.09 30.6914 235.324 30.4647 235.61 30.4647Z" fill="#DD7619"/>
<path id="Vector_212" d="M251.524 15.1536C250.926 14.5996 250.146 14.65 250.12 14.65H243.021C242.969 14.5493 242.839 14.4737 242.709 14.4737C242.501 14.4737 242.345 14.6248 242.345 14.8263C242.345 15.0277 242.501 15.1788 242.709 15.1788C242.813 15.1788 242.917 15.1285 242.969 15.0529H250.146C250.146 15.0529 250.796 15.0277 251.264 15.4558C251.602 15.7832 251.784 16.2617 251.784 16.8913L251.394 28.7523C251.394 28.7775 251.316 29.6337 249.626 29.6337H249.209C249.157 29.533 249.027 29.4574 248.897 29.4574C248.689 29.4574 248.533 29.6085 248.533 29.81C248.533 30.0115 248.689 30.1626 248.897 30.1626C249.001 30.1626 249.105 30.1122 249.157 30.0367H249.6C251.706 30.0367 251.784 28.8531 251.784 28.8027L252.174 16.9416C252.174 16.1358 251.966 15.5566 251.524 15.1536Z" fill="#BF6717"/>
<path id="Vector_213" d="M249.443 15.8335L249.911 22.0285C249.911 22.0285 250.145 22.7588 250.769 22.6077C251.394 22.4566 252.772 21.5248 252.746 20.3664L252.512 17.6719C252.512 17.6719 251.992 15.6321 249.443 15.8335Z" fill="#63330B"/>
<path id="Vector_214" d="M249.47 25.0001L249.834 28.3242C249.834 28.3242 252.304 27.9465 252.434 27.3673C252.564 26.7881 252.304 25.7052 252.304 25.7052C252.304 25.7052 251.342 24.6979 249.47 25.0001Z" fill="#63330B"/>
<path id="Vector_215" d="M249.938 16.0098C249.938 16.0098 251.888 16.3372 252.382 17.7978L252.486 19.611L252.096 17.7726C252.096 17.7726 251.394 16.6142 249.99 16.4379L249.938 16.0098Z" fill="#BF6717"/>
<path id="Vector_216" d="M187.608 1.85718H205.368V47.0602H187.608V1.85718Z" fill="#1E6B53"/>
<path id="Vector_217" d="M164.933 1.85718H182.693V47.0602H164.933V1.85718Z" fill="#1E6B53"/>
<path id="Vector_218" d="M142.258 1.85718H160.019V47.0602H142.258V1.85718Z" fill="#1E6B53"/>
<path id="Vector_219" d="M119.584 1.85718H137.344V47.0602H119.584V1.85718Z" fill="#1E6B53"/>
<path id="Vector_220" d="M96.9088 1.85718H114.669V47.0602H96.9088V1.85718Z" fill="#1E6B53"/>
<path id="Vector_221" d="M74.2081 1.85718H91.9683V47.0602H74.2081V1.85718Z" fill="#1E6B53"/>
<path id="Vector_222" d="M51.5333 1.85718H69.2935V47.0602H51.5333V1.85718Z" fill="#1E6B53"/>
<path id="Vector_223" d="M28.8585 1.85718H46.6187V47.0602H28.8585V1.85718Z" fill="#1E6B53"/>
<path id="Vector_224" d="M6.18318 1.85718H23.9434V47.0602H6.18318V1.85718Z" fill="#1E6B53"/>
<path id="Vector_225" d="M241.824 23.741C245.855 25.9067 241.252 21.5249 243.566 21.8523C244.945 22.0537 247.233 23.5899 248.871 24.7986V27.3421C248.871 28.425 247.961 29.3063 246.843 29.3063H235.557C234.439 29.3063 233.529 28.425 233.529 27.3421V19.8376C236.624 20.719 239.198 22.3307 241.824 23.741Z" fill="#FFBC80"/>
<g id="Group_13">
<path id="Vector_226" d="M214.209 53.1292H214.625V61.3892H214.209V53.1292Z" fill="#DD7619"/>
</g>
<g id="logo" opacity="0.8">
<g id="Group_14" opacity="0.7">
<path id="Vector_227" opacity="0.7" d="M98.7285 30.8174H97.5324C97.2723 30.49 97.0383 30.1878 96.8303 29.936C96.6223 29.6841 96.3882 29.4323 96.1282 29.1805H95.6862V30.3389C95.6862 30.3892 95.6861 30.4396 95.7121 30.49C95.7382 30.5403 95.7902 30.5655 95.8682 30.5907C95.8942 30.5907 95.9722 30.6159 96.0762 30.6159C96.1802 30.6159 96.2582 30.6411 96.3102 30.6411V30.8174H94.438V30.6411C94.49 30.6411 94.568 30.6411 94.646 30.6159C94.75 30.6159 94.802 30.5907 94.854 30.5907C94.9061 30.5655 94.9581 30.5403 94.9841 30.49C95.0101 30.4396 95.0361 30.3892 95.0361 30.3137V27.6947C95.0361 27.6443 95.0361 27.594 95.0101 27.5436C94.9841 27.4932 94.9321 27.4681 94.854 27.4429C94.802 27.4177 94.724 27.4177 94.646 27.3925C94.568 27.3673 94.49 27.3673 94.438 27.3673V27.191H96.4662C96.6483 27.191 96.8303 27.2162 96.9863 27.2414C97.1423 27.2666 97.2983 27.317 97.4283 27.3925C97.5584 27.4681 97.6624 27.5436 97.7404 27.6695C97.8184 27.7702 97.8444 27.9213 97.8444 28.0724C97.8444 28.2235 97.8184 28.3243 97.7664 28.4502C97.7144 28.5509 97.6364 28.6516 97.5324 28.7272C97.4284 28.8027 97.3243 28.8531 97.1943 28.9286C97.0643 29.0042 96.9083 29.0294 96.7523 29.0546C96.9603 29.2812 97.1423 29.4827 97.2983 29.659C97.4543 29.81 97.6104 30.0115 97.8184 30.2382C97.9224 30.3389 98.0004 30.4144 98.0524 30.4648C98.1304 30.5152 98.2084 30.5655 98.2604 30.5907C98.3125 30.6159 98.3905 30.6411 98.4685 30.6411C98.5465 30.6411 98.6245 30.6663 98.6765 30.6663V30.8174H98.7285ZM97.0903 28.1228C97.0903 27.8962 97.0123 27.7199 96.8563 27.594C96.7003 27.4681 96.4922 27.3925 96.2062 27.3925H95.6862V28.9538H96.1022C96.3882 28.9538 96.6223 28.8783 96.8043 28.7272C97.0123 28.5761 97.0903 28.3746 97.0903 28.1228Z" fill="white"/>
<path id="Vector_228" opacity="0.7" d="M102.577 27.6192C102.759 27.7954 102.915 27.9969 103.045 28.2235C103.175 28.4502 103.201 28.7272 103.201 29.0042C103.201 29.2812 103.149 29.5582 103.045 29.7849C102.941 30.0115 102.785 30.213 102.577 30.3893C102.395 30.5655 102.161 30.6914 101.901 30.767C101.641 30.8677 101.381 30.8929 101.095 30.8929C100.783 30.8929 100.497 30.8425 100.237 30.7418C99.977 30.6411 99.743 30.5152 99.561 30.3389C99.3789 30.1626 99.2229 29.9612 99.1189 29.7345C99.0149 29.5079 98.9629 29.256 98.9629 28.979C98.9629 28.6768 99.0149 28.425 99.1189 28.1984C99.2229 27.9717 99.3789 27.7703 99.587 27.594C99.769 27.4177 100.003 27.2918 100.263 27.2162C100.523 27.1155 100.783 27.0903 101.069 27.0903C101.355 27.0903 101.641 27.1407 101.901 27.2162C102.161 27.2918 102.395 27.4681 102.577 27.6192ZM102.135 30.1878C102.239 30.0367 102.343 29.8604 102.395 29.659C102.447 29.4575 102.473 29.256 102.473 29.0042C102.473 28.7524 102.447 28.5257 102.395 28.3243C102.343 28.1228 102.239 27.9465 102.135 27.7954C102.031 27.6443 101.875 27.5436 101.719 27.4681C101.537 27.3925 101.355 27.3421 101.121 27.3421C100.861 27.3421 100.653 27.3925 100.497 27.4932C100.341 27.594 100.185 27.7199 100.081 27.871C99.977 28.0221 99.899 28.1984 99.847 28.3998C99.795 28.6013 99.769 28.8027 99.769 29.0294C99.769 29.2812 99.795 29.5079 99.847 29.6841C99.899 29.8856 99.977 30.0619 100.107 30.213C100.211 30.3641 100.367 30.49 100.523 30.5655C100.705 30.6411 100.887 30.6914 101.121 30.6914C101.355 30.6914 101.537 30.6411 101.719 30.5655C101.875 30.4648 102.005 30.3389 102.135 30.1878Z" fill="white"/>
<path id="Vector_229" opacity="0.7" d="M107.804 27.3674C107.778 27.3674 107.7 27.3926 107.648 27.3926C107.57 27.4177 107.518 27.4429 107.492 27.4429C107.414 27.4933 107.362 27.5185 107.336 27.5436C107.31 27.5688 107.258 27.6192 107.18 27.7199C107.024 27.8962 106.868 28.0977 106.738 28.2991C106.608 28.5006 106.426 28.7272 106.218 29.0294C106.14 29.1302 106.088 29.2309 106.062 29.2813C106.036 29.3568 106.036 29.4323 106.036 29.5583V30.2634C106.036 30.3137 106.062 30.3893 106.088 30.4145C106.114 30.4648 106.166 30.49 106.244 30.5152C106.296 30.5404 106.374 30.5404 106.478 30.5656C106.582 30.5908 106.686 30.5908 106.738 30.5908V30.767H104.684V30.5908C104.736 30.5908 104.84 30.5908 104.944 30.5656C105.048 30.5656 105.152 30.5404 105.178 30.5404C105.256 30.5152 105.308 30.49 105.334 30.4397C105.36 30.3893 105.386 30.3389 105.386 30.2886V29.4072C105.386 29.382 105.36 29.3316 105.334 29.2561C105.282 29.1805 105.256 29.105 105.178 29.0042C105.048 28.8028 104.918 28.6013 104.762 28.3747C104.606 28.148 104.476 27.9466 104.372 27.7955C104.294 27.6947 104.242 27.6192 104.19 27.5688C104.138 27.5185 104.086 27.4681 104.008 27.4429C103.956 27.4177 103.904 27.3926 103.826 27.3926C103.748 27.3674 103.696 27.3674 103.644 27.3674V27.1911H105.516V27.3674C105.308 27.3674 105.152 27.3926 105.074 27.3926C104.996 27.3926 104.944 27.4429 104.944 27.4681C104.944 27.4681 104.944 27.4933 104.97 27.5185C104.97 27.5436 104.996 27.5688 105.022 27.6192C105.048 27.6696 105.074 27.7199 105.126 27.7703C105.152 27.8207 105.204 27.871 105.23 27.9466C105.334 28.0977 105.438 28.2488 105.516 28.3999C105.62 28.551 105.75 28.7524 105.906 28.9791C106.218 28.551 106.478 28.2236 106.66 27.9718C106.842 27.7199 106.92 27.594 106.92 27.5436C106.92 27.4933 106.894 27.4681 106.868 27.4429C106.842 27.4177 106.79 27.3926 106.738 27.3926C106.686 27.3674 106.608 27.3674 106.53 27.3674C106.452 27.3674 106.4 27.3674 106.322 27.3422V27.1659H107.856V27.3674H107.804Z" fill="white"/>
<path id="Vector_230" opacity="0.7" d="M112.406 30.8174H110.586V30.6411C110.742 30.6411 110.872 30.6159 110.976 30.5907C111.08 30.5655 111.132 30.5404 111.132 30.49C111.132 30.4648 111.132 30.4648 111.132 30.4396C111.132 30.4144 111.132 30.3893 111.106 30.3893L110.742 29.5834H109.208C109.156 29.7093 109.104 29.8101 109.078 29.8856C109.052 29.9863 109 30.0619 108.974 30.1374C108.948 30.213 108.922 30.2633 108.922 30.3137C108.922 30.3641 108.896 30.3893 108.896 30.4144C108.896 30.49 108.974 30.5404 109.104 30.5655C109.234 30.5907 109.39 30.6159 109.546 30.6411V30.8174H107.882V30.6411C107.934 30.6411 108.012 30.6159 108.09 30.6159C108.168 30.5907 108.246 30.5655 108.298 30.5404C108.376 30.49 108.454 30.4396 108.48 30.3893C108.532 30.3389 108.558 30.2633 108.61 30.1878C108.844 29.7345 109.078 29.2309 109.338 28.6517C109.598 28.0725 109.832 27.5688 110.04 27.1407H110.3L111.756 30.2633C111.782 30.3389 111.834 30.3893 111.86 30.4144C111.912 30.4648 111.964 30.49 112.016 30.5404C112.068 30.5655 112.12 30.5907 112.198 30.5907C112.276 30.6159 112.328 30.6159 112.38 30.6159L112.406 30.8174ZM110.638 29.3316L109.962 27.9214L109.312 29.3316H110.638Z" fill="white"/>
<path id="Vector_231" opacity="0.7" d="M116.359 29.7345L116.255 30.8174H112.823V30.6411C112.875 30.6411 112.953 30.6411 113.031 30.6159C113.135 30.6159 113.187 30.5907 113.239 30.5907C113.291 30.5656 113.343 30.5404 113.369 30.49C113.395 30.4397 113.421 30.3893 113.421 30.3137V27.7199C113.421 27.6695 113.421 27.6192 113.395 27.5688C113.369 27.5185 113.317 27.4933 113.265 27.4681C113.213 27.4429 113.161 27.4177 113.057 27.4177C112.979 27.3925 112.901 27.3925 112.849 27.3925V27.2163H114.721V27.3925C114.669 27.3925 114.591 27.3925 114.487 27.4177C114.383 27.4429 114.331 27.4429 114.279 27.4681C114.201 27.4933 114.149 27.5185 114.123 27.5688C114.097 27.6192 114.071 27.6695 114.071 27.7199V30.1626C114.071 30.2634 114.071 30.3641 114.097 30.4145C114.123 30.4648 114.149 30.5152 114.201 30.5656C114.253 30.5907 114.331 30.6159 114.409 30.6159C114.513 30.6159 114.643 30.6411 114.799 30.6411C114.877 30.6411 114.955 30.6411 115.033 30.6411C115.111 30.6411 115.189 30.6411 115.267 30.6159C115.345 30.6159 115.397 30.5907 115.475 30.5656C115.527 30.5404 115.579 30.5152 115.605 30.49C115.683 30.4145 115.787 30.2886 115.891 30.1375C115.995 29.9864 116.073 29.8604 116.125 29.7597H116.359V29.7345Z" fill="white"/>
<path id="Vector_232" opacity="0.7" d="M88.9256 33.2098C88.8476 33.2098 88.7176 33.235 88.5875 33.2601C88.4315 33.2853 88.3015 33.3357 88.2235 33.386C88.1195 33.4364 88.0675 33.5623 88.0155 33.7386C87.9895 33.9149 87.9635 34.1415 87.9635 34.3934V36.685C87.9635 36.9872 87.8855 37.239 87.7555 37.4405C87.6254 37.6671 87.4434 37.8434 87.2094 37.9693C86.9753 38.0952 86.7413 38.196 86.5073 38.2463C86.2472 38.2967 86.0132 38.3219 85.8052 38.3219C85.4412 38.3219 85.1291 38.2715 84.8431 38.196C84.557 38.1204 84.323 37.9945 84.115 37.8686C83.933 37.7175 83.7769 37.5664 83.6729 37.3901C83.5689 37.2138 83.5169 37.0124 83.5169 36.8109V33.7134C83.5169 33.6379 83.4909 33.5623 83.4649 33.4868C83.4389 33.4364 83.3609 33.386 83.2569 33.3357C83.1789 33.3105 83.1009 33.2853 82.9968 33.2601C82.8928 33.235 82.7888 33.2349 82.7368 33.2098V32.9579H85.2591V33.2098C85.1811 33.2098 85.0771 33.235 84.9471 33.235C84.8171 33.2601 84.7391 33.2853 84.6871 33.2853C84.583 33.3105 84.531 33.3609 84.505 33.4364C84.479 33.512 84.453 33.5875 84.453 33.6631V36.5591C84.453 36.7102 84.479 36.8361 84.505 37.0124C84.531 37.1886 84.6091 37.3146 84.7131 37.4405C84.8171 37.5664 84.9731 37.6923 85.1551 37.7679C85.3371 37.8434 85.5972 37.8938 85.9352 37.8938C86.2473 37.8938 86.5073 37.8434 86.7153 37.7679C86.9233 37.6923 87.1054 37.5664 87.2094 37.4405C87.3134 37.3146 87.4174 37.1635 87.4694 37.0124C87.5214 36.8613 87.5474 36.7102 87.5474 36.5843V34.4437C87.5474 34.1667 87.5214 33.9401 87.4694 33.7638C87.4174 33.5875 87.3654 33.4868 87.2614 33.4112C87.1574 33.3609 87.0274 33.3105 86.8453 33.2601C86.6633 33.235 86.5333 33.2098 86.4553 33.2098V32.9579H88.9256V33.2098Z" fill="white"/>
<path id="Vector_233" opacity="0.7" d="M95.9206 33.2097C95.8426 33.2097 95.7126 33.2349 95.5566 33.2601C95.4005 33.2853 95.2705 33.3356 95.1925 33.386C95.0885 33.4363 95.0105 33.5623 94.9845 33.7385C94.9585 33.9148 94.9325 34.1415 94.9325 34.3933V38.2211H94.5684L90.902 33.94V36.6346C90.902 36.9367 90.928 37.1634 90.98 37.3397C91.032 37.4908 91.084 37.6167 91.188 37.6922C91.266 37.7426 91.396 37.793 91.6041 37.8433C91.8121 37.8937 91.9421 37.9189 92.0201 37.9189V38.1707H89.5498V37.9189C89.6278 37.9189 89.7578 37.8937 89.9399 37.8433C90.1219 37.793 90.2259 37.7678 90.2779 37.7174C90.3819 37.6419 90.4339 37.5411 90.4859 37.39C90.5119 37.2389 90.5379 37.0123 90.5379 36.6597V34.0659C90.5379 33.9652 90.5119 33.8393 90.4599 33.7134C90.4079 33.6126 90.3559 33.5119 90.2779 33.4615C90.1739 33.386 90.0439 33.3104 89.8618 33.2601C89.6798 33.2097 89.5498 33.1593 89.4458 33.1593V32.9075H91.162L94.5684 36.9116V34.4185C94.5684 34.1163 94.5424 33.8896 94.4904 33.7134C94.4384 33.5623 94.3864 33.4363 94.2824 33.386C94.2044 33.3356 94.0744 33.2853 93.8923 33.2601C93.7103 33.2097 93.5803 33.1845 93.4763 33.1845V32.9327H95.9466V33.2097H95.9206Z" fill="white"/>
<path id="Vector_234" opacity="0.7" d="M99.535 38.1707H96.8047V37.9189C96.8827 37.9189 96.9867 37.9189 97.1427 37.8937C97.2987 37.8937 97.3768 37.8685 97.4548 37.8434C97.5588 37.8182 97.6108 37.7678 97.6628 37.7174C97.7148 37.6671 97.7148 37.5915 97.7148 37.4908V33.6882C97.7148 33.6127 97.6888 33.5371 97.6628 33.4616C97.6368 33.4112 97.5588 33.3608 97.4288 33.3105C97.3507 33.2853 97.2467 33.2601 97.1167 33.2349C96.9867 33.2097 96.8827 33.1846 96.8047 33.1846V32.9327H99.535V33.1846C99.457 33.1846 99.353 33.1845 99.223 33.2097C99.093 33.2349 98.9889 33.2349 98.9109 33.2601C98.8069 33.2853 98.7289 33.3356 98.7029 33.4112C98.6769 33.4867 98.6509 33.5623 98.6509 33.6378V37.4404C98.6509 37.516 98.6769 37.5915 98.7029 37.6671C98.7549 37.7426 98.8069 37.7678 98.9109 37.8182C98.9629 37.8434 99.067 37.8685 99.197 37.8937C99.327 37.9189 99.457 37.9189 99.535 37.9441V38.1707Z" fill="white"/>
<path id="Vector_235" opacity="0.7" d="M105.724 35.728C105.906 35.8287 106.036 35.9546 106.166 36.1309C106.27 36.3072 106.348 36.5087 106.348 36.7353C106.348 36.9871 106.296 37.1886 106.166 37.3649C106.036 37.5411 105.88 37.6922 105.698 37.8182C105.516 37.9441 105.282 38.0196 105.048 38.07C104.814 38.1203 104.553 38.1707 104.293 38.1707H101.433V37.9189C101.511 37.9189 101.589 37.8937 101.719 37.8937C101.849 37.8685 101.953 37.8685 102.005 37.8433C102.083 37.8182 102.161 37.7678 102.187 37.7174C102.213 37.6671 102.239 37.5915 102.239 37.4908V33.7134C102.239 33.6378 102.213 33.5623 102.187 33.4867C102.161 33.4112 102.083 33.3608 102.005 33.3356C101.927 33.3104 101.823 33.2601 101.719 33.2601C101.615 33.2349 101.537 33.2349 101.459 33.2349V32.9831H104.241C104.449 32.9831 104.657 33.0083 104.866 33.0334C105.074 33.0586 105.256 33.1342 105.438 33.2349C105.594 33.3104 105.75 33.4364 105.854 33.5875C105.958 33.7386 106.01 33.9148 106.01 34.1163C106.01 34.2926 105.984 34.4689 105.906 34.6199C105.828 34.771 105.724 34.897 105.594 34.9977C105.464 35.0984 105.308 35.174 105.152 35.2495C104.97 35.3251 104.788 35.3754 104.605 35.4006V35.4258C104.788 35.451 104.97 35.4762 105.178 35.5265C105.386 35.5517 105.568 35.6273 105.724 35.728ZM104.709 34.9473C104.814 34.8466 104.892 34.7207 104.918 34.5948C104.97 34.4689 104.97 34.3178 104.97 34.1415C104.97 33.8645 104.892 33.6378 104.709 33.4615C104.527 33.2853 104.241 33.2097 103.851 33.2097C103.773 33.2097 103.643 33.2097 103.513 33.2097C103.383 33.2097 103.253 33.2097 103.175 33.2097V35.2243H103.721C103.955 35.2243 104.163 35.1992 104.319 35.1488C104.475 35.1236 104.605 35.0481 104.709 34.9473ZM105.308 36.6346C105.308 36.3324 105.178 36.0805 104.944 35.8791C104.709 35.6776 104.371 35.5769 103.903 35.5769C103.721 35.5769 103.565 35.5769 103.435 35.5769C103.305 35.5769 103.227 35.5769 103.149 35.5769V37.4152C103.149 37.5663 103.227 37.6922 103.357 37.7678C103.513 37.8433 103.695 37.8937 103.955 37.8937C104.371 37.8937 104.71 37.793 104.918 37.5663C105.178 37.3649 105.308 37.0375 105.308 36.6346Z" fill="white"/>
<path id="Vector_236" opacity="0.7" d="M113.342 38.1708H111.704C111.34 37.6923 111.028 37.2642 110.716 36.9116C110.43 36.5591 110.118 36.1813 109.78 35.8036H109.156V37.4657C109.156 37.5412 109.182 37.6167 109.208 37.6923C109.234 37.7678 109.312 37.8182 109.416 37.8434C109.468 37.8686 109.546 37.8686 109.676 37.8938C109.806 37.9189 109.91 37.9189 109.988 37.9189V38.1708H107.44V37.9189C107.518 37.9189 107.596 37.8938 107.726 37.8938C107.856 37.8938 107.934 37.8686 107.986 37.8434C108.064 37.8182 108.142 37.7678 108.168 37.6923C108.194 37.6419 108.22 37.5412 108.22 37.4657V33.6631C108.22 33.5875 108.194 33.512 108.168 33.4364C108.142 33.3609 108.064 33.3105 107.96 33.2853C107.882 33.2601 107.804 33.235 107.674 33.235C107.57 33.2098 107.466 33.2098 107.388 33.2098V32.9579H110.17C110.43 32.9579 110.664 32.9831 110.898 33.0335C111.132 33.0839 111.314 33.1594 111.496 33.2601C111.678 33.3609 111.808 33.4868 111.912 33.6379C112.016 33.789 112.068 33.9904 112.068 34.2171C112.068 34.4185 112.042 34.5948 111.964 34.7459C111.886 34.897 111.782 35.0229 111.652 35.1488C111.522 35.2496 111.366 35.3503 111.184 35.4258C111.002 35.5014 110.82 35.5769 110.586 35.6273C110.872 35.9799 111.132 36.2569 111.34 36.4835C111.548 36.7102 111.782 37.0124 112.068 37.3397C112.198 37.4908 112.302 37.5916 112.406 37.6671C112.51 37.7427 112.614 37.793 112.718 37.8434C112.796 37.8686 112.874 37.8938 113.004 37.9189C113.108 37.9441 113.212 37.9441 113.29 37.9441V38.1708H113.342ZM111.106 34.2674C111.106 33.9401 111.002 33.6882 110.794 33.512C110.586 33.3357 110.3 33.235 109.91 33.235H109.182V35.4762H109.728C110.118 35.4762 110.456 35.3755 110.716 35.1488C110.976 34.9474 111.106 34.6452 111.106 34.2674Z" fill="white"/>
<path id="Vector_237" opacity="0.7" d="M119.115 36.6346L119.011 38.1707H113.993V37.9189C114.071 37.9189 114.201 37.8937 114.331 37.8937C114.461 37.8685 114.565 37.8685 114.617 37.8434C114.721 37.8182 114.773 37.7678 114.799 37.6923C114.825 37.6419 114.851 37.5663 114.851 37.4656V33.6882C114.851 33.6127 114.825 33.5371 114.799 33.4616C114.773 33.386 114.695 33.3356 114.591 33.3105C114.513 33.2853 114.409 33.2601 114.279 33.2349C114.149 33.2097 114.045 33.1846 113.967 33.1846V32.9327H118.647V34.1919H118.335C118.283 34.0156 118.153 33.8141 117.971 33.5875C117.789 33.386 117.607 33.2601 117.425 33.2349C117.347 33.2349 117.243 33.2097 117.113 33.2097C116.983 33.2097 116.853 33.2097 116.697 33.2097H115.735V35.2999H116.411C116.619 35.2999 116.801 35.2747 116.879 35.2495C116.983 35.2244 117.061 35.1488 117.139 35.0733C117.191 34.9977 117.243 34.897 117.295 34.7962C117.347 34.6703 117.373 34.5696 117.373 34.4689H117.685V36.5339H117.373C117.373 36.4079 117.321 36.282 117.269 36.1561C117.217 36.0302 117.165 35.9295 117.113 35.8791C117.035 35.7784 116.931 35.728 116.801 35.7028C116.671 35.6776 116.541 35.6525 116.359 35.6525H115.683V37.2138C115.683 37.3649 115.709 37.4908 115.709 37.5915C115.735 37.6923 115.787 37.7426 115.865 37.793C115.943 37.8434 116.047 37.8685 116.177 37.8937C116.307 37.9189 116.489 37.9189 116.723 37.9189C116.827 37.9189 116.931 37.9189 117.087 37.9189C117.243 37.9189 117.373 37.9189 117.477 37.8937C117.581 37.8937 117.685 37.8685 117.815 37.8434C117.919 37.8182 118.023 37.793 118.049 37.7426C118.179 37.6167 118.309 37.4404 118.465 37.2138C118.621 36.962 118.699 36.7857 118.751 36.6849H119.115V36.6346Z" fill="white"/>
<path id="Vector_238" opacity="0.7" d="M128.268 33.2097C128.19 33.2097 128.112 33.2349 128.034 33.2601C127.93 33.2853 127.852 33.3105 127.774 33.3608C127.67 33.4112 127.592 33.4868 127.54 33.5371C127.488 33.6127 127.436 33.7134 127.384 33.8393C127.176 34.4185 126.942 35.0733 126.682 35.8288C126.422 36.5842 126.136 37.3901 125.824 38.2463H125.434L123.9 34.2171L122.314 38.2463H121.95C121.664 37.3901 121.377 36.4835 121.065 35.5518C120.753 34.62 120.571 33.9904 120.467 33.6882C120.441 33.6127 120.415 33.5371 120.363 33.4868C120.311 33.4364 120.233 33.3608 120.155 33.3357C120.077 33.2853 119.999 33.2601 119.895 33.2349C119.791 33.2097 119.713 33.2097 119.635 33.1846V32.9327H122.106V33.1846C121.898 33.1846 121.716 33.2097 121.56 33.2349C121.403 33.2601 121.325 33.3105 121.325 33.3608C121.325 33.386 121.325 33.4112 121.325 33.4616C121.325 33.5119 121.351 33.5371 121.351 33.5623C121.429 33.789 121.534 34.1415 121.69 34.6452C121.846 35.1488 122.106 35.9043 122.418 36.8864L123.926 32.9831H124.342L125.876 36.962C126.084 36.3576 126.266 35.8036 126.396 35.3503C126.526 34.897 126.656 34.4941 126.76 34.1667C126.838 33.94 126.864 33.789 126.89 33.6882C126.916 33.6127 126.916 33.5371 126.916 33.4616C126.916 33.386 126.838 33.3105 126.708 33.2601C126.578 33.2098 126.37 33.1594 126.058 33.1342V32.8824H128.242L128.268 33.2097Z" fill="white"/>
</g>
<path id="Vector_239" opacity="0.7" d="M97.793 8.07732L101.927 9.86529V18.6541C101.927 18.6541 101.849 22.6078 104.684 23.741C104.684 23.741 97.793 23.7662 97.793 17.8734C97.793 11.9806 97.793 8.07732 97.793 8.07732Z" fill="white"/>
<path id="Vector_240" opacity="0.7" d="M112.511 8.07732L108.376 9.86529V18.6541C108.376 18.6541 108.454 22.6078 105.62 23.741C105.62 23.741 112.511 23.7662 112.511 17.8734C112.511 11.9806 112.511 8.07732 112.511 8.07732Z" fill="white"/>
</g>
</g>
</g>
</svg>
