<svg width="419" height="70" viewBox="0 0 419 70" fill="none" xmlns="http://www.w3.org/2000/svg">
<g id="truckArriving">
<path id="ROAD" d="M-3.05176e-05 67.8854H418.235V69.9765H-3.05176e-05V67.8854Z" fill="#DBDCDD"/>
<g id="truck">
<path id="Vector" d="M207.032 31.5224H203.964V49.5029H208.462V35.2746L207.032 31.5224Z" fill="#1E6B53"/>
<path id="Vector_2" d="M82.5809 54.1114H118.257V56.2016H82.5809V54.1114Z" fill="#1E6B53"/>
<path id="Vector_3" d="M82.5809 58.7198H118.257V60.81H82.5809V58.7198Z" fill="#1E6B53"/>
<path id="Vector_4" d="M115.345 52.5248H116.542V61.3892H115.345V52.5248Z" fill="#16503F"/>
<path id="Vector_5" d="M84.1154 52.5248H85.3115V61.3892H84.1154V52.5248Z" fill="#16503F"/>
<path id="Vector_6" d="M27.8446 51.8449H74.6763V62.4217H27.8446V51.8449Z" fill="#16503F"/>
<path id="Vector_7" d="M16.7154 51.8449H31.7192V56.1008H16.7154V51.8449Z" fill="#16503F"/>
<path id="Vector_8" d="M65.9132 51.8449H80.917V56.1008H65.9132V51.8449Z" fill="#16503F"/>
<path id="Vector_9" d="M16.7154 48.5711H134.588V52.827H16.7154V48.5711Z" fill="#1E6B53"/>
<path id="Vector_10" d="M134.483 59.2234H135.939V63.2527H134.483V59.2234Z" fill="#C4760E"/>
<path id="Vector_11" d="M133.911 63.1772V62.0943H136.356V63.1772L138.046 63.8823V64.7133H132.169V63.8823L133.911 63.1772Z" fill="#EF940F"/>
<path id="Vector_12" d="M133.938 56.7052H136.486V60.7344H133.938V56.7052Z" fill="#B2B1B1"/>
<path id="Vector_13" d="M136.2 60.2056L134.197 59.6767V59.0472L136.2 59.576V60.2056Z" fill="#E51A1A"/>
<path id="Vector_14" d="M136.2 59.022L134.197 58.468V57.8384L136.2 58.3925V59.022Z" fill="#E51A1A"/>
<path id="Vector_15" d="M136.2 57.8384L134.197 57.2844V56.6548L136.2 57.2089V57.8384Z" fill="#E51A1A"/>
<path id="Vector_16" d="M133.391 49.2007H137.032V57.4606H133.391V49.2007Z" fill="#EF940F"/>
<path id="Vector_17" d="M133.365 49.2007H135.16V57.4606H133.365V49.2007Z" fill="#FCAB49"/>
<path id="Vector_18" d="M159.784 56.6548H190.806V62.3965H159.784V56.6548Z" fill="#63330B"/>
<path id="Vector_19" d="M168.574 50.4095H180.301V53.3811H168.574V50.4095Z" fill="#141D1E"/>
<path id="Vector_20" d="M174.165 48.8229H174.841H185.034C184.878 49.4273 184.254 50.9383 181.55 50.9383H174.815H174.139H167.404C164.7 50.9383 164.076 49.4273 163.92 48.8229H174.165Z" fill="#63330B"/>
<path id="Vector_21" d="M153.83 57.2089H203.913V51.7946H156.951L153.83 54.0358V57.2089Z" fill="#BF6717"/>
<path id="Vector_22" d="M248.169 60.2056L236.026 62.0943L224.116 60.2056V47.7654H248.117L248.169 60.2056Z" fill="#63330B"/>
<path id="Vector_23" d="M212.493 42.1747H251.888V45.4737H212.493V42.1747Z" fill="#BF6717"/>
<path id="Vector_24" d="M212.129 42.8546H251.862C251.862 42.8546 253.162 42.8546 253.162 41.4696V33.6881C253.162 33.6881 253.162 33.1593 252.694 32.8319C252.694 32.8319 252.694 21.0967 252.148 15.8335H252.668C252.668 15.8335 252.928 14.7003 251.654 13.9952C251.654 13.9952 250.484 8.50536 243.021 8.50536C235.558 8.50536 220.424 8.50536 220.424 8.50536C220.424 8.50536 218.526 6.13818 212.155 6.18854V42.8546H212.129Z" fill="#F98D21"/>
<path id="Vector_25" d="M212.181 44.5419V52.55H184.67V61.7921H226.223V55.4712L230.305 50.1325H242.605L246.063 55.6223V61.8928H250.302C250.302 61.8928 253.006 61.5403 253.006 57.8384C253.006 54.1365 253.006 46.2291 253.006 46.2291C253.006 46.2291 253.162 44.5419 251.576 44.5419H212.181Z" fill="#F98D21"/>
<path id="Vector_26" d="M248.767 31.2454C248.767 31.2454 248.767 17.8986 248.767 16.9164C248.767 15.9343 249.626 15.8336 249.626 15.8336H252.122C252.668 21.0968 252.668 32.8319 252.668 32.8319C249.34 32.7312 248.767 31.2454 248.767 31.2454Z" fill="#FFBC80"/>
<g id="Group">
<path id="Vector_27" d="M227.965 40.9408C228.199 40.9408 228.381 40.7645 228.381 40.5379V19.6866C228.381 19.4599 228.199 19.2836 227.965 19.2836C227.731 19.2836 227.549 19.4599 227.549 19.6866V40.5379C227.549 40.7645 227.731 40.9408 227.965 40.9408Z" fill="#DD7619"/>
</g>
<g id="Group_2">
<path id="Vector_28" d="M223.103 40.9408C223.337 40.9408 223.519 40.7645 223.519 40.5379V19.6866C223.519 19.4599 223.337 19.2836 223.103 19.2836C222.868 19.2836 222.686 19.4599 222.686 19.6866V40.5379C222.686 40.7645 222.868 40.9408 223.103 40.9408Z" fill="#DD7619"/>
</g>
<g id="Group_3">
<path id="Vector_29" d="M246.011 55.3957H252.98V55.7986H246.011V55.3957Z" fill="#DD7619"/>
</g>
<path id="Vector_30" d="M218.266 50.762H224.688V54.8165H218.266V50.762Z" fill="#BF6717"/>
<path id="Vector_31" d="M218.266 56.5541H224.688V60.6085H218.266V56.5541Z" fill="#BF6717"/>
<path id="Vector_32" d="M177.259 59.3746H217.252V61.7921H177.259V59.3746Z" fill="#DD7619"/>
<g id="Group_4">
<path id="Vector_33" d="M242.553 44.9952H242.969V50.0569H242.553V44.9952Z" fill="#DD7619"/>
</g>
<g id="Group_5">
<path id="Vector_34" d="M230.046 44.9952H242.241V45.8766H230.046V44.9952Z" fill="#DD7619"/>
</g>
<g id="Group_6">
<path id="Vector_35" d="M229.317 44.9952H229.733V50.0569H229.317V44.9952Z" fill="#DD7619"/>
</g>
<path id="Vector_36" d="M220.606 8.53054V13.8441H250.874V14.247H220.606V39.455H220.19V8.53054H220.606Z" fill="#DD7619"/>
<path id="Vector_37" d="M205.603 49.5029H11.9827L7.6402 52.7263H0.697311V0.27063H205.811L205.603 49.5029Z" fill="#16503F"/>
<g id="Group_7">
<path id="Vector_38" d="M231.007 67.2568C227.133 64.4615 226.353 59.1731 229.213 55.4209C232.1 51.6686 237.56 50.9132 241.435 53.6833C245.309 56.4786 246.089 61.7669 243.229 65.5192C240.343 69.2714 234.882 70.0521 231.007 67.2568Z" fill="#141D1E"/>
<path id="Vector_39" d="M233.27 64.3104C231.086 62.7239 230.644 59.7523 232.256 57.6369C233.894 55.5216 236.962 55.0935 239.147 56.6548C241.331 58.2413 241.773 61.2129 240.161 63.3282C238.548 65.4436 235.454 65.8969 233.27 64.3104Z" fill="#3C5151"/>
<path id="Vector_40" d="M233.504 64.0334C231.476 62.5728 231.06 59.8027 232.568 57.8385C234.076 55.8742 236.936 55.4713 238.965 56.9319C240.993 58.3925 241.409 61.1626 239.901 63.1269C238.367 65.0911 235.506 65.494 233.504 64.0334Z" fill="#2A3C3D"/>
<path id="Vector_41" d="M233.998 63.3786C232.333 62.195 231.995 59.9034 233.244 58.3169C234.466 56.7052 236.832 56.3778 238.47 57.5866C240.134 58.7702 240.472 61.0618 239.224 62.6483C237.976 64.26 235.636 64.5874 233.998 63.3786Z" fill="#476363"/>
<path id="Vector_42" d="M234.257 63.026C232.801 61.9684 232.489 59.9789 233.581 58.5687C234.673 57.1585 236.728 56.8563 238.184 57.9139C239.64 58.9716 239.952 60.9611 238.86 62.3713C237.768 63.8067 235.714 64.0837 234.257 63.026Z" fill="#607C7B"/>
<path id="Vector_43" d="M234.83 62.2706C233.816 61.5403 233.582 60.13 234.362 59.1227C235.116 58.1406 236.572 57.914 237.612 58.6694C238.626 59.3997 238.86 60.81 238.08 61.8173C237.326 62.8246 235.87 63.0261 234.83 62.2706Z" fill="#2A3C3D"/>
<path id="Vector_44" d="M235.558 61.364C235.064 61.0115 234.96 60.3315 235.324 59.8279C235.688 59.3494 236.391 59.2487 236.911 59.6012C237.405 59.9538 237.509 60.6337 237.145 61.1374C236.755 61.6158 236.052 61.7166 235.558 61.364Z" fill="#141D1E"/>
<path id="Vector_45" d="M237.56 62.9505C237.43 62.8498 237.404 62.6735 237.508 62.5728C237.612 62.4468 237.794 62.4217 237.898 62.5224C238.028 62.6231 238.054 62.7994 237.95 62.9001C237.872 63.026 237.69 63.0512 237.56 62.9505Z" fill="#141D1E"/>
<path id="Vector_46" d="M235.87 63.3787C235.74 63.278 235.714 63.1017 235.818 63.0009C235.922 62.875 236.104 62.8498 236.208 62.9506C236.338 63.0513 236.364 63.2276 236.26 63.3283C236.156 63.4542 235.974 63.4794 235.87 63.3787Z" fill="#141D1E"/>
<path id="Vector_47" d="M234.258 62.7742C234.128 62.6735 234.102 62.4972 234.206 62.3965C234.31 62.2706 234.492 62.2454 234.596 62.3461C234.726 62.4469 234.752 62.6231 234.648 62.7239C234.57 62.8498 234.388 62.8749 234.258 62.7742Z" fill="#141D1E"/>
<path id="Vector_48" d="M233.348 61.2381C233.218 61.1374 233.192 60.9611 233.296 60.8604C233.4 60.7345 233.582 60.7093 233.686 60.81C233.816 60.9107 233.842 61.087 233.738 61.1877C233.66 61.2885 233.478 61.3137 233.348 61.2381Z" fill="#141D1E"/>
<path id="Vector_49" d="M233.478 59.576C233.348 59.4753 233.322 59.299 233.426 59.1983C233.53 59.0723 233.712 59.0472 233.816 59.1479C233.946 59.2486 233.972 59.4249 233.868 59.5256C233.79 59.6516 233.608 59.6767 233.478 59.576Z" fill="#141D1E"/>
<path id="Vector_50" d="M234.596 58.3421C234.466 58.2413 234.44 58.0651 234.544 57.9643C234.648 57.8384 234.83 57.8132 234.934 57.914C235.064 58.0147 235.09 58.191 234.986 58.2917C234.908 58.4176 234.726 58.4428 234.596 58.3421Z" fill="#141D1E"/>
<path id="Vector_51" d="M236.208 57.9643C236.078 57.8636 236.052 57.6873 236.156 57.5866C236.26 57.4607 236.442 57.4355 236.546 57.5362C236.676 57.6369 236.702 57.8132 236.598 57.9139C236.52 58.0399 236.338 58.065 236.208 57.9643Z" fill="#141D1E"/>
<path id="Vector_52" d="M237.768 58.468C237.638 58.3672 237.612 58.191 237.716 58.0902C237.82 57.9643 238.002 57.9391 238.106 58.0399C238.236 58.1406 238.262 58.3169 238.158 58.4176C238.08 58.5435 237.898 58.5687 237.768 58.468Z" fill="#141D1E"/>
<path id="Vector_53" d="M238.73 59.8027C238.6 59.702 238.574 59.5257 238.678 59.425C238.782 59.299 238.964 59.2739 239.068 59.3746C239.198 59.4753 239.224 59.6516 239.12 59.7523C239.016 59.8782 238.86 59.9034 238.73 59.8027Z" fill="#141D1E"/>
<path id="Vector_54" d="M238.704 61.5403C238.574 61.4396 238.548 61.2633 238.652 61.1626C238.756 61.0366 238.938 61.0115 239.043 61.1122C239.173 61.2129 239.199 61.3892 239.095 61.4899C239.017 61.5907 238.834 61.6158 238.704 61.5403Z" fill="#141D1E"/>
<path id="Vector_55" d="M238.938 63.5297C238.834 63.4542 238.834 63.3031 238.912 63.2024L239.328 62.7491C239.406 62.6483 239.562 62.6483 239.666 62.7239C239.77 62.7994 239.77 62.9505 239.692 63.0513L239.276 63.5046C239.172 63.6053 239.042 63.6053 238.938 63.5297Z" fill="#141D1E"/>
<path id="Vector_56" d="M236.468 64.5623C236.442 64.4363 236.52 64.3104 236.624 64.2852L237.222 64.1342C237.352 64.109 237.482 64.1845 237.508 64.2852C237.534 64.4112 237.456 64.5371 237.326 64.5623L236.728 64.7133C236.624 64.7637 236.52 64.6882 236.468 64.5623Z" fill="#141D1E"/>
<path id="Vector_57" d="M234.076 63.9327C234.128 63.8319 234.284 63.7816 234.388 63.8319L234.96 64.109C235.064 64.1593 235.116 64.3104 235.064 64.4111C235.012 64.5119 234.856 64.5623 234.752 64.5119L234.18 64.2349C234.05 64.1845 233.998 64.0334 234.076 63.9327Z" fill="#141D1E"/>
<path id="Vector_58" d="M232.411 62.0439C232.515 61.9936 232.671 62.0188 232.723 62.1447L233.009 62.6735C233.061 62.7742 233.009 62.9253 232.905 62.9757C232.801 63.0261 232.645 62.9757 232.593 62.875L232.307 62.3461C232.255 62.2454 232.307 62.1195 232.411 62.0439Z" fill="#141D1E"/>
<path id="Vector_59" d="M232.152 59.6515C232.282 59.6767 232.36 59.7774 232.36 59.9034L232.282 60.5077C232.256 60.6337 232.152 60.7092 232.022 60.7092C231.892 60.684 231.814 60.5833 231.814 60.4574L231.892 59.853C231.892 59.7271 232.022 59.6515 232.152 59.6515Z" fill="#141D1E"/>
<path id="Vector_60" d="M233.27 57.5614C233.374 57.637 233.4 57.788 233.322 57.8888L232.932 58.3672C232.854 58.468 232.698 58.4932 232.594 58.4176C232.49 58.3421 232.464 58.191 232.542 58.0902L232.932 57.6118C233.01 57.511 233.166 57.4859 233.27 57.5614Z" fill="#141D1E"/>
<path id="Vector_61" d="M240.291 59.6012C240.161 59.6012 240.057 59.702 240.057 59.8279L240.083 60.4323C240.083 60.5582 240.187 60.6589 240.317 60.6589C240.447 60.6589 240.551 60.5582 240.551 60.4323L240.525 59.8279C240.525 59.6768 240.421 59.5761 240.291 59.6012Z" fill="#141D1E"/>
<path id="Vector_62" d="M238.99 57.5362C238.886 57.6118 238.886 57.7629 238.964 57.8636L239.38 58.3169C239.458 58.4176 239.614 58.4176 239.718 58.3421C239.822 58.2665 239.822 58.1154 239.718 58.0147L239.302 57.5614C239.224 57.4607 239.068 57.4607 238.99 57.5362Z" fill="#141D1E"/>
<path id="Vector_63" d="M236.65 56.5542C236.624 56.6801 236.702 56.806 236.832 56.806L237.456 56.9067C237.586 56.9319 237.716 56.8563 237.716 56.7304C237.742 56.6045 237.664 56.4786 237.534 56.4786L236.91 56.3779C236.806 56.3275 236.676 56.4282 236.65 56.5542Z" fill="#141D1E"/>
<path id="Vector_64" d="M234.206 56.9822C234.258 57.1081 234.388 57.1585 234.518 57.1081L235.09 56.8563C235.22 56.8059 235.272 56.68 235.22 56.5541C235.168 56.4282 235.038 56.3778 234.908 56.4282L234.336 56.68C234.206 56.7304 234.154 56.8563 234.206 56.9822Z" fill="#141D1E"/>
</g>
<g id="Group_8">
<path id="Vector_65" d="M160.799 67.2568C156.925 64.4615 156.144 59.1731 159.005 55.4209C161.891 51.6686 167.352 50.9132 171.226 53.6833C175.101 56.4786 175.881 61.7669 173.02 65.5192C170.134 69.2714 164.673 70.0521 160.799 67.2568Z" fill="#141D1E"/>
<path id="Vector_66" d="M163.087 64.3104C160.903 62.7239 160.461 59.7523 162.073 57.6369C163.711 55.5216 166.78 55.0935 168.964 56.6548C171.148 58.2413 171.59 61.2129 169.978 63.3282C168.34 65.4436 165.271 65.8969 163.087 64.3104Z" fill="#3C5151"/>
<path id="Vector_67" d="M163.296 64.0334C161.268 62.5728 160.852 59.8027 162.36 57.8385C163.868 55.8742 166.728 55.4713 168.757 56.9319C170.785 58.3925 171.201 61.1626 169.693 63.1269C168.185 65.0911 165.324 65.494 163.296 64.0334Z" fill="#2A3C3D"/>
<path id="Vector_68" d="M163.79 63.3786C162.126 62.195 161.788 59.9034 163.036 58.3169C164.258 56.7052 166.624 56.3778 168.263 57.5866C169.927 58.7702 170.265 61.0618 169.017 62.6483C167.795 64.26 165.454 64.5874 163.79 63.3786Z" fill="#476363"/>
<path id="Vector_69" d="M164.049 63.026C162.593 61.9684 162.281 59.9789 163.373 58.5687C164.465 57.1585 166.52 56.8563 167.976 57.9139C169.432 58.9716 169.744 60.9611 168.652 62.3713C167.586 63.8067 165.506 64.0837 164.049 63.026Z" fill="#607C7B"/>
<path id="Vector_70" d="M164.648 62.2706C163.634 61.5403 163.4 60.13 164.18 59.1227C164.934 58.1406 166.39 57.914 167.43 58.6694C168.445 59.3997 168.679 60.81 167.898 61.8173C167.118 62.8246 165.662 63.0261 164.648 62.2706Z" fill="#2A3C3D"/>
<path id="Vector_71" d="M165.35 61.364C164.856 61.0115 164.752 60.3315 165.116 59.8279C165.48 59.3494 166.182 59.2487 166.702 59.6012C167.196 59.9538 167.3 60.6337 166.936 61.1374C166.546 61.6158 165.844 61.7166 165.35 61.364Z" fill="#141D1E"/>
<path id="Vector_72" d="M167.378 62.9505C167.248 62.8498 167.222 62.6735 167.326 62.5728C167.43 62.4468 167.612 62.4217 167.716 62.5224C167.846 62.6231 167.872 62.7994 167.768 62.9001C167.69 63.026 167.508 63.0512 167.378 62.9505Z" fill="#141D1E"/>
<path id="Vector_73" d="M165.662 63.3787C165.532 63.278 165.506 63.1017 165.61 63.0009C165.714 62.875 165.896 62.8498 166 62.9506C166.13 63.0513 166.156 63.2276 166.052 63.3283C165.974 63.4542 165.792 63.4794 165.662 63.3787Z" fill="#141D1E"/>
<path id="Vector_74" d="M164.076 62.7742C163.946 62.6735 163.92 62.4972 164.024 62.3965C164.128 62.2706 164.31 62.2454 164.414 62.3461C164.544 62.4469 164.57 62.6231 164.466 62.7239C164.362 62.8498 164.206 62.8749 164.076 62.7742Z" fill="#141D1E"/>
<path id="Vector_75" d="M163.14 61.2381C163.01 61.1374 162.984 60.9611 163.088 60.8604C163.192 60.7345 163.374 60.7093 163.478 60.81C163.608 60.9107 163.634 61.087 163.53 61.1877C163.452 61.2885 163.27 61.3137 163.14 61.2381Z" fill="#141D1E"/>
<path id="Vector_76" d="M163.296 59.576C163.166 59.4753 163.14 59.299 163.244 59.1983C163.348 59.0723 163.53 59.0472 163.634 59.1479C163.764 59.2486 163.79 59.4249 163.686 59.5256C163.582 59.6516 163.426 59.6767 163.296 59.576Z" fill="#141D1E"/>
<path id="Vector_77" d="M164.388 58.3421C164.258 58.2413 164.232 58.0651 164.336 57.9643C164.44 57.8384 164.622 57.8132 164.726 57.914C164.856 58.0147 164.882 58.191 164.778 58.2917C164.7 58.4176 164.518 58.4428 164.388 58.3421Z" fill="#141D1E"/>
<path id="Vector_78" d="M166 57.9643C165.87 57.8636 165.844 57.6873 165.948 57.5866C166.052 57.4607 166.234 57.4355 166.338 57.5362C166.468 57.6369 166.494 57.8132 166.39 57.9139C166.312 58.0399 166.13 58.065 166 57.9643Z" fill="#141D1E"/>
<path id="Vector_79" d="M167.56 58.468C167.43 58.3672 167.404 58.191 167.508 58.0902C167.612 57.9643 167.794 57.9391 167.898 58.0399C168.028 58.1406 168.054 58.3169 167.95 58.4176C167.872 58.5435 167.69 58.5687 167.56 58.468Z" fill="#141D1E"/>
<path id="Vector_80" d="M168.522 59.8027C168.392 59.702 168.366 59.5257 168.47 59.425C168.574 59.299 168.756 59.2739 168.86 59.3746C168.99 59.4753 169.016 59.6516 168.912 59.7523C168.834 59.8782 168.652 59.9034 168.522 59.8027Z" fill="#141D1E"/>
<path id="Vector_81" d="M168.522 61.5403C168.392 61.4396 168.366 61.2633 168.47 61.1626C168.574 61.0366 168.756 61.0115 168.86 61.1122C168.99 61.2129 169.016 61.3892 168.912 61.4899C168.834 61.5907 168.652 61.6158 168.522 61.5403Z" fill="#141D1E"/>
<path id="Vector_82" d="M168.73 63.5297C168.626 63.4542 168.626 63.3031 168.704 63.2024L169.12 62.7491C169.198 62.6483 169.354 62.6483 169.458 62.7239C169.562 62.7994 169.562 62.9505 169.484 63.0513L169.068 63.5046C168.99 63.6053 168.834 63.6053 168.73 63.5297Z" fill="#141D1E"/>
<path id="Vector_83" d="M166.286 64.5623C166.26 64.4363 166.338 64.3104 166.442 64.2852L167.04 64.1342C167.17 64.109 167.3 64.1845 167.326 64.2852C167.352 64.4112 167.274 64.5371 167.17 64.5623L166.572 64.7133C166.442 64.7637 166.312 64.6882 166.286 64.5623Z" fill="#141D1E"/>
<path id="Vector_84" d="M163.868 63.9327C163.92 63.8319 164.076 63.7816 164.18 63.8319L164.752 64.109C164.856 64.1593 164.908 64.3104 164.856 64.4111C164.804 64.5119 164.648 64.5623 164.544 64.5119L163.972 64.2349C163.868 64.1845 163.816 64.0334 163.868 63.9327Z" fill="#141D1E"/>
<path id="Vector_85" d="M162.229 62.0439C162.333 61.9936 162.489 62.0188 162.541 62.1447L162.827 62.6735C162.879 62.7742 162.827 62.9253 162.723 62.9757C162.619 63.0261 162.463 62.9757 162.411 62.875L162.125 62.3461C162.047 62.2454 162.099 62.1195 162.229 62.0439Z" fill="#141D1E"/>
<path id="Vector_86" d="M161.944 59.6515C162.074 59.6767 162.152 59.7774 162.152 59.9034L162.074 60.5077C162.048 60.6337 161.944 60.7092 161.814 60.7092C161.684 60.684 161.606 60.5833 161.606 60.4574L161.684 59.853C161.71 59.7271 161.814 59.6515 161.944 59.6515Z" fill="#141D1E"/>
<path id="Vector_87" d="M163.061 57.5614C163.165 57.637 163.191 57.788 163.113 57.8888L162.723 58.3672C162.645 58.468 162.489 58.4932 162.385 58.4176C162.281 58.3421 162.255 58.191 162.333 58.0902L162.723 57.6118C162.827 57.511 162.957 57.4859 163.061 57.5614Z" fill="#141D1E"/>
<path id="Vector_88" d="M170.108 59.6012C169.978 59.6012 169.874 59.702 169.874 59.8279L169.9 60.4323C169.9 60.5582 170.004 60.6589 170.134 60.6589C170.264 60.6589 170.368 60.5582 170.368 60.4323L170.342 59.8279C170.342 59.6768 170.238 59.5761 170.108 59.6012Z" fill="#141D1E"/>
<path id="Vector_89" d="M168.782 57.5362C168.678 57.6118 168.678 57.7629 168.756 57.8636L169.172 58.3169C169.25 58.4176 169.406 58.4176 169.51 58.3421C169.614 58.2665 169.614 58.1154 169.51 58.0147L169.094 57.5614C169.016 57.4607 168.886 57.4607 168.782 57.5362Z" fill="#141D1E"/>
<path id="Vector_90" d="M166.468 56.5542C166.442 56.6801 166.52 56.806 166.65 56.806L167.274 56.9067C167.404 56.9319 167.534 56.8563 167.534 56.7304C167.56 56.6045 167.482 56.4786 167.352 56.4786L166.728 56.3779C166.598 56.3275 166.468 56.4282 166.468 56.5542Z" fill="#141D1E"/>
<path id="Vector_91" d="M163.998 56.9822C164.05 57.1081 164.18 57.1585 164.31 57.1081L164.882 56.8563C165.012 56.8059 165.064 56.68 165.012 56.5541C164.96 56.4282 164.83 56.3778 164.7 56.4282L164.128 56.68C163.998 56.7304 163.946 56.8563 163.998 56.9822Z" fill="#141D1E"/>
</g>
<path id="Vector_92" d="M173.827 59.2738C173.488 57.2844 172.422 55.5468 170.758 54.338C169.068 53.104 166.988 52.6004 164.881 52.9026C162.801 53.2048 160.929 54.2625 159.681 55.8993C158.927 56.8815 158.407 58.0399 158.225 59.2738H156.56C156.768 57.7125 157.393 56.2267 158.381 54.9676C159.915 52.9781 162.125 51.6938 164.647 51.3412C167.17 50.9887 169.692 51.5931 171.72 53.0789C173.801 54.5898 175.127 56.7807 175.491 59.2738H173.827Z" fill="#474747"/>
<g id="Group_9">
<path id="Vector_93" d="M180.301 67.2568C176.426 64.4615 175.646 59.1731 178.507 55.4209C181.393 51.6686 186.854 50.9132 190.728 53.6833C194.603 56.4786 195.383 61.7669 192.522 65.5192C189.636 69.2714 184.175 70.0521 180.301 67.2568Z" fill="#141D1E"/>
<path id="Vector_94" d="M182.563 64.3104C180.379 62.7239 179.936 59.7523 181.549 57.6369C183.187 55.5216 186.255 55.0935 188.44 56.6548C190.624 58.2413 191.066 61.2129 189.454 63.3282C187.841 65.4436 184.747 65.8969 182.563 64.3104Z" fill="#3C5151"/>
<path id="Vector_95" d="M182.797 64.0334C180.769 62.5728 180.353 59.8027 181.861 57.8385C183.369 55.8742 186.229 55.4713 188.258 56.9319C190.286 58.3925 190.702 61.1626 189.194 63.1269C187.66 65.0911 184.799 65.494 182.797 64.0334Z" fill="#2A3C3D"/>
<path id="Vector_96" d="M183.291 63.3786C181.627 62.195 181.289 59.9034 182.537 58.3169C183.759 56.7052 186.125 56.3778 187.764 57.5866C189.428 58.7702 189.766 61.0618 188.518 62.6483C187.27 64.26 184.929 64.5874 183.291 63.3786Z" fill="#476363"/>
<path id="Vector_97" d="M183.551 63.026C182.095 61.9684 181.783 59.9789 182.875 58.5687C183.967 57.1585 186.022 56.8563 187.478 57.9139C188.934 58.9716 189.246 60.9611 188.154 62.3713C187.062 63.8067 185.007 64.0837 183.551 63.026Z" fill="#607C7B"/>
<path id="Vector_98" d="M184.123 62.2706C183.109 61.5403 182.875 60.13 183.655 59.1227C184.409 58.1406 185.865 57.914 186.905 58.6694C187.92 59.3997 188.154 60.81 187.374 61.8173C186.619 62.8246 185.163 63.0261 184.123 62.2706Z" fill="#2A3C3D"/>
<path id="Vector_99" d="M184.851 61.364C184.357 61.0115 184.253 60.3315 184.617 59.8279C184.981 59.3494 185.684 59.2487 186.204 59.6012C186.698 59.9538 186.802 60.6337 186.438 61.1374C186.048 61.6158 185.345 61.7166 184.851 61.364Z" fill="#141D1E"/>
<path id="Vector_100" d="M186.853 62.9505C186.723 62.8498 186.697 62.6735 186.801 62.5728C186.905 62.4468 187.087 62.4217 187.191 62.5224C187.321 62.6231 187.347 62.7994 187.243 62.9001C187.165 63.026 186.983 63.0512 186.853 62.9505Z" fill="#141D1E"/>
<path id="Vector_101" d="M185.138 63.3787C185.008 63.278 184.982 63.1017 185.086 63.0009C185.19 62.875 185.372 62.8498 185.476 62.9506C185.606 63.0513 185.632 63.2276 185.528 63.3283C185.45 63.4542 185.268 63.4794 185.138 63.3787Z" fill="#141D1E"/>
<path id="Vector_102" d="M183.551 62.7742C183.421 62.6735 183.395 62.4972 183.499 62.3965C183.603 62.2706 183.785 62.2454 183.889 62.3461C184.019 62.4469 184.045 62.6231 183.941 62.7239C183.863 62.8498 183.681 62.8749 183.551 62.7742Z" fill="#141D1E"/>
<path id="Vector_103" d="M182.641 61.2381C182.511 61.1374 182.485 60.9611 182.589 60.8604C182.693 60.7345 182.875 60.7093 182.979 60.81C183.109 60.9107 183.135 61.087 183.031 61.1877C182.927 61.2885 182.771 61.3137 182.641 61.2381Z" fill="#141D1E"/>
<path id="Vector_104" d="M182.771 59.576C182.641 59.4753 182.615 59.299 182.719 59.1983C182.823 59.0723 183.005 59.0472 183.109 59.1479C183.239 59.2486 183.265 59.4249 183.161 59.5256C183.083 59.6516 182.901 59.6767 182.771 59.576Z" fill="#141D1E"/>
<path id="Vector_105" d="M183.889 58.3421C183.759 58.2413 183.733 58.0651 183.837 57.9643C183.941 57.8384 184.123 57.8132 184.227 57.914C184.357 58.0147 184.383 58.191 184.279 58.2917C184.201 58.4176 184.019 58.4428 183.889 58.3421Z" fill="#141D1E"/>
<path id="Vector_106" d="M185.501 57.9643C185.371 57.8636 185.345 57.6873 185.449 57.5866C185.553 57.4607 185.735 57.4355 185.839 57.5362C185.969 57.6369 185.995 57.8132 185.891 57.9139C185.813 58.0399 185.631 58.065 185.501 57.9643Z" fill="#141D1E"/>
<path id="Vector_107" d="M187.062 58.468C186.932 58.3672 186.906 58.191 187.01 58.0902C187.114 57.9643 187.296 57.9391 187.4 58.0399C187.53 58.1406 187.556 58.3169 187.452 58.4176C187.374 58.5435 187.192 58.5687 187.062 58.468Z" fill="#141D1E"/>
<path id="Vector_108" d="M188.023 59.8027C187.893 59.702 187.867 59.5257 187.971 59.425C188.075 59.299 188.257 59.2739 188.361 59.3746C188.491 59.4753 188.517 59.6516 188.413 59.7523C188.309 59.8782 188.127 59.9034 188.023 59.8027Z" fill="#141D1E"/>
<path id="Vector_109" d="M187.997 61.5403C187.867 61.4396 187.841 61.2633 187.945 61.1626C188.049 61.0366 188.231 61.0115 188.335 61.1122C188.465 61.2129 188.491 61.3892 188.387 61.4899C188.309 61.5907 188.127 61.6158 187.997 61.5403Z" fill="#141D1E"/>
<path id="Vector_110" d="M188.232 63.5297C188.128 63.4542 188.128 63.3031 188.206 63.2024L188.622 62.7491C188.7 62.6483 188.856 62.6483 188.96 62.7239C189.064 62.7994 189.064 62.9505 188.986 63.0513L188.57 63.5046C188.466 63.6053 188.336 63.6053 188.232 63.5297Z" fill="#141D1E"/>
<path id="Vector_111" d="M185.761 64.5623C185.735 64.4363 185.813 64.3104 185.917 64.2852L186.516 64.1342C186.646 64.109 186.776 64.1845 186.802 64.2852C186.828 64.4112 186.75 64.5371 186.646 64.5623L186.048 64.7133C185.917 64.7637 185.787 64.6882 185.761 64.5623Z" fill="#141D1E"/>
<path id="Vector_112" d="M183.369 63.9327C183.421 63.8319 183.577 63.7816 183.681 63.8319L184.254 64.109C184.358 64.1593 184.41 64.3104 184.358 64.4111C184.306 64.5119 184.15 64.5623 184.045 64.5119L183.473 64.2349C183.343 64.1845 183.291 64.0334 183.369 63.9327Z" fill="#141D1E"/>
<path id="Vector_113" d="M181.705 62.0439C181.809 61.9936 181.965 62.0188 182.017 62.1447L182.303 62.6735C182.355 62.7742 182.303 62.9253 182.199 62.9757C182.095 63.0261 181.939 62.9757 181.887 62.875L181.601 62.3461C181.549 62.2454 181.601 62.1195 181.705 62.0439Z" fill="#141D1E"/>
<path id="Vector_114" d="M181.419 59.6515C181.549 59.6767 181.627 59.7774 181.627 59.9034L181.549 60.5077C181.523 60.6337 181.419 60.7092 181.289 60.7092C181.159 60.684 181.081 60.5833 181.081 60.4574L181.159 59.853C181.185 59.7271 181.315 59.6515 181.419 59.6515Z" fill="#141D1E"/>
<path id="Vector_115" d="M182.563 57.5614C182.667 57.637 182.693 57.788 182.615 57.8888L182.225 58.3672C182.147 58.468 181.991 58.4932 181.887 58.4176C181.783 58.3421 181.757 58.191 181.835 58.0902L182.225 57.6118C182.303 57.511 182.459 57.4859 182.563 57.5614Z" fill="#141D1E"/>
<path id="Vector_116" d="M189.584 59.6012C189.454 59.6012 189.35 59.702 189.35 59.8279L189.376 60.4323C189.376 60.5582 189.48 60.6589 189.61 60.6589C189.74 60.6589 189.844 60.5582 189.844 60.4323L189.818 59.8279C189.818 59.6768 189.714 59.5761 189.584 59.6012Z" fill="#141D1E"/>
<path id="Vector_117" d="M188.283 57.5362C188.179 57.6118 188.179 57.7629 188.257 57.8636L188.673 58.3169C188.751 58.4176 188.907 58.4176 189.011 58.3421C189.115 58.2665 189.115 58.1154 189.011 58.0147L188.595 57.5614C188.517 57.4607 188.361 57.4607 188.283 57.5362Z" fill="#141D1E"/>
<path id="Vector_118" d="M185.944 56.5542C185.918 56.6801 185.996 56.806 186.126 56.806L186.75 56.9067C186.88 56.9319 187.01 56.8563 187.01 56.7304C187.036 56.6045 186.958 56.4786 186.828 56.4786L186.204 56.3779C186.1 56.3275 185.97 56.4282 185.944 56.5542Z" fill="#141D1E"/>
<path id="Vector_119" d="M183.499 56.9822C183.551 57.1081 183.681 57.1585 183.811 57.1081L184.383 56.8563C184.513 56.8059 184.565 56.68 184.513 56.5541C184.461 56.4282 184.331 56.3778 184.201 56.4282L183.629 56.68C183.499 56.7304 183.447 56.8563 183.499 56.9822Z" fill="#141D1E"/>
</g>
<path id="Vector_120" d="M193.328 59.2738C192.99 57.2844 191.924 55.5468 190.26 54.338C188.57 53.104 186.49 52.6004 184.383 52.9026C182.303 53.2048 180.431 54.2625 179.183 55.8993C178.429 56.8815 177.909 58.0399 177.727 59.2738H176.062C176.27 57.7125 176.894 56.2267 177.883 54.9676C179.417 52.9781 181.627 51.6938 184.149 51.3412C186.672 50.9887 189.194 51.5931 191.222 53.0789C193.302 54.5898 194.629 56.7807 194.993 59.2738H193.328Z" fill="#474747"/>
<g id="Group_10">
<path id="Vector_121" d="M26.5963 67.2568C22.7218 64.4615 21.9417 59.1731 24.8021 55.4209C27.6885 51.6686 33.1491 50.9132 37.0236 53.6833C40.8981 56.4786 41.6782 61.7669 38.8179 65.5192C35.9315 69.2714 30.4448 70.0521 26.5963 67.2568Z" fill="#141D1E"/>
<path id="Vector_122" d="M28.8587 64.3104C26.6744 62.7239 26.2324 59.7523 27.8446 57.6369C29.4828 55.5216 32.5512 55.0935 34.7354 56.6548C36.9197 58.2413 37.3618 61.2129 35.7496 63.3282C34.1374 65.4436 31.043 65.8969 28.8587 64.3104Z" fill="#3C5151"/>
<path id="Vector_123" d="M29.0666 64.0334C27.0383 62.5728 26.6223 59.8027 28.1304 57.8385C29.6386 55.8742 32.499 55.4713 34.5272 56.9319C36.5555 58.3925 36.9715 61.1626 35.4633 63.1269C33.9551 65.0911 31.0948 65.494 29.0666 64.0334Z" fill="#2A3C3D"/>
<path id="Vector_124" d="M29.5606 63.3786C27.8964 62.195 27.5584 59.9034 28.8065 58.3169C30.0287 56.7052 32.395 56.3778 34.0332 57.5866C35.6974 58.7702 36.0354 61.0618 34.7873 62.6483C33.5651 64.26 31.2248 64.5874 29.5606 63.3786Z" fill="#476363"/>
<path id="Vector_125" d="M29.8467 63.026C28.3905 61.9684 28.0784 59.9789 29.1706 58.5687C30.2627 57.1585 32.317 56.8563 33.7732 57.9139C35.2294 58.9716 35.5414 60.9611 34.4493 62.3713C33.3571 63.8067 31.3029 64.0837 29.8467 63.026Z" fill="#607C7B"/>
<path id="Vector_126" d="M30.4186 62.2706C29.4044 61.5403 29.1704 60.13 29.9505 59.1227C30.7046 58.1406 32.1608 57.914 33.2009 58.6694C34.215 59.3997 34.4491 60.81 33.669 61.8173C32.8889 62.8246 31.4587 63.0261 30.4186 62.2706Z" fill="#2A3C3D"/>
<path id="Vector_127" d="M31.1204 61.364C30.6263 61.0115 30.5223 60.3315 30.8864 59.8279C31.2504 59.3494 31.9525 59.2487 32.4726 59.6012C32.9667 59.9538 33.0707 60.6337 32.7066 61.1374C32.3426 61.6158 31.6405 61.7166 31.1204 61.364Z" fill="#141D1E"/>
<path id="Vector_128" d="M33.1488 62.9505C33.0188 62.8498 32.9928 62.6735 33.0968 62.5728C33.2008 62.4468 33.3828 62.4217 33.4868 62.5224C33.6169 62.6231 33.6429 62.7994 33.5388 62.9001C33.4608 63.026 33.2788 63.0512 33.1488 62.9505Z" fill="#141D1E"/>
<path id="Vector_129" d="M31.433 63.3787C31.303 63.278 31.277 63.1017 31.381 63.0009C31.485 62.875 31.667 62.8498 31.771 62.9506C31.901 63.0513 31.927 63.2276 31.823 63.3283C31.745 63.4542 31.563 63.4794 31.433 63.3787Z" fill="#141D1E"/>
<path id="Vector_130" d="M29.8465 62.7742C29.7165 62.6735 29.6905 62.4972 29.7945 62.3965C29.8986 62.2706 30.0806 62.2454 30.1846 62.3461C30.3146 62.4469 30.3406 62.6231 30.2366 62.7239C30.1586 62.8498 29.9766 62.8749 29.8465 62.7742Z" fill="#141D1E"/>
<path id="Vector_131" d="M28.9105 61.2381C28.7805 61.1374 28.7545 60.9611 28.8585 60.8604C28.9625 60.7345 29.1445 60.7093 29.2486 60.81C29.3786 60.9107 29.4046 61.087 29.3006 61.1877C29.2225 61.2885 29.0405 61.3137 28.9105 61.2381Z" fill="#141D1E"/>
<path id="Vector_132" d="M29.0663 59.576C28.9363 59.4753 28.9103 59.299 29.0143 59.1983C29.1183 59.0723 29.3003 59.0472 29.4043 59.1479C29.5343 59.2486 29.5603 59.4249 29.4563 59.5256C29.3783 59.6516 29.1963 59.6767 29.0663 59.576Z" fill="#141D1E"/>
<path id="Vector_133" d="M30.1849 58.3421C30.0549 58.2413 30.0289 58.0651 30.1329 57.9643C30.2369 57.8384 30.4189 57.8132 30.523 57.914C30.653 58.0147 30.679 58.191 30.575 58.2917C30.471 58.4176 30.3149 58.4428 30.1849 58.3421Z" fill="#141D1E"/>
<path id="Vector_134" d="M31.7967 57.9643C31.6667 57.8636 31.6407 57.6873 31.7447 57.5866C31.8487 57.4607 32.0308 57.4355 32.1348 57.5362C32.2648 57.6369 32.2908 57.8132 32.1868 57.9139C32.0828 58.0399 31.9268 58.065 31.7967 57.9643Z" fill="#141D1E"/>
<path id="Vector_135" d="M33.3573 58.468C33.2273 58.3672 33.2013 58.191 33.3053 58.0902C33.4093 57.9643 33.5913 57.9391 33.6953 58.0399C33.8254 58.1406 33.8514 58.3169 33.7473 58.4176C33.6433 58.5435 33.4613 58.5687 33.3573 58.468Z" fill="#141D1E"/>
<path id="Vector_136" d="M34.2933 59.8027C34.1633 59.702 34.1373 59.5257 34.2413 59.425C34.3453 59.299 34.5273 59.2739 34.6314 59.3746C34.7614 59.4753 34.7874 59.6516 34.6834 59.7523C34.6054 59.8782 34.4233 59.9034 34.2933 59.8027Z" fill="#141D1E"/>
<path id="Vector_137" d="M34.2933 61.5403C34.1633 61.4396 34.1373 61.2633 34.2413 61.1626C34.3453 61.0366 34.5273 61.0115 34.6314 61.1122C34.7614 61.2129 34.7874 61.3892 34.6834 61.4899C34.6054 61.5907 34.4233 61.6158 34.2933 61.5403Z" fill="#141D1E"/>
<path id="Vector_138" d="M34.5272 63.5297C34.4232 63.4542 34.4232 63.3031 34.5012 63.2024L34.9173 62.7491C34.9953 62.6483 35.1513 62.6483 35.2553 62.7239C35.3593 62.7994 35.3593 62.9505 35.2813 63.0513L34.8653 63.5046C34.7613 63.6053 34.6312 63.6053 34.5272 63.5297Z" fill="#141D1E"/>
<path id="Vector_139" d="M32.0568 64.5623C32.0308 64.4363 32.1088 64.3104 32.2388 64.2852L32.8369 64.1342C32.9669 64.109 33.0969 64.1845 33.1229 64.2852C33.1489 64.4112 33.0709 64.5371 32.9669 64.5623L32.3688 64.7133C32.2128 64.7637 32.0828 64.6882 32.0568 64.5623Z" fill="#141D1E"/>
<path id="Vector_140" d="M29.6384 63.9327C29.6905 63.8319 29.8465 63.7816 29.9505 63.8319L30.5226 64.109C30.6266 64.1593 30.6786 64.3104 30.6266 64.4111C30.5746 64.5119 30.4185 64.5623 30.3145 64.5119L29.7424 64.2349C29.6384 64.1845 29.5864 64.0334 29.6384 63.9327Z" fill="#141D1E"/>
<path id="Vector_141" d="M28.0007 62.0439C28.1047 61.9936 28.2607 62.0188 28.3127 62.1447L28.5987 62.6735C28.6507 62.7742 28.5987 62.9253 28.4947 62.9757C28.3907 63.0261 28.2347 62.9757 28.1827 62.875L27.8967 62.3461C27.8446 62.2454 27.8706 62.1195 28.0007 62.0439Z" fill="#141D1E"/>
<path id="Vector_142" d="M27.7143 59.6515C27.8444 59.6767 27.9224 59.7774 27.9224 59.9034L27.8444 60.5077C27.8184 60.6337 27.7143 60.7092 27.5843 60.7092C27.4543 60.684 27.3763 60.5833 27.3763 60.4574L27.4543 59.853C27.4803 59.7271 27.5843 59.6515 27.7143 59.6515Z" fill="#141D1E"/>
<path id="Vector_143" d="M28.8587 57.5614C28.9627 57.637 28.9887 57.788 28.9107 57.8888L28.5206 58.3672C28.4426 58.468 28.2866 58.4932 28.1826 58.4176C28.0786 58.3421 28.0525 58.191 28.1306 58.0902L28.5206 57.6118C28.5986 57.511 28.7547 57.4859 28.8587 57.5614Z" fill="#141D1E"/>
<path id="Vector_144" d="M35.8796 59.6012C35.7496 59.6012 35.6456 59.702 35.6456 59.8279L35.6716 60.4323C35.6716 60.5582 35.7756 60.6589 35.9056 60.6589C36.0356 60.6589 36.1396 60.5582 36.1396 60.4323L36.1136 59.8279C36.1136 59.6768 36.0096 59.5761 35.8796 59.6012Z" fill="#141D1E"/>
<path id="Vector_145" d="M34.5533 57.5362C34.4493 57.6118 34.4493 57.7629 34.5273 57.8636L34.9433 58.3169C35.0213 58.4176 35.1774 58.4176 35.2814 58.3421C35.3854 58.2665 35.3854 58.1154 35.2814 58.0147L34.8653 57.5614C34.8133 57.4607 34.6573 57.4607 34.5533 57.5362Z" fill="#141D1E"/>
<path id="Vector_146" d="M32.2389 56.5542C32.2129 56.6801 32.2909 56.806 32.421 56.806L33.045 56.9067C33.1751 56.9319 33.3051 56.8563 33.3051 56.7304C33.3311 56.6045 33.2531 56.4786 33.1231 56.4786L32.499 56.3779C32.395 56.3275 32.265 56.4282 32.2389 56.5542Z" fill="#141D1E"/>
<path id="Vector_147" d="M29.7946 56.9822C29.8466 57.1081 29.9766 57.1585 30.1066 57.1081L30.6787 56.8563C30.8087 56.8059 30.8607 56.68 30.8087 56.5541C30.7567 56.4282 30.6267 56.3778 30.4966 56.4282L29.9246 56.68C29.7946 56.7304 29.7425 56.8563 29.7946 56.9822Z" fill="#141D1E"/>
</g>
<path id="Vector_148" d="M39.6239 59.2738C39.2858 57.2844 38.2197 55.5468 36.5555 54.338C34.8653 53.104 32.785 52.6004 30.6788 52.9026C28.5985 53.2048 26.7263 54.2625 25.4781 55.8993C24.724 56.8815 24.204 58.0399 24.0219 59.2738H22.3577C22.5658 57.7125 23.1899 56.2267 24.178 54.9676C25.7122 52.9781 27.9224 51.6938 30.4447 51.3412C32.9671 50.9887 35.4894 51.5931 37.5176 53.0789C39.5979 54.5898 40.924 56.7807 41.2881 59.2738H39.6239Z" fill="#474747"/>
<g id="Group_11">
<path id="Vector_149" d="M46.177 67.2568C42.3025 64.4615 41.5224 59.1731 44.3827 55.4209C47.2691 51.6686 52.7297 50.9132 56.6042 53.6833C60.4787 56.4786 61.2588 61.7669 58.3984 65.5192C55.5381 69.2714 50.0514 70.0521 46.177 67.2568Z" fill="#141D1E"/>
<path id="Vector_150" d="M48.4652 64.3104C46.2809 62.7239 45.8389 59.7523 47.451 57.6369C49.0892 55.5216 52.1576 55.0935 54.3419 56.6548C56.5262 58.2413 56.9682 61.2129 55.356 63.3282C53.7438 65.4436 50.6494 65.8969 48.4652 64.3104Z" fill="#3C5151"/>
<path id="Vector_151" d="M48.6735 64.0334C46.6452 62.5728 46.2292 59.8027 47.7374 57.8385C49.2455 55.8742 52.1059 55.4713 54.1341 56.9319C56.1624 58.3925 56.5784 61.1626 55.0703 63.1269C53.5621 65.0911 50.7017 65.494 48.6735 64.0334Z" fill="#2A3C3D"/>
<path id="Vector_152" d="M49.1676 63.3786C47.5033 62.195 47.1653 59.9034 48.4135 58.3169C49.6356 56.7052 52.0019 56.3778 53.6401 57.5866C55.3043 58.7702 55.6423 61.0618 54.3942 62.6483C53.172 64.26 50.8318 64.5874 49.1676 63.3786Z" fill="#476363"/>
<path id="Vector_153" d="M49.4536 63.026C47.9975 61.9684 47.6854 59.9789 48.7776 58.5687C49.8697 57.1585 51.924 56.8563 53.3801 57.9139C54.8363 58.9716 55.1483 60.9611 54.0562 62.3713C52.9641 63.8067 50.9098 64.0837 49.4536 63.026Z" fill="#607C7B"/>
<path id="Vector_154" d="M50.026 62.2706C49.0118 61.5403 48.7778 60.13 49.5579 59.1227C50.312 58.1406 51.7682 57.914 52.8083 58.6694C53.8224 59.3997 54.0565 60.81 53.2764 61.8173C52.4963 62.8246 51.0401 63.0261 50.026 62.2706Z" fill="#2A3C3D"/>
<path id="Vector_155" d="M50.7274 61.364C50.2333 61.0115 50.1293 60.3315 50.4933 59.8279C50.8574 59.3494 51.5595 59.2487 52.0795 59.6012C52.5736 59.9538 52.6776 60.6337 52.3136 61.1374C51.9495 61.6158 51.2214 61.7166 50.7274 61.364Z" fill="#141D1E"/>
<path id="Vector_156" d="M52.7558 62.9505C52.6258 62.8498 52.5997 62.6735 52.7038 62.5728C52.8078 62.4468 52.9898 62.4217 53.0938 62.5224C53.2238 62.6231 53.2498 62.7994 53.1458 62.9001C53.0678 63.026 52.8858 63.0512 52.7558 62.9505Z" fill="#141D1E"/>
<path id="Vector_157" d="M51.0399 63.3787C50.9099 63.278 50.8839 63.1017 50.9879 63.0009C51.0919 62.875 51.2739 62.8498 51.378 62.9506C51.508 63.0513 51.534 63.2276 51.43 63.3283C51.3519 63.4542 51.1699 63.4794 51.0399 63.3787Z" fill="#141D1E"/>
<path id="Vector_158" d="M49.4535 62.7742C49.3235 62.6735 49.2975 62.4972 49.4015 62.3965C49.5055 62.2706 49.6875 62.2454 49.7915 62.3461C49.9216 62.4469 49.9475 62.6231 49.8435 62.7239C49.7655 62.8498 49.5835 62.8749 49.4535 62.7742Z" fill="#141D1E"/>
<path id="Vector_159" d="M48.5175 61.2381C48.3875 61.1374 48.3614 60.9611 48.4655 60.8604C48.5695 60.7345 48.7515 60.7093 48.8555 60.81C48.9855 60.9107 49.0115 61.087 48.9075 61.1877C48.8295 61.2885 48.6475 61.3137 48.5175 61.2381Z" fill="#141D1E"/>
<path id="Vector_160" d="M48.6732 59.576C48.5432 59.4753 48.5172 59.299 48.6212 59.1983C48.7252 59.0723 48.9073 59.0472 49.0113 59.1479C49.1413 59.2486 49.1673 59.4249 49.0633 59.5256C48.9852 59.6516 48.8032 59.6767 48.6732 59.576Z" fill="#141D1E"/>
<path id="Vector_161" d="M49.7655 58.3421C49.6355 58.2413 49.6095 58.0651 49.7135 57.9643C49.8175 57.8384 49.9995 57.8132 50.1035 57.914C50.2336 58.0147 50.2596 58.191 50.1555 58.2917C50.0775 58.4176 49.8955 58.4428 49.7655 58.3421Z" fill="#141D1E"/>
<path id="Vector_162" d="M51.3778 57.9643C51.2478 57.8636 51.2218 57.6873 51.3258 57.5866C51.4298 57.4607 51.6118 57.4355 51.7158 57.5362C51.8459 57.6369 51.8719 57.8132 51.7679 57.9139C51.6898 58.0399 51.5078 58.065 51.3778 57.9643Z" fill="#141D1E"/>
<path id="Vector_163" d="M52.9379 58.468C52.8078 58.3672 52.7818 58.191 52.8858 58.0902C52.9899 57.9643 53.1719 57.9391 53.2759 58.0399C53.4059 58.1406 53.4319 58.3169 53.3279 58.4176C53.2499 58.5435 53.0679 58.5687 52.9379 58.468Z" fill="#141D1E"/>
<path id="Vector_164" d="M53.9003 59.8027C53.7703 59.702 53.7443 59.5257 53.8483 59.425C53.9523 59.299 54.1343 59.2739 54.2383 59.3746C54.3683 59.4753 54.3943 59.6516 54.2903 59.7523C54.2123 59.8782 54.0303 59.9034 53.9003 59.8027Z" fill="#141D1E"/>
<path id="Vector_165" d="M53.9003 61.5403C53.7703 61.4396 53.7443 61.2633 53.8483 61.1626C53.9523 61.0366 54.1343 61.0115 54.2383 61.1122C54.3683 61.2129 54.3943 61.3892 54.2903 61.4899C54.2123 61.5907 54.0303 61.6158 53.9003 61.5403Z" fill="#141D1E"/>
<path id="Vector_166" d="M54.1336 63.5297C54.0296 63.4542 54.0296 63.3031 54.1076 63.2024L54.5237 62.7491C54.6017 62.6483 54.7577 62.6483 54.8618 62.7239C54.9658 62.7994 54.9658 62.9505 54.8877 63.0513L54.4717 63.5046C54.3677 63.6053 54.2117 63.6053 54.1336 63.5297Z" fill="#141D1E"/>
<path id="Vector_167" d="M51.6639 64.5623C51.6379 64.4363 51.7159 64.3104 51.8199 64.2852L52.418 64.1342C52.548 64.109 52.678 64.1845 52.704 64.2852C52.73 64.4112 52.652 64.5371 52.522 64.5623L51.9239 64.7133C51.8199 64.7637 51.6899 64.6882 51.6639 64.5623Z" fill="#141D1E"/>
<path id="Vector_168" d="M49.2454 63.9327C49.2974 63.8319 49.4534 63.7816 49.5574 63.8319L50.1295 64.109C50.2335 64.1593 50.2855 64.3104 50.2335 64.4111C50.1815 64.5119 50.0255 64.5623 49.9215 64.5119L49.3494 64.2349C49.2454 64.1845 49.1934 64.0334 49.2454 63.9327Z" fill="#141D1E"/>
<path id="Vector_169" d="M47.6076 62.0439C47.7116 61.9936 47.8676 62.0188 47.9196 62.1447L48.2057 62.6735C48.2577 62.7742 48.2057 62.9253 48.1017 62.9757C47.9977 63.0261 47.8416 62.9757 47.7896 62.875L47.5036 62.3461C47.4516 62.2454 47.4776 62.1195 47.6076 62.0439Z" fill="#141D1E"/>
<path id="Vector_170" d="M47.3213 59.6515C47.4513 59.6767 47.5293 59.7774 47.5293 59.9034L47.4513 60.5077C47.4253 60.6337 47.3213 60.7092 47.1913 60.7092C47.0613 60.684 46.9832 60.5833 46.9832 60.4574L47.0613 59.853C47.0873 59.7271 47.1913 59.6515 47.3213 59.6515Z" fill="#141D1E"/>
<path id="Vector_171" d="M48.4651 57.5614C48.5691 57.637 48.5952 57.788 48.5171 57.8888L48.1271 58.3672C48.0491 58.468 47.8931 58.4932 47.7891 58.4176C47.685 58.3421 47.659 58.191 47.737 58.0902L48.1271 57.6118C48.2051 57.511 48.3611 57.4859 48.4651 57.5614Z" fill="#141D1E"/>
<path id="Vector_172" d="M55.4861 59.6012C55.3561 59.6012 55.2521 59.702 55.2521 59.8279L55.2781 60.4323C55.2781 60.5582 55.3821 60.6589 55.5121 60.6589C55.6421 60.6589 55.7461 60.5582 55.7461 60.4323L55.7201 59.8279C55.7201 59.6768 55.6161 59.5761 55.4861 59.6012Z" fill="#141D1E"/>
<path id="Vector_173" d="M54.1602 57.5362C54.0562 57.6118 54.0562 57.7629 54.1342 57.8636L54.5503 58.3169C54.6283 58.4176 54.7843 58.4176 54.8883 58.3421C54.9923 58.2665 54.9923 58.1154 54.8883 58.0147L54.4723 57.5614C54.4203 57.4607 54.2642 57.4607 54.1602 57.5362Z" fill="#141D1E"/>
<path id="Vector_174" d="M51.8454 56.5542C51.8194 56.6801 51.8974 56.806 52.0274 56.806L52.6515 56.9067C52.7815 56.9319 52.9115 56.8563 52.9115 56.7304C52.9375 56.6045 52.8595 56.4786 52.7295 56.4786L52.1054 56.3779C51.9754 56.3275 51.8714 56.4282 51.8454 56.5542Z" fill="#141D1E"/>
<path id="Vector_175" d="M49.4015 56.9822C49.4535 57.1081 49.5835 57.1585 49.7135 57.1081L50.2856 56.8563C50.4156 56.8059 50.4676 56.68 50.4156 56.5541C50.3636 56.4282 50.2336 56.3778 50.1036 56.4282L49.5315 56.68C49.4015 56.7304 49.3495 56.8563 49.4015 56.9822Z" fill="#141D1E"/>
</g>
<path id="Vector_176" d="M59.2044 59.2738C58.8664 57.2844 57.8003 55.5468 56.1361 54.338C54.4458 53.104 52.3656 52.6004 50.2593 52.9026C48.1791 53.2048 46.3068 54.2625 45.0587 55.8993C44.3046 56.8815 43.7845 58.0399 43.6025 59.2738H41.9383C42.1463 57.7125 42.7704 56.2267 43.7585 54.9676C45.2927 52.9781 47.503 51.6938 50.0253 51.3412C52.5476 50.9887 55.0699 51.5931 57.0982 53.0789C59.1784 54.5898 60.5046 56.7807 60.8687 59.2738H59.2044Z" fill="#474747"/>
<g id="Group_12">
<path id="Vector_177" d="M65.7829 67.2568C61.9084 64.4615 61.1283 59.1731 63.9887 55.4209C66.875 51.6686 72.3357 50.9132 76.2102 53.6833C80.0846 56.4786 80.8647 61.7669 78.0044 65.5192C75.118 69.2714 69.6574 70.0521 65.7829 67.2568Z" fill="#141D1E"/>
<path id="Vector_178" d="M68.0706 64.3104C65.8864 62.7239 65.4443 59.7523 67.0565 57.6369C68.6947 55.5216 71.7631 55.0935 73.9473 56.6548C76.1316 58.2413 76.5737 61.2129 74.9615 63.3282C73.3233 65.4436 70.2549 65.8969 68.0706 64.3104Z" fill="#3C5151"/>
<path id="Vector_179" d="M68.2789 64.0334C66.2507 62.5728 65.8346 59.8027 67.3428 57.8385C68.851 55.8742 71.7114 55.4713 73.7396 56.9319C75.7679 58.3925 76.1839 61.1626 74.6757 63.1269C73.1675 65.0911 70.3072 65.494 68.2789 64.0334Z" fill="#2A3C3D"/>
<path id="Vector_180" d="M68.773 63.3786C67.1088 62.195 66.7708 59.9034 68.0189 58.3169C69.2411 56.7052 71.6074 56.3778 73.2456 57.5866C74.9098 58.7702 75.2478 61.0618 73.9997 62.6483C72.7775 64.26 70.4372 64.5874 68.773 63.3786Z" fill="#476363"/>
<path id="Vector_181" d="M69.0332 63.026C67.5771 61.9684 67.265 59.9789 68.3571 58.5687C69.4493 57.1585 71.5035 56.8563 72.9597 57.9139C74.4159 58.9716 74.7279 60.9611 73.6358 62.3713C72.5697 63.8067 70.4894 64.0837 69.0332 63.026Z" fill="#607C7B"/>
<path id="Vector_182" d="M69.631 62.2706C68.6169 61.5403 68.3828 60.13 69.1629 59.1227C69.917 58.1406 71.3732 57.914 72.4133 58.6694C73.4274 59.3997 73.6615 60.81 72.8814 61.8173C72.1013 62.8246 70.6451 63.0261 69.631 62.2706Z" fill="#2A3C3D"/>
<path id="Vector_183" d="M70.3333 61.364C69.8393 61.0115 69.7353 60.3315 70.0993 59.8279C70.4634 59.3494 71.1654 59.2487 71.6855 59.6012C72.1796 59.9538 72.2836 60.6337 71.9195 61.1374C71.5295 61.6158 70.8274 61.7166 70.3333 61.364Z" fill="#141D1E"/>
<path id="Vector_184" d="M72.3617 62.9505C72.2317 62.8498 72.2057 62.6735 72.3097 62.5728C72.4137 62.4468 72.5957 62.4217 72.6997 62.5224C72.8297 62.6231 72.8558 62.7994 72.7517 62.9001C72.6737 63.026 72.4917 63.0512 72.3617 62.9505Z" fill="#141D1E"/>
<path id="Vector_185" d="M70.6449 63.3787C70.5149 63.278 70.4889 63.1017 70.5929 63.0009C70.6969 62.875 70.8789 62.8498 70.9829 62.9506C71.113 63.0513 71.1389 63.2276 71.0349 63.3283C70.9569 63.4542 70.7749 63.4794 70.6449 63.3787Z" fill="#141D1E"/>
<path id="Vector_186" d="M69.059 62.7742C68.929 62.6735 68.903 62.4972 69.007 62.3965C69.111 62.2706 69.293 62.2454 69.397 62.3461C69.527 62.4469 69.553 62.6231 69.449 62.7239C69.345 62.8498 69.189 62.8749 69.059 62.7742Z" fill="#141D1E"/>
<path id="Vector_187" d="M68.1229 61.2381C67.9929 61.1374 67.9669 60.9611 68.0709 60.8604C68.1749 60.7345 68.3569 60.7093 68.461 60.81C68.591 60.9107 68.617 61.087 68.513 61.1877C68.435 61.2885 68.2529 61.3137 68.1229 61.2381Z" fill="#141D1E"/>
<path id="Vector_188" d="M68.2787 59.576C68.1487 59.4753 68.1227 59.299 68.2267 59.1983C68.3307 59.0723 68.5127 59.0472 68.6167 59.1479C68.7467 59.2486 68.7727 59.4249 68.6687 59.5256C68.5647 59.6516 68.4087 59.6767 68.2787 59.576Z" fill="#141D1E"/>
<path id="Vector_189" d="M69.371 58.3421C69.241 58.2413 69.215 58.0651 69.319 57.9643C69.423 57.8384 69.605 57.8132 69.709 57.914C69.839 58.0147 69.865 58.191 69.761 58.2917C69.683 58.4176 69.501 58.4428 69.371 58.3421Z" fill="#141D1E"/>
<path id="Vector_190" d="M70.9833 57.9643C70.8532 57.8636 70.8272 57.6873 70.9313 57.5866C71.0353 57.4607 71.2173 57.4355 71.3213 57.5362C71.4513 57.6369 71.4773 57.8132 71.3733 57.9139C71.2953 58.0399 71.1133 58.065 70.9833 57.9643Z" fill="#141D1E"/>
<path id="Vector_191" d="M72.5433 58.468C72.4133 58.3672 72.3873 58.191 72.4913 58.0902C72.5953 57.9643 72.7774 57.9391 72.8814 58.0399C73.0114 58.1406 73.0374 58.3169 72.9334 58.4176C72.8554 58.5435 72.6733 58.5687 72.5433 58.468Z" fill="#141D1E"/>
<path id="Vector_192" d="M73.5052 59.8027C73.3752 59.702 73.3492 59.5257 73.4533 59.425C73.5573 59.299 73.7393 59.2739 73.8433 59.3746C73.9733 59.4753 73.9993 59.6516 73.8953 59.7523C73.8173 59.8782 73.6353 59.9034 73.5052 59.8027Z" fill="#141D1E"/>
<path id="Vector_193" d="M73.5052 61.5403C73.3752 61.4396 73.3492 61.2633 73.4533 61.1626C73.5573 61.0366 73.7393 61.0115 73.8433 61.1122C73.9733 61.2129 73.9993 61.3892 73.8953 61.4899C73.8173 61.5907 73.6353 61.6158 73.5052 61.5403Z" fill="#141D1E"/>
<path id="Vector_194" d="M73.7138 63.5297C73.6097 63.4542 73.6097 63.3031 73.6877 63.2024L74.1038 62.7491C74.1818 62.6483 74.3378 62.6483 74.4418 62.7239C74.5458 62.7994 74.5458 62.9505 74.4678 63.0513L74.0518 63.5046C73.9738 63.6053 73.8178 63.6053 73.7138 63.5297Z" fill="#141D1E"/>
<path id="Vector_195" d="M71.2697 64.5623C71.2437 64.4363 71.3217 64.3104 71.4517 64.2852L72.0498 64.1342C72.1798 64.109 72.3098 64.1845 72.3358 64.2852C72.3618 64.4112 72.2838 64.5371 72.1798 64.5623L71.5817 64.7133C71.4257 64.7637 71.2957 64.6882 71.2697 64.5623Z" fill="#141D1E"/>
<path id="Vector_196" d="M68.8514 63.9327C68.9034 63.8319 69.0594 63.7816 69.1634 63.8319L69.7354 64.109C69.8395 64.1593 69.8915 64.3104 69.8395 64.4111C69.7875 64.5119 69.6314 64.5623 69.5274 64.5119L68.9554 64.2349C68.8513 64.1845 68.7994 64.0334 68.8514 63.9327Z" fill="#141D1E"/>
<path id="Vector_197" d="M67.2126 62.0439C67.3166 61.9936 67.4726 62.0188 67.5246 62.1447L67.8107 62.6735C67.8627 62.7742 67.8106 62.9253 67.7066 62.9757C67.6026 63.0261 67.4466 62.9757 67.3946 62.875L67.1086 62.3461C67.0305 62.2454 67.0826 62.1195 67.2126 62.0439Z" fill="#141D1E"/>
<path id="Vector_198" d="M66.9267 59.6515C67.0568 59.6767 67.1348 59.7774 67.1348 59.9034L67.0568 60.5077C67.0308 60.6337 66.9267 60.7092 66.7967 60.7092C66.6667 60.684 66.5887 60.5833 66.5887 60.4574L66.6667 59.853C66.6927 59.7271 66.7967 59.6515 66.9267 59.6515Z" fill="#141D1E"/>
<path id="Vector_199" d="M68.0447 57.5614C68.1487 57.637 68.1747 57.788 68.0967 57.8888L67.7067 58.3672C67.6287 58.468 67.4727 58.4932 67.3687 58.4176C67.2647 58.3421 67.2387 58.191 67.3167 58.0902L67.7067 57.6118C67.8107 57.511 67.9407 57.4859 68.0447 57.5614Z" fill="#141D1E"/>
<path id="Vector_200" d="M75.0915 59.6012C74.9615 59.6012 74.8575 59.702 74.8575 59.8279L74.8835 60.4323C74.8835 60.5582 74.9875 60.6589 75.1175 60.6589C75.2475 60.6589 75.3516 60.5582 75.3516 60.4323L75.3255 59.8279C75.3255 59.6768 75.2215 59.5761 75.0915 59.6012Z" fill="#141D1E"/>
<path id="Vector_201" d="M73.7652 57.5362C73.6612 57.6118 73.6612 57.7629 73.7392 57.8636L74.1552 58.3169C74.2332 58.4176 74.3893 58.4176 74.4933 58.3421C74.5973 58.2665 74.5973 58.1154 74.4933 58.0147L74.0772 57.5614C73.9992 57.4607 73.8692 57.4607 73.7652 57.5362Z" fill="#141D1E"/>
<path id="Vector_202" d="M71.4513 56.5542C71.4253 56.6801 71.5034 56.806 71.6334 56.806L72.2574 56.9067C72.3875 56.9319 72.5175 56.8563 72.5175 56.7304C72.5435 56.6045 72.4655 56.4786 72.3355 56.4786L71.7114 56.3779C71.5814 56.3275 71.4513 56.4282 71.4513 56.5542Z" fill="#141D1E"/>
<path id="Vector_203" d="M68.9811 56.9822C69.0331 57.1081 69.1631 57.1585 69.2931 57.1081L69.8652 56.8563C69.9952 56.8059 70.0472 56.68 69.9952 56.5541C69.9432 56.4282 69.8132 56.3778 69.6832 56.4282L69.1111 56.68C68.9811 56.7304 68.929 56.8563 68.9811 56.9822Z" fill="#141D1E"/>
</g>
<path id="Vector_204" d="M78.8104 59.2738C78.4724 57.2844 77.4062 55.5468 75.742 54.338C74.0518 53.104 71.9715 52.6004 69.8653 52.9026C67.785 53.2048 65.9128 54.2625 64.6646 55.8993C63.9106 56.8815 63.3905 58.0399 63.2085 59.2738H61.5443C61.7523 57.7125 62.3764 56.2267 63.3645 54.9676C64.8987 52.9781 67.109 51.6938 69.6313 51.3412C72.1536 50.9887 74.6759 51.5931 76.7041 53.0789C78.7844 54.5898 80.1106 56.7807 80.4746 59.2738H78.8104Z" fill="#474747"/>
<path id="Vector_205" d="M253.162 41.3941V41.4696C253.162 42.8547 251.862 42.8547 251.862 42.8547H212.129V41.3941H253.162Z" fill="#DD7619"/>
<path id="Vector_206" d="M244.945 29.7092C246.064 29.7092 246.974 28.8279 246.974 27.745V17.7223C246.974 16.6394 246.064 15.758 244.945 15.758H232.854C231.736 15.758 230.826 16.6394 230.826 17.7223V27.745C230.826 28.8279 231.736 29.7092 232.854 29.7092H244.945Z" fill="#DD7619"/>
<path id="Vector_207" d="M231.059 26.4355C231.163 26.4355 231.267 26.5363 231.267 26.637V40.5127L246.375 40.4875V29.81C246.531 29.7345 246.661 29.6337 246.791 29.533V40.6638C246.791 40.7645 246.687 40.8652 246.583 40.8652L231.059 40.8904C231.007 40.8904 230.955 40.8652 230.903 40.8401C230.877 40.8149 230.851 40.7645 230.851 40.689V26.6118C230.851 26.5111 230.929 26.4355 231.059 26.4355Z" fill="#DD7619"/>
<path id="Vector_208" d="M231.216 27.3421C231.216 28.4249 232.126 29.3063 233.244 29.3063H244.529C245.648 29.3063 246.558 28.4249 246.558 27.3421V18.1C246.558 17.0171 245.648 16.1357 244.529 16.1357H233.244C232.126 16.1357 231.216 17.0171 231.216 18.1V27.3421Z" fill="#FFCDA4"/>
<path id="Vector_209" d="M229.317 49.7044H242.969L246.739 55.8993L246.687 62.4216H245.517V56.2771L242.163 51.1398H230.071L226.769 56.2771V62.4216H225.599L225.547 55.8993L229.317 49.7044Z" fill="#DD7619"/>
<path id="Vector_210" d="M235.35 31.044C235.35 31.3714 235.064 31.6484 234.726 31.6484H233.218C232.88 31.6484 232.594 31.3714 232.594 31.044V30.9181C232.594 30.5907 232.88 30.3137 233.218 30.3137H234.726C235.064 30.3137 235.35 30.5907 235.35 30.9181V31.044Z" fill="#BF6717"/>
<path id="Vector_211" d="M233.322 30.4647H234.622C234.908 30.4647 235.142 30.6914 235.142 30.9684V31.0439H232.776V30.9684C232.802 30.6914 233.036 30.4647 233.322 30.4647Z" fill="#DD7619"/>
<path id="Vector_212" d="M249.236 15.1536C248.638 14.5996 247.857 14.65 247.831 14.65H240.733C240.681 14.5493 240.551 14.4737 240.421 14.4737C240.213 14.4737 240.057 14.6248 240.057 14.8263C240.057 15.0277 240.213 15.1788 240.421 15.1788C240.525 15.1788 240.629 15.1285 240.681 15.0529H247.857C247.857 15.0529 248.508 15.0277 248.976 15.4558C249.314 15.7832 249.496 16.2617 249.496 16.8913L249.106 28.7523C249.106 28.7775 249.028 29.6337 247.337 29.6337H246.921C246.869 29.533 246.739 29.4574 246.609 29.4574C246.401 29.4574 246.245 29.6085 246.245 29.81C246.245 30.0115 246.401 30.1626 246.609 30.1626C246.713 30.1626 246.817 30.1122 246.869 30.0367H247.311C249.418 30.0367 249.496 28.8531 249.496 28.8027L249.886 16.9416C249.886 16.1358 249.678 15.5566 249.236 15.1536Z" fill="#BF6717"/>
<path id="Vector_213" d="M247.155 15.8336L247.623 22.0285C247.623 22.0285 247.857 22.7588 248.481 22.6077C249.105 22.4566 250.484 21.5249 250.458 20.3665L250.224 17.6719C250.224 17.6719 249.704 15.6321 247.155 15.8336Z" fill="#63330B"/>
<path id="Vector_214" d="M247.182 25.0001L247.546 28.3242C247.546 28.3242 250.016 27.9465 250.146 27.3673C250.276 26.7881 250.016 25.7052 250.016 25.7052C250.016 25.7052 249.054 24.6979 247.182 25.0001Z" fill="#63330B"/>
<path id="Vector_215" d="M247.65 16.0098C247.65 16.0098 249.6 16.3372 250.094 17.7978L250.198 19.611L249.808 17.7726C249.808 17.7726 249.106 16.6142 247.702 16.4379L247.65 16.0098Z" fill="#BF6717"/>
<path id="Vector_216" d="M185.32 1.85718H203.08V47.0602H185.32V1.85718Z" fill="#1E6B53"/>
<path id="Vector_217" d="M162.645 1.85718H180.405V47.0602H162.645V1.85718Z" fill="#1E6B53"/>
<path id="Vector_218" d="M139.97 1.85718H157.73V47.0602H139.97V1.85718Z" fill="#1E6B53"/>
<path id="Vector_219" d="M117.295 1.85718H135.056V47.0602H117.295V1.85718Z" fill="#1E6B53"/>
<path id="Vector_220" d="M94.6207 1.85718H112.381V47.0602H94.6207V1.85718Z" fill="#1E6B53"/>
<path id="Vector_221" d="M71.92 1.85718H89.6802V47.0602H71.92V1.85718Z" fill="#1E6B53"/>
<path id="Vector_222" d="M49.2452 1.85718H67.0054V47.0602H49.2452V1.85718Z" fill="#1E6B53"/>
<path id="Vector_223" d="M26.5704 1.85718H44.3306V47.0602H26.5704V1.85718Z" fill="#1E6B53"/>
<path id="Vector_224" d="M3.8951 1.85718H21.6553V47.0602H3.8951V1.85718Z" fill="#1E6B53"/>
<path id="Vector_225" d="M239.536 23.741C243.567 25.9067 238.964 21.5249 241.278 21.8523C242.657 22.0537 244.945 23.5899 246.583 24.7986V27.3421C246.583 28.425 245.673 29.3064 244.555 29.3064H233.269C232.151 29.3064 231.241 28.425 231.241 27.3421V19.8376C234.336 20.719 236.91 22.3307 239.536 23.741Z" fill="#FFBC80"/>
<g id="Group_13">
<path id="Vector_226" d="M211.921 53.1292H212.337V61.3892H211.921V53.1292Z" fill="#DD7619"/>
</g>
<g id="logo" opacity="0.8">
<g id="Group_14" opacity="0.7">
<path id="Vector_227" opacity="0.7" d="M96.4404 30.8173H95.2443C94.9842 30.49 94.7502 30.1878 94.5422 29.936C94.3342 29.6841 94.1001 29.4323 93.8401 29.1805H93.3981V30.3389C93.3981 30.3892 93.3981 30.4396 93.4241 30.49C93.4501 30.5403 93.5021 30.5655 93.5801 30.5907C93.6061 30.5907 93.6841 30.6159 93.7881 30.6159C93.8921 30.6159 93.9701 30.6411 94.0221 30.6411V30.8173H92.1499V30.6411C92.2019 30.6411 92.2799 30.6411 92.3579 30.6159C92.462 30.6159 92.514 30.5907 92.566 30.5907C92.618 30.5655 92.67 30.5403 92.696 30.49C92.722 30.4396 92.748 30.3892 92.748 30.3137V27.6947C92.748 27.6443 92.748 27.594 92.722 27.5436C92.696 27.4932 92.644 27.468 92.566 27.4429C92.514 27.4177 92.4359 27.4177 92.3579 27.3925C92.2799 27.3673 92.2019 27.3673 92.1499 27.3673V27.191H94.1782C94.3602 27.191 94.5422 27.2162 94.6982 27.2414C94.8542 27.2666 95.0102 27.317 95.1403 27.3925C95.2703 27.468 95.3743 27.5436 95.4523 27.6695C95.5303 27.7702 95.5563 27.9213 95.5563 28.0724C95.5563 28.2235 95.5303 28.3243 95.4783 28.4502C95.4263 28.5509 95.3483 28.6516 95.2443 28.7272C95.1403 28.8027 95.0363 28.8531 94.9062 28.9286C94.7762 29.0042 94.6202 29.0294 94.4642 29.0546C94.6722 29.2812 94.8542 29.4827 95.0102 29.6589C95.1663 29.81 95.3223 30.0115 95.5303 30.2381C95.6343 30.3389 95.7123 30.4144 95.7643 30.4648C95.8424 30.5152 95.9204 30.5655 95.9724 30.5907C96.0244 30.6159 96.1024 30.6411 96.1804 30.6411C96.2584 30.6411 96.3364 30.6663 96.3884 30.6663V30.8173H96.4404ZM94.8022 28.1228C94.8022 27.8962 94.7242 27.7199 94.5682 27.594C94.4122 27.468 94.2042 27.3925 93.9181 27.3925H93.3981V28.9538H93.8141C94.1001 28.9538 94.3342 28.8783 94.5162 28.7272C94.7242 28.5761 94.8022 28.3746 94.8022 28.1228Z" fill="white"/>
<path id="Vector_228" opacity="0.7" d="M100.289 27.6192C100.471 27.7954 100.627 27.9969 100.757 28.2235C100.887 28.4502 100.913 28.7272 100.913 29.0042C100.913 29.2812 100.861 29.5582 100.757 29.7849C100.653 30.0115 100.497 30.213 100.289 30.3893C100.107 30.5655 99.8732 30.6914 99.6131 30.767C99.3531 30.8677 99.0931 30.8929 98.8071 30.8929C98.495 30.8929 98.209 30.8425 97.949 30.7418C97.6889 30.6411 97.4549 30.5152 97.2729 30.3389C97.0909 30.1626 96.9348 29.9612 96.8308 29.7345C96.7268 29.5079 96.6748 29.256 96.6748 28.979C96.6748 28.6768 96.7268 28.425 96.8308 28.1984C96.9348 27.9717 97.0909 27.7703 97.2989 27.594C97.4809 27.4177 97.7149 27.2918 97.975 27.2162C98.235 27.1155 98.495 27.0903 98.781 27.0903C99.0671 27.0903 99.3531 27.1407 99.6131 27.2162C99.8732 27.2918 100.107 27.4681 100.289 27.6192ZM99.8472 30.1878C99.9512 30.0367 100.055 29.8604 100.107 29.659C100.159 29.4575 100.185 29.256 100.185 29.0042C100.185 28.7524 100.159 28.5257 100.107 28.3243C100.055 28.1228 99.9512 27.9465 99.8472 27.7954C99.7432 27.6443 99.5871 27.5436 99.4311 27.4681C99.2491 27.3925 99.0671 27.3421 98.8331 27.3421C98.573 27.3421 98.365 27.3925 98.209 27.4932C98.053 27.594 97.8969 27.7199 97.7929 27.871C97.6889 28.0221 97.6109 28.1984 97.5589 28.3998C97.5069 28.6013 97.4809 28.8027 97.4809 29.0294C97.4809 29.2812 97.5069 29.5079 97.5589 29.6841C97.6109 29.8856 97.6889 30.0619 97.8189 30.213C97.923 30.3641 98.079 30.49 98.235 30.5655C98.417 30.6411 98.599 30.6914 98.8331 30.6914C99.0671 30.6914 99.2491 30.6411 99.4311 30.5655C99.5871 30.4648 99.7172 30.3389 99.8472 30.1878Z" fill="white"/>
<path id="Vector_229" opacity="0.7" d="M105.516 27.3674C105.49 27.3674 105.412 27.3925 105.36 27.3925C105.282 27.4177 105.23 27.4429 105.204 27.4429C105.126 27.4933 105.074 27.5185 105.048 27.5436C105.022 27.5688 104.97 27.6192 104.892 27.7199C104.736 27.8962 104.58 28.0977 104.45 28.2991C104.32 28.5006 104.138 28.7272 103.93 29.0294C103.852 29.1302 103.8 29.2309 103.774 29.2813C103.748 29.3568 103.748 29.4323 103.748 29.5583V30.2634C103.748 30.3137 103.774 30.3893 103.8 30.4145C103.826 30.4648 103.878 30.49 103.956 30.5152C104.008 30.5404 104.086 30.5404 104.19 30.5656C104.294 30.5908 104.398 30.5908 104.45 30.5908V30.767H102.396V30.5908C102.448 30.5908 102.552 30.5908 102.656 30.5656C102.76 30.5656 102.864 30.5404 102.89 30.5404C102.968 30.5152 103.02 30.49 103.046 30.4397C103.072 30.3893 103.098 30.3389 103.098 30.2886V29.4072C103.098 29.382 103.072 29.3316 103.046 29.2561C102.994 29.1805 102.968 29.105 102.89 29.0042C102.76 28.8028 102.63 28.6013 102.474 28.3747C102.318 28.148 102.188 27.9466 102.084 27.7955C102.006 27.6947 101.954 27.6192 101.902 27.5688C101.85 27.5185 101.798 27.4681 101.72 27.4429C101.668 27.4177 101.616 27.3925 101.537 27.3925C101.459 27.3674 101.407 27.3674 101.355 27.3674V27.1911H103.228V27.3674C103.02 27.3674 102.864 27.3925 102.786 27.3925C102.708 27.3925 102.656 27.4429 102.656 27.4681C102.656 27.4681 102.656 27.4933 102.682 27.5185C102.682 27.5436 102.708 27.5688 102.734 27.6192C102.76 27.6696 102.786 27.7199 102.838 27.7703C102.864 27.8207 102.916 27.871 102.942 27.9466C103.046 28.0977 103.15 28.2488 103.228 28.3999C103.332 28.551 103.462 28.7524 103.618 28.9791C103.93 28.551 104.19 28.2236 104.372 27.9718C104.554 27.7199 104.632 27.594 104.632 27.5436C104.632 27.4933 104.606 27.4681 104.58 27.4429C104.554 27.4177 104.502 27.3925 104.45 27.3925C104.398 27.3674 104.32 27.3674 104.242 27.3674C104.164 27.3674 104.112 27.3674 104.034 27.3422V27.1659H105.568V27.3674H105.516Z" fill="white"/>
<path id="Vector_230" opacity="0.7" d="M110.118 30.8174H108.298V30.6411C108.454 30.6411 108.584 30.6159 108.688 30.5907C108.792 30.5655 108.844 30.5404 108.844 30.49C108.844 30.4648 108.844 30.4648 108.844 30.4396C108.844 30.4144 108.844 30.3893 108.818 30.3893L108.454 29.5834H106.92C106.868 29.7093 106.816 29.8101 106.79 29.8856C106.764 29.9863 106.712 30.0619 106.686 30.1374C106.66 30.213 106.634 30.2633 106.634 30.3137C106.634 30.3641 106.608 30.3893 106.608 30.4144C106.608 30.49 106.686 30.5404 106.816 30.5655C106.946 30.5907 107.102 30.6159 107.258 30.6411V30.8174H105.594V30.6411C105.646 30.6411 105.724 30.6159 105.802 30.6159C105.88 30.5907 105.958 30.5655 106.01 30.5404C106.088 30.49 106.166 30.4396 106.192 30.3893C106.244 30.3389 106.27 30.2633 106.322 30.1878C106.556 29.7345 106.79 29.2309 107.05 28.6516C107.31 28.0724 107.544 27.5688 107.752 27.1407H108.012L109.468 30.2633C109.494 30.3389 109.546 30.3893 109.572 30.4144C109.624 30.4648 109.676 30.49 109.728 30.5404C109.78 30.5655 109.832 30.5907 109.91 30.5907C109.988 30.6159 110.04 30.6159 110.092 30.6159L110.118 30.8174ZM108.35 29.3316L107.674 27.9213L107.024 29.3316H108.35Z" fill="white"/>
<path id="Vector_231" opacity="0.7" d="M114.071 29.7345L113.967 30.8174H110.535V30.6411C110.587 30.6411 110.665 30.6411 110.743 30.6159C110.847 30.6159 110.899 30.5907 110.951 30.5907C111.003 30.5656 111.055 30.5404 111.081 30.49C111.107 30.4397 111.133 30.3893 111.133 30.3137V27.7199C111.133 27.6695 111.133 27.6192 111.107 27.5688C111.081 27.5185 111.029 27.4933 110.977 27.4681C110.925 27.4429 110.873 27.4177 110.769 27.4177C110.691 27.3925 110.613 27.3925 110.561 27.3925V27.2163H112.433V27.3925C112.381 27.3925 112.303 27.3925 112.199 27.4177C112.095 27.4429 112.043 27.4429 111.991 27.4681C111.913 27.4933 111.861 27.5185 111.835 27.5688C111.809 27.6192 111.783 27.6695 111.783 27.7199V30.1626C111.783 30.2634 111.783 30.3641 111.809 30.4145C111.835 30.4648 111.861 30.5152 111.913 30.5656C111.965 30.5907 112.043 30.6159 112.121 30.6159C112.225 30.6159 112.355 30.6411 112.511 30.6411C112.589 30.6411 112.667 30.6411 112.745 30.6411C112.823 30.6411 112.901 30.6411 112.979 30.6159C113.057 30.6159 113.109 30.5907 113.187 30.5656C113.239 30.5404 113.291 30.5152 113.317 30.49C113.395 30.4145 113.499 30.2886 113.603 30.1375C113.707 29.9864 113.785 29.8604 113.837 29.7597H114.071V29.7345Z" fill="white"/>
<path id="Vector_232" opacity="0.7" d="M86.6375 33.2098C86.5595 33.2098 86.4295 33.235 86.2995 33.2601C86.1434 33.2853 86.0134 33.3357 85.9354 33.386C85.8314 33.4364 85.7794 33.5623 85.7274 33.7386C85.7014 33.9149 85.6754 34.1415 85.6754 34.3934V36.685C85.6754 36.9872 85.5974 37.239 85.4674 37.4405C85.3373 37.6671 85.1553 37.8434 84.9213 37.9693C84.6873 38.0952 84.4532 38.196 84.2192 38.2463C83.9592 38.2967 83.7251 38.3219 83.5171 38.3219C83.1531 38.3219 82.841 38.2715 82.555 38.196C82.269 38.1204 82.0349 37.9945 81.8269 37.8686C81.6449 37.7175 81.4889 37.5664 81.3848 37.3901C81.2808 37.2138 81.2288 37.0124 81.2288 36.8109V33.7134C81.2288 33.6379 81.2028 33.5623 81.1768 33.4868C81.1508 33.4364 81.0728 33.386 80.9688 33.3357C80.8908 33.3105 80.8128 33.2853 80.7088 33.2601C80.6048 33.235 80.5007 33.2349 80.4487 33.2098V32.9579H82.971V33.2098C82.893 33.2098 82.789 33.235 82.659 33.235C82.529 33.2601 82.451 33.2853 82.399 33.2853C82.295 33.3105 82.243 33.3609 82.2169 33.4364C82.1909 33.512 82.1649 33.5875 82.1649 33.6631V36.5591C82.1649 36.7102 82.1909 36.8361 82.2169 37.0124C82.243 37.1886 82.321 37.3146 82.425 37.4405C82.529 37.5664 82.685 37.6923 82.867 37.7679C83.0491 37.8434 83.3091 37.8938 83.6471 37.8938C83.9592 37.8938 84.2192 37.8434 84.4272 37.7679C84.6353 37.6923 84.8173 37.5664 84.9213 37.4405C85.0253 37.3146 85.1293 37.1635 85.1813 37.0124C85.2333 36.8613 85.2593 36.7102 85.2593 36.5843V34.4437C85.2593 34.1667 85.2333 33.9401 85.1813 33.7638C85.1293 33.5875 85.0773 33.4868 84.9733 33.4112C84.8693 33.3609 84.7393 33.3105 84.5573 33.2601C84.3752 33.235 84.2452 33.2098 84.1672 33.2098V32.9579H86.6375V33.2098Z" fill="white"/>
<path id="Vector_233" opacity="0.7" d="M93.6325 33.2097C93.5545 33.2097 93.4245 33.2349 93.2685 33.2601C93.1125 33.2852 92.9824 33.3356 92.9044 33.386C92.8004 33.4363 92.7224 33.5623 92.6964 33.7385C92.6704 33.9148 92.6444 34.1415 92.6444 34.3933V38.2211H92.2803L88.6139 33.94V36.6346C88.6139 36.9367 88.6399 37.1634 88.6919 37.3397C88.7439 37.4908 88.7959 37.6167 88.8999 37.6922C88.9779 37.7426 89.108 37.793 89.316 37.8433C89.524 37.8937 89.654 37.9189 89.732 37.9189V38.1707H87.2617V37.9189C87.3397 37.9189 87.4697 37.8937 87.6518 37.8433C87.8338 37.793 87.9378 37.7678 87.9898 37.7174C88.0938 37.6419 88.1458 37.5411 88.1978 37.39C88.2238 37.2389 88.2498 37.0123 88.2498 36.6597V34.0659C88.2498 33.9652 88.2238 33.8393 88.1718 33.7134C88.1198 33.6126 88.0678 33.5119 87.9898 33.4615C87.8858 33.386 87.7558 33.3104 87.5738 33.2601C87.3917 33.2097 87.2617 33.1593 87.1577 33.1593V32.9075H88.8739L92.2803 36.9116V34.4185C92.2803 34.1163 92.2543 33.8896 92.2023 33.7134C92.1503 33.5623 92.0983 33.4363 91.9943 33.386C91.9163 33.3356 91.7863 33.2852 91.6043 33.2601C91.4222 33.2097 91.2922 33.1845 91.1882 33.1845V32.9327H93.6585V33.2097H93.6325Z" fill="white"/>
<path id="Vector_234" opacity="0.7" d="M97.2469 38.1707H94.5166V37.9189C94.5946 37.9189 94.6986 37.9189 94.8546 37.8937C95.0107 37.8937 95.0887 37.8685 95.1667 37.8434C95.2707 37.8182 95.3227 37.7678 95.3747 37.7174C95.4267 37.6671 95.4267 37.5915 95.4267 37.4908V33.6882C95.4267 33.6127 95.4007 33.5371 95.3747 33.4616C95.3487 33.4112 95.2707 33.3608 95.1407 33.3105C95.0627 33.2853 94.9587 33.2601 94.8286 33.2349C94.6986 33.2097 94.5946 33.1846 94.5166 33.1846V32.9327H97.2469V33.1846C97.1689 33.1846 97.0649 33.1845 96.9349 33.2097C96.8049 33.2349 96.7009 33.2349 96.6229 33.2601C96.5188 33.2853 96.4408 33.3356 96.4148 33.4112C96.3888 33.4867 96.3628 33.5623 96.3628 33.6378V37.4404C96.3628 37.516 96.3888 37.5915 96.4148 37.6671C96.4668 37.7426 96.5188 37.7678 96.6229 37.8182C96.6749 37.8434 96.7789 37.8685 96.9089 37.8937C97.0389 37.9189 97.1689 37.9189 97.2469 37.9441V38.1707Z" fill="white"/>
<path id="Vector_235" opacity="0.7" d="M103.436 35.728C103.618 35.8287 103.748 35.9546 103.878 36.1309C103.982 36.3072 104.06 36.5087 104.06 36.7353C104.06 36.9871 104.008 37.1886 103.878 37.3649C103.748 37.5411 103.592 37.6922 103.41 37.8182C103.228 37.9441 102.993 38.0196 102.759 38.07C102.525 38.1203 102.265 38.1707 102.005 38.1707H99.145V37.9189C99.223 37.9189 99.301 37.8937 99.431 37.8937C99.5611 37.8685 99.6651 37.8685 99.7171 37.8433C99.7951 37.8182 99.8731 37.7678 99.8991 37.7174C99.9251 37.6671 99.9511 37.5915 99.9511 37.4908V33.7134C99.9511 33.6378 99.9251 33.5623 99.8991 33.4867C99.8731 33.4112 99.7951 33.3608 99.7171 33.3356C99.6391 33.3104 99.5351 33.2601 99.431 33.2601C99.327 33.2349 99.249 33.2349 99.171 33.2349V32.9831H101.953C102.161 32.9831 102.369 33.0083 102.577 33.0334C102.785 33.0586 102.967 33.1342 103.15 33.2349C103.306 33.3104 103.462 33.4364 103.566 33.5875C103.67 33.7386 103.722 33.9148 103.722 34.1163C103.722 34.2926 103.696 34.4689 103.618 34.6199C103.54 34.771 103.436 34.897 103.306 34.9977C103.176 35.0984 103.019 35.174 102.863 35.2495C102.681 35.3251 102.499 35.3754 102.317 35.4006V35.4258C102.499 35.451 102.681 35.4762 102.889 35.5265C103.098 35.5517 103.28 35.6273 103.436 35.728ZM102.421 34.9473C102.525 34.8466 102.603 34.7207 102.629 34.5948C102.681 34.4689 102.681 34.3178 102.681 34.1415C102.681 33.8645 102.603 33.6378 102.421 33.4615C102.239 33.2853 101.953 33.2097 101.563 33.2097C101.485 33.2097 101.355 33.2097 101.225 33.2097C101.095 33.2097 100.965 33.2097 100.887 33.2097V35.2243H101.433C101.667 35.2243 101.875 35.1992 102.031 35.1488C102.187 35.1236 102.317 35.0481 102.421 34.9473ZM103.019 36.6346C103.019 36.3324 102.889 36.0805 102.655 35.8791C102.421 35.6776 102.083 35.5769 101.615 35.5769C101.433 35.5769 101.277 35.5769 101.147 35.5769C101.017 35.5769 100.939 35.5769 100.861 35.5769V37.4152C100.861 37.5663 100.939 37.6922 101.069 37.7678C101.225 37.8433 101.407 37.8937 101.667 37.8937C102.083 37.8937 102.421 37.793 102.629 37.5663C102.889 37.3649 103.019 37.0375 103.019 36.6346Z" fill="white"/>
<path id="Vector_236" opacity="0.7" d="M111.054 38.1708H109.416C109.052 37.6923 108.74 37.2642 108.428 36.9116C108.142 36.5591 107.83 36.1813 107.492 35.8036H106.868V37.4657C106.868 37.5412 106.894 37.6167 106.92 37.6923C106.946 37.7678 107.024 37.8182 107.128 37.8434C107.18 37.8686 107.258 37.8686 107.388 37.8938C107.518 37.9189 107.622 37.9189 107.7 37.9189V38.1708H105.152V37.9189C105.23 37.9189 105.308 37.8938 105.438 37.8938C105.568 37.8938 105.646 37.8686 105.698 37.8434C105.776 37.8182 105.854 37.7678 105.88 37.6923C105.906 37.6419 105.932 37.5412 105.932 37.4657V33.6631C105.932 33.5875 105.906 33.512 105.88 33.4364C105.854 33.3609 105.776 33.3105 105.672 33.2853C105.594 33.2601 105.516 33.235 105.386 33.235C105.282 33.2098 105.178 33.2098 105.1 33.2098V32.9579H107.882C108.142 32.9579 108.376 32.9831 108.61 33.0335C108.844 33.0839 109.026 33.1594 109.208 33.2601C109.39 33.3609 109.52 33.4868 109.624 33.6379C109.728 33.789 109.78 33.9904 109.78 34.2171C109.78 34.4185 109.754 34.5948 109.676 34.7459C109.598 34.897 109.494 35.0229 109.364 35.1488C109.234 35.2496 109.078 35.3503 108.896 35.4258C108.714 35.5014 108.532 35.5769 108.298 35.6273C108.584 35.9799 108.844 36.2569 109.052 36.4835C109.26 36.7102 109.494 37.0124 109.78 37.3397C109.91 37.4908 110.014 37.5916 110.118 37.6671C110.222 37.7427 110.326 37.793 110.43 37.8434C110.508 37.8686 110.586 37.8938 110.716 37.9189C110.82 37.9441 110.924 37.9441 111.002 37.9441V38.1708H111.054ZM108.818 34.2674C108.818 33.9401 108.714 33.6882 108.506 33.512C108.298 33.3357 108.012 33.235 107.622 33.235H106.894V35.4762H107.44C107.83 35.4762 108.168 35.3755 108.428 35.1488C108.688 34.9474 108.818 34.6452 108.818 34.2674Z" fill="white"/>
<path id="Vector_237" opacity="0.7" d="M116.827 36.6346L116.723 38.1707H111.705V37.9189C111.783 37.9189 111.913 37.8937 112.043 37.8937C112.173 37.8685 112.277 37.8685 112.329 37.8434C112.433 37.8182 112.485 37.7678 112.511 37.6923C112.537 37.6419 112.563 37.5663 112.563 37.4656V33.6882C112.563 33.6127 112.537 33.5371 112.511 33.4616C112.485 33.386 112.407 33.3356 112.303 33.3105C112.225 33.2853 112.121 33.2601 111.991 33.2349C111.861 33.2097 111.757 33.1846 111.679 33.1846V32.9327H116.359V34.1919H116.047C115.995 34.0156 115.865 33.8141 115.683 33.5875C115.501 33.386 115.319 33.2601 115.137 33.2349C115.059 33.2349 114.955 33.2097 114.825 33.2097C114.695 33.2097 114.565 33.2097 114.409 33.2097H113.447V35.2999H114.123C114.331 35.2999 114.513 35.2747 114.591 35.2495C114.695 35.2244 114.773 35.1488 114.851 35.0733C114.903 34.9977 114.955 34.897 115.007 34.7962C115.059 34.6703 115.085 34.5696 115.085 34.4689H115.397V36.5339H115.085C115.085 36.4079 115.033 36.282 114.981 36.1561C114.929 36.0302 114.877 35.9295 114.825 35.8791C114.747 35.7784 114.643 35.728 114.513 35.7028C114.383 35.6776 114.253 35.6525 114.071 35.6525H113.395V37.2138C113.395 37.3649 113.421 37.4908 113.421 37.5915C113.447 37.6923 113.499 37.7426 113.577 37.793C113.655 37.8434 113.759 37.8685 113.889 37.8937C114.019 37.9189 114.201 37.9189 114.435 37.9189C114.539 37.9189 114.643 37.9189 114.799 37.9189C114.955 37.9189 115.085 37.9189 115.189 37.8937C115.293 37.8937 115.397 37.8685 115.527 37.8434C115.631 37.8182 115.735 37.793 115.761 37.7426C115.891 37.6167 116.021 37.4404 116.177 37.2138C116.333 36.962 116.411 36.7857 116.463 36.6849H116.827V36.6346Z" fill="white"/>
<path id="Vector_238" opacity="0.7" d="M125.98 33.2097C125.902 33.2097 125.824 33.2349 125.746 33.2601C125.642 33.2853 125.564 33.3105 125.486 33.3608C125.382 33.4112 125.304 33.4868 125.252 33.5371C125.2 33.6127 125.148 33.7134 125.096 33.8393C124.888 34.4185 124.654 35.0733 124.394 35.8288C124.134 36.5842 123.848 37.3901 123.536 38.2463H123.146L121.612 34.2171L120.026 38.2463H119.661C119.375 37.3901 119.089 36.4835 118.777 35.5518C118.465 34.62 118.283 33.9904 118.179 33.6882C118.153 33.6127 118.127 33.5371 118.075 33.4868C118.023 33.4364 117.945 33.3608 117.867 33.3357C117.789 33.2853 117.711 33.2601 117.607 33.2349C117.503 33.2097 117.425 33.2097 117.347 33.1846V32.9327H119.817V33.1846C119.609 33.1846 119.427 33.2097 119.271 33.2349C119.115 33.2601 119.037 33.3105 119.037 33.3608C119.037 33.386 119.037 33.4112 119.037 33.4616C119.037 33.5119 119.063 33.5371 119.063 33.5623C119.141 33.789 119.245 34.1415 119.401 34.6452C119.557 35.1488 119.817 35.9043 120.13 36.8864L121.638 32.9831H122.054L123.588 36.962C123.796 36.3576 123.978 35.8036 124.108 35.3503C124.238 34.897 124.368 34.4941 124.472 34.1667C124.55 33.94 124.576 33.789 124.602 33.6882C124.628 33.6127 124.628 33.5371 124.628 33.4616C124.628 33.386 124.55 33.3105 124.42 33.2601C124.29 33.2098 124.082 33.1594 123.77 33.1342V32.8824H125.954L125.98 33.2097Z" fill="white"/>
</g>
<path id="Vector_239" opacity="0.7" d="M95.5044 8.07732L99.6389 9.86529V18.6541C99.6389 18.6541 99.5609 22.6078 102.395 23.741C102.395 23.741 95.5044 23.7662 95.5044 17.8734C95.5044 11.9806 95.5044 8.07732 95.5044 8.07732Z" fill="white"/>
<path id="Vector_240" opacity="0.7" d="M110.222 8.07732L106.087 9.86529V18.6541C106.087 18.6541 106.165 22.6078 103.331 23.741C103.331 23.741 110.222 23.7662 110.222 17.8734C110.222 11.9806 110.222 8.07732 110.222 8.07732Z" fill="white"/>
</g>
</g>
</g>
</svg>
