<svg width="434" height="210" viewBox="0 0 434 210" fill="none" xmlns="http://www.w3.org/2000/svg">
<g id="warehouse">
<path id="Vector" d="M217.066 12.3819L0.155762 102.724V209.118H217.066H433.977V102.724L217.066 12.3819Z" fill="#F2DBBD"/>
<g id="doors">
<g id="left">
<path id="Vector_2" d="M170.287 127.943H63.4395V209.107H170.287V127.943Z" fill="#FDFDFD"/>
<path id="Vector_3" d="M170.298 205.36V203.143V202.112V199.895V198.864V196.647V195.649V193.432V192.324V190.107V189.065V186.848V185.806V183.589V182.547V180.33V179.288V177.071V176.029V173.812V172.77V170.553V169.511V167.294V166.252V164.035V162.993V160.776V159.745V157.528V156.497V154.28V153.238V151.021V150.201V147.984V146.876V144.659V143.617V141.4V140.358V138.141V137.099V127.876H164.689V130.603H69.0484V127.876H63.4395V209.04H69.0484V206.324H164.678V209.04H170.287V206.324L170.298 205.36ZM164.678 202.112H69.0484V199.895H164.678V202.112ZM164.678 198.864H69.0484V196.647H164.678V198.864ZM164.678 195.616H69.0484V193.399H164.678V195.616ZM164.678 192.368H69.0484V190.151H164.678V192.368ZM164.678 189.12H69.0484V186.903H164.678V189.12ZM164.678 185.873H69.0484V183.656H164.678V185.873ZM164.678 182.625H69.0484V180.408H164.678V182.625ZM164.678 179.377H69.0484V177.16H164.678V179.377ZM164.678 176.129H69.0484V173.912H164.678V176.129ZM164.678 172.881H69.0484V170.664H164.678V172.881ZM164.678 169.633H69.0484V167.416H164.678V169.633ZM164.678 166.385H69.0484V164.168H164.678V166.385ZM164.678 163.137H69.0484V160.92H164.678V163.137ZM164.678 159.9H69.0484V157.683H164.678V159.9ZM164.678 156.653H69.0484V154.436H164.678V156.653ZM164.678 153.405H69.0484V151.188H164.678V153.405ZM164.678 150.157H69.0484V147.94H164.678V150.157ZM164.678 146.909H69.0484V144.692H164.678V146.909ZM164.678 143.661H69.0484V141.444H164.678V143.661ZM164.678 140.413H69.0484V138.196H164.678V140.413ZM164.678 137.165H69.0484V134.948H164.678V137.165ZM164.678 131.711V133.928H69.0484V131.711H164.678ZM69.0484 205.36V203.143H164.678V205.36H69.0484Z" fill="#DCDDE0"/>
</g>
<g id="right">
<path id="Vector_4" d="M370.693 127.943H263.845V209.107H370.693V127.943Z" fill="#FDFDFD"/>
<path id="Vector_5" d="M370.693 209.107V127.943H365.073V130.669H269.454V127.943H263.845V209.107H269.454V206.391H365.073V209.107H370.693ZM269.454 131.711H365.073V133.928H269.454V131.711ZM269.454 134.959H365.073V137.176H269.454V134.959ZM269.454 138.207H365.073V140.424H269.454V138.207ZM269.454 141.455H365.073V143.672H269.454V141.455ZM269.454 144.703H365.073V146.92H269.454V144.703ZM269.454 147.951H365.073V150.168H269.454V147.951ZM269.454 151.199H365.073V153.416H269.454V151.199ZM269.454 154.447H365.073V156.664H269.454V154.447ZM269.454 157.684H365.073V159.9H269.454V157.684ZM269.454 160.931H365.073V163.148H269.454V160.931ZM269.454 164.179H365.073V166.396H269.454V164.179ZM269.454 167.427H365.073V169.644H269.454V167.427ZM269.454 170.675H365.073V172.892H269.454V170.675ZM269.454 173.923H365.073V176.14H269.454V173.923ZM269.454 177.171H365.073V179.388H269.454V177.171ZM269.454 180.419H365.073V182.636H269.454V180.419ZM269.454 183.667H365.073V185.884H269.454V183.667ZM269.454 186.915H365.073V189.132H269.454V186.915ZM269.454 190.162H365.073V192.379H269.454V190.162ZM269.454 193.41H365.073V195.627H269.454V193.41ZM269.454 196.658H365.073V198.875H269.454V196.658ZM269.454 199.895H365.073V202.112H269.454V199.895ZM269.454 205.36V203.143H365.073V205.36H269.454Z" fill="#DCDDE0"/>
</g>
<g id="Group">
<path id="Vector_6" d="M176.019 127.943H57.709L50.8252 123.364H182.902L176.019 127.943Z" fill="#ABABAB"/>
<path id="Vector_7" d="M182.903 119.119H50.8257V123.365H182.903V119.119Z" fill="#1E6B53"/>
<path id="Vector_8" d="M376.423 127.943H258.114L251.23 123.364H383.307L376.423 127.943Z" fill="#ABABAB"/>
<path id="Vector_9" d="M383.307 119.119H251.23V123.364H383.307V119.119Z" fill="#1E6B53"/>
</g>
</g>
<path id="Vector_10" d="M0.155762 102.724H433.977L217.066 12.3819L0.155762 102.724Z" fill="#ABABAB"/>
<path id="Vector_11" d="M433.977 90.3424L217.066 0L0.155762 90.3424V102.724H433.977V90.3424ZM29.8856 90.3424L217.066 12.3819L404.247 90.3424H29.8856Z" fill="#1E6B53"/>
<path id="Vector_12" opacity="0.3" d="M48.5974 89.8768L219.816 18.5673L391.034 89.8768H403.15L217.067 12.3819L30.9834 89.8768H48.5974Z" fill="#4A5C5C"/>
<path id="Vector_13" opacity="0.3" d="M281.946 51.667H155.478V76.8077H281.946V51.667Z" fill="#282828"/>
<path id="Vector_14" d="M280.306 50.0264H153.837V75.1671H280.306V50.0264Z" fill="#FDFDFD"/>
<path id="Vector_15" d="M172.527 56.9767L174.5 63.1177L175.01 61.1557L176.484 56.7993H179.422V57.2427L175.409 68.4607H173.713L171.862 62.9182L170.022 68.4607H168.381L164.324 57.2427V56.7993H167.317L168.791 61.1557L169.312 63.1177L171.241 56.9767H172.527Z" fill="#9BA7B2"/>
<path id="Vector_16" d="M187.359 66.8977H182.803L182.127 68.3498H179.233V67.9175L184.432 56.6441H185.707L190.917 67.9175V68.3498H188.035L187.359 66.8977ZM185.064 61.3552L183.811 64.3593H186.416L185.064 61.3552Z" fill="#9BA7B2"/>
<path id="Vector_17" d="M202.201 67.9175V68.3498H198.875L196.891 64.9467H195.362V68.3498H192.402V56.7993H197.468C198.344 56.7862 199.202 57.0536 199.916 57.5625C200.63 58.0714 201.163 58.7952 201.437 59.6283C201.71 60.4614 201.71 61.3601 201.437 62.1932C201.164 63.0263 200.631 63.7503 199.917 64.2595L202.201 67.9175ZM197.49 59.4375H195.384V62.2974H197.49C199.097 62.2974 199.175 59.4597 197.49 59.4375Z" fill="#9BA7B2"/>
<path id="Vector_18" d="M211.191 59.4375H206.923V61.067H210.847V63.7385H206.923V65.767H211.357V68.3942H203.986V56.7993H211.191V59.4375Z" fill="#9BA7B2"/>
<path id="Vector_19" d="M223.506 68.3498H220.491V63.7385H216.922V68.372H213.907V56.7993H216.922V60.9894H220.491V56.7993H223.506V68.3498Z" fill="#9BA7B2"/>
<path id="Vector_20" d="M225.757 62.63C225.757 54.6488 237.607 54.6488 237.607 62.63C237.607 70.6112 225.757 70.589 225.757 62.63ZM234.625 62.63C234.649 62.2343 234.592 61.8377 234.458 61.4648C234.323 61.0918 234.114 60.7504 233.842 60.4615C233.571 60.1726 233.243 59.9423 232.879 59.785C232.515 59.6276 232.123 59.5464 231.726 59.5464C231.33 59.5464 230.937 59.6276 230.573 59.785C230.209 59.9423 229.882 60.1726 229.61 60.4615C229.338 60.7504 229.129 61.0918 228.994 61.4648C228.86 61.8377 228.803 62.2343 228.827 62.63C228.777 63.0385 228.813 63.4531 228.935 63.8464C229.057 64.2396 229.26 64.6025 229.533 64.911C229.805 65.2195 230.14 65.4665 230.516 65.6357C230.891 65.8049 231.298 65.8924 231.709 65.8924C232.121 65.8924 232.528 65.8049 232.903 65.6357C233.279 65.4665 233.613 65.2195 233.886 64.911C234.159 64.6025 234.362 64.2396 234.484 63.8464C234.606 63.4531 234.642 63.0385 234.592 62.63H234.625Z" fill="#9BA7B2"/>
<path id="Vector_21" d="M246.064 64.459V56.7993H248.913V64.5034C248.913 67.0418 246.696 68.5161 244.313 68.5161C241.93 68.5161 239.724 67.0418 239.724 64.5034V56.7993H242.561V64.459C242.561 65.3901 243.47 65.8557 244.324 65.8557C245.177 65.8557 246.064 65.3901 246.064 64.459Z" fill="#9BA7B2"/>
<path id="Vector_22" d="M257.416 64.9024C257.416 64.0932 256.462 63.9602 255.309 63.8937C252.804 63.7163 251.153 62.8517 251.119 60.3465C251.019 55.3583 259.987 55.3583 259.932 60.3465H257.127C257.127 58.8168 254.024 58.9387 253.924 60.3465C253.857 61.2222 254.711 61.455 255.753 61.5215C258.047 61.7654 260.287 62.0647 260.287 64.9467C260.287 69.802 250.886 69.935 250.953 64.847H253.802C253.802 66.288 257.416 66.2548 257.416 64.9024Z" fill="#9BA7B2"/>
<path id="Vector_23" d="M269.676 59.4375H265.397V61.067H269.321V63.7385H265.397V65.767H269.831V68.3942H262.515V56.7993H269.731L269.676 59.4375Z" fill="#9BA7B2"/>
<path id="Vector_24" opacity="0.3" d="M426.184 129.45H386.09V152.152H426.184V129.45Z" fill="#282828"/>
<path id="Vector_25" d="M425.264 128.242H385.169V150.944H425.264V128.242Z" fill="#FDFDFD"/>
<path id="Vector_26" d="M423.114 131.678H387.332V147.496H423.114V131.678Z" fill="#92DADE"/>
<path id="Vector_27" d="M422.005 133.407H388.439V145.789H422.005V133.407Z" fill="#B7E7E9"/>
<g id="Group_2" opacity="0.3">
<path id="Vector_28" opacity="0.3" d="M418.768 133.407L412.549 145.789H418.668L422.005 139.127V133.407H418.768Z" fill="#FDFDFD"/>
<path id="Vector_29" opacity="0.3" d="M411.817 133.407L405.599 145.789H410.055L416.273 133.407H411.817Z" fill="#FDFDFD"/>
<path id="Vector_30" opacity="0.3" d="M398.405 133.407L392.186 145.789H400.788L407.007 133.407H398.405Z" fill="#FDFDFD"/>
<path id="Vector_31" opacity="0.3" d="M390.623 133.407L388.439 137.764V145.789H388.872L395.079 133.407H390.623Z" fill="#FDFDFD"/>
</g>
<path id="Vector_32" opacity="0.3" d="M426.184 162.683H386.09V185.385H426.184V162.683Z" fill="#282828"/>
<path id="Vector_33" d="M425.264 161.475H385.169V184.177H425.264V161.475Z" fill="#FDFDFD"/>
<path id="Vector_34" d="M423.114 164.922H387.332V180.74H423.114V164.922Z" fill="#92DADE"/>
<path id="Vector_35" d="M422.005 166.64H388.439V179.022H422.005V166.64Z" fill="#B7E7E9"/>
<g id="Group_3" opacity="0.3">
<path id="Vector_36" opacity="0.3" d="M418.768 166.64L412.549 179.022H418.668L422.005 172.371V166.64H418.768Z" fill="#FDFDFD"/>
<path id="Vector_37" opacity="0.3" d="M411.817 166.64L405.599 179.022H410.055L416.273 166.64H411.817Z" fill="#FDFDFD"/>
<path id="Vector_38" opacity="0.3" d="M398.405 166.64L392.186 179.022H400.788L407.007 166.64H398.405Z" fill="#FDFDFD"/>
<path id="Vector_39" opacity="0.3" d="M390.623 166.64L388.439 170.997V179.022H388.872L395.079 166.64H390.623Z" fill="#FDFDFD"/>
</g>
<path id="Vector_40" opacity="0.3" d="M48.9517 129.45H8.85742V152.152H48.9517V129.45Z" fill="#282828"/>
<path id="Vector_41" d="M48.0318 128.242H7.9375V150.944H48.0318V128.242Z" fill="#FDFDFD"/>
<path id="Vector_42" d="M45.8814 131.678H10.0991V147.496H45.8814V131.678Z" fill="#92DADE"/>
<path id="Vector_43" d="M44.7728 133.407H11.2075V145.789H44.7728V133.407Z" fill="#B7E7E9"/>
<g id="Group_4" opacity="0.3">
<path id="Vector_44" opacity="0.3" d="M41.5356 133.407L35.3169 145.789H41.4358L44.7724 139.127V133.407H41.5356Z" fill="#FDFDFD"/>
<path id="Vector_45" opacity="0.3" d="M34.5854 133.407L28.3667 145.789H32.8228L39.0415 133.407H34.5854Z" fill="#FDFDFD"/>
<path id="Vector_46" opacity="0.3" d="M21.1728 133.407L14.9541 145.789H23.556L29.7747 133.407H21.1728Z" fill="#FDFDFD"/>
<path id="Vector_47" opacity="0.3" d="M13.3913 133.407L11.2075 137.764V145.789H11.6398L17.8474 133.407H13.3913Z" fill="#FDFDFD"/>
</g>
<path id="Vector_48" opacity="0.3" d="M48.9517 162.683H8.85742V185.385H48.9517V162.683Z" fill="#282828"/>
<path id="Vector_49" d="M48.0318 161.475H7.9375V184.177H48.0318V161.475Z" fill="#FDFDFD"/>
<path id="Vector_50" d="M45.8814 164.922H10.0991V180.74H45.8814V164.922Z" fill="#92DADE"/>
<path id="Vector_51" d="M44.7728 166.64H11.2075V179.022H44.7728V166.64Z" fill="#B7E7E9"/>
<g id="Group_5" opacity="0.3">
<path id="Vector_52" opacity="0.3" d="M41.5356 166.64L35.3169 179.022H41.4358L44.7724 172.371V166.64H41.5356Z" fill="#FDFDFD"/>
<path id="Vector_53" opacity="0.3" d="M34.5854 166.64L28.3667 179.022H32.8228L39.0415 166.64H34.5854Z" fill="#FDFDFD"/>
<path id="Vector_54" opacity="0.3" d="M21.1728 166.64L14.9541 179.022H23.556L29.7747 166.64H21.1728Z" fill="#FDFDFD"/>
<path id="Vector_55" opacity="0.3" d="M13.3913 166.64L11.2075 170.997V179.022H11.6398L17.8474 166.64H13.3913Z" fill="#FDFDFD"/>
</g>
<path id="Vector_56" opacity="0.3" d="M237.573 129.45H197.479V152.152H237.573V129.45Z" fill="#282828"/>
<path id="Vector_57" d="M236.653 128.242H196.559V150.944H236.653V128.242Z" fill="#FDFDFD"/>
<path id="Vector_58" d="M234.503 131.678H198.721V147.496H234.503V131.678Z" fill="#92DADE"/>
<path id="Vector_59" d="M233.384 133.407H199.818V145.789H233.384V133.407Z" fill="#B7E7E9"/>
<g id="Group_6" opacity="0.3">
<path id="Vector_60" opacity="0.3" d="M230.158 133.407L223.939 145.789H230.047L233.394 139.127V133.407H230.158Z" fill="#FDFDFD"/>
<path id="Vector_61" opacity="0.3" d="M223.207 133.407L216.989 145.789H221.445L227.664 133.407H223.207Z" fill="#FDFDFD"/>
<path id="Vector_62" opacity="0.3" d="M209.795 133.407L203.576 145.789H212.167L218.386 133.407H209.795Z" fill="#FDFDFD"/>
<path id="Vector_63" opacity="0.3" d="M202.013 133.407L199.829 137.764V145.789H200.25L206.469 133.407H202.013Z" fill="#FDFDFD"/>
</g>
<path id="Vector_64" opacity="0.3" d="M237.573 162.683H197.479V185.385H237.573V162.683Z" fill="#282828"/>
<path id="Vector_65" d="M236.653 161.475H196.559V184.177H236.653V161.475Z" fill="#FDFDFD"/>
<path id="Vector_66" d="M234.503 164.922H198.721V180.74H234.503V164.922Z" fill="#92DADE"/>
<path id="Vector_67" d="M233.384 166.64H199.818V179.022H233.384V166.64Z" fill="#B7E7E9"/>
<g id="Group_7" opacity="0.3">
<path id="Vector_68" opacity="0.3" d="M230.158 166.64L223.939 179.022H230.047L233.394 172.371V166.64H230.158Z" fill="#FDFDFD"/>
<path id="Vector_69" opacity="0.3" d="M223.207 166.64L216.989 179.022H221.445L227.664 166.64H223.207Z" fill="#FDFDFD"/>
<path id="Vector_70" opacity="0.3" d="M209.795 166.64L203.576 179.022H212.167L218.386 166.64H209.795Z" fill="#FDFDFD"/>
<path id="Vector_71" opacity="0.3" d="M202.013 166.64L199.829 170.997V179.022H200.25L206.469 166.64H202.013Z" fill="#FDFDFD"/>
</g>
<rect id="Rectangle" x="47.5557" y="103.165" width="337.377" height="16.0324" fill="#F2DBBD"/>
</g>
</svg>
