<svg width="128" height="401" viewBox="0 0 128 401" fill="none" xmlns="http://www.w3.org/2000/svg">
<g clip-path="url(#clip0)">
<path d="M122.8 152.9L118.5 189.1V217.3H104.2V151L122.8 152.9Z" fill="#FCDD9F"/>
<path d="M2.90002 152.9L7.30002 189.1V217.3H21.6V151L2.90002 152.9Z" fill="#FCDD9F"/>
<path d="M25.4 209.5H3.90002L8.50002 246.7V255C8.50002 255 16.7 261 19 260.5C21 260.1 23 253.5 23 253.5L20.2 252.1V245L25.4 209.5Z" fill="#FFD925"/>
<path d="M63.3 70.2H61.3C54.7 70.2 49.3 76.1 49.3 83.4V94C49.3 95.1 49.4001 96.2 49.7001 97.2C50.6001 101.9 54.2 105.7 58.8 106.9C59.6 107.1 60.5 107.2 61.3 107.2H63.3C64.7 107.2 66.2001 106.9 67.5 106.4C71.4 104.7 74.1 101.2 75 97.1C75.2001 96.1 75.3001 95.1 75.3001 94V83.3C75.3001 76.1 70 70.2 63.3 70.2Z" fill="#E2C188"/>
<path d="M38.3 156.7V115C38.3 108.4 30.3 100.5 23.7 100.5C23.7 100.5 7.10002 100.5 3.90002 115L-0.0999756 156.7H38.3Z" fill="#595959"/>
<path d="M89.1 156.7V115C89.1 108.4 97.1 100.5 103.7 100.5C103.7 100.5 120.3 100.5 123.4 115L124.6 127.9L127.4 156.6L89.1 156.7Z" fill="#595959"/>
<path d="M67.0999 350.3L102.2 347.8L102 203.1H24.2V221V348L59.2999 350L60.2 244H64.6999L67.0999 350.3Z" fill="#E07D2B"/>
<path d="M42.8 61.2C44.3 66.3 43.5 71.1 41 71.8C38.5 72.5 35.3 69 33.8 63.8C32.3 58.6 33.1 54 35.6 53.2C38.1 52.4 41.3 56.1 42.8 61.2Z" fill="#E8C68B"/>
<path d="M81.8 61.2C80.3 66.3 81.1 71.1 83.6 71.8C86.1 72.5 89.3 69 90.8 63.8C92.3 58.6 91.5 53.9 89 53.2C86.5 52.5 83.3 56.1 81.8 61.2Z" fill="#E8C68B"/>
<path d="M85 57.5C85 75.1 74.7 94.3 62 94.3C49.3 94.3 39 75.1 39 57.5C39 39.9 49.3 30.7 62 30.7C74.7 30.7 85 39.9 85 57.5Z" fill="#FCDD9F"/>
<path d="M100.3 209.5H121.8L117.2 246.7V255C117.2 255 109 260.9 106.7 260.5C104.7 260.1 102.6 253.5 102.6 253.5L105.4 252.1V245L100.3 209.5Z" fill="#FFD925"/>
<path d="M27.9 377C27.9 377 22 386.7 20.6 390.5C19.2 394.3 19.1 401.2 33.8 400.9C48.5 400.6 49.9 393.4 49.9 393.4C49.9 393.4 54.9 380.4 55.5 375.7C55.7 373.6 55.5 367.4 55.5 367.4L27.9 377Z" fill="#DBB625"/>
<path d="M32.2 353.3V369.3L21.4 388.3C21.4 388.3 19.9 396 34.6 395.6C49.3 395.2 51.6 383.9 51.6 383.9L54.9 375.2L56.9 347.5L32.2 353.3Z" fill="#FFD925"/>
<path d="M63.1 345.3C63.1 351 59.3 358.2 54.1 359.9C45.7 362.7 36.7 362.7 28.3 359.9C23.2 358.2 19.3 351 19.3 345.3C19.3 339.5 23.1 337.4 28.3 339.1C36.7 341.9 45.7 341.9 54.1 339.1C59.2 337.5 63.1 339.6 63.1 345.3Z" fill="#FF9533"/>
<path d="M101.2 376.8C101.2 376.8 107.2 386.5 108.7 390.2C110.2 393.9 110.4 400.8 95.7 400.7C81 400.6 79.5 393.4 79.5 393.4C79.5 393.4 74.3 380.5 73.7 375.8C73.4 373.7 73.6 367.5 73.6 367.5L101.2 376.8Z" fill="#DBB625"/>
<path d="M96.6 353.2L96.8 369.2L107.9 388C107.9 388 109.6 395.6 94.9 395.5C80.2 395.4 77.8 384.1 77.8 384.1L74.3 375.5L71.9 347.9L96.6 353.2Z" fill="#FFD925"/>
<path d="M63.5 344.7C63.6 350.4 67.5 357.5 72.7 359.1C81.1 361.8 90.2 361.6 98.5 358.7C103.6 356.9 107.3 349.7 107.3 344C107.2 338.2 104.3 336.2 99.2 338C90.5 340.9 81.2 341.1 72.4 338.4C67.2 336.8 63.4 338.9 63.5 344.7Z" fill="#FF9533"/>
<path d="M69.9 76.1C69.9 82.2 66.5 87.2 62.2 87.2C57.9 87.2 54.5 82.2 54.5 76.1C54.5 70 57.9 65.6 62.2 65.6C66.5 65.6 69.9 70 69.9 76.1Z" fill="#C1C1BF"/>
<path d="M74.3001 82.5C74.3001 77.3 73.6 76.5 70.5 74.7C68.3 72.5 65.4 71.3 62.3 71.1C59.2 71.2 56.3 72.5 54.1 74.7C51 76.4 50.3 77.3 50.3 82.5C50.3 82.6 50.3 82.7 50.3 82.8C50.4 89.8 55.6 95.4 62.3 95.4H62.5C69.1 95.4 74.4001 89.6 74.3001 82.5Z" fill="#939393"/>
<path d="M39.7 67.8C39.7 67.8 40.4 68.8 41.5 70.1C42.8 71.8 44.2999 73.3 45.7999 74.8C46.1999 75.2 46.5999 75.6 47.0999 75.9C47.4999 76.3 47.9 76.6 48.4 76.9C48.8 77.2 49.1999 77.5 49.5999 77.7C49.9999 77.9 50.3 78.1 50.7 78.3C51 78.5 51.2999 78.6 51.5999 78.7C51.7999 78.8 52.0999 78.8 52.2999 78.9L52.9 79L52.5999 82L51.5999 81.7C51.2999 81.6 50.8999 81.5 50.5999 81.3L50.0999 81C49.8999 80.9 49.7 80.8 49.5 80.6C49.1 80.3 48.5999 80 48.2999 79.7C47.9 79.3 47.4999 79 47.0999 78.5C46.6999 78.1 46.3 77.7 45.9 77.2C45.5 76.7 45.0999 76.3 44.7999 75.8C42.7999 73.3 41.1 70.6 39.7 67.8Z" fill="#939393"/>
<path d="M84.5 67.8C83.1 70.6 81.4 73.3 79.5 75.8C79.1 76.3 78.8 76.8 78.4 77.2C78 77.6 77.6 78.1 77.2 78.5C76.8 78.9 76.4 79.3 76 79.7C75.6 80 75.2 80.4 74.8 80.6C74.6 80.7 74.4 80.9 74.2 81L73.6 81.3C73.3 81.5 72.9 81.6 72.6 81.7L71.6 82L71.4 79H71.9C72.1 79 72.4 78.9 72.6 78.8C72.9 78.7 73.3 78.6 73.6 78.4C74 78.2 74.4 78 74.7 77.8C75.1 77.5 75.5 77.2 75.9 76.9C76.3 76.6 76.8 76.3 77.2 75.9C77.6 75.6 78 75.1 78.5 74.8C80 73.3 81.5 71.8 82.8 70.1C83.8 68.8 84.5 67.8 84.5 67.8Z" fill="#939393"/>
<path d="M33.5 58.2C33.5 59.1 32.8 59.8 31.9 59.8C31 59.8 30.3 59.1 30.3 58.2V51.5C30.3 50.6 31 49.9 31.9 49.9C32.8 49.9 33.5 50.6 33.5 51.5V58.2Z" fill="#686868"/>
<path d="M93.7 58.2C93.7 59.1 93 59.8 92.1 59.8C91.2 59.8 90.5 59.1 90.5 58.2V51.5C90.5 50.6 91.2 49.9 92.1 49.9C93 49.9 93.7 50.6 93.7 51.5V58.2Z" fill="#686868"/>
<path d="M63.1001 44.6H60.9001C52.2001 44.6 43.5001 45.2 34.9001 46.2C35.0001 46.2 31.9001 50.1 31.9001 54.6C31.5001 59.1 34.3001 64.1 37.4001 66.5C41.3001 69.6 48.7001 69.9 56.5001 69.8C58.0001 69.8 59.8001 61.9 61.9001 60.5C64.0001 62 65.8001 69.8 67.3001 69.8C75.2001 69.9 82.5001 69.6 86.4001 66.5C89.5001 64.1 92.3001 59 91.9001 54.6C91.9001 50.1 88.8001 46.3 88.9001 46.2C80.4001 45.2 71.8001 44.7 63.1001 44.6Z" fill="#1681BF"/>
<path d="M36.1 48.1C34.8 50 34 52.3 33.9 54.6V54.8C33.6 58.6 36.1 63 38.6 65L38.9 65.2C43.8 59.2 49 53.2 53.3 46.9C47.6 47 41.8 47.4 36.1 48.1Z" fill="#54D4D8"/>
<path d="M63.1 46.6H61C58.5 46.6 56 46.7 53.5 46.8C49.1 53.2 44 59.1 39 65.1C41.5 66.8 45.5 67.5 49.8 67.7C54.6 60.1 59.5 53.2 64.6 46.7L63.1 46.6Z" fill="#7AEAEA"/>
<path d="M64.5 46.6C59.4 53.2 54.6 60 49.7 67.6C51.2 67.7 52.8 67.7 54.4 67.7H55.9C56.4 66.8 56.9 65.8 57.2 64.8C58.3 62.2 59.2999 59.8 60.7999 58.7L62 58L63.0999 58.8C63.8999 59.4 64.5 60.2 65 61.1C68.2999 56.4 71.7 51.8 74.9 47C71.5 46.8 68 46.7 64.5 46.6Z" fill="#54D4D8"/>
<path d="M74.9 47C71.7 51.7 68.3 56.3 65 61.1C65.6 62.3 66.2 63.6 66.7 64.9C67.1 65.9 67.5 66.9 68 67.8H70.7C75 61 79.5 54.3 84 47.7C81.1 47.4 78 47.2 74.9 47Z" fill="#7AEAEA"/>
<path d="M90.1 54.6C90 52.2 89.2 50 87.9 48C86.7 47.9 85.4 47.8 84.2 47.6C79.7 54.2 75.2 60.9 70.9 67.7C76.5 67.7 82.4 67.2 85.4 64.8C87.9 63 90.4 58.5 90.1 54.6Z" fill="#54D4D8"/>
<path d="M68.7 79.5C68.7 79.8 65.8 80.1 62.3 80.1C58.8 80.1 55.9 79.9 55.9 79.5C55.9 79.1 58.8 79 62.3 79C65.8 79 68.7 79.2 68.7 79.5Z" fill="#707070"/>
<path d="M68.7 82.5C68.7 82.8 65.8 83 62.3 83C58.8 83 55.9 82.8 55.9 82.5C55.9 82.2 58.8 82 62.3 82C65.8 82 68.7 82.2 68.7 82.5Z" fill="#707070"/>
<path d="M68.7 85.5C68.7 85.8 65.8 86 62.3 86C58.8 86 55.9 85.8 55.9 85.5C55.9 85.2 58.8 84.9 62.3 84.9C65.8 84.9 68.7 85.2 68.7 85.5Z" fill="#707070"/>
<path d="M68.7 84.6C68.7 84.9 65.8 85.1 62.3 85.1C58.8 85.1 55.9 84.9 55.9 84.6C55.9 84.3 58.8 84.1 62.3 84.1C65.8 84.1 68.7 84.3 68.7 84.6Z" fill="#707070"/>
<path d="M90.9 39C90.1 17.8 77.3 1 61.6 1C45.9 1 33.1 17.8 32.3 39L28.9 46.5H94.3L90.9 39Z" fill="#FFD925"/>
<path d="M67 38.2C66.8 17 65.8 0 61.6 0C56.7 0 56.4 17 56.2 38.2L55.6 45.7H67.6L67 38.2Z" fill="#FFE471"/>
<path d="M46.3 164.5H31.9V171H46.3V164.5Z" fill="white"/>
<path d="M93.6 164.5H79.2V168.4H93.6V164.5Z" fill="white"/>
<path d="M23.9 221C23.9 221 42.6 225 48.6 223.3C54.6 221.6 58.9001 210.6 58.9001 210.6H67.6C67.6 210.6 71.9001 221.6 77.9001 223.3C83.9001 225 102.6 221 102.6 221L105.3 177.5H21.3L23.9 221Z" fill="#FF9533"/>
<path d="M107.5 139.3C107.5 139.3 104.4 134.7 101.8 125C99.5 116 102.5 104.5 103.8 99.7L93.5 98.8V164.6H106L107.5 139.3Z" fill="#FF9533"/>
<path d="M75 97C74.2 101.1 71.4 104.6 67.5 106.3V164.5H79.1V97.4L75 97Z" fill="#FF9533"/>
<path d="M22.5 99.7C23.8 104.5 26.8 116 24.5 125C22 134.7 18.8 139.3 18.8 139.3L20.3 164.5H31.8V98.8L22.5 99.7Z" fill="#FF9533"/>
<path d="M49.8 97.2L46.3 97.5V164.5H58.9001V106.9C54.2001 105.6 50.7 101.9 49.8 97.2Z" fill="#FF9533"/>
<path d="M93.5 164.5V98.7L79.2 97.4V164.5H46.3V97.5L31.9 98.8V164.5H20.4L21.2 179.5H105.2L106 164.5H93.5Z" fill="#EFEFEF"/>
<path d="M63.3 107.2H61.3C60.5 107.2 59.6 107.1 58.8 106.9V210.7H67.5V106.3C66.2 106.9 64.8 107.1 63.3 107.2Z" fill="#595959"/>
</g>
<defs>
<clipPath id="clip0">
<rect width="127.4" height="400.9" fill="white"/>
</clipPath>
</defs>
</svg>
